<svg width="1000" height="1001" viewBox="0 0 1000 1001" fill="none" xmlns="http://www.w3.org/2000/svg">
<g clip-path="url(#clip0_548_25893)">
<g clip-path="url(#clip1_548_25893)">
<path style="mix-blend-mode:screen" d="M782.626 782.783C938.783 626.625 938.783 373.443 782.626 217.286C626.468 61.128 373.287 61.1281 217.13 217.286C60.9724 373.443 60.9724 626.625 217.13 782.783C373.287 938.94 626.468 938.94 782.626 782.783Z" fill="url(#paint0_radial_548_25893)"/>
<path style="mix-blend-mode:screen" d="M499.867 814.066C673.302 814.066 813.898 673.469 813.898 500.034C813.898 326.599 673.302 186.002 499.867 186.002C326.432 186.002 185.835 326.599 185.835 500.034C185.835 673.469 326.432 814.066 499.867 814.066Z" fill="url(#paint1_radial_548_25893)"/>
<path style="mix-blend-mode:screen" d="M499.867 799.736C665.388 799.736 799.568 665.555 799.568 500.034C799.568 334.514 665.388 200.333 499.867 200.333C334.347 200.333 200.166 334.514 200.166 500.034C200.166 665.555 334.347 799.736 499.867 799.736Z" fill="url(#paint2_radial_548_25893)"/>
<path fill-rule="evenodd" clip-rule="evenodd" d="M771.649 495.274C771.649 521.356 767.98 546.646 761.037 570.497C747.302 618.497 720.624 660.992 685.021 694.116C659.583 717.868 629.534 736.711 596.46 749.257C566.46 760.661 534.03 766.86 500.014 766.86C495.204 766.86 490.344 766.761 485.584 766.463H485.535C478.444 766.116 471.353 765.422 464.411 764.579C411.948 757.686 364.295 735.918 325.667 703.439C311.139 691.339 297.998 677.703 286.345 662.778C277.519 651.621 269.535 639.72 262.544 627.174C260.858 624.199 259.271 621.174 257.684 618.1C257.684 618.001 257.635 617.951 257.585 617.802C255.899 614.53 254.362 611.257 252.874 607.935H252.825C248.114 597.571 243.998 586.86 240.676 575.803C238.147 567.869 236.015 559.736 234.329 551.505C234.279 551.456 234.279 551.356 234.279 551.257C233.089 545.456 232.048 539.604 231.255 533.703C229.42 521.108 228.527 508.266 228.527 495.175C228.527 487.687 228.825 480.15 229.519 472.811C229.866 468.1 230.362 463.489 231.007 458.828C234.527 432.1 241.965 406.663 252.726 382.96C257.982 371.307 264.081 360.15 270.924 349.44C282.279 331.539 295.668 315.175 310.841 300.398C359.733 252.795 426.526 223.49 500.163 223.49C503.039 223.49 505.915 223.539 508.691 223.589C511.716 223.688 514.791 223.837 517.815 224.035C533.386 225.076 548.658 227.357 563.385 230.927C571.964 233.01 580.394 235.39 588.675 238.266C594.278 240.151 599.782 242.283 605.236 244.564C609.303 246.299 613.269 248.084 617.236 249.969C617.931 250.316 618.625 250.613 619.319 250.96C645.699 263.853 669.6 280.812 690.377 301.192C693.352 304.068 696.228 307.043 699.104 310.068C700.988 312.15 702.872 314.233 704.707 316.365C707.881 319.936 710.905 323.655 713.881 327.374C724.74 341.109 734.211 355.935 742.195 371.654C751.517 389.902 758.856 409.34 763.864 429.671C769.07 450.646 771.847 472.563 771.847 495.125L771.649 495.274Z" fill="url(#paint3_radial_548_25893)"/>
<g style="mix-blend-mode:multiply" opacity="0.4">
<path fill-rule="evenodd" clip-rule="evenodd" d="M228.429 495.273C228.429 495.273 292.495 608.926 354.379 626.579C416.312 644.182 487.023 633.025 511.171 642C535.32 651.025 548.51 687.918 548.51 687.918L557.535 693.075C557.535 693.075 578.212 660.992 590.857 679.934C590.857 679.934 585.799 653.058 601.022 620.381C616.245 587.703 626.361 552.546 645.204 541.339C664.047 530.133 698.46 524.877 725.782 535.736C753.104 546.546 767.236 544.463 767.236 544.463L769.269 531.62L771.302 520.265C771.302 520.265 745.17 524.43 724.146 510.992C724.146 510.992 727.022 516.001 743.336 485.604C759.6 455.158 757.765 427.736 757.765 427.736L755.435 402.447C755.435 402.447 746.707 490.116 709.716 515.554C709.716 515.554 627.303 498.497 592.444 595.786C592.444 595.786 586.493 660.843 551.931 659.058C517.419 657.223 529.32 614.678 479.386 614.281C429.403 613.835 399.106 634.414 349.618 606.199C300.131 577.984 228.478 495.323 228.478 495.323L228.429 495.273Z" fill="#7D72B3"/>
</g>
<g style="mix-blend-mode:multiply" opacity="0.4">
<path fill-rule="evenodd" clip-rule="evenodd" d="M485.586 766.463C485.586 766.463 519.85 715.29 557.536 715.587C595.222 715.885 612.577 729.521 642.279 712.215C671.982 694.86 684.329 684.05 698.015 674.777C711.7 665.505 714.031 662.579 714.031 662.579L720.229 654.397C720.229 654.397 699.403 644.282 681.056 659.108C662.709 673.935 629.536 707.554 603.205 707.405C576.875 707.257 578.164 692.083 548.561 703.984C518.957 715.885 456.677 757.835 456.677 757.835C456.677 757.835 467.933 766.066 485.635 766.463H485.586Z" fill="#7D72B3"/>
</g>
<g style="mix-blend-mode:multiply" opacity="0.4">
<path fill-rule="evenodd" clip-rule="evenodd" d="M243.355 584.232L246.628 593.208C246.628 593.208 299.587 622.464 333.058 663.125C366.479 703.835 372.429 731.406 372.429 731.406C372.429 731.406 378.38 707.158 349.57 661.538C320.76 615.918 258.727 590.927 243.405 584.232H243.355Z" fill="#7D72B3"/>
</g>
<path fill-rule="evenodd" clip-rule="evenodd" d="M619.171 251.109C618.278 251.208 617.386 251.307 616.493 251.505C613.419 252.051 611.039 251.803 608.014 250.96C605.832 250.365 604.295 249.472 601.964 249.076C598.642 248.58 595.617 247.142 592.295 246.696C588.824 246.249 585.799 244.861 582.477 243.671C579.898 242.729 578.51 243.076 576.03 243.671C573.551 244.315 571.766 243.274 569.584 242.332C567.105 241.241 564.576 241.043 561.948 240.547C555.055 239.109 548.212 236.927 541.419 235.191C537.155 234.101 533.287 234.101 528.923 234.051C525.551 234.051 522.477 234.993 519.055 234.993C516.775 234.993 514.841 234.596 512.609 234.299C510.279 233.853 507.948 234.299 505.618 234.001C502.196 233.506 500.361 232.96 496.841 234.001C494.262 234.844 492.229 234.745 489.651 234.894C486.775 235.043 483.502 235.787 480.725 236.431C475.618 237.621 470.064 238.563 464.857 238.464C461.634 238.464 456.924 237.572 453.899 238.663C451.915 239.357 450.924 241.489 449.585 242.927C446.957 245.654 443.684 248.134 441.502 251.158C439.271 254.233 436.791 257.357 436.99 261.224C437.188 264.547 438.725 268.464 440.213 271.538C441.7 274.811 442.246 277.737 438.874 279.919C434.659 282.695 429.849 285.224 425.039 286.613C421.816 287.555 418.94 288.1 416.263 285.819C415.271 284.976 414.676 283.34 413.436 282.646C412.147 282.001 410.858 282.646 409.469 283.092C406.097 284.084 402.775 285.224 399.354 285.77C397.221 286.117 395.387 287.208 393.304 287.605C390.825 288.051 389.039 286.216 386.411 286.861C382.792 287.704 379.172 289.241 375.403 289.39C372.726 289.538 369.304 288.348 367.073 287.01C365.734 286.266 365.436 285.522 363.899 285.919C362.659 286.216 360.825 287.704 360.18 288.646C359.288 289.935 358.94 291.571 358.048 292.91C357.106 294.348 356.213 295.786 355.37 297.324C353.833 300.348 351.998 303.175 350.015 305.852C348.577 307.737 347.635 310.266 346.048 312.001C345.255 312.943 343.519 313.588 342.478 314.332C339.651 316.315 336.676 318.1 333.949 320.233C328.693 324.398 323.684 328.96 318.329 332.976C314.213 336.051 308.461 337.836 303.8 339.77C300.875 340.96 297.85 341.803 294.924 343.042C293.982 343.439 292.247 343.836 291.453 344.53C290.412 345.423 289.866 347.059 288.924 348.299C286.395 351.423 283.718 354.497 281.784 358.117C280.594 360.199 279.899 362.332 279.156 364.563C278.114 367.637 276.478 370.464 275.437 373.538C273.304 379.935 272.908 386.629 270.528 392.976C269.139 396.695 267.205 400.067 265.47 403.489C262.544 409.241 262.147 416.084 261.255 422.431C260.809 426.15 260.957 430.464 261.652 434.083C262.346 438.001 262.147 442.067 262.147 446.034C262.147 450.298 259.42 454.414 256.743 457.637C254.313 460.612 250.594 461.753 247.817 464.381C245.486 466.662 242.71 469.24 241.718 472.414C241.272 473.802 241.718 475.439 241.42 476.926C240.825 480.249 239.982 483.422 239.486 486.844C238.991 491.059 238.891 494.976 238.891 499.24C238.891 501.373 238.743 503.505 238.891 505.637C238.991 507.67 239.734 509.554 239.883 511.587C239.982 513.025 239.685 514.414 239.883 515.852C240.181 517.439 240.776 519.125 241.172 520.662C242.114 524.43 242.809 528.1 243.553 531.868C244.197 535.339 245.586 538.81 246.676 542.182C248.164 546.794 249.156 551.554 250.048 556.364C250.743 559.934 250.693 563.653 251.238 567.273C251.685 570.199 252.329 573.174 252.478 576.1C252.627 580.513 251.536 584.976 251.486 589.438C251.486 596.976 254.462 604.513 256.197 611.752C256.693 613.785 257.238 615.868 257.784 617.901C239.139 581.058 228.627 539.406 228.627 495.323C228.627 441.72 244.197 391.737 270.974 349.588C282.379 331.687 295.767 315.274 310.891 300.596C359.833 252.993 426.626 223.687 500.262 223.687C506.213 223.687 512.064 223.886 517.865 224.233C554.113 226.563 588.377 235.985 619.369 251.158L619.171 251.109Z" fill="url(#paint4_linear_548_25893)"/>
<g style="mix-blend-mode:multiply" opacity="0.4">
<path fill-rule="evenodd" clip-rule="evenodd" d="M294.876 343.043C294.876 343.043 356.016 397.687 436.693 399.274C517.371 400.861 547.321 395.406 574.147 365.555C600.974 335.654 629.883 285.076 629.883 285.076C629.883 285.076 595.42 301.688 571.569 334.117C547.718 366.547 435.156 421.836 294.826 343.043H294.876Z" fill="#7D72B3"/>
</g>
<g opacity="0.7">
<g style="mix-blend-mode:multiply" opacity="0.4">
<path fill-rule="evenodd" clip-rule="evenodd" d="M299.736 344.58C291.753 354.051 284.761 363.721 279.406 374.927C274.645 384.894 272.86 396.001 271.125 406.811C270.083 413.208 269.191 419.654 268.249 426.051C267.406 431.753 265.769 437.753 266.711 443.505C268.05 451.291 268.447 459.919 272.166 467.01C276.182 474.646 280.298 481.29 285.653 488.034C290.86 494.629 297.158 497.555 305.538 498.15C310.1 498.497 314.612 497.753 319.174 498.348C325.521 499.191 331.819 500.332 338.116 501.373C350.81 503.406 365.091 503.505 374.215 493.092C381.603 484.662 385.124 474.1 389.835 464.034C394.843 453.324 401.19 444.448 410.562 437.158C417.455 431.803 423.554 425.803 430.149 420.15C433.174 417.572 435.008 414.795 438.43 412.91C441.802 411.026 443.587 408.944 446.512 406.216C449.14 403.787 452.364 402.15 454.694 399.373C458.413 394.96 461.438 389.01 463.471 383.654C465.603 378.051 466.595 372.051 467.438 366.15C468.231 360.349 466.496 354.547 464.711 348.993C461.289 338.481 452.314 331.886 443.835 325.34C433.372 317.258 421.074 313.688 408.182 311.159C396.479 308.878 382.397 308.382 370.645 310.464C358.199 312.646 345.405 314.431 333.852 319.836C325.372 323.754 320.265 329.258 313.422 335.059C309.951 338.035 305.736 340.018 302.562 343.39C298.199 348.002 294.133 353.01 299.686 344.53L299.736 344.58Z" fill="#7D72B3"/>
</g>
<g style="mix-blend-mode:multiply" opacity="0.4">
<path fill-rule="evenodd" clip-rule="evenodd" d="M422.81 293.902C424.496 290.977 426.429 286.712 428.76 283.935C430 282.448 431.636 281.258 433.173 280.018C437.735 276.2 442.694 272.977 448.446 271.34C451.619 270.448 455.09 270.349 458.264 271.142C461.487 271.985 467.338 274.167 469.818 276.547C474.429 280.96 471.404 288.448 470.016 293.605C468.628 298.762 466.991 303.671 462.38 306.944C459.355 309.076 455.785 310.762 452.165 311.605C450.181 312.051 448.148 311.952 446.115 312.15C444.479 312.349 442.892 312.745 441.256 312.745C437.487 312.745 431.785 310.068 430.198 306.398C429.355 304.464 428.909 302.481 428.016 300.547C427.372 299.059 426.826 297.522 426.231 296.035C425.091 293.258 424.049 290.53 422.81 293.853V293.902Z" fill="#7D72B3"/>
</g>
<g style="mix-blend-mode:multiply" opacity="0.4">
<path fill-rule="evenodd" clip-rule="evenodd" d="M467.735 322.861C466.595 325.836 466 328.96 465.9 332.084C467.289 332.927 467.785 334.613 469.173 335.456C470.462 336.25 472.049 335.902 473.586 335.902C476.314 335.902 478.942 335.902 479.388 332.58C479.785 329.655 477.206 327.522 475.024 325.936C473.438 324.795 470.314 322.117 468.528 324.299L467.785 322.861H467.735Z" fill="#7D72B3"/>
</g>
<g style="mix-blend-mode:multiply" opacity="0.4">
<path fill-rule="evenodd" clip-rule="evenodd" d="M505.372 367.043C501.851 369.572 498.033 371.803 494.661 374.481C490.397 377.902 487.025 382.216 483.703 386.481C479.587 391.836 474.727 397.39 475.769 404.58C476.76 411.671 479.19 417.572 484.645 422.332C490.942 427.836 500.661 427.786 508 431.357C514.248 434.381 518.264 440.729 521.388 446.679C526.149 455.803 536.116 457.39 545.24 459.125C551.19 460.216 557.041 461.109 563.041 461.803C571.074 462.795 579.058 464.332 587.14 465.125C601.917 466.563 616.843 469.935 631.719 468.745C647.537 467.456 661.818 461.852 674.809 452.778C685.867 445.092 695.784 431.704 698.71 418.415C701.784 404.481 697.222 388.96 690.479 376.811C681.702 360.993 671.388 346.167 660.132 332.035C653.884 324.2 646.694 317.258 640.347 309.473C634.842 302.779 629.041 296.779 622.495 291.126C607.768 278.431 589.421 267.969 569.636 266.927C562.099 266.531 554.463 267.622 547.372 270.398C541.173 272.779 536.661 276.398 532.049 281.109C520.347 293.159 514.198 308.531 509.141 324.299C506.81 331.539 504.628 339.721 505.471 347.407C505.719 349.737 507.008 351.621 506.959 353.853C506.959 355.935 506.959 358.018 506.959 360.101C506.959 361.34 507.058 362.283 506.661 363.274C505.967 364.96 504.281 366.696 505.521 366.894L505.372 367.043Z" fill="#7D72B3"/>
</g>
<g style="mix-blend-mode:multiply" opacity="0.4">
<path fill-rule="evenodd" clip-rule="evenodd" d="M443.091 420.646C435.454 425.109 427.57 428.58 421.967 435.77C420.975 437.059 419.487 438.447 420.033 440.183C420.628 442.067 422.76 443.158 424.396 443.852C430.099 446.233 437.041 447.472 443.14 446.233C448.644 445.142 455.834 441.423 458.809 436.464C462.578 430.166 458.314 420.1 450.38 420.596C449.19 420.695 448.297 421.241 447.107 421.39C446.165 421.489 445.173 421.29 444.181 421.39C443.091 421.39 442.843 421.638 441.95 422.034C441.008 422.431 439.768 423.522 443.091 420.695V420.646Z" fill="#7D72B3"/>
</g>
<g style="mix-blend-mode:multiply" opacity="0.4">
<path fill-rule="evenodd" clip-rule="evenodd" d="M285.949 525.62C282.825 528.447 279.751 530.629 277.966 534.348C276.28 537.868 275.139 541.24 274.296 545.009C273.602 548.282 272.66 551.802 273.503 555.174C274.247 558.199 275.685 561.174 276.676 564.149C278.015 567.967 279.255 571.587 280.098 575.554C281.139 580.463 282.974 584.678 285.156 589.24C287.337 593.703 289.767 597.967 292.395 602.133C295.123 606.447 298.296 609.819 301.866 613.538C314.263 626.43 329.387 640.116 347.833 642.447C357.155 643.637 366.874 641.207 373.717 634.513C381.155 627.224 385.916 616.662 387.502 606.397C388.841 597.67 387.949 588.596 383.238 581.009C379.469 574.959 375.354 568.414 370.494 563.207C367.221 559.686 363.403 556.612 359.833 553.389C356.263 550.166 352.841 546.794 348.974 543.918C342.18 538.91 335.585 533.703 328.693 528.744C322.494 524.282 315.8 519.422 308.213 517.587C303.007 516.348 297.255 515.306 292.098 517.29C289.866 518.133 288.18 518.926 287.04 520.91C286.494 521.901 285.156 523.637 285.106 524.777C284.908 524.777 284.709 524.877 285.949 525.62Z" fill="#7D72B3"/>
</g>
<g style="mix-blend-mode:multiply" opacity="0.4">
<path fill-rule="evenodd" clip-rule="evenodd" d="M334.496 513.323C334.744 515.505 334.992 517.687 335.24 519.869C335.389 520.563 335.538 521.307 335.686 522.001C336.133 522.447 337.769 522.646 338.315 522.695C340.546 522.943 342.926 521.753 344.662 520.414C347.29 518.332 348.529 513.522 346.05 511.092C344.116 509.158 341.538 508.414 338.81 509.009C337.372 509.307 331.323 512.48 333.753 514.761L334.496 513.323Z" fill="#7D72B3"/>
</g>
<g style="mix-blend-mode:multiply" opacity="0.4">
<path fill-rule="evenodd" clip-rule="evenodd" d="M698.015 453.968C698.957 449.109 699.057 445.985 702.032 442.365C704.61 439.191 707.486 436.266 709.966 433.043C714.528 427.092 717.404 420.101 719.089 412.811C720.577 406.365 719.04 400.117 721.916 393.919C722.61 392.431 723.403 389.654 724.941 388.96C726.379 388.316 729.255 388.861 730.544 389.654C731.833 390.448 733.222 392.134 734.313 393.125C736.296 394.861 738.032 396.844 739.817 398.778C748.891 408.646 753.85 423.324 753.8 436.613C753.8 444.398 752.907 451.588 750.329 458.927C749.288 461.902 748.197 464.58 746.56 467.307C744.577 470.629 742.147 472.613 738.924 474.695C729.552 480.695 715.916 478.464 708.081 471.026C705.156 468.299 703.817 464.481 701.933 461.257C700.445 458.729 699.056 456.448 698.511 453.423C698.313 453.423 698.114 453.324 697.916 454.018L698.015 453.968Z" fill="#7D72B3"/>
</g>
<g style="mix-blend-mode:multiply" opacity="0.4">
<path fill-rule="evenodd" clip-rule="evenodd" d="M698.015 351.82C699.553 357.125 700.346 362.878 705.8 365.654C706.743 366.15 708.726 366.894 709.817 366.944C711.205 366.993 712.197 366.249 713.238 365.456C718.941 361.291 715.668 351.671 711.8 347.307C709.519 344.729 706.941 343.935 703.767 342.993C702.329 342.547 702.676 342.448 701.486 342.993C700.544 343.39 699.949 343.836 699.453 344.58C698.957 345.373 698.759 346.613 698.71 347.506C698.71 348.547 698.313 349.092 698.164 349.836C697.767 351.671 697.966 353.159 698.71 354.745L697.966 351.869L698.015 351.82Z" fill="#7D72B3"/>
</g>
<g style="mix-blend-mode:multiply" opacity="0.4">
<path fill-rule="evenodd" clip-rule="evenodd" d="M655.322 572.728C653.933 576.348 652.842 580.117 651.256 583.637C649.57 587.356 647.884 591.174 646.297 594.943C642.132 604.96 639.801 615.323 637.074 625.786C634.247 636.794 632.413 648.001 631.272 659.257C630.677 665.059 629.785 670.662 629.933 676.563C630.033 680.728 630.033 685.835 631.52 689.802C632.462 692.282 634.743 696.05 637.322 697.141C640.694 698.579 644.958 695.753 647.785 694.364C658.842 688.86 668.264 680.53 677.09 671.951C685.768 663.521 694.545 655.488 701.735 645.67C705.007 641.207 708.627 636.794 711.355 631.984C713.636 627.968 715.222 623.555 717.305 619.439C719.239 615.571 720.677 611.455 722.512 607.538C724.743 602.778 726.826 597.869 728.363 592.811C731.338 583.191 733.966 573.323 730.594 563.406C727.718 554.976 720.677 548.48 711.95 546.596C707.189 545.555 701.884 544.166 697.024 544.563C692.214 544.96 687.107 546.249 682.694 548.084C678.826 549.67 674.908 551.555 671.388 553.786C669.404 555.026 668.066 556.761 666.479 558.447C663.851 561.274 661.223 564.348 659.19 567.67C658.148 569.356 657.206 570.348 655.917 571.836C654.132 573.819 653.388 576.844 655.371 572.778L655.322 572.728Z" fill="#7D72B3"/>
</g>
<g style="mix-blend-mode:multiply" opacity="0.4">
<path fill-rule="evenodd" clip-rule="evenodd" d="M612.577 697.984C606.825 700.166 602.065 702.249 597.156 705.868C591.305 710.232 585.801 714.695 581.586 720.744C580.048 722.926 576.974 726.744 579.305 729.323C581.288 731.604 584.561 731.406 587.239 731.306C591.205 731.207 595.172 730.513 598.842 728.976C602.263 727.538 605.338 725.653 608.858 724.463C612.23 723.323 616.842 721.042 619.123 718.166C620.412 716.53 621.156 714.249 622.395 712.463C623.387 711.025 623.685 709.935 623.486 708.1C623.238 706.067 621.999 703.191 620.412 701.753C619.024 700.463 616.296 699.174 614.412 699.422C613.42 699.571 612.131 699.868 611.238 700.265C608.957 701.257 607.073 704.083 612.627 697.984H612.577Z" fill="#7D72B3"/>
</g>
<g style="mix-blend-mode:multiply" opacity="0.4">
<path fill-rule="evenodd" clip-rule="evenodd" d="M605.338 664.711C604.148 660.397 602.859 656.976 603.206 652.662C603.553 648.744 603.503 645.422 605.536 641.852C606.379 640.364 608.908 635.654 610.594 635.009C611.189 634.811 612.925 634.91 613.47 634.959C616.396 635.356 618.181 638.926 618.776 641.604C619.718 645.67 619.074 650.43 619.074 654.596C619.074 657.868 618.677 660.844 617.437 663.868C616.446 666.298 614.512 666.298 612.032 666.199C609.603 666.1 608.611 665.406 606.776 664.017C606.132 663.521 605.14 663.323 604.545 662.777C603.751 662.083 604.049 661.091 605.338 664.761V664.711Z" fill="#7D72B3"/>
</g>
<g style="mix-blend-mode:multiply" opacity="0.4">
<path fill-rule="evenodd" clip-rule="evenodd" d="M600.279 493.042C599.783 496.067 599.585 499.091 599.635 502.116C600.726 502.116 601.866 504.149 603.304 504.496C605.337 504.992 607.37 503.752 608.957 502.513C612.378 499.786 613.32 494.579 612.577 490.513C611.833 486.496 607.221 486.1 603.899 486.496C602.808 486.645 601.122 487.141 600.279 487.934C598.246 489.719 598.097 491.852 598.147 494.48L600.329 493.042H600.279Z" fill="#7D72B3"/>
</g>
<g style="mix-blend-mode:multiply" opacity="0.4">
<path fill-rule="evenodd" clip-rule="evenodd" d="M340.992 679.885C342.826 676.662 344.463 673.24 346.793 670.364C349.471 667.191 352.496 663.819 355.521 661.042C359.339 657.571 363.752 654.397 367.818 651.224C371.587 648.298 375.454 645.422 379.52 642.893C386.611 638.48 393.901 635.554 401.735 632.827C408.132 630.645 414.876 629.902 421.52 631.24C428.363 632.629 435.008 636.497 440.016 641.257C444.826 645.819 449.933 651.373 452.909 657.373C458.958 669.67 456.628 682.959 452.462 695.455C450.628 701.009 446.76 707.703 442.049 711.273C439.421 713.306 436.198 714.645 432.975 715.389C429.305 716.232 425.09 717.472 421.371 717.967C405.008 720.05 388.248 718.86 372.677 713.108C366.529 710.827 360.479 708.05 354.578 705.174C349.917 702.893 346 700.017 342.876 695.802C340.545 692.678 338.612 689.009 338.711 685.042C338.76 683.257 339.355 681.67 339.603 679.934C340.397 679.934 341.041 679.439 340.942 679.786L340.992 679.885Z" fill="#7D72B3"/>
</g>
<g style="mix-blend-mode:multiply" opacity="0.4">
<path fill-rule="evenodd" clip-rule="evenodd" d="M464.115 687.125C462.975 690.1 462.231 693.174 461.934 696.348C463.024 696.992 462.975 698.827 463.818 699.819C464.76 700.959 465.752 701.554 467.14 701.604C468.578 701.703 470.314 701.753 471.752 701.554C473.983 701.207 474.479 700.364 475.669 698.728C476.958 696.893 477.305 696.05 477.157 693.62C477.057 691.935 476.562 690.149 475.52 688.761C474.876 687.868 473.686 686.48 472.793 685.835C470.661 684.298 469.024 685.191 466.991 686.43L464.115 687.174V687.125Z" fill="#7D72B3"/>
</g>
<g style="mix-blend-mode:multiply" opacity="0.4">
<path fill-rule="evenodd" clip-rule="evenodd" d="M732.082 545.902C729.602 543.968 727.52 541.637 725.883 538.96C726.131 537.869 726.082 536.778 725.784 535.687C725.387 532.91 724.842 530.629 725.437 527.803C726.776 521.208 732.528 516.299 739.222 515.555C743.635 515.059 750.032 518.629 752.313 522.199C754.792 525.968 755.784 531.075 755.982 535.489C756.131 539.158 755.338 543.522 753.106 546.546C751.569 548.679 748.445 548.728 746.015 548.827C743.189 548.927 740.363 548.48 737.734 547.538C735.701 546.844 733.47 545.406 732.131 545.902H732.082Z" fill="#7D72B3"/>
</g>
</g>
<path style="mix-blend-mode:screen" fill-rule="evenodd" clip-rule="evenodd" d="M338.958 707.405C310.892 683.901 287.587 654.794 270.876 621.819C260.364 601.092 252.43 578.827 247.57 555.522C247.57 555.522 247.57 555.373 247.57 555.274C243.802 537.175 241.769 518.431 241.769 499.191C241.769 445.588 257.339 395.605 284.116 353.456C295.521 335.555 308.909 319.142 324.033 304.464C372.975 256.861 439.768 227.556 513.404 227.556C519.354 227.556 525.206 227.754 531.007 228.101C549.404 229.291 567.305 232.316 584.561 236.977C563.338 230.035 540.924 225.622 517.718 224.134C511.867 223.737 506.016 223.589 500.115 223.589C426.479 223.589 359.735 252.894 310.744 300.498C295.62 315.175 282.231 331.588 270.826 349.489C244 391.588 228.479 441.621 228.479 495.224C228.479 514.464 230.513 533.208 234.281 551.307C234.281 551.406 234.281 551.505 234.281 551.555C239.19 574.86 247.074 597.125 257.587 617.852C274.297 650.827 297.603 679.934 325.669 703.439C355.421 728.381 390.578 747.025 429.107 757.438C395.785 746.579 365.289 729.422 338.958 707.356V707.405Z" fill="url(#paint5_radial_548_25893)"/>
<g style="mix-blend-mode:multiply" opacity="0.4">
<path fill-rule="evenodd" clip-rule="evenodd" d="M259.916 466.017C259.916 466.017 411.998 528.05 494.56 523.091C577.072 518.133 612.229 470.827 645.154 427.687C678.08 384.497 690.476 332.53 690.476 332.53C690.476 332.53 627.948 453.174 550.394 485.108L505.766 494.133C505.766 494.133 529.022 476.778 545.237 459.174C561.452 441.571 624.03 415.935 629.881 395.307C635.733 374.728 635.038 340.861 645.154 319.241C655.27 297.621 665.385 279.72 665.385 279.72L638.559 275.109L625.964 304.761C625.964 304.761 622.443 354.001 612.774 380.679C603.154 407.356 508.989 480.397 487.816 492.645C466.642 504.893 279.056 479.059 259.966 466.067L259.916 466.017Z" fill="#7D72B3"/>
</g>
<g style="mix-blend-mode:soft-light">
<g style="mix-blend-mode:multiply" opacity="0.4">
<path fill-rule="evenodd" clip-rule="evenodd" d="M531.256 726.149C531.801 725.951 541.669 721.488 544.495 721.686C545.685 721.786 546.925 722.728 547.817 723.224C550.446 724.711 552.132 726.843 551.834 729.918C551.437 734.281 546.627 739.984 541.421 741.868C534.925 744.199 528.132 741.273 525.801 736.959C523.471 732.595 529.371 724.662 535.917 724.513L531.256 726.1V726.149Z" fill="#7D72B3"/>
</g>
<path fill-rule="evenodd" clip-rule="evenodd" d="M404.016 455.852C400.446 461.952 391.421 473.208 394.148 481.935C395.289 485.704 397.966 489.571 399.652 493.142C404.264 502.861 413.487 512.629 424.991 505.588C437.884 497.704 432.28 483.323 426.826 472.811C424.793 468.894 421.818 464.084 417.752 461.902C415.57 460.712 411.95 459.472 409.52 458.976C405.206 458.133 408.28 455.357 403.966 455.803L404.016 455.852Z" fill="#84DEFF"/>
<path fill-rule="evenodd" clip-rule="evenodd" d="M490.892 255.969C490.396 259.142 490.297 262.316 490.644 265.44C491.636 265.241 492.379 266.183 493.47 266.134C494.66 266.134 496.346 265.291 497.289 264.646C499.322 263.258 500.363 260.431 500.313 258.101C500.313 255.671 500.065 253.638 497.784 252.25C495.057 250.663 492.33 251.803 490.892 254.431V255.869V255.969Z" fill="#FFEF84"/>
<path fill-rule="evenodd" clip-rule="evenodd" d="M433.716 551.455C434.212 549.472 435.006 543.968 436.642 541.588C437.981 539.604 440.51 538.513 442.692 537.769C447.452 536.183 452.361 536.381 456.179 539.802C462.824 545.802 462.576 554.778 456.229 560.926C453.353 563.703 449.386 566.53 445.221 566.728C443.187 566.827 440.51 567.025 438.725 566.034C436.592 564.794 434.906 562.513 434.163 560.183C432.973 556.315 433.716 553.389 435.799 550.017L433.617 551.455H433.716Z" fill="#84DEFF"/>
<path fill-rule="evenodd" clip-rule="evenodd" d="M383.734 548.579C383.734 551.604 381.998 558.695 386.312 560.133C388.395 560.827 390.626 558.001 390.973 556.215C391.32 554.43 391.122 551.654 390.428 550.017C389.387 547.587 387.205 545.852 385.172 548.579H383.734Z" fill="#84DEFF"/>
<path fill-rule="evenodd" clip-rule="evenodd" d="M267.852 495.72C268.199 500.53 268.199 507.522 271.124 511.885C272.314 513.72 273.554 515.604 275.835 516.001C277.868 516.348 279.009 515.158 280.199 513.67C282.232 510.993 282.529 509.208 282.38 505.836C282.281 502.861 281.339 499.588 280 496.91C279.009 494.976 277.372 493.538 275.835 492.051C274.447 490.712 273.455 490.414 271.471 490.613C268.843 490.91 269.042 494.034 268.595 496.414L267.852 495.671V495.72Z" fill="#84DEFF"/>
<path fill-rule="evenodd" clip-rule="evenodd" d="M670.493 473.257C670.542 472.811 671.088 464.778 672.575 462.943C673.22 462.2 674.658 461.704 675.501 461.257C678.03 460.018 680.757 459.621 683.335 460.861C687.054 462.646 689.98 467.753 689.236 471.869C688.344 476.976 682.542 480.497 677.633 480.547C672.674 480.596 668.261 473.952 671.137 469.588L670.393 473.208L670.493 473.257Z" fill="#84DEFF"/>
<path fill-rule="evenodd" clip-rule="evenodd" d="M391.271 537.769C391.271 537.769 391.569 533.505 392.313 532.612C392.61 532.215 393.354 531.967 393.8 531.769C395.04 531.124 396.428 530.976 397.718 531.571C399.552 532.463 401.04 534.992 400.693 537.075C400.247 539.604 397.371 541.389 394.891 541.438C392.412 541.438 390.23 538.166 391.619 535.984L391.271 537.819V537.769Z" fill="#84DEFF"/>
<path fill-rule="evenodd" clip-rule="evenodd" d="M514.991 587.356C514.991 587.356 515.289 583.092 516.032 582.199C516.33 581.802 517.074 581.555 517.52 581.356C518.76 580.761 520.148 580.563 521.437 581.158C523.272 582.05 524.76 584.579 524.413 586.662C523.966 589.191 521.09 590.976 518.611 591.026C516.132 591.026 513.95 587.753 515.338 585.571L514.991 587.356Z" fill="#84DEFF"/>
<path fill-rule="evenodd" clip-rule="evenodd" d="M598.445 368.382C598.445 368.382 598.743 364.117 599.487 363.225C599.784 362.828 600.528 362.58 600.974 362.382C602.214 361.737 603.602 361.588 604.891 362.183C606.726 363.076 608.214 365.605 607.867 367.687C607.42 370.216 604.544 372.001 602.065 372.051C599.586 372.051 597.404 368.778 598.792 366.596L598.445 368.431V368.382Z" fill="#84DEFF"/>
<path fill-rule="evenodd" clip-rule="evenodd" d="M428.215 686.182C428.215 686.182 428.512 681.918 429.256 681.025C429.554 680.629 430.297 680.381 430.744 680.182C431.983 679.538 433.372 679.389 434.661 679.984C436.496 680.877 437.983 683.406 437.636 685.488C437.19 688.017 434.314 689.802 431.835 689.852C429.355 689.852 427.173 686.579 428.562 684.397L428.215 686.232V686.182Z" fill="#84DEFF"/>
<path fill-rule="evenodd" clip-rule="evenodd" d="M652.395 541.34C648.279 543.918 645.75 545.059 643.271 548.877C641.436 551.703 639.453 554.282 638.015 557.356C636.874 559.786 635.486 563.455 635.684 566.183C636.23 573.323 645.106 567.026 647.634 564.893C651.056 561.968 654.329 558.001 654.577 553.389C654.676 551.555 654.725 549.522 654.031 547.836C653.734 547.092 653.337 546.249 652.99 545.505C652.147 543.918 651.453 543.918 652.395 541.34Z" fill="#84DEFF"/>
<path fill-rule="evenodd" clip-rule="evenodd" d="M739.319 572.48C739.616 569.306 738.029 580.711 738.674 581.207C739.666 581.207 740.856 581.356 741.848 581.207C743.236 581.009 743.633 580.265 744.724 579.422C747.005 577.687 748.641 576.645 748.691 573.571C748.74 570.992 748.294 569.455 745.765 568.711C744.674 568.364 744.129 567.918 742.938 568.265C740.509 568.959 738.773 571.042 737.831 573.224L739.269 572.48H739.319Z" fill="#84DEFF"/>
<path fill-rule="evenodd" clip-rule="evenodd" d="M508.495 257.456C508.693 255.324 507.652 263.01 508.048 263.357C508.743 263.357 509.536 263.456 510.181 263.357C511.123 263.208 511.371 262.712 512.164 262.167C513.701 260.977 514.792 260.283 514.891 258.2C514.891 256.465 514.643 255.423 512.908 254.878C512.164 254.63 511.817 254.332 510.974 254.58C509.338 255.076 508.148 256.464 507.503 257.952L508.495 257.456Z" fill="#FFEF84"/>
<path fill-rule="evenodd" clip-rule="evenodd" d="M655.668 479.059C655.867 476.927 654.825 484.613 655.222 484.96C655.916 484.96 656.71 485.059 657.354 484.96C658.296 484.811 658.544 484.315 659.338 483.77C660.875 482.58 661.966 481.885 662.015 479.803C662.065 478.067 661.767 477.026 660.032 476.48C659.288 476.233 658.941 475.935 658.098 476.183C656.462 476.679 655.272 478.067 654.627 479.555L655.619 479.059H655.668Z" fill="#FFEF84"/>
<path fill-rule="evenodd" clip-rule="evenodd" d="M500.462 690.546C502.595 690.546 494.859 690.248 494.562 690.744C494.611 691.439 494.562 692.232 494.76 692.877C495.008 693.819 495.504 694.017 496.148 694.711C497.487 696.1 498.281 697.141 500.363 696.992C502.099 696.844 503.09 696.447 503.438 694.711C503.586 693.968 503.834 693.571 503.537 692.777C502.892 691.191 501.404 690.199 499.818 689.653L500.413 690.596L500.462 690.546Z" fill="#FFEF84"/>
<path fill-rule="evenodd" clip-rule="evenodd" d="M376.99 457.489C377.188 455.356 376.147 463.042 376.543 463.389C377.237 463.389 378.031 463.489 378.675 463.389C379.618 463.241 379.866 462.745 380.659 462.199C382.196 461.009 383.287 460.315 383.337 458.232C383.337 456.497 383.089 455.456 381.353 454.91C380.609 454.662 380.262 454.365 379.419 454.613C377.783 455.109 376.593 456.497 375.948 457.985L376.94 457.489H376.99Z" fill="#FFEF84"/>
<path fill-rule="evenodd" clip-rule="evenodd" d="M496.345 667.488C496.643 664.315 495.056 675.72 495.7 676.215C496.692 676.215 497.882 676.364 498.874 676.215C500.262 676.017 500.659 675.273 501.75 674.43C504.031 672.695 505.667 671.653 505.717 668.579C505.766 666.001 505.32 664.463 502.791 663.72C501.7 663.372 501.155 662.926 499.965 663.273C497.535 663.967 495.8 666.05 494.857 668.232L496.295 667.488H496.345Z" fill="#84DEFF"/>
</g>
<path fill-rule="evenodd" clip-rule="evenodd" d="M344.61 488.629C432.577 502.563 427.172 525.769 529.27 497.951C631.369 470.133 704.509 316.514 704.509 316.514C704.509 316.514 709.617 305.159 705.303 298.464C703.567 295.787 690.179 301.34 690.179 301.34C692.509 350.629 623.485 452.48 545.584 481.786C537.254 484.91 528.874 486.001 521.039 487.786C517.37 485.951 508.345 477.621 550.989 448.712C601.171 414.695 623.782 402.001 619.121 366.596C614.46 331.241 659.138 275.159 659.138 275.159C659.138 275.159 662.361 260.233 653.931 250.96C643.072 239.01 619.121 251.159 619.121 251.159C619.121 251.159 612.923 320.53 524.907 357.968C436.94 395.456 388.048 376.811 354.379 366.596C320.709 356.332 310.693 300.597 310.693 300.597C310.693 300.597 282.181 294.696 271.817 312.844C264.23 326.183 275.238 342.795 275.238 342.795C275.238 342.795 328.296 362.034 376.098 380.381C423.899 398.728 515.138 382.266 547.717 366.596C580.295 350.927 580.295 325.886 606.378 303.076C617.138 293.654 627.997 287.307 637.072 283.043C637.072 283.043 608.559 327.026 611.832 357.968C615.105 388.91 595.518 387.819 547.717 442.166C514.196 480.299 484.89 492.348 470.411 496.166C433.618 499.489 400.197 495.373 354.379 482.927C280.495 462.894 236.164 430.761 236.164 430.761C236.164 430.761 229.718 427.687 227.288 434.778C226.247 437.753 232.842 446.183 232.842 446.183C232.842 446.183 256.594 474.695 344.61 488.629Z" fill="url(#paint6_linear_548_25893)"/>
<path fill-rule="evenodd" clip-rule="evenodd" d="M406.445 748.959C406.445 748.959 384.775 735.471 368.511 693.62C352.197 651.769 354.379 654.546 323.982 628.166C293.586 601.835 240.677 575.901 240.677 575.901C240.677 575.901 237.106 577.141 237.106 578.182C237.106 583.637 243.404 584.232 243.404 584.232C243.404 584.232 292.792 605.405 323.585 639.471C354.428 673.538 387.75 733.934 363.998 730.364C363.998 730.364 369.354 745.488 381.85 748.959C394.345 752.43 406.494 748.959 406.494 748.959H406.445Z" fill="url(#paint7_radial_548_25893)"/>
<path d="M622.693 546.546C632.808 535.786 645.007 521.257 694.395 520.96C743.833 520.613 769.221 531.571 769.221 531.571C769.221 531.571 779.386 528.695 780.477 515.505C781.568 502.414 771.552 495.77 771.552 495.77C771.056 499.885 766.048 527.059 724.097 510.943C724.097 510.547 738.924 497.059 742.147 469.638C745.42 441.819 755.337 402.398 755.337 402.398C755.337 402.398 761.188 392.63 757.37 384.795C756.13 382.216 746.51 381.026 746.51 381.026C754.841 436.464 733.816 503.257 711.006 510.943C683.337 511.29 649.569 516.1 634.246 526.216C615.453 538.662 596.561 594.893 584.462 634.464C581.437 644.282 575.238 654.943 567.305 665.604C537.057 672.893 546.627 636.596 533.536 625.439C520.544 614.331 495.503 620.282 479.239 614.282C462.974 608.282 458.611 595.34 441.206 593.307C423.851 591.224 396.429 623.555 365.19 610.216C333.95 596.877 229.323 472.96 229.323 472.96C229.323 472.96 219.901 470.679 217.967 477.224C216.529 482.233 228.331 495.323 228.331 495.323C228.331 495.323 301.074 605.108 370.595 619.389C440.115 633.67 503.14 620.282 524.858 639.174C546.478 657.968 548.115 688.017 548.115 688.265C525.503 712.215 498.974 732.893 486.429 739.191C464.71 750.149 428.958 757.587 428.958 757.587C433.818 763.19 443.636 767.703 454.198 770.529C469.421 774.595 479.189 766.91 479.189 766.91C479.189 766.91 470.363 759.224 481.867 749.604C511.222 725.158 532.049 714.496 562.495 707.306C580.941 702.943 586.445 711.323 589.073 708.645C617.437 717.72 639.949 696.447 664.345 676.86C688.692 657.373 720.031 654.497 720.031 654.497C720.031 654.497 736.246 651.769 740.461 644.629C744.279 638.133 735.254 630.993 735.254 630.993C735.254 630.993 721.42 636.645 695.387 649.835C669.304 663.025 641.387 701.356 609.552 700.166C591.999 699.521 595.668 681.769 594.032 679.24C594.032 678.001 594.081 676.711 594.032 675.472C593.536 662.53 590.809 650.827 590.809 641.455C590.809 639.026 590.957 636.794 591.453 634.761C594.379 620.926 612.478 557.406 622.594 546.646L622.693 546.546ZM567.305 665.703C561.751 673.191 555.305 680.678 548.511 687.868L567.305 665.703ZM591.652 684.893C592.048 687.868 592.643 690.794 592.147 693.769C591.999 695.306 591.701 696.596 590.214 697.091C589.371 697.389 588.379 697.488 587.536 697.736C586.147 698.083 584.858 698.579 583.47 698.777C581.338 699.075 579.007 698.827 576.875 698.827C574.594 698.827 572.114 699.075 569.833 698.777C568.743 698.629 567.652 698.381 566.561 698.182C565.47 698.034 563.982 697.934 562.991 697.389C560.66 696.05 559.272 693.62 557.486 693.025C557.635 690.943 557.536 689.108 558.429 687.273C558.677 686.579 558.875 685.885 559.073 685.191C559.47 684.001 559.916 682.91 560.462 681.769C561.701 678.844 562.991 676.017 564.825 673.439C565.668 672.1 566.561 670.811 567.354 669.422C568.346 667.935 569.635 666.794 570.924 665.505C572.759 663.67 574.544 661.984 576.825 660.745C578.61 659.753 581.486 658.414 583.47 659.158C585.552 659.852 586.395 662.53 587.189 664.364C587.784 665.703 587.933 667.092 588.329 668.53C588.776 670.315 589.569 671.901 590.015 673.736C590.462 675.72 590.461 677.802 590.858 679.835C591.205 681.521 591.453 683.158 591.701 684.844L591.652 684.893Z" fill="url(#paint8_linear_548_25893)"/>
<path fill-rule="evenodd" clip-rule="evenodd" d="M282.38 306.845C282.38 306.845 294.628 332.035 326.165 354.745C326.165 354.745 315.702 318.2 308.165 303.026C308.165 303.026 297.851 293.258 282.38 306.845Z" fill="#FFAB0E"/>
<path fill-rule="evenodd" clip-rule="evenodd" d="M447.553 383.704C447.553 383.704 468.974 375.076 475.619 378.299C475.619 378.299 455.09 383.952 447.553 383.704Z" fill="#FFAB0E"/>
<path fill-rule="evenodd" clip-rule="evenodd" d="M519.255 363.919C523.123 362.679 527.04 361.539 530.809 360.051C534.181 358.762 537.354 357.225 540.478 355.489C544.445 353.258 548.313 350.828 551.883 348.051C552.825 347.357 553.867 346.861 554.859 346.216C555.999 345.473 557.09 344.53 558.181 343.737C559.123 342.993 559.916 342.002 560.859 341.208C561.801 340.415 562.743 339.621 563.685 338.927C565.321 337.688 567.007 336.299 568.495 334.861C569.239 334.167 569.883 333.423 570.677 332.828C571.222 332.382 571.619 332.233 572.263 331.985C572.511 332.481 571.916 333.671 571.718 334.117C571.272 335.159 570.577 335.952 570.032 336.894C568.743 339.076 566.66 340.464 565.073 342.448C564.032 343.737 562.594 344.778 561.206 345.721C559.272 347.059 557.04 348.2 554.958 349.241C552.825 350.332 550.594 351.026 548.511 352.216C546.528 353.357 544.594 354.249 542.511 355.192C541.173 355.836 539.883 356.778 538.644 357.522C537.553 358.167 536.462 358.811 535.371 359.456C533.735 360.448 532.197 361.39 530.512 362.282C529.619 362.778 528.726 363.125 527.834 363.621C525.85 364.712 523.52 365.555 521.239 365.506C520.396 365.506 519.652 365.605 518.859 365.258C518.512 365.109 517.867 364.911 517.817 364.514C518.363 364.514 518.859 363.77 519.404 363.919H519.255Z" fill="#FFAB0E"/>
<path fill-rule="evenodd" clip-rule="evenodd" d="M577.073 326.679C576.082 327.175 575.189 327.869 574.445 328.712C574.445 329.307 574.098 330.002 575.139 329.952C576.23 329.952 577.024 329.208 577.718 328.464C578.065 328.068 578.809 326.878 578.363 326.283C577.817 325.588 576.379 326.531 575.933 326.927L577.024 326.679H577.073Z" fill="#FFAB0E"/>
<path fill-rule="evenodd" clip-rule="evenodd" d="M622.989 252.845C622.196 253.886 621.055 255.126 620.559 256.415C620.163 257.407 619.816 258.398 619.468 259.39C618.725 261.324 618.328 263.307 617.733 265.241C616.642 268.811 615.749 272.431 614.361 275.902C613.716 277.489 612.923 278.977 612.179 280.514C611.783 281.307 611.188 282.051 610.791 282.894C610.493 283.638 610.047 284.233 609.7 284.977C609.402 285.671 609.303 286.365 608.857 286.96C608.311 287.704 608.014 288.398 607.568 289.192C607.221 289.836 605.832 291.373 606.229 292.216C606.675 292.266 607.072 291.621 607.32 291.373C608.113 290.58 609.006 289.935 609.799 289.192C611.287 287.754 612.625 286.167 614.064 284.63C614.708 283.985 615.105 283.192 615.65 282.497C616.444 281.506 617.386 280.712 618.179 279.671C619.419 277.985 620.807 276.398 622.196 274.811C622.89 274.018 623.386 273.125 624.08 272.283C624.725 271.539 625.419 270.894 626.063 270.2C628.096 267.968 630.278 265.787 632.262 263.456C633.849 261.621 635.336 259.638 636.675 257.605C637.766 256.018 638.708 254.382 639.7 252.696C640.096 252.002 640.939 250.415 640.642 249.572C640.245 248.531 639.006 248.084 638.014 247.935C636.477 247.688 634.543 247.688 633.055 248.035C631.369 248.431 629.931 249.076 628.344 249.721C626.956 250.316 625.766 251.357 624.427 252.002C623.435 252.497 622.344 252.944 622.989 252.745V252.845Z" fill="#FFAB0E"/>
<path fill-rule="evenodd" clip-rule="evenodd" d="M637.123 285.423C636.677 286.365 636.131 287.902 635.437 288.795C634.842 289.638 634.247 290.431 633.701 291.324C632.759 292.911 631.916 294.497 630.974 296.084C629.288 298.96 627.206 301.638 625.966 304.712C625.47 305.952 624.925 307.142 624.329 308.283C623.685 309.522 623.437 310.861 622.991 312.15C622.544 313.44 622.396 314.729 622.098 316.018C621.85 317.059 621.354 318.101 621.652 319.192C622.693 317.853 623.437 316.365 624.379 314.927C625.024 313.935 625.569 312.894 626.462 312.101C627.354 311.307 628.098 310.415 628.891 309.522C629.685 308.63 630.478 307.737 631.073 306.696C631.619 305.754 631.966 304.762 632.61 303.82C633.206 302.977 633.652 301.985 634.197 301.092C634.842 300.051 635.536 299.01 635.933 297.869C636.726 295.638 637.52 293.307 638.115 291.026C638.412 289.935 638.561 288.497 638.363 287.407C638.214 286.514 636.825 284.084 636.974 285.374L637.123 285.423Z" fill="#FFAB0E"/>
<path fill-rule="evenodd" clip-rule="evenodd" d="M618.379 322.613C617.982 324.051 617.387 325.687 617.089 327.175C616.99 327.572 616.891 328.365 617.189 328.563C617.536 328.811 618.379 328.464 618.627 328.216C618.924 327.919 619.073 327.572 619.271 327.225C619.717 326.53 620.263 325.39 620.015 324.497C619.767 323.506 618.875 322.712 618.081 323.704L618.329 322.613H618.379Z" fill="#FFAB0E"/>
<path fill-rule="evenodd" clip-rule="evenodd" d="M589.867 401.357C586.792 404.282 583.272 406.861 580.793 410.332C580.545 410.679 579.305 412.117 579.602 412.712C579.95 413.406 581.388 412.96 581.834 412.762C583.619 412.167 585.404 411.175 587.04 410.332C588.33 409.687 589.52 408.844 590.71 408.101C593.487 406.315 595.867 403.935 597.999 401.406C598.941 400.315 599.933 399.125 600.429 397.787C600.578 397.39 601.123 396.349 601.024 395.902C600.578 394.415 597.007 396.001 596.313 396.448C595.47 396.993 594.726 397.737 593.983 398.382C593.338 398.927 592.743 399.324 592.049 399.77C591.503 400.167 590.958 400.663 590.412 401.059C589.867 401.506 589.47 402.448 589.867 401.357Z" fill="#FFAB0E"/>
<path fill-rule="evenodd" clip-rule="evenodd" d="M575.982 415.489C574.941 415.985 573.9 416.481 572.858 416.976C572.858 417.472 571.569 418.315 572.214 418.96C572.561 419.307 573.701 418.861 574.048 418.712C574.792 418.464 575.189 417.919 575.734 417.423C576.28 416.877 576.23 416.679 575.933 415.985V415.439L575.982 415.489Z" fill="#FFAB0E"/>
<path fill-rule="evenodd" clip-rule="evenodd" d="M505.768 482.679C503.288 484.563 500.561 486.299 497.834 487.786C494.561 489.522 491.09 490.811 487.867 492.646C482.859 495.472 477.553 497.604 472.297 499.935C471.454 500.282 463.768 503.307 466.644 504.894C467.983 505.588 469.322 505.439 470.809 505.489C471.999 505.489 473.189 505.836 474.379 505.885C475.619 505.885 476.859 505.885 478.049 505.885C484.346 505.885 490.991 504.447 496.743 501.869C498.032 501.323 499.619 500.877 500.759 500.084C501.454 499.588 502.148 498.844 502.792 498.249C504.082 497.059 504.974 495.72 505.768 494.183C506.908 491.952 507.652 489.918 507.553 487.39C507.553 486.497 507.255 485.406 506.611 484.712C506.115 484.117 505.47 483.968 505.768 482.679Z" fill="#FFAB0E"/>
<path fill-rule="evenodd" clip-rule="evenodd" d="M460.841 501.868C459.452 501.174 457.866 500.083 456.328 500.034C455.783 500.034 455.287 500.133 454.742 500.232C453.552 500.48 451.717 500.629 450.775 501.521C449.386 502.86 452.312 503.951 453.403 504.249C454.692 504.596 456.576 504.596 457.915 504.447C459.006 504.298 461.238 503.356 461.238 501.968C461.337 501.968 461.436 501.968 461.535 501.918H460.791L460.841 501.868Z" fill="#FFAB0E"/>
<path fill-rule="evenodd" clip-rule="evenodd" d="M544.148 484.464C549.999 482.679 555.553 480.299 561.008 477.571C563.14 476.53 565.223 475.29 567.256 474.051C568.545 473.257 569.884 472.166 571.222 471.522C571.768 471.224 575.189 469.241 575.636 470.183C576.231 471.423 572.561 473.852 572.016 474.348C570.627 475.588 569.09 476.53 567.553 477.621C566.264 478.514 564.875 478.96 563.487 479.753C561.702 480.795 559.917 481.638 558.032 482.48C556.644 483.076 555.206 483.77 553.718 484.166C552.578 484.464 551.487 484.91 550.347 485.158C549.504 485.357 548.661 485.109 547.818 485.307C546.776 485.555 544.793 486.051 544.099 484.514L544.148 484.464Z" fill="#FFAB0E"/>
<path fill-rule="evenodd" clip-rule="evenodd" d="M672.131 516.001C674.957 516.001 678.379 516.299 681.304 515.902C683.436 515.604 685.569 515.158 687.701 514.96C691.916 514.563 696.081 513.472 700.345 513.323C702.031 513.274 703.717 513.323 705.403 513.323C706.345 513.323 707.635 513.075 708.527 513.323C708.924 513.423 710.015 513.968 710.263 514.265C711.304 515.356 710.263 515.208 709.618 515.604C708.081 516.447 706.941 517.141 705.155 517.538C702.478 518.084 699.85 518.827 697.172 519.224C695.288 519.472 693.453 519.175 691.569 519.472C689.089 519.869 686.709 519.918 684.23 519.869C682.197 519.869 680.164 519.869 678.131 519.869C676.594 519.869 675.304 519.571 673.817 519.373C672.527 519.175 671.784 519.472 670.693 518.827C670.197 518.53 669.403 517.786 672.131 516.051V516.001Z" fill="#FFAB0E"/>
<path fill-rule="evenodd" clip-rule="evenodd" d="M740.561 518.679C744.18 519.026 746.461 519.423 749.734 518.828C751.866 518.431 754.048 518.084 756.18 517.737C759.255 517.241 762.577 515.753 765.205 514.067C766.693 513.125 769.668 511.042 771.552 511.588C773.04 511.985 774.726 513.819 774.825 515.406C774.974 517.439 772.693 519.125 771.304 520.216C768.875 522.15 765.205 522.844 762.18 523.042C758.461 523.241 754.891 522.745 751.271 521.951C750.18 521.704 749.089 521.356 747.949 521.109C747.007 520.91 744.974 521.109 740.561 518.679Z" fill="#FFAB0E"/>
<path fill-rule="evenodd" clip-rule="evenodd" d="M748.742 384.547C748.494 387.026 746.957 393.125 750.08 395.109C751.717 396.15 752.51 393.373 752.56 392.134C752.56 390.299 751.419 385.588 749.287 385.092L748.742 384.547Z" fill="#FFAB0E"/>
<path fill-rule="evenodd" clip-rule="evenodd" d="M236.711 440.679C239.29 444.001 241.174 447.423 244.794 449.505C246.877 450.695 248.91 452.133 251.24 452.828C253.422 453.472 256.199 454.216 258.48 453.72C259.72 453.423 260.017 453.869 259.967 452.282C259.967 451.588 259.422 450.646 259.025 450.1C258.282 448.96 257.141 448.266 256.248 447.224C255.207 446.034 254.612 444.894 253.372 443.902C249.207 440.629 245.339 437.952 240.282 436.315C238.447 435.72 238.348 435.522 236.761 436.514C235.472 437.307 235.422 436.96 235.273 438.497C235.025 440.481 236.463 442.067 237.455 443.605L236.711 440.729V440.679Z" fill="#FFAB0E"/>
<path fill-rule="evenodd" clip-rule="evenodd" d="M238.891 494.233C243.106 500.976 247.915 507.076 253.023 513.175C256.643 517.489 258.825 522.894 262.94 526.861C263.634 527.505 270.824 533.704 270.775 530.133C270.775 529.34 268.692 526.117 268.246 525.373C267.056 523.39 265.717 521.356 264.229 519.571C263.039 518.133 261.601 516.695 260.61 515.059C259.519 513.323 258.577 512.282 257.188 510.745C255.453 508.811 254.51 506.381 252.973 504.299C251.535 502.365 250.097 500.53 248.709 498.596C246.874 495.968 244.94 493.043 241.965 491.902C241.172 491.604 240.031 490.762 239.039 491.505C237.453 492.646 238.742 496.563 238.891 494.282V494.233Z" fill="#FFAB0E"/>
<path fill-rule="evenodd" clip-rule="evenodd" d="M500.312 621.72C506.361 620.629 511.271 619.687 517.271 621.075C520.196 621.769 523.122 622.662 525.998 623.505C527.832 624.05 530.659 624.596 531.998 625.984C533.436 627.422 532.94 630.05 531.651 631.34C529.866 633.075 525.998 632.728 523.766 632.53C519.254 632.083 514.94 631.538 510.576 630.249C508.097 629.505 504.676 628.265 502.593 626.629C501.651 625.885 499.171 623.802 500.262 621.72H500.312Z" fill="#FFAB0E"/>
<path fill-rule="evenodd" clip-rule="evenodd" d="M583.619 654.298C580.544 653.604 580.296 648.149 581.139 645.968C581.635 644.728 582.379 642.745 583.768 642.15C585.156 641.554 585.652 642.546 586.842 642.992C585.553 645.72 584.015 648.298 582.131 650.678L583.569 654.298H583.619Z" fill="#FFAB0E"/>
<path fill-rule="evenodd" clip-rule="evenodd" d="M698.015 652.116C702.031 649.488 704.808 647.653 709.221 646.315C711.453 645.67 713.783 645.372 716.015 644.678C718.643 643.885 721.271 642.645 723.948 642.1C724.94 641.901 725.882 641.951 726.824 641.802C727.915 641.604 727.37 641.058 728.61 641.753C730.891 642.992 729.849 644.678 728.362 645.918C725.535 648.298 723.155 649.24 719.535 650.083C717.502 650.579 715.915 651.72 713.932 652.315C712.742 652.662 711.502 652.86 710.312 653.207C705.849 654.397 700.444 653.554 698.015 652.116Z" fill="#FFAB0E"/>
<path fill-rule="evenodd" clip-rule="evenodd" d="M333.008 642.695C335.537 647.951 337.669 653.009 340.991 657.769C342.479 659.902 343.62 661.984 346 663.025C347.934 663.819 349.223 664.166 349.471 661.538C349.62 660.199 348.479 658.265 347.735 656.926C345.603 653.108 342.578 649.835 340.049 646.315C339.058 644.976 337.669 643.141 336.43 642.1C335.487 641.356 332.76 640.513 333.008 642.695Z" fill="#FFAB0E"/>
<path fill-rule="evenodd" clip-rule="evenodd" d="M439.471 758.579C445.57 757.29 450.925 755.405 456.727 753.273C459.156 752.381 461.537 752.381 463.966 751.885C464.214 751.885 464.462 751.389 464.809 751.29C465.404 751.141 466.396 751.29 467.041 751.29C467.685 751.29 470.462 750.893 471.008 751.29C473.289 752.976 468.429 757.339 467.388 758.43C463.421 762.595 456.826 764.926 450.975 764.331C447.999 764.034 445.322 762.447 442.446 762.1C440.611 761.901 436.545 761.207 436.743 758.579C436.942 758.579 437.19 758.48 439.57 758.48L439.471 758.579Z" fill="#FFAB0E"/>
<path fill-rule="evenodd" clip-rule="evenodd" d="M544.495 697.042C539.09 700.711 533.139 703.934 529.222 709.389C526.544 713.158 531.453 712.364 533.586 711.571C535.371 710.877 536.759 710.232 538.346 709.091C539.784 708.1 540.528 707.108 541.718 705.918C542.561 705.075 543.652 704.381 544.445 703.439C545.238 702.496 545.536 700.414 546.478 699.769C546.329 699.372 546.131 698.976 545.883 698.53L544.445 697.091L544.495 697.042Z" fill="#FFAB0E"/>
<path fill-rule="evenodd" clip-rule="evenodd" d="M396.777 613.736C400.694 612.05 404.611 610.662 408.33 608.679C411.752 606.844 415.024 604.959 418.545 603.224C423.008 600.993 427.867 597.869 433.024 597.769C434.958 597.769 436.247 596.778 438.082 597.571C439.52 598.216 440.611 598.811 441.504 600.1C444.132 603.869 438.925 607.488 436.049 609.422C433.867 610.91 431.834 612.695 429.404 613.736C426.528 614.926 423.454 615.521 420.528 616.563C415.719 618.348 410.611 620.331 405.454 620.976C402.776 621.323 400.347 620.331 398.215 618.943C397.124 618.249 396.033 617.307 395.339 616.216C394.694 615.224 394.248 613.588 396.777 613.687V613.736Z" fill="#FFAB0E"/>
<path style="mix-blend-mode:screen" fill-rule="evenodd" clip-rule="evenodd" d="M583.569 440.481C596.759 471.968 567.602 514.216 518.462 534.794C469.322 555.373 418.793 546.497 405.603 515.009C392.413 483.522 421.57 441.274 470.71 420.696C519.851 400.117 570.379 408.993 583.569 440.481Z" fill="url(#paint9_radial_548_25893)"/>
<path style="mix-blend-mode:screen" fill-rule="evenodd" clip-rule="evenodd" d="M357.504 359.902C338.512 388.316 295.818 393.076 262.149 370.514C228.48 348.002 216.579 306.696 235.521 278.332C254.513 249.919 297.207 245.159 330.876 267.721C364.545 290.233 376.446 331.539 357.504 359.902Z" fill="url(#paint10_radial_548_25893)"/>
<path style="mix-blend-mode:screen" fill-rule="evenodd" clip-rule="evenodd" d="M816.227 550.315C799.119 575.951 760.591 580.216 730.194 559.885C699.798 539.555 689.087 502.315 706.194 476.728C723.302 451.092 761.83 446.828 792.227 467.158C822.623 487.489 833.334 524.728 816.227 550.315Z" fill="url(#paint11_radial_548_25893)"/>
<path style="mix-blend-mode:screen" fill-rule="evenodd" clip-rule="evenodd" d="M434.708 775.885C417.601 801.521 379.072 805.785 348.676 785.455C318.279 765.124 307.568 727.885 324.676 702.298C341.783 676.662 380.312 672.397 410.708 692.728C441.105 713.058 451.816 750.298 434.708 775.885Z" fill="url(#paint12_radial_548_25893)"/>
</g>
<path style="mix-blend-mode:screen" opacity="0.45" fill-rule="evenodd" clip-rule="evenodd" d="M500 0C223.922 0 0 223.769 0 500C0 776.232 223.922 1000 500 1000C776.078 1000 1000 776.079 1000 500C1000 223.922 776.231 0 500 0ZM500 980.576C234.628 980.576 19.4249 765.372 19.4249 500C19.4249 234.629 234.628 19.4249 500 19.4249C765.372 19.4249 980.575 234.629 980.575 500C980.575 765.372 765.372 980.576 500 980.576Z" fill="url(#paint13_linear_548_25893)"/>
</g>
<defs>
<radialGradient id="paint0_radial_548_25893" cx="0" cy="0" r="1" gradientUnits="userSpaceOnUse" gradientTransform="translate(499.885 500.042) scale(399.866 399.867)">
<stop stop-color="#0026FF"/>
<stop offset="1"/>
</radialGradient>
<radialGradient id="paint1_radial_548_25893" cx="0" cy="0" r="1" gradientUnits="userSpaceOnUse" gradientTransform="translate(499.867 500.034) scale(314.032 314.032)">
<stop stop-color="#FF7300"/>
<stop offset="1"/>
</radialGradient>
<radialGradient id="paint2_radial_548_25893" cx="0" cy="0" r="1" gradientUnits="userSpaceOnUse" gradientTransform="translate(499.867 500.034) scale(299.701 299.702)">
<stop stop-color="#FF7900"/>
<stop offset="0.18" stop-color="#FC7700"/>
<stop offset="0.32" stop-color="#F27300"/>
<stop offset="0.43" stop-color="#E26B00"/>
<stop offset="0.54" stop-color="#CC6100"/>
<stop offset="0.64" stop-color="#AF5300"/>
<stop offset="0.74" stop-color="#8B4200"/>
<stop offset="0.83" stop-color="#612E00"/>
<stop offset="0.92" stop-color="#311700"/>
<stop offset="1"/>
</radialGradient>
<radialGradient id="paint3_radial_548_25893" cx="0" cy="0" r="1" gradientUnits="userSpaceOnUse" gradientTransform="translate(331.816 368.233) scale(436.312 436.313)">
<stop stop-color="#6365DE"/>
<stop offset="0.2" stop-color="#6262DA"/>
<stop offset="0.35" stop-color="#605AD1"/>
<stop offset="0.49" stop-color="#5C4CC0"/>
<stop offset="0.62" stop-color="#5739A9"/>
<stop offset="0.74" stop-color="#51218B"/>
<stop offset="0.86" stop-color="#490366"/>
<stop offset="0.87" stop-color="#490063"/>
</radialGradient>
<linearGradient id="paint4_linear_548_25893" x1="228.429" y1="420.745" x2="619.171" y2="420.745" gradientUnits="userSpaceOnUse">
<stop stop-color="#7DBEFF"/>
<stop offset="0.25" stop-color="#7BBBFD"/>
<stop offset="0.43" stop-color="#78B1F6"/>
<stop offset="0.59" stop-color="#71A1EC"/>
<stop offset="0.74" stop-color="#688BDD"/>
<stop offset="0.87" stop-color="#5D6ECA"/>
<stop offset="1" stop-color="#504DB5"/>
</linearGradient>
<radialGradient id="paint5_radial_548_25893" cx="0" cy="0" r="1" gradientUnits="userSpaceOnUse" gradientTransform="translate(301.57 310.365) scale(357.519 357.52)">
<stop stop-color="#A3F1FF"/>
<stop offset="1"/>
</radialGradient>
<linearGradient id="paint6_linear_548_25893" x1="227.189" y1="378.299" x2="707.038" y2="378.299" gradientUnits="userSpaceOnUse">
<stop stop-color="#FF380B"/>
<stop offset="0.46" stop-color="#FE370D"/>
<stop offset="0.68" stop-color="#FC3614"/>
<stop offset="0.86" stop-color="#F93522"/>
<stop offset="1" stop-color="#F63333"/>
</linearGradient>
<radialGradient id="paint7_radial_548_25893" cx="0" cy="0" r="1" gradientUnits="userSpaceOnUse" gradientTransform="translate(269.288 622.364) scale(137.95 137.95)">
<stop stop-color="#FF340B"/>
<stop offset="0.46" stop-color="#FE330D"/>
<stop offset="0.69" stop-color="#FC3314"/>
<stop offset="0.86" stop-color="#F93322"/>
<stop offset="1" stop-color="#F63333"/>
</radialGradient>
<linearGradient id="paint8_linear_548_25893" x1="217.918" y1="576.348" x2="780.576" y2="576.348" gradientUnits="userSpaceOnUse">
<stop stop-color="#FF380B"/>
<stop offset="0.46" stop-color="#FE370D"/>
<stop offset="0.68" stop-color="#FC3614"/>
<stop offset="0.86" stop-color="#F93522"/>
<stop offset="1" stop-color="#F63333"/>
</linearGradient>
<radialGradient id="paint9_radial_548_25893" cx="0" cy="0" r="1" gradientUnits="userSpaceOnUse" gradientTransform="translate(495.697 477.346) rotate(-22.71) scale(96.6388 61.9183)">
<stop stop-color="#FF5B00"/>
<stop offset="0.17" stop-color="#C44600"/>
<stop offset="0.4" stop-color="#7F2D00"/>
<stop offset="0.6" stop-color="#481900"/>
<stop offset="0.78" stop-color="#210B00"/>
<stop offset="0.92" stop-color="#080300"/>
<stop offset="1"/>
</radialGradient>
<radialGradient id="paint10_radial_548_25893" cx="0" cy="0" r="1" gradientUnits="userSpaceOnUse" gradientTransform="translate(296.301 322.09) rotate(33.77) scale(73.4918 61.9183)">
<stop stop-color="#FF5B00"/>
<stop offset="0.17" stop-color="#C44600"/>
<stop offset="0.4" stop-color="#7F2D00"/>
<stop offset="0.6" stop-color="#481900"/>
<stop offset="0.78" stop-color="#210B00"/>
<stop offset="0.92" stop-color="#080300"/>
<stop offset="1"/>
</radialGradient>
<radialGradient id="paint11_radial_548_25893" cx="0" cy="0" r="1" gradientUnits="userSpaceOnUse" gradientTransform="translate(761.799 516.879) rotate(33.77) scale(66.3126 55.8697)">
<stop stop-color="#FF5B00"/>
<stop offset="0.17" stop-color="#C44600"/>
<stop offset="0.4" stop-color="#7F2D00"/>
<stop offset="0.6" stop-color="#481900"/>
<stop offset="0.78" stop-color="#210B00"/>
<stop offset="0.92" stop-color="#080300"/>
<stop offset="1"/>
</radialGradient>
<radialGradient id="paint12_radial_548_25893" cx="0" cy="0" r="1" gradientUnits="userSpaceOnUse" gradientTransform="translate(379.729 742.713) rotate(33.77) scale(66.3126 55.8697)">
<stop stop-color="#FF5B00"/>
<stop offset="0.17" stop-color="#C44600"/>
<stop offset="0.4" stop-color="#7F2D00"/>
<stop offset="0.6" stop-color="#481900"/>
<stop offset="0.78" stop-color="#210B00"/>
<stop offset="0.92" stop-color="#080300"/>
<stop offset="1"/>
</radialGradient>
<linearGradient id="paint13_linear_548_25893" x1="500" y1="25.2371" x2="500" y2="1048.18" gradientUnits="userSpaceOnUse">
<stop stop-color="#27A2D9"/>
<stop offset="0.19" stop-color="#1D78A1"/>
<stop offset="0.39" stop-color="#124E68"/>
<stop offset="0.59" stop-color="#0A2C3B"/>
<stop offset="0.76" stop-color="#04141A"/>
<stop offset="0.9" stop-color="#010507"/>
<stop offset="1"/>
</linearGradient>
<clipPath id="clip0_548_25893">
<rect width="1000" height="1000" fill="white" transform="translate(0 0.334961)"/>
</clipPath>
<clipPath id="clip1_548_25893">
<rect width="799.732" height="799.733" fill="white" transform="translate(100 100.167)"/>
</clipPath>
</defs>
</svg>
