<svg width="80" height="81" viewBox="0 0 80 81" fill="none" xmlns="http://www.w3.org/2000/svg">
<rect x="2" y="2.5" width="76" height="76" rx="38" fill="white" stroke="white" stroke-width="4"/>
<path d="M40 76.5C59.8823 76.5 76 60.3822 76 40.5C76 20.6177 59.8823 4.5 40 4.5C20.1178 4.5 4 20.6177 4 40.5C4 60.3822 20.1178 76.5 40 76.5Z" fill="#FFE3C3"/>
<path d="M64.7922 28.6523V63.8254C64.7929 64.883 64.6635 65.9367 64.4068 66.9627C57.7624 73.1018 49.0463 76.5077 40 76.4999C38.7667 76.4999 37.5341 76.4377 36.3072 76.3129C30.8784 75.7607 25.6478 73.9742 21.0156 71.0901C18.7643 69.6894 16.6737 68.0454 14.7817 66.1879L14.6509 66.0585C14.5225 65.3211 14.4583 64.5739 14.4583 63.8254V28.6523C14.456 25.2396 15.8109 21.9662 18.2243 19.5533C20.6376 17.1405 23.9114 15.7863 27.324 15.7893H51.9334C55.3458 15.7871 58.6192 17.1415 61.0324 19.5541C63.4456 21.9668 64.8007 25.2399 64.7992 28.6523H64.7922Z" fill="#41C0E3"/>
<path d="M36.3072 76.3129C30.8785 75.7607 25.6479 73.9743 21.0157 71.0901C18.7643 69.6894 16.6738 68.0455 14.7818 66.1879C14.6374 65.4087 14.5649 64.6179 14.5652 63.8254V28.6523C14.5597 22.3387 19.1415 16.9564 25.375 15.9539C24.8915 17.4484 24.6462 19.0096 24.648 20.5804V61.664C24.6449 68.6719 29.4883 74.7507 36.3199 76.3129H36.3072Z" fill="#3EB3CE"/>
<path d="M25.389 46.6523C30.6073 46.6523 34.8376 42.422 34.8376 37.2037C34.8376 31.9854 30.6073 27.7551 25.389 27.7551C20.1707 27.7551 15.9404 31.9854 15.9404 37.2037C15.9404 42.422 20.1707 46.6523 25.389 46.6523Z" fill="white"/>
<path d="M25.3892 43.304C28.4694 43.304 30.9664 40.807 30.9664 37.7268C30.9664 34.6466 28.4694 32.1497 25.3892 32.1497C22.309 32.1497 19.812 34.6466 19.812 37.7268C19.812 40.807 22.309 43.304 25.3892 43.304Z" fill="#A65C3B"/>
<path d="M25.3386 41.9048C27.646 41.9048 29.5166 40.0342 29.5166 37.7268C29.5166 35.4194 27.646 33.5488 25.3386 33.5488C23.0312 33.5488 21.1606 35.4194 21.1606 37.7268C21.1606 40.0342 23.0312 41.9048 25.3386 41.9048Z" fill="#27273D"/>
<path d="M27.8248 36.2925C28.6201 36.2925 29.2648 35.6478 29.2648 34.8525C29.2648 34.0572 28.6201 33.4125 27.8248 33.4125C27.0295 33.4125 26.3848 34.0572 26.3848 34.8525C26.3848 35.6478 27.0295 36.2925 27.8248 36.2925Z" fill="white"/>
<path d="M25.3385 39.299C26.2068 39.299 26.9107 38.5951 26.9107 37.7269C26.9107 36.8586 26.2068 36.1547 25.3385 36.1547C24.4702 36.1547 23.7664 36.8586 23.7664 37.7269C23.7664 38.5951 24.4702 39.299 25.3385 39.299Z" fill="white"/>
<path d="M54.0091 46.6523C59.2275 46.6523 63.4577 42.422 63.4577 37.2037C63.4577 31.9854 59.2275 27.7551 54.0091 27.7551C48.7908 27.7551 44.5605 31.9854 44.5605 37.2037C44.5605 42.422 48.7908 46.6523 54.0091 46.6523Z" fill="white"/>
<path d="M54.0091 43.304C57.0893 43.304 59.5863 40.807 59.5863 37.7268C59.5863 34.6466 57.0893 32.1497 54.0091 32.1497C50.9289 32.1497 48.4319 34.6466 48.4319 37.7268C48.4319 40.807 50.9289 43.304 54.0091 43.304Z" fill="#A65C3B"/>
<path d="M53.9585 41.9048C56.2659 41.9048 58.1365 40.0342 58.1365 37.7268C58.1365 35.4194 56.2659 33.5488 53.9585 33.5488C51.6511 33.5488 49.7805 35.4194 49.7805 37.7268C49.7805 40.0342 51.6511 41.9048 53.9585 41.9048Z" fill="#27273D"/>
<path d="M56.4461 36.2925C57.2414 36.2925 57.8861 35.6478 57.8861 34.8525C57.8861 34.0572 57.2414 33.4125 56.4461 33.4125C55.6508 33.4125 55.0061 34.0572 55.0061 34.8525C55.0061 35.6478 55.6508 36.2925 56.4461 36.2925Z" fill="white"/>
<path d="M53.9584 39.299C54.8267 39.299 55.5306 38.5951 55.5306 37.7269C55.5306 36.8586 54.8267 36.1547 53.9584 36.1547C53.0901 36.1547 52.3862 36.8586 52.3862 37.7269C52.3862 38.5951 53.0901 39.299 53.9584 39.299Z" fill="white"/>
<path d="M23.696 55.2121C26.9098 55.2121 29.5151 53.8049 29.5151 52.0691C29.5151 50.3333 26.9098 48.9261 23.696 48.9261C20.4822 48.9261 17.877 50.3333 17.877 52.0691C17.877 53.8049 20.4822 55.2121 23.696 55.2121Z" fill="#FAB3A7"/>
<path d="M55.5307 55.2121C58.7445 55.2121 61.3498 53.8049 61.3498 52.0691C61.3498 50.3333 58.7445 48.9261 55.5307 48.9261C52.317 48.9261 49.7117 50.3333 49.7117 52.0691C49.7117 53.8049 52.317 55.2121 55.5307 55.2121Z" fill="#FAB3A7"/>
<path d="M34.5368 43.7174H45.4381C45.4381 45.0548 44.9068 46.3375 43.9611 47.2832C43.0153 48.2289 41.7327 48.7602 40.3952 48.7602H39.5782C38.2408 48.7602 36.9581 48.2289 36.0124 47.2832C35.0667 46.3375 34.5368 45.0548 34.5368 43.7174Z" fill="#27273D"/>
<path d="M58.4218 68.8204C58.4226 69.7543 58.3284 70.6858 58.1406 71.6006C52.6374 74.8187 46.3751 76.51 40 76.5C38.7666 76.5 37.5341 76.4378 36.3071 76.3129C30.8784 75.7608 25.6478 73.9743 21.0156 71.0901C20.8902 70.34 20.8271 69.5809 20.8271 68.8204C20.8271 65.1895 22.2489 61.8426 24.6451 59.1581C28.0778 55.3106 33.5115 52.83 39.6273 52.83C50.0054 52.8271 58.4218 59.9864 58.4218 68.8204Z" fill="#3EACC6"/>
<path d="M37.2946 43.7174H43.243V44.3657C43.243 45.6285 42.2193 46.6522 40.9564 46.6522H39.5783C38.3155 46.6522 37.2917 45.6285 37.2917 44.3657V43.7174H37.2946Z" fill="white"/>
<path d="M57.8214 12.8699H21.4248C16.2278 12.8714 12.0156 17.0849 12.0156 22.2819V31.985C12.0156 35.1462 14.5779 37.7091 17.7391 37.7099H20.0959C23.2577 37.7099 25.8208 35.1468 25.8208 31.985C25.8208 35.1462 28.383 37.7091 31.5442 37.7099H33.9011C37.0628 37.7099 39.6259 35.1468 39.6259 31.985C39.6298 35.1413 42.1875 37.699 45.3438 37.7028H47.7006C50.8624 37.7028 53.4255 35.1397 53.4255 31.978C53.4255 35.1392 55.9877 37.7021 59.1489 37.7028H61.5156C64.6774 37.7028 67.2405 35.1397 67.2405 31.978V22.2819C67.2405 19.7846 66.2474 17.3897 64.4809 15.6245C62.7143 13.8593 60.3187 12.8684 57.8214 12.8699Z" fill="#FC715A"/>
<path d="M26.7674 12.87C25.3733 15.2001 24.6384 17.8652 24.6411 20.5805V35.5894C23.555 36.9266 21.923 37.7018 20.2002 37.6987H17.8433C14.6827 37.6979 12.1206 35.1359 12.1199 31.9753V22.282C12.1195 19.7859 13.1108 17.3919 14.8757 15.6268C16.6406 13.8617 19.0344 12.87 21.5305 12.87H26.7674Z" fill="#E56453"/>
<path d="M21.4376 14.2115L11.1945 8.23634C10.9894 8.11617 10.7315 8.13486 10.5459 8.28332C10.3603 8.43179 10.2855 8.6793 10.3577 8.90572L14.2137 21.0937C14.4388 21.8047 15.024 22.343 15.7512 22.5082C16.4785 22.6733 17.2388 22.4406 17.749 21.8966L21.9115 17.4571C22.3466 16.9906 22.5463 16.3517 22.4541 15.7205C22.3619 15.0892 21.9879 14.5341 21.4376 14.2115Z" fill="#DB1B1B"/>
<path d="M58.422 14.2115L68.6637 8.23634C68.8688 8.11617 69.1267 8.13486 69.3123 8.28332C69.4978 8.43179 69.5727 8.6793 69.5004 8.90572L65.6487 21.0937C65.4236 21.8047 64.8384 22.343 64.1112 22.5082C63.3839 22.6733 62.6236 22.4406 62.1134 21.8966L57.9509 17.4571C57.5155 16.991 57.3154 16.3524 57.4071 15.7212C57.4987 15.09 57.8721 14.5346 58.422 14.2115Z" fill="#DB1B1B"/>
<path d="M62.3257 34.8455C63.8394 34.8455 65.0665 33.6184 65.0665 32.1047C65.0665 30.591 63.8394 29.3639 62.3257 29.3639C60.8121 29.3639 59.585 30.591 59.585 32.1047C59.585 33.6184 60.8121 34.8455 62.3257 34.8455Z" fill="#F98878"/>
<path d="M62.3256 28.3358C63.3974 28.3358 64.2663 27.467 64.2663 26.3952C64.2663 25.3234 63.3974 24.4546 62.3256 24.4546C61.2539 24.4546 60.385 25.3234 60.385 26.3952C60.385 27.467 61.2539 28.3358 62.3256 28.3358Z" fill="#F98878"/>
</svg>
