<svg width="80" height="81" viewBox="0 0 80 81" fill="none" xmlns="http://www.w3.org/2000/svg">
<rect x="2" y="2.5" width="76" height="76" rx="38" fill="white" stroke="white" stroke-width="4"/>
<path d="M40 76.4856C59.8823 76.4856 76 60.3711 76 40.4928C76 20.6145 59.8823 4.5 40 4.5C20.1178 4.5 4 20.6145 4 40.4928C4 60.3711 20.1178 76.4856 40 76.4856Z" fill="#3586CB"/>
<path d="M65.3503 34.2447C67.2698 31.6029 66.9759 26.3235 66.9759 26.3235C66.9759 26.3235 61.4114 21.8862 58.0941 23.3625C59.3189 20.1007 55.6317 14.6835 55.6317 14.6835C55.6317 14.6835 48.3403 13.7218 46.3955 16.8726C44.8392 19.4009 45.1295 22.6512 47.1092 24.8639C49.089 27.0766 52.2876 27.7257 54.9736 26.4599C54.0258 28.4068 54.0759 30.6914 55.108 32.595C56.1402 34.4985 58.0277 35.7872 60.1767 36.0556C58.1194 38.24 57.7624 41.5242 59.3022 44.0995C60.8421 46.6747 63.9046 47.9151 66.803 47.1375C70.3833 46.1772 71.5463 38.9168 71.5463 38.9168C71.5463 38.9168 68.4398 35.1094 65.3503 34.2447Z" fill="#E88032"/>
<path d="M33.6043 16.8725C31.6594 13.7161 24.368 14.6778 24.368 14.6778C24.368 14.6778 20.6808 20.1062 21.9057 23.3625C18.5883 21.8862 13.0238 26.3234 13.0238 26.3234C13.0238 26.3234 12.7299 31.6028 14.6494 34.2447C11.5557 35.1093 8.46191 38.9223 8.46191 38.9223C8.46191 38.9223 9.62488 46.1828 13.1996 47.143C16.098 47.9207 19.1605 46.6803 20.7003 44.105C22.2402 41.5298 21.8831 38.2455 19.8258 36.0612C21.9749 35.7928 23.8623 34.5041 24.8945 32.6005C25.9267 30.6969 25.9767 28.4124 25.0289 26.4654C27.7149 27.7313 30.9136 27.0821 32.8933 24.8695C34.8731 22.6568 35.1634 19.4065 33.6071 16.8781L33.6043 16.8725Z" fill="#E88032"/>
<path d="M34.6014 19.7281C24.9606 22.0751 18.0243 30.4996 17.5731 40.4099L17.2764 46.9603C16.3153 47.3163 15.2846 47.4443 14.2656 47.3343L14.5792 40.4099C15.0804 29.3861 23.562 20.3822 34.5381 19.2219C34.562 19.3906 34.5859 19.5594 34.6014 19.7281Z" fill="#D16D2A"/>
<path d="M18.5756 41.2014C22.2111 41.2014 25.1582 38.2548 25.1582 34.62C25.1582 30.9853 22.2111 28.0387 18.5756 28.0387C14.9401 28.0387 11.9929 30.9853 11.9929 34.62C11.9929 38.2548 14.9401 41.2014 18.5756 41.2014Z" fill="#00B564"/>
<path d="M18.4941 37.484C20.2416 37.484 21.6582 36.0677 21.6582 34.3205C21.6582 32.5734 20.2416 31.1571 18.4941 31.1571C16.7467 31.1571 15.3301 32.5734 15.3301 34.3205C15.3301 36.0677 16.7467 37.484 18.4941 37.484Z" fill="#00964E"/>
<path d="M61.171 41.2014C64.8065 41.2014 67.7537 38.2548 67.7537 34.62C67.7537 30.9853 64.8065 28.0387 61.171 28.0387C57.5355 28.0387 54.5884 30.9853 54.5884 34.62C54.5884 38.2548 57.5355 41.2014 61.171 41.2014Z" fill="#00B564"/>
<path d="M61.0894 37.484C62.8368 37.484 64.2534 36.0677 64.2534 34.3205C64.2534 32.5734 62.8368 31.1571 61.0894 31.1571C59.3419 31.1571 57.9253 32.5734 57.9253 34.3205C57.9253 36.0677 59.3419 37.484 61.0894 37.484Z" fill="#00964E"/>
<path d="M63.0934 68.1116C49.5148 79.4767 29.6831 79.2715 16.3427 67.628L16.3047 67.5942L17.2427 46.9743V46.9602L17.5084 41.1086L17.5408 40.4056C17.5865 39.4034 17.6987 38.4053 17.8769 37.4179C18.0301 36.5732 18.232 35.7381 18.4816 34.9167L18.528 34.7634C20.6233 28.0749 25.735 22.756 32.3359 20.3958C32.9969 20.161 33.6719 19.9544 34.3595 19.7814L34.5677 19.7294H34.5986C36.316 19.3167 38.0762 19.1086 39.8425 19.1094C40.2522 19.1094 40.6591 19.1206 41.0631 19.1431H41.0955C42.5568 19.2229 44.0067 19.4471 45.4239 19.8124C45.5912 19.8545 45.7572 19.8995 45.9217 19.953C46.4036 20.0889 46.8798 20.2407 47.3505 20.4085C55.9759 23.4814 61.8474 31.5119 62.1583 40.6615L62.1737 41.1255L62.3678 46.8098L63.0934 68.1116Z" fill="#00B564"/>
<path d="M41.9461 19.042C41.6649 19.0673 41.3836 19.0996 41.1024 19.1362H41.07C38.9844 19.408 36.9482 19.9761 35.0232 20.8233C34.8732 20.888 34.7241 20.9555 34.576 21.0258C34.1532 21.2226 33.7369 21.4331 33.3272 21.6571C31.8718 22.4512 30.5092 23.4046 29.2646 24.4999C28.3876 25.2727 27.5719 26.1122 26.8247 27.011C26.6841 27.1769 26.5505 27.347 26.4169 27.5172C26.1525 27.8546 25.898 28.1995 25.6533 28.5519C25.2304 29.1612 24.8385 29.7914 24.4791 30.4402C24.361 30.6511 24.2485 30.862 24.1388 31.0785C23.4804 32.3586 22.9491 33.7003 22.5525 35.0841C22.0696 36.7664 21.7864 38.4997 21.7088 40.2482L21.7017 40.4085L21.6314 41.9551L20.3278 70.6368C18.9315 69.7271 17.5999 68.7218 16.3425 67.6281L17.2833 46.9477L17.5477 41.1185L17.5871 40.2552C17.5997 39.974 17.618 39.6929 17.6405 39.4215C17.6958 38.7466 17.7807 38.0807 17.895 37.4236C18.0433 36.5783 18.24 35.7423 18.4842 34.9196L18.5307 34.7663C20.5799 28.0489 25.6684 22.6853 32.2697 20.2848C32.9316 20.0449 33.608 19.8354 34.2989 19.6564C34.3847 19.6339 34.4705 19.6114 34.5563 19.5917C34.5667 19.5876 34.5775 19.5848 34.5886 19.5833C36.3254 19.1596 38.1067 18.9463 39.8944 18.9478C40.2825 18.9478 40.6678 18.9576 41.0503 18.9773C41.3485 18.9928 41.648 19.0153 41.9461 19.042Z" fill="#02A356"/>
<path d="M30.938 15.6071C30.938 20.5247 34.9252 24.5111 39.8438 24.5111C44.7623 24.5111 48.7495 20.5247 48.7495 15.6071C48.7495 10.6862 39.8438 6.70312 39.8438 6.70312C39.8438 6.70312 30.938 10.6862 30.938 15.6071Z" fill="#E88032"/>
<path d="M41.0363 24.4296C40.641 24.4826 40.2426 24.5094 39.8438 24.5097C34.9261 24.509 30.9395 20.5238 30.938 15.6071C30.938 10.6862 39.8438 6.70312 39.8438 6.70312C39.8438 6.70312 40.3121 6.91261 41.0363 7.29644C38.6105 8.57728 33.323 11.811 33.323 15.6071C33.3243 20.0632 36.6196 23.8323 41.0363 24.4296Z" fill="#D16D2A"/>
<path d="M43.6224 21.3407C45.0514 21.3407 46.2099 20.1825 46.2099 18.7537C46.2099 17.325 45.0514 16.1667 43.6224 16.1667C42.1934 16.1667 41.0349 17.325 41.0349 18.7537C41.0349 20.1825 42.1934 21.3407 43.6224 21.3407Z" fill="#EF9659"/>
<path d="M43.6224 15.1965C44.6344 15.1965 45.4547 14.3763 45.4547 13.3646C45.4547 12.3528 44.6344 11.5326 43.6224 11.5326C42.6104 11.5326 41.79 12.3528 41.79 13.3646C41.79 14.3763 42.6104 15.1965 43.6224 15.1965Z" fill="#EF9659"/>
<path d="M26.0865 53.1747C28.3706 53.1747 30.2222 51.8761 30.2222 50.2742C30.2222 48.6723 28.3706 47.3737 26.0865 47.3737C23.8023 47.3737 21.9507 48.6723 21.9507 50.2742C21.9507 51.8761 23.8023 53.1747 26.0865 53.1747Z" fill="#FAB3A7"/>
<path d="M28.8581 46.0717C33.5125 46.0717 37.2857 42.2992 37.2857 37.6457C37.2857 32.9922 33.5125 29.2197 28.8581 29.2197C24.2036 29.2197 20.4304 32.9922 20.4304 37.6457C20.4304 42.2992 24.2036 46.0717 28.8581 46.0717Z" fill="white"/>
<path d="M28.8582 43.0854C31.6052 43.0854 33.8321 40.8589 33.8321 38.1124C33.8321 35.366 31.6052 33.1395 28.8582 33.1395C26.1112 33.1395 23.8843 35.366 23.8843 38.1124C23.8843 40.8589 26.1112 43.0854 28.8582 43.0854Z" fill="#E88032"/>
<path d="M28.813 41.8369C30.8704 41.8369 32.5382 40.1694 32.5382 38.1125C32.5382 36.0555 30.8704 34.3881 28.813 34.3881C26.7557 34.3881 25.0879 36.0555 25.0879 38.1125C25.0879 40.1694 26.7557 41.8369 28.813 41.8369Z" fill="#27273D"/>
<path d="M31.0308 36.988C31.8261 36.988 32.4708 36.3433 32.4708 35.548C32.4708 34.7527 31.8261 34.108 31.0308 34.108C30.2355 34.108 29.5908 34.7527 29.5908 35.548C29.5908 36.3433 30.2355 36.988 31.0308 36.988Z" fill="white"/>
<path d="M28.813 39.5525C29.6083 39.5525 30.253 38.9078 30.253 38.1125C30.253 37.3172 29.6083 36.6725 28.813 36.6725C28.0178 36.6725 27.373 37.3172 27.373 38.1125C27.373 38.9078 28.0178 39.5525 28.813 39.5525Z" fill="white"/>
<path d="M33.8466 24.5098H28.0293C26.9563 24.5098 26.0864 25.3796 26.0864 26.4527V26.4544C26.0864 27.5274 26.9563 28.3973 28.0293 28.3973H33.8466C34.9197 28.3973 35.7896 27.5274 35.7896 26.4544V26.4527C35.7896 25.3796 34.9197 24.5098 33.8466 24.5098Z" fill="#4ACC97"/>
<path d="M53.6011 53.1747C55.8852 53.1747 57.7369 51.8761 57.7369 50.2742C57.7369 48.6723 55.8852 47.3737 53.6011 47.3737C51.317 47.3737 49.4653 48.6723 49.4653 50.2742C49.4653 51.8761 51.317 53.1747 53.6011 53.1747Z" fill="#FAB3A7"/>
<path d="M50.8307 46.0717C55.4852 46.0717 59.2584 42.2992 59.2584 37.6457C59.2584 32.9922 55.4852 29.2197 50.8307 29.2197C46.1763 29.2197 42.4031 32.9922 42.4031 37.6457C42.4031 42.2992 46.1763 46.0717 50.8307 46.0717Z" fill="white"/>
<path d="M50.8308 43.0854C53.5779 43.0854 55.8047 40.8589 55.8047 38.1124C55.8047 35.366 53.5779 33.1395 50.8308 33.1395C48.0838 33.1395 45.8569 35.366 45.8569 38.1124C45.8569 40.8589 48.0838 43.0854 50.8308 43.0854Z" fill="#E88032"/>
<path d="M50.7845 41.8369C52.8418 41.8369 54.5096 40.1694 54.5096 38.1125C54.5096 36.0555 52.8418 34.3881 50.7845 34.3881C48.7271 34.3881 47.0593 36.0555 47.0593 38.1125C47.0593 40.1694 48.7271 41.8369 50.7845 41.8369Z" fill="#27273D"/>
<path d="M53.0035 36.988C53.7988 36.988 54.4435 36.3433 54.4435 35.548C54.4435 34.7527 53.7988 34.108 53.0035 34.108C52.2082 34.108 51.5635 34.7527 51.5635 35.548C51.5635 36.3433 52.2082 36.988 53.0035 36.988Z" fill="white"/>
<path d="M50.7845 39.5525C51.5798 39.5525 52.2245 38.9078 52.2245 38.1125C52.2245 37.3172 51.5798 36.6725 50.7845 36.6725C49.9892 36.6725 49.3445 37.3172 49.3445 38.1125C49.3445 38.9078 49.9892 39.5525 50.7845 39.5525Z" fill="white"/>
<path d="M51.6582 24.5098H45.8409C44.7678 24.5098 43.8979 25.3796 43.8979 26.4527V26.4544C43.8979 27.5274 44.7678 28.3973 45.8409 28.3973H51.6582C52.7312 28.3973 53.6011 27.5274 53.6011 26.4544V26.4527C53.6011 25.3796 52.7312 24.5098 51.6582 24.5098Z" fill="#4ACC97"/>
<path d="M39.5681 52.1623C37.5364 52.1658 35.587 51.3598 34.1513 49.9226C33.6853 49.4567 33.6853 48.7013 34.1513 48.2354C34.6172 47.7695 35.3728 47.7695 35.8388 48.2354C37.9004 50.294 41.2401 50.294 43.3017 48.2354C43.6032 47.9341 44.0425 47.8164 44.4543 47.9267C44.8661 48.037 45.1877 48.3585 45.2981 48.7702C45.4084 49.1819 45.2907 49.6212 44.9892 49.9226C43.5521 51.3603 41.6012 52.1663 39.5681 52.1623Z" fill="#00964E"/>
<path d="M41.4679 56.6615C41.1516 56.6616 40.8481 56.5362 40.6242 56.3128C40.0412 55.7315 39.0977 55.7315 38.5148 56.3128C38.0488 56.7787 37.2933 56.7787 36.8273 56.3128C36.3613 55.8469 36.3613 55.0915 36.8273 54.6256C38.3425 53.1132 40.7964 53.1132 42.3117 54.6256C42.6521 54.9668 42.7537 55.4793 42.5691 55.9245C42.3845 56.3697 41.9499 56.6613 41.4679 56.6615Z" fill="#00964E"/>
<path d="M39.9999 76.4927C35.7378 76.4976 31.5089 75.7439 27.511 74.267C28.4293 65.758 33.4791 59.2512 39.5682 59.2512C45.7304 59.2512 50.8182 65.9099 51.6549 74.5636C47.903 75.8455 43.9648 76.4973 39.9999 76.4927Z" fill="#4ACC97"/>
<path d="M59.2572 64.1553C60.6862 64.1553 61.8447 62.9971 61.8447 61.5683C61.8447 60.1396 60.6862 58.9813 59.2572 58.9813C57.8281 58.9813 56.6697 60.1396 56.6697 61.5683C56.6697 62.9971 57.8281 64.1553 59.2572 64.1553Z" fill="#4ACC97"/>
<path d="M59.2571 58.0111C60.2691 58.0111 61.0895 57.1909 61.0895 56.1791C61.0895 55.1674 60.2691 54.3472 59.2571 54.3472C58.2452 54.3472 57.4248 55.1674 57.4248 56.1791C57.4248 57.1909 58.2452 58.0111 59.2571 58.0111Z" fill="#4ACC97"/>
</svg>
