<svg width="1000" height="1000" viewBox="0 0 1000 1000" fill="none" xmlns="http://www.w3.org/2000/svg">
<g clip-path="url(#clip0_548_25703)">
<g clip-path="url(#clip1_548_25703)">
<path style="mix-blend-mode:screen" d="M462.241 830.86C662.301 830.86 824.481 668.68 824.481 468.62C824.481 268.56 662.301 106.379 462.241 106.379C262.181 106.379 100 268.56 100 468.62C100 668.68 262.181 830.86 462.241 830.86Z" fill="url(#paint0_radial_548_25703)"/>
<path fill-rule="evenodd" clip-rule="evenodd" d="M195.54 602.281L679.15 840.559C575.883 933.35 418.569 888.121 327.905 825.881C256.432 776.814 200.364 710.165 191.131 634.231C189.835 623.599 190.82 614.989 195.488 602.281H195.54Z" fill="url(#paint1_radial_548_25703)"/>
<path style="mix-blend-mode:multiply" fill-rule="evenodd" clip-rule="evenodd" d="M191.494 616.7C198.496 644.553 205.446 663.588 229.72 693.256C257.625 727.385 319.554 780.445 355.965 806.379C414.471 848.132 474.17 874.947 546.525 876.036C593.984 876.763 623.081 870.02 660.892 855.238C667.168 850.777 673.289 845.902 679.253 840.559L195.54 602.281C193.569 607.675 192.22 612.343 191.494 616.7Z" fill="url(#paint2_radial_548_25703)"/>
<path fill-rule="evenodd" clip-rule="evenodd" d="M184.752 478.578L784.648 772.562C767.739 813.692 732.418 839.159 672.563 849.584C644.243 854.512 614.835 854.927 585.789 853.682C526.453 851.088 482.003 837.966 428.061 812.81C360.167 781.12 338.538 759.232 282.833 716.13C217.324 665.508 129.669 576.4 184.7 478.578H184.752Z" fill="url(#paint3_radial_548_25703)"/>
<path style="mix-blend-mode:multiply" fill-rule="evenodd" clip-rule="evenodd" d="M180.913 485.84C199.222 562.084 257.262 652.696 330.602 705.445C369.658 733.557 416.079 749.636 459.233 770.954C488.382 785.373 517.065 800.829 547.355 812.655C640.664 848.962 701.816 831.12 779.616 783.35C781.432 779.875 783.143 776.296 784.648 772.562L184.751 478.578C183.403 481.016 182.106 483.454 180.913 485.891V485.84Z" fill="url(#paint4_radial_548_25703)"/>
<path fill-rule="evenodd" clip-rule="evenodd" d="M252.646 359.906L865.094 633.661C872.148 700.725 835.685 758.505 766.857 781.897C708.144 801.866 627.075 804.978 568.569 783.557C482.884 752.177 390.198 713.122 320.747 655.445C271.162 614.211 176.816 518.775 177.386 452.229C177.801 400.881 202.231 372.406 252.698 359.906H252.646Z" fill="url(#paint5_radial_548_25703)"/>
<path style="mix-blend-mode:multiply" fill-rule="evenodd" clip-rule="evenodd" d="M279.928 486.254C285.063 492.219 289.212 499.014 293.05 505.912C342.117 593.879 373.652 643.412 437.5 683.35C511.93 729.875 545.021 731.068 641.961 715.559C654.098 713.64 666.754 712.343 678.89 714.366C781.121 731.586 840.82 743.879 865.872 654.408C866.079 647.613 865.82 640.715 865.094 633.713L252.646 359.906C239.627 363.122 228.372 367.427 218.776 372.873C226.245 426.036 271.422 476.451 279.928 486.254Z" fill="url(#paint6_radial_548_25703)"/>
<path fill-rule="evenodd" clip-rule="evenodd" d="M294.658 424.221L870.644 458.35C902.335 509.595 913.019 563.329 878.942 618.101C860.063 648.391 820.125 669.398 785.063 677.229C723.081 691.078 690.664 676.555 631.899 672.043C559.648 666.545 552.231 678.993 477.386 645.124C424.119 621.005 372.978 586.306 339.627 538.796C313.279 501.296 301.557 461.929 294.658 424.221Z" fill="url(#paint7_radial_548_25703)"/>
<path style="mix-blend-mode:multiply" fill-rule="evenodd" clip-rule="evenodd" d="M305.965 470.381C371.577 545.536 486.93 602.953 577.023 615.142C637.916 623.337 646.266 612.549 699.378 599.945C714.679 596.314 730.135 592.372 745.799 591.594C827.698 587.549 899.689 595.899 894.658 511.304C889.679 493.41 881.328 475.723 870.592 458.296L294.606 424.167C297.355 439.364 300.934 454.821 305.914 470.329L305.965 470.381Z" fill="url(#paint8_radial_548_25703)"/>
<path fill-rule="evenodd" clip-rule="evenodd" d="M326.557 290.767C248.963 273.806 209.544 321.213 217.999 363.381C235.685 451.555 346.941 503.63 421.37 531.534C476.816 552.333 534.285 562.395 580.914 566.804C619.918 570.487 655.499 568.723 708.611 547.302C572.667 456.016 462.501 382.053 326.557 290.819V290.767Z" fill="url(#paint9_radial_548_25703)"/>
<path style="mix-blend-mode:multiply" fill-rule="evenodd" clip-rule="evenodd" d="M273.6 289.418C269.762 363.225 302.749 424.895 371.162 467.634C413.123 493.827 512.967 523.495 561.722 531.327C606.795 538.588 647.978 537.24 686.671 532.52C560.581 447.873 455.083 377.022 326.505 290.715C306.173 286.254 288.486 286.254 273.548 289.366L273.6 289.418Z" fill="url(#paint10_radial_548_25703)"/>
<path fill-rule="evenodd" clip-rule="evenodd" d="M340.146 243.566L572.667 489.001C527.75 486.615 436.827 464.053 380.343 432.673C350.001 415.817 321.837 397.144 302.179 367.165C294.451 355.391 289.368 342.113 284.7 328.991C275.935 304.509 264.472 270.588 292.532 252.175C303.632 244.862 321.111 241.076 340.198 243.514L340.146 243.566Z" fill="url(#paint11_radial_548_25703)"/>
<path style="mix-blend-mode:multiply" fill-rule="evenodd" clip-rule="evenodd" d="M322.251 243.101C312.241 271.265 322.096 305.393 339.679 337.24C370.436 392.945 395.747 412.603 446.784 446.213C453.786 450.829 463.797 460.217 472.874 469.449C511.1 480.601 548.496 487.707 572.614 489.003L340.145 243.568C333.973 242.79 327.957 242.634 322.251 243.049V243.101Z" fill="url(#paint12_radial_548_25703)"/>
<path fill-rule="evenodd" clip-rule="evenodd" d="M419.969 199.117L704.254 230.497C786.982 265.3 927.49 418.619 876.868 500.466C855.084 535.632 818.154 539.107 780.602 542.945C763.849 544.657 746.889 545.02 730.084 546.472C718.102 547.509 706.328 551.814 694.295 550.414C675.83 548.287 657.469 542.997 640.146 535.995C589.679 515.715 570.436 498.806 529.513 468.204C510.581 454.045 491.598 440.04 472.148 426.503C444.14 407.053 415.872 394.76 390.509 369.449C378.32 357.312 365.561 342.789 355.343 329.148C338.123 306.119 307.055 260.632 322.252 233.038C332.936 213.64 380.291 192.841 419.918 199.013L419.969 199.117Z" fill="url(#paint13_radial_548_25703)"/>
<path style="mix-blend-mode:multiply" fill-rule="evenodd" clip-rule="evenodd" d="M411.619 198.236C382.055 219.035 393.932 256.483 413.434 286.618C456.173 352.645 532.21 424.636 603.995 458.091C632.521 471.369 658.04 463.277 683.766 463.433C713.175 463.64 750.364 473.236 781.432 477.748C827.075 484.335 854.617 472.406 865.198 447.562C873.756 427.385 871.163 405.86 864.679 385.321C828.061 318.36 755.136 251.918 704.202 230.497L419.918 199.118C417.169 198.703 414.42 198.391 411.619 198.236Z" fill="url(#paint14_radial_548_25703)"/>
<path fill-rule="evenodd" clip-rule="evenodd" d="M726.245 423.288C744.295 422.095 762.656 425.31 780.498 422.821C820.021 417.219 840.924 401.763 845.695 379.927C864.575 294.086 713.227 192.427 617.791 170.331C542.998 153.007 352.801 156.69 415.197 259.283C450.882 317.893 512.967 358.868 570.28 395.124C630.861 433.453 660.944 427.541 726.193 423.339L726.245 423.288Z" fill="url(#paint15_radial_548_25703)"/>
<path style="mix-blend-mode:multiply" opacity="0.5" fill-rule="evenodd" clip-rule="evenodd" d="M787.085 328.42C799.637 354.561 830.135 382.621 809.284 415.868C830.446 408.036 842.272 395.64 845.695 379.872C847.355 372.248 847.718 364.468 846.836 356.636C838.07 276.553 704.72 190.402 617.79 170.277C591.182 164.105 549.948 160.63 510.736 163.275C557.209 163.482 613.537 169.343 647.406 194.188C657.521 201.605 666.079 211.148 676.608 217.995C683.662 222.611 689.938 226.346 695.643 229.561C726.141 246.729 740.353 248.96 769.191 290.972C777.023 302.383 781.068 316.024 787.033 328.472L787.085 328.42Z" fill="url(#paint16_radial_548_25703)"/>
<path style="mix-blend-mode:multiply" opacity="0.5" fill-rule="evenodd" clip-rule="evenodd" d="M845.696 379.875C842.221 395.642 830.395 408.09 809.285 415.871C839.576 414.107 839.731 434.595 838.279 456.431C838.071 459.439 837.864 462.447 837.657 465.404C837.034 475.155 832.885 484.387 831.121 493.983C829.513 502.437 831.121 511.773 827.542 519.605C823.912 527.541 822.044 531.586 810.322 539.315C836.775 534.958 860.841 526.192 876.816 500.466C880.136 495.124 882.625 489.47 884.337 483.557C895.229 446.783 877.128 400.207 846.837 356.638C847.719 364.47 847.356 372.25 845.696 379.875Z" fill="url(#paint17_radial_548_25703)"/>
<path style="mix-blend-mode:multiply" opacity="0.5" fill-rule="evenodd" clip-rule="evenodd" d="M876.815 500.464C860.892 526.242 836.825 534.956 810.321 539.313C833.091 553.11 827.593 588.898 820.383 610.112C820.02 611.149 819.657 612.186 819.242 613.224C814.834 624.894 808.195 635.838 800.726 645.848C789.886 660.371 759.336 678.939 742.323 682.933C755.238 682.466 769.191 680.755 785.01 677.228C813.018 670.952 844.139 656.273 865.145 635.215C870.435 629.925 875.103 624.168 878.89 618.099C907.417 572.249 904.616 527.124 884.336 483.556C882.572 489.469 880.083 495.122 876.815 500.464Z" fill="url(#paint18_radial_548_25703)"/>
<path style="mix-blend-mode:multiply" opacity="0.5" fill-rule="evenodd" clip-rule="evenodd" d="M865.197 635.217C844.191 656.327 813.071 671.006 785.062 677.23C769.191 680.757 755.291 682.468 742.376 682.935C769.087 695.331 739.938 716.493 737.033 731.587C733.818 748.392 735.581 756.068 724.274 765.663C704.305 782.572 662.656 794.294 621.681 795.954C670.488 801.97 724.482 796.369 766.857 781.95C772.666 779.979 778.216 777.748 783.506 775.311C840.975 748.962 871.006 696.006 865.249 635.217H865.197Z" fill="url(#paint19_radial_548_25703)"/>
<path style="mix-blend-mode:multiply" opacity="0.5" fill-rule="evenodd" clip-rule="evenodd" d="M766.857 781.898C724.482 796.317 670.488 801.919 621.681 795.902C630.654 801.97 639.42 815.611 627.49 823.236C615.353 831.016 612.708 838.485 598.6 841.701C581.899 845.487 530.032 845.539 489.99 837.344C520.073 846.784 550.312 852.126 585.893 853.63C613.123 854.823 640.664 854.512 667.324 850.414C669.088 850.155 670.851 849.844 672.615 849.533C731.069 839.367 766.131 814.782 783.507 775.259C778.164 777.697 772.615 779.927 766.857 781.898Z" fill="url(#paint20_radial_548_25703)"/>
<path style="mix-blend-mode:multiply" opacity="0.5" fill-rule="evenodd" clip-rule="evenodd" d="M667.324 850.466C640.664 854.563 613.123 854.875 585.892 853.682C550.311 852.126 520.125 846.835 489.99 837.395C512.863 851.036 501.919 867.738 475.986 864.833C408.403 857.209 286.93 798.08 234.596 737.914C258.87 771.109 291.442 800.829 328.009 825.933C415.249 885.787 564.212 929.978 667.376 850.518L667.324 850.466Z" fill="url(#paint21_radial_548_25703)"/>
<path style="mix-blend-mode:screen" opacity="0.4" fill-rule="evenodd" clip-rule="evenodd" d="M415.249 259.231C450.934 317.841 513.019 358.816 570.332 395.072C606.484 417.945 631.743 425.051 660.063 426.192C669.036 426.555 676.764 420.383 678.476 411.565C680.913 398.858 681.536 380.912 678.061 369.553C674.378 357.52 667.635 346.939 662.604 323.702C660.633 314.574 663.797 304.771 661.411 295.694C658.144 283.142 653.32 270.642 645.903 259.958C635.529 245.072 619.917 230.756 602.127 219.138C579.357 204.252 553.061 193.775 529.772 192.063C509.751 190.559 489.679 194.294 469.606 194.449C450.208 194.605 448.341 190.559 426.141 197.406C424.43 197.924 422.874 198.547 421.422 199.221C413.693 202.748 409.492 208.194 406.276 214.885C403.32 221.057 402.646 227.281 404.202 233.92C406.017 241.597 409.544 249.947 415.146 259.128L415.249 259.231ZM670.073 317.582C669.866 321.835 670.073 326.192 671.266 330.238C672.77 335.165 674.793 340.144 678.112 344.086C679.824 346.109 682.781 347.354 685.426 347.043C687.137 346.835 688.382 344.605 688.538 342.893C689.368 334.491 689.679 325.881 688.227 317.582C687.76 314.729 685.426 312.188 683.04 310.58C677.542 306.846 670.332 311.514 670.073 317.582Z" fill="url(#paint22_radial_548_25703)"/>
<path style="mix-blend-mode:screen" opacity="0.4" fill-rule="evenodd" clip-rule="evenodd" d="M302.178 367.165C307.832 375.827 314.212 383.504 321.162 390.506C336.463 405.962 354.512 417.943 373.651 428.887C375.882 430.132 378.112 431.429 380.342 432.674C397.044 441.958 416.701 450.412 437.293 457.881C420.903 448.078 411.307 438.275 400.571 430.806C400.415 430.703 400.259 430.599 400.156 430.495C392.739 425.464 384.129 422.3 377.075 416.802C375.778 415.765 374.585 414.831 373.444 413.898C356.328 399.894 356.587 394.033 344.917 375.723C340.975 369.499 334.803 364.624 331.795 357.881C322.459 336.512 320.228 314.157 308.299 290.298C307.884 289.416 307.365 288.587 306.795 287.757C305.55 285.889 303.942 284.23 302.023 283.141C299.118 281.481 295.436 280.132 292.22 281.066C289.419 281.844 286.93 283.555 284.699 285.578C278.268 291.336 275.778 299.634 277.957 307.933C279.876 315.35 282.417 322.56 284.751 329.095C289.419 342.217 294.502 355.443 302.23 367.269L302.178 367.165Z" fill="url(#paint23_radial_548_25703)"/>
<path style="mix-blend-mode:screen" opacity="0.4" fill-rule="evenodd" clip-rule="evenodd" d="M355.343 329.252C365.561 342.893 378.32 357.416 390.509 369.553C415.872 394.864 444.14 407.157 472.148 426.607C476.401 429.563 480.603 432.52 484.804 435.528C499.845 446.264 514.731 457.26 529.513 468.308C538.901 475.31 547.148 481.586 554.876 487.395C565.457 495.279 575.053 502.229 585.374 508.713C597.304 516.233 610.167 523.184 626.401 530.341C623.756 528.267 621.266 526.036 618.881 523.702C598.652 503.733 586.671 474.688 547.615 439.262C547.615 439.262 547.511 439.211 547.459 439.159C539.057 431.534 529.41 423.65 518.154 415.507C510.634 410.061 500.934 406.171 491.961 401.918C490.769 401.347 489.576 400.777 488.383 400.206C485.686 398.858 483.04 397.406 480.654 395.901C466.495 386.928 457.677 380.912 450.416 374.065C441.598 365.715 435.063 356.171 424.119 338.744C420.281 332.623 417.065 327.074 414.264 321.939C397.822 291.337 397.667 274.999 383.3 242.893C381.173 238.121 376.453 234.543 371.681 232.468C361.827 228.215 346.059 234.802 335.478 243.256C335.063 243.567 334.648 243.93 334.285 244.242C323.497 253.37 320.073 267.893 325.675 280.86C327.75 285.632 330.136 290.404 332.677 295.02C339.991 308.246 348.704 320.487 355.343 329.356V329.252ZM614.835 491.908C613.642 490.87 611.049 490.767 610.789 494.449C610.115 504.408 620.851 517.063 628.061 522.561C632.988 526.296 639.161 528.215 645.177 529.563C653.424 531.379 669.451 526.348 662.449 518.567C658.87 514.574 642.273 511.047 636.256 508.609C622.615 503.059 620.229 496.628 614.835 491.96V491.908Z" fill="url(#paint24_radial_548_25703)"/>
<path style="mix-blend-mode:screen" opacity="0.4" fill-rule="evenodd" clip-rule="evenodd" d="M228.215 370.277C228.111 370.641 228.008 371.004 227.904 371.367C225.155 380.703 226.037 389.728 230.601 398.39C266.182 465.713 357.416 507.57 421.421 531.585C466.338 548.441 512.603 558.244 553.319 563.69C522.665 554.562 514.989 546.211 474.792 531.688C463.381 527.591 451.711 523.96 440.871 518.566C428.319 512.342 427.696 499.375 402.333 493.773C368.983 486.46 364.937 471.211 331.898 450.101C323.288 444.603 308.869 436.356 301.815 428.939C280.134 406.17 275.466 369.863 261.929 346.47C260.321 343.67 256.535 342.165 253.319 342.01C241.389 341.439 231.327 360.89 228.319 370.277H228.215Z" fill="url(#paint25_radial_548_25703)"/>
<path style="mix-blend-mode:screen" opacity="0.4" fill-rule="evenodd" clip-rule="evenodd" d="M196.785 484.439C197.148 500.621 201.298 517.53 211.93 538.692C243.777 585.217 290.561 630.393 320.696 655.445C321.163 655.808 321.578 656.171 322.044 656.586C312.449 643.567 314.783 635.476 303.632 623.184C299.015 618.101 294.555 608.038 291.702 601.762C283.04 582.52 283.507 564.211 277.387 544.916C274.327 535.165 269.814 526.97 265.561 518.256C263.901 514.885 262.242 511.41 260.737 507.727C253.424 490.04 249.067 471.213 241.702 453.526C233.455 433.713 204.565 430.238 199.742 454.719C197.719 464.937 196.526 474.584 196.733 484.491L196.785 484.439ZM315.924 574.48C312.501 571.731 306.744 570.331 304.41 571.265C297.408 573.962 296.889 592.53 303.269 604.252C307.885 612.706 317.221 623.08 327.283 624.999C329.773 625.466 331.432 623.08 331.277 620.538C331.121 617.323 325.001 605.704 323.134 595.487C321.474 586.254 319.659 577.54 315.872 574.48H315.924Z" fill="url(#paint26_radial_548_25703)"/>
<path style="mix-blend-mode:screen" opacity="0.4" fill-rule="evenodd" clip-rule="evenodd" d="M339.627 538.847C346.058 547.976 353.112 556.586 360.685 564.781C392.687 599.273 434.336 625.673 477.386 645.123C479.617 646.109 481.743 647.094 483.87 648.028C474.119 637.24 468.984 624.791 460.218 613.536C456.951 609.335 453.164 605.289 448.444 601.607C440.042 595.02 428.994 592.271 420.436 585.839C416.753 583.038 415.716 577.748 412.397 574.532C386.878 549.48 348.185 539.159 323.444 512.292C328.112 521.213 333.507 530.082 339.627 538.847Z" fill="url(#paint27_radial_548_25703)"/>
<path style="mix-blend-mode:screen" opacity="0.4" fill-rule="evenodd" clip-rule="evenodd" d="M169.451 564.055C172.926 583.35 180.706 601.866 191.132 619.242C191.702 620.227 192.325 621.213 192.947 622.198C211.879 652.696 238.85 679.667 264.783 701.503C250.779 683.661 249.43 677.8 237.501 656.897C227.491 639.366 208.818 596.265 203.424 583.194C199.067 572.717 170.489 534.335 169.451 563.484C169.451 563.692 169.451 563.848 169.451 564.055Z" fill="url(#paint28_radial_548_25703)"/>
<path style="mix-blend-mode:screen" fill-rule="evenodd" clip-rule="evenodd" d="M884.337 483.609C895.281 446.783 877.179 400.207 846.837 356.586C838.02 276.503 704.773 190.404 617.843 170.279C562.345 157.416 443.466 156.171 411.204 198.236C373.652 196.005 332.21 215.144 322.304 233.142C320.488 236.41 319.399 239.989 318.777 243.671C308.455 244.916 299.275 247.821 292.532 252.229C278.217 261.617 274.223 275.051 274.897 289.211C274.793 289.211 274.742 289.211 274.638 289.263C274.327 289.315 273.964 289.366 273.601 289.418C273.601 289.418 273.601 289.47 273.601 289.522C231.64 298.391 211.723 332.261 217.999 363.381C218.569 366.337 219.555 369.19 220.385 372.043C191.754 387.707 177.698 413.433 177.387 452.229C177.283 461.773 179.358 471.991 182.781 482.468C157.003 531.638 166.754 578.474 191.184 619.19C190.509 624.221 190.613 628.941 191.235 634.232C200.52 710.165 256.536 776.815 328.009 825.881C415.302 885.788 564.368 929.926 667.48 850.31C669.192 850.051 670.955 849.895 672.667 849.584C731.121 839.418 766.028 814.729 783.403 775.259C840.976 748.91 871.111 695.902 865.198 634.958C870.437 629.667 875.208 624.117 878.995 618.049C907.522 572.25 904.617 527.126 884.389 483.557L884.337 483.609Z" fill="url(#paint29_radial_548_25703)"/>
<path style="mix-blend-mode:screen" opacity="0.5" fill-rule="evenodd" clip-rule="evenodd" d="M310.374 275.414C300.519 282.053 290.509 285.995 279.72 290.871C270.177 295.176 257.988 319.761 255.706 322.976C239.42 345.954 221.214 367.945 209.077 393.36C199.378 413.692 195.903 436.514 191.027 458.505C189.108 467.219 189.212 476.244 188.642 485.113C188.382 489.055 189.212 493.101 188.642 496.991C185.841 516.752 190.561 532.209 207.417 559.076C214.471 570.331 219.917 580.705 228.112 591.182C238.175 604.045 247.2 618.049 259.492 628.734C269.399 637.344 281.536 643.308 293.725 648.236C304.15 652.437 315.405 654.304 326.556 655.86C346.422 658.609 366.442 662.188 386.463 661.099C398.237 660.425 409.129 654.615 420.229 650.622C435.944 644.968 451.193 637.966 466.857 632.053C496.681 620.798 517.117 612.395 539.16 587.81C551.66 573.858 561.152 557.364 573.859 543.568C580.291 536.617 590.146 533.246 596.214 525.985C603.839 516.804 609.7 506.12 614.264 495.072C619.295 482.935 620.436 469.449 624.741 457.001C628.112 447.198 635.218 438.64 637.086 428.474C641.131 406.586 642.895 384.128 642.324 361.877C641.961 347.976 638.434 334.232 634.233 320.954C629.98 307.572 624.741 294.19 617.117 282.416C610.478 272.146 600.519 264.47 591.909 255.756C575.312 239.003 534.544 215.611 511.515 210.58C496.162 207.209 480.083 205.86 464.42 207.261C447.822 208.765 432.054 215.144 415.924 219.138C400.208 223.028 383.973 225.31 368.828 231.016C357.625 235.217 346.992 241.389 337.449 248.599C327.334 256.223 320.851 268.153 310.322 275.259L310.374 275.414ZM210.841 584.128C209.907 582.676 207.521 581.12 206.121 582.105C194.399 590.456 208.403 623.08 213.434 633.194C218.31 643.049 225.312 652.696 234.7 658.454C240.664 662.084 248.911 657.053 255.602 658.972C261.619 660.684 263.123 666.389 269.036 668.464C288.071 675.155 301.608 663.692 286.463 657.001C278.268 653.371 270.54 650.518 262.604 644.864C236.152 626.14 226.764 608.92 210.841 584.128ZM589.212 546.42C587.812 545.487 585.633 545.85 584.129 546.628C580.965 548.236 578.164 550.673 575.83 553.319C572.666 556.898 569.814 560.788 567.687 565.093C565.872 568.827 564.16 572.925 564.212 577.074C564.212 578.941 565.976 581.431 567.843 581.327C574.274 581.068 581.121 579.771 586.515 576.244C594.451 571.057 595.644 550.777 589.16 546.42H589.212Z" fill="url(#paint30_radial_548_25703)"/>
</g>
<path style="mix-blend-mode:screen" opacity="0.45" fill-rule="evenodd" clip-rule="evenodd" d="M500 0C223.922 0 0 223.769 0 500C0 776.232 223.922 1000 500 1000C776.078 1000 1000 776.079 1000 500C1000 223.922 776.231 0 500 0ZM500 980.576C234.628 980.576 19.4249 765.372 19.4249 500C19.4249 234.629 234.628 19.4249 500 19.4249C765.372 19.4249 980.575 234.629 980.575 500C980.575 765.372 765.372 980.576 500 980.576Z" fill="url(#paint31_linear_548_25703)"/>
</g>
<defs>
<radialGradient id="paint0_radial_548_25703" cx="0" cy="0" r="1" gradientUnits="userSpaceOnUse" gradientTransform="translate(462.241 468.62) scale(362.241 362.241)">
<stop stop-color="#DE3D00"/>
<stop offset="1"/>
</radialGradient>
<radialGradient id="paint1_radial_548_25703" cx="0" cy="0" r="1" gradientUnits="userSpaceOnUse" gradientTransform="translate(534.078 769.294) scale(414.056 414.056)">
<stop stop-color="#CC6B00"/>
<stop offset="0.4" stop-color="#E37E27"/>
<stop offset="0.79" stop-color="#F78E47"/>
<stop offset="1" stop-color="#FF9554"/>
</radialGradient>
<radialGradient id="paint2_radial_548_25703" cx="0" cy="0" r="1" gradientUnits="userSpaceOnUse" gradientTransform="translate(508.351 629.304) scale(308.091 308.091)">
<stop stop-color="#D16803"/>
<stop offset="1" stop-color="#FFF8F5"/>
</radialGradient>
<radialGradient id="paint3_radial_548_25703" cx="0" cy="0" r="1" gradientUnits="userSpaceOnUse" gradientTransform="translate(657.625 762.24) scale(588.434 588.434)">
<stop stop-color="#CC6B00"/>
<stop offset="0.4" stop-color="#E37E27"/>
<stop offset="0.79" stop-color="#F78E47"/>
<stop offset="1" stop-color="#FF9554"/>
</radialGradient>
<radialGradient id="paint4_radial_548_25703" cx="0" cy="0" r="1" gradientUnits="userSpaceOnUse" gradientTransform="translate(589.316 511.203) scale(434.181 434.18)">
<stop stop-color="#D16803"/>
<stop offset="1" stop-color="#FFF8F5"/>
</radialGradient>
<radialGradient id="paint5_radial_548_25703" cx="0" cy="0" r="1" gradientUnits="userSpaceOnUse" gradientTransform="translate(721.318 643.412) scale(595.176 595.176)">
<stop stop-color="#B56800"/>
<stop offset="0.34" stop-color="#D26F10"/>
<stop offset="0.76" stop-color="#F27722"/>
<stop offset="1" stop-color="#FF7B29"/>
</radialGradient>
<radialGradient id="paint6_radial_548_25703" cx="0" cy="0" r="1" gradientUnits="userSpaceOnUse" gradientTransform="translate(675.675 424.584) scale(406.172 406.172)">
<stop stop-color="#D16803"/>
<stop offset="1" stop-color="#FFF8F5"/>
</radialGradient>
<radialGradient id="paint7_radial_548_25703" cx="0" cy="0" r="1" gradientUnits="userSpaceOnUse" gradientTransform="translate(813.071 609.906) scale(911.878 911.877)">
<stop stop-color="#CC6B00"/>
<stop offset="0.4" stop-color="#E37E27"/>
<stop offset="0.79" stop-color="#F78E47"/>
<stop offset="1" stop-color="#FF9554"/>
</radialGradient>
<radialGradient id="paint8_radial_548_25703" cx="0" cy="0" r="1" gradientUnits="userSpaceOnUse" gradientTransform="translate(716.131 273.908) scale(503.838 503.838)">
<stop stop-color="#D16803"/>
<stop offset="1" stop-color="#FFF8F5"/>
</radialGradient>
<radialGradient id="paint9_radial_548_25703" cx="0" cy="0" r="1" gradientUnits="userSpaceOnUse" gradientTransform="translate(683.196 480.704) scale(617.324 617.324)">
<stop stop-color="#CC6B00"/>
<stop offset="0.4" stop-color="#E37E27"/>
<stop offset="0.79" stop-color="#F78E47"/>
<stop offset="1" stop-color="#FF9554"/>
</radialGradient>
<radialGradient id="paint10_radial_548_25703" cx="0" cy="0" r="1" gradientUnits="userSpaceOnUse" gradientTransform="translate(554.357 289.211) scale(276.504 276.504)">
<stop stop-color="#D16803"/>
<stop offset="1" stop-color="#FFF8F5"/>
</radialGradient>
<radialGradient id="paint11_radial_548_25703" cx="0" cy="0" r="1" gradientUnits="userSpaceOnUse" gradientTransform="translate(537.605 410.163) scale(303.371 303.371)">
<stop stop-color="#B56800"/>
<stop offset="0.34" stop-color="#D26F10"/>
<stop offset="0.76" stop-color="#F27722"/>
<stop offset="1" stop-color="#FF7B29"/>
</radialGradient>
<radialGradient id="paint12_radial_548_25703" cx="0" cy="0" r="1" gradientUnits="userSpaceOnUse" gradientTransform="translate(588.849 236.618) scale(287.656 287.656)">
<stop stop-color="#D16803"/>
<stop offset="1" stop-color="#FFF8F5"/>
</radialGradient>
<radialGradient id="paint13_radial_548_25703" cx="0" cy="0" r="1" gradientUnits="userSpaceOnUse" gradientTransform="translate(834.025 395.123) scale(728.423 728.423)">
<stop stop-color="#CC6B00"/>
<stop offset="0.4" stop-color="#E37E27"/>
<stop offset="0.79" stop-color="#F78E47"/>
<stop offset="1" stop-color="#FF9554"/>
</radialGradient>
<radialGradient id="paint14_radial_548_25703" cx="0" cy="0" r="1" gradientUnits="userSpaceOnUse" gradientTransform="translate(845.333 101.711) scale(508.091 508.091)">
<stop stop-color="#D16803"/>
<stop offset="1" stop-color="#FFF8F5"/>
</radialGradient>
<radialGradient id="paint15_radial_548_25703" cx="0" cy="0" r="1" gradientUnits="userSpaceOnUse" gradientTransform="translate(515.872 257.52) scale(382.884 382.884)">
<stop stop-color="#FF914D"/>
<stop offset="0.3" stop-color="#F48531"/>
<stop offset="0.76" stop-color="#E6770D"/>
<stop offset="1" stop-color="#E17200"/>
</radialGradient>
<radialGradient id="paint16_radial_548_25703" cx="0" cy="0" r="1" gradientUnits="userSpaceOnUse" gradientTransform="translate(699.118 359.489) scale(264.056 264.056)">
<stop stop-color="#FFF8F5"/>
<stop offset="1" stop-color="#D16803"/>
</radialGradient>
<radialGradient id="paint17_radial_548_25703" cx="0" cy="0" r="1" gradientUnits="userSpaceOnUse" gradientTransform="translate(780.084 458.039) scale(171.006 171.006)">
<stop stop-color="#FFF8F5"/>
<stop offset="1" stop-color="#D16803"/>
</radialGradient>
<radialGradient id="paint18_radial_548_25703" cx="0" cy="0" r="1" gradientUnits="userSpaceOnUse" gradientTransform="translate(774.948 615.402) scale(199.222 199.222)">
<stop stop-color="#FFF8F5"/>
<stop offset="1" stop-color="#D16803"/>
</radialGradient>
<radialGradient id="paint19_radial_548_25703" cx="0" cy="0" r="1" gradientUnits="userSpaceOnUse" gradientTransform="translate(685.477 742.894) scale(213.278 213.278)">
<stop stop-color="#FFF8F5"/>
<stop offset="1" stop-color="#D16803"/>
</radialGradient>
<radialGradient id="paint20_radial_548_25703" cx="0" cy="0" r="1" gradientUnits="userSpaceOnUse" gradientTransform="translate(588.486 873.08) scale(221.784 221.784)">
<stop stop-color="#FFF8F5"/>
<stop offset="1" stop-color="#D16803"/>
</radialGradient>
<radialGradient id="paint21_radial_548_25703" cx="0" cy="0" r="1" gradientUnits="userSpaceOnUse" gradientTransform="translate(479.098 691.026) scale(254.098 254.097)">
<stop stop-color="#FFF8F5"/>
<stop offset="1" stop-color="#D16803"/>
</radialGradient>
<radialGradient id="paint22_radial_548_25703" cx="0" cy="0" r="1" gradientUnits="userSpaceOnUse" gradientTransform="translate(670.955 162.24) scale(321.058 321.058)">
<stop offset="0.33"/>
<stop offset="1" stop-color="#FFB799"/>
</radialGradient>
<radialGradient id="paint23_radial_548_25703" cx="0" cy="0" r="1" gradientUnits="userSpaceOnUse" gradientTransform="translate(453.683 313.016) scale(189.678 189.678)">
<stop offset="0.59"/>
<stop offset="1" stop-color="#FFB799"/>
</radialGradient>
<radialGradient id="paint24_radial_548_25703" cx="0" cy="0" r="1" gradientUnits="userSpaceOnUse" gradientTransform="translate(650.416 237.914) scale(344.139 344.139)">
<stop offset="0.59"/>
<stop offset="1" stop-color="#FFB799"/>
</radialGradient>
<radialGradient id="paint25_radial_548_25703" cx="0" cy="0" r="1" gradientUnits="userSpaceOnUse" gradientTransform="translate(530.497 330.184) scale(324.741 324.741)">
<stop offset="0.59"/>
<stop offset="1" stop-color="#FFB799"/>
</radialGradient>
<radialGradient id="paint26_radial_548_25703" cx="0" cy="0" r="1" gradientUnits="userSpaceOnUse" gradientTransform="translate(398.6 482.675) scale(223.548 223.548)">
<stop offset="0.59"/>
<stop offset="1" stop-color="#FFB799"/>
</radialGradient>
<radialGradient id="paint27_radial_548_25703" cx="0" cy="0" r="1" gradientUnits="userSpaceOnUse" gradientTransform="translate(544.347 497.717) scale(218.983 218.983)">
<stop offset="0.59"/>
<stop offset="1" stop-color="#FFB799"/>
</radialGradient>
<radialGradient id="paint28_radial_548_25703" cx="0" cy="0" r="1" gradientUnits="userSpaceOnUse" gradientTransform="translate(325.623 576.866) scale(175.104 175.104)">
<stop offset="0.59"/>
<stop offset="1" stop-color="#FFB799"/>
</radialGradient>
<radialGradient id="paint29_radial_548_25703" cx="0" cy="0" r="1" gradientUnits="userSpaceOnUse" gradientTransform="translate(592.273 600.051) scale(489.056 489.056)">
<stop offset="0.04"/>
<stop offset="0.84"/>
<stop offset="0.85" stop-color="#150F0D"/>
<stop offset="0.9" stop-color="#674A3E"/>
<stop offset="0.93" stop-color="#A87865"/>
<stop offset="0.96" stop-color="#D79A81"/>
<stop offset="0.99" stop-color="#F4AF92"/>
<stop offset="1" stop-color="#FFB799"/>
</radialGradient>
<radialGradient id="paint30_radial_548_25703" cx="0" cy="0" r="1" gradientUnits="userSpaceOnUse" gradientTransform="translate(109.596 58.0905) scale(734.388 734.388)">
<stop stop-color="#FFCAC4"/>
<stop offset="1"/>
</radialGradient>
<linearGradient id="paint31_linear_548_25703" x1="500" y1="25.2371" x2="500" y2="1048.18" gradientUnits="userSpaceOnUse">
<stop stop-color="#27A2D9"/>
<stop offset="0.19" stop-color="#1D78A1"/>
<stop offset="0.39" stop-color="#124E68"/>
<stop offset="0.59" stop-color="#0A2C3B"/>
<stop offset="0.76" stop-color="#04141A"/>
<stop offset="0.9" stop-color="#010507"/>
<stop offset="1"/>
</linearGradient>
<clipPath id="clip0_548_25703">
<rect width="1000" height="1000" fill="white"/>
</clipPath>
<clipPath id="clip1_548_25703">
<rect width="800" height="787.033" fill="white" transform="translate(100 106.379)"/>
</clipPath>
</defs>
</svg>
