<svg width="80" height="81" viewBox="0 0 80 81" fill="none" xmlns="http://www.w3.org/2000/svg">
<rect x="2" y="2.5" width="76" height="76" rx="38" fill="white" stroke="white" stroke-width="4"/>
<path d="M40 76.4866C59.8823 76.4866 76 60.3718 76 40.4933C76 20.6147 59.8823 4.5 40 4.5C20.1178 4.5 4 20.6147 4 40.4933C4 60.3718 20.1178 76.4866 40 76.4866Z" fill="#FEE9B3"/>
<path d="M61.527 61.9839C61.5315 64.5896 61.3397 67.192 60.9532 69.7689C48.2551 78.8703 31.1313 78.7299 18.5843 69.4216L18.4563 69.3274C18.111 66.8948 17.9386 64.4409 17.9402 61.9839C17.9402 53.0573 20.1705 44.9391 23.8141 38.8962L23.4063 26.9523L23.3894 26.4209L23.3501 25.2511L23.2783 23.1323H26.3721L26.9852 24.3203L27.7586 25.8191L30.2308 30.6065L30.5824 31.287C33.364 29.2877 36.4633 28.1699 39.7315 28.1699C43.1529 28.1699 46.3901 29.3945 49.2729 31.5752L52.2443 25.8191L53.0177 24.3217L53.1583 24.0405L53.6294 23.1281H56.7232L56.6515 25.2469L56.6149 26.3365L56.5952 26.9481L56.1635 39.7679C59.5033 45.7138 61.527 53.4819 61.527 61.9839Z" fill="#366FCA"/>
<path d="M25.4467 55.4897C25.4148 56.4608 25.3989 57.4403 25.3989 58.4282C25.386 63.6447 25.8487 68.8515 26.7812 73.984C23.8571 72.8291 21.0974 71.2951 18.5729 69.4216C18.2179 66.9583 18.0407 64.4727 18.0427 61.9839C18.0427 53.0573 20.2731 44.9391 23.9167 38.8962L23.5145 26.9453L23.499 26.456L23.4582 25.2455L23.3865 23.1281H26.4803L27.0681 24.2669L27.8415 25.7657L30.2743 30.4772C30.2574 30.5193 30.2406 30.5601 30.2251 30.6023C28.7331 34.383 27.5392 38.6459 26.7095 43.2562C26.5726 44.0154 26.4465 44.784 26.3312 45.562C26.1906 46.4492 26.0781 47.3504 25.974 48.2601C25.8109 49.6539 25.682 51.0702 25.5873 52.509C25.561 52.9111 25.5371 53.3151 25.5156 53.7209C25.4884 54.3077 25.4654 54.8973 25.4467 55.4897Z" fill="#356CBC"/>
<path d="M29.6317 55.2349C33.1352 55.2349 35.9753 52.3953 35.9753 48.8925C35.9753 45.3896 33.1352 42.55 29.6317 42.55C26.1282 42.55 23.2881 45.3896 23.2881 48.8925C23.2881 52.3953 26.1282 55.2349 29.6317 55.2349Z" fill="#3469B7"/>
<path d="M50.5579 55.2349C54.0614 55.2349 56.9015 52.3953 56.9015 48.8925C56.9015 45.3896 54.0614 42.55 50.5579 42.55C47.0545 42.55 44.2144 45.3896 44.2144 48.8925C44.2144 52.3953 47.0545 55.2349 50.5579 55.2349Z" fill="#3469B7"/>
<path d="M50.5579 45.1823C52.3442 45.1823 53.7922 43.7345 53.7922 41.9485C53.7922 40.1625 52.3442 38.7147 50.5579 38.7147C48.7716 38.7147 47.3235 40.1625 47.3235 41.9485C47.3235 43.7345 48.7716 45.1823 50.5579 45.1823Z" fill="#3586CB"/>
<path d="M32.6763 53.2202C34.4626 53.2202 35.9106 51.7724 35.9106 49.9865C35.9106 48.2005 34.4626 46.7527 32.6763 46.7527C30.89 46.7527 29.4419 48.2005 29.4419 49.9865C29.4419 51.7724 30.89 53.2202 32.6763 53.2202Z" fill="#3586CB"/>
<path d="M31.9954 42.5177C33.7817 42.5177 35.2297 41.0699 35.2297 39.2839C35.2297 37.498 33.7817 36.0502 31.9954 36.0502C30.2091 36.0502 28.761 37.498 28.761 39.2839C28.761 41.0699 30.2091 42.5177 31.9954 42.5177Z" fill="#3586CB"/>
<path d="M41.3469 48.4161C42.2401 48.4161 42.9641 47.6922 42.9641 46.7993C42.9641 45.9063 42.2401 45.1824 41.3469 45.1824C40.4538 45.1824 39.7297 45.9063 39.7297 46.7993C39.7297 47.6922 40.4538 48.4161 41.3469 48.4161Z" fill="#3586CB"/>
<path d="M47.3235 53.0092C48.2166 53.0092 48.9407 52.2853 48.9407 51.3923C48.9407 50.4993 48.2166 49.7754 47.3235 49.7754C46.4303 49.7754 45.7063 50.4993 45.7063 51.3923C45.7063 52.2853 46.4303 53.0092 47.3235 53.0092Z" fill="#3586CB"/>
<path d="M44.2144 37.6671C45.1075 37.6671 45.8315 36.9432 45.8315 36.0502C45.8315 35.1573 45.1075 34.4333 44.2144 34.4333C43.3212 34.4333 42.5972 35.1573 42.5972 36.0502C42.5972 36.9432 43.3212 37.6671 44.2144 37.6671Z" fill="#3586CB"/>
<path d="M24.8938 55.5866C25.7869 55.5866 26.511 54.8627 26.511 53.9697C26.511 53.0767 25.7869 52.3528 24.8938 52.3528C24.0007 52.3528 23.2766 53.0767 23.2766 53.9697C23.2766 54.8627 24.0007 55.5866 24.8938 55.5866Z" fill="#3586CB"/>
<path d="M25.2935 48.4161C26.1866 48.4161 26.9106 47.6922 26.9106 46.7993C26.9106 45.9063 26.1866 45.1824 25.2935 45.1824C24.4003 45.1824 23.6763 45.9063 23.6763 46.7993C23.6763 47.6922 24.4003 48.4161 25.2935 48.4161Z" fill="#3586CB"/>
<path d="M55.1523 54.7191C56.4338 54.7191 57.4727 53.6805 57.4727 52.3992C57.4727 51.118 56.4338 50.0793 55.1523 50.0793C53.8709 50.0793 52.832 51.118 52.832 52.3992C52.832 53.6805 53.8709 54.7191 55.1523 54.7191Z" fill="#3586CB"/>
<path d="M43.1409 54.3212H36.4592C34.4405 54.3212 32.804 55.9577 32.804 57.9764V57.977C32.804 59.9958 34.4405 61.6323 36.4592 61.6323H43.1409C45.1596 61.6323 46.7961 59.9958 46.7961 57.977V57.9764C46.7961 55.9577 45.1596 54.3212 43.1409 54.3212Z" fill="#27273D"/>
<path d="M23.2768 26.9539C28.4687 26.9539 32.6775 22.7459 32.6775 17.5549C32.6775 12.364 28.4687 8.15588 23.2768 8.15588C18.0848 8.15588 13.876 12.364 13.876 17.5549C13.876 22.7459 18.0848 26.9539 23.2768 26.9539Z" fill="#3469B7"/>
<path d="M20.4205 24.7152C21.6967 25.8027 23.2416 26.5277 24.8938 26.8144C21.2018 27.4568 17.4808 25.8455 15.4238 22.7136C13.3669 19.5816 13.3669 15.5274 15.4238 12.3955C17.4808 9.26357 21.2018 7.65226 24.8938 8.2947C21.303 8.92208 18.3985 11.568 17.4406 15.0844C16.4826 18.6008 17.6439 22.3539 20.4205 24.7152Z" fill="#2F64A3"/>
<path d="M23.277 25.2523C27.5983 25.2523 31.1014 21.7498 31.1014 17.4294C31.1014 13.1089 27.5983 9.60645 23.277 9.60645C18.9557 9.60645 15.4526 13.1089 15.4526 17.4294C15.4526 21.7498 18.9557 25.2523 23.277 25.2523Z" fill="white"/>
<path d="M20.4206 24.7154C17.3247 23.4984 15.3364 20.458 15.463 17.1344C15.5896 13.8109 17.8036 10.9304 20.9831 9.95251C18.6519 11.6474 17.2271 14.3177 17.1174 17.1974C17.0077 20.0772 18.2252 22.8481 20.4206 24.7154Z" fill="#E8E8E8"/>
<path d="M23.2769 22.4783C25.8266 22.4783 27.8936 20.4117 27.8936 17.8624C27.8936 15.3132 25.8266 13.2466 23.2769 13.2466C20.7271 13.2466 18.6602 15.3132 18.6602 17.8624C18.6602 20.4117 20.7271 22.4783 23.2769 22.4783Z" fill="#A65C3B"/>
<path d="M23.2348 21.3213C25.1453 21.3213 26.6941 19.7727 26.6941 17.8625C26.6941 15.9523 25.1453 14.4038 23.2348 14.4038C21.3242 14.4038 19.7754 15.9523 19.7754 17.8625C19.7754 19.7727 21.3242 21.3213 23.2348 21.3213Z" fill="#27273D"/>
<path d="M25.2935 16.9235C26.0888 16.9235 26.7335 16.2787 26.7335 15.4835C26.7335 14.6882 26.0888 14.0435 25.2935 14.0435C24.4982 14.0435 23.8535 14.6882 23.8535 15.4835C23.8535 16.2787 24.4982 16.9235 25.2935 16.9235Z" fill="white"/>
<path d="M23.2344 19.3024C24.0297 19.3024 24.6744 18.6577 24.6744 17.8624C24.6744 17.0671 24.0297 16.4224 23.2344 16.4224C22.4391 16.4224 21.7944 17.0671 21.7944 17.8624C21.7944 18.6577 22.4391 19.3024 23.2344 19.3024Z" fill="white"/>
<path d="M56.7232 26.9536C61.9151 26.9536 66.1239 22.7455 66.1239 17.5545C66.1239 12.3636 61.9151 8.15552 56.7232 8.15552C51.5313 8.15552 47.3224 12.3636 47.3224 17.5545C47.3224 22.7455 51.5313 26.9536 56.7232 26.9536Z" fill="#3469B7"/>
<path d="M53.8684 24.7152C55.1446 25.8027 56.6895 26.5277 58.3416 26.8144C54.6496 27.4568 50.9287 25.8455 48.8717 22.7136C46.8147 19.5816 46.8147 15.5274 48.8717 12.3955C50.9287 9.26357 54.6496 7.65226 58.3416 8.2947C54.7509 8.92208 51.8464 11.568 50.8885 15.0844C49.9305 18.6008 51.0918 22.3539 53.8684 24.7152Z" fill="#2F64A3"/>
<path d="M56.7229 25.2523C61.0442 25.2523 64.5473 21.7498 64.5473 17.4294C64.5473 13.1089 61.0442 9.60645 56.7229 9.60645C52.4017 9.60645 48.8986 13.1089 48.8986 17.4294C48.8986 21.7498 52.4017 25.2523 56.7229 25.2523Z" fill="white"/>
<path d="M53.8685 24.7154C50.7726 23.4984 48.7842 20.458 48.9109 17.1344C49.0375 13.8109 51.2514 10.9304 54.431 9.95251C52.0998 11.6474 50.675 14.3177 50.5653 17.1974C50.4556 20.0772 51.673 22.8481 53.8685 24.7154Z" fill="#E8E8E8"/>
<path d="M56.7229 22.4783C59.2727 22.4783 61.3396 20.4117 61.3396 17.8624C61.3396 15.3132 59.2727 13.2466 56.7229 13.2466C54.1732 13.2466 52.1062 15.3132 52.1062 17.8624C52.1062 20.4117 54.1732 22.4783 56.7229 22.4783Z" fill="#A65C3B"/>
<path d="M56.6807 21.3213C58.5913 21.3213 60.1401 19.7727 60.1401 17.8625C60.1401 15.9523 58.5913 14.4038 56.6807 14.4038C54.7701 14.4038 53.2213 15.9523 53.2213 17.8625C53.2213 19.7727 54.7701 21.3213 56.6807 21.3213Z" fill="#27273D"/>
<path d="M58.7409 16.9235C59.5362 16.9235 60.1809 16.2787 60.1809 15.4835C60.1809 14.6882 59.5362 14.0435 58.7409 14.0435C57.9456 14.0435 57.3009 14.6882 57.3009 15.4835C57.3009 16.2787 57.9456 16.9235 58.7409 16.9235Z" fill="white"/>
<path d="M56.681 19.3024C57.4763 19.3024 58.121 18.6577 58.121 17.8624C58.121 17.0671 57.4763 16.4224 56.681 16.4224C55.8857 16.4224 55.241 17.0671 55.241 17.8624C55.241 18.6577 55.8857 19.3024 56.681 19.3024Z" fill="white"/>
<path d="M37.2955 42.4797C38.3588 42.4797 39.2207 41.618 39.2207 40.5549C39.2207 39.4919 38.3588 38.6301 37.2955 38.6301C36.2323 38.6301 35.3704 39.4919 35.3704 40.5549C35.3704 41.618 36.2323 42.4797 37.2955 42.4797Z" fill="#27273D"/>
<path d="M42.358 42.4797C43.4213 42.4797 44.2832 41.618 44.2832 40.5549C44.2832 39.4919 43.4213 38.6301 42.358 38.6301C41.2948 38.6301 40.4329 39.4919 40.4329 40.5549C40.4329 41.618 41.2948 42.4797 42.358 42.4797Z" fill="#27273D"/>
<path d="M36.4604 54.3212H38.8862V56.2024C38.8862 56.8725 38.3428 57.4157 37.6726 57.4157C37.0023 57.4157 36.459 56.8725 36.459 56.2024L36.4604 54.3212Z" fill="#F6D372"/>
<path d="M43.7713 61.6322H41.3455V59.751C41.3455 59.4292 41.4734 59.1206 41.701 58.893C41.9286 58.6655 42.2372 58.5376 42.5591 58.5376C43.2294 58.5376 43.7727 59.0809 43.7727 59.751L43.7713 61.6322Z" fill="#F6D372"/>
</svg>
