<svg width="1000" height="1000" viewBox="0 0 1000 1000" fill="none" xmlns="http://www.w3.org/2000/svg">
<g clip-path="url(#clip0_548_25696)">
<g clip-path="url(#clip1_548_25696)">
<path style="mix-blend-mode:screen" d="M889.278 591.859C940.025 376.852 806.865 161.417 591.859 110.671C376.852 59.9252 161.417 193.084 110.671 408.091C59.925 623.097 193.084 838.532 408.091 889.278C623.097 940.024 838.532 806.865 889.278 591.859Z" fill="url(#paint0_radial_548_25696)"/>
<path style="mix-blend-mode:screen" d="M526.463 859.862C712.633 859.862 863.554 708.941 863.554 522.77C863.554 336.6 712.633 185.679 526.463 185.679C340.292 185.679 189.371 336.6 189.371 522.77C189.371 708.941 340.292 859.862 526.463 859.862Z" fill="url(#paint1_radial_548_25696)"/>
<path style="mix-blend-mode:screen" d="M723.91 721.638C849.545 596.003 849.545 392.308 723.91 266.673C598.275 141.038 394.58 141.038 268.945 266.673C143.309 392.308 143.309 596.003 268.945 721.638C394.58 847.273 598.275 847.273 723.91 721.638Z" fill="url(#paint2_radial_548_25696)"/>
<path fill-rule="evenodd" clip-rule="evenodd" d="M652.5 222.729C652.5 222.729 692.252 233.756 718.716 232.157C718.716 232.157 766.132 264.355 792.596 349.703C792.596 349.703 769.826 376.719 774.678 408.036C774.678 408.036 734.154 297.877 652.5 222.729Z" fill="url(#paint3_linear_548_25696)"/>
<path fill-rule="evenodd" clip-rule="evenodd" d="M696.113 859.696C696.113 859.696 679.903 854.789 667.884 856.278C667.884 856.278 651.73 844.148 651.454 823.087C651.454 823.087 663.859 807.759 668.38 795.961C668.38 795.961 673.342 829.923 696.168 859.696H696.113Z" fill="url(#paint4_linear_548_25696)"/>
<path fill-rule="evenodd" clip-rule="evenodd" d="M781.073 470.007C781.073 499.008 776.994 527.126 769.275 553.646C754.003 607.016 724.34 654.266 684.754 691.096C656.47 717.505 623.058 738.456 586.284 752.405C552.927 765.086 516.869 771.978 479.047 771.978C473.699 771.978 468.296 771.867 463.003 771.537H462.948C455.064 771.151 447.18 770.379 439.516 769.441C381.184 761.778 328.2 737.574 285.25 701.461C269.096 688.008 254.485 672.846 241.528 656.251C231.714 643.845 222.838 630.613 215.064 616.664C213.189 613.356 211.425 609.993 209.661 606.575C209.661 606.464 209.606 606.409 209.55 606.244C207.676 602.605 205.967 598.966 204.313 595.272H204.258C199.02 583.749 194.444 571.84 190.75 559.6C187.938 550.779 185.567 541.737 183.692 532.584C183.637 532.529 183.637 532.419 183.637 532.309C182.314 525.858 181.156 519.352 180.274 512.791C178.234 498.787 177.187 484.507 177.187 469.952C177.187 461.626 177.517 453.246 178.289 445.086C178.675 439.848 179.226 434.721 179.943 429.538C183.858 399.821 192.128 371.537 204.092 345.183C209.936 332.226 216.718 319.821 224.326 307.912C236.952 288.008 251.838 269.814 268.71 253.384C323.072 200.455 397.338 167.926 479.213 167.926C482.41 167.926 485.608 167.981 488.696 168.036C492.059 168.146 495.477 168.312 498.841 168.532C516.153 169.69 533.134 172.226 549.509 176.196C559.047 178.512 568.42 181.158 577.628 184.356C583.858 186.451 589.978 188.822 596.042 191.358C600.563 193.288 604.974 195.272 609.385 197.368C610.157 197.753 610.929 198.084 611.701 198.47C641.032 212.805 667.607 231.661 690.708 254.321C694.016 257.519 697.214 260.827 700.412 264.19C702.507 266.506 704.602 268.822 706.642 271.192C710.171 275.162 713.534 279.297 716.842 283.432C728.916 298.704 739.447 315.19 748.324 332.667C758.689 352.957 766.849 374.569 772.417 397.174C778.206 420.496 781.294 444.866 781.294 469.952L781.073 470.007Z" fill="url(#paint5_radial_548_25696)"/>
<path style="mix-blend-mode:multiply" opacity="0.5" fill-rule="evenodd" clip-rule="evenodd" d="M188.599 425.403C188.599 425.403 242.465 453.521 290.708 415.313C338.95 377.105 300.356 234.583 300.356 234.583L188.599 425.403Z" fill="url(#paint6_linear_548_25696)"/>
<path style="mix-blend-mode:multiply" opacity="0.89" fill-rule="evenodd" clip-rule="evenodd" d="M538.76 642.522C538.76 642.522 563.129 671.798 622.785 675.051C682.44 678.249 741.985 609.827 755.714 547.801C769.387 485.775 725.114 423.142 681.613 413.383C638.112 403.68 538.76 642.522 538.76 642.522Z" fill="url(#paint7_linear_548_25696)"/>
<path style="mix-blend-mode:screen" fill-rule="evenodd" clip-rule="evenodd" d="M299.972 705.871C268.766 679.737 242.853 647.374 224.273 610.709C212.584 587.663 203.763 562.908 198.36 536.995C198.36 536.995 198.36 536.829 198.36 536.719C194.169 516.595 191.909 495.754 191.909 474.362C191.909 414.762 209.221 359.186 238.994 312.322C251.674 292.419 266.561 274.169 283.377 257.85C337.794 204.921 412.06 172.336 493.935 172.336C500.551 172.336 507.057 172.557 513.508 172.943C533.963 174.266 553.866 177.629 573.053 182.812C549.455 175.093 524.535 170.186 498.732 168.532C492.226 168.091 485.72 167.925 479.159 167.925C397.284 167.925 323.074 200.51 268.601 253.439C251.785 269.759 236.898 288.008 224.218 307.911C194.39 354.721 177.133 410.351 177.133 469.951C177.133 491.343 179.393 512.184 183.584 532.308C183.584 532.419 183.584 532.529 183.584 532.584C189.042 558.497 197.808 583.252 209.497 606.299C228.077 642.963 253.99 675.327 285.196 701.46C318.277 729.248 357.367 749.924 400.207 761.502C363.156 749.427 329.249 730.351 299.972 705.816V705.871Z" fill="url(#paint8_radial_548_25696)"/>
<path fill-rule="evenodd" clip-rule="evenodd" d="M232.433 644.231C232.433 644.231 251.564 675.437 246.712 726.161C246.712 726.161 288.67 799.489 407.043 805.499C407.043 805.499 466.643 761.557 523.652 768.724C523.652 768.724 425.182 628.352 232.433 644.231Z" fill="url(#paint9_linear_548_25696)"/>
<path fill-rule="evenodd" clip-rule="evenodd" d="M188.601 425.403C188.601 425.403 168.752 370.654 150.944 351.302C150.944 351.302 137.271 264.355 225.816 234.528C225.816 234.528 273.508 243.625 300.358 234.528C300.358 234.528 310.558 293.301 270.089 356.099C235.575 409.634 188.546 425.348 188.546 425.348L188.601 425.403Z" fill="url(#paint10_linear_548_25696)"/>
<path fill-rule="evenodd" clip-rule="evenodd" d="M731.232 468.022C731.232 468.022 710.116 393.811 638.441 389.345C562.411 384.603 495.092 536.333 518.524 608.835C541.956 681.337 626.587 670.861 665.347 644.507C712.431 612.529 735.533 541.792 731.232 468.022Z" fill="url(#paint11_linear_548_25696)"/>
<path style="mix-blend-mode:multiply" opacity="0.5" fill-rule="evenodd" clip-rule="evenodd" d="M408.751 250.021C408.751 250.021 434.499 293.577 484.34 288.78C538.758 283.598 553.313 237.505 551.273 219.256C549.233 201.007 408.751 250.021 408.751 250.021Z" fill="url(#paint12_linear_548_25696)"/>
<path fill-rule="evenodd" clip-rule="evenodd" d="M650.131 415.313C584.411 414.927 487.043 589.868 571.785 648.642C652.336 704.493 726.768 583.252 735.479 541.846C744.19 500.441 738.622 415.809 650.076 415.313H650.131Z" fill="url(#paint13_linear_548_25696)"/>
<path fill-rule="evenodd" clip-rule="evenodd" d="M619.587 646.878C616.444 646.602 613.412 646.161 610.545 645.72C569.745 638.718 554.473 610.323 551 581.709C548.849 563.514 551.441 545.32 555.355 532.308C563.074 506.561 604.425 446.188 651.785 437.698C668.601 434.61 686.189 438.194 703.336 452.308C717.781 464.273 725.004 480.041 726.658 497.519C733.053 562.687 663.97 650.847 619.587 646.878Z" fill="url(#paint14_linear_548_25696)"/>
<path fill-rule="evenodd" clip-rule="evenodd" d="M420.331 170.076C420.331 170.076 390.117 208.835 405.059 243.68C420.882 280.62 509.373 279.076 537.988 250.847C566.602 222.619 543.777 168.752 519.132 159.269C491.123 148.518 454.073 150.558 420.331 170.076Z" fill="url(#paint15_radial_548_25696)"/>
<path fill-rule="evenodd" clip-rule="evenodd" d="M414.705 220.799C430.143 251.895 535.67 256.306 543.279 202.384C550.501 151.165 475.684 144.824 454.126 150.503C432.514 156.182 393.975 178.897 414.705 220.744V220.799Z" fill="url(#paint16_linear_548_25696)"/>
<path fill-rule="evenodd" clip-rule="evenodd" d="M528.284 189.097C528.449 190.806 528.449 192.46 528.284 194.059C528.229 195.768 527.953 197.477 527.567 199.076C518.966 233.701 449.387 244.948 433.563 225.706C429.152 220.358 426.506 215.065 425.238 210.048C419.835 188.821 438.746 171.785 451.316 165.224C466.809 157.064 524.866 148.739 528.339 189.042L528.284 189.097Z" fill="url(#paint17_linear_548_25696)"/>
<path fill-rule="evenodd" clip-rule="evenodd" d="M150.943 351.302C152.376 371.04 251.729 277.422 225.815 234.528C225.815 234.528 142.893 242.192 150.943 351.302Z" fill="url(#paint18_linear_548_25696)"/>
<path fill-rule="evenodd" clip-rule="evenodd" d="M246.711 726.161C240.536 690.875 419.943 715.244 407.041 805.499C404.23 825.237 256.966 784.768 246.711 726.161Z" fill="url(#paint19_linear_548_25696)"/>
<path fill-rule="evenodd" clip-rule="evenodd" d="M390.887 802.853C387.909 805.279 289.439 790.724 255.642 730.958C253.437 726.933 263.912 725.665 280.067 727.595C286.186 728.312 293.078 729.525 300.411 731.234C323.733 736.637 351.19 747.223 369.825 764.039C375.614 769.276 380.08 773.963 383.388 778.208C388.185 784.328 390.721 789.29 391.879 793.15C393.478 798.553 392.32 801.806 390.942 802.908L390.887 802.853Z" fill="url(#paint20_linear_548_25696)"/>
<path fill-rule="evenodd" clip-rule="evenodd" d="M383.39 778.207C344.355 771.316 316.347 748.269 300.413 731.233C323.735 736.636 351.192 747.222 369.827 764.038C375.616 769.276 380.082 773.962 383.39 778.207Z" fill="url(#paint21_linear_548_25696)"/>
<path fill-rule="evenodd" clip-rule="evenodd" d="M215.064 261.71C213.41 267.002 210.598 274.06 206.408 283.488C198.854 300.248 183.968 317.726 173.162 326.217C167.648 330.627 163.127 332.667 161.308 331.069C157.559 327.816 158.165 303.722 169.688 281.392C181.211 258.953 212.417 243.074 215.615 246.548C217.6 248.698 217.931 252.723 215.119 261.71H215.064Z" fill="url(#paint22_linear_548_25696)"/>
<path fill-rule="evenodd" clip-rule="evenodd" d="M215.065 261.709C213.411 267.002 210.599 274.059 206.409 283.487C198.856 300.248 183.969 317.725 173.163 326.216C185.844 291.757 208.229 268.325 215.065 261.709Z" fill="url(#paint23_linear_548_25696)"/>
<path fill-rule="evenodd" clip-rule="evenodd" d="M246.712 601.778C243.57 599.848 240.537 596.43 237.781 592.019C237.781 592.019 237.781 591.964 237.67 591.853C227.636 575.699 221.847 547.691 232.433 541.957C245.499 534.789 264.796 538.538 273.563 561.695C273.563 561.695 273.563 561.75 273.618 561.805C273.949 562.577 274.279 563.404 274.445 564.231C274.5 564.341 274.555 564.507 274.555 564.617C274.665 565.279 274.886 565.83 275.051 566.216C275.327 567.043 275.548 567.87 275.768 568.752C281.171 590.861 261.323 610.654 246.712 601.778Z" fill="url(#paint24_linear_548_25696)"/>
<path style="mix-blend-mode:multiply" opacity="0.4" fill-rule="evenodd" clip-rule="evenodd" d="M273.563 561.64C268.656 551.771 249.524 540.303 237.781 550.999C225.486 562.191 236.623 589.262 237.67 591.798C227.636 575.644 221.847 547.636 232.433 541.902C245.499 534.734 264.796 538.483 273.563 561.64Z" fill="url(#paint25_radial_548_25696)"/>
<path fill-rule="evenodd" clip-rule="evenodd" d="M338.181 307.856C336.802 306.864 335.534 305.155 334.487 303.005C334.487 303.005 334.487 303.005 334.487 302.894C330.517 295.12 328.918 281.998 334.046 279.738C340.331 276.981 349.042 279.407 352.185 290.434C352.185 290.434 352.185 290.434 352.185 290.489C352.295 290.875 352.405 291.261 352.46 291.647C352.46 291.702 352.46 291.757 352.46 291.812C352.46 292.088 352.571 292.364 352.626 292.584C352.736 292.97 352.791 293.356 352.846 293.797C354.5 304.162 344.576 312.488 338.236 307.856H338.181Z" fill="url(#paint26_linear_548_25696)"/>
<path style="mix-blend-mode:multiply" opacity="0.4" fill-rule="evenodd" clip-rule="evenodd" d="M352.073 290.434C350.198 285.693 341.873 279.683 336.084 284.149C330.019 288.835 334.099 301.681 334.43 302.894C330.46 295.12 328.861 281.998 333.989 279.738C340.274 276.981 348.985 279.407 352.128 290.434H352.073Z" fill="url(#paint27_radial_548_25696)"/>
<path fill-rule="evenodd" clip-rule="evenodd" d="M564.397 729.469H564.287C563.68 729.745 562.963 730.075 562.302 730.186C562.191 730.296 562.081 730.406 562.026 730.406C561.53 730.516 561.034 730.627 560.703 730.792C560.096 731.013 559.38 731.178 558.608 731.399C548.518 734.1 538.98 730.406 533.687 724.396C529.387 719.6 527.898 713.48 530.985 708.077C532.474 705.485 535.286 702.894 538.87 700.578L538.98 700.468C552.102 691.978 575.093 686.685 580 695.286C581.378 697.601 582.315 700.193 582.591 702.894C584.08 712.487 579.173 723.625 564.397 729.524V729.469Z" fill="url(#paint28_linear_548_25696)"/>
<path style="mix-blend-mode:screen" opacity="0.5" fill-rule="evenodd" clip-rule="evenodd" d="M315.408 563.129C315.408 563.129 333.547 592.074 383.389 589.097C433.175 586.064 442.272 561.695 445.305 541.902C448.337 522.053 440.012 497.684 440.012 497.684C440.012 497.684 329.909 518.47 315.463 563.184L315.408 563.129Z" fill="url(#paint29_radial_548_25696)"/>
<path style="mix-blend-mode:multiply" opacity="0.4" fill-rule="evenodd" clip-rule="evenodd" d="M582.591 702.839C578.511 699.31 569.965 695.01 556.072 699.421C534.79 706.147 533.687 724.341 533.687 724.341C529.387 719.545 527.898 713.425 530.985 708.022C532.474 705.43 535.286 702.839 538.87 700.523L538.98 700.413C552.102 691.922 575.093 686.629 580 695.23C581.378 697.546 582.315 700.137 582.591 702.839Z" fill="url(#paint30_radial_548_25696)"/>
<path fill-rule="evenodd" clip-rule="evenodd" d="M442.438 525.692V526.795C442.493 603.928 326.931 594.5 308.847 553.425C306.366 547.746 304.271 541.461 302.672 534.79C292.472 493.439 298.868 438.084 317.283 425.403C336.635 412.061 373.906 411.785 400.977 425.403C431.521 440.786 443.54 486.713 442.493 525.692H442.438Z" fill="url(#paint31_linear_548_25696)"/>
<path style="mix-blend-mode:multiply" opacity="0.4" fill-rule="evenodd" clip-rule="evenodd" d="M442.438 525.693V526.795C442.438 526.795 444.092 478.553 420.77 452.805C397.393 427.057 350.694 419.78 324.009 448.78C297.986 477.064 302.396 532.143 302.672 534.79C292.472 493.494 298.868 438.139 317.283 425.458C336.635 412.116 373.906 411.84 400.977 425.458C431.521 440.841 443.54 486.768 442.493 525.748L442.438 525.693Z" fill="url(#paint32_linear_548_25696)"/>
<path fill-rule="evenodd" clip-rule="evenodd" d="M659.117 282.88C652.556 286.409 637.008 276.705 622.783 264.576C605.526 249.745 590.309 231.164 596.263 228.518C604.368 224.879 634.141 227.305 647.814 238.608C653.658 243.459 659.282 250.903 662.645 258.511C666.89 268.38 667.276 278.47 659.061 282.936L659.117 282.88Z" fill="url(#paint33_linear_548_25696)"/>
<path style="mix-blend-mode:multiply" opacity="0.4" fill-rule="evenodd" clip-rule="evenodd" d="M662.647 258.456C662.647 258.456 662.536 258.291 662.481 258.18C640.979 225.651 607.733 227.085 605.307 235.961C602.881 244.838 622.729 264.576 622.729 264.576C605.472 249.745 590.255 231.164 596.21 228.518C604.314 224.879 634.087 227.305 647.76 238.608C653.604 243.459 659.228 250.903 662.591 258.511L662.647 258.456Z" fill="url(#paint34_linear_548_25696)"/>
<path fill-rule="evenodd" clip-rule="evenodd" d="M172.39 343.198C172.39 343.198 221.57 318.553 226.697 269.814C226.697 269.814 201.887 319.931 172.39 343.198Z" fill="#FFE496"/>
<path fill-rule="evenodd" clip-rule="evenodd" d="M538.758 584.686C538.758 584.686 543.61 487.043 614.237 429.483C614.237 429.483 529.496 470.007 538.758 584.686Z" fill="#FFE496"/>
<path fill-rule="evenodd" clip-rule="evenodd" d="M417.574 225.1C417.574 225.1 430.806 245.224 476.072 243.68C521.337 242.136 536.223 221.461 538.76 215.948C538.76 215.948 527.512 250.627 476.347 249.414C422.316 248.146 417.574 225.155 417.574 225.155V225.1Z" fill="#FFEF7F"/>
<path fill-rule="evenodd" clip-rule="evenodd" d="M324.009 717.174C324.009 717.174 392.651 744.907 406.545 784.769C406.545 784.769 405.001 739.007 324.009 717.174Z" fill="#FFEF7F"/>
<path style="mix-blend-mode:multiply" opacity="0.71" fill-rule="evenodd" clip-rule="evenodd" d="M726.655 497.519V497.629C726.655 497.629 703.334 457.326 638.606 475.024C580.604 490.848 555.518 565.444 550.942 581.709C548.792 563.515 551.383 545.32 555.298 532.309C563.017 506.561 604.367 446.189 651.728 437.698C668.544 434.611 686.132 438.194 703.278 452.309C717.724 464.273 724.946 480.041 726.6 497.519H726.655Z" fill="url(#paint35_linear_548_25696)"/>
<path fill-rule="evenodd" clip-rule="evenodd" d="M805.224 820.881C804.012 827.663 801.861 834.114 798.939 840.013C793.095 851.867 784.108 861.736 773.302 868.683C765.528 873.7 756.816 877.173 747.609 878.883C739.229 880.426 730.517 880.537 721.641 878.883C720.373 878.662 719.105 878.386 717.892 878.111C716.072 877.67 714.253 877.173 712.488 876.622C699.146 872.377 687.733 864.437 679.187 854.127C675.989 850.268 673.178 846.133 670.862 841.667C669.098 838.359 667.554 834.885 666.341 831.247C666.065 830.364 665.79 829.537 665.514 828.655C665.514 828.655 665.514 828.655 665.514 828.6C665.238 827.663 664.963 826.726 664.742 825.788C664.025 822.866 663.419 819.889 663.088 816.857C662.812 814.651 662.647 812.446 662.592 810.24C662.592 810.24 662.592 810.24 662.592 810.185C662.592 808.641 662.592 807.043 662.592 805.444C662.702 802.08 663.088 798.662 663.694 795.244C664.025 793.259 664.466 791.329 665.018 789.455C665.349 788.242 665.679 787.084 666.065 785.871C668.215 779.089 671.358 772.749 675.328 767.125C677.258 764.313 679.353 761.722 681.668 759.241C685.473 755.106 689.773 751.467 694.404 748.324C709.401 738.235 728.202 733.714 747.444 737.187C748.216 737.298 748.932 737.463 749.649 737.628C750.421 737.794 751.248 737.959 752.02 738.18C756.045 739.172 759.904 740.495 763.598 742.149C765.748 743.087 767.843 744.134 769.828 745.237C771.207 746.009 772.53 746.781 773.853 747.663C774.845 748.325 775.783 748.931 776.72 749.648C776.885 749.758 777.051 749.868 777.216 749.979C783.502 754.61 788.905 760.123 793.371 766.409C794.032 767.291 794.639 768.228 795.245 769.165C795.631 769.772 796.017 770.433 796.403 771.095C797.065 772.198 797.671 773.3 798.278 774.403C800.483 778.483 802.247 782.783 803.57 787.304C805.169 792.487 806.162 797.945 806.493 803.459C806.878 809.193 806.548 815.037 805.5 820.936L805.224 820.881Z" fill="url(#paint36_radial_548_25696)"/>
<path fill-rule="evenodd" clip-rule="evenodd" d="M753.839 730.516C753.839 730.516 725.279 729.744 714.583 758.194C703.281 788.407 747.609 834.665 775.893 834.224C804.177 833.783 811.289 798.276 807.044 779.255C801.861 756.209 780.138 737.959 753.894 730.461L753.839 730.516Z" fill="url(#paint37_linear_548_25696)"/>
<path fill-rule="evenodd" clip-rule="evenodd" d="M725.111 756.705C716.621 783.28 765.249 844.644 796.511 817.684C826.228 792.101 793.423 746.726 780.08 738.014C766.738 729.303 736.524 720.923 725.111 756.705Z" fill="url(#paint38_linear_548_25696)"/>
<path fill-rule="evenodd" clip-rule="evenodd" d="M801.969 798.111C801.473 799.324 800.922 800.537 800.425 801.639C792.762 817.298 780.963 819.889 770.543 817.739C763.926 816.36 757.917 812.997 753.892 809.799C745.897 803.459 730.129 779.145 733.161 758.91C734.209 751.688 737.738 745.016 744.795 739.889C750.804 735.533 757.2 734.596 763.54 736.085C787.083 741.653 809.026 780.688 802.024 798.166L801.969 798.111Z" fill="url(#paint39_linear_548_25696)"/>
<path fill-rule="evenodd" clip-rule="evenodd" d="M800.428 801.64C787.912 827.167 764.204 818.014 753.839 809.744C745.845 803.404 730.076 779.09 733.109 758.855C735.038 755.051 737.905 751.578 741.985 748.655C768.34 729.414 802.743 776.995 800.373 801.64H800.428Z" fill="url(#paint40_linear_548_25696)"/>
<path style="mix-blend-mode:multiply" opacity="0.71" fill-rule="evenodd" clip-rule="evenodd" d="M763.54 736.029C763.54 736.029 746.504 740.44 744.464 768.834C742.589 794.306 765.415 813.824 770.543 817.683C763.926 816.305 757.917 812.942 753.892 809.744C745.897 803.404 730.129 779.089 733.161 758.855C734.209 751.632 737.738 744.961 744.795 739.834C750.804 735.478 757.2 734.541 763.54 736.029Z" fill="url(#paint41_linear_548_25696)"/>
<path style="mix-blend-mode:multiply" opacity="0.71" fill-rule="evenodd" clip-rule="evenodd" d="M528.284 189.097C528.449 190.806 528.449 192.46 528.284 194.059C516.154 176.251 493.88 172.336 465.762 178.401C437.588 184.466 425.238 210.103 425.238 210.103C419.835 188.876 438.746 171.84 451.316 165.279C466.809 157.119 524.866 148.794 528.339 189.097H528.284Z" fill="url(#paint42_linear_548_25696)"/>
</g>
<path style="mix-blend-mode:screen" opacity="0.45" fill-rule="evenodd" clip-rule="evenodd" d="M500 0C223.922 0 0 223.769 0 500C0 776.232 223.922 1000 500 1000C776.078 1000 1000 776.079 1000 500C1000 223.922 776.231 0 500 0ZM500 980.576C234.628 980.576 19.4249 765.372 19.4249 500C19.4249 234.629 234.628 19.4249 500 19.4249C765.372 19.4249 980.575 234.629 980.575 500C980.575 765.372 765.372 980.576 500 980.576Z" fill="url(#paint43_linear_548_25696)"/>
</g>
<defs>
<radialGradient id="paint0_radial_548_25696" cx="0" cy="0" r="1" gradientUnits="userSpaceOnUse" gradientTransform="translate(499.944 499.993) scale(400 400)">
<stop stop-color="#FFBD17"/>
<stop offset="1"/>
</radialGradient>
<radialGradient id="paint1_radial_548_25696" cx="0" cy="0" r="1" gradientUnits="userSpaceOnUse" gradientTransform="translate(526.463 522.77) scale(337.092 337.091)">
<stop stop-color="#FFBD17"/>
<stop offset="1"/>
</radialGradient>
<radialGradient id="paint2_radial_548_25696" cx="0" cy="0" r="1" gradientUnits="userSpaceOnUse" gradientTransform="translate(496.435 494.164) scale(321.709 321.709)">
<stop stop-color="#FFBD17"/>
<stop offset="1"/>
</radialGradient>
<linearGradient id="paint3_linear_548_25696" x1="705.043" y1="397.009" x2="730.846" y2="234.087" gradientUnits="userSpaceOnUse">
<stop stop-color="#BA962B"/>
<stop offset="1" stop-color="#FFA56D"/>
</linearGradient>
<linearGradient id="paint4_linear_548_25696" x1="687.434" y1="802.8" x2="668.891" y2="856.926" gradientUnits="userSpaceOnUse">
<stop stop-color="#FFA56D"/>
<stop offset="1" stop-color="#BA962B"/>
</linearGradient>
<radialGradient id="paint5_radial_548_25696" cx="0" cy="0" r="1" gradientUnits="userSpaceOnUse" gradientTransform="translate(376.608 364.976) scale(455.41 455.41)">
<stop stop-color="#FFE88D"/>
<stop offset="0.22" stop-color="#FFE58B"/>
<stop offset="0.33" stop-color="#FFDE86"/>
<stop offset="0.42" stop-color="#FFD07D"/>
<stop offset="0.49" stop-color="#FFBE70"/>
<stop offset="0.55" stop-color="#FFA660"/>
<stop offset="0.58" stop-color="#FF9857"/>
<stop offset="0.65" stop-color="#FA9151"/>
<stop offset="0.74" stop-color="#EF7D42"/>
<stop offset="0.85" stop-color="#DD5E29"/>
<stop offset="0.92" stop-color="#D14A19"/>
<stop offset="1" stop-color="#FF914D"/>
</radialGradient>
<linearGradient id="paint6_linear_548_25696" x1="188.599" y1="334.983" x2="315.022" y2="334.983" gradientUnits="userSpaceOnUse">
<stop stop-color="white"/>
<stop offset="0.02" stop-color="#FCFBF8"/>
<stop offset="0.21" stop-color="#E8DAC2"/>
<stop offset="0.39" stop-color="#D7C095"/>
<stop offset="0.57" stop-color="#CAAB71"/>
<stop offset="0.73" stop-color="#C19C58"/>
<stop offset="0.88" stop-color="#BB9349"/>
<stop offset="1" stop-color="#BA9044"/>
</linearGradient>
<linearGradient id="paint7_linear_548_25696" x1="538.76" y1="544.107" x2="758.195" y2="544.107" gradientUnits="userSpaceOnUse">
<stop stop-color="#BA9044"/>
<stop offset="0.12" stop-color="#BB9349"/>
<stop offset="0.27" stop-color="#C19C58"/>
<stop offset="0.43" stop-color="#CAAB71"/>
<stop offset="0.61" stop-color="#D7C095"/>
<stop offset="0.79" stop-color="#E8DAC2"/>
<stop offset="0.98" stop-color="#FCFBF8"/>
<stop offset="1" stop-color="white"/>
</linearGradient>
<radialGradient id="paint8_radial_548_25696" cx="0" cy="0" r="1" gradientUnits="userSpaceOnUse" gradientTransform="translate(258.401 264.411) scale(397.519 397.519)">
<stop stop-color="#8E8BFF"/>
<stop offset="1"/>
</radialGradient>
<linearGradient id="paint9_linear_548_25696" x1="363.211" y1="800.151" x2="385.651" y2="658.125" gradientUnits="userSpaceOnUse">
<stop stop-color="#A44312"/>
<stop offset="1" stop-color="#FFA56D"/>
</linearGradient>
<linearGradient id="paint10_linear_548_25696" x1="273.563" y1="355.272" x2="173.935" y2="268.656" gradientUnits="userSpaceOnUse">
<stop stop-color="#FFD36F"/>
<stop offset="1" stop-color="#BA962B"/>
</linearGradient>
<linearGradient id="paint11_linear_548_25696" x1="708.56" y1="597.718" x2="538.091" y2="467.353" gradientUnits="userSpaceOnUse">
<stop stop-color="#BA7E07"/>
<stop offset="1" stop-color="#FFE895"/>
</linearGradient>
<linearGradient id="paint12_linear_548_25696" x1="408.751" y1="252.171" x2="551.439" y2="252.171" gradientUnits="userSpaceOnUse">
<stop stop-color="white"/>
<stop offset="0.02" stop-color="#FCFBF8"/>
<stop offset="0.21" stop-color="#E8DAC2"/>
<stop offset="0.39" stop-color="#D7C095"/>
<stop offset="0.57" stop-color="#CAAB71"/>
<stop offset="0.73" stop-color="#C19C58"/>
<stop offset="0.88" stop-color="#BB9349"/>
<stop offset="1" stop-color="#BA9044"/>
</linearGradient>
<linearGradient id="paint13_linear_548_25696" x1="623.23" y1="664.737" x2="655.711" y2="414.986" gradientUnits="userSpaceOnUse">
<stop stop-color="#FE9943"/>
<stop offset="1" stop-color="#FFBD57"/>
</linearGradient>
<linearGradient id="paint14_linear_548_25696" x1="565.169" y1="630.613" x2="698.098" y2="467.691" gradientUnits="userSpaceOnUse">
<stop stop-color="#E8B04C"/>
<stop offset="0.26" stop-color="#E6AC49"/>
<stop offset="0.49" stop-color="#E0A043"/>
<stop offset="0.73" stop-color="#D88E39"/>
<stop offset="0.95" stop-color="#CB732B"/>
<stop offset="0.99" stop-color="#C96E28"/>
</linearGradient>
<radialGradient id="paint15_radial_548_25696" cx="0" cy="0" r="1" gradientUnits="userSpaceOnUse" gradientTransform="translate(415.628 227.603) rotate(-109.29) scale(113.246 113.246)">
<stop stop-color="#FFDE7F"/>
<stop offset="1" stop-color="#BA962B"/>
</radialGradient>
<linearGradient id="paint16_linear_548_25696" x1="538.8" y1="173.803" x2="413.386" y2="217.698" gradientUnits="userSpaceOnUse">
<stop stop-color="#FFD26C"/>
<stop offset="1" stop-color="#FFD089"/>
</linearGradient>
<linearGradient id="paint17_linear_548_25696" x1="476.292" y1="235.134" x2="476.292" y2="158.498" gradientUnits="userSpaceOnUse">
<stop stop-color="#FFBD57"/>
<stop offset="0.32" stop-color="#FEBA53"/>
<stop offset="0.61" stop-color="#FEB348"/>
<stop offset="0.9" stop-color="#FEA635"/>
<stop offset="1" stop-color="#FEA12D"/>
</linearGradient>
<linearGradient id="paint18_linear_548_25696" x1="190.254" y1="354.004" x2="190.254" y2="234.583" gradientUnits="userSpaceOnUse">
<stop stop-color="#FFED7C"/>
<stop offset="1" stop-color="#FFE257"/>
</linearGradient>
<linearGradient id="paint19_linear_548_25696" x1="327.097" y1="810.516" x2="327.097" y2="710.668" gradientUnits="userSpaceOnUse">
<stop stop-color="#FED269"/>
<stop offset="1" stop-color="#FFDA57"/>
</linearGradient>
<linearGradient id="paint20_linear_548_25696" x1="324.009" y1="803.129" x2="324.009" y2="726.713" gradientUnits="userSpaceOnUse">
<stop stop-color="#FE863E"/>
<stop offset="1" stop-color="#FFA720"/>
</linearGradient>
<linearGradient id="paint21_linear_548_25696" x1="341.874" y1="778.207" x2="341.874" y2="731.233" gradientUnits="userSpaceOnUse">
<stop stop-color="#FE9943"/>
<stop offset="1" stop-color="#FFBD57"/>
</linearGradient>
<linearGradient id="paint22_linear_548_25696" x1="188.158" y1="331.565" x2="188.158" y2="246.051" gradientUnits="userSpaceOnUse">
<stop stop-color="#FFBD57"/>
<stop offset="1" stop-color="#FE9943"/>
</linearGradient>
<linearGradient id="paint23_linear_548_25696" x1="190.586" y1="291.702" x2="198.911" y2="296.995" gradientUnits="userSpaceOnUse">
<stop stop-color="#FFAA68"/>
<stop offset="1" stop-color="#FFD26C"/>
</linearGradient>
<linearGradient id="paint24_linear_548_25696" x1="223.721" y1="553.756" x2="275.768" y2="586.671" gradientUnits="userSpaceOnUse">
<stop stop-color="#FFAA68"/>
<stop offset="0.49" stop-color="#FFD86E"/>
<stop offset="1" stop-color="#FFF49E"/>
</linearGradient>
<radialGradient id="paint25_radial_548_25696" cx="0" cy="0" r="1" gradientUnits="userSpaceOnUse" gradientTransform="translate(250.186 565.223) scale(25.031 25.031)">
<stop stop-color="#BA0C00"/>
<stop offset="1" stop-color="white"/>
</radialGradient>
<linearGradient id="paint26_linear_548_25696" x1="329.461" y1="284.9" x2="352.086" y2="302.023" gradientUnits="userSpaceOnUse">
<stop stop-color="#FFAA68"/>
<stop offset="0.49" stop-color="#FFD86E"/>
<stop offset="1" stop-color="#FFF49E"/>
</linearGradient>
<radialGradient id="paint27_radial_548_25696" cx="0" cy="0" r="1" gradientUnits="userSpaceOnUse" gradientTransform="translate(341.157 291.198) rotate(4.82) scale(11.5231 11.5231)">
<stop stop-color="#BA0C00"/>
<stop offset="1" stop-color="white"/>
</radialGradient>
<linearGradient id="paint28_linear_548_25696" x1="582.701" y1="711.991" x2="529.386" y2="710.889" gradientUnits="userSpaceOnUse">
<stop stop-color="#FFB953"/>
<stop offset="1" stop-color="#B8753A"/>
</linearGradient>
<radialGradient id="paint29_radial_548_25696" cx="0" cy="0" r="1" gradientUnits="userSpaceOnUse" gradientTransform="translate(398.771 578.511) scale(56.4025 56.4024)">
<stop stop-color="#C0BDFF"/>
<stop offset="0.2" stop-color="#8C8ABB"/>
<stop offset="0.42" stop-color="#5B5979"/>
<stop offset="0.61" stop-color="#333345"/>
<stop offset="0.78" stop-color="#17171F"/>
<stop offset="0.91" stop-color="#060608"/>
<stop offset="1"/>
</radialGradient>
<radialGradient id="paint30_radial_548_25696" cx="0" cy="0" r="1" gradientUnits="userSpaceOnUse" gradientTransform="translate(555.961 707.58) scale(22.2192 22.2191)">
<stop stop-color="#BA0C00"/>
<stop offset="1" stop-color="white"/>
</radialGradient>
<linearGradient id="paint31_linear_548_25696" x1="295.89" y1="455.727" x2="440.784" y2="547.305" gradientUnits="userSpaceOnUse">
<stop stop-color="#FFAA68"/>
<stop offset="0.15" stop-color="#FFB068"/>
<stop offset="0.36" stop-color="#FFC46B"/>
<stop offset="0.53" stop-color="#FFD86E"/>
<stop offset="1" stop-color="#FFF49E"/>
</linearGradient>
<linearGradient id="paint32_linear_548_25696" x1="297.765" y1="475.024" x2="442.493" y2="475.024" gradientUnits="userSpaceOnUse">
<stop stop-color="#BA0C00"/>
<stop offset="1" stop-color="white"/>
</linearGradient>
<linearGradient id="paint33_linear_548_25696" x1="596.263" y1="227.746" x2="667.442" y2="272.736" gradientUnits="userSpaceOnUse">
<stop stop-color="#FFAC4D"/>
<stop offset="0.49" stop-color="#FFC35C"/>
<stop offset="1" stop-color="#FFDA8A"/>
</linearGradient>
<linearGradient id="paint34_linear_548_25696" x1="594.942" y1="245.775" x2="662.647" y2="245.775" gradientUnits="userSpaceOnUse">
<stop stop-color="#BA0C00"/>
<stop offset="1" stop-color="white"/>
</linearGradient>
<linearGradient id="paint35_linear_548_25696" x1="550.17" y1="509.207" x2="726.655" y2="509.207" gradientUnits="userSpaceOnUse">
<stop stop-color="#BA9044"/>
<stop offset="1" stop-color="white"/>
</linearGradient>
<radialGradient id="paint36_radial_548_25696" cx="0" cy="0" r="1" gradientUnits="userSpaceOnUse" gradientTransform="translate(714.782 779.102) rotate(10.24) scale(108.56 108.56)">
<stop stop-color="#FFFB8D"/>
<stop offset="0.24" stop-color="#FFF88C"/>
<stop offset="0.36" stop-color="#FFF18A"/>
<stop offset="0.45" stop-color="#FFE386"/>
<stop offset="0.52" stop-color="#FFD180"/>
<stop offset="0.58" stop-color="#FFBD7B"/>
<stop offset="0.65" stop-color="#FFB974"/>
<stop offset="0.75" stop-color="#FFB060"/>
<stop offset="0.86" stop-color="#FFA141"/>
<stop offset="0.92" stop-color="#FF9A31"/>
<stop offset="0.99" stop-color="#FF674D"/>
</radialGradient>
<linearGradient id="paint37_linear_548_25696" x1="797.928" y1="758.647" x2="728.681" y2="805.464" gradientUnits="userSpaceOnUse">
<stop stop-color="#BA7E07"/>
<stop offset="1" stop-color="#FFE895"/>
</linearGradient>
<linearGradient id="paint38_linear_548_25696" x1="810.157" y1="797.153" x2="725.178" y2="755.816" gradientUnits="userSpaceOnUse">
<stop stop-color="#FE9943"/>
<stop offset="1" stop-color="#FFBD57"/>
</linearGradient>
<linearGradient id="paint39_linear_548_25696" x1="804.686" y1="789.999" x2="730.511" y2="765.123" gradientUnits="userSpaceOnUse">
<stop stop-color="#C96E28"/>
<stop offset="1" stop-color="#CC8A2D"/>
</linearGradient>
<linearGradient id="paint40_linear_548_25696" x1="802.85" y1="794.268" x2="729.459" y2="769.654" gradientUnits="userSpaceOnUse">
<stop stop-color="#FE973E"/>
<stop offset="1" stop-color="#FFB543"/>
</linearGradient>
<linearGradient id="paint41_linear_548_25696" x1="744.377" y1="809.608" x2="768.359" y2="738.098" gradientUnits="userSpaceOnUse">
<stop stop-color="#BA9044"/>
<stop offset="1" stop-color="white"/>
</linearGradient>
<linearGradient id="paint42_linear_548_25696" x1="424.245" y1="184.3" x2="528.394" y2="184.3" gradientUnits="userSpaceOnUse">
<stop stop-color="#BA9044"/>
<stop offset="1" stop-color="white"/>
</linearGradient>
<linearGradient id="paint43_linear_548_25696" x1="500" y1="25.2371" x2="500" y2="1048.18" gradientUnits="userSpaceOnUse">
<stop stop-color="#27A2D9"/>
<stop offset="0.19" stop-color="#1D78A1"/>
<stop offset="0.39" stop-color="#124E68"/>
<stop offset="0.59" stop-color="#0A2C3B"/>
<stop offset="0.76" stop-color="#04141A"/>
<stop offset="0.9" stop-color="#010507"/>
<stop offset="1"/>
</linearGradient>
<clipPath id="clip0_548_25696">
<rect width="1000" height="1000" fill="white"/>
</clipPath>
<clipPath id="clip1_548_25696">
<rect width="800" height="799.999" fill="white" transform="translate(100 99.9999)"/>
</clipPath>
</defs>
</svg>
