<svg width="80" height="81" viewBox="0 0 80 81" fill="none" xmlns="http://www.w3.org/2000/svg">
<rect x="2" y="2.5" width="76" height="76" rx="38" fill="white" stroke="white" stroke-width="4"/>
<path d="M40 76.5C59.8823 76.5 76 60.3822 76 40.5C76 20.6177 59.8823 4.5 40 4.5C20.1178 4.5 4 20.6177 4 40.5C4 60.3822 20.1178 76.5 40 76.5Z" fill="#A99BD4"/>
<path d="M70.2175 49.0246C70.0769 50.3592 72.5786 52.1029 72.3016 53.384C72.0203 54.6932 69.0208 55.2515 68.6059 56.4989C68.2375 57.6098 69.7703 59.4646 69.7914 60.7176C69.7988 60.8875 69.767 61.0569 69.6986 61.2126C69.537 61.5094 69.2798 61.7428 68.9687 61.875C67.855 62.4375 65.9298 62.5781 65.4053 63.4415C65.0523 64.0237 65.2717 64.9968 65.4644 65.9489C65.65 66.8657 65.8117 67.7643 65.4152 68.2748C64.8456 69.0089 63.2481 68.8373 62.0177 68.9779C61.4805 69.0412 61.0122 69.1649 60.7295 69.4504C60.5442 69.6593 60.4175 69.9135 60.3625 70.1873C54.3726 74.3085 47.2707 76.5101 40 76.5C38.474 76.5025 36.9494 76.4085 35.4353 76.2187C30.1125 75.5459 25.009 73.685 20.5023 70.7737L20.4039 70.709C20.3434 70.1887 20.2211 69.7373 19.9455 69.4574C19.5377 69.044 18.7389 68.9709 17.9022 68.9259C16.8405 68.871 15.7183 68.8654 15.2598 68.2748C14.9448 67.8698 14.9786 67.2201 15.1037 66.5099C15.2936 65.3976 15.6916 64.139 15.2697 63.4415C14.5877 62.3165 11.5403 62.4304 10.9806 61.2154C10.4209 60.0004 12.4952 57.7771 12.0733 56.5073C11.6598 55.26 8.65891 54.7017 8.37766 53.3925C8.09641 52.1085 10.6037 50.3648 10.4631 49.0331C10.3281 47.7225 7.51562 46.5468 7.51562 45.1968C7.51562 43.8468 10.3281 42.6656 10.4687 41.3676C10.6094 40.0345 8.10766 38.2893 8.38328 37.0082C8.66453 35.699 11.6641 35.1407 12.0789 33.8934C12.5008 32.6278 10.435 30.3778 10.9862 29.1853C11.5487 27.9703 14.5933 28.0856 15.2753 26.9592C15.9573 25.8328 14.4583 23.1623 15.2655 22.1259C16.0727 21.0895 19.0244 21.8812 19.9511 20.9418C20.8778 20.0025 20.0453 17.062 21.0761 16.2436C21.3222 16.0481 21.6597 15.9834 22.045 15.989C22.1491 15.989 22.2587 15.989 22.3698 16.0059C23.2459 16.0917 24.2936 16.4278 25.105 16.4194C25.1312 16.4208 25.1575 16.4208 25.1838 16.4194C25.4365 16.4219 25.6858 16.3599 25.908 16.2394C27.0442 15.5559 26.9683 12.5058 28.1861 11.977C28.3418 11.9125 28.5101 11.8846 28.6783 11.8954C29.83 11.939 31.457 13.3017 32.5834 13.2679C32.6742 13.2657 32.7644 13.2525 32.852 13.2286C34.1177 12.8714 34.8602 9.91264 36.1848 9.73123C36.2417 9.72275 36.2991 9.72089 36.3564 9.7242H36.3719C37.6277 9.80014 39.0592 12.1978 40.3403 12.1978H40.4008C41.6973 12.1219 43.143 9.68061 44.4002 9.72561H44.4297L44.4944 9.73264C44.5195 9.73596 44.5443 9.74066 44.5689 9.7467C45.8472 10.0279 46.5827 12.8798 47.8272 13.23C49.1097 13.59 51.2809 11.4525 52.4945 11.9784C53.583 12.4509 53.6364 14.9414 54.4492 15.9511C54.539 16.0661 54.6485 16.1642 54.7727 16.2408C55.1523 16.4686 55.7008 16.4531 56.3027 16.3603C57.5008 16.1803 58.9084 15.6979 59.6031 16.2478C60.6409 17.0662 59.7986 19.9983 60.7281 20.9461C61.6577 21.8939 64.5953 21.0754 65.4137 22.1301C66.2322 23.1848 64.7106 25.8201 65.4039 26.9634C66.0972 28.1067 69.1347 27.9745 69.693 29.1895C70.2498 30.375 68.1841 32.625 68.6059 33.8906C69.0208 35.1379 72.0203 35.6948 72.3016 37.0054C72.5828 38.2879 70.0769 40.0331 70.2175 41.3648C70.3581 42.6684 73.1706 43.8496 73.1706 45.194C73.1706 46.5384 70.3539 47.7225 70.2175 49.0246Z" fill="#FC4581"/>
<path d="M44.5689 9.74104C43.2906 10.0223 42.5566 12.8742 41.312 13.2243C40.0295 13.5843 37.8583 11.4468 36.6461 11.9742C35.4339 12.5015 35.5 15.5503 34.3666 16.2351C33.2331 16.9199 30.5795 15.4167 29.5361 16.2351C28.4926 17.0535 29.342 19.987 28.4111 20.9348C27.4801 21.8826 24.5439 21.0642 23.7255 22.1174C22.907 23.1707 24.4286 25.8103 23.7353 26.9521C23.042 28.094 20.0045 27.9632 19.4462 29.1782C18.888 30.3932 20.9551 32.6249 20.5319 33.8906C20.1184 35.1379 17.1203 35.6948 16.8376 37.0054C16.5564 38.2893 19.0623 40.0331 18.9217 41.3648C18.7811 42.667 15.9686 43.8496 15.9686 45.1926C15.9686 46.1474 17.3889 47.0207 18.258 47.9123C18.6137 48.2765 18.8781 48.6435 18.9175 49.0204C18.9322 49.3292 18.8591 49.6359 18.7066 49.9049C18.1314 51.0651 16.6141 52.3687 16.8334 53.3826C17.1147 54.6918 20.1142 55.2501 20.5291 56.4974C20.9509 57.763 18.8866 60.013 19.4364 61.2055C19.9862 62.398 23.0434 62.3052 23.7255 63.4316C24.4075 64.558 22.907 67.2285 23.7156 68.2649C24.5242 69.3013 27.4745 68.5096 28.4012 69.449C29.328 70.3883 28.4955 73.3274 29.5262 74.1487C30.557 74.9699 33.2233 73.4708 34.3567 74.1487C34.8967 74.4735 35.1639 75.3341 35.4255 76.2032C30.1026 75.5303 24.9991 73.6695 20.4925 70.7582C20.4348 70.2126 20.3153 69.7344 20.0284 69.4433C19.6066 69.013 18.7628 68.9498 17.8853 68.9062C16.8531 68.8541 15.7858 68.8302 15.3428 68.2593C15.0391 67.8683 15.0616 67.251 15.1741 66.5718C15.3583 65.4468 15.7844 64.1404 15.3526 63.4274C14.6692 62.3024 11.6219 62.4163 11.0636 61.2013C10.5053 59.9863 12.5781 57.763 12.1562 56.4932C11.7344 55.2459 8.74187 54.6876 8.46062 53.3784C8.17937 52.0959 10.6853 50.3507 10.5447 49.019C10.4041 47.7168 7.59155 46.5341 7.59155 45.1912C7.59155 43.8482 10.4041 42.6599 10.5447 41.3634C10.6853 40.0288 8.18358 38.2851 8.46062 37.004C8.74187 35.6934 11.7414 35.1365 12.1548 33.8892C12.5767 32.6235 10.5123 30.3735 11.0636 29.181C11.6148 27.9885 14.6692 28.0813 15.3526 26.9549C16.0361 25.8285 14.5342 23.1581 15.3428 22.1203C16.1514 21.0824 19.1017 21.877 20.0284 20.9376C20.9551 19.9982 20.1226 17.0592 21.1534 16.2379C21.4095 16.0591 21.7176 15.9701 22.0295 15.9848C22.1342 15.9826 22.2388 15.9858 22.3431 15.9946C23.2066 16.0579 24.2584 16.3954 25.0895 16.4165H25.1725C25.4545 16.4285 25.7347 16.3649 25.9839 16.2323C27.1216 15.5474 27.0456 12.5001 28.262 11.9714C28.3888 11.9173 28.525 11.8891 28.6628 11.8884C29.7878 11.8589 31.4148 13.2285 32.568 13.2609C32.6897 13.2666 32.8117 13.2533 32.9294 13.2215C34.195 12.8643 34.9375 9.90558 36.2608 9.72417L36.3409 9.71714H36.3564C37.622 9.67354 39.0606 12.1078 40.3558 12.1893H40.4162C41.6973 12.1893 43.1275 9.79167 44.3847 9.71573H44.4142C44.4668 9.71316 44.5195 9.71551 44.5717 9.72276H44.5998L44.5689 9.74104Z" fill="#DD3E78"/>
<path d="M62.7531 44.0761C62.7639 55.5452 54.1064 65.1679 42.7 66.3651C42.1375 66.4242 41.5637 66.4636 40.9872 66.4776L40.6778 66.4861C39.11 66.5122 37.544 66.3708 36.0062 66.0642C35.4887 65.9611 34.9773 65.8397 34.472 65.7C33.3994 65.4046 32.3506 65.0285 31.3347 64.575C28.2096 63.1782 25.4399 61.0945 23.2319 58.4789C19.8099 54.4596 17.9279 49.3548 17.9219 44.0761C17.9219 44.0058 17.9219 43.9355 17.9219 43.8651C17.9317 42.5995 19.5742 42.127 20.2717 43.1831C22.0998 45.9548 24.9123 47.3048 28.3492 47.9644C30.1773 48.3117 32.1756 48.4664 34.3075 48.5269C36.2242 48.5887 38.245 48.5803 40.3333 48.5803C41.3978 48.5803 42.4427 48.5803 43.4706 48.5803C44.6659 48.5803 45.8303 48.555 46.9567 48.5114C48.6258 48.4613 50.2898 48.3007 51.9377 48.0305C55.5503 47.4019 58.4964 46.0617 60.3934 43.1831C61.0966 42.1256 62.7334 42.5995 62.7433 43.8666C62.7531 43.9355 62.7531 44.0058 62.7531 44.0761Z" fill="#27273D"/>
<path d="M57.3785 58.6405C53.6601 63.0075 48.4044 65.7768 42.7001 66.3749C42.1376 66.434 41.5638 66.4733 40.9872 66.4874L40.6779 66.4958C39.1101 66.522 37.544 66.3805 36.0063 66.074C35.4888 65.9708 34.9774 65.8494 34.4721 65.7098C33.3995 65.4143 32.3507 65.0383 31.3347 64.5848C28.2097 63.188 25.44 61.1043 23.2319 58.4887C27.5379 56.3666 33.5229 55.049 40.1407 55.049C46.9272 55.0321 53.0487 56.4159 57.3785 58.6405Z" fill="#DB1B1B"/>
<path d="M64.1481 35.1084C65.4917 35.1084 66.581 34.0192 66.581 32.6756C66.581 31.332 65.4917 30.2428 64.1481 30.2428C62.8045 30.2428 61.7153 31.332 61.7153 32.6756C61.7153 34.0192 62.8045 35.1084 64.1481 35.1084Z" fill="#F96B9E"/>
<path d="M60.9011 30.5071C61.8525 30.5071 62.6238 29.7358 62.6238 28.7844C62.6238 27.833 61.8525 27.0618 60.9011 27.0618C59.9497 27.0618 59.1785 27.833 59.1785 28.7844C59.1785 29.7358 59.9497 30.5071 60.9011 30.5071Z" fill="#F96B9E"/>
<path d="M40.3053 45.1968C48.1448 45.1968 54.5 38.8417 54.5 31.0022C54.5 23.1627 48.1448 16.8075 40.3053 16.8075C32.4658 16.8075 26.1106 23.1627 26.1106 31.0022C26.1106 38.8417 32.4658 45.1968 40.3053 45.1968Z" fill="white"/>
<path d="M40.3053 40.1638C44.9318 40.1638 48.6823 36.4133 48.6823 31.7868C48.6823 27.1603 44.9318 23.4098 40.3053 23.4098C35.6787 23.4098 31.9282 27.1603 31.9282 31.7868C31.9282 36.4133 35.6787 40.1638 40.3053 40.1638Z" fill="#3586CB"/>
<path d="M40.228 38.0629C43.6942 38.0629 46.5041 35.253 46.5041 31.7868C46.5041 28.3206 43.6942 25.5107 40.228 25.5107C36.7618 25.5107 33.9519 28.3206 33.9519 31.7868C33.9519 35.253 36.7618 38.0629 40.228 38.0629Z" fill="#27273D"/>
<path d="M43.9643 29.4257C45.0454 29.4257 45.9218 28.5493 45.9218 27.4682C45.9218 26.3871 45.0454 25.5107 43.9643 25.5107C42.8832 25.5107 42.0068 26.3871 42.0068 27.4682C42.0068 28.5493 42.8832 29.4257 43.9643 29.4257Z" fill="white"/>
<path d="M40.2278 34.148C41.5318 34.148 42.5889 33.0909 42.5889 31.7869C42.5889 30.4829 41.5318 29.4258 40.2278 29.4258C38.9238 29.4258 37.8667 30.4829 37.8667 31.7869C37.8667 33.0909 38.9238 34.148 40.2278 34.148Z" fill="white"/>
<path d="M34.3146 48.531V51.089C34.3146 51.704 34.0253 52.2832 33.5336 52.6527C33.0419 53.0221 32.405 53.1388 31.8143 52.9677L29.7654 52.3729C28.9315 52.1301 28.3583 51.3655 28.3591 50.4969V47.9657C30.1816 48.3102 32.1827 48.4649 34.3146 48.531Z" fill="#F6D372"/>
<path d="M48.6585 63.4063V64.8941C46.7498 65.6572 44.7447 66.1522 42.7002 66.3651V62.8115C42.6998 62.1958 42.9895 61.6159 43.4821 61.2465C43.9746 60.8771 44.6124 60.7614 45.2033 60.9341L47.2522 61.5276C48.0863 61.7719 48.6592 62.5372 48.6585 63.4063Z" fill="#F6D372"/>
<path d="M43.4776 48.5802V51.2521C43.4948 51.8237 43.1996 52.3594 42.7072 52.6503C42.2148 52.9411 41.6032 52.9411 41.1108 52.6503C40.6184 52.3594 40.3232 51.8237 40.3403 51.2521V48.5844C41.4062 48.5844 42.4525 48.5872 43.4776 48.5802Z" fill="#F6D372"/>
<path d="M34.472 61.9312V65.6943C33.3994 65.3989 32.3506 65.0228 31.3347 64.5693V61.9312C31.3176 61.3595 31.6128 60.8238 32.1052 60.533C32.5975 60.2421 33.2092 60.2421 33.7016 60.533C34.194 60.8238 34.4892 61.3595 34.472 61.9312Z" fill="#F6D372"/>
<path d="M51.9448 48.0304V49.206C51.9448 50.0036 51.2982 50.6502 50.5006 50.6502H48.4081C47.6105 50.6502 46.9639 50.0036 46.9639 49.206V48.5156C48.6331 48.4641 50.297 48.302 51.9448 48.0304Z" fill="#F6D372"/>
<path d="M40.9844 64.8702V66.4775L40.675 66.486C39.1072 66.5121 37.5412 66.3707 36.0034 66.0641V64.8702C36.0023 64.4857 36.1545 64.1166 36.4264 63.8448C36.6983 63.5729 37.0674 63.4206 37.4519 63.4218H39.543C39.9262 63.4225 40.2935 63.5756 40.5639 63.8472C40.8342 64.1189 40.9855 64.4869 40.9844 64.8702Z" fill="#F6D372"/>
<path d="M26.1105 19.2234C25.8843 19.2226 25.6706 19.1192 25.5297 18.9421C25.4819 18.883 20.6079 12.981 14.2797 12.8179C14.013 12.8111 13.7701 12.6625 13.6425 12.4281C13.515 12.1937 13.5223 11.909 13.6615 11.6814C13.8008 11.4537 14.0509 11.3177 14.3177 11.3245C21.349 11.5059 26.4832 17.7356 26.6927 18.0013C26.9514 18.3223 26.9017 18.7921 26.5816 19.0518C26.4493 19.1621 26.2827 19.2228 26.1105 19.2234Z" fill="#AD325E"/>
<path d="M16.182 12.364C16.308 11.177 14.2721 9.98773 11.6347 9.70773C8.99726 9.42773 6.75703 10.163 6.63101 11.3501C6.50499 12.5371 8.5409 13.7264 11.1783 14.0064C13.8158 14.2864 16.056 13.5511 16.182 12.364Z" fill="#00B564"/>
<path d="M53.0108 19.2221C52.7203 19.2251 52.4544 19.0591 52.3297 18.7967C52.205 18.5343 52.2442 18.2233 52.43 18C52.6452 17.7342 57.7738 11.5045 64.805 11.3231C65.2174 11.3123 65.5605 11.6378 65.5714 12.0502C65.5823 12.4626 65.2568 12.8057 64.8444 12.8166C58.505 12.9797 53.6352 18.8817 53.5859 18.9408C53.4463 19.1163 53.2351 19.2196 53.0108 19.2221Z" fill="#AD325E"/>
<path d="M67.9413 14.0064C70.5788 13.7264 72.6147 12.5371 72.4887 11.3501C72.3626 10.163 70.1224 9.42774 67.485 9.70774C64.8475 9.98774 62.8116 11.177 62.9377 12.364C63.0637 13.5511 65.3039 14.2864 67.9413 14.0064Z" fill="#00B564"/>
</svg>
