<svg width="1000" height="1000" viewBox="0 0 1000 1000" fill="none" xmlns="http://www.w3.org/2000/svg">
<g clip-path="url(#clip0_548_25694)">
<g clip-path="url(#clip1_548_25694)">
<path style="mix-blend-mode:screen" d="M500 900C720.914 900 900 720.914 900 500C900 279.086 720.914 100 500 100C279.086 100 100 279.086 100 500C100 720.914 279.086 900 500 900Z" fill="url(#paint0_radial_548_25694)"/>
<path style="mix-blend-mode:screen" d="M500 814.161C673.507 814.161 814.161 673.506 814.161 500C814.161 326.494 673.507 185.839 500 185.839C326.494 185.839 185.84 326.494 185.84 500C185.84 673.506 326.494 814.161 500 814.161Z" fill="url(#paint1_radial_548_25694)"/>
<path style="mix-blend-mode:screen" d="M500 799.793C665.571 799.793 799.793 665.571 799.793 500C799.793 334.429 665.571 200.207 500 200.207C334.429 200.207 200.207 334.429 200.207 500C200.207 665.571 334.429 799.793 500 799.793Z" fill="url(#paint2_radial_548_25694)"/>
<path fill-rule="evenodd" clip-rule="evenodd" d="M768.151 473.296C768.151 551.864 734.828 622.611 681.523 672.189C656.021 695.946 626.004 714.798 592.872 727.381C562.895 738.786 530.424 745.006 496.44 745.006C484.374 745.006 472.452 744.202 460.808 742.697C408.347 735.815 360.657 713.993 322.006 681.571C293.916 658.052 270.628 628.926 253.903 595.93C243.39 575.191 235.473 552.947 230.575 529.619C230.528 529.571 230.528 529.476 230.528 529.38C226.76 511.277 224.729 492.521 224.729 473.296C224.729 419.656 240.284 369.656 267.1 327.517C278.505 309.605 291.893 293.206 307.017 278.496C355.989 230.894 422.77 201.577 496.44 201.577C502.382 201.577 508.219 201.768 514.065 202.142C544.935 204.125 574.395 211.238 601.545 222.69C606.308 224.673 610.975 226.792 615.594 229.054C641.988 241.924 665.929 258.936 686.668 279.293C736.955 328.544 768.159 397.26 768.159 473.288L768.151 473.296Z" fill="url(#paint3_radial_548_25694)"/>
<path style="mix-blend-mode:screen" fill-rule="evenodd" clip-rule="evenodd" d="M335.314 685.513C307.224 661.994 283.944 632.869 267.211 599.873C256.698 579.134 248.782 556.889 243.884 533.562C243.836 533.514 243.836 533.418 243.836 533.323C240.069 515.22 238.038 496.464 238.038 477.238C238.038 423.598 253.592 373.598 280.408 331.459C291.813 313.547 305.201 297.149 320.325 282.439C369.298 234.836 436.078 205.519 509.748 205.519C515.69 205.519 521.528 205.71 527.373 206.085C545.795 207.263 563.707 210.314 580.934 214.989C559.701 208.028 537.289 203.632 514.073 202.142C508.227 201.768 502.381 201.577 496.448 201.577C422.778 201.577 355.997 230.894 307.025 278.496C291.892 293.198 278.512 309.605 267.107 327.517C240.292 369.656 224.737 419.656 224.737 473.296C224.737 492.529 226.76 511.285 230.535 529.38C230.535 529.476 230.535 529.572 230.583 529.619C235.481 552.947 243.406 575.199 253.911 595.93C270.644 628.926 293.923 658.052 322.014 681.571C351.784 706.547 386.931 725.199 425.478 735.609C392.131 724.729 361.628 707.59 335.314 685.513Z" fill="url(#paint4_radial_548_25694)"/>
<path fill-rule="evenodd" clip-rule="evenodd" d="M734.972 603.433L690.411 663.539C652.103 745.038 565.212 736.206 565.212 736.206L553.855 738.898C462.09 802.787 383.347 723.582 383.347 723.582L363.157 710.043C315.73 713.882 303.393 664.447 303.393 664.447L273.169 628.146C273.169 628.146 272.993 627.971 272.595 627.572C130.814 497.842 242.769 375.844 242.769 375.844L251.999 354.508C259.741 289.989 320.19 266.526 320.19 266.526C333.148 242.091 351.219 232.861 364.121 229.42C373.638 226.84 380.408 227.413 380.408 227.413C449.403 162.432 520.524 173.447 570.365 196.209C570.421 196.209 570.477 196.209 570.477 196.265C610.68 214.678 636.947 240.714 636.947 240.714C744.083 231.65 730.838 335.808 730.838 335.808C762.385 385.592 767.426 453.783 767.426 453.783C815.085 539.415 734.964 603.417 734.964 603.417L734.972 603.433Z" fill="url(#paint5_radial_548_25694)"/>
<path style="mix-blend-mode:screen" fill-rule="evenodd" clip-rule="evenodd" d="M568.238 417.33C587.193 444.608 574.912 485.927 540.817 509.629C506.714 533.331 463.707 530.432 444.752 503.154C425.796 475.876 438.069 434.557 472.173 410.855C506.276 387.154 549.283 390.053 568.238 417.33Z" fill="url(#paint6_radial_548_25694)"/>
<path style="mix-blend-mode:screen" fill-rule="evenodd" clip-rule="evenodd" d="M696.607 348.033C708.888 365.706 700.932 392.49 678.838 407.845C656.738 423.2 628.87 421.32 616.581 403.648C604.3 385.975 612.257 359.191 634.35 343.836C656.451 328.48 684.318 330.36 696.607 348.033Z" fill="url(#paint7_radial_548_25694)"/>
<path style="mix-blend-mode:screen" fill-rule="evenodd" clip-rule="evenodd" d="M709.43 282.24C704.197 295.452 686.564 300.86 670.038 294.321C653.52 287.775 644.369 271.759 649.602 258.546C654.834 245.333 672.467 239.925 688.993 246.464C705.511 253.01 714.662 269.027 709.43 282.24Z" fill="url(#paint8_radial_548_25694)"/>
<path style="mix-blend-mode:screen" fill-rule="evenodd" clip-rule="evenodd" d="M759.39 457.67C775.223 463.938 781.698 485.067 773.861 504.858C766.024 524.65 746.83 535.616 731.005 529.341C715.172 523.073 708.697 501.943 716.534 482.152C724.371 462.361 743.565 451.394 759.39 457.67Z" fill="url(#paint9_radial_548_25694)"/>
<path style="mix-blend-mode:screen" fill-rule="evenodd" clip-rule="evenodd" d="M464.614 228.791C478.783 249.18 469.608 280.073 444.114 297.794C418.62 315.515 386.46 313.34 372.292 292.952C358.123 272.563 367.298 241.669 392.792 223.949C418.286 206.228 450.446 208.402 464.614 228.791Z" fill="url(#paint10_radial_548_25694)"/>
<path style="mix-blend-mode:screen" fill-rule="evenodd" clip-rule="evenodd" d="M421.065 400.677C435.234 421.066 426.059 451.959 400.565 469.68C375.071 487.4 342.912 485.226 328.743 464.838C314.574 444.449 323.749 413.555 349.243 395.835C374.737 378.114 406.897 380.28 421.065 400.677Z" fill="url(#paint11_radial_548_25694)"/>
<path style="mix-blend-mode:screen" fill-rule="evenodd" clip-rule="evenodd" d="M595.699 597.404C609.868 617.792 600.693 648.686 575.199 666.407C549.705 684.127 517.545 681.953 503.377 661.564C489.208 641.176 498.383 610.282 523.877 592.561C549.371 574.841 581.531 577.015 595.699 597.404Z" fill="url(#paint12_radial_548_25694)"/>
<path style="mix-blend-mode:screen" fill-rule="evenodd" clip-rule="evenodd" d="M365.737 607.295C347.053 623.654 315.331 617.983 294.871 594.632C274.419 571.273 272.977 539.081 291.661 522.722C310.346 506.363 342.068 512.034 362.528 535.385C382.98 558.745 384.422 590.937 365.737 607.303V607.295Z" fill="url(#paint13_radial_548_25694)"/>
<path style="mix-blend-mode:screen" fill-rule="evenodd" clip-rule="evenodd" d="M403.568 663.348C386.007 651.489 383.801 624.076 398.622 602.126C413.452 580.177 439.702 571.997 457.263 583.856C474.825 595.715 477.031 623.128 462.209 645.078C447.38 667.028 421.129 675.207 403.568 663.348Z" fill="url(#paint14_radial_548_25694)"/>
<path style="mix-blend-mode:screen" fill-rule="evenodd" clip-rule="evenodd" d="M337.273 480.089C319.712 468.23 317.506 440.817 332.327 418.867C347.157 396.918 373.407 388.738 390.969 400.597C408.53 412.456 410.736 439.869 395.914 461.819C381.085 483.769 354.834 491.948 337.273 480.089Z" fill="url(#paint15_radial_548_25694)"/>
<path style="mix-blend-mode:screen" fill-rule="evenodd" clip-rule="evenodd" d="M270.525 378.202C250.829 370.397 242.761 344.106 252.517 319.481C262.274 294.855 286.151 281.212 305.846 289.009C325.542 296.814 333.61 323.105 323.854 347.73C314.097 372.356 290.22 385.999 270.525 378.202Z" fill="url(#paint16_radial_548_25694)"/>
<path style="mix-blend-mode:screen" fill-rule="evenodd" clip-rule="evenodd" d="M234.907 539.073C219.066 542.641 201.505 524.594 195.675 498.75C189.845 472.905 197.961 449.06 213.802 445.492C229.643 441.916 247.204 459.971 253.034 485.816C258.864 511.66 250.748 535.505 234.907 539.073Z" fill="url(#paint17_radial_548_25694)"/>
<path style="mix-blend-mode:screen" fill-rule="evenodd" clip-rule="evenodd" d="M683.602 495.707C702.923 511.309 702.772 543.541 683.267 567.689C663.763 591.845 632.288 598.774 612.966 583.171C593.645 567.569 593.796 535.338 613.301 511.19C632.805 487.034 664.28 480.105 683.602 495.699V495.707Z" fill="url(#paint18_radial_548_25694)"/>
<path style="mix-blend-mode:multiply" opacity="0.5" fill-rule="evenodd" clip-rule="evenodd" d="M448.551 565.005C450.789 566.096 452.971 567.585 454.978 569.481C451.251 567.131 448.957 565.355 448.551 565.005Z" fill="url(#paint19_linear_548_25694)"/>
<path style="mix-blend-mode:multiply" opacity="0.5" fill-rule="evenodd" clip-rule="evenodd" d="M734.972 603.433C734.972 603.433 723.216 635.035 690.411 663.539C690.411 663.539 659.327 647.539 633.228 664.168C607.192 680.862 565.204 736.206 565.204 736.206L553.847 738.898C553.847 738.898 542.665 718.477 521.56 706.666H521.504C518.979 705.177 516.224 703.855 513.357 702.764C504.636 699.323 494.601 697.603 483.307 699.036C437.656 704.771 383.339 723.582 383.339 723.582L363.149 710.043C363.149 710.043 400.717 721.4 445.62 686.93C487.026 655.153 479.174 590.634 454.97 569.473C464.487 575.382 483.419 584.955 505.098 583.585C535.497 581.634 589.352 547.913 605.297 524.57C601.625 530.933 570.596 582.271 530.392 605.957C530.392 605.957 504.357 623.224 497.699 653.385C497.587 653.56 497.587 653.727 497.523 653.902C497.523 654.014 497.468 654.133 497.468 654.301C497.356 654.699 497.292 655.049 497.292 655.392C496.894 657.112 496.608 658.888 496.432 660.672C496.146 663.428 496.201 666.008 496.608 668.358C500.964 695.946 548.057 698.527 580.918 686.938C609.884 676.728 626.283 646.392 631.444 635.322C632.646 632.741 633.22 631.188 633.22 631.188C633.22 631.188 664.48 638.531 696.998 625.741C708.928 621.034 715.005 604.173 716.439 583.585C719.075 548.081 707.837 501.513 689.026 488.436C664.822 471.631 624.674 505.814 610.681 519.003C620.086 509.079 639.703 486.715 641.94 468.589C644.863 444.672 567.124 365.459 491.678 392.689C413.309 420.97 435.465 525.143 443.788 549.403C437.592 532.2 419.155 478.671 420.23 449.554C421.663 410.792 431.491 385.6 431.491 385.6C431.491 385.6 363.038 367.872 328.967 415.706C294.895 463.539 342.729 521.408 342.729 521.408C342.729 521.408 308.658 491.988 298.567 478.449C298.567 478.449 262.608 576.983 303.385 664.447L273.161 628.146C273.161 628.146 276.083 599.012 277.517 538.85C279.006 478.743 242.761 375.852 242.761 375.852L251.991 354.516C251.991 354.516 264.495 442.211 278.258 454.651C292.02 467.155 334.406 405.495 343.35 370.683C358.435 311.723 320.182 266.526 320.182 266.526C320.182 266.526 359.757 291.821 370.078 356.515C370.078 356.515 421.066 368.039 496.424 366.606C571.791 365.172 625.988 335.808 625.988 335.808C625.988 335.808 610.075 364.391 595.11 378.225C595.11 378.225 623.806 450.175 668.032 466.98C712.194 483.785 749.873 414.161 743.334 385.592C736.851 357.032 700.606 305.416 629.659 333.347C630.575 331.738 647.898 302.206 642.681 271.981C637.289 240.897 640.499 249.1 640.499 249.1C640.499 249.1 646.289 277.031 666.534 300.374C686.835 323.718 730.83 335.815 730.83 335.815C730.83 335.815 764.726 394.027 767.418 453.791C767.418 453.791 721.592 454.826 715.109 477.995C708.57 501.163 734.956 603.425 734.956 603.425L734.972 603.433Z" fill="url(#paint20_linear_548_25694)"/>
<path style="mix-blend-mode:multiply" opacity="0.5" fill-rule="evenodd" clip-rule="evenodd" d="M353.607 530.384C353.607 530.384 383.314 578.632 439.096 559.796C439.096 559.796 393.453 554.524 353.607 530.384Z" fill="url(#paint21_linear_548_25694)"/>
<path style="mix-blend-mode:multiply" opacity="0.5" fill-rule="evenodd" clip-rule="evenodd" d="M380.415 227.421C380.415 227.421 365.745 251.975 364.112 276.426C364.112 276.426 354.332 249.235 364.112 229.412C364.112 229.412 372.26 226.234 380.415 227.421Z" fill="url(#paint22_linear_548_25694)"/>
<path style="mix-blend-mode:multiply" opacity="0.5" fill-rule="evenodd" clip-rule="evenodd" d="M334.469 402.572C334.469 402.572 371.949 343.907 332.853 278.656C332.853 278.656 362.129 326.354 362.759 352.055C363.372 377.142 334.469 402.572 334.469 402.572Z" fill="url(#paint23_linear_548_25694)"/>
<path style="mix-blend-mode:multiply" opacity="0.5" fill-rule="evenodd" clip-rule="evenodd" d="M639.28 450C639.28 450 669.473 489.814 697.73 483.641C725.988 477.461 742.004 425.892 743.939 396.384C743.939 396.384 725.088 468.963 690.244 473.288C658.458 477.23 639.28 450 639.28 450Z" fill="url(#paint24_linear_548_25694)"/>
<path style="mix-blend-mode:multiply" opacity="0.5" fill-rule="evenodd" clip-rule="evenodd" d="M497.699 653.385C497.587 653.56 497.587 653.727 497.523 653.902C497.579 653.56 497.635 653.385 497.635 653.385H497.691H497.699Z" fill="url(#paint25_linear_548_25694)"/>
<path style="mix-blend-mode:multiply" opacity="0.5" fill-rule="evenodd" clip-rule="evenodd" d="M691.614 641.343C662.878 652.7 631.451 635.322 631.451 635.322C632.654 632.741 633.227 631.188 633.227 631.188C633.227 631.188 664.487 638.531 697.005 625.741C708.936 621.034 715.013 604.173 716.446 583.585H716.502C716.502 583.585 720.341 629.93 691.614 641.343Z" fill="url(#paint26_linear_548_25694)"/>
<path style="mix-blend-mode:multiply" opacity="0.5" fill-rule="evenodd" clip-rule="evenodd" d="M279.914 455.71C279.914 455.71 293.525 462.95 306.515 448.933C319.505 434.916 331.61 399.681 331.61 399.681C331.61 399.681 309.056 449.761 279.914 455.718V455.71Z" fill="url(#paint27_linear_548_25694)"/>
<path style="mix-blend-mode:multiply" opacity="0.5" fill-rule="evenodd" clip-rule="evenodd" d="M259.581 430.655C259.581 430.655 280.273 478.011 285.513 506.26C290.762 534.517 273.559 623.59 273.559 623.59C273.559 623.59 279.611 554.779 276.083 508.976C272.555 463.173 259.573 430.655 259.573 430.655H259.581Z" fill="url(#paint28_linear_548_25694)"/>
<path style="mix-blend-mode:screen" fill-rule="evenodd" clip-rule="evenodd" d="M205.392 523.941C205.392 523.941 227.756 479.149 256.809 454.675C256.809 454.675 259.215 412.998 237.225 391.717C237.225 391.717 190.116 431.857 205.392 523.941Z" fill="url(#paint29_linear_548_25694)"/>
<path style="mix-blend-mode:multiply" opacity="0.5" fill-rule="evenodd" clip-rule="evenodd" d="M388.022 367.163C388.022 367.163 432.837 377.78 445.118 390.849C445.118 390.849 425.621 414.511 430.408 469.21C430.408 469.21 435.839 411.899 474.96 391.701C514.081 371.504 587.974 392.848 611.341 417.689C611.341 417.689 578.377 380.527 578.918 374.403C579.46 368.278 608.195 352.047 608.195 352.047C608.195 352.047 560.776 371.894 505.097 375.311C454.97 378.393 388.014 367.163 388.014 367.163H388.022Z" fill="url(#paint30_linear_548_25694)"/>
<path style="mix-blend-mode:multiply" opacity="0.5" fill-rule="evenodd" clip-rule="evenodd" d="M471.694 583.594C471.694 583.594 490.554 613.738 487.01 633.482C481.029 666.765 455.399 688.476 435.473 697.889C415.546 707.311 371.025 715.363 371.025 715.363L377.875 720.715C377.875 720.715 432.932 701.88 461.548 696.082C490.164 690.284 547.762 705.862 557.175 738.46L565.196 736.206C565.196 736.206 574.92 714.184 594.847 691.008C614.773 667.824 639.272 650.804 639.272 650.804C639.272 650.804 621.647 659.86 596.296 682.678C570.938 705.495 573.367 714.925 540.148 707.311C506.929 699.689 482.916 681.953 481.825 672.539C480.742 663.117 494.504 626.282 510.082 610.831C525.661 595.381 551.736 576.641 551.736 576.641C551.736 576.641 522.029 601.179 501.744 600.454C481.459 599.729 471.678 583.601 471.678 583.601L471.694 583.594Z" fill="url(#paint31_linear_548_25694)"/>
<path style="mix-blend-mode:multiply" opacity="0.5" fill-rule="evenodd" clip-rule="evenodd" d="M643.397 320.803C643.397 320.803 684.995 313.882 715.634 335.816C715.634 335.816 657.885 313.3 646.296 278.656C646.296 278.656 654.946 303.417 643.397 320.803Z" fill="url(#paint32_linear_548_25694)"/>
<path style="mix-blend-mode:screen" fill-rule="evenodd" clip-rule="evenodd" d="M364.129 229.428C349.443 236.716 327.023 276.171 327.023 276.171C327.023 276.171 300.526 287.297 283.148 310.64C265.77 334.04 256.882 377.573 256.882 377.573L248.049 391.741C248.049 391.741 200.048 449.212 211.286 513.157C221.839 573.089 266.972 621.727 272.595 627.581C130.814 497.85 242.769 375.852 242.769 375.852L251.999 354.516C259.741 289.997 320.19 266.534 320.19 266.534C333.148 242.099 351.219 232.869 364.121 229.428H364.129Z" fill="url(#paint33_linear_548_25694)"/>
<path style="mix-blend-mode:screen" fill-rule="evenodd" clip-rule="evenodd" d="M570.372 196.217C463.523 149.65 367.338 258.442 367.338 258.442C369.687 247.889 380.415 227.413 380.415 227.413C449.41 162.432 520.532 173.447 570.372 196.209V196.217Z" fill="url(#paint34_linear_548_25694)"/>
<path fill-rule="evenodd" clip-rule="evenodd" d="M407.319 238.006C416.359 244.99 450.932 229.802 459.972 214.057C469.011 198.312 462.791 194.266 462.791 194.266C462.791 194.266 440.164 197.029 424.331 207.773C408.506 218.517 403.345 234.947 407.311 238.014L407.319 238.006Z" fill="#FFFFBF"/>
<path style="mix-blend-mode:screen" fill-rule="evenodd" clip-rule="evenodd" d="M540.522 349.65C540.522 349.65 569.075 348.59 599.928 317.307C625.94 290.929 627.461 248.128 627.461 248.128C627.461 248.128 643.103 283.347 624.036 317.307C604.97 351.266 540.53 349.65 540.53 349.65H540.522Z" fill="url(#paint35_linear_548_25694)"/>
<path style="mix-blend-mode:screen" fill-rule="evenodd" clip-rule="evenodd" d="M446.161 554.524C446.161 554.524 483.649 574.578 537.99 545.747C592.322 516.916 612.838 482.933 618.079 462.958C618.079 462.958 617.975 498.614 591.239 530.376C564.503 562.146 526.035 583.578 497.117 579.349C470.532 575.454 446.169 554.524 446.169 554.524H446.161Z" fill="url(#paint36_linear_548_25694)"/>
<path style="mix-blend-mode:screen" fill-rule="evenodd" clip-rule="evenodd" d="M305.767 657.789C305.767 657.789 314.671 695.452 370.094 695.532C425.518 695.612 456.46 653.385 456.46 653.385C456.46 653.385 434.749 705.312 380.026 706.993C325.311 708.681 311.565 679.571 305.767 657.781V657.789Z" fill="url(#paint37_linear_548_25694)"/>
<path style="mix-blend-mode:screen" fill-rule="evenodd" clip-rule="evenodd" d="M526.035 679.834C526.035 679.834 567.513 693.095 597.212 663.523C626.911 633.952 631.085 616.343 631.085 616.343C631.085 616.343 616.526 669.106 580.933 683.824C551.497 695.994 526.035 679.826 526.035 679.826V679.834Z" fill="url(#paint38_linear_548_25694)"/>
<path style="mix-blend-mode:screen" fill-rule="evenodd" clip-rule="evenodd" d="M648.279 626.163C648.279 626.163 666.574 627.493 688.308 596.336C710.043 565.188 707.144 538.898 707.144 538.898C707.144 538.898 720.325 591.558 700.621 613.73C680.917 635.903 648.271 626.163 648.271 626.163H648.279Z" fill="url(#paint39_linear_548_25694)"/>
<path fill-rule="evenodd" clip-rule="evenodd" d="M401.067 243.119C393.724 233.864 381.793 251.824 388.34 258.872C394.887 265.913 404.675 247.674 401.067 243.119Z" fill="#FFFFBF"/>
<path fill-rule="evenodd" clip-rule="evenodd" d="M496.44 410.64C487.52 397.889 453.655 430.798 448.55 452.23C443.445 473.662 483.418 465.897 491.685 457.829C499.952 449.761 503.01 420.03 496.44 410.64Z" fill="#FFFFBF"/>
<path fill-rule="evenodd" clip-rule="evenodd" d="M654.667 507.383C650.136 500.9 630.089 513.356 630.312 528.536C630.48 539.742 648.041 535.489 652.246 531.379C656.451 527.278 658.004 512.161 654.667 507.383Z" fill="#FFC975"/>
<path fill-rule="evenodd" clip-rule="evenodd" d="M641.581 350.661C637.05 344.178 617.003 356.634 617.226 371.814C617.394 383.02 634.955 378.767 639.16 374.658C643.365 370.556 644.918 355.44 641.581 350.661Z" fill="#FFFFBF"/>
<path fill-rule="evenodd" clip-rule="evenodd" d="M655.918 249.745C652.844 249.825 652.589 258.992 657.55 262.169C661.214 264.511 663.603 257.917 663.173 255.671C662.743 253.433 658.18 249.689 655.918 249.745Z" fill="#FFFFBF"/>
<path fill-rule="evenodd" clip-rule="evenodd" d="M287.751 309.661C284.979 306.451 274.96 314.192 275.908 322.284C276.609 328.257 285.752 325.024 287.775 322.603C289.797 320.182 289.797 312.026 287.751 309.661Z" fill="#FFFFBF"/>
<path fill-rule="evenodd" clip-rule="evenodd" d="M344.002 416.606C341.804 413.46 332.08 419.505 332.191 426.864C332.271 432.295 340.793 430.233 342.832 428.242C344.871 426.25 345.627 418.915 344.002 416.606Z" fill="#FFFFBF"/>
<path fill-rule="evenodd" clip-rule="evenodd" d="M306.197 541.773C302.039 539.073 293.318 551.019 297.014 559.788C299.746 566.255 308.976 559.669 310.426 556.284C313.58 548.917 309.255 543.764 306.189 541.773H306.197Z" fill="#FFFFBF"/>
<path fill-rule="evenodd" clip-rule="evenodd" d="M223.144 459.653C217.609 456.093 206.101 472.005 211.062 483.625C214.726 492.203 226.911 483.378 228.855 478.895C230.798 474.411 227.222 462.273 223.144 459.653Z" fill="#FFFFBF"/>
<path fill-rule="evenodd" clip-rule="evenodd" d="M525.135 626.919C522.897 623.718 512.998 629.866 513.109 637.361C513.189 642.896 521.862 640.793 523.941 638.762C526.019 636.739 526.784 629.269 525.135 626.911V626.919Z" fill="#FFC975"/>
<path fill-rule="evenodd" clip-rule="evenodd" d="M446.201 484.884C442.131 488.109 443.222 496.496 445.357 499.339C447.491 502.182 453.416 495.07 453.647 492.107C453.886 489.145 448.471 483.076 446.201 484.876V484.884Z" fill="#FFFFBF"/>
<path fill-rule="evenodd" clip-rule="evenodd" d="M428.934 716.231C424.299 713.882 417.139 718.382 415.451 721.512C413.762 724.642 419.958 727.819 425.486 726.019C430.957 724.243 431.515 717.537 428.934 716.231Z" fill="#FFA475"/>
<path fill-rule="evenodd" clip-rule="evenodd" d="M620.907 680.224C613.595 680.336 604.436 690.905 602.812 696.05C601.187 701.195 610.967 701.107 618.485 695.086C625.924 689.129 624.984 680.161 620.907 680.224Z" fill="#FF93A4"/>
<path fill-rule="evenodd" clip-rule="evenodd" d="M739.973 474.904C734.892 474.14 729.723 480.567 729.19 484.024C728.648 487.48 735.458 488.539 739.997 485.146C744.489 481.786 742.809 475.334 739.973 474.904Z" fill="#FFBBB8"/>
<path fill-rule="evenodd" clip-rule="evenodd" d="M425.43 578.13C416.176 576.736 406.754 588.452 405.774 594.744C404.787 601.035 417.195 602.971 425.47 596.79C433.657 590.674 430.591 578.91 425.43 578.13Z" fill="#FFFFBF"/>
<path style="mix-blend-mode:screen" fill-rule="evenodd" clip-rule="evenodd" d="M624.028 415.753C624.028 415.753 647.866 453.863 691.606 445.405C735.346 436.946 740.108 399.673 740.108 399.673C740.108 399.673 726.075 469.799 682.064 466.104C638.054 462.408 624.021 415.753 624.021 415.753H624.028Z" fill="url(#paint40_linear_548_25694)"/>
<path style="mix-blend-mode:screen" fill-rule="evenodd" clip-rule="evenodd" d="M356.013 519.274C356.013 519.274 385.871 535.68 401.393 522.197C416.916 508.721 409.621 464.089 409.621 464.089C409.621 464.089 427.62 535.457 416.263 545.516C405.384 555.153 356.013 519.266 356.013 519.266V519.274Z" fill="url(#paint41_linear_548_25694)"/>
<path style="mix-blend-mode:screen" fill-rule="evenodd" clip-rule="evenodd" d="M362.767 304.842C362.767 304.842 371.981 326.378 420.03 340.618C468.079 354.858 519.576 352.031 519.576 352.031C519.576 352.031 431.754 364.36 396.352 352.262C360.951 340.156 362.767 304.85 362.767 304.85V304.842Z" fill="url(#paint42_linear_548_25694)"/>
<path style="mix-blend-mode:screen" fill-rule="evenodd" clip-rule="evenodd" d="M663.221 290.801C663.221 290.801 686.859 309.422 705.336 314.192C723.813 318.963 729.157 308.92 729.157 308.92C729.157 308.92 730.185 328.154 722.181 329.134C714.176 330.113 682.773 314.415 663.221 290.801Z" fill="url(#paint43_linear_548_25694)"/>
<path style="mix-blend-mode:screen" fill-rule="evenodd" clip-rule="evenodd" d="M722.675 523.941C722.675 523.941 733.435 563.014 745.198 567.243C756.953 571.472 774.339 538.898 774.339 538.898C774.339 538.898 764.575 575.064 740.109 589.296C740.109 589.296 728.322 574.379 722.675 523.941Z" fill="url(#paint44_linear_548_25694)"/>
<path style="mix-blend-mode:screen" fill-rule="evenodd" clip-rule="evenodd" d="M428.226 747.507C428.226 747.507 456.212 760.816 489.893 759.732C523.582 758.649 548.033 738.452 548.033 738.452C548.033 738.452 543.629 724.96 532.112 717.625C532.112 717.625 532.112 735.608 513.109 746.424C494.887 756.802 452.031 755.002 428.226 747.507Z" fill="url(#paint45_linear_548_25694)"/>
<path style="mix-blend-mode:screen" fill-rule="evenodd" clip-rule="evenodd" d="M671.288 659.485C671.288 659.485 665.913 688.101 646.113 705.941C626.314 723.781 597.396 731.57 597.396 731.57C597.396 731.57 622.204 729.579 651.553 708.928C680.893 688.284 686.325 664.375 686.325 664.375L671.296 659.485H671.288Z" fill="url(#paint46_linear_548_25694)"/>
</g>
<path style="mix-blend-mode:screen" opacity="0.45" fill-rule="evenodd" clip-rule="evenodd" d="M500 0C223.922 0 0 223.769 0 500C0 776.232 223.922 1000 500 1000C776.078 1000 1000 776.079 1000 500C1000 223.922 776.231 0 500 0ZM500 980.576C234.628 980.576 19.4249 765.372 19.4249 500C19.4249 234.629 234.628 19.4249 500 19.4249C765.372 19.4249 980.575 234.629 980.575 500C980.575 765.372 765.372 980.576 500 980.576Z" fill="url(#paint47_linear_548_25694)"/>
</g>
<defs>
<radialGradient id="paint0_radial_548_25694" cx="0" cy="0" r="1" gradientUnits="userSpaceOnUse" gradientTransform="translate(500 500) scale(400)">
<stop stop-color="#FF4000"/>
<stop offset="1"/>
</radialGradient>
<radialGradient id="paint1_radial_548_25694" cx="0" cy="0" r="1" gradientUnits="userSpaceOnUse" gradientTransform="translate(500 500) scale(314.161)">
<stop stop-color="#FF7300"/>
<stop offset="1"/>
</radialGradient>
<radialGradient id="paint2_radial_548_25694" cx="0" cy="0" r="1" gradientUnits="userSpaceOnUse" gradientTransform="translate(500 500) scale(299.793)">
<stop stop-color="#FF7900"/>
<stop offset="0.18" stop-color="#FC7700"/>
<stop offset="0.32" stop-color="#F27300"/>
<stop offset="0.43" stop-color="#E26B00"/>
<stop offset="0.54" stop-color="#CC6100"/>
<stop offset="0.64" stop-color="#AF5300"/>
<stop offset="0.74" stop-color="#8B4200"/>
<stop offset="0.83" stop-color="#612E00"/>
<stop offset="0.92" stop-color="#311700"/>
<stop offset="1"/>
</radialGradient>
<radialGradient id="paint3_radial_548_25694" cx="0" cy="0" r="1" gradientUnits="userSpaceOnUse" gradientTransform="translate(397.707 378.823) scale(385.569)">
<stop stop-color="#FFCC00"/>
<stop offset="0.18" stop-color="#FEC802"/>
<stop offset="0.33" stop-color="#FBBE08"/>
<stop offset="0.48" stop-color="#F7AC12"/>
<stop offset="0.61" stop-color="#F19321"/>
<stop offset="0.74" stop-color="#EA7434"/>
<stop offset="0.82" stop-color="#E55E42"/>
<stop offset="0.84" stop-color="#E35C48"/>
<stop offset="0.88" stop-color="#DE5A5C"/>
<stop offset="0.93" stop-color="#D6557B"/>
<stop offset="0.98" stop-color="#CC4FA7"/>
<stop offset="1" stop-color="#C74CBD"/>
</radialGradient>
<radialGradient id="paint4_radial_548_25694" cx="0" cy="0" r="1" gradientUnits="userSpaceOnUse" gradientTransform="translate(297.882 288.356) scale(357.638 357.638)">
<stop stop-color="#FFFFD9"/>
<stop offset="1"/>
</radialGradient>
<radialGradient id="paint5_radial_548_25694" cx="0" cy="0" r="1" gradientUnits="userSpaceOnUse" gradientTransform="translate(385.975 369.377) scale(414.025 414.025)">
<stop stop-color="#FFCC00"/>
<stop offset="0.18" stop-color="#FEC802"/>
<stop offset="0.33" stop-color="#FBBE08"/>
<stop offset="0.48" stop-color="#F7AC12"/>
<stop offset="0.61" stop-color="#F19321"/>
<stop offset="0.74" stop-color="#EA7434"/>
<stop offset="0.82" stop-color="#E55E42"/>
<stop offset="0.84" stop-color="#E35C48"/>
<stop offset="0.88" stop-color="#DE5A5C"/>
<stop offset="0.93" stop-color="#D6557B"/>
<stop offset="0.98" stop-color="#CC4FA7"/>
<stop offset="1" stop-color="#C74CBD"/>
</radialGradient>
<radialGradient id="paint6_radial_548_25694" cx="0" cy="0" r="1" gradientUnits="userSpaceOnUse" gradientTransform="translate(501.046 457.183) rotate(-34.8) scale(75.3335 59.9962)">
<stop stop-color="#FFD400"/>
<stop offset="0.66" stop-color="#584900"/>
<stop offset="1"/>
</radialGradient>
<radialGradient id="paint7_radial_548_25694" cx="0" cy="0" r="1" gradientUnits="userSpaceOnUse" gradientTransform="translate(651.375 372.566) rotate(-34.8) scale(48.8125 38.8746)">
<stop stop-color="#FFD400"/>
<stop offset="0.66" stop-color="#584900"/>
<stop offset="1"/>
</radialGradient>
<radialGradient id="paint8_radial_548_25694" cx="0" cy="0" r="1" gradientUnits="userSpaceOnUse" gradientTransform="translate(676.456 269.944) rotate(21.61) scale(32.2402 25.6763)">
<stop stop-color="#FFD400"/>
<stop offset="0.66" stop-color="#584900"/>
<stop offset="1"/>
</radialGradient>
<radialGradient id="paint9_radial_548_25694" cx="0" cy="0" r="1" gradientUnits="userSpaceOnUse" gradientTransform="translate(734.93 494.366) rotate(-68.39) scale(38.6244 30.7607)">
<stop stop-color="#FF8600"/>
<stop offset="0.66" stop-color="#582E00"/>
<stop offset="1"/>
</radialGradient>
<radialGradient id="paint10_radial_548_25694" cx="0" cy="0" r="1" gradientUnits="userSpaceOnUse" gradientTransform="translate(413.362 258.196) rotate(-34.8) scale(56.314 44.8488)">
<stop stop-color="#FFD400"/>
<stop offset="0.66" stop-color="#584900"/>
<stop offset="1"/>
</radialGradient>
<radialGradient id="paint11_radial_548_25694" cx="0" cy="0" r="1" gradientUnits="userSpaceOnUse" gradientTransform="translate(369.448 429.994) rotate(-34.8) scale(56.314 44.8488)">
<stop stop-color="#FFD400"/>
<stop offset="0.66" stop-color="#584900"/>
<stop offset="1"/>
</radialGradient>
<radialGradient id="paint12_radial_548_25694" cx="0" cy="0" r="1" gradientUnits="userSpaceOnUse" gradientTransform="translate(543.774 626.166) rotate(-34.8) scale(56.314 44.8488)">
<stop stop-color="#FF8300"/>
<stop offset="0.66" stop-color="#582D00"/>
<stop offset="1"/>
</radialGradient>
<radialGradient id="paint13_radial_548_25694" cx="0" cy="0" r="1" gradientUnits="userSpaceOnUse" gradientTransform="translate(324.092 562.343) rotate(48.79) scale(56.3273 44.8594)">
<stop stop-color="#FF8300"/>
<stop offset="0.66" stop-color="#582D00"/>
<stop offset="1"/>
</radialGradient>
<radialGradient id="paint14_radial_548_25694" cx="0" cy="0" r="1" gradientUnits="userSpaceOnUse" gradientTransform="translate(435.128 614.456) rotate(124.04) scale(48.0544 38.2709)">
<stop stop-color="#FF8300"/>
<stop offset="0.66" stop-color="#582D00"/>
<stop offset="1"/>
</radialGradient>
<radialGradient id="paint15_radial_548_25694" cx="0" cy="0" r="1" gradientUnits="userSpaceOnUse" gradientTransform="translate(369.279 431.23) rotate(124.04) scale(48.0544 38.2709)">
<stop stop-color="#FF8300"/>
<stop offset="0.66" stop-color="#582D00"/>
<stop offset="1"/>
</radialGradient>
<radialGradient id="paint16_radial_548_25694" cx="0" cy="0" r="1" gradientUnits="userSpaceOnUse" gradientTransform="translate(290.819 323.749) rotate(111.61) scale(48.0544 38.2709)">
<stop stop-color="#FF8300"/>
<stop offset="0.66" stop-color="#582D00"/>
<stop offset="1"/>
</radialGradient>
<radialGradient id="paint17_radial_548_25694" cx="0" cy="0" r="1" gradientUnits="userSpaceOnUse" gradientTransform="translate(220.525 485.65) rotate(77.29) scale(48.0544 29.3506)">
<stop stop-color="#FF8300"/>
<stop offset="0.66" stop-color="#582D00"/>
<stop offset="1"/>
</radialGradient>
<radialGradient id="paint18_radial_548_25694" cx="0" cy="0" r="1" gradientUnits="userSpaceOnUse" gradientTransform="translate(640.275 537.4) rotate(-51.08) scale(56.3273 44.8594)">
<stop stop-color="#FF8300"/>
<stop offset="0.66" stop-color="#582D00"/>
<stop offset="1"/>
</radialGradient>
<linearGradient id="paint19_linear_548_25694" x1="448.551" y1="567.243" x2="454.97" y2="567.243" gradientUnits="userSpaceOnUse">
<stop stop-color="#CA528D"/>
<stop offset="1" stop-color="#8E7090"/>
</linearGradient>
<linearGradient id="paint20_linear_548_25694" x1="242.769" y1="493.509" x2="767.434" y2="493.509" gradientUnits="userSpaceOnUse">
<stop stop-color="#F4788D"/>
<stop offset="1" stop-color="#8E7090"/>
</linearGradient>
<linearGradient id="paint21_linear_548_25694" x1="353.607" y1="547.268" x2="439.096" y2="547.268" gradientUnits="userSpaceOnUse">
<stop stop-color="#CA528D"/>
<stop offset="1" stop-color="#8E7090"/>
</linearGradient>
<linearGradient id="paint22_linear_548_25694" x1="359.764" y1="251.792" x2="380.415" y2="251.792" gradientUnits="userSpaceOnUse">
<stop stop-color="#CA528D"/>
<stop offset="1" stop-color="#8E7090"/>
</linearGradient>
<linearGradient id="paint23_linear_548_25694" x1="332.853" y1="340.61" x2="362.767" y2="340.61" gradientUnits="userSpaceOnUse">
<stop stop-color="#CA528D"/>
<stop offset="1" stop-color="#B3757C"/>
</linearGradient>
<linearGradient id="paint24_linear_548_25694" x1="639.28" y1="440.339" x2="743.939" y2="440.339" gradientUnits="userSpaceOnUse">
<stop stop-color="#CA528D"/>
<stop offset="1" stop-color="#B3757C"/>
</linearGradient>
<linearGradient id="paint25_linear_548_25694" x1="497.531" y1="653.64" x2="497.699" y2="653.64" gradientUnits="userSpaceOnUse">
<stop stop-color="#CA528D"/>
<stop offset="1" stop-color="#B3757C"/>
</linearGradient>
<linearGradient id="paint26_linear_548_25694" x1="631.451" y1="614.391" x2="716.677" y2="614.391" gradientUnits="userSpaceOnUse">
<stop stop-color="#CA528D"/>
<stop offset="1" stop-color="#B3757C"/>
</linearGradient>
<linearGradient id="paint27_linear_548_25694" x1="279.914" y1="428.624" x2="331.61" y2="428.624" gradientUnits="userSpaceOnUse">
<stop stop-color="#CA528D"/>
<stop offset="1" stop-color="#B3757C"/>
</linearGradient>
<linearGradient id="paint28_linear_548_25694" x1="259.581" y1="527.126" x2="286.509" y2="527.126" gradientUnits="userSpaceOnUse">
<stop stop-color="#CA528D"/>
<stop offset="1" stop-color="#B3757C"/>
</linearGradient>
<linearGradient id="paint29_linear_548_25694" x1="229.619" y1="523.941" x2="229.619" y2="391.709" gradientUnits="userSpaceOnUse">
<stop/>
<stop offset="0.08" stop-color="#080402"/>
<stop offset="0.22" stop-color="#1F1208"/>
<stop offset="0.38" stop-color="#452712"/>
<stop offset="0.57" stop-color="#794521"/>
<stop offset="0.79" stop-color="#BB6B33"/>
<stop offset="0.98" stop-color="#FF9346"/>
</linearGradient>
<linearGradient id="paint30_linear_548_25694" x1="388.022" y1="410.632" x2="611.341" y2="410.632" gradientUnits="userSpaceOnUse">
<stop stop-color="#CA528D"/>
<stop offset="1" stop-color="#B3757C"/>
</linearGradient>
<linearGradient id="paint31_linear_548_25694" x1="371.025" y1="657.542" x2="639.28" y2="657.542" gradientUnits="userSpaceOnUse">
<stop stop-color="#CA528D"/>
<stop offset="1" stop-color="#B3757C"/>
</linearGradient>
<linearGradient id="paint32_linear_548_25694" x1="643.397" y1="307.232" x2="715.634" y2="307.232" gradientUnits="userSpaceOnUse">
<stop stop-color="#CA528D"/>
<stop offset="1" stop-color="#B3757C"/>
</linearGradient>
<linearGradient id="paint33_linear_548_25694" x1="200.797" y1="428.504" x2="364.129" y2="428.504" gradientUnits="userSpaceOnUse">
<stop stop-color="#514579"/>
<stop offset="0.11" stop-color="#584D7F"/>
<stop offset="0.27" stop-color="#6E648F"/>
<stop offset="0.48" stop-color="#9189AA"/>
<stop offset="0.72" stop-color="#C2BED0"/>
<stop offset="0.98" stop-color="white"/>
</linearGradient>
<linearGradient id="paint34_linear_548_25694" x1="367.338" y1="218.453" x2="570.372" y2="218.453" gradientUnits="userSpaceOnUse">
<stop stop-color="#514579"/>
<stop offset="0.11" stop-color="#584D7F"/>
<stop offset="0.27" stop-color="#6E648F"/>
<stop offset="0.48" stop-color="#9189AA"/>
<stop offset="0.72" stop-color="#C2BED0"/>
<stop offset="0.98" stop-color="white"/>
</linearGradient>
<linearGradient id="paint35_linear_548_25694" x1="540.522" y1="298.893" x2="633.49" y2="298.893" gradientUnits="userSpaceOnUse">
<stop stop-color="#FF8B4A"/>
<stop offset="1"/>
</linearGradient>
<linearGradient id="paint36_linear_548_25694" x1="446.161" y1="521.424" x2="618.071" y2="521.424" gradientUnits="userSpaceOnUse">
<stop stop-color="#FF8B4A"/>
<stop offset="1"/>
</linearGradient>
<linearGradient id="paint37_linear_548_25694" x1="305.767" y1="680.225" x2="456.452" y2="680.225" gradientUnits="userSpaceOnUse">
<stop stop-color="#FF8B4A"/>
<stop offset="1"/>
</linearGradient>
<linearGradient id="paint38_linear_548_25694" x1="526.035" y1="652.365" x2="631.077" y2="652.365" gradientUnits="userSpaceOnUse">
<stop stop-color="#FF8B4A"/>
<stop offset="1"/>
</linearGradient>
<linearGradient id="paint39_linear_548_25694" x1="648.279" y1="583.593" x2="711.468" y2="583.593" gradientUnits="userSpaceOnUse">
<stop stop-color="#FF8B4A"/>
<stop offset="1"/>
</linearGradient>
<linearGradient id="paint40_linear_548_25694" x1="624.028" y1="432.964" x2="740.108" y2="432.964" gradientUnits="userSpaceOnUse">
<stop stop-color="#FF8B4A"/>
<stop offset="1"/>
</linearGradient>
<linearGradient id="paint41_linear_548_25694" x1="388.021" y1="547.165" x2="388.021" y2="464.089" gradientUnits="userSpaceOnUse">
<stop stop-color="#FF8B4A"/>
<stop offset="1"/>
</linearGradient>
<linearGradient id="paint42_linear_548_25694" x1="441.16" y1="357.574" x2="441.16" y2="304.842" gradientUnits="userSpaceOnUse">
<stop stop-color="#FF8B4A"/>
<stop offset="1"/>
</linearGradient>
<linearGradient id="paint43_linear_548_25694" x1="663.221" y1="309.987" x2="729.197" y2="309.987" gradientUnits="userSpaceOnUse">
<stop stop-color="#FF8B4A"/>
<stop offset="1"/>
</linearGradient>
<linearGradient id="paint44_linear_548_25694" x1="722.675" y1="556.61" x2="774.339" y2="556.61" gradientUnits="userSpaceOnUse">
<stop/>
<stop offset="1" stop-color="#FF8B4A"/>
</linearGradient>
<linearGradient id="paint45_linear_548_25694" x1="428.226" y1="738.715" x2="548.041" y2="738.715" gradientUnits="userSpaceOnUse">
<stop stop-color="#FF8B4A"/>
<stop offset="1"/>
</linearGradient>
<linearGradient id="paint46_linear_548_25694" x1="597.388" y1="695.532" x2="686.317" y2="695.532" gradientUnits="userSpaceOnUse">
<stop stop-color="#FF8B4A"/>
<stop offset="1"/>
</linearGradient>
<linearGradient id="paint47_linear_548_25694" x1="500" y1="25.2371" x2="500" y2="1048.18" gradientUnits="userSpaceOnUse">
<stop stop-color="#27A2D9"/>
<stop offset="0.19" stop-color="#1D78A1"/>
<stop offset="0.39" stop-color="#124E68"/>
<stop offset="0.59" stop-color="#0A2C3B"/>
<stop offset="0.76" stop-color="#04141A"/>
<stop offset="0.9" stop-color="#010507"/>
<stop offset="1"/>
</linearGradient>
<clipPath id="clip0_548_25694">
<rect width="1000" height="1000" fill="white"/>
</clipPath>
<clipPath id="clip1_548_25694">
<rect width="800" height="800" fill="white" transform="translate(100 100)"/>
</clipPath>
</defs>
</svg>
