<svg width="1000" height="1000" viewBox="0 0 1000 1000" fill="none" xmlns="http://www.w3.org/2000/svg">
<g clip-path="url(#clip0_548_25702)">
<g clip-path="url(#clip1_548_25702)">
<path style="mix-blend-mode:screen" d="M500.004 900.008C720.92 900.008 900.008 720.92 900.008 500.004C900.008 279.088 720.92 100 500.004 100C279.088 100 100 279.088 100 500.004C100 720.92 279.088 900.008 500.004 900.008Z" fill="url(#paint0_radial_548_25702)"/>
<path style="mix-blend-mode:screen" d="M500.004 835.297C685.182 835.297 835.298 685.181 835.298 500.004C835.298 314.826 685.182 164.71 500.004 164.71C314.827 164.71 164.711 314.826 164.711 500.004C164.711 685.181 314.827 835.297 500.004 835.297Z" fill="url(#paint1_radial_548_25702)"/>
<path style="mix-blend-mode:screen" d="M500.005 803.925C667.855 803.925 803.925 667.855 803.925 500.004C803.925 332.153 667.855 196.083 500.005 196.083C332.154 196.083 196.084 332.153 196.084 500.004C196.084 667.855 332.154 803.925 500.005 803.925Z" fill="url(#paint2_radial_548_25702)"/>
<path fill-rule="evenodd" clip-rule="evenodd" d="M788.967 497.184C788.967 524.94 785.062 551.832 777.685 577.208C763.049 628.257 734.682 673.461 696.805 708.713C669.726 733.962 637.76 754.036 602.567 767.393C570.669 779.531 536.146 786.121 499.97 786.121C494.846 786.121 489.662 786.002 484.597 785.697H484.538C476.974 785.333 469.47 784.596 462.092 783.681C406.284 776.363 355.599 753.181 314.486 718.657C299.053 705.791 285.027 691.274 272.644 675.409C263.251 663.517 254.772 650.889 247.327 637.531C245.557 634.364 243.854 631.128 242.144 627.893C242.144 627.774 242.084 627.706 242.025 627.588C240.255 624.115 238.612 620.634 237.019 617.093H236.96C231.954 606.057 227.567 594.648 224.026 582.934C221.341 574.515 219.088 565.858 217.259 557.075C217.199 557.016 217.199 556.889 217.199 556.829C215.92 550.672 214.819 544.446 213.964 538.161C212.016 524.745 211.033 511.083 211.033 497.175C211.033 489.188 211.338 481.192 212.067 473.383C212.431 468.377 212.981 463.439 213.65 458.501C217.369 430.076 225.297 402.997 236.765 377.807C242.381 365.424 248.843 353.532 256.102 342.123C268.18 323.091 282.452 305.651 298.554 289.973C350.585 239.348 421.64 208.179 499.962 208.179C503.011 208.179 506.06 208.238 509.05 208.297C512.286 208.416 515.513 208.543 518.748 208.789C535.341 209.89 551.561 212.329 567.239 216.107C576.387 218.3 585.356 220.867 594.14 223.916C600.12 225.932 605.972 228.185 611.766 230.624C616.094 232.454 620.304 234.343 624.513 236.358C625.242 236.723 625.978 237.028 626.707 237.392C654.768 251.113 680.203 269.171 702.276 290.82C705.444 293.87 708.502 297.046 711.551 300.273C713.567 302.467 715.574 304.728 717.531 306.981C720.885 310.759 724.12 314.731 727.288 318.695C738.816 333.331 748.937 349.069 757.416 365.78C767.36 385.176 775.169 405.852 780.471 427.509C786.019 449.836 788.95 473.137 788.95 497.167L788.967 497.184Z" fill="url(#paint3_radial_548_25702)"/>
<path fill-rule="evenodd" clip-rule="evenodd" d="M626.707 237.425C625.758 237.527 624.801 237.629 623.852 237.823C620.591 238.425 618.042 238.128 614.832 237.222C612.528 236.57 610.868 235.621 608.42 235.215C604.913 234.664 601.652 233.156 598.146 232.708C594.436 232.208 591.226 230.751 587.719 229.497C584.958 228.498 583.51 228.845 580.85 229.497C578.19 230.2 576.336 229.099 573.981 228.091C571.321 226.939 568.67 226.736 565.858 226.186C558.54 224.678 551.273 222.323 544.006 220.468C539.491 219.316 535.332 219.316 530.725 219.266C527.116 219.215 523.855 220.265 520.247 220.265C517.842 220.265 515.783 219.867 513.378 219.511C510.922 219.062 508.415 219.562 505.958 219.215C502.299 218.664 500.343 218.114 496.633 219.266C493.88 220.172 491.72 220.07 488.967 220.214C485.91 220.367 482.454 221.163 479.447 221.866C474.035 223.119 468.114 224.119 462.558 224.017C459.153 224.017 454.139 223.069 450.878 224.221C448.769 224.974 447.719 227.227 446.27 228.735C443.467 231.64 440.002 234.249 437.648 237.51C435.293 240.771 432.634 244.125 432.837 248.233C433.04 251.79 434.692 255.949 436.242 259.21C437.843 262.666 438.393 265.825 434.836 268.129C430.372 271.085 425.214 273.795 420.098 275.244C416.693 276.243 413.635 276.845 410.772 274.388C409.722 273.482 409.07 271.729 407.766 271.034C406.41 270.331 405.004 271.034 403.556 271.483C399.948 272.533 396.441 273.736 392.782 274.338C390.529 274.685 388.573 275.888 386.37 276.294C383.711 276.794 381.805 274.837 379.052 275.489C375.19 276.396 371.336 277.997 367.321 278.2C364.467 278.352 360.859 277.099 358.445 275.642C357.039 274.837 356.691 274.041 355.082 274.49C353.778 274.786 351.821 276.396 351.118 277.395C350.17 278.75 349.814 280.504 348.865 281.91C347.866 283.46 346.909 284.967 346.011 286.619C344.359 289.829 342.403 292.836 340.294 295.69C338.786 297.698 337.736 300.4 336.084 302.255C335.229 303.254 333.374 303.957 332.272 304.711C329.266 306.82 326.106 308.717 323.201 310.979C317.585 315.392 312.275 320.253 306.558 324.514C302.195 327.775 296.08 329.681 291.117 331.73C288.008 332.984 284.798 333.882 281.69 335.186C280.69 335.584 278.835 336.042 277.98 336.787C276.879 337.736 276.277 339.497 275.269 340.793C272.559 344.105 269.705 347.408 267.655 351.22C266.401 353.422 265.647 355.683 264.851 358.089C263.75 361.35 261.997 364.357 260.887 367.609C258.634 374.428 258.177 381.542 255.678 388.31C254.221 392.274 252.121 395.882 250.317 399.49C247.208 405.606 246.759 412.873 245.853 419.64C245.353 423.604 245.548 428.161 246.251 432.024C247.005 436.182 246.802 440.494 246.751 444.754C246.7 449.268 243.846 453.673 240.983 457.086C238.374 460.246 234.419 461.448 231.513 464.252C229.057 466.657 226.101 469.419 225.051 472.824C224.602 474.331 225 476.034 224.754 477.635C224.102 481.192 223.204 484.555 222.696 488.163C222.146 492.626 222.044 496.836 222.044 501.342C222.044 503.595 221.891 505.907 221.993 508.16C222.095 510.32 222.899 512.319 223.043 514.479C223.145 515.987 222.84 517.486 223.043 518.993C223.348 520.696 223.992 522.449 224.399 524.109C225.398 528.116 226.152 532.029 226.906 536.035C227.609 539.745 229.057 543.404 230.217 547.012C231.818 551.925 232.877 556.99 233.826 562.097C234.579 565.909 234.529 569.864 235.079 573.727C235.528 576.835 236.231 579.994 236.384 583.103C236.536 587.812 235.384 592.53 235.333 597.29C235.282 605.311 238.493 613.332 240.348 621.049C240.898 623.208 241.449 625.411 242.05 627.562C222.205 588.363 211.024 544.056 211.024 497.141C211.024 440.095 227.566 386.921 256.085 342.106C268.214 323.057 282.452 305.617 298.536 289.973C350.618 239.348 421.639 208.17 499.987 208.17C506.306 208.17 512.523 208.373 518.731 208.771C557.278 211.228 593.767 221.256 626.698 237.391L626.707 237.425Z" fill="url(#paint4_linear_548_25702)"/>
<g style="mix-blend-mode:soft-light">
<path fill-rule="evenodd" clip-rule="evenodd" d="M382.017 599.984C378.01 585.441 372.971 568.196 367.686 550.824C371.904 568.001 376.723 584.568 382.017 599.984Z" fill="url(#paint5_linear_548_25702)"/>
<path fill-rule="evenodd" clip-rule="evenodd" d="M373.386 757.661C373.386 757.661 384.846 669.319 393.57 669.319C400.38 669.319 411.907 682.651 435.285 700.412L435.302 700.429C441.832 705.384 449.235 710.678 457.781 716.133C465.091 720.808 474.331 725.687 484.529 730.532C501.74 738.714 521.662 746.803 539.618 753.638C567.993 764.446 591.454 772.136 591.454 772.136L595.994 768.867C595.994 768.867 576.048 764.7 548.757 755.408C548.757 755.391 576.937 709.518 612.968 668.082C649 626.639 787.442 529.31 787.442 529.31L788.619 515.555C788.619 515.555 749.107 548.232 705.308 582.959C705.317 582.891 734.606 381.652 743.872 349.517L734.614 345.706C734.614 345.706 712.872 544.209 688.605 596.138C646.823 628.909 605.176 660.078 593.174 663.991C566.841 672.572 470.283 595.02 470.156 594.927C467.657 515.106 469.503 426.12 476.11 402.904C574.548 309.691 668.845 263.233 668.845 263.233L664.373 258.761C664.373 258.761 570.381 324.861 567.628 312.19C564.884 299.519 626.876 235.782 626.876 235.782L619.854 234.774C619.854 234.774 550.875 323.226 455.672 416.794C388.717 482.598 366.288 502.553 358.86 508.618C346.765 439.443 345.952 366.889 366.28 320.05C404.369 232.292 457.129 212.21 457.129 212.21C448.506 211.922 430.067 216.581 430.067 216.581C430.067 216.581 403.641 247.911 392.477 266.156C381.305 284.408 366.28 320.042 357.335 314.367C348.391 308.692 320.931 270.611 320.931 270.611L317.611 273.931C317.611 273.931 344.122 298.706 348.62 317.907C353.117 337.109 349.162 454.926 337.177 450.564C325.192 446.202 239.475 373.115 239.475 373.115L236.587 379.34C236.587 379.34 326.005 440.485 337.253 462.016C342.809 472.654 355.861 511.989 367.677 550.807C366.322 545.31 361.96 526.015 363.874 517.571C394.01 472.984 427.78 450.505 461.626 416.947C468.978 458.255 468.699 603.956 468.064 676.383L434.81 692.925C425.044 683.803 416.481 673.791 409.917 662.763C399.931 645.993 390.411 624.394 382.017 599.967C387.184 618.702 390.639 632.923 390.707 637.023C390.944 651.388 368.744 755.315 368.744 755.315L373.386 757.644V757.661ZM704.605 583.526C699.523 587.55 694.407 591.598 689.266 595.622L704.605 583.526ZM470.257 598.29L470.452 604.083C470.384 602.16 470.325 600.221 470.257 598.29ZM470.478 604.735C470.554 604.786 563.072 662.314 578.428 672.766C592.649 682.448 547.283 743.533 540.499 752.511C522.644 746.074 502.426 737.596 482.861 726.847C476.669 710 472.493 660.468 470.478 604.735ZM468.055 677.255V676.696C468.055 676.883 468.055 677.061 468.055 677.255ZM468.013 682.033C467.809 703.868 467.581 717.818 467.581 717.861C457.595 711.567 448.032 704.63 439.299 697.016C445.389 692.061 457.417 683.328 468.013 682.033Z" fill="url(#paint6_linear_548_25702)"/>
<path fill-rule="evenodd" clip-rule="evenodd" d="M302.043 576.7C288.762 557.066 211.448 487.485 211.448 487.485L211.372 505.857C211.372 505.857 281.402 547.258 300.409 581.604C319.407 615.95 299.401 705.774 299.401 705.774L306.897 713.27C306.897 713.27 321.38 605.295 302.035 576.691L302.043 576.7Z" fill="url(#paint7_linear_548_25702)"/>
</g>
<path style="mix-blend-mode:screen" fill-rule="evenodd" clip-rule="evenodd" d="M328.631 722.858C298.757 697.846 273.999 666.871 256.204 631.78C245.023 609.724 236.604 586.067 231.395 561.259C231.344 561.208 231.344 561.106 231.344 561.005C227.338 541.752 225.178 521.806 225.178 501.359C225.178 444.314 241.72 391.139 270.239 346.324C282.368 327.275 296.606 309.835 312.69 294.191C364.772 243.566 435.793 212.388 514.141 212.388C520.459 212.388 526.676 212.591 532.885 212.989C552.476 214.243 571.525 217.487 589.846 222.459C567.264 215.056 543.43 210.381 518.74 208.797C512.523 208.399 506.306 208.195 499.996 208.195C421.648 208.195 350.627 239.373 298.545 289.999C282.452 305.634 268.223 323.082 256.094 342.131C227.575 386.946 211.033 440.121 211.033 497.166C211.033 517.621 213.185 537.568 217.199 556.812C217.199 556.914 217.199 557.015 217.25 557.066C222.459 581.875 230.887 605.54 242.059 627.587C259.854 662.679 284.612 693.653 314.486 718.665C346.147 745.227 383.525 765.064 424.52 776.134C389.056 764.564 356.616 746.337 328.631 722.858Z" fill="url(#paint8_radial_548_25702)"/>
<path style="mix-blend-mode:screen" opacity="0.3" fill-rule="evenodd" clip-rule="evenodd" d="M436.335 215.116C436.335 215.116 460.804 477.245 468.012 499.53C475.212 521.814 540.482 562.699 567.205 567.705C593.927 572.711 661.62 597.333 679.288 596.638C696.948 595.935 773.83 589.566 773.83 589.566L784.435 548.393C784.435 548.393 641.012 437.538 590.218 336.135C539.423 234.724 540.575 210.991 540.575 210.991L518.731 208.814C518.731 208.814 573.803 314.824 589.836 366.432C605.87 418.04 674.164 468.978 704.605 498.632C735.046 528.285 726.246 580.478 689.266 577.928C652.286 575.379 525.82 582.612 494.549 487.164C480.946 445.618 468.91 405.216 459.67 336.101C450.42 266.986 436.326 215.133 436.326 215.133L436.335 215.116Z" fill="url(#paint9_radial_548_25702)"/>
<path style="mix-blend-mode:screen" opacity="0.3" fill-rule="evenodd" clip-rule="evenodd" d="M222.552 416.219C222.552 416.219 321.38 454.19 359.14 479.744C396.89 505.298 498.59 534.731 520.163 556.998C541.736 579.266 577.996 621.108 574.862 640.902C571.728 660.697 443.577 646.645 392.494 627.596C341.412 608.547 255.89 569.39 244.329 550.824C232.767 532.266 211.99 520.84 211.99 520.84L215.294 546.818C215.294 546.818 342.953 630.747 359.902 637.751C376.85 644.756 551.502 677.137 600.475 668.277C600.475 668.277 623.404 648.652 538.653 564.723C504.612 531.012 443.501 503.621 387.031 477.838C302.924 439.443 224.56 409.798 224.56 409.798L222.544 416.219H222.552Z" fill="url(#paint10_radial_548_25702)"/>
<path style="mix-blend-mode:screen" opacity="0.3" fill-rule="evenodd" clip-rule="evenodd" d="M573.439 217.673C573.439 217.673 580.097 292.54 604.66 354.193C629.214 415.837 676.35 426.289 696.949 449.057C717.539 471.824 771.552 502.13 788.975 490.043L787.459 537.661C787.459 537.661 594.335 460.686 540.584 210.982L573.439 217.682V217.673Z" fill="url(#paint11_radial_548_25702)"/>
<path style="mix-blend-mode:screen" opacity="0.3" fill-rule="evenodd" clip-rule="evenodd" d="M268.265 669.793C268.265 669.793 350.356 647.475 450.827 662.535C580.91 682.024 607.988 691.748 619.55 705.622C631.103 719.487 635.389 752.503 635.389 752.503L649.576 744.372C649.576 744.372 642.334 680.203 626.707 669.802C611.08 659.401 488.578 680.83 359.91 637.751L252.096 645.73L268.282 669.802L268.265 669.793Z" fill="url(#paint12_radial_548_25702)"/>
<path style="mix-blend-mode:screen" opacity="0.3" fill-rule="evenodd" clip-rule="evenodd" d="M652.836 591.768C647.289 576.945 566.586 557.236 553.263 567.967C542.261 576.835 614.222 660.265 631.873 662.467C649.525 664.669 658.376 606.582 652.828 591.768H652.836ZM623.403 637.743C602.601 633.821 555.135 585.271 565.621 575.395C574.311 567.213 638.819 588.498 643.435 600.543C648.059 612.587 644.205 641.665 623.403 637.743Z" fill="url(#paint13_radial_548_25702)"/>
<path fill-rule="evenodd" clip-rule="evenodd" d="M475.865 503.748C469.521 481.607 436.344 215.116 436.344 215.116L430.059 216.581C430.059 216.581 482.429 477.618 438.512 485.021C403.972 490.848 226.517 403.59 226.517 403.59L222.553 416.219C222.553 416.219 443.476 484.902 525.821 556.999C553.882 581.579 577.971 609.758 597.249 636.718C606.278 649.347 597.367 666.787 581.876 666.914C355.218 668.684 215.294 546.818 215.294 546.818L217.183 556.821C217.183 556.821 355.642 629.951 341.793 637.76C327.945 645.57 247.311 637.515 247.311 637.515L252.071 645.747C252.071 645.747 316.968 640.318 400.414 651.905C470.868 661.603 589.922 676.367 625.428 680.754C643.91 713.448 652.634 738.697 649.585 744.372L663.365 735.529C640.556 671.852 645.739 600.424 679.289 596.647C712.779 592.869 768.283 604.761 768.283 604.761L773.831 589.574C588.711 598.358 482.218 525.956 475.874 503.756L475.865 503.748ZM467.022 512.226C461.593 512.413 441.036 497.158 443.476 494.719C445.61 492.584 458.883 463.642 463.152 467.547C467.361 471.393 472.392 512.04 467.022 512.226ZM349.484 637.752C349.484 637.752 350.645 633.601 352.593 632.814C354.481 632.018 392.241 645.138 389.979 646.662C387.658 648.246 349.476 642.453 349.476 637.76L349.484 637.752ZM636.524 654.217C622.616 653.116 538.746 574.616 553.264 567.967C563.758 563.148 639.209 581.079 645.731 595.597C652.321 610.173 650.364 655.251 636.524 654.209V654.217Z" fill="url(#paint14_linear_548_25702)"/>
<path fill-rule="evenodd" clip-rule="evenodd" d="M532.885 212.998C532.885 212.998 552.832 298.867 631.679 405.597C710.526 512.328 784.427 548.385 784.427 548.385L787.442 529.31C787.442 529.31 719.708 518.392 640.251 412.941C547.368 289.669 548.097 212.21 548.097 212.21L532.885 213.007V212.998Z" fill="url(#paint15_linear_548_25702)"/>
<path style="mix-blend-mode:screen" fill-rule="evenodd" clip-rule="evenodd" d="M219.029 469.664C222.925 528.497 356.217 432.422 484.877 389.335C635.931 338.752 749.615 446.651 766.343 440.646C792.541 431.236 686.395 216.454 514.53 220.223C320.906 224.466 212.735 374.707 219.029 469.673V469.664Z" fill="url(#paint16_linear_548_25702)"/>
<path fill-rule="evenodd" clip-rule="evenodd" d="M242.364 420.988C242.135 432.015 269.197 422.029 294.505 389.64C319.814 357.251 338.405 283.663 330.342 275.278C322.287 266.893 243.956 344.622 242.355 420.988H242.364Z" fill="white"/>
<path fill-rule="evenodd" clip-rule="evenodd" d="M240.822 436.809C227.863 436.606 223.238 460.982 229.082 473.035C234.927 485.088 246.048 482.191 251.011 460.999C254.069 447.947 251.519 436.978 240.822 436.809Z" fill="white"/>
<path style="mix-blend-mode:screen" d="M695.399 767.302C769.944 724.263 809.861 653.843 784.556 610.014C759.251 566.184 678.307 565.543 603.762 608.582C529.217 651.621 489.3 722.041 514.605 765.87C539.909 809.699 620.854 810.34 695.399 767.302Z" fill="url(#paint17_radial_548_25702)"/>
<path style="mix-blend-mode:screen" fill-rule="evenodd" clip-rule="evenodd" d="M367.051 741.365C367.051 741.365 504.197 789.136 635.169 716.709C766.149 644.282 787.722 480.913 787.722 480.913C787.722 480.913 771.646 673.038 645.189 734.352C518.723 795.658 424.062 776.812 367.051 741.365Z" fill="url(#paint18_radial_548_25702)"/>
<path style="mix-blend-mode:screen" d="M386.971 438.062C462.052 385.88 495.794 304.554 462.337 256.416C428.88 208.278 340.894 211.557 265.813 263.739C190.733 315.921 156.99 397.247 190.447 445.385C223.904 493.523 311.891 490.245 386.971 438.062Z" fill="url(#paint19_radial_548_25702)"/>
</g>
<path style="mix-blend-mode:screen" opacity="0.45" fill-rule="evenodd" clip-rule="evenodd" d="M500 0C223.922 0 0 223.769 0 500C0 776.232 223.922 1000 500 1000C776.078 1000 1000 776.079 1000 500C1000 223.922 776.231 0 500 0ZM500 980.576C234.628 980.576 19.4249 765.372 19.4249 500C19.4249 234.629 234.628 19.4249 500 19.4249C765.372 19.4249 980.575 234.629 980.575 500C980.575 765.372 765.372 980.576 500 980.576Z" fill="url(#paint20_linear_548_25702)"/>
</g>
<defs>
<radialGradient id="paint0_radial_548_25702" cx="0" cy="0" r="1" gradientUnits="userSpaceOnUse" gradientTransform="translate(500.004 500.004) scale(400.004 400.004)">
<stop stop-color="#FF3600"/>
<stop offset="1"/>
</radialGradient>
<radialGradient id="paint1_radial_548_25702" cx="0" cy="0" r="1" gradientUnits="userSpaceOnUse" gradientTransform="translate(500.004 500.004) scale(335.293 335.293)">
<stop stop-color="#FF7300"/>
<stop offset="1"/>
</radialGradient>
<radialGradient id="paint2_radial_548_25702" cx="0" cy="0" r="1" gradientUnits="userSpaceOnUse" gradientTransform="translate(500.005 500.004) scale(303.921)">
<stop stop-color="#FF7900"/>
<stop offset="0.18" stop-color="#FC7700"/>
<stop offset="0.32" stop-color="#F27300"/>
<stop offset="0.43" stop-color="#E26B00"/>
<stop offset="0.54" stop-color="#CC6100"/>
<stop offset="0.64" stop-color="#AF5300"/>
<stop offset="0.74" stop-color="#8B4200"/>
<stop offset="0.83" stop-color="#612E00"/>
<stop offset="0.92" stop-color="#311700"/>
<stop offset="1"/>
</radialGradient>
<radialGradient id="paint3_radial_548_25702" cx="0" cy="0" r="1" gradientUnits="userSpaceOnUse" gradientTransform="translate(321.033 362.019) scale(510.766 510.766)">
<stop stop-color="#FF7263"/>
<stop offset="0.21" stop-color="#FC6E62"/>
<stop offset="0.37" stop-color="#F36561"/>
<stop offset="0.51" stop-color="#E4545F"/>
<stop offset="0.64" stop-color="#D03D5D"/>
<stop offset="0.77" stop-color="#B51F5A"/>
<stop offset="0.88" stop-color="#9A0057"/>
<stop offset="0.99" stop-color="#9A00AE"/>
</radialGradient>
<linearGradient id="paint4_linear_548_25702" x1="211.024" y1="417.896" x2="626.707" y2="417.896" gradientUnits="userSpaceOnUse">
<stop offset="0.01" stop-color="#FF9D85"/>
<stop offset="0.29" stop-color="#FF9A83"/>
<stop offset="0.49" stop-color="#FF907F"/>
<stop offset="0.67" stop-color="#FF8078"/>
<stop offset="0.84" stop-color="#FF6A6E"/>
<stop offset="1" stop-color="#FF4D61"/>
</linearGradient>
<linearGradient id="paint5_linear_548_25702" x1="383.518" y1="566.719" x2="366.101" y2="584.136" gradientUnits="userSpaceOnUse">
<stop offset="0.01" stop-color="#FF9D85"/>
<stop offset="0.29" stop-color="#FF9A83"/>
<stop offset="0.49" stop-color="#FF907F"/>
<stop offset="0.67" stop-color="#FF8078"/>
<stop offset="0.84" stop-color="#FF6A6E"/>
<stop offset="1" stop-color="#FF4D61"/>
</linearGradient>
<linearGradient id="paint6_linear_548_25702" x1="691.878" y1="286.329" x2="295.782" y2="682.425" gradientUnits="userSpaceOnUse">
<stop offset="0.01" stop-color="#FF9D85"/>
<stop offset="0.29" stop-color="#FF9A83"/>
<stop offset="0.49" stop-color="#FF907F"/>
<stop offset="0.67" stop-color="#FF8078"/>
<stop offset="0.84" stop-color="#FF6A6E"/>
<stop offset="1" stop-color="#FF4D61"/>
</linearGradient>
<linearGradient id="paint7_linear_548_25702" x1="293.662" y1="565.875" x2="226.548" y2="632.99" gradientUnits="userSpaceOnUse">
<stop offset="0.01" stop-color="#FF9D85"/>
<stop offset="0.29" stop-color="#FF9A83"/>
<stop offset="0.49" stop-color="#FF907F"/>
<stop offset="0.67" stop-color="#FF8078"/>
<stop offset="0.84" stop-color="#FF6A6E"/>
<stop offset="1" stop-color="#FF4D61"/>
</linearGradient>
<radialGradient id="paint8_radial_548_25702" cx="0" cy="0" r="1" gradientUnits="userSpaceOnUse" gradientTransform="translate(288.822 300.484) scale(380.345 380.345)">
<stop stop-color="#FFFF4A"/>
<stop offset="1"/>
</radialGradient>
<radialGradient id="paint9_radial_548_25702" cx="0" cy="0" r="1" gradientUnits="userSpaceOnUse" gradientTransform="translate(628.104 501.351) scale(209.107 209.107)">
<stop stop-color="white"/>
<stop offset="1" stop-color="#623964"/>
</radialGradient>
<radialGradient id="paint10_radial_548_25702" cx="0" cy="0" r="1" gradientUnits="userSpaceOnUse" gradientTransform="translate(508.466 620.549) scale(213.563 213.563)">
<stop stop-color="white"/>
<stop offset="1" stop-color="#623964"/>
</radialGradient>
<radialGradient id="paint11_radial_548_25702" cx="0" cy="0" r="1" gradientUnits="userSpaceOnUse" gradientTransform="translate(677.417 457.383) scale(156.958 156.958)">
<stop stop-color="white"/>
<stop offset="1" stop-color="#623964"/>
</radialGradient>
<radialGradient id="paint12_radial_548_25702" cx="0" cy="0" r="1" gradientUnits="userSpaceOnUse" gradientTransform="translate(471.071 724.306) scale(206.405 206.405)">
<stop stop-color="white"/>
<stop offset="1" stop-color="#623964"/>
</radialGradient>
<radialGradient id="paint13_radial_548_25702" cx="0" cy="0" r="1" gradientUnits="userSpaceOnUse" gradientTransform="translate(629.671 644.036) scale(61.831 61.831)">
<stop stop-color="white"/>
<stop offset="1" stop-color="#623964"/>
</radialGradient>
<linearGradient id="paint14_linear_548_25702" x1="215.294" y1="479.744" x2="773.823" y2="479.744" gradientUnits="userSpaceOnUse">
<stop offset="0.01" stop-color="#FFBB85"/>
<stop offset="0.21" stop-color="#FDB886"/>
<stop offset="0.36" stop-color="#F8AE8C"/>
<stop offset="0.49" stop-color="#F09E95"/>
<stop offset="0.61" stop-color="#E588A1"/>
<stop offset="0.72" stop-color="#D66BB2"/>
<stop offset="0.83" stop-color="#C447C6"/>
<stop offset="0.94" stop-color="#AF1DDE"/>
<stop offset="1" stop-color="#A100EF"/>
</linearGradient>
<linearGradient id="paint15_linear_548_25702" x1="532.885" y1="380.298" x2="787.451" y2="380.298" gradientUnits="userSpaceOnUse">
<stop offset="0.01" stop-color="#FF9D85"/>
<stop offset="0.23" stop-color="#FD9A86"/>
<stop offset="0.38" stop-color="#F7908D"/>
<stop offset="0.52" stop-color="#EE8098"/>
<stop offset="0.65" stop-color="#E06AA7"/>
<stop offset="0.77" stop-color="#CF4DBA"/>
<stop offset="0.89" stop-color="#BA29D2"/>
<stop offset="1" stop-color="#A100EF"/>
</linearGradient>
<linearGradient id="paint16_linear_548_25702" x1="331.052" y1="267.063" x2="654.869" y2="562.429" gradientUnits="userSpaceOnUse">
<stop offset="0.02" stop-color="#FF9346"/>
<stop offset="0.21" stop-color="#BB6B33"/>
<stop offset="0.43" stop-color="#794521"/>
<stop offset="0.62" stop-color="#452712"/>
<stop offset="0.78" stop-color="#1F1208"/>
<stop offset="0.92" stop-color="#080402"/>
<stop offset="1"/>
</linearGradient>
<radialGradient id="paint17_radial_548_25702" cx="0" cy="0" r="1" gradientUnits="userSpaceOnUse" gradientTransform="translate(645.6 698.407) rotate(60) scale(92.2271 156.507)">
<stop stop-color="#0092FF"/>
<stop offset="0.07" stop-color="#0085E8"/>
<stop offset="0.27" stop-color="#005DA2"/>
<stop offset="0.46" stop-color="#003C68"/>
<stop offset="0.63" stop-color="#00223B"/>
<stop offset="0.78" stop-color="#000F1B"/>
<stop offset="0.91" stop-color="#000407"/>
<stop offset="1"/>
</radialGradient>
<radialGradient id="paint18_radial_548_25702" cx="0" cy="0" r="1" gradientUnits="userSpaceOnUse" gradientTransform="translate(631.323 719.394) scale(182.274 182.274)">
<stop stop-color="#5E5ED9"/>
<stop offset="1"/>
</radialGradient>
<radialGradient id="paint19_radial_548_25702" cx="0" cy="0" r="1" gradientUnits="userSpaceOnUse" gradientTransform="translate(328.617 347.913) rotate(-34.8) scale(165.863 106.272)">
<stop stop-color="#FFBB00"/>
<stop offset="0.17" stop-color="#C49000"/>
<stop offset="0.4" stop-color="#7F5D00"/>
<stop offset="0.6" stop-color="#483500"/>
<stop offset="0.78" stop-color="#211800"/>
<stop offset="0.92" stop-color="#080600"/>
<stop offset="1"/>
</radialGradient>
<linearGradient id="paint20_linear_548_25702" x1="500" y1="25.2371" x2="500" y2="1048.18" gradientUnits="userSpaceOnUse">
<stop stop-color="#27A2D9"/>
<stop offset="0.19" stop-color="#1D78A1"/>
<stop offset="0.39" stop-color="#124E68"/>
<stop offset="0.59" stop-color="#0A2C3B"/>
<stop offset="0.76" stop-color="#04141A"/>
<stop offset="0.9" stop-color="#010507"/>
<stop offset="1"/>
</linearGradient>
<clipPath id="clip0_548_25702">
<rect width="1000" height="1000" fill="white"/>
</clipPath>
<clipPath id="clip1_548_25702">
<rect width="800" height="800" fill="white" transform="translate(100 100)"/>
</clipPath>
</defs>
</svg>
