<svg width="1000" height="1000" viewBox="0 0 1000 1000" fill="none" xmlns="http://www.w3.org/2000/svg">
<g clip-path="url(#clip0_548_25490)">
<g clip-path="url(#clip1_548_25490)">
<path style="mix-blend-mode:screen" d="M782.845 782.843C939.055 626.634 939.055 373.368 782.845 217.159C626.636 60.9498 373.37 60.9498 217.16 217.159C60.9504 373.368 60.9504 626.634 217.16 782.843C373.37 939.052 626.636 939.052 782.845 782.843Z" fill="url(#paint0_radial_548_25490)"/>
<path style="mix-blend-mode:screen" d="M860.982 565.219C884.414 380.515 753.676 211.787 568.971 188.355C384.266 164.923 215.538 295.66 192.106 480.365C168.674 665.069 299.412 833.797 484.117 857.229C668.822 880.661 837.55 749.923 860.982 565.219Z" fill="url(#paint1_radial_548_25490)"/>
<path style="mix-blend-mode:screen" d="M496.416 815.871C674.101 815.871 818.142 671.83 818.142 494.146C818.142 316.462 674.101 172.421 496.416 172.421C318.732 172.421 174.69 316.462 174.69 494.146C174.69 671.83 318.732 815.871 496.416 815.871Z" fill="url(#paint2_radial_548_25490)"/>
<path fill-rule="evenodd" clip-rule="evenodd" d="M805.828 568.18L803.557 576.406C803.507 576.81 803.356 577.113 803.255 577.567C796.997 598.965 788.569 619.505 778.273 638.833C761.418 670.274 739.565 698.586 713.626 722.709C683.497 750.768 647.968 773.075 608.755 787.962C573.328 801.437 534.872 808.755 494.65 808.755C488.998 808.755 483.194 808.603 477.542 808.3H477.491C469.063 807.846 460.736 807.089 452.51 806.08C398.511 799.015 348.7 778.525 306.611 747.993C302.674 745.116 298.788 742.189 295.003 739.212C302.422 732.853 318.016 732.197 318.016 732.197L296.265 714.937L241.761 685.616C231.314 672.444 221.877 658.314 213.6 643.476C211.632 639.994 209.714 636.411 207.847 632.777C207.847 632.626 207.696 632.576 207.645 632.475C205.728 628.589 203.86 624.703 202.094 620.817H202.043C196.492 608.503 191.597 595.836 187.66 582.815C184.733 573.429 182.16 563.84 180.141 553.999C180.09 553.948 180.09 553.797 180.09 553.747C178.677 546.934 177.466 539.969 176.507 532.954C174.337 518.016 173.277 502.876 173.277 487.383C173.277 483.8 173.328 480.166 173.479 476.684C173.58 471.385 173.933 466.086 174.438 460.938C174.842 455.791 175.397 450.593 176.053 445.496C176.053 445.092 176.103 444.789 176.204 444.335C177.163 437.219 178.324 430.255 179.788 423.29C181.756 413.298 184.229 403.406 187.257 393.767C191.294 380.242 196.189 367.171 201.993 354.555C207.544 342.291 213.853 330.482 220.918 319.026C242.871 307.419 256.85 301.363 256.85 301.363C256.85 301.363 631.062 227.076 636.866 220.717C642.619 214.409 670.981 218.345 670.981 218.345C688.493 229.902 704.895 243.074 719.883 257.76C723.366 261.141 726.747 264.724 730.229 268.257C732.45 270.679 734.67 273.253 736.84 275.726C740.524 279.914 744.158 284.355 747.691 288.746C760.509 305.047 771.763 322.609 781.201 341.13C784.885 348.246 788.266 355.614 791.395 363.083C791.395 363.134 791.445 363.235 791.445 363.285C820.312 476.23 784.683 572.066 784.683 572.066C792.606 569.391 799.772 568.382 805.98 568.18H805.828Z" fill="url(#paint3_radial_548_25490)"/>
<path fill-rule="evenodd" clip-rule="evenodd" d="M805.828 568.18L803.557 576.406C803.507 576.81 803.356 577.113 803.255 577.567C796.997 598.965 788.569 619.505 778.273 638.833C761.418 670.274 739.565 698.586 713.626 722.709C683.497 750.768 647.968 773.075 608.755 787.962C573.328 801.437 534.872 808.755 494.65 808.755C488.998 808.755 483.194 808.603 477.542 808.3H477.491C469.063 807.846 460.736 807.089 452.51 806.08C398.511 799.015 348.7 778.525 306.611 747.993C302.674 745.116 298.788 742.189 295.003 739.212C302.422 732.853 318.016 732.197 318.016 732.197L296.265 714.937L241.761 685.616C231.314 672.444 221.877 658.314 213.6 643.476C211.632 639.994 209.714 636.411 207.847 632.777C207.847 632.626 207.696 632.576 207.645 632.475C205.728 628.589 203.86 624.703 202.094 620.817H202.043C196.492 608.503 191.597 595.836 187.66 582.815C184.733 573.429 182.16 563.84 180.141 553.999C180.09 553.948 180.09 553.797 180.09 553.747C178.677 546.934 177.466 539.969 176.507 532.954C174.337 518.016 173.277 502.876 173.277 487.383C173.277 483.8 173.328 480.166 173.479 476.684C173.58 471.385 173.933 466.086 174.438 460.938C174.842 455.791 175.397 450.593 176.053 445.496C176.053 445.092 176.103 444.789 176.204 444.335C177.163 437.219 178.324 430.255 179.788 423.29C181.756 413.298 184.229 403.406 187.257 393.767C191.294 380.242 196.189 367.171 201.993 354.555C207.544 342.291 213.853 330.482 220.918 319.026C242.871 307.419 256.85 301.363 256.85 301.363C256.85 301.363 631.062 227.076 636.866 220.717C642.619 214.409 670.981 218.345 670.981 218.345C688.493 229.902 704.895 243.074 719.883 257.76C723.366 261.141 726.747 264.724 730.229 268.257C732.45 270.679 734.67 273.253 736.84 275.726C740.524 279.914 744.158 284.355 747.691 288.746C760.509 305.047 771.763 322.609 781.201 341.13C784.885 348.246 788.266 355.614 791.395 363.083C791.395 363.134 791.445 363.235 791.445 363.285C820.312 476.23 784.683 572.066 784.683 572.066C792.606 569.391 799.772 568.382 805.98 568.18H805.828Z" fill="url(#paint4_radial_548_25490)"/>
<path fill-rule="evenodd" clip-rule="evenodd" d="M796.643 487.333C796.643 498.738 795.987 509.942 794.726 520.994C792.858 538.153 789.578 554.857 784.834 570.956C784.784 571.36 784.632 571.663 784.531 572.016C778.677 592.152 770.754 611.43 761.064 629.598C745.268 659.121 724.678 685.717 700.302 708.377C671.99 734.771 638.581 755.765 601.791 769.694C568.432 782.361 532.349 789.275 494.549 789.275C489.2 789.275 483.8 789.123 478.501 788.821H478.45C470.527 788.417 462.704 787.66 454.983 786.701C404.213 780.09 357.532 760.812 317.915 732.147C312.011 727.958 306.257 723.416 300.706 718.773C299.192 717.511 297.628 716.199 296.164 714.887C281.831 702.472 268.71 688.543 256.951 673.555C247.11 661.14 238.279 647.918 230.507 633.989C228.639 630.658 226.873 627.277 225.107 623.896C225.107 623.744 225.056 623.694 224.955 623.593C223.088 619.959 221.372 616.326 219.707 612.642H219.656C214.408 601.085 209.815 589.174 206.131 576.962C203.305 568.18 200.984 559.096 199.066 549.911C199.015 549.861 199.015 549.71 199.015 549.659C197.653 543.199 196.543 536.74 195.634 530.129C193.615 516.099 192.556 501.817 192.556 487.282C192.556 483.901 192.606 480.52 192.758 477.189C192.909 472.193 193.212 467.247 193.666 462.402C194.07 457.557 194.574 452.713 195.18 447.918C195.18 447.515 195.23 447.212 195.331 446.858C196.24 440.146 197.3 433.586 198.662 427.076C200.529 417.638 202.851 408.403 205.677 399.369C209.462 386.702 214.105 374.388 219.505 362.529C225.359 349.609 232.122 337.144 239.692 325.234C244.94 316.957 250.593 308.984 256.649 301.313C265.076 290.462 274.261 280.268 284.052 270.73C338.405 217.841 412.692 185.239 494.549 185.239C497.728 185.239 500.908 185.29 504.037 185.391C507.418 185.542 510.799 185.643 514.181 185.895C523.568 186.551 532.853 187.561 541.988 189.024C542.139 189.024 542.19 189.075 542.291 189.075C549.962 190.235 557.481 191.749 564.849 193.516C574.388 195.787 583.774 198.512 592.959 201.691C599.217 203.811 605.324 206.132 611.38 208.706C615.922 210.624 620.312 212.592 624.703 214.712C625.46 215.116 626.217 215.418 626.974 215.772C656.295 230.104 682.891 248.979 705.955 271.638C709.285 274.818 712.465 278.148 715.644 281.53C717.764 283.801 719.833 286.173 721.902 288.545C725.384 292.481 728.766 296.619 732.096 300.808C744.158 316.099 754.706 332.551 763.588 350.013C773.984 370.301 782.159 391.9 787.66 414.509C791.243 428.791 793.716 443.477 795.129 458.415C796.088 467.903 796.543 477.542 796.543 487.282L796.643 487.333Z" fill="url(#paint5_radial_548_25490)"/>
<path style="mix-blend-mode:screen" fill-rule="evenodd" clip-rule="evenodd" d="M347.136 366.97C347.136 366.97 339.112 384.784 345.773 402.851C352.435 420.918 371.158 408.907 393.515 402.851C415.872 396.795 438.834 373.278 453.318 358.743C467.802 344.209 481.681 324.275 480.52 304.946C479.309 285.617 458.92 272.95 458.92 272.95C458.92 272.95 466.339 263.513 460.131 301.363C453.924 339.213 445.395 352.738 437.32 358.743C429.246 364.749 404.567 379.132 391.093 387.156C377.618 395.18 362.629 403.558 353.697 401.59C344.764 399.621 340.071 379.637 347.136 366.97Z" fill="url(#paint6_radial_548_25490)"/>
<path style="mix-blend-mode:screen" fill-rule="evenodd" clip-rule="evenodd" d="M388.064 353.899C388.064 353.899 376.609 364.042 379.637 372.269C382.665 380.444 404.416 375.196 418.294 357.583C432.172 339.97 421.221 325.738 421.221 325.738C421.221 325.738 416.124 355.11 402.599 360.308C389.074 365.456 384.683 363.285 384.683 363.285C384.683 363.285 382.564 360.914 388.064 353.899Z" fill="url(#paint7_radial_548_25490)"/>
<path style="mix-blend-mode:screen" fill-rule="evenodd" clip-rule="evenodd" d="M353.444 366.614C353.444 366.614 364.597 353.997 377.265 342.188C389.932 330.379 411.885 325.787 411.885 325.787C411.885 325.787 399.066 319.024 382.665 328.562C366.263 338.1 353.444 366.614 353.444 366.614Z" fill="url(#paint8_radial_548_25490)"/>
<path style="mix-blend-mode:screen" fill-rule="evenodd" clip-rule="evenodd" d="M307.924 366.82C307.924 366.82 333.763 338.105 365.153 325.791C396.544 313.427 407.444 309.793 421.323 298.337C435.201 286.881 450.896 277.696 450.896 277.696C450.896 277.696 420.313 279.261 373.632 308.834C326.95 338.408 307.823 357.232 307.974 366.82H307.924Z" fill="url(#paint9_radial_548_25490)"/>
<path style="mix-blend-mode:screen" fill-rule="evenodd" clip-rule="evenodd" d="M244.94 361.116C244.94 361.116 289.654 316.453 324.678 298.941C359.702 281.429 383.27 269.973 414.66 262.1C446.051 254.227 494.6 240.551 494.6 240.551L503.381 236.16C503.381 236.16 403.507 238.179 337.951 277.694C272.394 317.21 244.94 361.166 244.94 361.166V361.116Z" fill="url(#paint10_radial_548_25490)"/>
<path style="mix-blend-mode:screen" fill-rule="evenodd" clip-rule="evenodd" d="M298.536 412.642C298.536 412.642 306.005 474.363 316.704 477.139C327.454 479.915 365.909 479.612 423.088 450.391C480.267 421.121 491.875 427.883 523.972 395.332C556.018 362.731 568.988 325.789 578.93 301.414C588.872 277.038 591.748 249.231 588.67 240.602C588.67 240.602 599.47 247.061 599.47 271.184C599.47 295.307 592.203 335.933 581.958 359.4C571.713 382.867 545.117 419.708 513.121 437.876C481.125 455.993 417.083 490.765 354.302 490.311C291.471 489.806 301.413 485.264 294.953 472.748C288.493 460.232 298.587 412.693 298.587 412.693L298.536 412.642Z" fill="url(#paint11_radial_548_25490)"/>
<g style="mix-blend-mode:multiply" opacity="0.5">
<path fill-rule="evenodd" clip-rule="evenodd" d="M200.631 465.328C200.631 465.328 211.834 490.208 218.143 512.969C224.451 535.729 223.24 574.336 249.18 580.392C275.17 586.448 311.406 603.354 325.284 599.115C339.162 594.876 390.487 585.691 418.9 591.242C447.313 596.794 499.243 593.665 517.361 584.581C535.478 575.497 574.489 552.282 593.01 545.166C611.532 538.051 637.169 517.864 659.223 495.457C681.277 473.049 680.974 447.463 686.424 434.796C691.875 422.129 702.725 371.359 701.514 348.447C700.303 325.485 686.424 282.639 686.424 282.639L673.505 269.013C673.505 269.013 689.452 327.958 682.185 369.643C674.918 411.329 681.58 428.235 652.612 468.104C623.644 507.972 583.169 539.363 537.85 554.452C492.531 569.542 463.512 567.725 416.477 572.116C372.571 576.203 317.916 573.074 296.165 567.422C276.634 562.325 250.391 549.254 230.457 517.46C210.522 485.666 200.631 465.429 200.631 465.429V465.328Z" fill="#7D72B3"/>
</g>
<g style="mix-blend-mode:multiply" opacity="0.4">
<path fill-rule="evenodd" clip-rule="evenodd" d="M300.555 400.078C300.555 400.078 304.693 467.098 313.222 472.851C321.751 478.605 339.818 481.027 356.725 475.274C373.631 469.521 431.617 450.495 441.559 444.489C451.501 438.433 512.566 407.951 524.577 398.867C536.588 389.783 552.687 357.586 558.087 350.873C563.538 344.161 578.324 304.343 582.564 289.203C586.803 274.114 589.831 255.996 589.831 255.996C589.831 255.996 591.042 247.518 583.775 244.843C576.508 242.118 575.347 244.843 575.347 244.843C575.347 244.843 573.833 254.785 567.474 283.5C561.115 312.166 475.675 410.626 432.475 436.314C389.276 462.001 348.246 462.91 333.409 461.093C318.622 459.276 300.202 411.585 300.505 400.078H300.555Z" fill="#7D72B3"/>
</g>
<g style="mix-blend-mode:multiply" opacity="0.4">
<path fill-rule="evenodd" clip-rule="evenodd" d="M298.537 412.642C298.537 412.642 300.303 370.906 311.103 356.927C321.852 342.948 358.037 314.03 379.435 303.18C400.833 292.33 431.971 276.887 442.771 274.616C453.621 272.345 461.242 274.616 461.242 274.616C461.242 274.616 448.221 267.551 418.295 275.121C388.418 282.691 354.555 310.447 338.254 319.077C321.953 327.656 296.569 348.499 290.563 359.097C284.507 369.645 298.537 412.693 298.537 412.693V412.642Z" fill="#7D72B3"/>
</g>
<g style="mix-blend-mode:multiply" opacity="0.4">
<path fill-rule="evenodd" clip-rule="evenodd" d="M225.108 368.633L317.765 287.432L375.146 261.442C375.146 261.442 431.87 242.163 457.861 236.107C483.851 230.051 542.09 228.235 542.09 228.235L572.622 231.565C572.622 231.565 519.481 202.598 440.904 223.693C362.378 244.838 310.144 271.232 287.182 292.882C264.22 314.583 229.599 357.984 225.007 368.582L225.108 368.633Z" fill="#7D72B3"/>
</g>
<path style="mix-blend-mode:screen" fill-rule="evenodd" clip-rule="evenodd" d="M222.483 372.267C222.483 372.267 172.722 432.373 196.845 469.314C221.019 506.307 231.668 559.599 238.682 572.014C245.697 584.429 325.839 603.051 342.493 599.216C359.147 595.38 399.066 584.883 425.208 595.027C425.208 595.027 471.486 591.04 484.759 591.04C498.031 591.04 522.205 579.786 527.857 576.96C533.51 574.134 564.9 564.091 580.999 557.631C597.098 551.171 622.886 531.035 633.333 523.011C643.78 514.936 671.183 482.335 676.432 472.292C681.68 462.249 697.325 403.455 701.413 375.648C705.45 347.892 693.54 294.296 684.506 275.775C675.473 257.254 647.06 239.943 647.06 239.943L648.725 231.566L670.88 218.344C670.88 218.344 709.487 268.962 713.121 312.666C715.241 338.303 721.196 392.958 714.433 416.425C709.033 435.249 690.562 490.662 674.463 510.445C658.364 530.228 610.068 580.694 584.279 590.485C558.491 600.276 482.488 613.447 437.724 614.356C404.718 615.012 332.046 609.107 296.316 607.896C260.585 606.685 235.049 584.278 220.817 572.923C206.636 561.568 211.43 530.682 196.946 506.256C182.462 481.83 174.489 449.38 178.072 431.717C181.655 414.053 222.584 372.217 222.584 372.217L222.483 372.267Z" fill="url(#paint12_radial_548_25490)"/>
<path fill-rule="evenodd" clip-rule="evenodd" d="M309.942 601.036C302.271 599.27 295.407 595.031 287.837 593.113C283.548 592.103 279.359 591.447 275.17 590.236C270.981 589.025 266.187 588.217 261.847 588.016C253.066 587.713 243.931 585.644 238.329 578.175C233.333 571.463 230.305 564.599 227.984 556.575C225.006 545.876 222.129 535.177 218.799 524.428C215.72 514.536 211.531 505.805 206.031 497.024C203.86 493.542 201.993 490.009 199.672 486.628C197.502 483.55 194.524 480.623 192.859 477.191H192.808C188.62 468.208 187.156 458.316 187.408 448.627C187.56 443.378 189.023 438.483 190.134 433.386C191.648 426.926 193.313 421.274 196.644 415.47C199.722 410.171 202.7 404.771 205.778 399.321C212.591 387.36 219.758 375.349 228.236 364.6C239.137 350.873 251.299 337.802 263.613 325.387C270.729 318.12 278.854 311.761 287.03 305.705C293.893 300.608 300.303 295.006 307.116 289.808C318.824 280.876 332.248 275.072 345.369 268.713C361.266 261.042 377.113 253.674 393.616 247.618C413.197 240.502 433.333 234.799 453.722 230.661C476.987 225.968 501.514 225.009 525.233 225.11C538.254 225.16 552.132 223.495 564.547 228.34C571.562 231.065 579.737 233.841 585.844 238.029C587.257 238.988 587.862 239.19 588.771 240.452C589.326 241.209 589.679 242.218 589.982 243.126C590.941 245.347 592.102 249.031 592.102 251.403C592.102 254.027 590.941 256.298 590.941 259.074C590.991 262.96 589.982 266.493 589.881 270.278C589.679 274.668 588.62 278.1 587.963 282.39C586.702 290.313 585.541 297.883 582.463 305.352C578.021 316.101 575.044 327.456 570.149 338.105C568.685 341.335 566.061 343.858 564.597 347.088C563.184 350.015 561.923 352.437 560.257 355.263C557.128 360.512 554.605 365.912 551.022 370.858C543.603 381.052 536.084 391.953 526.343 400.078C514.534 409.919 501.665 417.741 488.14 424.958C479.359 429.601 470.174 433.386 461.241 437.827C453.267 441.763 445.294 445.851 437.27 449.636C416.629 459.275 394.675 466.391 373.025 473.154C366.767 475.122 360.913 477.241 354.453 478.15C348.599 478.957 341.786 480.875 335.831 480.774C329.472 480.572 322.76 479.109 316.755 477.09C306.409 473.658 305.4 462.404 304.643 453.118C304.088 446.356 303.28 439.038 301.968 432.376C300.959 426.825 300.504 421.324 299.243 415.722C297.981 410.07 297.123 404.267 297.073 398.463C296.921 391.044 299.798 384.13 301.463 376.914C302.523 372.271 303.078 367.476 304.946 363.035C307.671 356.525 312.919 350.923 318.067 346.28C323.366 341.587 328.564 336.894 333.813 332.15C336.941 329.223 340.626 327.053 343.956 324.378C349.76 319.735 356.22 316.101 362.831 312.72C368.079 309.995 371.865 305.655 376.709 302.475C381.706 299.245 387.358 295.763 392.657 293.088C397.3 290.817 402.346 289.203 407.191 287.285C411.128 285.771 414.761 283.449 418.799 282.137C422.483 280.876 426.318 280.472 429.952 278.958C433.535 277.494 436.916 276.132 440.6 275.173C444.739 274.163 449.382 272.448 453.621 272.296C461.897 272.145 465.985 276.334 468.105 284.358C471.032 295.309 467.651 304.544 463.714 314.688C460.535 322.864 457.002 330.938 453.873 339.215C449.735 350.267 439.894 356.071 431.617 363.59C422.886 371.514 412.087 378.579 401.388 383.373C398.006 384.887 394.373 385.796 391.042 387.209C388.165 388.47 385.39 390.085 382.513 391.599C380.646 392.609 379.334 394.072 377.618 395.233C376.104 396.242 374.287 396.848 372.722 397.857C368.887 400.431 364.9 402.904 360.661 404.721C356.573 406.588 348.498 407.648 345.824 402.853C344.411 400.431 344.612 397.05 343.956 394.325C343.199 391.095 343.048 388.117 343.048 384.786C343.048 381.456 343.704 378.932 344.209 375.652C344.713 372.523 346.126 370.05 347.136 366.972C350.214 358.291 356.169 351.882 361.468 344.716C364.799 340.174 367.676 335.733 371.562 331.544C377.315 325.438 385.39 322.359 393.515 320.34C400.782 318.574 411.632 316.404 418.294 320.593C423.946 324.075 420.01 331.796 418.143 336.54C417.133 339.165 416.023 341.839 415.165 344.514C414.509 346.482 414.257 348.703 413.146 350.62C410.774 354.557 406.131 357.333 402.649 360.361C401.034 361.723 398.511 363.59 396.593 364.246C394.171 365.003 391.547 364.953 389.124 365.508C387.913 365.76 387.257 367.274 385.793 366.719C384.431 366.265 384.431 364.751 384.734 363.338C384.986 362.076 385.541 360.764 385.793 359.553C385.844 359.301 385.541 358.846 385.591 358.544C386.601 354.759 391.395 350.065 393.565 346.886C396.997 348.299 394.625 350.318 394.019 351.882C393.565 353.144 393.616 354.355 393.313 355.718C393.061 356.777 391.395 358.796 392.606 359.906C393.414 360.714 396.24 359.25 397.148 358.947C404.567 356.323 409.311 348.249 411.632 340.88C413.096 336.086 412.844 327.81 407.545 325.69C403.608 324.176 398.814 324.983 394.675 324.933C379.687 324.681 370.855 340.679 362.881 351.024C357.481 358.039 353.343 366.013 350.265 374.289C348.095 380.043 347.186 385.947 345.672 391.751C344.512 396.04 343.098 402.601 349.71 401.693C353.545 401.138 357.683 399.068 361.317 397.857C364.496 396.797 367.322 395.637 370.3 394.022C374.993 391.448 380.292 390.792 385.238 388.622C389.074 386.906 392.96 384.786 396.795 382.97C406.687 378.175 416.326 368.435 423.189 360.007C427.782 354.355 434.342 350.065 439.591 344.918C445.092 339.518 448.019 332.755 451.753 326.094C455.538 319.331 457.406 312.821 459.071 305.352C460.585 298.741 464.572 291.221 462.503 284.307C460.333 277.191 451.148 277.04 445.243 278.049C440.348 278.857 434.898 279.715 430.255 281.532C421.574 284.963 413.045 288.647 404.416 292.18C390.84 297.782 379.535 307.017 367.121 314.638C360.812 318.473 353.999 321.4 348.145 325.993C343.805 329.374 339.667 333.31 335.528 337.045C332.601 339.72 330.128 342.596 326.848 344.867C322.558 347.845 318.319 351.176 315.14 355.314C312.516 358.695 309.538 362.732 308.074 366.77C307.015 370 308.024 373.078 308.226 376.409C308.478 380.951 307.217 385.14 307.015 389.581C306.813 394.274 307.015 399.119 307.065 403.863C307.065 413.098 305.652 422.081 305.854 431.468C305.955 437.221 307.267 443.277 308.428 448.93C309.336 453.472 311.153 457.357 311.506 462C311.607 464.927 312.162 468.965 314.736 470.883C315.998 471.841 317.663 472.094 319.127 472.649C320.489 473.154 321.701 473.608 322.962 474.011C323.669 474.264 324.426 474.415 325.183 474.668C325.738 474.97 326.192 475.828 326.798 476.081C328.312 476.737 330.633 476.333 332.198 476.03C335.882 475.324 339.515 474.415 343.25 473.81C352.485 472.195 361.872 472.397 370.653 469.116C380.797 465.281 390.234 459.83 400.227 455.742C415.215 449.636 431.264 445.145 445.597 437.423C452.056 433.941 458.718 430.661 465.38 427.683C481.125 420.618 497.628 414.865 511.456 404.216C516.755 400.128 520.742 395.485 525.284 390.691C527.857 387.966 530.583 385.543 532.854 382.515C539.616 373.734 546.126 364.146 551.274 354.355C553.495 350.217 554.857 345.675 557.128 341.536C560.711 335.077 565.052 329.424 568.332 322.813C571.562 316.303 573.479 309.793 575.65 302.929C577.012 298.741 577.921 295.259 577.82 290.817C577.668 281.885 578.627 274.163 582.21 266.038C584.178 261.597 587.005 254.936 585.541 249.889C584.784 247.416 581.201 246.76 579.031 246.054C573.934 244.338 568.635 243.076 563.739 240.906C559.197 238.887 555.967 236.515 550.971 235.607C549.053 235.203 547.338 234.951 545.42 235.052C540.626 235.304 536.487 238.635 531.693 238.433C530.078 238.383 529.018 237.878 527.353 237.525C524.88 237.07 522.205 237.373 519.783 237.323C514.282 237.121 509.033 236.112 503.482 236.162C496.972 236.213 490.613 236.818 484.103 237.171C478.047 237.474 471.94 236.97 465.884 237.171C461.998 237.323 459.576 239.089 456.144 240.603C453.015 242.016 449.533 242.571 446.253 243.783C443.376 244.943 440.701 245.953 437.623 246.054C433.333 246.104 429.094 245.498 424.956 246.356C419.959 247.517 414.559 249.586 409.916 251.605C396.341 257.409 383.119 264.676 369.038 269.117C362.225 271.236 355.21 272.195 348.549 274.87C346.076 275.879 343.906 277.696 341.685 279.16C337.244 282.137 332.551 284.913 327.958 287.789C317.714 294.3 307.923 301.415 298.183 308.683C286.727 317.212 275.725 325.791 266.237 336.591C249.684 355.667 232.374 374.895 218.042 395.738C211.229 405.579 203.558 416.126 198.713 427.128C198.561 427.38 198.511 427.582 198.41 427.834C195.735 434.143 194.322 440.754 195.231 447.617C195.231 447.769 195.231 447.87 195.281 448.021C196.038 453.623 198.461 460.285 200.681 465.382C202.902 470.479 204.769 475.879 207.645 480.724C210.774 486.023 215.115 490.413 217.386 496.166C220.111 503.232 222.634 510.852 224.703 518.17C227.428 527.405 229.548 536.994 231.264 546.431C232.425 552.285 233.384 558.24 236.109 563.59C239.995 571.109 248.271 573.935 255.034 578.326C258.617 580.698 261.09 581.455 265.43 581.657C271.486 581.96 277.239 583.423 283.043 585.139C295.407 588.975 307.772 591.75 320.792 591.599C328.514 591.548 335.831 589.429 343.401 588.47C350.467 587.561 357.532 586.855 364.547 585.745C370.906 584.735 377.164 582.919 383.674 582.919C389.78 582.919 396.795 583.928 402.75 585.593C413.399 588.52 423.795 590.892 434.898 590.438C441.66 590.236 448.271 588.722 454.983 588.268C461.292 587.864 467.297 588.823 473.555 589.277C484.658 589.984 495.306 587.259 505.602 583.877C512.667 581.606 518.521 578.225 524.829 574.44C529.927 571.463 534.822 570.554 540.424 569.091C551.375 566.164 562.276 562.126 572.218 556.524C585.238 549.106 595.937 538.205 608.554 530.332C615.72 525.891 623.744 522.914 630.658 518.17C636.412 514.284 641.811 509.742 646.656 504.847C652.309 499.093 657.709 493.138 663.361 487.385C667.701 482.995 669.417 477.494 671.991 472.043C675.826 463.969 677.138 455.591 678.551 446.81C680.015 438.13 683.85 430.509 687.585 422.435C692.379 412.19 696.467 402.551 697.476 391.044C698.284 382.414 699.445 373.785 699.445 365.104C699.445 359.553 698.486 354.153 697.779 348.652C697.073 343.555 696.063 338.66 694.953 333.613C693.54 327.406 693.742 321.047 692.581 314.789C691.572 309.44 689.906 303.737 688.443 298.488C687.434 294.703 686.02 290.817 684.506 287.285C681.68 280.976 677.996 274.416 673.454 269.117C671.536 266.896 669.114 266.19 666.944 264.575C665.279 263.313 664.925 262.203 663.008 261.244C660.333 259.881 657.658 258.569 655.034 257.106C650.845 254.683 646.051 253.977 641.862 251.706C637.825 249.536 634.191 246.659 630.406 244.237C626.066 241.512 621.675 239.644 617.89 236.061C614.206 232.478 611.784 227.986 608.201 224.403C604.567 220.719 599.318 218.297 595.18 215.117C587.963 209.516 579.485 209.061 571.41 205.63C567.272 203.863 563.336 203.611 558.995 202.703C554.1 201.693 550.769 198.665 545.521 198.11C540.878 197.606 536.285 197.555 531.743 196.243C529.018 195.536 526.444 194.88 523.719 194.628C518.319 194.123 513.071 194.88 507.721 195.435C503.028 195.94 498.233 195.688 493.49 195.688C489.553 195.688 485.415 196.092 481.428 195.435C470.224 193.72 457.91 193.921 446.555 194.678C435.705 195.435 425.157 196.192 414.862 199.776C406.131 202.753 397.502 205.327 388.973 208.809C383.119 211.181 378.021 214.411 372.521 217.489C359.349 224.908 347.237 233.942 334.67 242.369C320.641 251.655 307.469 262.001 293.944 272.145C285.163 278.756 276.23 285.317 267.55 292.18C263.765 295.158 260.131 298.286 256.598 301.466C265.026 290.616 274.211 280.421 284.002 270.883C338.355 217.994 412.642 185.393 494.499 185.393C497.678 185.393 500.858 185.443 503.987 185.544C507.368 185.695 510.749 185.796 514.13 186.049C523.517 186.705 532.803 187.714 541.938 189.178C542.089 189.178 542.14 189.228 542.24 189.228C552.637 192.054 562.982 195.032 573.278 198.161C581.907 200.785 590.537 203.157 599.016 206.084C604.617 208.002 610.118 210.475 615.518 212.695C620.414 214.815 625.864 216.581 630.456 219.205C637.926 223.394 644.84 229.046 651.753 234.143C656.346 237.575 660.636 241.562 664.774 245.549C670.578 251.201 675.826 257.509 680.217 264.272C690.562 280.27 698.789 298.387 702.674 317.01C706.005 332.705 705.551 349.712 704.895 365.71C704.592 374.239 703.028 383.626 701.312 392.054C699.394 401.289 696.164 409.919 695.205 419.457C694.751 424.1 695.508 428.894 694.751 433.487C694.095 437.272 692.733 440.905 691.925 444.64C690.31 452.614 687.989 460.335 684.254 467.653C679.258 477.645 672.546 485.972 665.329 494.551C657.254 504.191 648.574 513.426 640.146 522.863C631.668 532.351 621.473 540.022 610.573 546.532C602.094 551.629 593.414 557.736 584.178 561.319C575.498 564.751 565.708 569.646 556.321 570.706C549.205 571.412 543.502 574.087 537.698 578.427C534.216 581.001 531.592 584.433 528.312 587.158C525.385 589.631 521.953 590.388 518.42 591.599C510.093 594.425 501.918 593.769 493.187 593.769C480.772 593.769 468.508 594.98 456.144 596.242C449.886 596.898 443.729 597.402 437.471 596.999C431.87 596.696 426.318 595.232 420.767 594.526C414.559 593.769 408.402 593.617 402.296 592.659C397.451 591.851 393.616 591.75 388.72 592.406C384.784 592.86 380.797 592.406 376.861 592.709C372.773 593.113 368.786 593.971 364.698 594.576C346.126 597.1 328.766 605.679 309.79 601.187L309.942 601.036Z" fill="#FFEA00"/>
<path style="mix-blend-mode:screen" fill-rule="evenodd" clip-rule="evenodd" d="M294.953 739.213C294.953 739.213 365.657 751.628 397.804 750.72C446.404 749.307 502.372 755.363 545.874 756.574C589.377 757.785 665.38 722.156 679.258 715.595C693.136 709.085 726.697 689.907 755.967 657.457C785.238 625.007 796.795 572.118 796.795 572.118H784.582C784.582 572.118 779.939 595.03 762.326 620.718C751.728 636.16 736.185 649.635 714.938 668.005C684.355 694.449 644.537 714.787 604.416 724.78C550.971 738.103 503.482 734.419 470.729 739.314C423.29 746.38 318.016 729.625 318.016 729.625L295.004 739.264L294.953 739.213Z" fill="url(#paint13_radial_548_25490)"/>
<path fill-rule="evenodd" clip-rule="evenodd" d="M276.28 704.188C276.28 704.188 287.534 733.509 294.953 739.211C294.953 739.211 310.497 740.17 317.966 732.196L296.215 714.937L276.28 704.188Z" fill="url(#paint14_radial_548_25490)"/>
<path fill-rule="evenodd" clip-rule="evenodd" d="M797.653 517.359C797.653 517.359 805.223 550.516 805.828 568.129C805.828 568.129 794.019 575.547 784.531 572.015C784.531 572.015 795.684 531.49 797.653 517.359Z" fill="url(#paint15_radial_548_25490)"/>
<path fill-rule="evenodd" clip-rule="evenodd" d="M593.011 201.74C593.011 201.74 656.044 208.049 670.78 218.394C670.78 218.394 660.333 230.052 648.625 231.617C648.625 231.617 597.502 203.254 593.011 201.791V201.74Z" fill="#FF61C7"/>
<path fill-rule="evenodd" clip-rule="evenodd" d="M220.717 319.026L246.556 314.938L256.7 301.362C256.7 301.362 238.178 309.538 220.767 319.026H220.717Z" fill="#FF61C7"/>
<g style="mix-blend-mode:multiply" opacity="0.5">
<path fill-rule="evenodd" clip-rule="evenodd" d="M241.711 685.565C241.711 685.565 363.941 721.043 459.374 722.86C554.807 724.676 590.638 703.43 631.92 687.483C673.202 671.535 740.928 634.947 761.367 607.947C781.807 580.947 797.653 517.359 797.653 517.359C797.653 517.359 778.022 612.691 761.065 629.597C744.108 646.504 668.357 697.525 655.034 704.187C641.761 710.849 605.627 738.252 540.373 730.632C540.373 730.632 496.467 736.839 480.57 735.628C464.673 734.417 440.045 750.414 394.726 735.779C394.726 735.779 331.693 732.6 317.916 729.572C304.138 726.544 241.66 685.615 241.66 685.615L241.711 685.565Z" fill="#54469B"/>
</g>
<path fill-rule="evenodd" clip-rule="evenodd" d="M271.386 557.281C271.386 557.281 372.723 574.844 446.102 567.324C519.531 559.804 559.198 541.485 580.142 527.809C601.085 514.132 642.115 470.277 657.457 450.342C672.799 430.408 680.52 380.547 680.52 380.547C680.52 380.547 683.296 429.247 670.78 450.342C658.264 471.437 615.166 511.558 597.603 523.216C580.041 534.874 529.675 562.53 503.382 567.324C477.089 572.118 433.687 585.391 402.246 579.638C370.805 573.885 294.55 574.844 271.386 557.281Z" fill="#E24F94"/>
<path fill-rule="evenodd" clip-rule="evenodd" d="M411.885 719.48C411.885 719.48 517.36 712.213 553.596 704.189C589.831 696.114 637.471 676.533 670.78 664.32C704.088 652.107 729.271 627.883 747.64 614.459C766.01 601.035 789.578 545.219 789.578 545.219C789.578 545.219 774.539 600.581 751.476 618.648C728.413 636.715 669.366 669.821 602.649 699.394C528.514 732.299 470.83 722.962 411.885 719.531V719.48Z" fill="#E0407D"/>
<path fill-rule="evenodd" clip-rule="evenodd" d="M779.434 587.053C781.1 582.006 782.866 577.061 784.531 572.064C778.677 592.201 770.754 611.479 761.064 629.647L760.862 629.849C758.036 632.574 754.605 634.744 751.98 637.772C749.306 640.75 746.934 643.778 744.057 646.553C730.28 660.179 714.534 671.938 698.284 682.486C681.579 693.386 664.875 703.732 646.606 711.706C632.576 717.812 618.243 723.061 603.406 726.795C591.496 729.874 578.728 731.186 566.414 731.791C560.156 732.094 554.049 733.154 547.842 733.709C540.121 734.517 532.248 734.416 524.627 735.728C511.506 738.15 497.981 739.866 484.658 740.573C473.252 741.229 461.897 742.793 450.492 742.793C435.806 742.743 421.271 740.421 406.636 740.522C392.404 740.674 378.072 740.018 363.941 738.756C355.463 737.948 347.186 736.333 338.809 735.375C331.743 734.567 324.93 733.003 317.915 732.246C312.011 728.057 306.257 723.515 300.706 718.872C299.192 717.61 297.628 716.298 296.164 714.986C304.188 717.56 312.162 720.285 320.287 722.808C331.642 726.392 344.36 728.461 356.22 729.924C365.909 731.135 377.567 732.044 387.156 729.621C397.098 727.149 404.516 730.328 413.55 734.012C417.739 735.728 422.028 736.586 426.419 737.847C432.626 739.614 437.168 739.261 443.527 738.403C449.079 737.696 454.882 736.737 460.434 735.526C465.127 734.517 469.669 732.599 474.463 731.943C482.74 730.934 491.572 729.722 499.848 731.186C509.437 732.851 518.925 733.81 528.513 732.296C538.506 730.631 547.842 729.672 557.986 729.621C561.418 729.621 564.244 729.924 567.524 730.53C571.208 731.186 574.64 730.126 578.274 729.773C584.885 729.066 590.688 728.107 597.148 726.139C603.002 724.272 608.604 721.698 614.357 719.528C625.561 715.339 635.705 711.201 645.647 704.438C653.974 698.837 663.26 694.9 671.738 689.45C679.813 684.201 687.03 677.641 695.306 672.695C704.037 667.396 712.011 660.886 720.338 654.981C725.637 651.196 730.33 646.755 735.629 642.92C740.222 639.589 745.268 637.015 749.507 633.23C756.825 626.972 763.638 620.21 768.433 611.731C772.874 603.909 776.608 595.683 779.333 587.103L779.434 587.053Z" fill="#FFEA00"/>
<path fill-rule="evenodd" clip-rule="evenodd" d="M455.791 419.152C455.791 419.152 528.665 359.5 559.298 301.362C559.298 301.362 474.363 388.619 455.791 419.152Z" fill="#FF77F4"/>
<path fill-rule="evenodd" clip-rule="evenodd" d="M379.132 490.257C379.132 490.257 425.158 490.56 476.079 469.313C527 448.067 552.536 404.262 552.536 404.262C552.536 404.262 518.067 437.166 480.57 455.586C443.073 474.007 414.66 478.498 379.132 490.206V490.257Z" fill="#EA9CF4"/>
<path fill-rule="evenodd" clip-rule="evenodd" d="M561.115 393.816C561.115 393.816 566.263 380.694 575.952 357.631C585.592 334.568 593.212 322.254 593.212 322.254C593.212 322.254 590.083 357.429 561.115 393.816Z" fill="#EA9CF4"/>
<path fill-rule="evenodd" clip-rule="evenodd" d="M363.386 611.632C363.386 611.632 427.378 627.176 510.699 611.632C594.02 596.088 597.653 590.991 620.616 573.025C643.578 555.008 659.879 531.996 668.913 523.265C677.997 514.534 689.352 484.305 689.352 484.305C689.352 484.305 665.784 526.646 632.021 555.008C598.259 583.371 570.452 597.249 513.677 605.727C456.901 614.206 391.648 613.297 363.336 611.632H363.386Z" fill="#F474BD"/>
<path fill-rule="evenodd" clip-rule="evenodd" d="M419.506 750.516C419.506 750.516 477.492 755.512 501.01 760.357C524.578 765.202 569.846 765 595.837 755.462C621.827 745.873 673.253 718.318 673.253 718.318C673.253 718.318 625.259 745.268 568.08 751.273C510.901 757.329 476.079 747.639 419.506 750.516Z" fill="#F474BD"/>
<path fill-rule="evenodd" clip-rule="evenodd" d="M690.108 709.889C690.108 709.889 726.899 685.16 744.966 668.759C744.966 668.759 725.688 695.153 690.108 709.889Z" fill="#F474BD"/>
<path fill-rule="evenodd" clip-rule="evenodd" d="M410.522 395.282C410.522 395.282 452.511 363.689 465.834 340.828C479.157 317.967 480.52 304.946 480.52 304.946C480.52 304.946 486.475 327.152 461.242 355.413C436.008 383.674 410.522 395.282 410.522 395.282Z" fill="#F2C4F8"/>
<path style="mix-blend-mode:screen" opacity="0.5" fill-rule="evenodd" clip-rule="evenodd" d="M312.415 373.228C309.033 388.621 305.551 404.316 310.8 419.153C316.048 433.99 324.073 443.68 331.744 444.487C339.414 445.295 350.669 427.177 350.265 421.929C349.861 416.68 337.8 403.004 336.992 389.327C336.185 375.651 351.123 355.514 350.315 347.844C349.508 340.173 318.067 347.843 312.465 373.228H312.415Z" fill="url(#paint16_linear_548_25490)"/>
<path style="mix-blend-mode:screen" opacity="0.5" fill-rule="evenodd" clip-rule="evenodd" d="M319.278 310.195C314.231 304.795 280.267 336.539 256.699 361.116C233.131 385.693 209.765 417.891 207.746 438.431C205.728 458.971 222.634 490.008 253.267 517.361C283.85 544.714 363.537 569.695 382.664 558.44C401.842 547.186 394.776 512.112 379.182 503.684C363.588 495.206 312.869 512.263 289.099 487.282C265.329 462.301 276.078 428.792 279.056 400.581C282.689 366.062 293.54 336.942 303.633 328.111C313.676 319.228 319.328 310.195 319.328 310.195H319.278Z" fill="url(#paint17_linear_548_25490)"/>
<path fill-rule="evenodd" clip-rule="evenodd" d="M215.165 416.477C208.605 438.733 207.848 462.553 221.524 480.822C235.201 499.091 245.546 485.415 250.391 440.802C255.236 396.19 252.46 365.657 252.46 365.657C252.46 365.657 223.391 388.468 215.165 416.477Z" fill="#FFFFF8"/>
<path fill-rule="evenodd" clip-rule="evenodd" d="M237.572 493.845C228.336 502.425 250.441 519.482 254.024 511.256C257.607 503.03 243.577 488.243 237.572 493.845Z" fill="#F5CEFA"/>
<path fill-rule="evenodd" clip-rule="evenodd" d="M213.046 561.216C212.188 575.346 220.212 591.445 244.991 600.681C269.72 609.916 289.099 607.443 289.099 607.443C289.099 607.443 260.182 601.69 244.234 590.537C228.287 579.384 213.096 561.216 213.096 561.216H213.046Z" fill="#F5CEFA"/>
<path fill-rule="evenodd" clip-rule="evenodd" d="M314.484 375.4C306.308 364.6 316.957 349.813 331.895 340.729C346.884 331.645 348.65 334.37 345.471 342.344C342.291 350.267 337.345 367.073 330.381 375.45C323.366 383.828 319.329 381.86 314.484 375.45V375.4Z" fill="#FFFFF8"/>
<path fill-rule="evenodd" clip-rule="evenodd" d="M368.281 356.626C365.152 351.327 371.461 335.884 379.99 337.297C388.519 338.71 386.449 342.142 382.463 347.744C379.485 351.983 371.259 361.622 368.281 356.626Z" fill="#FFFFF8"/>
<path fill-rule="evenodd" clip-rule="evenodd" d="M430.104 383.12C427.177 377.114 451.047 358.744 454.227 360.662C457.457 362.58 455.387 372.32 449.786 375.953C444.234 379.587 431.062 385.239 430.053 383.12H430.104Z" fill="#FFFFF8"/>
</g>
<path style="mix-blend-mode:screen" opacity="0.45" fill-rule="evenodd" clip-rule="evenodd" d="M500 0C223.922 0 0 223.769 0 500C0 776.232 223.922 1000 500 1000C776.078 1000 1000 776.079 1000 500C1000 223.922 776.231 0 500 0ZM500 980.576C234.628 980.576 19.4249 765.372 19.4249 500C19.4249 234.629 234.628 19.4249 500 19.4249C765.372 19.4249 980.575 234.629 980.575 500C980.575 765.372 765.372 980.576 500 980.576Z" fill="url(#paint18_linear_548_25490)"/>
</g>
<defs>
<radialGradient id="paint0_radial_548_25490" cx="0" cy="0" r="1" gradientUnits="userSpaceOnUse" gradientTransform="translate(495.214 498.506) scale(403.368 403.366)">
<stop stop-color="#FF1313"/>
<stop offset="1"/>
</radialGradient>
<radialGradient id="paint1_radial_548_25490" cx="0" cy="0" r="1" gradientUnits="userSpaceOnUse" gradientTransform="translate(521.932 521.517) scale(339.946 339.945)">
<stop stop-color="#FF1313"/>
<stop offset="1"/>
</radialGradient>
<radialGradient id="paint2_radial_548_25490" cx="0" cy="0" r="1" gradientUnits="userSpaceOnUse" gradientTransform="translate(491.566 492.667) scale(324.403 324.402)">
<stop stop-color="#E213FF"/>
<stop offset="1"/>
</radialGradient>
<radialGradient id="paint3_radial_548_25490" cx="0" cy="0" r="1" gradientUnits="userSpaceOnUse" gradientTransform="translate(287.009 372.106) scale(497.666 497.665)">
<stop stop-color="#FF9AFF"/>
<stop offset="0.09" stop-color="#FB94FF"/>
<stop offset="0.21" stop-color="#F083FF"/>
<stop offset="0.34" stop-color="#DF67FF"/>
<stop offset="0.49" stop-color="#C740FF"/>
<stop offset="0.64" stop-color="#A810FF"/>
<stop offset="0.68" stop-color="#9F00FF"/>
<stop offset="0.74" stop-color="#9800F8"/>
<stop offset="0.83" stop-color="#8700E4"/>
<stop offset="0.93" stop-color="#6A00C5"/>
<stop offset="1" stop-color="#5200AB"/>
</radialGradient>
<radialGradient id="paint4_radial_548_25490" cx="0" cy="0" r="1" gradientUnits="userSpaceOnUse" gradientTransform="translate(287.009 372.106) scale(497.666 497.665)">
<stop stop-color="#D45F5F"/>
<stop offset="0.12" stop-color="#D05959"/>
<stop offset="0.28" stop-color="#C64848"/>
<stop offset="0.46" stop-color="#B62C2C"/>
<stop offset="0.66" stop-color="#9F0606"/>
<stop offset="0.68" stop-color="#9C0000"/>
<stop offset="0.74" stop-color="#950000"/>
<stop offset="0.83" stop-color="#810000"/>
<stop offset="0.93" stop-color="#620000"/>
<stop offset="1" stop-color="#470000"/>
</radialGradient>
<radialGradient id="paint5_radial_548_25490" cx="0" cy="0" r="1" gradientUnits="userSpaceOnUse" gradientTransform="translate(301.122 343.313) scale(489.21 489.209)">
<stop stop-color="#FF9A9A"/>
<stop offset="0.09" stop-color="#FF9494"/>
<stop offset="0.21" stop-color="#FF8386"/>
<stop offset="0.34" stop-color="#FF676E"/>
<stop offset="0.49" stop-color="#FF404D"/>
<stop offset="0.64" stop-color="#FF1022"/>
<stop offset="0.68" stop-color="#FF0015"/>
<stop offset="0.72" stop-color="#F80014"/>
<stop offset="0.78" stop-color="#E40011"/>
<stop offset="0.85" stop-color="#C5000D"/>
<stop offset="0.92" stop-color="#990007"/>
<stop offset="1" stop-color="#630000"/>
</radialGradient>
<radialGradient id="paint6_radial_548_25490" cx="0" cy="0" r="1" gradientUnits="userSpaceOnUse" gradientTransform="translate(365.468 291.564) scale(109.395 109.395)">
<stop stop-color="white"/>
<stop offset="1" stop-color="#623964"/>
</radialGradient>
<radialGradient id="paint7_radial_548_25490" cx="0" cy="0" r="1" gradientUnits="userSpaceOnUse" gradientTransform="translate(382.856 331.105) scale(38.053 38.0529)">
<stop stop-color="white"/>
<stop offset="1" stop-color="#623964"/>
</radialGradient>
<radialGradient id="paint8_radial_548_25490" cx="0" cy="0" r="1" gradientUnits="userSpaceOnUse" gradientTransform="translate(359.453 327.59) scale(40.1075 40.1074)">
<stop stop-color="white"/>
<stop offset="1" stop-color="#623964"/>
</radialGradient>
<radialGradient id="paint9_radial_548_25490" cx="0" cy="0" r="1" gradientUnits="userSpaceOnUse" gradientTransform="translate(331.077 288.976) scale(92.6313 92.6311)">
<stop stop-color="white"/>
<stop offset="1" stop-color="#623964"/>
</radialGradient>
<radialGradient id="paint10_radial_548_25490" cx="0" cy="0" r="1" gradientUnits="userSpaceOnUse" gradientTransform="translate(291.505 252.975) scale(157.036 157.035)">
<stop stop-color="white"/>
<stop offset="1" stop-color="#623964"/>
</radialGradient>
<radialGradient id="paint11_radial_548_25490" cx="0" cy="0" r="1" gradientUnits="userSpaceOnUse" gradientTransform="translate(349.716 277.838) scale(218.82 218.819)">
<stop stop-color="white"/>
<stop offset="1" stop-color="#623964"/>
</radialGradient>
<radialGradient id="paint12_radial_548_25490" cx="0" cy="0" r="1" gradientUnits="userSpaceOnUse" gradientTransform="translate(281.471 279.444) scale(369.692 369.691)">
<stop stop-color="white"/>
<stop offset="1" stop-color="#623964"/>
</radialGradient>
<radialGradient id="paint13_radial_548_25490" cx="0" cy="0" r="1" gradientUnits="userSpaceOnUse" gradientTransform="translate(392.295 601.437) scale(291.382 291.381)">
<stop stop-color="#FFFF4A"/>
<stop offset="1" stop-color="#360038"/>
</radialGradient>
<radialGradient id="paint14_radial_548_25490" cx="0" cy="0" r="1" gradientUnits="userSpaceOnUse" gradientTransform="translate(277.54 713.837) scale(31.4428 31.4428)">
<stop stop-color="#C20000"/>
<stop offset="0.44" stop-color="#BB0000"/>
<stop offset="1" stop-color="#AB0000"/>
</radialGradient>
<radialGradient id="paint15_radial_548_25490" cx="0" cy="0" r="1" gradientUnits="userSpaceOnUse" gradientTransform="translate(786.164 530.986) scale(32.8423 32.8422)">
<stop stop-color="#4F0000"/>
<stop offset="0.39" stop-color="#480000"/>
<stop offset="0.95" stop-color="#340000"/>
<stop offset="1" stop-color="#330000"/>
</radialGradient>
<linearGradient id="paint16_linear_548_25490" x1="308.125" y1="394.778" x2="350.315" y2="394.778" gradientUnits="userSpaceOnUse">
<stop stop-color="#BDFFE8"/>
<stop offset="0.2" stop-color="#8ABBAA"/>
<stop offset="0.42" stop-color="#59796E"/>
<stop offset="0.61" stop-color="#33453E"/>
<stop offset="0.78" stop-color="#171F1C"/>
<stop offset="0.91" stop-color="#060807"/>
<stop offset="1"/>
</linearGradient>
<linearGradient id="paint17_linear_548_25490" x1="207.595" y1="435.403" x2="394.221" y2="435.403" gradientUnits="userSpaceOnUse">
<stop stop-color="#BDFFE8"/>
<stop offset="0.2" stop-color="#8ABBAA"/>
<stop offset="0.42" stop-color="#59796E"/>
<stop offset="0.61" stop-color="#33453E"/>
<stop offset="0.78" stop-color="#171F1C"/>
<stop offset="0.91" stop-color="#060807"/>
<stop offset="1"/>
</linearGradient>
<linearGradient id="paint18_linear_548_25490" x1="500" y1="25.2371" x2="500" y2="1048.18" gradientUnits="userSpaceOnUse">
<stop stop-color="#27A2D9"/>
<stop offset="0.19" stop-color="#1D78A1"/>
<stop offset="0.39" stop-color="#124E68"/>
<stop offset="0.59" stop-color="#0A2C3B"/>
<stop offset="0.76" stop-color="#04141A"/>
<stop offset="0.9" stop-color="#010507"/>
<stop offset="1"/>
</linearGradient>
<clipPath id="clip0_548_25490">
<rect width="1000" height="1000" fill="white"/>
</clipPath>
<clipPath id="clip1_548_25490">
<rect width="800" height="799.998" fill="white" transform="translate(100 100)"/>
</clipPath>
</defs>
</svg>
