<svg width="80" height="81" viewBox="0 0 80 81" fill="none" xmlns="http://www.w3.org/2000/svg">
<rect x="2" y="2.5" width="76" height="76" rx="38" fill="white" stroke="white" stroke-width="4"/>
<path d="M40.7199 76.4925C60.2045 76.4925 75.9999 60.6988 75.9999 41.2162C75.9999 21.7337 60.2045 5.93994 40.7199 5.93994C21.2353 5.93994 5.43994 21.7337 5.43994 41.2162C5.43994 60.6988 21.2353 76.4925 40.7199 76.4925Z" fill="#DCD4F4"/>
<path d="M33.0508 21.9052C33.0508 21.9052 33.2051 18.4603 27.2792 16.7392C27.0535 16.6748 26.8891 16.4806 26.8628 16.2474C26.8365 16.0143 26.9536 15.7883 27.1593 15.6754C28.6049 14.8789 31.3777 13.9419 34.9484 15.55C34.9484 15.55 36.3996 12.2277 42.2332 9.79138C42.4286 9.71071 42.6525 9.74328 42.8169 9.87628C42.9812 10.0093 43.0597 10.2215 43.0215 10.4294C42.7789 11.7467 42.4496 14.0121 42.7665 15.2909C42.7665 15.2909 48.6925 8.43958 54.9133 13.4761C55.1168 13.6403 55.1848 13.9206 55.0794 14.1598C54.9739 14.399 54.7212 14.5379 54.4627 14.4986C53.17 14.307 51.6224 14.5688 50.6756 16.4277C50.6756 16.4277 59.9738 17.2104 57.354 17.9518C56.2584 18.2618 48.1288 18.4175 45.8356 22.2166L33.0508 21.9052Z" fill="#9E4830"/>
<path d="M67.053 28.3018L66.9814 31.0426L66.0677 65.7539C59.5433 72.4984 50.5994 76.3645 41.216 76.4964C31.8325 76.6283 22.7835 73.0151 16.0721 66.4567L15.1625 31.8914L15.0674 28.3018C15.04 27.2936 15.2036 26.2892 15.5498 25.3419C15.6159 25.1586 15.6876 24.9781 15.7703 24.8017C15.8529 24.6253 15.937 24.4503 16.0293 24.2795C16.09 24.1665 16.1548 24.0549 16.2209 23.946C16.5538 23.3951 16.9517 22.8862 17.4061 22.4302C17.4516 22.3847 17.497 22.3393 17.5439 22.2924C17.6362 22.2028 17.7313 22.1174 17.8278 22.0334C17.9656 21.908 18.1227 21.7867 18.2771 21.6709C18.379 21.5938 18.4838 21.5194 18.5899 21.4477C18.6423 21.4119 18.6974 21.3761 18.7525 21.3416C18.8614 21.2713 18.9703 21.2038 19.0819 21.1404L19.2514 21.0453C19.3644 20.9833 19.4802 20.9241 19.5959 20.869C19.7627 20.7877 19.9322 20.7133 20.1058 20.6444C20.8327 20.3542 21.5985 20.1731 22.3784 20.1069H22.399C22.6205 20.0876 22.8451 20.078 23.0729 20.078H59.0944C61.2472 20.0883 63.305 20.9658 64.8027 22.5121C66.3004 24.0584 67.1117 26.1431 67.053 28.2949V28.3018Z" fill="#F6C752"/>
<path d="M29.6824 20.0848C28.0283 20.0819 26.4143 20.5938 25.0643 21.5496H25.0561C22.8715 23.0936 21.6042 25.6279 21.6797 28.3017L21.7238 29.9732L21.8244 33.7902L22.1703 46.9692L22.818 71.6158C20.3702 70.1722 18.1053 68.4391 16.0721 66.4539L15.1625 31.8886L15.0674 28.299C15.04 27.2908 15.2036 26.2864 15.5498 25.3391C15.6173 25.1558 15.6876 24.9753 15.7703 24.7989C15.8529 24.6225 15.937 24.4475 16.0293 24.2767C16.0914 24.1637 16.1548 24.052 16.2209 23.9432C16.5538 23.3923 16.9517 22.8834 17.4061 22.4274C17.4516 22.3819 17.497 22.3365 17.5439 22.2896C17.6362 22.2014 17.7313 22.1146 17.8278 22.0305C17.9656 21.9052 18.1227 21.7839 18.2771 21.6681C18.379 21.5924 18.4838 21.5179 18.5899 21.4449C18.6423 21.4091 18.6974 21.3733 18.7525 21.3388C18.86 21.2685 18.9703 21.201 19.0819 21.1376L19.2514 21.0425C19.3644 20.9819 19.4802 20.9227 19.5959 20.8662C19.7627 20.7849 19.9322 20.7104 20.1058 20.6415C20.8327 20.3514 21.5985 20.1703 22.3784 20.1041H22.399C22.6205 20.0848 22.8451 20.0752 23.0729 20.0752L29.6824 20.0848Z" fill="#DDAF4A"/>
<path d="M24.2004 21.0633C24.2004 21.0633 15.0524 16.7916 12.6407 10.6389C12.5123 10.3198 12.1973 10.1157 11.8536 10.129C11.5098 10.1423 11.2115 10.3701 11.1082 10.6981C9.68458 15.1724 8.04323 24.8886 16.465 33.2956C16.846 33.6744 17.4191 33.7835 17.9127 33.5713C18.4063 33.3591 18.7213 32.8681 18.7085 32.331L18.6396 29.5958L22.5053 30.0698C22.9309 30.1221 23.3553 29.9635 23.6424 29.6449C23.9294 29.3264 24.043 28.8878 23.9468 28.4699L23.1282 24.9175L25.3442 23.9116C25.7576 23.7234 26.0304 23.3192 26.0502 22.8655C26.07 22.4118 25.8334 21.9853 25.4379 21.7619L24.2004 21.0633Z" fill="#F55B4B"/>
<path d="M57.2451 21.0633C57.2451 21.0633 66.3945 16.7916 68.8062 10.6389C68.9346 10.3198 69.2496 10.1157 69.5933 10.129C69.937 10.1423 70.2353 10.3701 70.3387 10.6981C71.7609 15.178 73.4036 24.8913 64.9791 33.297C64.5982 33.6768 64.0245 33.7865 63.5303 33.5742C63.036 33.3618 62.7208 32.8701 62.7342 32.3324L62.8044 29.5971L58.9388 30.0712C58.5132 30.1235 58.0888 29.9649 57.8017 29.6463C57.5147 29.3277 57.401 28.8892 57.4973 28.4713L58.3145 24.9189L56.0985 23.913C55.6851 23.7248 55.4123 23.3206 55.3925 22.8669C55.3727 22.4131 55.6093 21.9867 56.0048 21.7633L57.2451 21.0633Z" fill="#F55B4B"/>
<path d="M62.7698 29.9967L66.0374 29.5957L65.9698 32.2221C65.6492 32.5822 65.3106 32.9401 64.9542 33.2956C64.5731 33.6743 64.0001 33.7834 63.5064 33.5712C63.0128 33.359 62.6978 32.8681 62.7106 32.331L62.7698 29.9967Z" fill="#DB4F45"/>
<path d="M70.8775 12.8036C67.5245 17.7753 60.474 21.0715 60.474 21.0715L59.2337 21.7687C58.8382 21.9921 58.6016 22.4185 58.6214 22.8723C58.6412 23.326 58.914 23.7302 59.3274 23.9184L61.5434 24.9243L60.7262 28.4767C60.6123 28.9688 60.7907 29.4826 61.1851 29.7982L58.9098 30.0738C58.4844 30.1256 58.0604 29.9668 57.7737 29.6483C57.487 29.3298 57.3736 28.8916 57.4697 28.474L58.2869 24.9215L56.0709 23.9156C55.6575 23.7275 55.3847 23.3233 55.3649 22.8695C55.3451 22.4158 55.5817 21.9894 55.9772 21.766L57.2175 21.0687C57.2175 21.0687 66.3655 16.797 68.7772 10.6429C68.9056 10.3238 69.2206 10.1198 69.5643 10.1331C69.908 10.1463 70.2064 10.3741 70.3097 10.7022C70.504 11.314 70.7011 12.0154 70.8775 12.8036Z" fill="#DB4F45"/>
<path d="M18.7746 29.9981L15.5071 29.5957L15.5746 32.2221C15.8953 32.5822 16.2338 32.9401 16.5903 33.2956C16.9713 33.6743 17.5444 33.7834 18.038 33.5712C18.5316 33.359 18.8466 32.8681 18.8339 32.331L18.7746 29.9981Z" fill="#DB4F45"/>
<path d="M10.5198 12.8036C13.8714 17.7754 20.9232 21.0715 20.9232 21.0715L22.1636 21.7687C22.5591 21.9919 22.796 22.4182 22.7765 22.8719C22.757 23.3256 22.4845 23.73 22.0712 23.9184L19.8552 24.9243L20.6724 28.4767C20.7867 28.9689 20.6082 29.4828 20.2135 29.7982L22.4888 30.0738C22.9142 30.1256 23.3382 29.9668 23.6249 29.6483C23.9116 29.3298 24.0251 28.8916 23.9289 28.474L23.1117 24.9216L25.3277 23.9156C25.7411 23.7275 26.0139 23.3233 26.0337 22.8695C26.0535 22.4158 25.8169 21.9894 25.4214 21.766L24.1811 21.0687C24.1811 21.0687 15.0318 16.797 12.62 10.6388C12.4895 10.3231 12.176 10.1222 11.8345 10.1354C11.4931 10.1486 11.1961 10.3732 11.0903 10.698C10.8932 11.314 10.6962 12.0168 10.5198 12.8036Z" fill="#DB4F45"/>
<path d="M29.1892 49.9512C34.5786 49.9512 38.9477 45.5827 38.9477 40.1938C38.9477 34.8048 34.5786 30.4363 29.1892 30.4363C23.7997 30.4363 19.4307 34.8048 19.4307 40.1938C19.4307 45.5827 23.7997 49.9512 29.1892 49.9512Z" fill="white"/>
<path d="M29.1891 46.4925C32.3698 46.4925 34.9483 43.9143 34.9483 40.7339C34.9483 37.5535 32.3698 34.9753 29.1891 34.9753C26.0084 34.9753 23.4299 37.5535 23.4299 40.7339C23.4299 43.9143 26.0084 46.4925 29.1891 46.4925Z" fill="#3586CB"/>
<path d="M29.1367 45.0483C31.5197 45.0483 33.4516 43.1167 33.4516 40.7339C33.4516 38.3511 31.5197 36.4194 29.1367 36.4194C26.7536 36.4194 24.8218 38.3511 24.8218 40.7339C24.8218 43.1167 26.7536 45.0483 29.1367 45.0483Z" fill="#27273D"/>
<path d="M31.7056 39.2043C32.5009 39.2043 33.1456 38.5596 33.1456 37.7643C33.1456 36.9691 32.5009 36.3243 31.7056 36.3243C30.9103 36.3243 30.2656 36.9691 30.2656 37.7643C30.2656 38.5596 30.9103 39.2043 31.7056 39.2043Z" fill="white"/>
<path d="M29.1369 42.3572C30.0335 42.3572 30.7603 41.6305 30.7603 40.734C30.7603 39.8375 30.0335 39.1107 29.1369 39.1107C28.2403 39.1107 27.5134 39.8375 27.5134 40.734C27.5134 41.6305 28.2403 42.3572 29.1369 42.3572Z" fill="white"/>
<path d="M52.8461 49.9512C58.2356 49.9512 62.6047 45.5827 62.6047 40.1938C62.6047 34.8048 58.2356 30.4363 52.8461 30.4363C47.4567 30.4363 43.0876 34.8048 43.0876 40.1938C43.0876 45.5827 47.4567 49.9512 52.8461 49.9512Z" fill="white"/>
<path d="M52.8461 46.4925C56.0268 46.4925 58.6053 43.9143 58.6053 40.7339C58.6053 37.5535 56.0268 34.9753 52.8461 34.9753C49.6654 34.9753 47.0869 37.5535 47.0869 40.7339C47.0869 43.9143 49.6654 46.4925 52.8461 46.4925Z" fill="#3586CB"/>
<path d="M52.7937 45.0483C55.1767 45.0483 57.1086 43.1167 57.1086 40.7339C57.1086 38.3511 55.1767 36.4194 52.7937 36.4194C50.4106 36.4194 48.4788 38.3511 48.4788 40.7339C48.4788 43.1167 50.4106 45.0483 52.7937 45.0483Z" fill="#27273D"/>
<path d="M55.3626 39.2043C56.1579 39.2043 56.8026 38.5596 56.8026 37.7643C56.8026 36.9691 56.1579 36.3243 55.3626 36.3243C54.5673 36.3243 53.9226 36.9691 53.9226 37.7643C53.9226 38.5596 54.5673 39.2043 55.3626 39.2043Z" fill="white"/>
<path d="M52.7936 42.3572C53.6902 42.3572 54.417 41.6305 54.417 40.734C54.417 39.8375 53.6902 39.1107 52.7936 39.1107C51.897 39.1107 51.1702 39.8375 51.1702 40.734C51.1702 41.6305 51.897 42.3572 52.7936 42.3572Z" fill="white"/>
<path d="M55.0043 63.6772C54.9292 64.1667 54.7756 64.6408 54.5495 65.0814C53.95 66.2596 52.8462 67.2586 51.3798 68.0261C50.061 68.7151 48.4444 69.2222 46.635 69.5006C44.2089 69.855 41.7432 69.841 39.3212 69.4592C38.7976 69.3807 38.2808 69.287 37.775 69.1836C36.0443 68.8219 34.3591 68.2692 32.7503 67.5356C31.3819 66.9233 30.1016 66.1303 28.944 65.1779C26.8533 63.4182 25.7357 61.3388 26.0499 59.2925C26.1987 58.3155 27.1014 57.3757 28.5043 56.5172C29.6248 55.8283 31.0635 55.1971 32.6911 54.6391C33.5262 54.3524 34.411 54.0879 35.3274 53.8412C37.3672 53.3041 39.4384 52.894 41.529 52.6134C42.761 52.4481 43.9848 52.3282 45.1645 52.2634C47.2124 52.1504 49.1252 52.1973 50.7211 52.4384C51.2037 52.5084 51.6818 52.6064 52.153 52.7319C58.327 54.3841 55.6258 59.5626 55.0043 63.6772Z" fill="#27273D"/>
<path d="M32.6855 54.6447V58.8902C32.6855 60.0462 31.7483 60.9834 30.5922 60.9834C29.436 60.9834 28.4988 60.0462 28.4988 58.8902V56.5228C29.6192 55.8366 31.058 55.2027 32.6855 54.6447Z" fill="white"/>
<path d="M41.5261 52.619V55.9055C41.5261 57.0616 40.1369 57.9987 38.4239 57.9987C36.7109 57.9987 35.3218 57.0616 35.3218 55.9055V53.8468C37.3625 53.3096 39.4346 52.8995 41.5261 52.619Z" fill="white"/>
<path d="M52.1502 52.7376L49.9452 56.5435C49.6727 57.0133 49.1657 57.2972 48.6227 57.284C48.0797 57.2708 47.5871 56.9626 47.3378 56.4801L45.1631 52.269C47.211 52.156 49.1238 52.2029 50.7197 52.444C51.2018 52.5141 51.6794 52.6121 52.1502 52.7376Z" fill="white"/>
<path d="M62.6046 62.2539C63.9989 62.2539 65.1293 61.1236 65.1293 59.7294C65.1293 58.3352 63.9989 57.205 62.6046 57.205C61.2102 57.205 60.0798 58.3352 60.0798 59.7294C60.0798 61.1236 61.2102 62.2539 62.6046 62.2539Z" fill="#F6D372"/>
<path d="M62.6045 56.2596C63.5924 56.2596 64.3933 55.4588 64.3933 54.471C64.3933 53.4832 63.5924 52.6824 62.6045 52.6824C61.6166 52.6824 60.8157 53.4832 60.8157 54.471C60.8157 55.4588 61.6166 56.2596 62.6045 56.2596Z" fill="#F6D372"/>
<path d="M54.5494 65.0731C53.9499 66.2513 52.846 67.2503 51.3797 68.0179C50.0609 68.7069 48.4443 69.214 46.6348 69.4923C44.2088 69.8467 41.7431 69.8328 39.3211 69.451C38.7974 69.371 38.2806 69.2787 37.7749 69.1754C36.0447 68.8157 34.3595 68.2657 32.7502 67.5356C31.382 66.9229 30.1018 66.1299 28.9438 65.1779C31.6574 63.4168 36.4147 62.2496 41.8279 62.2496C47.1365 62.2469 51.8125 63.3686 54.5494 65.0731Z" fill="#DB1B1B"/>
<path d="M37.7708 69.1782C36.0417 68.818 34.3579 68.2671 32.7502 67.5357L34.5335 63.8592C35.0104 62.874 36.0302 62.9815 36.3251 64.0466L37.7708 69.1782Z" fill="white"/>
<path d="M51.3756 68.0262C50.0568 68.7151 48.4402 69.2222 46.6307 69.5006L46.4929 65.3101C46.4571 64.216 47.4094 63.8371 48.1715 64.6418L51.3756 68.0262Z" fill="white"/>
</svg>
