<svg width="1000" height="1000" viewBox="0 0 1000 1000" fill="none" xmlns="http://www.w3.org/2000/svg">
<g clip-path="url(#clip0_548_25704)">
<g clip-path="url(#clip1_548_25704)">
<path style="mix-blend-mode:screen" d="M782.847 782.851C939.058 626.639 939.058 373.371 782.847 217.159C626.635 60.9478 373.367 60.9478 217.155 217.159C60.9439 373.371 60.9439 626.639 217.155 782.851C373.367 939.062 626.635 939.062 782.847 782.851Z" fill="url(#paint0_radial_548_25704)"/>
<path style="mix-blend-mode:screen" d="M725.207 725.211C849.585 600.833 849.585 399.177 725.207 274.799C600.829 150.421 399.173 150.421 274.796 274.799C150.418 399.177 150.418 600.833 274.796 725.211C399.173 849.588 600.829 849.588 725.207 725.211Z" fill="url(#paint1_radial_548_25704)"/>
<path style="mix-blend-mode:screen" d="M714.905 714.909C833.594 596.22 833.594 403.788 714.905 285.1C596.217 166.412 403.785 166.412 285.097 285.1C166.408 403.788 166.408 596.22 285.097 714.909C403.785 833.597 596.217 833.597 714.905 714.909Z" fill="url(#paint2_radial_548_25704)"/>
<path fill-rule="evenodd" clip-rule="evenodd" d="M788.966 509.093C788.966 592.65 753.528 667.889 696.838 720.614C669.717 745.88 637.794 765.929 602.558 779.311C570.677 791.441 536.145 798.056 500.004 798.056C487.171 798.056 474.492 797.2 462.109 795.599C406.317 788.281 355.599 765.073 314.494 730.592C284.62 705.58 259.862 674.605 242.067 639.514C230.886 617.458 222.467 593.802 217.258 568.993C217.207 568.942 217.207 568.84 217.207 568.739C213.201 549.486 211.041 529.54 211.041 509.093C211.041 452.048 227.583 398.873 256.101 354.058C268.23 335.009 282.469 317.569 298.553 301.925C350.635 251.3 421.656 220.122 500.004 220.122C506.322 220.122 512.539 220.325 518.748 220.723C551.577 222.832 582.908 230.396 611.782 242.576C616.847 244.685 621.811 246.938 626.723 249.344C654.793 263.031 680.254 281.123 702.31 302.772C755.789 355.151 788.974 428.23 788.974 509.085L788.966 509.093Z" fill="url(#paint3_radial_548_25704)"/>
<path fill-rule="evenodd" clip-rule="evenodd" d="M347.426 700.667C323.201 700.667 278.615 665.381 257.423 619.88C230.904 563.097 230.701 503.409 243.516 492.407C247.2 489.197 252.164 487.562 258.22 487.562C262.15 487.562 266.554 488.265 271.323 489.646C302.035 498.531 344.393 540.915 362.714 583.332C380.662 624.878 375.334 657.894 370.278 678.078C365.704 696.669 355.337 700.625 347.443 700.667H347.417H347.426Z" fill="url(#paint4_linear_548_25704)"/>
<path fill-rule="evenodd" clip-rule="evenodd" d="M365.415 676.858C362.561 688.487 356.843 695.602 347.416 695.653C326.512 695.653 282.807 662.518 261.954 617.763C235.341 560.768 236.841 504.731 246.767 496.21C251.782 491.848 260.048 491.602 269.924 494.456C300.95 503.426 347.713 543.43 357.843 584.526C366.465 619.516 370.726 655.649 365.415 676.858Z" fill="url(#paint5_linear_548_25704)"/>
<path fill-rule="evenodd" clip-rule="evenodd" d="M265.741 468.572C262.531 468.674 259.778 467.514 257.771 465.21C249.885 455.901 261.404 423.969 266.503 412.442C274.677 393.969 282.749 384.465 290.499 384.194C293.37 384.101 296.207 385.134 298.689 387.125H298.808L300.315 388.573C309.15 397.391 313.241 417.431 305.245 433.21C299.451 444.636 281.309 464.735 269.07 468.039C267.943 468.352 266.808 468.539 265.732 468.572H265.741Z" fill="url(#paint6_linear_548_25704)"/>
<path fill-rule="evenodd" clip-rule="evenodd" d="M302.009 431.313C296.343 442.477 278.217 462.406 267.079 465.422C264.241 466.218 261.878 465.837 260.261 463.982C252.028 454.267 275.795 387.515 291.117 386.981C293.421 386.905 295.716 388.04 297.689 390.132H297.74C305.092 397.467 309.649 416.228 302.001 431.322L302.009 431.313Z" fill="url(#paint7_linear_548_25704)"/>
<path fill-rule="evenodd" clip-rule="evenodd" d="M674.35 693.222C664.627 693.222 657.444 689.411 654.124 682.491C647.729 669.032 651.007 619.914 670.513 576.514C699.455 512.032 739.171 494.99 756.137 494.99C757.339 494.99 758.449 495.066 759.457 495.21C760.109 495.312 760.668 495.431 761.236 495.617C765.632 496.693 769.477 500.259 772.289 506.094C783.715 529.836 777.142 588.457 758.491 629.079C741.094 666.88 700.192 693.222 674.359 693.222H674.35Z" fill="url(#paint8_linear_548_25704)"/>
<path fill-rule="evenodd" clip-rule="evenodd" d="M753.934 626.987C731.032 676.757 669.124 702.175 658.647 680.322C653.336 669.142 655.488 622.176 675.087 578.572C704.512 513.006 744.761 498.175 758.745 500.174C759.05 500.225 759.347 500.276 759.652 500.377C779.455 505.29 776.439 577.971 753.934 626.995V626.987Z" fill="url(#paint9_linear_548_25704)"/>
<path fill-rule="evenodd" clip-rule="evenodd" d="M749.809 490.374C747.599 490.374 745.591 489.841 743.838 488.782C731.904 481.599 723.942 434.625 732.166 419.929C734.428 415.847 737.46 414.525 739.603 414.136C740.492 413.958 741.483 413.865 742.5 413.865C755.967 413.865 769.536 429.721 774.076 450.743C777.261 465.32 770.908 477.407 763.895 483.861C759.507 487.986 754.358 490.374 749.809 490.374Z" fill="url(#paint10_linear_548_25704)"/>
<path fill-rule="evenodd" clip-rule="evenodd" d="M760.499 480.176C755.586 484.784 749.92 486.588 746.413 484.487C736.842 478.719 729.473 435.014 736.537 422.385C737.537 420.581 738.841 419.378 740.501 419.074C750.327 417.117 764.514 430.203 769.172 451.802C771.832 463.982 766.818 474.357 760.499 480.176Z" fill="url(#paint11_linear_548_25704)"/>
<path fill-rule="evenodd" clip-rule="evenodd" d="M518.13 794.388C516.368 794.388 514.539 794.363 512.633 794.303C483.022 793.422 460.331 780.811 456.299 769.622C454.791 765.446 455.799 761.279 458.993 758.467C468.335 750.234 506.823 749.819 514.446 749.819C539.39 749.819 569.695 752.258 572.397 763.896C573.083 766.86 572.923 771.443 568.289 776.457C561.429 784.004 551.993 794.388 518.13 794.388Z" fill="url(#paint12_linear_548_25704)"/>
<path fill-rule="evenodd" clip-rule="evenodd" d="M564.614 773.052C557.592 780.768 548.766 790.356 512.786 789.289C477.821 788.256 453.894 769.639 462.313 762.219C473.688 752.191 564.419 751.64 567.527 765.023C568.129 767.631 567.129 770.333 564.622 773.044L564.614 773.052Z" fill="url(#paint13_linear_548_25704)"/>
<path fill-rule="evenodd" clip-rule="evenodd" d="M658.088 513.285C638.776 513.285 623.92 504.104 616.246 487.426C597.908 447.456 597.908 369.202 611.274 337.711C614.654 329.749 618.66 324.921 623.53 322.939C628.383 320.932 633.448 319.907 638.564 319.907C655.64 319.907 673.342 331.333 689.765 352.948C716.666 388.353 735.41 445.839 728.346 471.232C726.085 479.422 719.004 488.138 708.399 495.761C693.264 506.73 674.452 513.277 658.096 513.277L658.088 513.285Z" fill="url(#paint14_linear_548_25704)"/>
<path fill-rule="evenodd" clip-rule="evenodd" d="M723.502 469.902C721.495 477.17 714.727 485.038 705.461 491.704C680.195 509.999 636.591 519.672 620.803 485.335C602.957 446.44 603.059 369.897 615.891 339.676C618.55 333.408 621.701 329.097 625.411 327.598C679.898 305.042 734.081 431.906 723.502 469.902Z" fill="url(#paint15_linear_548_25704)"/>
<path fill-rule="evenodd" clip-rule="evenodd" d="M365.415 676.859C337.193 686.938 293.589 651.643 270.831 594.107C250.782 543.583 265.969 503.435 269.924 494.457C300.95 503.427 347.713 543.431 357.843 584.527C366.465 619.517 370.726 655.65 365.415 676.859Z" fill="#FFFF45"/>
<path fill-rule="evenodd" clip-rule="evenodd" d="M564.613 773.053C504.764 791.551 462.312 762.228 462.312 762.228C473.688 752.199 564.418 751.649 567.527 765.031C568.128 767.64 567.129 770.342 564.622 773.053H564.613Z" fill="#FFFF45"/>
<path fill-rule="evenodd" clip-rule="evenodd" d="M744.406 622.532C703.606 689.148 658.647 680.322 658.647 680.322C653.336 669.142 655.488 622.176 675.087 578.572C704.512 513.006 744.761 498.175 758.745 500.174C759.05 500.225 759.347 500.276 759.652 500.377C767.52 524.686 773.839 574.515 744.414 622.532H744.406Z" fill="#FFFF45"/>
<path fill-rule="evenodd" clip-rule="evenodd" d="M705.461 491.704C680.195 509.999 636.591 519.672 620.803 485.334C602.957 446.44 603.059 369.897 615.891 339.676C627.173 338.168 647.966 341.929 672.233 377.469C705.562 426.29 716.743 463.787 705.469 491.704H705.461Z" fill="#FFFF45"/>
<path fill-rule="evenodd" clip-rule="evenodd" d="M760.499 480.177C755.586 484.784 749.92 486.588 746.413 484.488C736.842 478.72 729.473 435.015 736.537 422.386C744.11 426.748 755.332 435.819 758.339 452.107C760.245 462.33 760.694 472.105 760.499 480.177Z" fill="#FFFF45"/>
<path fill-rule="evenodd" clip-rule="evenodd" d="M302.009 431.313C296.343 442.476 278.217 462.406 267.079 465.422C267.791 460.983 276.278 409.164 297.69 390.132H297.741C305.092 397.467 309.649 416.228 302.001 431.321L302.009 431.313Z" fill="#FFFF45"/>
<path style="mix-blend-mode:soft-light" opacity="0.3" fill-rule="evenodd" clip-rule="evenodd" d="M649.474 577.369C646.619 584.239 643.409 590.049 638.996 596.012C635.634 600.526 631.178 603.931 628.519 608.996C619.447 626.14 621.353 645.384 616.034 663.382C613.18 673.208 605.709 681.025 602.804 690.952C601.5 695.467 602.203 699.524 602.05 704.182C601.847 709.595 599.094 713.304 595.833 717.514C592.327 722.122 587.363 725.688 581.951 727.839C577.589 729.592 572.879 728.889 568.212 728.889C557.837 728.889 547.808 727.483 537.788 724.578C528.615 721.918 520.094 717.658 510.82 715.058C504.45 713.304 500.097 713.855 493.727 715.159C488.315 716.261 482.2 715.659 476.686 715.557C466.962 715.354 457.789 720.868 449.167 725.129C442.797 728.288 438.638 731.896 436.182 738.816C433.328 746.685 433.429 754.003 423.951 757.111C418.437 758.915 411.721 757.01 406.308 755.909C401.345 754.858 395.983 755.46 390.918 755.51C381.042 755.561 371.819 752.605 363.103 747.989C352.88 742.577 343.859 734.302 335.635 726.433C331.171 722.173 325.462 719.767 320.846 715.608C314.477 709.993 308.217 704.928 302.246 698.863C293.225 689.69 283.349 680.314 273.279 672.301C266.113 666.635 259.947 659.622 253.882 653.007C248.817 647.493 245.81 639.421 242.05 633.06C234.681 620.482 228.667 605.337 225.059 591.209C220.849 574.82 216.089 556.974 216.284 539.932C216.487 525.55 214.429 511.608 214.429 497.175C213.175 524.593 214.581 547.352 217.182 568.755C213.175 549.503 211.016 529.556 211.016 509.11C211.016 452.064 227.558 398.89 256.076 354.075C268.205 335.026 282.443 317.586 298.528 301.942C350.61 251.317 421.631 220.139 499.978 220.139C506.297 220.139 512.514 220.342 518.722 220.74C551.552 222.849 582.883 230.413 611.757 242.593C619.176 250.766 626.596 259.482 631.958 268.706C634.16 272.517 635.922 276.676 638.124 280.487C640.08 283.842 642.181 285.654 641.58 289.813C641.232 292.269 639.521 295.378 638.522 297.682C635.312 305.398 626.342 311.064 619.473 315.325C609.902 321.338 598.721 323.795 588.549 329.063C581.985 332.417 579.774 335.475 575.319 340.989C573.066 343.792 570.059 346.003 568.102 349.01C562.538 357.581 559.582 369.71 559.98 379.79C560.683 399.186 575.717 413.272 579.223 431.668C582.332 447.558 580.079 464.397 585.136 480.041C590.751 497.48 606.09 511.82 620.472 521.942C626.435 526.151 632.305 529.658 637.565 534.723C642.477 539.432 649.397 542.143 652.904 548.004C658.714 557.727 653.251 568.154 649.448 577.378L649.474 577.369Z" fill="url(#paint16_linear_548_25704)"/>
<path fill-rule="evenodd" clip-rule="evenodd" d="M626.715 249.352C625.767 249.454 624.81 249.555 623.861 249.75C620.6 250.351 618.051 250.055 614.84 249.149C612.537 248.496 610.876 247.548 608.42 247.141C604.914 246.591 601.653 245.083 598.146 244.634C594.436 244.134 591.226 242.678 587.72 241.424C584.967 240.425 583.51 240.772 580.85 241.424C578.191 242.127 576.336 241.026 573.981 240.018C571.322 238.866 568.671 238.663 565.858 238.112C558.54 236.605 551.273 234.25 544.006 232.395C539.491 231.243 535.333 231.243 530.725 231.192C527.117 231.141 523.856 232.192 520.247 232.192C517.842 232.192 515.784 231.794 513.378 231.438C510.922 230.989 508.415 231.489 505.959 231.133C502.3 230.582 500.343 230.032 496.633 231.184C493.872 232.09 491.721 231.988 488.968 232.132C485.91 232.285 482.454 233.081 479.448 233.784C474.035 235.038 468.115 236.037 462.558 235.935C459.153 235.935 454.139 234.987 450.878 236.139C448.769 236.893 447.719 239.146 446.271 240.653C443.467 243.558 440.003 246.167 437.648 249.428C435.293 252.689 432.634 256.043 432.837 260.151C433.04 263.709 434.692 267.867 436.242 271.128C437.843 274.584 438.393 277.743 434.836 280.047C430.372 283.003 425.214 285.714 420.098 287.162C416.693 288.161 413.636 288.763 410.773 286.307C409.722 285.4 409.07 283.647 407.766 282.944C406.411 282.241 405.005 282.944 403.556 283.393C399.948 284.443 396.442 285.646 392.782 286.247C390.529 286.594 388.573 287.797 386.371 288.204C383.711 288.704 381.805 286.747 379.053 287.399C375.19 288.305 371.336 289.906 367.322 290.11C364.467 290.262 360.859 289.008 358.454 287.552C357.048 286.747 356.7 285.951 355.091 286.4C353.787 286.696 351.83 288.305 351.127 289.305C350.178 290.66 349.823 292.413 348.874 293.819C347.875 295.369 346.917 296.877 346.02 298.529C344.368 301.739 342.411 304.746 340.302 307.6C338.795 309.607 337.744 312.309 336.093 314.164C335.237 315.164 333.382 315.867 332.281 316.621C329.274 318.73 326.115 320.627 323.21 322.888C317.594 327.301 312.284 332.163 306.566 336.424C302.204 339.684 296.089 341.59 291.126 343.64C288.017 344.894 284.807 345.791 281.698 347.096C280.699 347.494 278.844 347.951 277.989 348.697C276.887 349.645 276.286 351.407 275.278 352.703C272.568 356.015 269.713 359.318 267.664 363.129C266.41 365.332 265.656 367.593 264.86 369.999C263.759 373.26 262.006 376.266 260.896 379.519C258.643 386.337 258.186 393.452 255.687 400.22C254.23 404.184 252.13 407.792 250.326 411.4C247.217 417.515 246.768 424.783 245.862 431.55C245.362 435.514 245.557 440.071 246.26 443.933C247.014 448.092 246.81 452.403 246.76 456.664C246.709 461.178 243.854 465.583 240.992 468.996C238.383 472.155 234.427 473.358 231.522 476.162C229.066 478.567 226.11 481.328 225.06 484.733C224.611 486.241 225.009 487.943 224.763 489.544C224.111 493.102 223.213 496.464 222.705 500.072C222.154 504.536 222.053 508.746 222.053 513.252C222.053 515.505 221.9 517.817 222.002 520.07C222.103 522.23 222.9 524.229 223.052 526.389C223.154 527.896 222.849 529.396 223.052 530.903C223.357 532.606 224.001 534.359 224.407 536.019C225.407 540.025 226.161 543.938 226.914 547.945C227.617 551.655 229.074 555.314 230.226 558.922C231.827 563.835 232.886 568.9 233.834 574.007C234.588 577.819 234.537 581.774 235.088 585.636C235.537 588.745 236.24 591.904 236.392 595.013C236.545 599.722 235.393 604.44 235.342 609.2C235.291 617.221 238.501 625.242 240.356 632.958C240.907 635.118 241.457 637.32 242.059 639.472C222.214 600.272 211.033 555.966 211.033 509.051C211.033 452.005 227.575 398.83 256.094 354.016C268.223 334.967 282.461 317.527 298.545 301.883C350.627 251.258 421.648 220.08 499.996 220.08C506.314 220.08 512.531 220.283 518.74 220.681C557.287 223.137 593.776 233.166 626.707 249.301L626.715 249.352Z" fill="url(#paint17_linear_548_25704)"/>
<path style="mix-blend-mode:soft-light" opacity="0.3" fill-rule="evenodd" clip-rule="evenodd" d="M601.313 728.881C606.988 725.493 612.502 721.877 618.279 718.709C624.496 715.304 630.645 712.949 637.209 710.391C642.063 708.502 642.571 708.35 646.492 711.475C650.092 714.338 654.446 714.948 658.96 714.982C665.143 715.033 671.869 715.516 672.444 723.376C673.232 734.158 656.944 743.551 649.245 747.905C643.028 751.42 636.269 753.792 629.79 756.765C624.318 759.272 618.118 762.185 612.079 763.015C606.861 763.727 603.389 761.279 600.026 757.408C595.986 752.758 596.257 748.303 596.257 742.501C596.257 735.767 595.927 731.185 601.322 728.89L601.313 728.881Z" fill="url(#paint18_linear_548_25704)"/>
<path style="mix-blend-mode:soft-light" opacity="0.3" fill-rule="evenodd" clip-rule="evenodd" d="M687.428 324.93C691.764 333.51 694.856 345.071 701.403 352.211C704.884 355.998 707.578 356.641 712.397 356.582C714.777 356.557 719.173 357.471 721.384 356.675C724.509 355.549 724.323 352.076 724.213 349.018C723.789 337.626 716.056 327.056 708.908 318.848C704.266 313.512 696.508 307.033 688.91 308.481C686.682 313.673 686.157 319.416 687.419 324.921L687.428 324.93Z" fill="url(#paint19_linear_548_25704)"/>
<path style="mix-blend-mode:screen" fill-rule="evenodd" clip-rule="evenodd" d="M328.639 734.785C298.765 709.773 274.007 678.798 256.212 643.707C245.031 621.651 236.612 597.994 231.403 573.186C231.352 573.135 231.352 573.033 231.352 572.931C227.346 553.679 225.186 533.732 225.186 513.286C225.186 456.24 241.728 403.066 270.246 358.251C282.375 339.202 296.613 321.762 312.698 306.118C364.78 255.493 435.801 224.315 514.148 224.315C520.467 224.315 526.684 224.518 532.893 224.916C552.484 226.17 571.533 229.414 589.853 234.386C567.272 226.983 543.438 222.307 518.748 220.723C512.531 220.325 506.314 220.122 500.004 220.122C421.656 220.122 350.635 251.3 298.553 301.925C282.46 317.561 268.23 335.009 256.101 354.058C227.583 398.873 211.041 452.048 211.041 509.093C211.041 529.548 213.192 549.495 217.207 568.739C217.207 568.84 217.207 568.942 217.258 568.993C222.467 593.802 230.895 617.467 242.067 639.514C259.862 674.597 284.62 705.58 314.494 730.592C346.154 757.154 383.533 776.991 424.527 788.061C389.063 776.491 356.623 758.264 328.639 734.785Z" fill="url(#paint20_radial_548_25704)"/>
<path fill-rule="evenodd" clip-rule="evenodd" d="M528.344 779.701C527.522 780.845 526.21 781.819 527.345 783.03C527.92 783.648 529.039 784.139 529.852 784.351C531.198 784.698 533.595 784.495 534.663 783.64C535.73 782.784 535.569 781.658 534.9 780.65C533.57 778.651 531.944 778.354 529.775 779.227L528.352 779.701H528.344Z" fill="#FFFF45"/>
<path fill-rule="evenodd" clip-rule="evenodd" d="M339.405 294.734C336.372 295.734 335.187 296.022 332.129 298.554C329.698 300.562 327.081 302.417 324.726 304.627C321.584 307.583 320.661 310.7 319.72 313.91C318.797 317.036 317.933 320.551 319.195 322.27C319.864 323.177 321.872 323.126 323.405 322.702C325.641 322.076 328.14 320.492 330.528 318.975C333.569 317.036 336.305 314.148 338.558 310.819C340.108 308.54 341.065 305.932 342.132 303.636C342.886 302.027 343.199 300.621 343.674 299.096C344.089 297.767 344.123 296.92 343.868 295.996C343.504 294.684 342.708 294.565 339.413 294.726L339.405 294.734Z" fill="#FFFF45"/>
<path fill-rule="evenodd" clip-rule="evenodd" d="M373.615 289.474C372.378 290.499 369.685 292.422 371.819 293.921C372.395 294.327 372.903 294.116 373.513 294.285C373.988 294.421 374.106 294.793 374.665 294.582C376.402 293.921 375.707 288.991 373.75 289.982L373.615 289.474Z" fill="#FFFF45"/>
<path fill-rule="evenodd" clip-rule="evenodd" d="M382.584 307.388C383.372 306.948 384.185 306.719 385.015 306.702C385.201 307.769 386.184 309.861 384.659 310.692C383.38 311.386 383.77 309.099 383.16 308.574L382.584 307.388Z" fill="#FFFF45"/>
<path fill-rule="evenodd" clip-rule="evenodd" d="M400.066 307.888C401.701 308.531 403.319 309.209 404.919 309.912C405.436 309.455 406.224 309.539 406.834 309.133C407.621 308.616 408.324 307.515 408.629 306.6C409.087 305.22 408.384 304.085 407.748 303.034C407.325 302.331 406.918 301.29 406.275 300.815C405.521 300.256 404.047 300.477 403.259 300.849C402.285 301.315 401.574 302.315 400.922 303.204C400.312 304.042 399.6 305.431 399.566 306.482C399.532 307.617 400.439 308.811 401.269 309.387L400.066 307.888Z" fill="#FFFF45"/>
<path fill-rule="evenodd" clip-rule="evenodd" d="M414.771 642.157C416.405 642.8 418.023 643.478 419.624 644.181C420.14 643.723 420.928 643.808 421.538 643.402C422.326 642.885 423.029 641.784 423.334 640.869C423.791 639.488 423.088 638.353 422.453 637.295C422.029 636.592 421.623 635.55 420.979 635.076C420.225 634.517 418.751 634.737 417.964 635.109C416.99 635.575 416.278 636.575 415.626 637.464C415.016 638.303 414.305 639.692 414.279 640.742C414.245 641.877 415.152 643.071 415.982 643.647L414.779 642.14L414.771 642.157Z" fill="#FFFF45"/>
<path fill-rule="evenodd" clip-rule="evenodd" d="M353.413 323.566C352.71 324.057 352.143 324.667 351.702 325.404C352.371 326.242 352.702 327.03 353.837 327.361C354.294 327.488 354.777 327.505 355.149 327.149C355.624 326.683 355.37 326.166 355.497 325.709C355.81 324.599 356.115 324.311 355.488 323.295C355.107 322.685 354.845 322.439 354.184 322.439C353.718 322.439 352.71 322.567 352.473 323.092L353.413 323.574V323.566Z" fill="#FFFF45"/>
<path fill-rule="evenodd" clip-rule="evenodd" d="M357.123 349.45C357.005 349.73 355.743 352.931 357.377 352.008C358.199 351.542 357.903 350.289 357.352 349.925C357.377 349.823 357.411 349.713 357.437 349.611L357.123 349.45Z" fill="#FFFF45"/>
<path fill-rule="evenodd" clip-rule="evenodd" d="M333 393.528C331.908 394.959 331.772 395.535 331.272 397.017C331.738 397.449 332.653 397.695 333.254 397.67C334.212 397.627 334.254 397.322 334.288 396.408C334.313 395.671 334.618 395.086 334.44 394.375C334.254 393.646 333.534 392.901 332.687 393.367L333 393.528Z" fill="#FFFF45"/>
<path fill-rule="evenodd" clip-rule="evenodd" d="M369.947 326.691C370.574 327.267 370.964 327.978 371.125 328.825C370.252 329.046 370.151 328.19 370.023 327.513C369.82 326.428 370.32 326.767 370.828 325.903C370.921 325.92 371.023 325.946 371.116 325.963L369.947 326.7V326.691Z" fill="#FFFF45"/>
<path fill-rule="evenodd" clip-rule="evenodd" d="M361.401 292.557C360.706 293.04 360.139 293.65 359.698 294.387C360.113 294.895 359.91 295.818 360.867 295.75C361.545 295.7 362.095 294.98 362.426 294.421C362.807 293.768 362.841 293.243 362.883 292.54C362.908 292.184 362.9 290.651 362.248 291.659L361.392 292.557H361.401Z" fill="#FFFF45"/>
<path fill-rule="evenodd" clip-rule="evenodd" d="M472.053 274.855C472.264 274.067 472.383 272.975 472.798 272.263C472.917 272.06 473.213 271.882 473.357 271.67C473.84 270.976 473.687 270.857 474.475 270.84C475.373 270.815 475.957 270.908 476.669 271.475C479.1 273.415 472.925 274.914 472.696 273.034L472.053 274.855Z" fill="#FFFF45"/>
<path fill-rule="evenodd" clip-rule="evenodd" d="M492.779 282.52C492.466 283.926 491.568 285.823 492.864 286.755C493.982 287.56 496.328 286.298 497.218 285.493C498.793 284.053 500.716 281.326 499.208 279.318C498.327 278.141 495.837 277.243 494.397 277.379C491.45 277.658 490.594 281.173 490.188 283.985L492.779 282.529V282.52Z" fill="#FFFF45"/>
<path fill-rule="evenodd" clip-rule="evenodd" d="M501.85 254.044C501.536 251.63 501.096 249.25 503.239 247.988C504.408 247.302 506.542 247.056 507.643 247.878C508.439 248.471 509.142 249.572 509.634 250.394C510.371 251.613 510.176 251.613 509.795 252.731C508.914 255.289 508.312 256.975 505.771 256.975C502.409 256.975 501.892 254.366 501.85 251.122V254.044Z" fill="#FFFF45"/>
<path fill-rule="evenodd" clip-rule="evenodd" d="M532.943 296.385C534.781 295.886 536.365 294.92 537.687 293.506C536.365 292.684 533.468 290.982 532.943 293.463V296.385Z" fill="#FFFF45"/>
<path fill-rule="evenodd" clip-rule="evenodd" d="M426.069 680.686C427.907 680.187 429.491 679.221 430.813 677.806C429.491 676.985 426.594 675.282 426.069 677.764V680.686Z" fill="#FFC445"/>
<path fill-rule="evenodd" clip-rule="evenodd" d="M624.344 722.274C626.182 721.774 627.766 720.809 629.087 719.394C627.766 718.573 624.869 716.87 624.344 719.352V722.274Z" fill="#FFC445"/>
<path fill-rule="evenodd" clip-rule="evenodd" d="M556.905 333.62C558.735 331.367 561.386 327.259 564.706 329.512C566.637 330.825 567.188 334.289 565.341 335.661C563.63 336.94 562.063 337.304 560.132 337.829C558.658 338.236 556.465 337.262 556.905 335.077V333.62Z" fill="#FFFF45"/>
<path fill-rule="evenodd" clip-rule="evenodd" d="M428.5 387.201C430.329 384.948 432.98 380.84 436.301 383.093C438.232 384.406 438.782 387.87 436.936 389.242C435.225 390.521 433.658 390.885 431.727 391.41C430.253 391.817 428.059 390.843 428.5 388.658V387.201Z" fill="#FFC445"/>
<path fill-rule="evenodd" clip-rule="evenodd" d="M641.589 292.286C643.418 290.033 646.069 285.925 649.39 288.178C651.321 289.491 651.871 292.955 650.025 294.328C648.314 295.607 646.747 295.971 644.816 296.496C643.342 296.902 641.148 295.928 641.589 293.743V292.286Z" fill="#FFC445"/>
<path fill-rule="evenodd" clip-rule="evenodd" d="M522.153 489.222C523.983 486.969 526.634 482.861 529.954 485.114C531.885 486.418 532.436 489.891 530.589 491.263C528.878 492.542 527.311 492.906 525.38 493.431C523.906 493.838 521.713 492.864 522.153 490.679V489.222Z" fill="#FFC445"/>
<path fill-rule="evenodd" clip-rule="evenodd" d="M417.701 306.736C415.355 308.226 411.408 310.073 411.009 313.292C410.772 315.231 411.662 316.375 413.415 317.222C414.906 317.942 417.15 318.001 418.649 317.247C420.801 316.163 423.282 314.376 424.248 312.089C424.943 310.437 424.832 309.311 424.053 307.676C423.638 306.795 422.808 305.745 421.868 305.414C418.87 304.373 417.065 307.312 414.855 308.642L417.701 306.744V306.736Z" fill="#FFFF45"/>
<path fill-rule="evenodd" clip-rule="evenodd" d="M425.298 298.189C426.577 298.638 427.653 299.358 428.534 300.324C427.263 300.756 425.891 301.764 424.587 301.298C422.893 300.697 422.579 299.087 422.96 297.47C423.172 296.589 424.756 295.03 425.662 295.42C426.12 295.615 426.213 296.241 426.357 296.639C426.67 297.478 426.696 297.3 426.238 298.181H425.29L425.298 298.189Z" fill="#FFFF45"/>
<path fill-rule="evenodd" clip-rule="evenodd" d="M296.614 351.847C294.098 354.058 291.727 356.701 290.388 359.86C289.711 361.469 290.913 361.545 292.379 361.266C295.208 360.715 298.062 359.928 300.857 359.216C302.517 358.793 304.889 357.92 306.041 356.514C306.922 355.439 307.286 353.575 307.091 352.22C306.82 350.323 305.473 349.586 303.745 349.103C299.807 348.01 294.75 350.602 293.285 354.236L296.605 351.864L296.614 351.847Z" fill="#FFFF45"/>
<path fill-rule="evenodd" clip-rule="evenodd" d="M298.511 365.145C300.527 365.196 302.399 365.687 304.127 366.602C303.627 367.195 303.788 367.999 303.525 368.702C303.136 369.736 302.153 370.778 301.23 371.362C299.688 372.336 297.122 372.7 295.411 372.048C290.21 370.075 298.189 363.908 299.943 366.094L298.52 365.145H298.511Z" fill="#FFFF45"/>
<path fill-rule="evenodd" clip-rule="evenodd" d="M463.769 248.801C465.708 247.869 467.453 246.684 469.554 246.328C471.968 245.921 474.204 245.447 476.66 245.455C477.897 245.455 480.658 245.354 479.853 247.37C478.981 249.555 474.28 251.63 472.417 252.511C469.215 254.019 466.208 255.535 462.617 255.907C460.804 256.094 457.764 256.229 456.739 254.417C455.875 252.892 456.29 251.639 457.128 250.224C458.009 248.75 458.941 248.132 460.559 247.497C461.304 247.2 465.463 246.091 465.675 247.387L463.777 248.81L463.769 248.801Z" fill="#FFFF45"/>
<path fill-rule="evenodd" clip-rule="evenodd" d="M431.473 249.75C430.617 250.368 424.053 254.01 427.179 255.585C428.856 256.432 432.159 256.187 433.861 255.467C435.378 254.823 436.911 253.824 435.962 252.079C434.039 248.555 429.211 250.588 426.721 252.121L431.473 249.75Z" fill="#FFFF45"/>
<path fill-rule="evenodd" clip-rule="evenodd" d="M340.776 489.087C341.259 491.789 341.818 494.736 344.164 496.523C346.595 498.37 349.356 497.625 351.745 496.218C353.515 495.177 355.192 494.059 356.92 492.991C357.928 492.373 358.817 492.212 358.86 490.772C358.911 489.222 357.479 487.139 356.59 485.97C355.523 484.564 353.38 482.887 351.72 482.268C348.094 480.913 341.174 482.268 341.259 487.198L340.785 489.095L340.776 489.087Z" fill="#FFD32F"/>
<path fill-rule="evenodd" clip-rule="evenodd" d="M547.809 491.966C548.291 494.668 548.85 497.616 551.197 499.403C553.627 501.258 556.389 500.504 558.777 499.098C560.547 498.056 562.225 496.938 563.952 495.871C564.96 495.253 565.85 495.092 565.892 493.652C565.943 492.102 564.511 490.018 563.622 488.849C562.555 487.443 560.412 485.766 558.752 485.148C555.127 483.793 548.207 485.148 548.291 490.069L547.817 491.966H547.809Z" fill="#FFBA00"/>
<path style="mix-blend-mode:screen" d="M445.147 429.936C529.492 394.637 579.519 322.182 556.887 268.104C534.254 214.026 447.533 198.803 363.188 234.103C278.844 269.402 228.816 341.857 251.448 395.935C274.081 450.013 360.802 465.236 445.147 429.936Z" fill="url(#paint21_radial_548_25704)"/>
<path fill-rule="evenodd" clip-rule="evenodd" d="M252.493 596.368C252.493 596.368 250.122 606.76 257.414 619.88C264.707 633 269.984 632.34 269.984 632.34C269.984 632.34 263.716 607.921 252.493 596.368Z" fill="#FFFF59"/>
<path fill-rule="evenodd" clip-rule="evenodd" d="M724.265 453.869C724.265 453.869 715.778 478.33 714.541 481.76C714.541 481.76 727.898 477.991 724.265 453.869Z" fill="#FFFF59"/>
<path fill-rule="evenodd" clip-rule="evenodd" d="M769.723 461.508C769.723 461.508 763.853 465.989 760.541 477.246C760.541 477.246 767.757 480.634 769.723 461.508Z" fill="#FFFF59"/>
<path fill-rule="evenodd" clip-rule="evenodd" d="M676.578 688.107C676.578 688.107 703.953 670.345 719.716 669.083C719.716 669.083 701.819 691.071 676.578 688.107Z" fill="#FFFF59"/>
</g>
<path style="mix-blend-mode:screen" opacity="0.45" fill-rule="evenodd" clip-rule="evenodd" d="M500 0C223.922 0 0 223.769 0 500C0 776.232 223.922 1000 500 1000C776.078 1000 1000 776.079 1000 500C1000 223.922 776.231 0 500 0ZM500 980.576C234.628 980.576 19.4249 765.372 19.4249 500C19.4249 234.629 234.628 19.4249 500 19.4249C765.372 19.4249 980.575 234.629 980.575 500C980.575 765.372 765.372 980.576 500 980.576Z" fill="url(#paint22_linear_548_25704)"/>
</g>
<defs>
<radialGradient id="paint0_radial_548_25704" cx="0" cy="0" r="1" gradientUnits="userSpaceOnUse" gradientTransform="translate(499.999 500.003) scale(400.004 400.004)">
<stop stop-color="#FF9F00"/>
<stop offset="1"/>
</radialGradient>
<radialGradient id="paint1_radial_548_25704" cx="0" cy="0" r="1" gradientUnits="userSpaceOnUse" gradientTransform="translate(499.999 500.003) scale(318.489 318.489)">
<stop stop-color="#FF7300"/>
<stop offset="1"/>
</radialGradient>
<radialGradient id="paint2_radial_548_25704" cx="0" cy="0" r="1" gradientUnits="userSpaceOnUse" gradientTransform="translate(499.999 500.002) scale(303.921 303.921)">
<stop stop-color="#FF7900"/>
<stop offset="0.18" stop-color="#FC7700"/>
<stop offset="0.32" stop-color="#F27300"/>
<stop offset="0.43" stop-color="#E26B00"/>
<stop offset="0.54" stop-color="#CC6100"/>
<stop offset="0.64" stop-color="#AF5300"/>
<stop offset="0.74" stop-color="#8B4200"/>
<stop offset="0.83" stop-color="#612E00"/>
<stop offset="0.92" stop-color="#311700"/>
<stop offset="1"/>
</radialGradient>
<radialGradient id="paint3_radial_548_25704" cx="0" cy="0" r="1" gradientUnits="userSpaceOnUse" gradientTransform="translate(321.032 373.954) scale(464.181 464.181)">
<stop stop-color="#FFB80B"/>
<stop offset="0.26" stop-color="#FEB50C"/>
<stop offset="0.38" stop-color="#FDAE10"/>
<stop offset="0.48" stop-color="#FCA017"/>
<stop offset="0.57" stop-color="#F98E21"/>
<stop offset="0.64" stop-color="#F7762E"/>
<stop offset="0.66" stop-color="#F66D33"/>
<stop offset="0.72" stop-color="#EF6735"/>
<stop offset="0.81" stop-color="#DB583D"/>
<stop offset="0.91" stop-color="#BC4049"/>
<stop offset="0.98" stop-color="#A02A54"/>
</radialGradient>
<linearGradient id="paint4_linear_548_25704" x1="235.232" y1="594.115" x2="375.148" y2="594.115" gradientUnits="userSpaceOnUse">
<stop offset="0.01" stop-color="#FFA90B"/>
<stop offset="0.37" stop-color="#FFA60D"/>
<stop offset="0.64" stop-color="#FF9C16"/>
<stop offset="0.87" stop-color="#FF8C25"/>
<stop offset="1" stop-color="#FF8031"/>
</linearGradient>
<linearGradient id="paint5_linear_548_25704" x1="240.169" y1="594.114" x2="367.753" y2="594.114" gradientUnits="userSpaceOnUse">
<stop offset="0.01" stop-color="#FFE00B"/>
<stop offset="0.31" stop-color="#FFDD0C"/>
<stop offset="0.52" stop-color="#FFD311"/>
<stop offset="0.71" stop-color="#FFC31A"/>
<stop offset="0.89" stop-color="#FFAD26"/>
<stop offset="1" stop-color="#FF9B31"/>
</linearGradient>
<linearGradient id="paint6_linear_548_25704" x1="254.209" y1="427.132" x2="309.913" y2="425.362" gradientUnits="userSpaceOnUse">
<stop offset="0.01" stop-color="#FFA90B"/>
<stop offset="0.37" stop-color="#FFA60D"/>
<stop offset="0.64" stop-color="#FF9C16"/>
<stop offset="0.87" stop-color="#FF8C25"/>
<stop offset="1" stop-color="#FF8031"/>
</linearGradient>
<linearGradient id="paint7_linear_548_25704" x1="257.637" y1="427.023" x2="306.366" y2="425.475" gradientUnits="userSpaceOnUse">
<stop offset="0.01" stop-color="#FFE00B"/>
<stop offset="0.31" stop-color="#FFDD0C"/>
<stop offset="0.52" stop-color="#FFD311"/>
<stop offset="0.71" stop-color="#FFC31A"/>
<stop offset="0.89" stop-color="#FFAD26"/>
<stop offset="1" stop-color="#FF9B31"/>
</linearGradient>
<linearGradient id="paint8_linear_548_25704" x1="714.54" y1="693.222" x2="714.54" y2="494.99" gradientUnits="userSpaceOnUse">
<stop offset="0.01" stop-color="#FF8E0B"/>
<stop offset="0.35" stop-color="#FD8B0D"/>
<stop offset="0.59" stop-color="#F88114"/>
<stop offset="0.81" stop-color="#F07120"/>
<stop offset="1" stop-color="#E65D31"/>
</linearGradient>
<linearGradient id="paint9_linear_548_25704" x1="656.148" y1="594.106" x2="772.823" y2="594.106" gradientUnits="userSpaceOnUse">
<stop offset="0.01" stop-color="#FFE00B"/>
<stop offset="0.31" stop-color="#FFDD0C"/>
<stop offset="0.52" stop-color="#FFD311"/>
<stop offset="0.71" stop-color="#FFC31A"/>
<stop offset="0.89" stop-color="#FFAD26"/>
<stop offset="1" stop-color="#FF9B31"/>
</linearGradient>
<linearGradient id="paint10_linear_548_25704" x1="751.851" y1="490.374" x2="751.851" y2="413.865" gradientUnits="userSpaceOnUse">
<stop offset="0.01" stop-color="#FFA90B"/>
<stop offset="0.37" stop-color="#FFA60D"/>
<stop offset="0.64" stop-color="#FF9C16"/>
<stop offset="0.87" stop-color="#FF8C25"/>
<stop offset="1" stop-color="#FF8031"/>
</linearGradient>
<linearGradient id="paint11_linear_548_25704" x1="751.809" y1="485.36" x2="751.809" y2="418.879" gradientUnits="userSpaceOnUse">
<stop offset="0.01" stop-color="#FFE00B"/>
<stop offset="0.31" stop-color="#FFDD0C"/>
<stop offset="0.52" stop-color="#FFD311"/>
<stop offset="0.71" stop-color="#FFC31A"/>
<stop offset="0.89" stop-color="#FFAD26"/>
<stop offset="1" stop-color="#FF9B31"/>
</linearGradient>
<linearGradient id="paint12_linear_548_25704" x1="514.158" y1="794.388" x2="514.158" y2="749.819" gradientUnits="userSpaceOnUse">
<stop offset="0.01" stop-color="#FFA90B"/>
<stop offset="0.37" stop-color="#FFA60D"/>
<stop offset="0.64" stop-color="#FF9C16"/>
<stop offset="0.87" stop-color="#FF8C25"/>
<stop offset="1" stop-color="#FF8031"/>
</linearGradient>
<linearGradient id="paint13_linear_548_25704" x1="514.149" y1="789.374" x2="514.149" y2="754.833" gradientUnits="userSpaceOnUse">
<stop offset="0.01" stop-color="#FFE00B"/>
<stop offset="0.31" stop-color="#FFDD0C"/>
<stop offset="0.52" stop-color="#FFD311"/>
<stop offset="0.71" stop-color="#FFC31A"/>
<stop offset="0.89" stop-color="#FFAD26"/>
<stop offset="1" stop-color="#FF9B31"/>
</linearGradient>
<linearGradient id="paint14_linear_548_25704" x1="653.878" y1="513.235" x2="678.882" y2="324.929" gradientUnits="userSpaceOnUse">
<stop offset="0.01" stop-color="#FFA90B"/>
<stop offset="0.37" stop-color="#FFA60D"/>
<stop offset="0.64" stop-color="#FF9C16"/>
<stop offset="0.87" stop-color="#FF8C25"/>
<stop offset="1" stop-color="#FF8031"/>
</linearGradient>
<linearGradient id="paint15_linear_548_25704" x1="654.522" y1="508.271" x2="678.204" y2="329.893" gradientUnits="userSpaceOnUse">
<stop offset="0.01" stop-color="#FFE00B"/>
<stop offset="0.31" stop-color="#FFDD0C"/>
<stop offset="0.52" stop-color="#FFD311"/>
<stop offset="0.71" stop-color="#FFC31A"/>
<stop offset="0.89" stop-color="#FFAD26"/>
<stop offset="1" stop-color="#FF9B31"/>
</linearGradient>
<linearGradient id="paint16_linear_548_25704" x1="211.033" y1="488.993" x2="655.47" y2="488.993" gradientUnits="userSpaceOnUse">
<stop offset="0.01" stop-color="#FFE00B"/>
<stop offset="0.31" stop-color="#FFDD0C"/>
<stop offset="0.52" stop-color="#FFD311"/>
<stop offset="0.71" stop-color="#FFC31A"/>
<stop offset="0.89" stop-color="#FFAD26"/>
<stop offset="1" stop-color="#FF9B31"/>
</linearGradient>
<linearGradient id="paint17_linear_548_25704" x1="211.033" y1="429.822" x2="626.715" y2="429.822" gradientUnits="userSpaceOnUse">
<stop offset="0.01" stop-color="#FFE00B"/>
<stop offset="0.31" stop-color="#FFDD0C"/>
<stop offset="0.52" stop-color="#FFD311"/>
<stop offset="0.71" stop-color="#FFC31A"/>
<stop offset="0.89" stop-color="#FFAD26"/>
<stop offset="1" stop-color="#FF9B31"/>
</linearGradient>
<linearGradient id="paint18_linear_548_25704" x1="596.248" y1="736.089" x2="672.47" y2="736.089" gradientUnits="userSpaceOnUse">
<stop offset="0.01" stop-color="#FFE00B"/>
<stop offset="0.31" stop-color="#FFDD0C"/>
<stop offset="0.52" stop-color="#FFD311"/>
<stop offset="0.71" stop-color="#FFC31A"/>
<stop offset="0.89" stop-color="#FFAD26"/>
<stop offset="1" stop-color="#FF9B31"/>
</linearGradient>
<linearGradient id="paint19_linear_548_25704" x1="686.75" y1="332.646" x2="724.264" y2="332.646" gradientUnits="userSpaceOnUse">
<stop offset="0.01" stop-color="#FFE00B"/>
<stop offset="0.31" stop-color="#FFDD0C"/>
<stop offset="0.52" stop-color="#FFD311"/>
<stop offset="0.71" stop-color="#FFC31A"/>
<stop offset="0.89" stop-color="#FFAD26"/>
<stop offset="1" stop-color="#FF9B31"/>
</linearGradient>
<radialGradient id="paint20_radial_548_25704" cx="0" cy="0" r="1" gradientUnits="userSpaceOnUse" gradientTransform="translate(288.829 312.411) scale(380.345 380.345)">
<stop stop-color="#FFFFD9"/>
<stop offset="1"/>
</radialGradient>
<radialGradient id="paint21_radial_548_25704" cx="0" cy="0" r="1" gradientUnits="userSpaceOnUse" gradientTransform="translate(406.147 330.864) rotate(-22.71) scale(165.863 106.272)">
<stop stop-color="#FFBB00"/>
<stop offset="0.17" stop-color="#C49000"/>
<stop offset="0.4" stop-color="#7F5D00"/>
<stop offset="0.6" stop-color="#483500"/>
<stop offset="0.78" stop-color="#211800"/>
<stop offset="0.92" stop-color="#080600"/>
<stop offset="1"/>
</radialGradient>
<linearGradient id="paint22_linear_548_25704" x1="500" y1="25.2371" x2="500" y2="1048.18" gradientUnits="userSpaceOnUse">
<stop stop-color="#27A2D9"/>
<stop offset="0.19" stop-color="#1D78A1"/>
<stop offset="0.39" stop-color="#124E68"/>
<stop offset="0.59" stop-color="#0A2C3B"/>
<stop offset="0.76" stop-color="#04141A"/>
<stop offset="0.9" stop-color="#010507"/>
<stop offset="1"/>
</linearGradient>
<clipPath id="clip0_548_25704">
<rect width="1000" height="1000" fill="white"/>
</clipPath>
<clipPath id="clip1_548_25704">
<rect width="800" height="800" fill="white" transform="translate(100 100)"/>
</clipPath>
</defs>
</svg>
