<svg width="1000" height="1000" viewBox="0 0 1000 1000" fill="none" xmlns="http://www.w3.org/2000/svg">
<g clip-path="url(#clip0_548_25699)">
<g clip-path="url(#clip1_548_25699)">
<path style="mix-blend-mode:screen" d="M782.847 782.85C939.058 626.639 939.058 373.37 782.847 217.159C626.635 60.9472 373.367 60.9472 217.155 217.159C60.9439 373.37 60.9439 626.639 217.155 782.85C373.367 939.062 626.635 939.062 782.847 782.85Z" fill="url(#paint0_radial_548_25699)"/>
<path style="mix-blend-mode:screen" d="M736.748 736.751C867.5 606 867.5 394.009 736.748 263.257C605.997 132.506 394.006 132.506 263.255 263.257C132.503 394.009 132.503 606 263.255 736.751C394.006 867.503 605.997 867.503 736.748 736.751Z" fill="url(#paint1_radial_548_25699)"/>
<path style="mix-blend-mode:screen" d="M740.946 740.95C874.017 607.879 874.017 392.13 740.946 259.059C607.876 125.989 392.126 125.989 259.056 259.059C125.985 392.129 125.985 607.879 259.056 740.95C392.126 874.02 607.876 874.02 740.946 740.95Z" fill="url(#paint2_radial_548_25699)"/>
<path fill-rule="evenodd" clip-rule="evenodd" d="M256.297 345.113C256.297 345.113 259.82 314.689 262.124 297.969C262.124 297.969 282.926 268.926 316.052 245.04L360.19 247.336C360.19 247.336 271.204 318.721 256.288 345.113H256.297Z" fill="url(#paint3_linear_548_25699)"/>
<path fill-rule="evenodd" clip-rule="evenodd" d="M316.061 245.04C316.061 245.04 316.061 269.527 293.717 288.873C271.373 308.218 261.658 301.425 261.658 301.425L256.297 340.421L360.198 247.336L316.061 245.04Z" fill="url(#paint4_linear_548_25699)"/>
<path fill-rule="evenodd" clip-rule="evenodd" d="M789.178 500.165C789.178 527.921 785.273 554.814 777.896 580.19C763.26 631.247 734.894 676.443 697.016 711.695C669.937 736.944 637.971 757.018 602.779 770.375C570.881 782.513 536.357 789.102 500.182 789.102C495.057 789.102 489.874 788.984 484.809 788.679H484.749C477.186 788.315 469.681 787.578 462.304 786.663C406.495 779.345 355.81 756.163 314.697 721.639C299.265 708.773 285.238 694.255 272.855 678.391C263.462 666.499 254.984 653.87 247.547 640.513C245.777 637.337 244.066 634.11 242.363 630.874C242.363 630.756 242.304 630.688 242.245 630.569C240.474 627.097 238.831 623.616 237.239 620.075H237.18C232.174 609.039 227.786 597.63 224.246 585.916C221.561 577.496 219.308 568.84 217.478 560.057C217.419 559.997 217.419 559.87 217.419 559.811C216.14 553.653 215.039 547.428 214.184 541.143C212.235 527.727 211.253 514.064 211.253 500.157C211.253 492.17 211.558 484.174 212.286 476.373C212.65 471.367 213.201 466.429 213.87 461.491C217.588 433.066 225.525 405.987 236.985 380.797C242.6 368.414 249.063 356.522 256.322 345.113C268.4 326.081 282.672 308.642 298.773 292.964C350.805 242.338 421.859 211.169 500.182 211.169C503.231 211.169 506.28 211.228 509.27 211.287C512.505 211.406 515.732 211.533 518.968 211.779C535.561 212.88 551.781 215.319 567.459 219.097C576.606 221.29 585.576 223.857 594.359 226.906C600.339 228.922 606.192 231.175 611.986 233.614C616.314 235.444 620.523 237.333 624.733 239.348C625.461 239.713 626.198 240.018 626.927 240.382C654.988 254.103 680.415 272.161 702.496 293.811C705.664 296.86 708.721 300.027 711.771 303.263C713.787 305.457 715.794 307.718 717.75 309.971C721.105 313.749 724.34 317.721 727.508 321.685C739.036 336.321 749.157 352.059 757.636 368.77C767.579 388.166 775.389 408.842 780.691 430.499C786.239 452.826 789.169 476.127 789.169 500.157L789.178 500.165Z" fill="url(#paint5_radial_548_25699)"/>
<path fill-rule="evenodd" clip-rule="evenodd" d="M626.919 240.407C625.97 240.509 625.013 240.611 624.064 240.805C620.803 241.407 618.254 241.11 615.044 240.204C612.74 239.552 611.08 238.603 608.624 238.197C605.117 237.646 601.856 236.138 598.35 235.689C594.64 235.19 591.43 233.733 587.923 232.479C585.17 231.48 583.713 231.827 581.054 232.479C578.394 233.182 576.539 232.081 574.185 231.073C571.525 229.921 568.874 229.718 566.062 229.168C558.744 227.66 551.477 225.305 544.209 223.45C539.695 222.298 535.536 222.298 530.928 222.248C527.32 222.197 524.059 223.247 520.451 223.247C518.045 223.247 515.987 222.849 513.582 222.493C511.125 222.044 508.618 222.544 506.162 222.197C502.503 221.646 500.546 221.096 496.837 222.248C494.084 223.145 491.924 223.052 489.171 223.196C486.114 223.349 482.658 224.145 479.651 224.848C474.239 226.101 468.327 227.101 462.762 226.999C459.357 226.999 454.343 226.051 451.082 227.203C448.973 227.956 447.922 230.209 446.474 231.717C443.67 234.622 440.206 237.231 437.852 240.492C435.497 243.753 432.837 247.107 433.041 251.215C433.244 254.772 434.895 258.931 436.445 262.192C438.046 265.648 438.597 268.807 435.039 271.111C430.576 274.067 425.418 276.777 420.302 278.226C416.897 279.225 413.839 279.827 410.976 277.37C409.926 276.464 409.274 274.711 407.969 274.008C406.614 273.305 405.208 274.008 403.76 274.457C400.152 275.507 396.645 276.71 392.986 277.311C390.733 277.658 388.776 278.861 386.566 279.268C383.906 279.767 382 277.811 379.248 278.463C375.385 279.369 371.531 280.97 367.517 281.173C364.662 281.326 361.054 280.072 358.649 278.615C357.243 277.811 356.895 277.015 355.286 277.464C353.982 277.768 352.025 279.369 351.322 280.369C350.373 281.724 350.018 283.477 349.069 284.883C348.07 286.433 347.112 287.941 346.215 289.593C344.563 292.803 342.606 295.81 340.497 298.664C338.998 300.671 337.939 303.373 336.288 305.228C335.432 306.228 333.577 306.931 332.476 307.684C329.469 309.794 326.31 311.691 323.405 313.952C317.789 318.365 312.479 323.227 306.761 327.487C302.399 330.748 296.284 332.654 291.321 334.704C288.212 335.957 285.002 336.864 281.893 338.16C280.894 338.558 279.039 339.015 278.184 339.76C277.082 340.709 276.481 342.471 275.473 343.767C272.763 347.078 269.908 350.382 267.85 354.193C266.597 356.395 265.843 358.657 265.047 361.062C263.945 364.323 262.192 367.33 261.083 370.583C258.83 377.401 258.372 384.516 255.874 391.283C254.417 395.247 252.316 398.856 250.512 402.464C247.404 408.579 246.955 415.846 246.048 422.614C245.549 426.578 245.752 431.135 246.446 434.997C247.2 439.156 246.997 443.467 246.946 447.727C246.895 452.242 244.041 456.646 241.178 460.06C238.569 463.219 234.614 464.422 231.709 467.225C229.252 469.631 226.296 472.392 225.246 475.797C224.797 477.305 225.195 479.007 224.95 480.608C224.297 484.165 223.4 487.528 222.891 491.136C222.341 495.6 222.239 499.81 222.239 504.316C222.239 506.569 222.087 508.881 222.188 511.134C222.29 513.285 223.095 515.293 223.239 517.453C223.34 518.96 223.035 520.459 223.239 521.967C223.535 523.67 224.187 525.423 224.594 527.083C225.593 531.089 226.347 535.002 227.101 539.017C227.804 542.727 229.252 546.386 230.413 549.994C232.014 554.907 233.072 559.972 234.021 565.079C234.775 568.891 234.724 572.846 235.275 576.709C235.723 579.817 236.426 582.977 236.579 586.085C236.731 590.794 235.579 595.512 235.529 600.272C235.478 608.293 238.688 616.314 240.543 624.031C241.093 626.182 241.644 628.393 242.245 630.544C222.392 591.345 211.22 547.038 211.22 500.123C211.22 443.077 227.762 389.903 256.28 345.088C268.409 326.039 282.647 308.599 298.732 292.955C350.814 242.33 421.835 211.152 500.182 211.152C506.501 211.152 512.709 211.355 518.926 211.753C557.473 214.21 593.962 224.238 626.893 240.373L626.919 240.407Z" fill="url(#paint6_linear_548_25699)"/>
<path style="mix-blend-mode:multiply" fill-rule="evenodd" clip-rule="evenodd" d="M518.63 635.948C518.63 635.948 545.607 675.782 581.316 708.087C617.017 740.391 622.26 762.1 622.26 762.1C622.26 762.1 689.741 733.878 737.893 667.05C786.045 600.221 518.63 635.948 518.63 635.948Z" fill="url(#paint7_linear_548_25699)"/>
<path style="mix-blend-mode:screen" fill-rule="evenodd" clip-rule="evenodd" d="M328.843 725.84C298.969 700.828 274.211 669.853 256.416 634.762C245.235 612.706 236.816 589.049 231.607 564.241C231.556 564.19 231.556 564.088 231.556 563.987C227.55 544.743 225.39 524.788 225.39 504.341C225.39 447.296 241.932 394.121 270.45 349.306C282.579 330.257 296.818 312.817 312.902 297.173C364.984 246.548 436.005 215.37 514.353 215.37C520.671 215.37 526.88 215.573 533.097 215.971C552.688 217.225 571.737 220.469 590.057 225.441C567.476 218.038 543.642 213.363 518.952 211.779C512.735 211.381 506.518 211.177 500.208 211.177C421.86 211.177 350.839 242.355 298.757 292.981C282.664 308.616 268.435 326.064 256.306 345.113C227.787 389.928 211.245 443.103 211.245 500.148C211.245 520.595 213.396 540.55 217.411 559.794C217.411 559.896 217.411 559.997 217.462 560.048C222.671 584.857 231.099 608.522 242.271 630.569C260.066 665.652 284.824 696.635 314.698 721.647C346.359 748.209 383.737 768.046 424.731 779.116C389.268 767.546 356.827 749.319 328.843 725.84Z" fill="url(#paint8_radial_548_25699)"/>
<path style="mix-blend-mode:multiply" opacity="0.4" fill-rule="evenodd" clip-rule="evenodd" d="M567.459 219.097C551.781 215.311 535.561 212.871 518.968 211.779C515.732 211.533 512.505 211.414 509.27 211.287C516.164 215.133 522.568 221.9 524.152 228.854C526.777 240.746 530.614 251.791 532.816 263.683C535.01 275.397 534.587 289.914 529.276 300.527C525.922 307.236 521.958 312.97 516.647 318.458C512.87 322.304 509.634 324.438 506.949 329.19C504.264 333.823 501.706 338.337 498.657 342.733C494.142 349.323 489.382 356.336 484.199 362.375C482.369 364.569 480.353 366.094 478.71 368.66C476.635 371.836 475.661 374.818 473.399 377.325C468.216 383.118 460.161 386.354 453.029 388.971C443.754 392.444 435.886 396.348 427.17 400.99C414.914 407.453 404.843 415.753 390.512 416.117C385.752 416.236 380.814 415.567 376.054 415.999C370.133 416.49 364.645 419.353 358.792 420.454C353.667 421.428 348.543 422.47 343.419 423.325C335 424.604 328.046 427.476 319.931 429.424C309.378 432.049 298.341 431.372 287.729 432.837C278.149 434.116 269.857 435.277 260.345 432.956C245.65 429.297 237.781 422.343 240.889 406.724C242.965 396.475 242.236 388.666 236.985 380.798C225.516 405.987 217.588 433.074 213.87 461.491C220.824 464.422 228.752 465.946 234.91 466.556C256.322 468.75 279.377 459.179 298.951 451.861C308.954 448.083 319.144 442.586 329.935 441.367C341.276 440.147 351.279 441.553 362.629 438.741C401.726 429.102 440.273 415.44 475.161 394.765C489.619 386.227 496.023 374.022 506.085 361.647C514.928 350.848 524.872 341.886 535.425 332.857C545.792 324.015 554.94 315.231 561.106 302.848C567.637 289.796 573.184 275.465 576.174 261.125C579.342 245.997 575.446 231.421 567.45 219.097H567.459ZM565.511 258.381C564.901 261.616 564.477 265.089 563.495 268.138C560.996 275.888 556.363 283.875 549.104 287.958C545.75 289.847 541.295 288.686 539.347 285.332C538.313 283.503 538.313 281.182 537.941 279.174C537.212 275.21 536.721 271.306 536.78 267.215C536.899 257.398 536.535 247.937 535.62 238.12C536.653 243.668 535.374 229.887 544.039 226.101C548.122 224.272 554.288 225.915 557.396 229.091C561.301 233.055 562.216 239.764 563.681 244.947C564.96 249.58 566.366 253.485 565.511 258.364V258.381Z" fill="url(#paint9_linear_548_25699)"/>
<path style="mix-blend-mode:multiply" opacity="0.4" fill-rule="evenodd" clip-rule="evenodd" d="M523.669 719.682C522.814 719.801 522.026 719.987 521.23 720.046L526.964 720.597C526.236 720.411 525.008 719.987 523.669 719.682ZM523.669 719.682C522.814 719.801 522.026 719.987 521.23 720.046L526.964 720.597C526.236 720.411 525.008 719.987 523.669 719.682ZM780.7 430.508C780.582 438.072 778.447 445.576 778.261 453.199C778.074 463.321 776.372 471.189 773.746 480.955C771.917 487.663 768.503 492.601 766.242 499.072C763.684 506.518 760.016 512.862 756.239 519.688C748.734 533.351 741.238 547.013 738.003 562.504C735.072 576.471 734.462 588.245 727.509 601.051C720.86 613.375 710.797 623.615 703.657 635.575C700.303 641.309 697.982 641.004 692.926 644.604C687.251 648.627 682.067 654.971 676.578 659.427C664.746 668.879 653.947 675.409 639.615 680.771C630.646 684.184 621.93 686.869 612.41 688.335C606.184 689.309 600.086 688.335 593.928 689.368C584.171 690.952 574.896 693.883 565.503 696.932C550.07 701.938 534.333 704.8 518.96 709.561C508.229 712.855 497.734 714.803 486.817 717.124C480.168 718.53 474.798 722.13 467.911 720.724C460.958 719.259 454.614 716.946 447.778 714.803C439.054 712.118 431.855 711.941 422.461 711.941C409.96 711.941 395.442 713.829 383.118 711.449C369.211 708.764 355.362 705.046 341.454 702.175C333.035 700.404 326.632 696.932 318.95 693.332C311.75 689.978 304.008 689.004 296.504 686.624C288.576 684.125 280.953 680.398 272.839 678.391C285.222 694.247 299.248 708.764 314.681 721.639C355.794 756.162 406.479 779.345 462.287 786.663C469.665 787.578 477.169 788.306 484.733 788.679H484.792C501.139 784.961 517.122 780.141 533.588 775.076C560.971 766.538 584.637 750.005 612.029 741.958C622.218 738.909 631.366 735.614 640.877 730.922C647.891 727.449 655.336 726.534 662.408 723.477C687.844 712.677 706.994 687.979 718.344 663.763C723.468 652.786 728.406 640.344 737.622 632.111C741.399 628.697 745.914 625.708 749.209 621.862C752.927 617.653 755.426 612.41 758.721 607.836C764.514 599.662 770.13 591.429 775.923 583.197C776.651 582.222 777.329 581.248 777.871 580.207C785.249 554.831 789.153 527.93 789.153 500.182C789.153 476.153 786.223 452.852 780.675 430.525L780.7 430.508ZM515.615 721.757C516.648 721.088 518.359 719.682 519.46 719.377C520.561 719.013 522.204 719.318 523.669 719.682C525.804 719.377 527.938 719.132 529.954 719.987C531.115 720.538 533.308 721.571 533.8 722.918C534.35 724.197 533.613 724.993 532.766 725.848C531.665 726.949 530.818 726.949 529.294 727.254C526.117 727.864 523.009 728.415 519.714 728.11C517.766 727.923 514.835 727.805 513.616 725.975C512.455 724.205 514.166 722.74 515.631 721.766L515.615 721.757ZM534.587 759.449C532.817 761.702 531.047 764.023 528.735 765.734C526.541 767.445 524.101 768.478 521.721 769.816C515.869 773.111 509.829 776.651 503.24 778.354C500.614 779.023 497.997 778.904 495.253 779.082C491.958 779.387 488.722 779.447 485.436 779.506C481.531 779.565 477.754 780.361 473.849 780.607C469.944 780.793 466.099 780.912 462.203 781.157C455.74 781.581 450.006 780.488 443.907 778.295C438.419 776.279 432.744 773.721 427.806 770.426C424.333 768.105 421.343 764.819 418.353 761.888C415.55 759.263 413.288 756.459 411.705 752.918C411.154 751.639 410.544 750.293 410.849 748.895C410.968 748.226 411.273 747.676 411.273 747.489C412.374 746.634 413.466 745.846 414.508 745.414C416.583 744.499 418.896 744.067 421.098 743.83C426.408 743.102 432.202 744.016 437.504 744.44C440.672 744.686 443.484 744.864 446.592 744.381C450.743 743.771 454.885 742.492 458.916 741.391C468.674 738.765 478.253 736.698 488.316 735.597C498.319 734.496 508.813 733.404 518.875 735.106C522.653 735.716 527.235 736.817 530.53 739.011C532.97 740.654 534.918 743.28 536.264 745.905C538.585 750.361 537.603 755.603 534.621 759.449H534.587ZM611.139 734.378C609.369 736.453 606.811 737.672 604.609 739.197C601.56 741.331 598.324 743.042 595.156 744.872C592.471 746.456 589.913 747.743 587.101 749.022C584.357 750.301 581.553 751.589 578.809 752.986C575.819 754.511 572.584 755.544 569.416 756.645C567.095 757.501 564.597 758.534 562.098 758.111C560.082 757.687 557.829 756.891 556.364 755.366C554.17 753.046 554.534 750.547 555.263 749.514C555.263 747.379 554.653 744.33 555.322 742.255C555.745 741.035 557.211 739.206 557.888 737.986C560.446 733.353 564.105 729.999 567.951 726.34C571.305 723.104 574.54 720.665 579.055 719.081C584.12 717.37 589.913 716.946 595.156 716.277C600.89 715.608 610.589 715.176 613.147 721.766C614.917 726.34 614.307 730.549 611.131 734.395L611.139 734.378ZM526.964 720.597C526.236 720.411 525.008 719.987 523.669 719.682C522.814 719.801 522.026 719.987 521.23 720.046L526.964 720.597Z" fill="url(#paint10_linear_548_25699)"/>
<path style="mix-blend-mode:multiply" opacity="0.4" fill-rule="evenodd" clip-rule="evenodd" d="M757.645 368.778V369.939C757.28 377.926 754.045 383.415 751.182 390.673C748.861 396.526 746.176 401.778 743.195 407.325C738.13 416.6 735.75 425.316 732.031 435.26C726.238 450.81 723.307 466.734 714.219 480.887C706.045 493.516 704.157 509.008 697.508 522.484C690.003 537.552 678.535 548.343 666.219 559.328C660.731 564.266 656.157 570.187 651.211 575.557C645.968 581.232 641.877 588.55 635.592 593.064C621.989 602.949 607.107 611.486 593.809 621.913C585.822 628.138 580.147 636.431 571.364 641.614C562.58 646.857 553.069 650.516 544.345 655.827C536.476 660.646 528.726 665.83 520.188 669.303C510.431 673.207 502.316 672.047 492.313 672.538C481.209 673.029 469.741 675.952 459.314 679.551C450.649 682.601 443.391 685.709 434.548 682.601C428.695 680.525 423.384 676.68 417.227 675.401C402.896 672.47 386.548 675.401 371.972 675.037C360.562 674.732 348.001 672.106 336.838 669.853C325.861 667.719 316.891 660.036 306.278 656.92C293.167 653.074 277.853 656.369 265.165 651.372C259.981 649.356 255.043 645.214 250.461 642.343C249.487 641.733 248.513 641.123 247.53 640.513C245.76 637.337 244.049 634.11 242.347 630.874C245.455 632.153 248.572 633.559 251.74 635.084C268.333 643.012 289.008 641.792 306.88 644.901C327.004 648.441 347.138 653.684 367.449 656.005C375.681 656.92 383.982 656.86 392.156 655.945C403.624 654.667 415.516 654.844 426.798 652.896C446.44 649.424 465.59 640.149 485.961 642.775C489.738 643.266 493.948 645.273 497.793 645.214C503.468 645.028 507.373 640.09 511.947 637.227C520.002 632.162 528.48 633.136 535.553 626.495C542.507 619.965 550.189 615.764 558.667 611.486C580.749 600.264 598.62 582.028 615.941 564.707C630.459 550.248 644.545 534.943 654.488 516.885C664.246 499.14 662.298 478.033 669.616 459.611C674.927 446.431 679.373 434.057 687.979 422.461C692.129 416.914 697.186 412.153 701.582 406.843C706.274 401.168 709.145 395.01 712.745 388.666C716.709 381.594 721.715 375.063 724.883 367.559C727.873 360.359 727.627 354.015 727.508 346.511C727.39 338.278 727.508 329.918 727.508 321.685C739.036 336.321 749.158 352.059 757.636 368.77L757.645 368.778Z" fill="url(#paint11_linear_548_25699)"/>
<path style="mix-blend-mode:multiply" opacity="0.4" fill-rule="evenodd" clip-rule="evenodd" d="M711.779 303.272C708.73 300.036 705.681 296.868 702.505 293.819C680.424 272.161 654.988 254.112 626.935 240.39C626.207 240.026 625.47 239.721 624.742 239.357C620.532 237.341 616.323 235.452 611.994 233.623C606.201 231.183 600.34 228.93 594.368 226.915C596.257 228.134 598.451 229.108 599.188 229.472C602.788 231.302 605.718 232.522 608.217 235.757C610.656 238.925 611.757 241.305 611.935 245.337C612.054 249.114 612.604 253.019 613.273 256.805C613.883 260.278 615.594 263.573 616.323 267.054C616.687 269.129 616.992 270.959 617.661 273.034C619.185 277.853 620.769 282.613 621.811 287.611C623.641 296.513 618.88 303.898 615.713 312.013C610.707 324.879 607.539 337.939 603.821 351.229C600.89 361.723 595.156 372.09 587.228 379.654C579.478 387.159 568.018 388.861 561.064 396.975C554.966 404.107 547.461 410.883 538.864 414.906C528.921 419.666 518.426 423.325 507.881 426.553C500.317 428.806 492.389 428.992 484.766 431.008C475.314 433.388 466.649 438.148 457.747 441.985C448.295 446.067 439.452 451.319 429.932 455.401C420.352 459.425 411.45 464.913 401.938 468.818C397.305 470.707 392.427 471.621 387.726 473.273C377.968 476.686 368.516 482.912 358.14 484.132C354.54 484.555 350.881 485.411 347.341 485.411C344.478 485.47 341.911 485.775 339.167 486.817C330.138 490.357 324.59 500.538 314.223 500.597C304.711 500.597 295.318 500.233 285.857 501.326C281.283 501.876 276.709 501.571 272.136 501.631C270.797 501.631 269.027 501.936 267.68 501.385C266.156 500.775 264.445 499.31 262.92 498.454C259.507 496.566 256.212 494.126 253.163 491.805C247.183 487.172 239.255 489.73 232.36 488.333C230.285 487.909 227.236 488.146 225.407 487.113C221.138 484.547 215.768 479.304 212.295 476.382C211.567 484.191 211.262 492.178 211.262 500.165C211.262 514.073 212.236 527.735 214.192 541.152C215.048 547.436 216.14 553.653 217.428 559.82C217.428 559.879 217.428 560.006 217.487 560.065C219.317 568.849 221.57 577.513 224.255 585.924C227.795 597.638 232.183 609.039 237.188 620.084H237.248C245.116 621.363 253.231 622.404 261.158 621.244C272.441 619.601 283.663 617.831 295.132 618.254C305.863 618.745 315.875 622.404 326.361 624.175C338.134 626.123 350.39 627.715 362.35 628.503C373.267 629.172 384.126 630.087 394.984 631.306C403.158 632.28 411.332 633.873 419.505 634.415C440.731 635.88 461.474 630.332 482.327 628.13C492.754 627.029 503.129 624.412 513.37 622.21C519.654 620.871 525.753 619.22 531.301 615.806C538.619 611.232 543.252 604.219 549.782 598.663C556.982 592.505 564.486 586.525 571.982 580.791C578.385 575.913 584.425 570.602 591.133 566.274C596.257 562.92 601.382 559.743 606.201 555.966C615.653 548.521 623.158 539.923 630.967 530.894C641.885 518.206 646.4 500.58 650.787 484.843C654.751 470.385 657.495 455.935 665.423 442.942C669.328 436.598 672.258 429.28 674.088 422.08C675.248 417.566 675.672 412.501 677.747 408.232C681.042 401.278 687.504 396.281 691.468 389.691C694.577 384.507 698.058 379.688 700.252 373.954C704.521 362.672 707.756 351.695 709.586 339.676C710.924 330.833 713.795 322.719 716.54 314.24C716.963 312.834 717.395 311.437 717.759 309.971C715.811 307.718 713.795 305.457 711.779 303.263V303.272ZM335.745 500.716C336.355 499.191 347.154 494.982 348.798 494.49C348.738 494.55 348.611 494.609 348.433 494.677L341.361 497.726C349.17 495.1 363.256 503.037 356.429 511.998C354.413 514.624 349.17 515.903 346.062 516.394C342.953 516.944 340.997 515.903 339.108 513.226C337.524 510.905 336.364 506.882 335.932 504.138C335.745 503.164 335.322 501.698 335.745 500.724V500.716ZM249.682 578.547C241.262 576.226 235.655 573.117 230.472 566.045C227.118 561.471 224.187 556.897 223.272 551.282C222.544 546.649 220.714 542.498 221.807 537.865C222.662 534.206 224.128 530.183 225.83 526.761C227.719 522.916 230.522 518.952 230.768 517.673C239.187 516.944 247.056 516.639 255.467 516.572C264.86 516.512 274.253 517.732 283.706 517.791C287.975 517.851 292.243 518.037 296.453 517.122C300.544 516.326 304.508 515.233 308.65 514.564C315.849 513.345 322.558 512.489 329.325 516.089C334.449 518.833 336.829 524.508 339.21 529.632C340.556 532.563 341.344 534.638 341.344 537.925C341.403 541.889 341.158 545.793 340.675 549.757C340.489 551.222 340.311 552.747 340.065 554.212C334.153 567.146 317.865 571.415 305.728 575.93C287.975 582.451 267.909 583.493 249.673 578.555L249.682 578.547ZM379.603 606.235C375.825 615.747 359.902 619.169 350.754 619.533C346.24 619.719 340.81 618.805 336.846 616.425C334.653 615.086 332.332 612.52 331.053 610.267C330.02 608.556 327.699 605.388 322.998 606.794C323.972 601.551 325.624 596.545 327.817 591.726C329.893 589.405 332.086 587.212 334.348 585.136C338.617 581.291 343.377 577.937 348.501 575.32C356.488 571.296 364.848 574.286 372.531 577.818C377.714 580.198 381.737 583.739 382.839 589.405C384.117 595.868 381.983 600.442 379.603 606.244V606.235ZM486.588 604.406C483.657 611.419 479.574 613.003 473.103 616.298C465.54 620.143 456.333 623.006 447.786 623.065C443.399 623.124 439.308 621.049 435.344 619.465C432.718 618.432 429.855 617.754 427.78 615.806C422.046 610.563 421.131 602.873 424.672 604.465C422.478 599.764 421.072 594.953 420.522 589.888C421.496 589.092 422.105 588.059 422.41 586.78C425.46 581.045 431.134 576.285 436.742 573.117C446.745 567.383 459.492 566.714 470.164 571.169C474.857 573.117 477.846 575.498 481.387 579.097C483.03 580.808 485.351 582.392 486.63 584.467C489.798 589.778 488.824 599.044 486.571 604.414L486.588 604.406ZM519.46 603.305C517.816 604.643 514.64 607.268 512.506 606.845C510.736 606.481 507.381 602.881 507.932 600.992L506.772 599.832C509.33 595.868 511.896 591.845 514.395 587.754C518.299 589.465 521.772 589.219 524.152 593.488C526.346 597.452 522.382 600.933 519.46 603.305ZM601.254 411.476C598.019 415.804 593.75 419.895 588.753 421.97C582.468 424.596 574.049 426.544 573.744 417.092C573.498 411.544 574.413 407.512 576.92 402.396C580.52 395.137 583.933 393.308 590.887 389.708C593.445 390.013 596.13 390.623 598.087 391.292C601.991 392.571 605.71 396.052 606.26 400.194C606.87 404.522 603.762 408.249 601.254 411.476ZM677.561 370.363C674.511 379.874 670.42 389.09 666.219 398.119C661.095 409.223 660.485 420.624 657.927 432.338C656.462 438.927 653.353 446.186 646.891 448.744C644.087 449.845 641.343 449.599 638.226 449.599C635.422 449.599 630.239 450.633 630.417 453.072C628.773 448.498 625.961 442.341 624.869 437.148C623.708 431.414 623.226 425.257 622.311 419.522C621.337 413.483 620.905 407.444 620.295 401.346C619.804 395.671 618.652 389.7 618.711 383.965C618.957 365.06 629.383 341.514 647.136 332.79C652.566 330.164 657.936 328.944 663.907 329.927C670.861 330.96 674.825 332.857 677.933 339.506C682.143 348.654 680.491 360.978 677.569 370.371L677.561 370.363Z" fill="url(#paint12_linear_548_25699)"/>
<path style="mix-blend-mode:multiply" opacity="0.4" fill-rule="evenodd" clip-rule="evenodd" d="M593.445 388.361C592.531 388.853 591.675 389.276 590.887 389.7C589.304 389.454 587.779 389.395 586.5 389.513L593.454 388.353L593.445 388.361Z" fill="url(#paint13_linear_548_25699)"/>
<path style="mix-blend-mode:multiply" opacity="0.4" fill-rule="evenodd" clip-rule="evenodd" d="M230.768 517.673C230.345 517.732 229.854 517.732 229.362 517.791C230.523 517.063 230.946 517.063 230.768 517.673Z" fill="url(#paint14_linear_548_25699)"/>
<path fill-rule="evenodd" clip-rule="evenodd" d="M555.601 216.513L606.327 196.532C606.327 196.532 687.038 227.897 737.883 296.563L741.06 340.421C741.06 340.421 644.9 303.559 555.601 216.513Z" fill="url(#paint15_linear_548_25699)"/>
<path fill-rule="evenodd" clip-rule="evenodd" d="M739.959 662.73C739.959 662.73 697.448 708.849 665.321 719.132L638.946 727.178C638.946 727.178 518.621 683.888 512.031 608.581C506.492 545.31 614.705 448.202 643.985 436.649C673.266 425.087 707.553 431.634 707.553 431.634L739.959 662.73Z" fill="url(#paint16_linear_548_25699)"/>
<path fill-rule="evenodd" clip-rule="evenodd" d="M707.553 431.634C682.177 423.579 572.499 474.094 543.048 587.423C537.077 610.419 592.708 697.779 659.164 719.14C681.22 726.229 782.343 637.887 786.569 578.021C790.796 518.164 745.253 443.603 707.561 431.634H707.553Z" fill="url(#paint17_linear_548_25699)"/>
<path fill-rule="evenodd" clip-rule="evenodd" d="M550.121 600.679C565.774 472.341 682.465 430.559 707.841 438.614C726.17 444.433 753.13 471.35 768.545 497.887C752.63 465.116 728.838 438.393 707.553 431.634C682.177 423.579 572.499 474.094 543.049 587.423C540.974 595.41 546.352 611.181 557.024 629.248C551.188 616.924 549.384 606.786 550.121 600.679Z" fill="url(#paint18_linear_548_25699)"/>
<path style="mix-blend-mode:multiply" fill-rule="evenodd" clip-rule="evenodd" d="M335.559 738.181C335.559 738.181 361.714 747.769 380.78 742.568C380.78 742.568 388.107 680.712 364.797 641.14C341.488 601.577 301.984 661.366 301.984 661.366L292.946 699.236C292.946 699.236 314.926 725.679 335.559 738.189V738.181Z" fill="url(#paint19_linear_548_25699)"/>
<path fill-rule="evenodd" clip-rule="evenodd" d="M358.234 728.186L375.004 723.697C375.004 723.697 383.085 689.427 369.05 650.77C353.109 606.887 294.683 574.083 286.018 573.371C277.354 572.668 268.799 592.395 268.799 592.395L358.242 728.178L358.234 728.186Z" fill="url(#paint20_linear_548_25699)"/>
<path fill-rule="evenodd" clip-rule="evenodd" d="M622.251 762.1L594.402 798.326C594.402 798.326 546.047 821.729 497.514 810.388L462.304 786.663L622.251 762.1Z" fill="url(#paint21_linear_548_25699)"/>
<path fill-rule="evenodd" clip-rule="evenodd" d="M256.254 619.558C259.168 606.244 270.898 584.12 281.41 581.96C291.921 579.8 341.606 626.97 353.1 657.318C364.594 687.666 358.8 721.325 358.233 728.186C357.665 735.047 301.297 715.922 272.855 692.553C244.413 669.176 256.254 619.558 256.254 619.558Z" fill="url(#paint22_linear_548_25699)"/>
<path fill-rule="evenodd" clip-rule="evenodd" d="M353.101 657.318C341.598 626.97 291.922 579.8 281.411 581.96C277.362 582.79 273.127 586.602 269.29 591.717C271.645 589.575 274.042 588.058 276.388 587.576C286.899 585.416 337.507 622.955 348.806 653.388C362.672 690.757 355.049 717.726 353.685 729.507C356.421 729.685 358.14 729.321 358.234 728.195C358.801 721.334 364.603 687.674 353.101 657.326V657.318Z" fill="url(#paint23_linear_548_25699)"/>
<path fill-rule="evenodd" clip-rule="evenodd" d="M510.016 528.43C497.531 522.594 511.693 467.844 523.974 455.935C536.256 444.026 568.196 471.858 572.431 494.626C576.658 517.385 538.602 541.804 510.016 528.438V528.43Z" fill="url(#paint24_linear_548_25699)"/>
<path fill-rule="evenodd" clip-rule="evenodd" d="M522.508 524.254C512.514 519.409 523.847 473.984 533.689 464.108C543.531 454.224 569.11 477.321 572.498 496.21C575.886 515.098 545.403 535.349 522.508 524.262V524.254Z" fill="url(#paint25_linear_548_25699)"/>
<path fill-rule="evenodd" clip-rule="evenodd" d="M606.336 196.532C606.336 196.532 608.843 227.321 643.511 265.072C678.179 302.823 737.892 296.563 737.892 296.563L741.069 340.421C741.069 340.421 614.095 284.299 555.609 216.513L606.336 196.532Z" fill="url(#paint26_linear_548_25699)"/>
<path fill-rule="evenodd" clip-rule="evenodd" d="M705.902 469.427C704.462 470.622 701.319 472.875 703.81 474.62C704.487 475.094 705.072 474.84 705.783 475.052C706.342 475.212 706.478 475.644 707.121 475.399C709.146 474.628 708.341 468.877 706.054 470.029L705.902 469.427Z" fill="#0EDBFF"/>
<path fill-rule="evenodd" clip-rule="evenodd" d="M825.658 417.854C824.219 419.048 821.076 421.301 823.566 423.046C824.235 423.52 824.828 423.266 825.54 423.478C826.099 423.639 826.234 424.071 826.878 423.825C828.902 423.054 828.098 417.303 825.811 418.455L825.658 417.854Z" fill="#0EDBFF"/>
<path fill-rule="evenodd" clip-rule="evenodd" d="M773.06 630.527C771.62 631.721 768.478 633.974 770.968 635.719C771.637 636.193 772.23 635.939 772.941 636.151C773.5 636.312 773.636 636.744 774.28 636.498C776.304 635.727 775.499 629.976 773.212 631.128L773.06 630.527Z" fill="#0EDBFF"/>
<path fill-rule="evenodd" clip-rule="evenodd" d="M716.37 490.34C717.285 489.832 718.233 489.561 719.208 489.535C719.428 490.78 720.571 493.22 718.793 494.194C717.302 495.007 717.751 492.339 717.048 491.72L716.37 490.34Z" fill="#0EDBFF"/>
<path fill-rule="evenodd" clip-rule="evenodd" d="M526.278 503.155C528.183 503.909 530.072 504.697 531.944 505.518C532.554 504.985 533.469 505.086 534.18 504.612C535.095 504.002 535.925 502.723 536.281 501.656C536.814 500.038 535.993 498.725 535.247 497.489C534.756 496.667 534.273 495.456 533.519 494.897C532.639 494.245 530.919 494.499 529.996 494.939C528.861 495.481 528.022 496.65 527.269 497.692C526.557 498.666 525.727 500.292 525.693 501.52C525.659 502.842 526.71 504.239 527.675 504.917L526.269 503.164L526.278 503.155Z" fill="#0EDBFF"/>
<path fill-rule="evenodd" clip-rule="evenodd" d="M256.881 647.196C258.787 647.95 260.676 648.737 262.548 649.559C263.149 649.025 264.064 649.127 264.784 648.653C265.698 648.043 266.528 646.764 266.884 645.697C267.418 644.079 266.596 642.766 265.851 641.529C265.36 640.708 264.877 639.497 264.123 638.937C263.242 638.277 261.523 638.539 260.599 638.98C259.464 639.522 258.626 640.691 257.872 641.733C257.161 642.707 256.331 644.333 256.297 645.561C256.263 646.882 257.313 648.28 258.279 648.958L256.873 647.204L256.881 647.196Z" fill="#0EDBFF"/>
<path fill-rule="evenodd" clip-rule="evenodd" d="M782.046 722.359C783.952 723.113 785.841 723.9 787.713 724.722C788.314 724.188 789.229 724.29 789.949 723.816C790.863 723.206 791.693 721.927 792.049 720.86C792.583 719.242 791.761 717.929 791.016 716.692C790.525 715.871 790.042 714.66 789.288 714.1C788.407 713.448 786.688 713.702 785.765 714.143C784.63 714.685 783.791 715.854 783.037 716.896C782.326 717.87 781.496 719.496 781.462 720.724C781.428 722.045 782.478 723.443 783.444 724.12L782.038 722.367L782.046 722.359Z" fill="#0EDBFF"/>
<path fill-rule="evenodd" clip-rule="evenodd" d="M744.271 670.192C746.177 670.946 748.065 671.733 749.937 672.555C750.547 672.021 751.462 672.123 752.173 671.649C753.088 671.039 753.918 669.76 754.274 668.693C754.807 667.075 753.986 665.762 753.24 664.525C752.749 663.704 752.266 662.493 751.513 661.934C750.632 661.273 748.912 661.536 747.989 661.976C746.854 662.518 746.016 663.687 745.262 664.729C744.55 665.703 743.72 667.329 743.686 668.557C743.652 669.878 744.703 671.276 745.668 671.954L744.262 670.2L744.271 670.192Z" fill="#0EDBFF"/>
<path fill-rule="evenodd" clip-rule="evenodd" d="M220.104 306.134C224.932 308.04 229.718 310.039 234.461 312.131C235.994 310.776 238.315 311.03 240.119 309.836C242.44 308.294 244.54 305.042 245.43 302.348C246.785 298.257 244.693 294.912 242.821 291.795C241.567 289.711 240.365 286.645 238.45 285.222C236.214 283.562 231.869 284.214 229.531 285.323C226.652 286.696 224.543 289.652 222.628 292.286C220.833 294.751 218.724 298.867 218.639 301.984C218.546 305.33 221.214 308.87 223.662 310.581L220.113 306.134H220.104Z" fill="#0EDBFF"/>
<path fill-rule="evenodd" clip-rule="evenodd" d="M538.552 130.873C543.38 132.779 548.165 134.778 552.908 136.87C554.441 135.515 556.762 135.769 558.566 134.574C560.887 133.033 562.988 129.78 563.877 127.087C565.232 122.996 563.14 119.659 561.268 116.533C560.015 114.45 558.812 111.384 556.898 109.961C554.662 108.3 550.317 108.953 547.979 110.062C545.099 111.434 542.99 114.39 541.076 117.025C539.28 119.489 537.171 123.606 537.086 126.723C536.993 130.068 539.661 133.609 542.109 135.32L538.56 130.873H538.552Z" fill="#0EDBFF"/>
<path fill-rule="evenodd" clip-rule="evenodd" d="M580.875 551.061C580.062 551.629 579.393 552.349 578.885 553.204C579.664 554.187 580.045 555.11 581.383 555.491C581.917 555.644 582.485 555.661 582.916 555.237C583.476 554.695 583.171 554.094 583.323 553.56C583.687 552.264 584.043 551.925 583.315 550.739C582.874 550.028 582.569 549.74 581.79 549.74C581.248 549.74 580.062 549.892 579.791 550.494L580.884 551.053L580.875 551.061Z" fill="#0EDBFF"/>
<path fill-rule="evenodd" clip-rule="evenodd" d="M585.204 581.282C585.06 581.613 583.594 585.339 585.5 584.264C586.457 583.722 586.118 582.256 585.466 581.833C585.5 581.714 585.534 581.587 585.568 581.469L585.204 581.282Z" fill="#0EDBFF"/>
<path fill-rule="evenodd" clip-rule="evenodd" d="M680.61 636.303C679.331 637.972 679.17 638.65 678.594 640.377C679.136 640.886 680.203 641.165 680.915 641.14C682.033 641.089 682.083 640.733 682.117 639.666C682.143 638.802 682.498 638.124 682.295 637.294C682.083 636.447 681.236 635.575 680.254 636.117L680.618 636.303H680.61Z" fill="#0EDBFF"/>
<path fill-rule="evenodd" clip-rule="evenodd" d="M600.178 554.712C600.907 555.381 601.364 556.211 601.551 557.202C600.534 557.456 600.416 556.457 600.263 555.669C600.026 554.407 600.61 554.797 601.203 553.789C601.313 553.814 601.423 553.84 601.534 553.857L600.17 554.72L600.178 554.712Z" fill="#0EDBFF"/>
<path fill-rule="evenodd" clip-rule="evenodd" d="M691.647 473.019C690.834 473.586 690.173 474.298 689.656 475.153C690.139 475.746 689.91 476.83 691.028 476.745C691.816 476.686 692.468 475.839 692.841 475.187C693.281 474.433 693.324 473.815 693.375 472.993C693.4 472.578 693.4 470.791 692.638 471.968L691.638 473.019H691.647Z" fill="#0EDBFF"/>
<path fill-rule="evenodd" clip-rule="evenodd" d="M679.271 260.218C680.195 259.981 681.381 259.473 682.329 259.482C682.6 259.482 682.956 259.676 683.252 259.71C684.235 259.795 684.269 259.583 684.743 260.371C685.285 261.26 685.531 261.912 685.37 262.963C684.802 266.554 679.729 261.142 681.499 259.82L679.271 260.21V260.218Z" fill="#0EDBFF"/>
<path fill-rule="evenodd" clip-rule="evenodd" d="M291.21 266.622C289.601 267.113 287.153 267.291 286.958 269.154C286.789 270.747 289.423 272.407 290.753 272.839C293.124 273.61 296.995 273.991 298.164 271.306C298.85 269.73 298.333 266.69 297.368 265.309C295.386 262.472 291.329 263.632 288.237 264.835L291.21 266.622Z" fill="#0EDBFF"/>
<path fill-rule="evenodd" clip-rule="evenodd" d="M702.877 640.251C702.157 634.72 701.15 629.256 706.071 626.351C708.747 624.776 713.651 624.217 716.184 626.089C718.013 627.444 719.614 629.968 720.758 631.865C722.443 634.669 722.003 634.669 721.122 637.227C719.097 643.096 717.717 646.967 711.881 646.976C704.165 646.993 702.979 640.996 702.877 633.542V640.251Z" fill="#0EDBFF"/>
<path fill-rule="evenodd" clip-rule="evenodd" d="M706.3 484.733C708.451 484.149 710.289 483.022 711.839 481.37C710.298 480.413 706.918 478.423 706.3 481.328V484.733Z" fill="#0EDBFF"/>
<path fill-rule="evenodd" clip-rule="evenodd" d="M269.146 625.53C271.297 624.945 273.135 623.827 274.685 622.167C273.143 621.21 269.755 619.219 269.146 622.125V625.53Z" fill="#0EDBFF"/>
<path fill-rule="evenodd" clip-rule="evenodd" d="M269.146 671.971C271.297 671.386 273.135 670.268 274.685 668.608C273.143 667.651 269.755 665.661 269.146 668.566V671.971Z" fill="#0EDBFF"/>
<path fill-rule="evenodd" clip-rule="evenodd" d="M595.994 505.781C598.137 503.155 601.22 498.353 605.099 500.987C607.352 502.511 607.996 506.56 605.845 508.169C603.846 509.66 602.016 510.083 599.763 510.702C598.044 511.176 595.478 510.033 595.994 507.483V505.781Z" fill="#0EDBFF"/>
<path fill-rule="evenodd" clip-rule="evenodd" d="M668.524 625.343C670.666 622.718 673.75 617.915 677.629 620.549C679.882 622.074 680.526 626.122 678.374 627.732C676.375 629.222 674.546 629.646 672.293 630.264C670.573 630.739 668.007 629.595 668.524 627.046V625.343Z" fill="#0EDBFF"/>
<path fill-rule="evenodd" clip-rule="evenodd" d="M657.597 229.091C660.943 229.65 666.635 229.972 666.262 234.648C666.042 237.358 662.849 239.916 660.384 238.832C658.105 237.832 656.826 236.443 655.183 234.792C653.921 233.53 653.65 230.734 656.123 229.93L657.606 229.091H657.597Z" fill="#0EDBFF"/>
<path fill-rule="evenodd" clip-rule="evenodd" d="M645.722 656.335C647.865 653.709 650.948 648.915 654.827 651.541C657.08 653.065 657.724 657.114 655.572 658.723C653.573 660.214 651.744 660.638 649.491 661.256C647.772 661.73 645.205 660.587 645.722 658.037V656.335Z" fill="#0EDBFF"/>
<path fill-rule="evenodd" clip-rule="evenodd" d="M546.869 501.808C544.133 503.545 539.525 505.705 539.059 509.457C538.78 511.727 539.822 513.056 541.871 514.039C543.616 514.878 546.233 514.945 547.978 514.064C550.485 512.802 553.382 510.71 554.509 508.042C555.322 506.12 555.186 504.798 554.28 502.884C553.797 501.859 552.823 500.631 551.722 500.25C548.224 499.039 546.123 502.469 543.532 504.019L546.86 501.8L546.869 501.808Z" fill="#0EDBFF"/>
<path fill-rule="evenodd" clip-rule="evenodd" d="M555.737 491.831C557.227 492.356 558.489 493.194 559.514 494.321C558.024 494.829 556.431 496.006 554.907 495.464C552.933 494.761 552.56 492.881 553.009 490.992C553.255 489.959 555.11 488.146 556.169 488.604C556.702 488.832 556.804 489.561 556.982 490.027C557.355 491.009 557.371 490.797 556.846 491.831H555.737Z" fill="#0EDBFF"/>
<path fill-rule="evenodd" clip-rule="evenodd" d="M631.306 475.34C624.064 481.684 617.254 489.273 613.418 498.353C611.461 502.977 614.934 503.206 619.135 502.393C627.275 500.8 635.457 498.556 643.495 496.489C648.255 495.27 655.082 492.754 658.393 488.714C660.926 485.614 661.985 480.269 661.426 476.373C660.646 470.918 656.767 468.792 651.812 467.429C640.496 464.295 624.437 476.508 620.236 486.935L631.306 475.348V475.34Z" fill="#0EDBFF"/>
<path fill-rule="evenodd" clip-rule="evenodd" d="M590.964 516.529C593.31 516.597 595.495 517.165 597.52 518.232C596.935 518.926 597.122 519.866 596.817 520.68C596.359 521.882 595.216 523.102 594.14 523.788C592.336 524.932 589.346 525.347 587.347 524.593C581.283 522.289 590.583 515.098 592.633 517.639L590.972 516.529H590.964Z" fill="#0EDBFF"/>
<path fill-rule="evenodd" clip-rule="evenodd" d="M252.333 748.218C251.52 748.785 250.851 749.505 250.343 750.36C251.122 751.335 251.503 752.266 252.841 752.647C253.375 752.8 253.943 752.817 254.374 752.393C254.934 751.851 254.629 751.25 254.781 750.716C255.145 749.42 255.501 749.081 254.773 747.896C254.332 747.184 254.027 746.896 253.248 746.896C252.706 746.896 251.52 747.049 251.249 747.65L252.342 748.209L252.333 748.218Z" fill="#0EDBFF"/>
<path fill-rule="evenodd" clip-rule="evenodd" d="M256.661 778.438C256.517 778.769 255.051 782.496 256.957 781.42C257.914 780.878 257.576 779.413 256.923 778.989C256.957 778.87 256.991 778.743 257.025 778.625L256.661 778.438Z" fill="#0EDBFF"/>
<path fill-rule="evenodd" clip-rule="evenodd" d="M271.635 751.868C272.364 752.537 272.821 753.367 273.008 754.358C271.991 754.612 271.873 753.613 271.72 752.825C271.483 751.563 272.067 751.953 272.66 750.945C272.77 750.97 272.881 750.996 272.991 751.013L271.627 751.877L271.635 751.868Z" fill="#0EDBFF"/>
<path fill-rule="evenodd" clip-rule="evenodd" d="M262.42 713.686C264.766 713.753 266.952 714.321 268.976 715.388C268.391 716.083 268.578 717.023 268.273 717.836C267.815 719.039 266.672 720.258 265.596 720.944C263.792 722.079 260.802 722.503 258.803 721.749C252.739 719.445 262.039 712.254 264.089 714.795L262.429 713.686H262.42Z" fill="#0EDBFF"/>
<path fill-rule="evenodd" clip-rule="evenodd" d="M645.714 234.461C647.772 235.893 649.991 236.985 651.558 238.908C653.362 241.127 655.132 243.126 656.53 245.616C657.233 246.87 658.935 249.614 656.428 249.961C653.709 250.334 648.898 246.76 646.925 245.362C643.545 242.982 640.276 240.797 637.837 237.366C636.6 235.63 634.72 232.623 635.973 230.54C637.023 228.786 638.531 228.481 640.454 228.524C642.461 228.566 643.622 229.159 645.197 230.429C645.925 231.014 649.449 234.597 648.255 235.562L645.714 234.453V234.461Z" fill="#0EDBFF"/>
<path fill-rule="evenodd" clip-rule="evenodd" d="M671.996 464.905C670.996 465.624 663.339 469.876 666.981 471.723C668.938 472.714 672.792 472.426 674.782 471.579C676.552 470.825 678.348 469.665 677.238 467.623C674.994 463.507 669.361 465.879 666.448 467.674L671.987 464.905H671.996Z" fill="#0EDBFF"/>
<path fill-rule="evenodd" clip-rule="evenodd" d="M727.118 214.226C724.611 216.039 705.384 226.711 714.54 231.327C719.461 233.809 729.126 233.089 734.123 230.972C738.57 229.083 743.067 226.161 740.281 221.053C734.64 210.728 720.503 216.683 713.211 221.189L727.118 214.235V214.226Z" fill="#0EDBFF"/>
<path fill-rule="evenodd" clip-rule="evenodd" d="M271.907 650.719C272.712 655.208 273.635 660.121 277.539 663.094C281.588 666.169 286.17 664.923 290.143 662.577C293.09 660.841 295.869 658.986 298.748 657.216C300.425 656.182 301.899 655.92 301.975 653.523C302.052 650.948 299.68 647.484 298.198 645.527C296.428 643.189 292.853 640.394 290.092 639.369C284.061 637.116 272.551 639.352 272.686 647.56L271.898 650.719H271.907Z" fill="#0EDBFF"/>
<path fill-rule="evenodd" clip-rule="evenodd" d="M675.672 659.545C676.239 662.696 676.883 666.143 679.627 668.227C682.473 670.387 685.683 669.514 688.47 667.871C690.537 666.651 692.493 665.347 694.509 664.102C695.687 663.374 696.72 663.196 696.771 661.51C696.83 659.698 695.161 657.275 694.12 655.903C692.874 654.26 690.367 652.303 688.436 651.583C684.201 649.999 676.121 651.575 676.222 657.334L675.672 659.554V659.545Z" fill="#0EDBFF"/>
<path style="mix-blend-mode:screen" d="M733.022 684.089C760.932 672.529 774.185 640.531 762.625 612.621C751.064 584.711 719.067 571.457 691.157 583.018C663.247 594.579 649.993 626.576 661.554 654.486C673.114 682.396 705.112 695.65 733.022 684.089Z" fill="url(#paint27_radial_548_25699)"/>
<path style="mix-blend-mode:screen" d="M674.781 520.756C694.614 500.923 694.614 468.767 674.78 448.934C654.947 429.101 622.791 429.101 602.958 448.934C583.125 468.767 583.125 500.923 602.958 520.756C622.791 540.59 654.947 540.59 674.781 520.756Z" fill="url(#paint28_radial_548_25699)"/>
<path style="mix-blend-mode:screen" fill-rule="evenodd" clip-rule="evenodd" d="M671.326 259.278C664.897 268.129 648.779 267.376 635.329 257.61C621.878 247.835 616.186 232.742 622.607 223.899C629.035 215.048 645.154 215.802 658.604 225.568C672.055 235.342 677.746 250.436 671.326 259.278Z" fill="url(#paint29_radial_548_25699)"/>
<path style="mix-blend-mode:screen" d="M286.949 704.267C317.159 704.267 341.649 679.777 341.649 649.567C341.649 619.358 317.159 594.868 286.949 594.868C256.74 594.868 232.25 619.358 232.25 649.567C232.25 679.777 256.74 704.267 286.949 704.267Z" fill="url(#paint30_radial_548_25699)"/>
<path fill-rule="evenodd" clip-rule="evenodd" d="M607.184 201.555C607.184 201.555 620.448 257.898 657.75 279.132C704.953 305.999 737.884 296.563 737.884 296.563C737.884 296.563 695.704 295.072 656.699 268.477C624.132 246.268 607.184 201.555 607.184 201.555Z" fill="url(#paint31_linear_548_25699)"/>
<path style="mix-blend-mode:multiply" opacity="0.4" fill-rule="evenodd" clip-rule="evenodd" d="M518.63 635.948L543.684 599.12C543.684 599.12 575.811 690.503 659.164 719.132L640.903 730.905C640.903 730.905 555.932 706.723 518.63 635.948Z" fill="url(#paint32_linear_548_25699)"/>
<path style="mix-blend-mode:multiply" fill-rule="evenodd" clip-rule="evenodd" d="M566.069 229.176C566.069 229.176 686.25 350.153 772.746 403.92C772.746 403.92 764.377 370.862 741.068 340.421C741.068 340.421 668.455 316.544 566.069 229.176Z" fill="url(#paint33_linear_548_25699)"/>
<path style="mix-blend-mode:screen" d="M424.622 421.531C480.593 384.71 506.829 325.771 483.222 289.888C459.615 254.005 395.105 254.765 339.135 291.587C283.165 328.408 256.929 387.347 280.536 423.23C304.142 459.113 368.652 458.353 424.622 421.531Z" fill="url(#paint34_radial_548_25699)"/>
</g>
<path style="mix-blend-mode:screen" opacity="0.45" fill-rule="evenodd" clip-rule="evenodd" d="M500 0C223.922 0 0 223.769 0 500C0 776.232 223.922 1000 500 1000C776.078 1000 1000 776.079 1000 500C1000 223.922 776.231 0 500 0ZM500 980.576C234.628 980.576 19.4249 765.372 19.4249 500C19.4249 234.629 234.628 19.4249 500 19.4249C765.372 19.4249 980.575 234.629 980.575 500C980.575 765.372 765.372 980.576 500 980.576Z" fill="url(#paint35_linear_548_25699)"/>
</g>
<defs>
<radialGradient id="paint0_radial_548_25699" cx="0" cy="0" r="1" gradientUnits="userSpaceOnUse" gradientTransform="translate(500.005 500.008) scale(400.004 400.004)">
<stop stop-color="#009BFF"/>
<stop offset="1"/>
</radialGradient>
<radialGradient id="paint1_radial_548_25699" cx="0" cy="0" r="1" gradientUnits="userSpaceOnUse" gradientTransform="translate(100.425 500.008) scale(334.811 334.811)">
<stop stop-color="#009BFF"/>
<stop offset="1"/>
</radialGradient>
<radialGradient id="paint2_radial_548_25699" cx="0" cy="0" r="1" gradientUnits="userSpaceOnUse" gradientTransform="translate(500.005 500.008) scale(340.748 340.748)">
<stop stop-color="#0092FF"/>
<stop offset="0.13" stop-color="#008FFB"/>
<stop offset="0.26" stop-color="#0088EF"/>
<stop offset="0.38" stop-color="#007DDA"/>
<stop offset="0.51" stop-color="#006DBE"/>
<stop offset="0.63" stop-color="#00589A"/>
<stop offset="0.76" stop-color="#003F6E"/>
<stop offset="0.88" stop-color="#00213A"/>
<stop offset="1"/>
</radialGradient>
<linearGradient id="paint3_linear_548_25699" x1="308.243" y1="345.113" x2="308.243" y2="245.04" gradientUnits="userSpaceOnUse">
<stop stop-color="#9A00B3"/>
<stop offset="1" stop-color="#7F72FF"/>
</linearGradient>
<linearGradient id="paint4_linear_548_25699" x1="286.103" y1="350.187" x2="323.701" y2="235.384" gradientUnits="userSpaceOnUse">
<stop stop-color="#5B008B"/>
<stop offset="1" stop-color="#8E00FF"/>
</linearGradient>
<radialGradient id="paint5_radial_548_25699" cx="0" cy="0" r="1" gradientUnits="userSpaceOnUse" gradientTransform="translate(321.244 364.992) scale(464.181 464.182)">
<stop stop-color="#60DBFF"/>
<stop offset="0.09" stop-color="#5FD5FF"/>
<stop offset="0.21" stop-color="#5EC4FF"/>
<stop offset="0.34" stop-color="#5CA8FF"/>
<stop offset="0.49" stop-color="#5A81FF"/>
<stop offset="0.64" stop-color="#5651FF"/>
<stop offset="0.68" stop-color="#5643FF"/>
<stop offset="0.74" stop-color="#553DF8"/>
<stop offset="0.83" stop-color="#542EE4"/>
<stop offset="0.93" stop-color="#5315C5"/>
<stop offset="1" stop-color="#5200AB"/>
</radialGradient>
<linearGradient id="paint6_linear_548_25699" x1="211.237" y1="420.878" x2="626.919" y2="420.878" gradientUnits="userSpaceOnUse">
<stop offset="0.01" stop-color="#81E0FF"/>
<stop offset="0.32" stop-color="#82DDFF"/>
<stop offset="0.55" stop-color="#85D3FF"/>
<stop offset="0.75" stop-color="#8BC3FF"/>
<stop offset="0.94" stop-color="#93ADFF"/>
<stop offset="1" stop-color="#97A4FF"/>
</linearGradient>
<linearGradient id="paint7_linear_548_25699" x1="631.162" y1="762.1" x2="631.162" y2="626.41" gradientUnits="userSpaceOnUse">
<stop stop-color="#B8C2FF"/>
<stop offset="1" stop-color="#5B729C"/>
</linearGradient>
<radialGradient id="paint8_radial_548_25699" cx="0" cy="0" r="1" gradientUnits="userSpaceOnUse" gradientTransform="translate(289.034 303.466) scale(380.345 380.345)">
<stop stop-color="#FFFFD9"/>
<stop offset="1"/>
</radialGradient>
<linearGradient id="paint9_linear_548_25699" x1="213.87" y1="339.083" x2="577.284" y2="339.083" gradientUnits="userSpaceOnUse">
<stop stop-color="#B8C2FF"/>
<stop offset="1" stop-color="#7D72B3"/>
</linearGradient>
<linearGradient id="paint10_linear_548_25699" x1="272.856" y1="609.589" x2="789.179" y2="609.589" gradientUnits="userSpaceOnUse">
<stop stop-color="#B8C2FF"/>
<stop offset="1" stop-color="#7D72B3"/>
</linearGradient>
<linearGradient id="paint11_linear_548_25699" x1="242.355" y1="502.791" x2="757.645" y2="502.791" gradientUnits="userSpaceOnUse">
<stop stop-color="#B8C2FF"/>
<stop offset="1" stop-color="#7D72B3"/>
</linearGradient>
<linearGradient id="paint12_linear_548_25699" x1="211.253" y1="430.779" x2="717.751" y2="430.779" gradientUnits="userSpaceOnUse">
<stop stop-color="#B8C2FF"/>
<stop offset="1" stop-color="#7D72B3"/>
</linearGradient>
<linearGradient id="paint13_linear_548_25699" x1="586.492" y1="389.03" x2="593.445" y2="389.03" gradientUnits="userSpaceOnUse">
<stop stop-color="#E8DDFF"/>
<stop offset="1" stop-color="#AA8AD8"/>
</linearGradient>
<linearGradient id="paint14_linear_548_25699" x1="229.362" y1="517.512" x2="230.811" y2="517.512" gradientUnits="userSpaceOnUse">
<stop stop-color="#E8DDFF"/>
<stop offset="1" stop-color="#AA8AD8"/>
</linearGradient>
<linearGradient id="paint15_linear_548_25699" x1="555.601" y1="268.477" x2="741.06" y2="268.477" gradientUnits="userSpaceOnUse">
<stop stop-color="#7F72FF"/>
<stop offset="1" stop-color="#9A00B3"/>
</linearGradient>
<linearGradient id="paint16_linear_548_25699" x1="597.731" y1="713.677" x2="691.807" y2="426.476" gradientUnits="userSpaceOnUse">
<stop stop-color="#280077"/>
<stop offset="1" stop-color="#812CFF"/>
</linearGradient>
<linearGradient id="paint17_linear_548_25699" x1="624.627" y1="707.854" x2="714.382" y2="433.898" gradientUnits="userSpaceOnUse">
<stop stop-color="#7A00B3"/>
<stop offset="1" stop-color="#B136FF"/>
</linearGradient>
<linearGradient id="paint18_linear_548_25699" x1="655.573" y1="629.248" x2="655.573" y2="430.804" gradientUnits="userSpaceOnUse">
<stop stop-color="#8E00B3"/>
<stop offset="1" stop-color="#E05CFF"/>
</linearGradient>
<linearGradient id="paint19_linear_548_25699" x1="337.405" y1="744.11" x2="337.405" y2="627.605" gradientUnits="userSpaceOnUse">
<stop stop-color="#81A9CE"/>
<stop offset="1" stop-color="#5B729C"/>
</linearGradient>
<linearGradient id="paint20_linear_548_25699" x1="304.669" y1="710.645" x2="343.53" y2="592.014" gradientUnits="userSpaceOnUse">
<stop stop-color="#280077"/>
<stop offset="1" stop-color="#812CFF"/>
</linearGradient>
<linearGradient id="paint21_linear_548_25699" x1="542.277" y1="813.488" x2="542.277" y2="762.1" gradientUnits="userSpaceOnUse">
<stop stop-color="#7A00B3"/>
<stop offset="0.92" stop-color="#7006FC"/>
<stop offset="1" stop-color="#7006F9"/>
</linearGradient>
<linearGradient id="paint22_linear_548_25699" x1="307.006" y1="729.601" x2="307.006" y2="581.884" gradientUnits="userSpaceOnUse">
<stop stop-color="#7A00B3"/>
<stop offset="1" stop-color="#B136FF"/>
</linearGradient>
<linearGradient id="paint23_linear_548_25699" x1="314.749" y1="729.55" x2="314.749" y2="581.884" gradientUnits="userSpaceOnUse">
<stop stop-color="#8E00B3"/>
<stop offset="1" stop-color="#E05CFF"/>
</linearGradient>
<linearGradient id="paint24_linear_548_25699" x1="527.871" y1="534.57" x2="552.586" y2="459.103" gradientUnits="userSpaceOnUse">
<stop stop-color="#5B008B"/>
<stop offset="1" stop-color="#8E00FF"/>
</linearGradient>
<linearGradient id="paint25_linear_548_25699" x1="536.484" y1="529.124" x2="556.93" y2="466.7" gradientUnits="userSpaceOnUse">
<stop stop-color="#A400CA"/>
<stop offset="1" stop-color="#B136FF"/>
</linearGradient>
<linearGradient id="paint26_linear_548_25699" x1="638.997" y1="306.99" x2="668.506" y2="216.894" gradientUnits="userSpaceOnUse">
<stop stop-color="#5B008B"/>
<stop offset="1" stop-color="#8E00FF"/>
</linearGradient>
<radialGradient id="paint27_radial_548_25699" cx="0" cy="0" r="1" gradientUnits="userSpaceOnUse" gradientTransform="translate(712.086 633.551) scale(54.6992 54.6993)">
<stop stop-color="#317AFF"/>
<stop offset="0.1" stop-color="#2967D7"/>
<stop offset="0.29" stop-color="#1C4896"/>
<stop offset="0.47" stop-color="#122E60"/>
<stop offset="0.64" stop-color="#0A1A37"/>
<stop offset="0.78" stop-color="#040B18"/>
<stop offset="0.91" stop-color="#010306"/>
<stop offset="1"/>
</radialGradient>
<radialGradient id="paint28_radial_548_25699" cx="0" cy="0" r="1" gradientUnits="userSpaceOnUse" gradientTransform="translate(638.867 484.846) scale(50.7861 50.7861)">
<stop stop-color="#317AFF"/>
<stop offset="0.1" stop-color="#2967D7"/>
<stop offset="0.29" stop-color="#1C4896"/>
<stop offset="0.47" stop-color="#122E60"/>
<stop offset="0.64" stop-color="#0A1A37"/>
<stop offset="0.78" stop-color="#040B18"/>
<stop offset="0.91" stop-color="#010306"/>
<stop offset="1"/>
</radialGradient>
<radialGradient id="paint29_radial_548_25699" cx="0" cy="0" r="1" gradientUnits="userSpaceOnUse" gradientTransform="translate(645.693 243.437) rotate(35.99) scale(30.1024 19.8676)">
<stop stop-color="#317AFF"/>
<stop offset="0.1" stop-color="#2967D7"/>
<stop offset="0.29" stop-color="#1C4896"/>
<stop offset="0.47" stop-color="#122E60"/>
<stop offset="0.64" stop-color="#0A1A37"/>
<stop offset="0.78" stop-color="#040B18"/>
<stop offset="0.91" stop-color="#010306"/>
<stop offset="1"/>
</radialGradient>
<radialGradient id="paint30_radial_548_25699" cx="0" cy="0" r="1" gradientUnits="userSpaceOnUse" gradientTransform="translate(286.949 649.567) scale(54.6993 54.6993)">
<stop stop-color="#317AFF"/>
<stop offset="0.1" stop-color="#2967D7"/>
<stop offset="0.29" stop-color="#1C4896"/>
<stop offset="0.47" stop-color="#122E60"/>
<stop offset="0.64" stop-color="#0A1A37"/>
<stop offset="0.78" stop-color="#040B18"/>
<stop offset="0.91" stop-color="#010306"/>
<stop offset="1"/>
</radialGradient>
<linearGradient id="paint31_linear_548_25699" x1="672.538" y1="298.173" x2="672.538" y2="201.555" gradientUnits="userSpaceOnUse">
<stop stop-color="#B000D9"/>
<stop offset="1" stop-color="#E05CFF"/>
</linearGradient>
<linearGradient id="paint32_linear_548_25699" x1="588.897" y1="730.914" x2="588.897" y2="599.12" gradientUnits="userSpaceOnUse">
<stop stop-color="#B8C2FF"/>
<stop offset="1" stop-color="#7D72B3"/>
</linearGradient>
<linearGradient id="paint33_linear_548_25699" x1="669.403" y1="403.92" x2="669.403" y2="229.176" gradientUnits="userSpaceOnUse">
<stop stop-color="#81A9CE"/>
<stop offset="1" stop-color="#5B729C"/>
</linearGradient>
<radialGradient id="paint34_radial_548_25699" cx="0" cy="0" r="1" gradientUnits="userSpaceOnUse" gradientTransform="translate(384.329 354.499) rotate(-33.34) scale(121.533 77.8685)">
<stop stop-color="#06FEFF"/>
<stop offset="0.17" stop-color="#04C4C4"/>
<stop offset="0.4" stop-color="#037F7F"/>
<stop offset="0.6" stop-color="#014848"/>
<stop offset="0.78" stop-color="#002121"/>
<stop offset="0.92" stop-color="#000808"/>
<stop offset="1"/>
</radialGradient>
<linearGradient id="paint35_linear_548_25699" x1="500" y1="25.2371" x2="500" y2="1048.18" gradientUnits="userSpaceOnUse">
<stop stop-color="#27A2D9"/>
<stop offset="0.19" stop-color="#1D78A1"/>
<stop offset="0.39" stop-color="#124E68"/>
<stop offset="0.59" stop-color="#0A2C3B"/>
<stop offset="0.76" stop-color="#04141A"/>
<stop offset="0.9" stop-color="#010507"/>
<stop offset="1"/>
</linearGradient>
<clipPath id="clip0_548_25699">
<rect width="1000" height="1000" fill="white"/>
</clipPath>
<clipPath id="clip1_548_25699">
<rect width="800" height="800" fill="white" transform="translate(100 100)"/>
</clipPath>
</defs>
</svg>
