<svg width="1001" height="1001" viewBox="0 0 1001 1001" fill="none" xmlns="http://www.w3.org/2000/svg">
<path style="mix-blend-mode:screen" d="M501 901C721.914 901 901 721.914 901 501C901 280.086 721.914 101 501 101C280.086 101 101 280.086 101 501C101 721.914 280.086 901 501 901Z" fill="url(#paint0_radial_548_23245)"/>
<path style="mix-blend-mode:screen" d="M520.406 819C691.808 819 830.757 680.051 830.757 508.649C830.757 337.247 691.808 198.298 520.406 198.298C349.004 198.298 210.055 337.247 210.055 508.649C210.055 680.051 349.004 819 520.406 819Z" fill="url(#paint1_radial_548_23245)"/>
<path fill-rule="evenodd" clip-rule="evenodd" d="M784.79 498.739C784.79 525.292 781.055 551.018 773.997 575.294C759.996 624.129 732.86 667.374 696.624 701.097C670.72 725.251 640.14 744.455 606.473 757.233C575.958 768.844 542.931 775.148 508.325 775.148C503.422 775.148 498.464 775.035 493.618 774.743H493.561C486.326 774.395 479.147 773.69 472.089 772.815C418.7 765.814 370.213 743.637 330.883 710.61C316.119 698.302 302.701 684.414 290.855 669.237C281.869 657.861 273.758 645.78 266.636 633.002C264.943 629.971 263.314 626.876 261.677 623.781C261.677 623.667 261.62 623.603 261.564 623.489C259.87 620.167 258.298 616.837 256.783 613.45H256.726C251.946 602.892 247.74 591.978 244.353 580.772C241.785 572.717 239.63 564.436 237.879 556.034C237.823 555.977 237.823 555.856 237.823 555.799C236.599 549.908 235.546 543.953 234.727 537.94C232.864 525.106 231.924 512.036 231.924 498.731C231.924 491.09 232.216 483.441 232.912 475.971C233.261 471.182 233.787 466.458 234.428 461.734C237.985 434.541 245.569 408.637 256.54 384.539C261.912 372.693 268.094 361.317 275.039 350.402C286.593 332.196 300.246 315.512 315.649 300.514C365.425 252.084 433.399 222.266 508.325 222.266C511.242 222.266 514.159 222.322 517.019 222.379C520.114 222.493 523.201 222.614 526.296 222.849C542.17 223.902 557.686 226.236 572.685 229.85C581.436 231.948 590.016 234.404 598.419 237.321C604.139 239.249 609.738 241.404 615.281 243.738C619.421 245.488 623.448 247.295 627.475 249.224C628.172 249.572 628.877 249.864 629.574 250.212C656.418 263.338 680.751 280.614 701.867 301.324C704.897 304.241 707.822 307.28 710.739 310.367C712.668 312.465 714.588 314.629 716.46 316.784C719.668 320.398 722.764 324.198 725.794 327.99C736.822 341.992 746.505 357.047 754.615 373.033C764.128 391.589 771.599 411.367 776.671 432.086C781.979 453.445 784.782 475.736 784.782 498.723L784.79 498.739Z" fill="url(#paint2_radial_548_23245)"/>
<g style="mix-blend-mode:multiply" opacity="0.4">
<path fill-rule="evenodd" clip-rule="evenodd" d="M301.43 375.019C296.179 385.763 292.16 394.53 291.115 406.271C290.353 414.868 288.895 423.246 289.746 431.94C290.637 441.04 294.218 448.948 296.965 457.537C300.231 467.754 305.53 477.372 313.227 484.989C326.451 498.083 345.144 498.334 360.823 489.705C368.837 485.297 375.505 479.374 383.973 475.598C395.624 470.404 406.612 465.51 414.698 455.122C423.514 443.803 426.82 430.498 428.278 416.367C429.145 407.916 430.312 400.016 428.44 391.581C426.966 384.944 424.227 378.13 420.856 372.231C418.28 367.726 415.306 363.172 412.089 359.081C407.414 353.133 402.374 351.091 395.73 348.069C391.646 346.213 388.413 344.099 383.754 343.936C378.625 343.758 372.791 343.685 367.718 344.293C361.625 345.022 356.229 347.299 350.492 349.236C345.031 351.075 339.343 352.193 334.011 354.43C328.655 356.674 323.567 358.327 317.968 359.931C310.878 361.965 305.157 363.918 299.809 369.217C298.553 370.465 296.455 372.077 295.426 373.495C293.416 376.25 294.064 379.192 301.43 375.043V375.019Z" fill="#B9BFE2"/>
<path fill-rule="evenodd" clip-rule="evenodd" d="M401.669 492.946C403.184 487.849 404.221 478.126 409.131 474.399C411.108 472.9 413.993 471.7 416.399 471.133C420.402 470.193 423.222 471.482 426.714 473.378C435.481 478.142 433.845 491.666 428.983 498.845C424.802 505.027 414.268 510.521 407.543 505.481C402.819 501.94 400.275 494.615 401.912 488.765C402.317 488.684 402.73 488.595 403.135 488.514L401.661 492.938L401.669 492.946Z" fill="#B9BFE2"/>
<path fill-rule="evenodd" clip-rule="evenodd" d="M568.245 576.971C567.742 582.416 566.17 590.795 567.037 596.799C567.872 602.535 568.95 608.232 570.392 613.847C572.944 623.781 576.599 635.343 587.351 639.127C596.904 642.49 608.329 639.241 617.331 635.603C626.949 631.705 637.734 628.618 646.412 622.825C655.074 617.031 663.549 609.771 670.023 601.669C677.121 592.788 680.095 584.88 680.362 573.26C680.735 556.844 673.977 542.405 665.575 528.663C656.281 513.478 639.119 509.046 622.695 514.969C608.945 519.928 601.855 534.74 591.807 544.585C588.664 547.672 586.346 551.148 583 553.757C579.167 556.739 577.709 559.842 575.31 563.788C573.39 566.94 570.813 568.885 569.338 572.482C567.475 577.028 568.261 582.441 568.261 576.979L568.245 576.971Z" fill="#B9BFE2"/>
<path fill-rule="evenodd" clip-rule="evenodd" d="M695.021 568.123C695.944 566.802 702.402 552.606 708.252 553.247C711.064 553.554 713.276 556.674 714.621 558.951C716.801 562.629 718.527 566.049 715.674 570.23C712.012 575.578 697.135 579.54 696.212 569.89C695.815 569.792 695.418 569.695 695.021 569.606V568.131V568.123Z" fill="#B9BFE2"/>
<path fill-rule="evenodd" clip-rule="evenodd" d="M470.146 273.159C471.069 271.838 477.527 257.642 483.377 258.282C486.189 258.59 488.401 261.71 489.746 263.987C491.926 267.665 493.652 271.085 490.799 275.266C487.137 280.614 472.26 284.576 471.337 274.925C470.94 274.828 470.543 274.739 470.146 274.642V273.167V273.159Z" fill="#B9BFE2"/>
<path fill-rule="evenodd" clip-rule="evenodd" d="M623.579 481.505C624.503 480.184 630.961 465.988 636.811 466.628C639.623 466.936 641.835 470.056 643.18 472.333C645.359 476.011 647.085 479.431 644.233 483.612C640.571 488.959 625.694 492.922 624.77 483.271C624.373 483.174 623.976 483.077 623.579 482.988V481.513V481.505Z" fill="#B9BFE2"/>
<path fill-rule="evenodd" clip-rule="evenodd" d="M585.934 413.345C582.62 422.225 578.585 427.703 581.299 436.113C582.612 440.197 583.203 444.467 584.362 448.583C586.631 456.613 592.894 461.507 598.517 467.212C605.947 474.747 612.567 477.081 622.534 472.3C625.807 470.736 628.732 468.532 631.633 466.401C636.082 463.128 637.88 460.948 640.506 456.046C642.823 451.711 643.479 447.668 645.23 443.155C647.109 438.285 649.216 434.42 649.378 429.015C649.532 423.821 649.913 418.166 648.527 413.174C646.745 406.757 643.334 401.126 639.882 395.543C636.843 390.633 633.246 385.925 628.684 382.246C624.892 379.183 620.046 379.248 615.387 378.26C607.341 376.558 595.689 383.073 591.403 389.685C585.391 398.962 582.142 409.771 585.942 413.345H585.934Z" fill="#B9BFE2"/>
<path fill-rule="evenodd" clip-rule="evenodd" d="M566.77 466.409C567.556 472.738 569.59 478.547 572.88 483.83C573.884 482.971 575.521 482.534 576.826 482.364C576.882 480.516 578.284 479.868 578.633 478.272C579.022 476.514 578.527 474.123 578.552 472.308C578.592 469.002 577.45 466.377 576.364 463.444C575.464 461.013 574.225 456.905 571.146 457.464C565.312 458.525 565.871 463.33 566.762 466.409H566.77Z" fill="#B9BFE2"/>
<path fill-rule="evenodd" clip-rule="evenodd" d="M290.37 643.309C290.775 648.332 290.548 652.554 293.319 656.791C296.074 661.005 299.494 664.829 302.97 668.468C305.311 670.915 309.63 676.1 313.617 673.872C316.882 672.049 317.976 665.502 317.636 662.204C317.36 659.546 316.388 656.597 315.74 653.98C314.986 650.933 313.722 648.024 311.931 645.448C308.877 641.064 301.722 632.905 295.539 636.843C293.773 637.969 291.974 638.812 291.026 640.643C290.127 642.377 290.378 644.224 290.378 643.309H290.37Z" fill="#B9BFE2"/>
<path fill-rule="evenodd" clip-rule="evenodd" d="M429.137 621.196C428.149 618.595 427.46 615.937 427.055 613.207C426.642 612.364 426.787 611.635 427.501 611.027C428.473 608.118 429.421 605.234 430.912 602.535C433.594 597.706 436.77 592.334 441.632 589.401C443.414 588.323 445.27 588.04 447.263 587.554C449.289 587.067 451.29 586.281 453.348 585.925C456.873 585.309 460.819 586.079 464.222 586.978C468.03 587.983 472.722 589.158 476.166 591.086C479.463 592.934 481.481 596.191 483.499 599.262C487.639 605.582 489.389 614.544 483.612 620.669C482.016 622.363 479.99 623.659 478.078 624.964C476.052 626.349 474.124 628.092 471.952 629.258C469.351 630.644 465.899 630.928 463.039 631.511C457.513 632.645 451.663 632.548 446.226 630.968C440.481 629.299 436.316 625.32 429.129 621.18L429.137 621.196Z" fill="#B9BFE2"/>
</g>
<path fill-rule="evenodd" clip-rule="evenodd" d="M669.035 400.469C669.035 400.469 654.158 427.387 662.083 475.541C679.714 582.708 738.637 566.341 734.829 516.59L669.035 400.469Z" fill="url(#paint3_linear_548_23245)"/>
<path style="mix-blend-mode:screen" fill-rule="evenodd" clip-rule="evenodd" d="M592.375 672.997C587.343 714.013 539.067 741.846 484.543 735.161C430.02 728.476 389.895 689.81 394.927 648.794C399.959 607.778 448.235 579.945 502.758 586.63C557.282 593.315 597.406 631.981 592.375 672.997Z" fill="url(#paint4_radial_548_23245)"/>
<path fill-rule="evenodd" clip-rule="evenodd" d="M629.567 250.244C628.659 250.342 627.743 250.439 626.836 250.625C623.716 251.201 621.277 250.917 618.206 250.05C616.003 249.426 614.414 248.519 612.065 248.13C608.71 247.603 605.59 246.161 602.236 245.731C598.687 245.253 595.616 243.859 592.261 242.66C589.628 241.704 588.234 242.036 585.69 242.66C583.146 243.333 581.371 242.279 579.119 241.315C576.575 240.213 574.038 240.019 571.348 239.492C564.348 238.05 557.395 235.797 550.443 234.023C546.124 232.921 542.146 232.921 537.738 232.872C534.286 232.824 531.167 233.828 527.715 233.828C525.414 233.828 523.445 233.447 521.144 233.107C518.794 232.678 516.396 233.156 514.046 232.824C510.545 232.297 508.674 231.77 505.125 232.872C502.491 233.731 500.425 233.642 497.792 233.78C494.867 233.925 491.561 234.687 488.684 235.36C483.506 236.559 477.851 237.515 472.527 237.418C469.27 237.418 464.473 236.51 461.354 237.612C459.336 238.333 458.331 240.489 456.946 241.931C454.264 244.71 450.95 247.206 448.697 250.325C446.445 253.445 443.9 256.654 444.095 260.584C444.289 263.987 445.869 267.965 447.352 271.085C448.883 274.391 449.41 277.413 446.007 279.617C441.737 282.445 436.802 285.038 431.908 286.423C428.651 287.379 425.726 287.955 422.987 285.605C421.982 284.738 421.358 283.061 420.111 282.396C418.814 281.724 417.477 282.396 416.084 282.826C412.632 283.83 409.277 284.981 405.777 285.556C403.622 285.888 401.75 287.039 399.643 287.428C397.099 287.906 395.276 286.034 392.642 286.658C388.947 287.525 385.261 289.057 381.42 289.251C378.689 289.397 375.238 288.198 372.928 286.804C371.583 286.034 371.251 285.273 369.72 285.702C368.472 285.994 366.6 287.525 365.928 288.481C365.02 289.778 364.68 291.455 363.772 292.8C362.816 294.283 361.901 295.725 361.042 297.305C359.462 300.376 357.59 303.253 355.572 305.983C354.13 307.904 353.125 310.488 351.545 312.263C350.727 313.219 348.952 313.891 347.899 314.613C345.022 316.63 342 318.445 339.221 320.609C333.849 324.83 328.768 329.481 323.299 333.557C319.126 336.676 313.276 338.499 308.528 340.46C305.554 341.66 302.483 342.527 299.509 343.766C298.553 344.147 296.779 344.585 295.96 345.298C294.907 346.205 294.332 347.891 293.368 349.13C290.775 352.298 288.044 355.459 286.083 359.105C284.884 361.211 284.163 363.375 283.401 365.676C282.348 368.796 280.671 371.672 279.609 374.784C277.454 381.306 277.016 388.113 274.626 394.587C273.232 398.379 271.223 401.831 269.497 405.282C266.523 411.132 266.094 418.085 265.227 424.559C264.749 428.351 264.935 432.71 265.608 436.405C266.329 440.383 266.134 444.508 266.086 448.583C266.037 452.902 263.306 457.116 260.568 460.381C258.072 463.403 254.288 464.554 251.509 467.236C249.159 469.537 246.331 472.179 245.326 475.436C244.897 476.878 245.278 478.507 245.043 480.038C244.419 483.441 243.56 486.658 243.074 490.11C242.547 494.38 242.45 498.407 242.45 502.718C242.45 504.873 242.304 507.085 242.401 509.24C242.498 511.299 243.26 513.219 243.406 515.285C243.503 516.727 243.212 518.162 243.406 519.604C243.69 521.233 244.314 522.91 244.702 524.498C245.659 528.331 246.38 532.074 247.101 535.907C247.773 539.456 249.159 542.956 250.269 546.408C251.8 551.107 252.813 555.953 253.721 560.839C254.442 564.485 254.393 568.269 254.92 571.964C255.349 574.938 256.022 577.96 256.168 580.934C256.314 585.439 255.212 589.952 255.163 594.506C255.114 602.179 258.185 609.852 259.96 617.234C260.487 619.292 261.013 621.407 261.589 623.465C242.604 585.965 231.908 543.58 231.908 498.699C231.908 444.127 247.733 393.258 275.015 350.386C286.618 332.163 300.239 315.48 315.626 300.514C365.45 252.084 433.391 222.258 508.341 222.258C514.386 222.258 520.333 222.452 526.273 222.833C563.148 225.183 598.055 234.776 629.558 250.212L629.567 250.244Z" fill="url(#paint5_linear_548_23245)"/>
<path style="mix-blend-mode:screen" fill-rule="evenodd" clip-rule="evenodd" d="M655.673 400.745C646.696 416.302 614.908 414.763 584.685 397.309C554.462 379.856 537.236 353.101 546.221 337.543C555.199 321.986 586.986 323.526 617.21 340.979C647.433 358.432 664.659 385.187 655.673 400.745Z" fill="url(#paint6_radial_548_23245)"/>
<path fill-rule="evenodd" clip-rule="evenodd" d="M717.165 595C717.165 595 689.567 595.397 667.139 623.497C644.71 651.598 644.905 676.473 648.13 684.819C651.354 693.165 717.165 595 717.165 595Z" fill="url(#paint7_radial_548_23245)"/>
<path style="mix-blend-mode:screen" fill-rule="evenodd" clip-rule="evenodd" d="M690.961 537.811C659.133 542.097 629.25 515.342 624.227 478.045C619.203 440.748 640.935 407.041 672.762 402.746C704.59 398.46 734.473 425.215 739.496 462.512C744.52 499.809 722.789 533.516 690.961 537.803V537.811Z" fill="url(#paint8_radial_548_23245)"/>
<path style="mix-blend-mode:screen" fill-rule="evenodd" clip-rule="evenodd" d="M344.414 714.629C315.836 690.701 292.152 661.07 275.128 627.5C264.432 606.401 256.378 583.77 251.395 560.037C251.346 559.988 251.346 559.891 251.346 559.793C247.514 541.376 245.448 522.294 245.448 502.734C245.448 448.162 261.272 397.293 288.554 354.421C300.157 336.198 313.778 319.515 329.165 304.549C378.989 256.119 446.93 226.293 521.881 226.293C527.925 226.293 533.865 226.487 539.812 226.868C558.554 228.067 576.777 231.171 594.303 235.927C572.701 228.845 549.9 224.372 526.281 222.857C520.333 222.476 514.386 222.282 508.349 222.282C433.399 222.282 365.457 252.108 315.634 300.538C300.238 315.496 286.626 332.187 275.023 350.411C247.741 393.282 231.916 444.151 231.916 498.723C231.916 518.291 233.974 537.373 237.815 555.783C237.815 555.88 237.815 555.977 237.863 556.026C242.847 579.759 250.909 602.398 261.596 623.489C278.62 657.051 302.305 686.691 330.883 710.618C361.171 736.028 396.928 755.005 436.146 765.595C402.219 754.527 371.186 737.09 344.414 714.629Z" fill="url(#paint9_radial_548_23245)"/>
<path fill-rule="evenodd" clip-rule="evenodd" d="M691.544 705.692C691.544 705.692 660.081 713.332 649.539 689.745C638.998 666.158 679.139 604.245 711.404 596.142C743.669 588.032 749.916 625.952 749.916 625.952L691.544 705.7V705.692Z" fill="#004A59"/>
<path fill-rule="evenodd" clip-rule="evenodd" d="M501 272.608C501 272.608 513.932 316.136 560.134 348.895C634.647 401.733 665.421 382.7 665.421 382.7L501.008 272.608H501Z" fill="url(#paint10_radial_548_23245)"/>
<path fill-rule="evenodd" clip-rule="evenodd" d="M602.325 754.737C602.325 754.737 634.371 737.916 635.044 715.066C635.708 692.217 586.671 660.997 491.042 647.23C403.451 634.622 336.466 653.891 332.05 670.842C327.626 687.793 350.476 729.068 396.912 749.706C443.349 770.343 578.535 766.389 602.341 754.729L602.325 754.737Z" fill="#004A59"/>
<path fill-rule="evenodd" clip-rule="evenodd" d="M449.175 352.29C449.175 352.29 468.67 383.121 498.926 385.795C529.181 388.469 538.127 364.752 538.127 364.752C538.127 364.752 469.221 364.21 449.175 352.29Z" fill="url(#paint11_radial_548_23245)"/>
<path fill-rule="evenodd" clip-rule="evenodd" d="M436.349 327.869C436.349 327.869 446.882 367.515 487.914 377.992C533.055 389.523 546.287 359.972 539.748 343.799C533.209 327.626 479.868 302.831 436.349 327.869Z" fill="#00777A"/>
<path fill-rule="evenodd" clip-rule="evenodd" d="M347.898 314.645C347.898 314.645 376.339 319.92 418.206 295.045C460.073 270.169 451.419 247.23 451.419 247.23L347.898 314.637V314.645Z" fill="url(#paint12_radial_548_23245)"/>
<path fill-rule="evenodd" clip-rule="evenodd" d="M337.964 296.373C337.964 296.373 327.301 311.023 347.898 314.645C368.496 318.267 438.131 284.098 450.973 258.266C463.824 232.426 396.304 217.931 337.956 296.381L337.964 296.373Z" fill="#00777A"/>
<path fill-rule="evenodd" clip-rule="evenodd" d="M522.545 242.685C522.545 242.685 495.158 247.4 493.683 261.629C492.208 275.857 537.033 332.722 585.819 362.832C634.606 392.942 682.371 382.781 689.745 375.391C697.118 367.993 625.993 250.09 522.553 242.693L522.545 242.685Z" fill="#006D7A"/>
<path fill-rule="evenodd" clip-rule="evenodd" d="M713.915 405.323C713.915 405.323 687.825 377.984 667.138 388.242C650.123 396.677 657.423 480.217 675.111 512.076C692.8 543.936 715.649 541.06 724.498 534.019C733.346 526.977 735.315 433.593 713.915 405.315V405.323Z" fill="#004A59"/>
<path fill-rule="evenodd" clip-rule="evenodd" d="M712.149 343.799C712.149 343.799 704.192 341.254 698.869 348.92C693.545 356.585 730.397 409.074 745.873 415.265C761.349 421.447 764.452 399.238 764.452 399.238L712.149 343.791V343.799Z" fill="#004A59"/>
<path fill-rule="evenodd" clip-rule="evenodd" d="M514.434 260.77C502.126 281.659 613.166 400.332 680.273 377.96C693.537 373.536 700.724 286.423 655.949 245.107C618.725 210.76 538.759 219.495 514.434 260.77Z" fill="url(#paint13_radial_548_23245)"/>
<path fill-rule="evenodd" clip-rule="evenodd" d="M680.273 401.555C660.194 409.958 663.322 498.845 688.384 524.644C713.446 550.443 751.772 512.854 755.458 473.791C759.145 434.728 711.971 388.299 680.281 401.563L680.273 401.555Z" fill="url(#paint14_radial_548_23245)"/>
<path fill-rule="evenodd" clip-rule="evenodd" d="M706.072 353.895C704.873 371.923 743.693 410.8 755.661 406.708C767.629 402.617 779.045 374.038 770.935 353.895C762.824 333.743 707.547 331.782 706.072 353.895Z" fill="url(#paint15_radial_548_23245)"/>
<path fill-rule="evenodd" clip-rule="evenodd" d="M354.09 661.702C302.2 675.071 388.389 777.093 462.107 790.503C548.345 806.19 626.796 747.988 628.27 715.901C629.745 683.814 451.379 636.64 354.082 661.702H354.09Z" fill="url(#paint16_radial_548_23245)"/>
<path fill-rule="evenodd" clip-rule="evenodd" d="M657.642 688.384C648.113 665.583 702.969 593.89 728.403 602.357C753.838 610.825 770.416 670.104 736.142 694.429C715.739 708.908 667.592 712.19 657.642 688.384Z" fill="url(#paint17_radial_548_23245)"/>
<path fill-rule="evenodd" clip-rule="evenodd" d="M348.968 308.973C374.395 314.507 434.549 272.681 445.529 252.732C456.516 232.783 400.299 206.352 362.451 225.807C335.656 239.581 326.418 304.071 348.968 308.973Z" fill="url(#paint18_radial_548_23245)"/>
<path fill-rule="evenodd" clip-rule="evenodd" d="M446.931 309.467C418.587 322.61 450.642 359.769 483.279 370.522C515.917 381.274 544.666 361.73 539.132 339.999C533.606 318.259 497.119 286.204 446.931 309.467Z" fill="url(#paint19_radial_548_23245)"/>
<path fill-rule="evenodd" clip-rule="evenodd" d="M375.067 645.245C375.067 645.245 484.43 629.534 591.484 674.48C591.484 674.48 490.685 612.559 375.067 645.245Z" fill="url(#paint20_radial_548_23245)"/>
<path fill-rule="evenodd" clip-rule="evenodd" d="M698.869 354.267C698.869 354.267 706.097 389.061 734.829 407.008C734.829 407.008 707.636 379.751 698.869 354.267Z" fill="url(#paint21_radial_548_23245)"/>
<path style="mix-blend-mode:screen" fill-rule="evenodd" clip-rule="evenodd" d="M231.908 498.723C233.18 512.757 240.132 436.778 265.235 424.591C290.337 412.405 366.705 467.058 401.92 488.773C483.271 538.937 574.63 481.983 597.236 451.346C619.843 420.71 585.957 372.774 566.786 362.103C547.615 351.431 537.957 398.581 498.934 393.063C459.911 387.545 429.891 342.697 426.844 327.901C423.797 313.106 460.648 291.73 476.125 289.518C491.601 287.306 508.657 243.932 497.808 233.796C486.958 223.659 469.124 271.871 426.844 300.562C396.523 321.135 349.349 339.415 324.287 302.305C324.287 302.305 221.366 382.157 231.916 498.723H231.908Z" fill="url(#paint22_radial_548_23245)"/>
<path style="mix-blend-mode:screen" fill-rule="evenodd" clip-rule="evenodd" d="M523.282 264.659C522.083 283.563 563.634 274.869 600.947 272.608C638.26 270.347 667.138 270.485 667.138 270.485C667.138 270.485 639.046 237.58 591.953 232.418C544.86 227.257 524.011 253.064 523.282 264.659Z" fill="url(#paint23_linear_548_23245)"/>
<path style="mix-blend-mode:screen" fill-rule="evenodd" clip-rule="evenodd" d="M344.828 287.639C356.147 292.824 358.918 258.501 374.395 242.685C389.871 226.868 408.296 223.854 408.296 223.854C408.296 223.854 376.607 223.23 356.706 232.418C336.806 241.607 335.202 283.223 344.828 287.639Z" fill="url(#paint24_linear_548_23245)"/>
<path style="mix-blend-mode:screen" fill-rule="evenodd" clip-rule="evenodd" d="M443.309 317.206C443.309 317.206 461.734 302.783 486.059 303.893C510.383 304.995 528.055 321.273 528.055 321.273C528.055 321.273 509.646 315.69 496.746 319.742C483.847 323.793 463.946 345.265 443.309 317.214V317.206Z" fill="url(#paint25_linear_548_23245)"/>
<path style="mix-blend-mode:screen" fill-rule="evenodd" clip-rule="evenodd" d="M678.061 407.008C678.061 407.008 703.861 397.301 727.812 419.697C751.764 442.093 753.611 462.261 753.611 462.261C753.611 462.261 738.135 438.739 722.651 436.543C707.175 434.347 688.198 445.772 680.363 438.771C672.527 431.77 671.304 413.944 678.061 407.008Z" fill="url(#paint26_linear_548_23245)"/>
<path style="mix-blend-mode:screen" fill-rule="evenodd" clip-rule="evenodd" d="M711.404 347.007C711.404 347.007 716.849 339.715 734.829 340.144C752.809 340.574 764.032 348.847 768.358 354.267C772.685 359.688 770.198 377.984 770.198 377.984C770.198 377.984 768.723 363.221 761.35 356.212C753.976 349.211 711.194 366.162 711.396 346.999L711.404 347.007Z" fill="url(#paint27_linear_548_23245)"/>
<path style="mix-blend-mode:screen" fill-rule="evenodd" clip-rule="evenodd" d="M667.139 657.31C667.139 657.31 699.209 605.38 722.286 608.993C745.363 612.607 753.611 648.47 753.611 648.47C753.611 648.47 739.715 629.234 711.396 632.281C683.077 635.335 667.139 657.31 667.139 657.31Z" fill="url(#paint28_linear_548_23245)"/>
<path style="mix-blend-mode:screen" fill-rule="evenodd" clip-rule="evenodd" d="M344.827 674.407C344.827 674.407 388.833 652.238 476.845 664.675C564.857 677.113 614.973 705.781 614.973 705.781C614.973 705.781 523.882 686.051 470.144 694.899C416.407 703.747 400.031 750.881 400.031 750.881C400.031 750.881 333.686 722.464 344.827 674.407Z" fill="url(#paint29_linear_548_23245)"/>
<path fill-rule="evenodd" clip-rule="evenodd" d="M487.322 787.035C487.322 787.035 548.06 778.495 578.786 764.339C578.786 764.339 514.742 800.299 487.322 787.035Z" fill="#FFFF8D"/>
<path fill-rule="evenodd" clip-rule="evenodd" d="M665.421 689.737C665.421 689.737 689.859 697.848 722.286 694.899C722.286 694.899 684.065 709.613 665.421 689.737Z" fill="#FFFF8D"/>
<path fill-rule="evenodd" clip-rule="evenodd" d="M673.67 477.875C673.67 477.875 693.627 514.41 713.641 523.655C713.641 523.655 689.811 532.098 673.67 477.875Z" fill="#FFFF8D"/>
<path fill-rule="evenodd" clip-rule="evenodd" d="M572.499 327.869C572.499 327.869 609.05 368.439 667.139 373.568L572.499 327.869Z" fill="#FFFF8D"/>
<path fill-rule="evenodd" clip-rule="evenodd" d="M452.57 343.799C452.57 343.799 472.138 369.792 508.358 370.538L452.57 343.799Z" fill="#FFFF8D"/>
<path fill-rule="evenodd" clip-rule="evenodd" d="M347.898 303.828C347.898 303.828 386.395 298.18 426.827 269.529L347.898 303.828Z" fill="#FFFF8D"/>
<path fill-rule="evenodd" clip-rule="evenodd" d="M272.09 462.172C272.09 462.172 314.71 495.442 332.706 575.918C332.706 575.918 343.021 496.908 272.09 462.172Z" fill="url(#paint30_radial_548_23245)"/>
<path fill-rule="evenodd" clip-rule="evenodd" d="M273.199 631.697C273.199 631.697 307.903 648.51 326.175 630.903C344.446 613.296 333.24 553.652 308.138 508.479C283.036 463.306 252.294 443.325 239.435 449.872C230.571 454.385 183.672 566.762 273.199 631.697Z" fill="#00777A"/>
<path fill-rule="evenodd" clip-rule="evenodd" d="M245.61 461.078C222.663 455.284 204.488 534.61 216.188 577.628C231.405 633.553 306.291 641.834 322.099 624.883C337.908 607.932 327.196 481.667 245.61 461.078Z" fill="url(#paint31_radial_548_23245)"/>
<path style="mix-blend-mode:screen" fill-rule="evenodd" clip-rule="evenodd" d="M221.188 571.656C221.188 571.656 214.876 490.086 235.238 475.379C255.601 460.673 286.342 491.722 286.342 491.722C286.342 491.722 271.579 495.693 252.303 506.396C233.026 517.1 221.18 571.648 221.18 571.648L221.188 571.656Z" fill="url(#paint32_linear_548_23245)"/>
<path fill-rule="evenodd" clip-rule="evenodd" d="M248.316 611.335C248.316 611.335 275.363 626.017 295.434 627.63C295.434 627.63 269.173 637.807 248.316 611.335Z" fill="#FFFF8D"/>
<path style="mix-blend-mode:screen" fill-rule="evenodd" clip-rule="evenodd" d="M767.159 675.574C771.453 693.051 756.098 711.842 732.868 717.554C709.637 723.258 687.322 713.721 683.028 696.244C678.733 678.766 694.088 659.976 717.319 654.263C740.549 648.559 762.864 658.096 767.159 675.574Z" fill="url(#paint33_radial_548_23245)"/>
<path style="mix-blend-mode:screen" d="M238.687 623.89C263.575 621.857 281.56 593.388 278.857 560.303C276.154 527.217 253.788 502.044 228.9 504.077C204.012 506.11 186.028 534.579 188.731 567.665C191.433 600.75 213.8 625.923 238.687 623.89Z" fill="url(#paint34_radial_548_23245)"/>
<path style="mix-blend-mode:screen" fill-rule="evenodd" clip-rule="evenodd" d="M333.386 275.306C318.202 263.014 317.562 238.617 331.969 220.823C346.375 203.03 370.367 198.565 385.552 210.865C400.736 223.165 401.377 247.554 386.97 265.348C372.563 283.142 348.571 287.606 333.386 275.306Z" fill="url(#paint35_radial_548_23245)"/>
<path style="mix-blend-mode:screen" fill-rule="evenodd" clip-rule="evenodd" d="M755.848 436.672C724.02 440.959 694.137 414.203 689.113 376.907C684.09 339.61 705.821 305.902 737.649 301.616C769.476 297.329 799.359 324.085 804.383 361.382C809.407 398.679 787.675 432.386 755.848 436.672Z" fill="url(#paint36_radial_548_23245)"/>
<path style="mix-blend-mode:screen" d="M391.913 596.199C529.395 596.199 640.845 489.932 640.845 358.846C640.845 227.759 529.395 121.492 391.913 121.492C254.431 121.492 142.98 227.759 142.98 358.846C142.98 489.932 254.431 596.199 391.913 596.199Z" fill="url(#paint37_radial_548_23245)"/>
<path style="mix-blend-mode:screen" opacity="0.45" fill-rule="evenodd" clip-rule="evenodd" d="M501 1C224.922 1 1 224.769 1 501C1 777.232 224.922 1001 501 1001C777.078 1001 1001 777.079 1001 501C1001 224.922 777.231 1 501 1ZM501 981.576C235.628 981.576 20.4249 766.372 20.4249 501C20.4249 235.629 235.628 20.4249 501 20.4249C766.372 20.4249 981.575 235.629 981.575 501C981.575 766.372 766.372 981.576 501 981.576Z" fill="url(#paint38_linear_548_23245)"/>
<defs>
<radialGradient id="paint0_radial_548_23245" cx="0" cy="0" r="1" gradientUnits="userSpaceOnUse" gradientTransform="translate(501 501) scale(400 400)">
<stop stop-color="#00FF00"/>
<stop offset="1"/>
</radialGradient>
<radialGradient id="paint1_radial_548_23245" cx="0" cy="0" r="1" gradientUnits="userSpaceOnUse" gradientTransform="translate(520.406 508.649) scale(310.351)">
<stop offset="0.03" stop-color="#00FFA9"/>
<stop offset="0.15" stop-color="#00FBA6"/>
<stop offset="0.27" stop-color="#00EF9E"/>
<stop offset="0.39" stop-color="#00DA91"/>
<stop offset="0.52" stop-color="#00BE7E"/>
<stop offset="0.64" stop-color="#009A66"/>
<stop offset="0.76" stop-color="#006E49"/>
<stop offset="0.88" stop-color="#003A26"/>
<stop offset="1"/>
</radialGradient>
<radialGradient id="paint2_radial_548_23245" cx="0" cy="0" r="1" gradientUnits="userSpaceOnUse" gradientTransform="translate(337.146 369.436) scale(444.055 444.055)">
<stop stop-color="#0CC463"/>
<stop offset="0.21" stop-color="#0BC063"/>
<stop offset="0.36" stop-color="#0AB764"/>
<stop offset="0.5" stop-color="#08A667"/>
<stop offset="0.63" stop-color="#068F6A"/>
<stop offset="0.76" stop-color="#03716E"/>
<stop offset="0.87" stop-color="#004F74"/>
</radialGradient>
<linearGradient id="paint3_linear_548_23245" x1="697.386" y1="555.28" x2="697.386" y2="400.469" gradientUnits="userSpaceOnUse">
<stop stop-color="#007C6F"/>
<stop offset="0.66" stop-color="#29D73A"/>
<stop offset="0.99" stop-color="#3BFF24"/>
</linearGradient>
<radialGradient id="paint4_radial_548_23245" cx="0" cy="0" r="1" gradientUnits="userSpaceOnUse" gradientTransform="translate(498.291 657.937) rotate(6.99) scale(99.6466 74.5858)">
<stop stop-color="#00FF00"/>
<stop offset="1"/>
</radialGradient>
<linearGradient id="paint5_linear_548_23245" x1="231.908" y1="422.89" x2="629.567" y2="422.89" gradientUnits="userSpaceOnUse">
<stop offset="0.01" stop-color="#92FF2C"/>
<stop offset="0.23" stop-color="#8FFC2D"/>
<stop offset="0.39" stop-color="#85F231"/>
<stop offset="0.54" stop-color="#75E339"/>
<stop offset="0.67" stop-color="#5FCD44"/>
<stop offset="0.8" stop-color="#42B052"/>
<stop offset="0.91" stop-color="#1E8E63"/>
<stop offset="1" stop-color="#007072"/>
</linearGradient>
<radialGradient id="paint6_radial_548_23245" cx="0" cy="0" r="1" gradientUnits="userSpaceOnUse" gradientTransform="translate(595.149 361.525) rotate(30) scale(63.0876 32.4581)">
<stop stop-color="#00FF00"/>
<stop offset="1"/>
</radialGradient>
<radialGradient id="paint7_radial_548_23245" cx="0" cy="0" r="1" gradientUnits="userSpaceOnUse" gradientTransform="translate(697.467 638.423) scale(39.6872 39.6872)">
<stop offset="0.01" stop-color="#3BFF24"/>
<stop offset="0.53" stop-color="#25D732"/>
<stop offset="1" stop-color="#11B140"/>
</radialGradient>
<radialGradient id="paint8_radial_548_23245" cx="0" cy="0" r="1" gradientUnits="userSpaceOnUse" gradientTransform="translate(689.461 476.87) rotate(82.33) scale(68.2668 58.0472)">
<stop stop-color="#00FF00"/>
<stop offset="1"/>
</radialGradient>
<radialGradient id="paint9_radial_548_23245" cx="0" cy="0" r="1" gradientUnits="userSpaceOnUse" gradientTransform="translate(306.332 310.569) scale(363.854 363.854)">
<stop stop-color="#FFFF4A"/>
<stop offset="1"/>
</radialGradient>
<radialGradient id="paint10_radial_548_23245" cx="0" cy="0" r="1" gradientUnits="userSpaceOnUse" gradientTransform="translate(619.551 327.148) scale(58.2506)">
<stop offset="0.02" stop-color="#B0FF24"/>
<stop offset="0.29" stop-color="#88F72A"/>
<stop offset="0.89" stop-color="#24E33C"/>
<stop offset="1" stop-color="#11E040"/>
</radialGradient>
<radialGradient id="paint11_radial_548_23245" cx="0" cy="0" r="1" gradientUnits="userSpaceOnUse" gradientTransform="translate(513.308 368.496) scale(23.7005 23.7005)">
<stop offset="0.02" stop-color="#B0FF24"/>
<stop offset="0.29" stop-color="#88F72A"/>
<stop offset="0.89" stop-color="#24E33C"/>
<stop offset="1" stop-color="#11E040"/>
</radialGradient>
<radialGradient id="paint12_radial_548_23245" cx="0" cy="0" r="1" gradientUnits="userSpaceOnUse" gradientTransform="translate(423.076 279.868) scale(35.6602 35.6602)">
<stop offset="0.02" stop-color="#B0FF24"/>
<stop offset="0.29" stop-color="#88F72A"/>
<stop offset="0.89" stop-color="#24E33C"/>
<stop offset="1" stop-color="#11E040"/>
</radialGradient>
<radialGradient id="paint13_radial_548_23245" cx="0" cy="0" r="1" gradientUnits="userSpaceOnUse" gradientTransform="translate(597.544 334.165) scale(83.5798 83.5798)">
<stop offset="0.01" stop-color="#00FF24"/>
<stop offset="0.19" stop-color="#27FF1E"/>
<stop offset="0.58" stop-color="#8CFF10"/>
<stop offset="1" stop-color="#FFFF00"/>
</radialGradient>
<radialGradient id="paint14_radial_548_23245" cx="0" cy="0" r="1" gradientUnits="userSpaceOnUse" gradientTransform="translate(681.545 479.455) scale(56.7516 56.7516)">
<stop offset="0.01" stop-color="#00FF24"/>
<stop offset="0.19" stop-color="#27FF1E"/>
<stop offset="0.58" stop-color="#8CFF10"/>
<stop offset="1" stop-color="#FFFF00"/>
</radialGradient>
<radialGradient id="paint15_radial_548_23245" cx="0" cy="0" r="1" gradientUnits="userSpaceOnUse" gradientTransform="translate(729.902 384.685) scale(34.1531 34.1531)">
<stop offset="0.01" stop-color="#00FF24"/>
<stop offset="0.19" stop-color="#27FF1E"/>
<stop offset="0.58" stop-color="#8CFF10"/>
<stop offset="1" stop-color="#FFFF00"/>
</radialGradient>
<radialGradient id="paint16_radial_548_23245" cx="0" cy="0" r="1" gradientUnits="userSpaceOnUse" gradientTransform="translate(476.076 752.015) scale(126.873 126.873)">
<stop offset="0.01" stop-color="#00FF24"/>
<stop offset="0.19" stop-color="#27FF1E"/>
<stop offset="0.58" stop-color="#8CFF10"/>
<stop offset="1" stop-color="#FFFF00"/>
</radialGradient>
<radialGradient id="paint17_radial_548_23245" cx="0" cy="0" r="1" gradientUnits="userSpaceOnUse" gradientTransform="translate(703.585 674.861) scale(48.657 48.657)">
<stop offset="0.01" stop-color="#00FF24"/>
<stop offset="0.19" stop-color="#27FF1E"/>
<stop offset="0.58" stop-color="#8CFF10"/>
<stop offset="1" stop-color="#FFFF00"/>
</radialGradient>
<radialGradient id="paint18_radial_548_23245" cx="0" cy="0" r="1" gradientUnits="userSpaceOnUse" gradientTransform="translate(388.842 282.607) scale(51.501 51.501)">
<stop offset="0.01" stop-color="#00FF24"/>
<stop offset="0.19" stop-color="#27FF1E"/>
<stop offset="0.58" stop-color="#8CFF10"/>
<stop offset="1" stop-color="#FFFF00"/>
</radialGradient>
<radialGradient id="paint19_radial_548_23245" cx="0" cy="0" r="1" gradientUnits="userSpaceOnUse" gradientTransform="translate(485.329 352.128) scale(47.1174 47.1175)">
<stop offset="0.01" stop-color="#00FF24"/>
<stop offset="0.19" stop-color="#27FF1E"/>
<stop offset="0.58" stop-color="#8CFF10"/>
<stop offset="1" stop-color="#FFFF00"/>
</radialGradient>
<radialGradient id="paint20_radial_548_23245" cx="0" cy="0" r="1" gradientUnits="userSpaceOnUse" gradientTransform="translate(477.899 662.974) scale(91.8689 91.8689)">
<stop offset="0.01" stop-color="#3BFF24"/>
<stop offset="0.53" stop-color="#25D732"/>
<stop offset="1" stop-color="#11B140"/>
</radialGradient>
<radialGradient id="paint21_radial_548_23245" cx="0" cy="0" r="1" gradientUnits="userSpaceOnUse" gradientTransform="translate(724.798 379.629) scale(22.7525 22.7525)">
<stop offset="0.01" stop-color="#3BFF24"/>
<stop offset="0.53" stop-color="#25D732"/>
<stop offset="1" stop-color="#11B140"/>
</radialGradient>
<radialGradient id="paint22_radial_548_23245" cx="0" cy="0" r="1" gradientUnits="userSpaceOnUse" gradientTransform="translate(312.911 340.144) scale(288.36 288.36)">
<stop stop-color="#97FF11"/>
<stop offset="1"/>
</radialGradient>
<linearGradient id="paint23_linear_548_23245" x1="551.488" y1="228.318" x2="633.488" y2="306.008" gradientUnits="userSpaceOnUse">
<stop stop-color="#FFFFE8"/>
<stop offset="0.2" stop-color="#BBBBAA"/>
<stop offset="0.42" stop-color="#79796E"/>
<stop offset="0.61" stop-color="#45453E"/>
<stop offset="0.78" stop-color="#1F1F1C"/>
<stop offset="0.91" stop-color="#080807"/>
<stop offset="1"/>
</linearGradient>
<linearGradient id="paint24_linear_548_23245" x1="353.287" y1="233.869" x2="378.235" y2="257.504" gradientUnits="userSpaceOnUse">
<stop stop-color="#FFFFE8"/>
<stop offset="0.2" stop-color="#BBBBAA"/>
<stop offset="0.42" stop-color="#79796E"/>
<stop offset="0.61" stop-color="#45453E"/>
<stop offset="0.78" stop-color="#1F1F1C"/>
<stop offset="0.91" stop-color="#080807"/>
<stop offset="1"/>
</linearGradient>
<linearGradient id="paint25_linear_548_23245" x1="462.05" y1="297.427" x2="508.738" y2="341.66" gradientUnits="userSpaceOnUse">
<stop stop-color="#FFFFE8"/>
<stop offset="0.2" stop-color="#BBBBAA"/>
<stop offset="0.42" stop-color="#79796E"/>
<stop offset="0.61" stop-color="#45453E"/>
<stop offset="0.78" stop-color="#1F1F1C"/>
<stop offset="0.91" stop-color="#080807"/>
<stop offset="1"/>
</linearGradient>
<linearGradient id="paint26_linear_548_23245" x1="679.277" y1="405.728" x2="746.675" y2="469.586" gradientUnits="userSpaceOnUse">
<stop stop-color="#FFFFE8"/>
<stop offset="0.2" stop-color="#BBBBAA"/>
<stop offset="0.42" stop-color="#79796E"/>
<stop offset="0.61" stop-color="#45453E"/>
<stop offset="0.78" stop-color="#1F1F1C"/>
<stop offset="0.91" stop-color="#080807"/>
<stop offset="1"/>
</linearGradient>
<linearGradient id="paint27_linear_548_23245" x1="722.132" y1="335.655" x2="768.593" y2="379.686" gradientUnits="userSpaceOnUse">
<stop stop-color="#FFFFE8"/>
<stop offset="0.2" stop-color="#BBBBAA"/>
<stop offset="0.42" stop-color="#79796E"/>
<stop offset="0.61" stop-color="#45453E"/>
<stop offset="0.78" stop-color="#1F1F1C"/>
<stop offset="0.91" stop-color="#080807"/>
<stop offset="1"/>
</linearGradient>
<linearGradient id="paint28_linear_548_23245" x1="690.92" y1="626.463" x2="734.934" y2="668.176" gradientUnits="userSpaceOnUse">
<stop stop-color="#FFFFE8"/>
<stop offset="0.2" stop-color="#BBBBAA"/>
<stop offset="0.42" stop-color="#79796E"/>
<stop offset="0.61" stop-color="#45453E"/>
<stop offset="0.78" stop-color="#1F1F1C"/>
<stop offset="0.91" stop-color="#080807"/>
<stop offset="1"/>
</linearGradient>
<linearGradient id="paint29_linear_548_23245" x1="392.35" y1="624.251" x2="550.362" y2="773.973" gradientUnits="userSpaceOnUse">
<stop stop-color="#FFFFE8"/>
<stop offset="0.2" stop-color="#BBBBAA"/>
<stop offset="0.42" stop-color="#79796E"/>
<stop offset="0.61" stop-color="#45453E"/>
<stop offset="0.78" stop-color="#1F1F1C"/>
<stop offset="0.91" stop-color="#080807"/>
<stop offset="1"/>
</linearGradient>
<radialGradient id="paint30_radial_548_23245" cx="0" cy="0" r="1" gradientUnits="userSpaceOnUse" gradientTransform="translate(321.496 521.954) rotate(14.16) scale(43.0256 43.0256)">
<stop offset="0.02" stop-color="#B0FF24"/>
<stop offset="0.29" stop-color="#88F72A"/>
<stop offset="0.89" stop-color="#24E33C"/>
<stop offset="1" stop-color="#11E040"/>
</radialGradient>
<radialGradient id="paint31_radial_548_23245" cx="0" cy="0" r="1" gradientUnits="userSpaceOnUse" gradientTransform="translate(263.488 579.304) rotate(14.16) scale(67.5688)">
<stop offset="0.01" stop-color="#00FF24"/>
<stop offset="0.19" stop-color="#27FF1E"/>
<stop offset="0.58" stop-color="#8CFF10"/>
<stop offset="1" stop-color="#FFFF00"/>
</radialGradient>
<linearGradient id="paint32_linear_548_23245" x1="223.046" y1="483.135" x2="262.581" y2="545.472" gradientUnits="userSpaceOnUse">
<stop stop-color="#FFFFE8"/>
<stop offset="0.2" stop-color="#BBBBAA"/>
<stop offset="0.42" stop-color="#79796E"/>
<stop offset="0.61" stop-color="#45453E"/>
<stop offset="0.78" stop-color="#1F1F1C"/>
<stop offset="0.91" stop-color="#080807"/>
<stop offset="1"/>
</linearGradient>
<radialGradient id="paint33_radial_548_23245" cx="0" cy="0" r="1" gradientUnits="userSpaceOnUse" gradientTransform="translate(729.822 684.11) rotate(-13.8) scale(43.3958 32.4819)">
<stop stop-color="#00FF00"/>
<stop offset="1"/>
</radialGradient>
<radialGradient id="paint34_radial_548_23245" cx="0" cy="0" r="1" gradientUnits="userSpaceOnUse" gradientTransform="translate(246.844 571.028) rotate(85.33) scale(60.2155 45.0715)">
<stop stop-color="#00FF00"/>
<stop offset="1"/>
</radialGradient>
<radialGradient id="paint35_radial_548_23245" cx="0" cy="0" r="1" gradientUnits="userSpaceOnUse" gradientTransform="translate(357.64 256.478) rotate(128.99) scale(41.5284 35.3116)">
<stop stop-color="#00FF00"/>
<stop offset="1"/>
</radialGradient>
<radialGradient id="paint36_radial_548_23245" cx="0" cy="0" r="1" gradientUnits="userSpaceOnUse" gradientTransform="translate(754.188 375.594) rotate(82.33) scale(68.2668 58.0472)">
<stop stop-color="#00FF00"/>
<stop offset="1"/>
</radialGradient>
<radialGradient id="paint37_radial_548_23245" cx="0" cy="0" r="1" gradientUnits="userSpaceOnUse" gradientTransform="translate(388.086 359.164) scale(248.292 237.496)">
<stop stop-color="#0092FF"/>
<stop offset="0.08" stop-color="#0077CF"/>
<stop offset="0.17" stop-color="#005B9F"/>
<stop offset="0.27" stop-color="#004274"/>
<stop offset="0.36" stop-color="#002E50"/>
<stop offset="0.47" stop-color="#001D33"/>
<stop offset="0.57" stop-color="#00101C"/>
<stop offset="0.69" stop-color="#00070C"/>
<stop offset="0.82" stop-color="#000102"/>
<stop offset="1"/>
</radialGradient>
<linearGradient id="paint38_linear_548_23245" x1="501" y1="26.2371" x2="501" y2="1049.18" gradientUnits="userSpaceOnUse">
<stop stop-color="#27A2D9"/>
<stop offset="0.19" stop-color="#1D78A1"/>
<stop offset="0.39" stop-color="#124E68"/>
<stop offset="0.59" stop-color="#0A2C3B"/>
<stop offset="0.76" stop-color="#04141A"/>
<stop offset="0.9" stop-color="#010507"/>
<stop offset="1"/>
</linearGradient>
</defs>
</svg>
