<svg width="1000" height="1000" viewBox="0 0 1000 1000" fill="none" xmlns="http://www.w3.org/2000/svg">
<g clip-path="url(#clip0_548_25063)">
<path style="mix-blend-mode:screen" d="M500.006 900.005C720.92 900.005 900.006 720.919 900.006 500.005C900.006 279.091 720.92 100.005 500.006 100.005C279.092 100.005 100.006 279.091 100.006 500.005C100.006 720.919 279.092 900.005 500.006 900.005Z" fill="url(#paint0_radial_548_25063)"/>
<g clip-path="url(#clip1_548_25063)">
<path d="M704.026 702.357C815.958 590.425 815.958 408.948 704.026 297.016C592.094 185.084 410.616 185.084 298.684 297.016C186.752 408.948 186.752 590.425 298.684 702.357C410.616 814.289 592.094 814.289 704.026 702.357Z" fill="url(#paint1_radial_548_25063)"/>
<g opacity="0.28">
<path d="M361.365 435.682C360.201 435.682 358.96 435.604 357.641 435.449C351.744 434.556 347.399 432.19 342.821 429.707C341.386 428.931 339.911 428.116 338.321 427.341C333.471 425.129 330.484 421.793 327.536 418.534C326.023 416.866 324.471 415.159 322.648 413.529L322.298 413.18C321.251 411.978 320.203 410.853 319.195 409.727C315.897 406.12 312.793 402.744 309.767 398.011C306.625 393.239 305.228 388.506 303.871 383.929C303.327 382.144 302.784 380.282 302.125 378.42L301.892 377.799V377.139C301.931 374.967 301.31 372.562 300.689 370.04C299.603 365.772 298.362 360.923 300.069 355.918C300.845 349.09 303.017 341.758 305.034 335.473L305.228 334.891L305.578 334.387C308.41 330.585 312.328 328.257 315.742 326.24C318.302 324.727 320.747 323.292 322.415 321.429L322.841 321.041C325.402 318.946 327.497 316.425 329.514 314.019C332.114 310.916 334.519 307.967 337.855 306.028L338.204 305.834C344.606 302.924 350.503 300.751 358.262 299.549C359.193 299.394 360.279 299.161 361.404 298.967C367.107 297.842 373.547 296.562 379.133 297.57L380.22 297.687C388.095 298.695 396.242 299.782 401.363 303.157C406.756 306.338 414.67 312.196 419.442 317.356C422.545 320.421 424.214 323.951 425.804 327.365C427.123 330.197 428.404 332.913 430.46 335.357L431.119 336.133L431.274 337.103C431.624 339.12 432.283 341.331 432.981 343.62C434.184 347.616 435.542 352.078 435.503 356.694C435.891 357.742 436.318 358.828 436.706 359.914C438.956 365.695 441.478 372.251 439.809 378.808C438.374 384.006 435.425 388.429 432.593 392.658C431.391 394.481 430.227 396.188 429.179 397.973C427.666 401.658 425.261 405.033 422.933 408.253C421.304 410.503 419.791 412.637 418.86 414.499L418.472 415.275L417.774 415.78C413.545 419 409.277 421.25 405.514 423.267C403.342 424.431 401.247 425.517 399.617 426.603L399.229 426.836C392.557 430.211 386.776 431.104 378.086 432.229C376.224 432.539 374.4 433.082 372.461 433.664C369.279 434.634 365.749 435.72 361.249 435.72L361.365 435.682ZM327.691 408.176C329.786 410.038 331.415 411.861 333.045 413.646C335.683 416.594 337.972 419.116 341.502 420.745C343.248 421.599 344.838 422.452 346.351 423.267C350.541 425.556 354.149 427.496 358.688 428.194C363.421 428.776 366.68 427.806 370.482 426.642C372.577 426.022 374.711 425.362 377.194 424.935C385.147 423.927 390.229 423.151 395.932 420.357C397.794 419.155 399.967 417.991 402.217 416.788C405.514 415.042 409.277 413.064 412.847 410.426C414.01 408.292 415.523 406.197 417.114 403.986C419.248 401.037 421.42 397.973 422.584 395.024L422.817 394.52C423.981 392.464 425.339 390.485 426.58 388.584C429.218 384.627 431.701 380.903 432.826 376.907C433.912 372.678 431.973 367.751 429.955 362.552C429.412 361.195 428.908 359.837 428.442 358.479L428.21 357.819V357.082C428.442 353.513 427.24 349.556 426.076 345.754C425.416 343.659 424.757 341.487 424.33 339.314C422.002 336.366 420.528 333.262 419.248 330.469C417.774 327.365 416.532 324.649 414.321 322.516L414.166 322.36C409.898 317.744 402.449 312.235 397.6 309.403L397.406 309.286C393.721 306.804 386.388 305.834 379.327 304.941L378.086 304.786C373.702 304.01 367.96 305.135 362.917 306.144C361.753 306.377 360.628 306.61 359.581 306.765C353.451 307.696 348.563 309.248 341.541 312.39C339.407 313.709 337.506 315.998 335.295 318.636C333.2 321.158 330.833 324.029 327.807 326.512C325.441 329.072 322.492 330.818 319.621 332.525C316.673 334.271 313.88 335.9 311.94 338.305C310.039 344.241 308.099 351.03 307.44 357.16V357.625L307.207 358.052C306.082 361.039 306.935 364.376 307.905 368.217C308.604 370.893 309.302 373.648 309.341 376.557C309.961 378.381 310.466 380.127 310.97 381.834C312.289 386.256 313.414 390.097 315.975 394.015C318.69 398.244 321.6 401.425 324.665 404.8C325.674 405.887 326.682 407.012 327.73 408.176H327.691Z" fill="white"/>
</g>
<g opacity="0.33">
<path d="M345.614 388.235C344.683 388.235 343.713 388.119 342.743 387.847C338.321 386.683 330.019 383.968 323.928 378.847L323.385 378.304C320.126 374.114 317.837 367.596 316.013 362.359L315.237 360.07C313.918 354.289 315.625 348.315 317.1 343.039L317.565 341.37C317.643 340.711 317.72 339.974 317.837 339.276C318.458 333.767 319.272 326.861 324.044 322.361C327.613 318.714 333.316 318.442 337.894 318.171C339.989 318.055 341.967 317.938 343.248 317.589C344.606 317.201 346.39 316.348 348.252 315.416C352.869 313.205 357.68 310.877 361.831 312.235C367.805 313.748 374.711 317.667 379.909 322.4C384.526 326.551 386.272 332.758 387.668 337.763C387.94 338.771 388.211 339.741 388.483 340.633L388.638 341.293C389.298 346.802 388.367 353.048 385.884 359.837C385.457 361.311 385.224 363.096 384.991 364.958C384.448 369.303 383.828 374.23 380.181 377.916C376.185 381.64 370.792 381.756 366.409 381.873C364.352 381.912 362.374 381.989 361.016 382.377C359.387 382.804 357.68 383.735 355.817 384.744C352.753 386.412 349.339 388.235 345.614 388.235ZM328.932 373.493C333.898 377.528 340.842 379.778 344.606 380.748C346.7 381.33 349.455 379.855 352.365 378.265C354.498 377.14 356.671 375.937 359.076 375.316C361.288 374.696 363.809 374.618 366.253 374.579C369.706 374.502 373.236 374.385 375.099 372.678C376.883 370.894 377.31 367.596 377.737 364.066C378.008 361.932 378.28 359.759 378.901 357.665L378.978 357.471C381.034 351.845 381.849 346.841 381.383 342.534C381.112 341.642 380.84 340.75 380.608 339.78C379.327 335.28 378.047 330.624 374.982 327.87C370.676 323.874 364.779 320.537 359.93 319.335L359.619 319.257C358.261 318.792 353.839 320.925 351.434 322.05C349.3 323.098 347.244 324.068 345.343 324.65C343.209 325.27 340.804 325.387 338.282 325.542C334.79 325.736 330.833 325.93 329.165 327.637C326.255 330.391 325.635 335.59 325.13 340.129C325.014 340.983 324.936 341.836 324.82 342.612L324.742 343.077L324.199 345.017C322.919 349.595 321.6 354.328 322.415 358.246L322.997 359.915C324.587 364.492 326.566 370.195 329.01 373.454L328.932 373.493Z" fill="white"/>
</g>
<g opacity="0.2">
<path d="M404.971 493.411C402.139 493.411 399.734 492.713 397.367 492.014C394.652 491.238 391.859 490.424 387.824 490.424C386.427 490.424 384.759 490.501 383.013 490.618C378.552 490.851 372.965 491.161 367.185 490.191H366.913C365.206 489.725 362.568 489.648 359.814 489.609C355.313 489.531 350.192 489.415 346.003 487.63L345.809 487.553C343.132 486.195 340.998 484.255 338.787 482.199C336.265 479.833 333.627 477.427 329.747 475.565L329.165 475.294L328.7 474.828C327.303 473.354 325.092 471.802 322.725 470.173C319.971 468.233 316.867 466.06 314.152 463.383C310.427 460.202 309.147 456.051 308.061 452.404C307.168 449.417 306.354 446.818 304.414 444.878L304.026 444.451L303.754 443.947C302.746 441.93 300.379 439.912 297.896 437.779C294.599 434.946 291.185 432.037 289.478 428.041C287.344 422.687 287.072 417.217 286.84 411.941C286.762 410.428 286.684 408.876 286.568 407.402V407.169V406.936C286.723 404.298 286.297 401.544 285.831 398.634C285.249 394.949 284.667 391.108 285.171 387.073C285.559 384.163 285.055 381.099 284.512 377.84C283.93 374.348 283.348 370.74 283.775 367.016C284.706 359.994 287.732 353.438 290.68 347.114L290.913 346.648C295.181 339.432 297.664 333.807 298.556 329.501L298.827 328.259L299.797 327.445C305.035 323.061 307.983 320.19 311.746 316.582L314.889 313.672C322.027 309.25 326.605 305.525 328.933 302.305L329.437 301.607L330.213 301.219C333.472 299.512 336.498 297.223 339.485 295.012C342.666 292.645 345.653 290.395 348.757 288.96C352.093 287.059 356.71 287.33 361.598 287.641C364.741 287.835 367.961 288.029 370.444 287.641C371.491 287.292 372.926 286.477 374.439 285.623C378.241 283.451 382.936 280.774 388.871 280.774C393.682 280.774 399.23 281.783 405.127 282.869C406.329 283.102 407.532 283.296 408.812 283.528C415.989 284.653 423.205 287.214 428.636 290.55C431.042 291.404 433.719 291.986 436.551 292.606C441.284 293.615 446.172 294.701 450.633 297.184L451.06 297.417L451.409 297.766C453.504 299.822 455.289 302.422 457.19 305.176C458.936 307.737 460.759 310.414 462.854 312.625C466.074 315.418 468.363 318.483 470.535 321.393C472.398 323.876 474.143 326.203 476.471 328.531L477.053 329.074L477.325 329.811C479.497 335.475 482.756 341.372 486.752 346.842L487.14 347.385L487.334 348.045C488.226 351.265 488.226 354.485 488.265 357.55C488.265 360.964 488.304 364.145 489.468 367.093L489.739 367.753V368.49C489.661 372.525 490.748 376.521 491.873 380.711C492.416 382.65 492.92 384.668 493.386 386.801C494.084 390.836 494.123 394.716 494.123 398.44C494.123 401.466 494.123 404.337 494.472 407.091L494.627 408.333L494.007 409.419C492.222 412.484 490.748 415.549 489.274 418.575C487.838 421.601 486.325 424.705 484.502 427.769C483.338 434.791 480.04 440.223 476.626 444.994C472.514 451.939 468.518 457.176 464.095 461.444L463.785 461.754L463.436 461.987C459.867 464.121 457.539 465.905 455.289 467.651C452.651 469.707 450.129 471.608 446.172 473.664C444.659 474.75 443.262 476.147 441.788 477.621C438.568 480.88 434.921 484.566 428.52 486.505C427.473 486.932 426.425 487.359 425.378 487.786C420.218 489.919 414.903 492.131 408.23 493.256C407.105 493.489 406.019 493.566 405.01 493.566L404.971 493.411ZM387.824 483.091C392.906 483.091 396.514 484.139 399.424 484.992C402.256 485.807 404.312 486.389 406.911 485.885C412.886 484.876 417.58 482.936 422.546 480.841C423.671 480.376 424.796 479.91 425.921 479.445L426.27 479.328C430.964 477.932 433.68 475.177 436.59 472.268C438.297 470.561 440.042 468.776 442.176 467.302L442.603 467.069C446.094 465.284 448.267 463.616 450.827 461.638C453.078 459.931 455.599 457.952 459.324 455.702C463.203 451.9 466.733 447.206 470.419 440.96L470.574 440.688C474.066 435.8 476.549 431.377 477.363 425.791L477.48 425.054L477.868 424.433C479.652 421.407 481.127 418.381 482.678 415.2C484.036 412.406 485.394 409.536 487.062 406.587C486.791 403.794 486.791 401.001 486.791 398.285C486.791 394.716 486.791 391.302 486.209 388.043C485.821 386.258 485.316 384.319 484.812 382.456C483.648 378.15 482.484 373.727 482.407 368.956C480.971 364.96 480.971 360.964 480.933 357.433C480.933 354.951 480.933 352.545 480.428 350.412C476.394 344.825 473.057 338.812 470.768 332.992C468.324 330.471 466.462 327.988 464.677 325.583C462.621 322.789 460.643 320.19 457.966 317.862L457.733 317.629C455.134 314.953 453 311.849 451.138 309.094C449.586 306.844 448.112 304.672 446.676 303.159C443.262 301.335 439.266 300.482 435.038 299.59C431.934 298.93 428.753 298.232 425.766 297.107L425.106 296.758C422.895 295.361 416.804 291.986 407.609 290.55C406.29 290.318 405.049 290.085 403.808 289.852C398.26 288.843 393.022 287.873 388.871 287.873C384.72 287.873 381.267 289.93 378.086 291.753C376.108 292.878 374.284 293.926 372.383 294.507L371.995 294.585C368.581 295.245 364.818 295.012 361.133 294.779C357.835 294.585 353.723 294.313 352.365 295.167L351.977 295.361C349.533 296.447 346.817 298.542 343.908 300.715C341.076 302.848 337.894 305.215 334.403 307.155C331.454 310.957 326.566 314.914 319.156 319.569L316.906 321.742C313.414 325.117 310.388 328.027 305.5 332.139C304.298 337.027 301.698 342.769 297.392 350.101C294.638 356.037 291.883 362.011 291.107 367.831C290.797 370.469 291.301 373.417 291.805 376.521C292.426 380.168 293.047 383.931 292.504 387.888C292.155 390.875 292.62 394.056 293.163 397.393C293.629 400.457 294.133 403.639 293.978 406.936C294.094 408.449 294.172 409.962 294.25 411.475C294.482 416.364 294.715 420.98 296.345 425.131C297.314 427.459 300.069 429.787 302.746 432.076C305.539 434.481 308.41 436.925 310.117 439.99C313.026 443.171 314.152 446.857 315.16 450.115C316.091 453.219 316.906 455.896 319.079 457.681L319.311 457.913C321.6 460.202 324.355 462.103 327.032 463.965C329.476 465.672 331.765 467.302 333.627 469.086C338.166 471.375 341.308 474.285 343.869 476.651C345.731 478.397 347.36 479.91 349.106 480.764C351.977 481.966 356.283 482.044 360.085 482.122C363.189 482.199 366.137 482.238 368.62 482.859C373.547 483.673 378.397 483.402 382.664 483.169C384.526 483.053 386.272 482.975 387.863 482.975L387.824 483.091Z" fill="white"/>
</g>
<g opacity="0.3">
<path d="M413.74 542.409C409.938 542.409 405.631 541.167 401.829 540.042C399.812 539.46 397.911 538.917 396.747 538.762C390.967 538.413 387.592 536.822 384.643 535.387C383.091 534.611 381.695 533.951 380.065 533.563C377.039 533.059 374.207 533.331 371.22 533.563C367.185 533.913 362.607 534.301 356.905 532.982L356.323 532.826L355.818 532.516C352.947 530.731 347.594 527.395 341.58 524.33C335.373 522.235 332.58 520.412 329.321 518.317C327.769 517.308 326.14 516.261 323.967 515.058L323.347 514.709L322.92 514.166C322.066 513.157 320.941 511.877 319.7 510.441C316.441 506.678 312.368 502.023 310.001 498.609C308.837 497.212 307.557 495.816 306.277 494.497C303.794 491.858 301.233 489.182 299.332 485.845C294.599 482.431 286.336 476.108 287.81 468.31C285.482 464.547 284.784 460.512 284.125 456.865C283.737 454.654 283.349 452.559 282.689 450.697C281.525 448.33 279.198 446.041 276.715 443.597C273.96 440.881 271.089 438.088 269.266 434.597L268.994 433.898C267.714 429.437 269.421 425.014 270.895 421.135C271.943 418.38 272.952 415.781 272.719 413.764V413.376V412.988C272.913 410.931 272.758 408.837 272.602 406.625C272.331 402.823 272.02 398.517 273.611 394.056C273.611 393.086 273.611 392.116 273.533 391.146C273.378 386.296 273.223 380.788 275.978 375.279C275.978 369.964 278.46 365.386 280.905 360.963C281.564 359.76 282.224 358.558 282.844 357.316C283.465 355.377 283.62 353.204 283.775 350.954C284.008 347.385 284.319 343.35 286.607 339.471C288.237 334.97 291.496 331.556 294.677 328.297C295.88 327.056 297.082 325.776 298.246 324.457L298.556 324.108L298.944 323.836C303.483 320.655 303.639 314.991 303.755 310.452C303.755 309.559 303.794 308.745 303.871 308.007L304.027 306.029L305.772 305.059C307.518 304.089 309.186 303.197 310.777 302.343C316.014 299.55 320.553 297.145 322.183 294.895L322.532 294.39L323.036 294.041C326.101 291.869 329.748 290.045 333.007 288.455C335.8 287.097 338.399 285.778 340.106 284.536C342.24 282.985 345.266 281.316 348.214 279.726C350.659 278.407 353.995 276.583 354.732 275.807L355.43 275.109L356.4 274.838C362.103 273.286 365.672 272.549 369.397 271.773C370.948 271.462 372.5 271.113 374.285 270.725H374.518C380.065 269.794 385.497 269.794 389.881 269.794C392.247 269.794 394.264 269.794 395.661 269.678C397.872 269.523 400.084 269.212 402.411 268.902C406.873 268.281 411.451 267.66 415.873 267.971C417.542 268.048 419.093 268.126 420.529 268.204C425.572 268.436 429.258 268.591 433.758 269.678C435.31 269.911 436.784 270.066 438.142 270.26C445.125 271.191 450.168 271.85 455.677 273.79L456.182 273.984L456.608 274.294C458.005 275.303 459.984 277.088 462.311 279.144C465.26 281.782 468.907 285.041 471.389 286.709C473.252 287.756 475.89 288.455 478.722 289.153C482.757 290.2 486.946 291.248 490.36 293.77C495.598 297.766 497.615 305.02 498.391 310.995C500.137 312.236 502.115 313.361 504.016 314.448C508.051 316.775 512.202 319.142 514.801 322.827L515.228 323.448L515.383 324.224C516.276 328.763 519.147 335.203 522.522 340.285L523.259 341.294C526.867 346.182 529.97 350.411 530.63 356.269C534.975 361.7 535.402 367.481 535.828 372.64C535.906 373.804 536.022 374.968 536.139 376.093L536.216 376.636L536.139 377.141C535.402 381.486 536.022 385.831 536.682 390.448C536.837 391.573 536.992 392.698 537.148 393.862L537.342 394.405C539.32 400.379 541.415 406.548 542.191 412.871L542.307 413.919L541.881 414.85C540.368 418.186 539.669 421.523 538.971 425.014C538.467 427.497 537.923 430.096 537.07 432.773L536.954 433.084C536.1 435.062 536.566 437.817 537.031 440.687C537.652 444.334 538.35 448.408 536.604 452.326C535.79 457.292 531.6 461.133 527.526 464.818C525.897 466.292 524.229 467.844 522.871 469.357C522.25 470.87 521.552 472.383 520.892 473.857C519.263 477.427 517.556 481.151 517.246 484.099L517.052 485.729L515.733 486.699C508.788 491.703 505.917 494.574 504.327 498.143L503.939 498.997L503.202 499.54C500.951 501.286 499.167 503.032 497.305 504.894C494.55 507.609 491.718 510.403 487.567 512.808C485.511 514.011 483.92 515.213 482.252 516.532C478.916 519.093 475.502 521.77 468.751 523.903C465.609 525.727 462.583 526.658 459.906 527.473C458.044 528.055 456.259 528.598 454.591 529.374L454.203 529.529C452.884 529.994 451.604 530.46 450.324 530.925C445.358 532.749 440.237 534.611 432.633 535.697C431.741 536.046 430.538 536.628 429.297 537.249C425.145 539.266 419.947 541.827 415.214 542.176C414.787 542.176 414.36 542.215 413.934 542.215L413.74 542.409ZM376.341 525.921C377.932 525.921 379.639 526.037 381.384 526.309H381.656C384.1 526.968 386.001 527.861 387.786 528.753C390.385 529.994 392.829 531.197 397.252 531.43H397.484C399.269 531.662 401.403 532.283 403.886 532.982C407.377 533.99 411.684 535.232 414.477 535.038C417.813 534.766 422.507 532.477 425.921 530.809C427.59 529.994 429.064 529.296 430.266 528.83L431.042 528.636C438.103 527.628 442.759 525.96 447.647 524.175C448.927 523.709 450.168 523.244 451.487 522.817C453.582 521.847 455.639 521.227 457.617 520.606C460.216 519.83 462.699 519.054 465.221 517.541L465.609 517.308L466.036 517.192C471.816 515.446 474.493 513.351 477.636 510.907C479.42 509.51 481.282 508.075 483.765 506.639C487.102 504.7 489.391 502.45 492.029 499.85C493.813 498.105 495.637 496.281 497.925 494.458C500.292 489.764 504.249 486.156 510.068 481.849C510.767 478.241 512.435 474.556 514.064 470.987C514.84 469.318 515.539 467.767 516.159 466.215L516.392 465.672L516.78 465.206C518.487 463.189 520.504 461.327 522.483 459.542C525.703 456.594 529.039 453.568 529.272 451.046L529.35 450.348L529.66 449.727C530.669 447.787 530.203 445.11 529.66 442.007C529.039 438.437 528.38 434.403 530.009 430.484C530.708 428.234 531.173 425.984 531.677 423.656C532.376 420.242 533.113 416.673 534.665 412.949C533.85 407.673 532.104 402.396 530.242 396.849L529.776 395.258C529.621 394.017 529.466 392.814 529.272 391.611C528.613 386.84 527.914 381.913 528.69 376.636C528.574 375.55 528.496 374.464 528.419 373.378C528.031 368.451 527.72 364.183 524.267 360.342L523.375 359.372V358.053C523.142 353.747 520.815 350.566 517.284 345.794L516.431 344.63C512.629 338.889 509.525 332.022 508.284 326.629C506.538 324.534 503.473 322.789 500.253 320.926C497.654 319.452 495.016 317.9 492.533 315.961L491.33 314.991L491.175 313.439C490.516 306.844 488.615 301.839 485.86 299.744C483.61 298.115 480.157 297.222 476.782 296.369C473.562 295.554 470.264 294.701 467.51 293.11L467.316 292.994C464.368 291.054 460.604 287.679 457.268 284.692C455.445 283.062 453.699 281.472 452.574 280.618C447.996 279.066 443.612 278.484 437.056 277.631C435.62 277.437 434.107 277.243 432.478 277.01L432.129 276.932C428.21 276.001 424.99 275.846 420.102 275.613C418.628 275.536 417.076 275.458 415.291 275.381C411.567 275.109 407.377 275.691 403.265 276.234C400.898 276.545 398.493 276.894 396.165 277.049C394.536 277.204 392.286 277.204 389.725 277.204C385.652 277.204 380.57 277.204 375.681 277.98C373.936 278.368 372.345 278.717 370.793 279.027C367.34 279.726 364.082 280.424 359.077 281.782C357.525 283.023 355.12 284.381 351.628 286.243C348.913 287.718 346.081 289.269 344.335 290.511C342.124 292.101 339.214 293.537 336.188 295.089C333.239 296.563 330.175 298.076 327.653 299.783C324.937 303.119 320.165 305.68 314.152 308.861C313.143 309.404 312.096 309.947 311.01 310.529C311.01 310.568 311.01 310.607 311.01 310.684C310.855 315.767 310.622 324.263 303.445 329.578C302.242 330.936 301.039 332.177 299.875 333.38C296.927 336.406 294.405 339.044 293.358 342.186L293.203 342.613L292.97 343.001C291.457 345.445 291.263 348.238 291.03 351.497C290.836 354.213 290.642 357.045 289.633 359.954L289.44 360.381C288.741 361.778 288.004 363.174 287.228 364.532C284.939 368.683 282.999 372.253 283.232 375.899L283.31 376.986L282.767 377.955C280.517 382.029 280.633 386.18 280.749 390.991C280.749 392.271 280.827 393.512 280.827 394.793V395.491L280.555 396.15C279.275 399.293 279.508 402.474 279.779 406.16C279.935 408.487 280.129 410.893 279.896 413.414C280.167 417.022 278.848 420.475 277.607 423.773C276.482 426.721 275.434 429.476 275.822 431.571C277.18 433.898 279.392 436.11 281.719 438.399C284.59 441.192 287.539 444.101 289.246 447.748L289.362 447.981C290.332 450.503 290.797 453.102 291.224 455.585C291.884 459.232 292.504 462.684 294.599 465.439L295.841 467.068L295.065 469.008C294.056 471.607 296.927 475.215 304.143 480.375L304.841 480.879L305.229 481.655C306.703 484.449 308.992 486.893 311.436 489.492C312.833 490.966 314.23 492.44 315.588 494.109L315.782 494.341C317.876 497.406 321.872 501.984 325.054 505.631C326.14 506.872 327.11 507.997 327.924 508.928C330.058 510.131 331.688 511.179 333.162 512.148C336.149 514.088 338.516 515.64 344.024 517.463L344.529 517.657C350.581 520.722 355.935 524.02 359.038 525.96C363.306 526.891 366.797 526.58 370.483 526.27C372.345 526.115 374.246 525.96 376.263 525.96L376.341 525.921Z" fill="#D8D2D2"/>
</g>
<g opacity="0.27">
<path d="M438.646 614.296C436.861 614.296 435.309 613.908 433.564 613.443C431.12 612.822 428.094 612.046 422.662 611.891C419.869 611.775 417.929 612.24 415.64 612.744C412.381 613.482 408.735 614.335 402.605 613.753L401.868 613.676L401.208 613.326C400.976 613.21 400.626 612.977 400.161 612.744C397.329 611.115 390.695 607.274 383.595 605.994L381.229 605.567L380.957 604.365C379.444 603.628 376.03 602.464 373.664 601.61C371.491 600.873 369.202 600.058 367.379 599.321C366.331 598.972 365.284 598.623 364.198 598.235C358.572 596.373 352.753 594.433 349.223 591.795C346.856 590.592 344.761 589.428 342.589 588.148C339.601 586.441 336.537 584.695 332.463 582.794L331.804 582.406C330.174 581.204 328.273 580.079 326.256 578.876C322.997 576.936 319.622 574.919 316.867 572.242L316.014 571.389L315.82 570.186C315.51 568.363 310.505 565.298 306.082 562.582L303.173 560.798L302.707 559.944C299.642 554.435 296.189 549.974 292.116 546.366L291.728 546.017L291.456 545.59C288.586 541.167 283.736 537.443 277.141 532.671L276.094 531.895L275.744 530.615C275.007 527.744 273.572 524.64 272.059 521.343C271.167 519.403 270.274 517.424 269.46 515.407C264.377 510.596 265.774 504.583 266.705 500.51C267.132 498.647 267.52 496.902 267.365 495.621C266.395 494.186 265.386 492.712 264.3 491.199C261.312 486.97 258.209 482.625 256.696 477.853L256.192 476.263L257.045 474.827C258.015 473.236 257.472 471.723 255.92 468.387C254.795 465.943 253.515 463.189 253.553 460.046C250.333 453.606 248.898 446.933 249.325 440.687C248.588 436.769 249.868 433.045 250.993 429.786C251.924 427.07 252.816 424.51 252.351 422.453L252.157 421.639L252.351 420.824C253.786 414.811 253.165 409.806 250.372 405.034L248.976 402.629L250.915 400.65C253.204 398.323 253.282 395.995 253.165 392.116C253.088 389.245 253.01 386.025 254.523 382.805C255.687 379.429 257.976 376.714 259.955 374.308C261.856 372.058 263.601 369.925 264.028 367.791L264.183 367.054L264.61 366.433C266.007 364.377 266.472 361.933 267.054 359.101C267.714 355.648 268.49 351.768 271.205 348.238C272.486 343.311 275.007 337.104 282.301 331.168C283.038 330.237 283.659 329.383 284.241 328.569C286.646 325.271 288.741 322.4 295.181 318.521C295.646 316.969 295.995 315.029 296.306 313.051C296.927 309.326 297.547 305.486 299.487 302.382L299.72 301.994L300.03 301.684C303.599 298.231 308.953 296.33 314.617 294.313C317.333 293.343 320.126 292.334 322.881 291.131C327.226 287.95 329.67 284.885 332.075 281.976L333.278 280.501L333.782 280.191C335.955 278.833 338.476 277.514 340.959 276.234C344.024 274.643 348.214 272.432 349.184 271.268L349.688 270.647L350.425 270.298C352.753 269.134 354.538 267.311 356.4 265.371C358.534 263.16 360.745 260.871 363.887 259.474L364.275 259.319C369.086 257.845 373.547 257.457 378.746 257.03C381.811 256.759 385.263 256.487 389.259 255.905C394.109 254.043 399.191 252.491 403.265 251.599L403.614 251.521C409.161 250.901 412.265 251.444 414.981 251.909C416.804 252.22 418.356 252.491 420.645 252.375C424.214 252.258 426.542 251.25 429.219 250.086C432.594 248.65 436.396 247.021 442.525 247.215C448.655 247.448 453.737 248.262 458.625 249.038C460.526 249.349 462.427 249.659 464.367 249.931L469.139 250.59L467.897 253.422C469.294 254.974 472.475 257.612 475.812 258.543C486.946 260.173 491.252 262.966 494.744 265.177L494.977 265.332C496.451 265.876 500.292 265.682 503.124 265.526C508.089 265.255 513.21 264.983 516.702 266.923C519.069 268.048 521.28 269.134 523.569 270.298C527.022 272.044 530.629 273.867 535.246 275.885L536.876 276.583L537.341 278.29C538.156 280.152 545.837 284.226 550.415 286.67L551.967 287.562C556.312 290.976 556.312 296.563 556.312 301.024C556.312 302.576 556.312 304.244 556.506 305.408C561.2 307.774 563.605 309.753 565.972 311.693C567.912 313.283 569.774 314.796 573.11 316.736L573.498 316.969L573.809 317.279C579.473 322.788 580.249 329.151 580.481 333.845C584.865 337.918 588.473 340.983 593.323 345.134L595.844 347.268L596.155 347.811C598.133 351.186 598.327 355.027 598.521 358.402C598.715 361.545 598.87 364.532 600.345 366.705L600.694 367.209L600.849 367.791C601.276 369.343 602.44 370.972 603.681 372.718C606.009 375.977 609.151 380.361 607.173 385.598C607.832 391.184 609.617 397.275 611.285 402.513L611.479 403.172V403.87C611.363 405.112 611.207 406.353 611.091 407.556C610.587 412.095 610.16 416.052 612.565 419.971L613.38 421.29L612.953 422.803C611.44 428.35 609.888 434.092 609.5 439.873C609.85 441.153 610.276 442.433 610.703 443.791C612.255 448.679 613.845 453.684 613.07 458.921C614.233 464.352 612.255 469.512 610.509 474.129C609.966 475.564 609.462 476.922 609.035 478.241C608.492 480.763 607.367 483.013 606.242 485.224C604.224 489.259 603.41 491.354 604.457 493.177L606.009 495.815L603.681 497.794C597.125 503.342 594.836 506.988 592.974 511.644C592.702 512.497 592.469 513.428 592.236 514.36C590.879 519.403 589.055 526.309 582.732 531.391C581.762 532.671 580.714 533.835 579.783 534.843C576.718 538.296 575.826 539.576 576.369 540.857L577.688 543.999L574.662 545.551C568.145 548.849 564.381 553.155 564.381 557.267V559.207L562.752 560.293C560.347 561.923 558.795 563.513 557.127 565.22C554.644 567.781 552.083 570.38 547.156 572.824C544.285 576.898 539.009 581.165 532.492 584.695C529.039 586.79 524.539 587.838 520.155 588.885C517.09 589.622 513.948 590.36 511.969 591.329C511.348 591.95 510.728 592.92 510.029 594.045C508.051 597.188 505.335 601.494 498.662 603.356C494.278 604.714 490.282 604.365 486.403 604.015C483.299 603.744 480.079 603.472 476.394 604.054C475.618 604.403 474.687 604.791 473.717 605.218C469.798 606.925 464.949 609.059 461.923 609.874L461.457 609.951C458.897 610.3 456.686 610.921 454.358 611.542C450.478 612.628 446.095 613.831 439.267 614.063C438.956 614.063 438.646 614.063 438.335 614.063L438.646 614.296ZM421.731 604.559C422.119 604.559 422.507 604.559 422.934 604.559C429.102 604.753 432.71 605.645 435.348 606.343C437.172 606.809 438.103 607.003 439.073 606.925H439.267C445.241 606.731 449.043 605.684 452.729 604.675C455.134 604.016 457.617 603.317 460.565 602.929C463.087 602.192 467.704 600.175 471.118 598.701C472.281 598.196 473.368 597.731 474.26 597.343L474.648 597.188L475.075 597.11C479.885 596.256 483.842 596.606 487.373 596.916C490.864 597.226 493.852 597.459 496.994 596.489C501.029 595.364 502.503 593.036 504.21 590.321C505.257 588.691 506.305 586.984 507.973 585.626L508.516 585.277C511.309 583.726 514.995 582.872 518.875 581.941C522.715 581.049 526.672 580.118 529.116 578.605L529.272 578.527C535.052 575.385 539.902 571.427 541.919 568.207L542.501 567.276L543.51 566.811C547.816 564.832 549.872 562.698 552.238 560.293C553.713 558.78 555.342 557.112 557.553 555.444C558.135 551.448 560.618 545.629 569.231 540.546C569.114 536.356 572.141 532.981 574.662 530.149C575.632 529.063 576.641 527.938 577.533 526.774L577.843 526.386L578.231 526.076C582.926 522.507 584.245 517.502 585.525 512.691C585.835 511.605 586.107 510.558 586.417 509.549L586.495 509.277C588.822 503.38 591.887 499.113 597.357 494.147C596.271 489.724 598.366 485.573 600.112 482.121C601.082 480.22 601.974 478.396 602.284 476.806L602.362 476.418C602.866 474.827 603.448 473.237 604.03 471.685C605.621 467.534 607.095 463.615 606.164 460.162L605.931 459.348L606.086 458.533C606.785 454.848 605.466 450.658 604.069 446.196C603.565 444.644 603.06 443.015 602.634 441.386L602.478 440.842V440.26C602.828 434.053 604.379 428.001 605.854 422.531C603.099 416.983 603.642 411.707 604.185 406.974C604.302 406.082 604.379 405.19 604.457 404.258C602.634 398.478 600.733 391.805 600.151 385.52L600.034 384.473L600.5 383.542C601.276 382.029 600.616 380.671 598.056 377.141C596.659 375.201 595.107 372.989 594.254 370.468C591.965 366.743 591.732 362.631 591.499 358.984C591.344 356.424 591.189 353.98 590.335 352.118L588.822 350.837C583.507 346.298 579.667 343.039 574.623 338.306L573.537 337.259V335.746C573.304 330.741 572.839 326.629 569.231 322.943C565.623 320.81 563.489 319.064 561.549 317.473C559.105 315.495 557.01 313.749 552.161 311.46L550.997 310.917L550.415 309.792C549.135 307.231 549.174 304.128 549.174 301.14C549.174 298.076 549.174 294.933 547.816 293.614L547.156 293.265C538.893 288.881 533.345 285.778 531.211 282.131C527.022 280.269 523.685 278.562 520.465 276.932C518.176 275.768 516.004 274.682 513.676 273.596L513.366 273.441C511.775 272.51 507.12 272.781 503.706 272.936C499.167 273.169 494.86 273.441 491.834 271.966L490.942 271.423C487.761 269.367 484.424 267.233 474.725 265.837L474.338 265.759C468.906 264.363 463.669 260.056 461.535 256.991C460.216 256.797 458.936 256.603 457.617 256.371C452.729 255.595 448.073 254.858 442.409 254.625C437.948 254.47 435.309 255.595 432.283 256.914C429.335 258.194 425.999 259.591 421.11 259.785C418.084 259.94 415.912 259.552 413.856 259.203C411.412 258.776 409.123 258.388 404.7 258.854C400.937 259.668 396.165 261.143 391.626 262.927L391.238 263.082L390.811 263.16C386.427 263.781 382.703 264.13 379.444 264.401C374.556 264.828 370.676 265.138 366.719 266.341C364.974 267.156 363.499 268.708 361.754 270.531C359.775 272.626 357.525 274.954 354.382 276.661C352.326 278.756 348.641 280.657 344.451 282.829C342.317 283.954 340.106 285.079 338.282 286.204L337.856 286.709C335.256 289.929 332.269 293.575 326.993 297.416L326.333 297.804C323.23 299.201 320.165 300.287 317.178 301.373C312.484 303.041 308.061 304.632 305.539 306.805C304.53 308.706 304.065 311.615 303.599 314.408C303.134 317.241 302.668 320.15 301.582 322.633L301.116 323.758L300.069 324.379C294.095 327.793 292.659 329.771 290.254 333.069C289.555 334.039 288.78 335.086 287.848 336.25L287.267 336.832C281.059 341.759 279.197 346.764 278.188 350.992L277.994 351.846L277.413 352.505C275.473 354.756 274.93 357.51 274.309 360.691C273.727 363.64 273.067 367.015 271.128 370.119C270.197 373.727 267.791 376.597 265.658 379.158C263.873 381.292 262.166 383.309 261.468 385.481L261.274 385.986C260.459 387.654 260.498 389.749 260.575 392.116C260.653 395.607 260.769 399.797 257.976 403.87C260.575 409.418 261.157 415.393 259.683 421.988C260.226 425.751 259.024 429.281 257.937 432.424C257.006 435.178 256.075 437.739 256.579 439.834L256.735 440.416V440.998C256.23 446.313 257.549 452.132 260.537 457.835L261.08 458.882L260.925 460.046C260.731 461.598 261.623 463.538 262.554 465.594C263.989 468.659 265.89 472.771 264.145 477.232C265.464 480.452 267.791 483.75 270.274 487.242C271.477 488.949 272.718 490.694 273.882 492.479L274.193 492.945L274.348 493.449C275.201 496.514 274.503 499.656 273.882 502.411C272.835 506.95 272.68 508.812 274.93 510.674L275.706 511.295L276.055 512.226C276.831 514.282 277.839 516.454 278.77 518.549C280.167 521.575 281.564 524.679 282.495 527.744C289.051 532.516 294.017 536.434 297.353 541.439C301.698 545.396 305.384 550.09 308.643 555.754L309.923 556.53C316.169 560.332 321.212 563.436 322.725 567.819C324.743 569.604 327.303 571.117 330.019 572.746C331.998 573.91 334.015 575.113 335.877 576.471C340.067 578.449 343.171 580.234 346.197 581.941C348.408 583.182 350.464 584.385 352.753 585.549L353.413 585.976C355.857 587.915 361.482 589.816 366.448 591.446C367.573 591.834 368.698 592.183 369.784 592.571L369.978 592.648C371.646 593.347 373.858 594.084 375.991 594.821C381.384 596.683 384.449 597.808 386.156 599.166C394.031 600.873 401.053 604.947 403.808 606.537C403.885 606.576 403.963 606.615 404.04 606.654C408.502 607.003 411.14 606.382 413.933 605.722C416.222 605.179 418.589 604.636 421.692 604.636L421.731 604.559Z" fill="#C1BCBC"/>
</g>
<g opacity="0.15">
<path d="M474.648 694.989C471.971 694.989 468.712 694.135 464.949 693.127C461.38 692.196 457.694 691.226 454.785 691.109C447.258 690.915 443.418 689.713 440.314 688.704C438.995 688.277 437.831 687.889 436.512 687.695C432.826 687.385 430.654 687.579 428.326 687.773C425.378 688.045 422.274 688.316 416.494 687.579L415.718 687.385C414.515 686.958 411.993 686.764 409.355 686.609C405.941 686.376 401.674 686.105 397.174 685.096L396.359 684.902L395.699 684.359C394.768 683.777 389.919 682.574 386.699 681.799C382.819 680.829 378.823 679.859 375.952 678.773L371.297 677.027L372.577 675.397C370.133 674.156 365.943 672.526 363.383 671.557C361.792 670.936 360.24 670.354 358.921 669.811L357.564 669.229L356.982 667.871C355.546 664.573 351.007 661.858 343.52 659.763L342.123 659.375L341.386 658.133C340.882 657.319 338.088 655.767 336.381 654.797C333.588 653.245 330.678 651.616 328.739 649.443C327.73 648.667 326.527 647.891 325.286 647.038C321.717 644.671 317.41 641.839 316.634 637.999C313.027 636.098 310.738 633.964 308.526 631.908C305.966 629.541 303.56 627.33 298.866 625.274L296.5 624.226L296.655 621.86C296.151 621.123 293.978 619.842 292.659 619.067C289.905 617.437 286.762 615.575 285.016 612.665L284.59 611.967L284.512 611.152C284.396 609.988 281.564 607.118 279.895 605.411C277.18 602.656 274.386 599.863 273.378 596.682C271.865 594.238 271.011 591.638 270.235 589.117C269.188 585.819 268.218 582.715 265.735 580.232L265.114 579.612L264.843 578.758C264.028 576.237 262.127 573.56 260.149 570.766C258.442 568.4 256.735 565.956 255.377 563.279L254.562 561.572L255.454 559.904C256.463 558.042 254.019 554.472 251.885 551.33C250.45 549.235 248.975 547.062 248.083 544.89L247.462 543.416L248.122 541.98C249.208 539.497 249.169 537.402 238.927 530.846L238.113 530.303L237.647 529.449C234.97 524.328 235.009 518.975 235.048 514.203C235.048 512.729 235.048 511.332 235.009 509.974C232.759 505.047 235.087 500.275 236.988 496.435C237.919 494.534 238.889 492.594 239.083 491.042C236.833 486.852 235.785 482.74 234.776 478.783C234.233 476.649 233.729 474.632 233.031 472.653L232.371 470.791L233.574 469.239C236.406 465.631 235.979 462.023 235.436 457.484C235.242 456.01 235.087 454.536 235.009 452.945V452.596V452.247C235.242 450.579 235.242 448.794 235.242 446.932C235.242 442.897 235.164 438.397 237.841 433.819C236.639 429.939 237.686 426.331 238.54 423.305C239.238 420.861 239.82 418.766 239.277 417.021L239.044 416.283L239.121 415.508C239.897 408.098 242.691 402.666 248.626 397.196C248.432 393.394 250.139 390.019 251.652 386.993C252.583 385.131 253.476 383.346 253.786 381.756C251.614 376.518 248.355 367.634 252.661 360.457L253.165 359.604L254.019 359.138C260.11 355.763 260.032 352.659 259.877 348.353C259.838 347.111 259.799 345.792 259.877 344.473L259.993 343.038L261.041 342.068C266.783 336.869 270.817 333.766 280.671 328.645C282.921 325.658 283.038 321.429 283.193 317.666C283.232 316.424 283.271 315.26 283.387 314.174L283.581 312.273L285.249 311.342C291.689 307.734 295.918 303.583 297.819 299.005C299.293 294.932 304.608 293.186 310.233 291.324C313.104 290.393 316.634 289.229 318.031 288.104C320.204 284.535 324.471 281.703 328.583 278.987C329.902 278.095 331.26 277.241 332.463 276.349L333.084 276C336.226 274.525 338.049 273.4 339.834 272.275C342.045 270.879 344.14 269.56 348.059 268.008C349.106 263.12 353.684 257.533 359.154 254.973C361.443 253.77 364.741 252.218 368.193 250.589C372.383 248.649 377.116 246.399 378.901 245.274L379.444 244.925L380.065 244.769C386.621 243.218 392.324 244.187 395.505 244.769L396.553 244.575C402.062 243.644 404.351 241.355 406.562 239.144C408.075 237.631 409.627 236.079 411.916 235.381L412.614 235.226C419.326 234.489 423.283 235.109 427.085 235.691C430.188 236.157 433.098 236.622 437.637 236.312C439.15 236.079 440.585 235.342 442.409 234.45C445.668 232.82 449.741 230.842 456.259 230.648C461.884 230.493 466.074 231.23 469.721 231.889C472.01 232.277 473.949 232.626 476.006 232.743H476.432C476.975 232.82 478.721 232.743 480.04 232.743C485.588 232.549 488.032 232.588 489.545 233.053C498.352 233.829 508.4 235.769 515.228 237.127L522.948 238.679L521.396 239.92C524.5 240.851 526.672 241.511 528.146 242.403C531.832 243.45 534.78 244.925 537.613 246.321C540.057 247.524 542.346 248.688 545.178 249.619C555.497 251.908 559.881 254.817 562.791 257.649C570.899 260.443 574.041 264.128 576.602 267.154L576.718 267.271C579.938 268.357 583.663 269.055 587.271 269.715C593.361 270.879 598.599 271.849 601.935 274.525L602.09 274.642C603.836 276.194 605.931 277.435 608.142 278.754C610.548 280.189 613.225 281.78 615.824 283.991C622.186 288.259 624.98 293.729 626.997 299.005C627.967 300.518 630.566 302.691 632.855 304.592C636.347 307.501 639.644 310.256 641.196 313.321C643.562 316.657 644.416 320.265 645.153 323.446C645.541 325.192 645.929 326.86 646.55 328.373C651.748 331.593 654.115 334.658 656.443 337.645C657.917 339.508 659.275 341.292 661.408 343.115C666.723 347.034 673.163 353.086 670.603 361.66C671.107 363.017 671.573 364.414 672.038 365.811C673.357 369.69 674.715 373.647 676.577 377.372C677.392 378.458 678.245 379.544 679.099 380.592C683.134 385.674 687.324 390.911 687.13 396.963C687.285 402.278 687.44 409.3 685.5 415.624C690.039 420.435 694.113 426.642 691.901 434.129C693.298 437.582 693.414 440.918 693.531 443.906C693.608 446.738 693.725 449.143 694.733 451.471L695.703 453.682L694.035 455.428C691.979 457.6 692.057 459.501 692.445 462.954C692.716 465.592 693.065 468.773 691.669 472.149C692.173 479.248 690.466 485.262 686.354 490.926C686.509 491.973 686.742 493.059 686.974 494.146C687.944 498.646 689.147 504.232 684.724 509.819C684.026 512.069 684.53 514.63 685.151 517.578C685.733 520.488 686.431 523.746 685.772 527.122L685.578 528.092L684.957 528.829C681.97 532.359 680.496 536.626 679.138 540.739C678.595 542.368 678.051 544.036 677.392 545.627C678.944 550.942 676.694 555.947 674.87 560.02C674.25 561.378 673.706 562.619 673.28 563.861C672.193 567.314 668.935 569.797 665.792 572.202C664.279 573.366 661.486 575.499 661.331 576.431L661.525 577.129L661.37 578.176C660.671 583.297 659.546 591.716 649.459 597.574C648.489 600.522 646.782 602.617 645.269 604.479C644.183 605.837 643.136 607.118 642.282 608.708L641.661 609.911L640.381 610.415C633.553 613.131 633.786 616.467 634.096 620.696C634.213 622.054 634.29 623.45 634.096 624.808L633.825 626.903L631.846 627.718C628.083 629.231 625.367 630.395 622.962 631.442C618.966 633.188 615.669 634.585 609.811 636.641C609.811 637.533 609.655 638.425 609.345 639.318C607.987 643.43 603.642 647.31 597.047 650.297C593.051 652.818 589.947 654.254 586.339 655.883C584.749 656.62 583.081 657.358 581.141 658.327C579.861 659.22 578.386 660.19 576.873 661.198C573.615 663.332 569.153 666.28 567.95 667.793L567.562 668.298L567.019 668.647C564.342 670.315 560.618 671.363 557.01 672.371C554.682 673.031 551.501 673.923 550.609 674.583L550.066 675.009L549.406 675.203C547.079 675.902 545.1 676.716 543.005 677.57C538.97 679.199 534.78 680.867 527.759 682.109C525.741 685.562 521.008 689.558 513.016 690.721C510.339 691.381 506.266 691.963 502.309 692.545C499.787 692.894 496.412 693.398 495.326 693.67L494.86 693.98L493.968 694.058C487.101 694.64 484.114 694.717 479.963 694.834C478.605 694.834 477.092 694.911 475.23 694.989C475.036 694.989 474.803 694.989 474.609 694.989H474.648ZM432.865 680.208C434.145 680.208 435.581 680.247 437.249 680.402H437.521C439.422 680.751 440.973 681.255 442.525 681.721C445.318 682.613 448.461 683.622 455.017 683.777C458.819 683.932 463.087 685.057 466.811 686.027C469.992 686.881 473.29 687.734 474.958 687.618C476.898 687.54 478.45 687.501 479.846 687.463C483.881 687.346 486.597 687.269 492.843 686.764C494.123 686.338 496.296 685.988 501.339 685.251C505.024 684.708 509.176 684.126 511.503 683.544L511.891 683.467C518.874 682.497 521.474 678.811 521.784 677.88L522.327 675.475L524.771 675.165C532.181 674.039 536.138 672.449 540.367 670.742C542.346 669.927 544.44 669.112 546.846 668.337C548.863 667.056 551.812 666.242 555.148 665.311C557.864 664.535 560.928 663.681 562.791 662.711C564.692 660.616 568.106 658.327 572.916 655.146C574.468 654.137 575.981 653.129 577.223 652.237L577.727 651.926C579.822 650.879 581.645 650.064 583.352 649.288C586.921 647.659 589.715 646.378 593.4 644.051L593.905 643.779C599.413 641.335 601.935 638.658 602.439 637.106C602.595 636.602 602.517 636.369 602.401 636.137L600.189 632.257L604.418 630.822C612.061 628.261 615.436 626.787 620.13 624.769C622.07 623.916 624.204 623.024 626.919 621.899C626.919 621.705 626.919 621.511 626.88 621.317C626.57 616.972 625.949 608.98 636.541 604.208C637.549 602.54 638.674 601.182 639.644 599.94C641.235 598.001 642.36 596.565 642.825 594.432L643.175 592.725L644.726 591.91C652.602 587.875 653.455 582.366 654.115 577.478C653.339 572.59 657.762 569.176 661.37 566.421C663.387 564.87 665.909 562.93 666.374 561.533C666.956 559.904 667.616 558.429 668.236 557.033C670.215 552.61 671.379 549.701 670.176 547.024L669.517 545.511L670.176 544.036C670.952 542.329 671.573 540.428 672.271 538.45C673.706 534.182 675.336 529.333 678.75 524.988C678.866 523.242 678.478 521.225 678.013 519.091C677.237 515.328 676.383 511.099 678.129 506.677L678.362 506.133L678.75 505.668C681.233 502.758 680.845 500.275 679.836 495.736C679.448 493.952 679.06 492.09 678.944 490.111L678.866 488.714L679.758 487.628C683.56 482.856 684.996 477.968 684.375 471.877L684.259 470.791L684.763 469.821C685.655 468.153 685.5 466.446 685.229 463.808C684.879 460.626 684.453 456.437 687.285 452.285C686.431 449.415 686.354 446.66 686.276 444.177C686.16 441.151 686.082 438.513 684.802 436.03L684.026 434.517L684.647 432.965C685.849 429.978 686.005 426.215 678.789 419.154L677.043 417.409L677.974 415.12C680.263 409.649 680.03 402.356 679.914 397.041V396.925V396.808C680.069 393.433 676.694 389.243 673.474 385.17C672.504 383.928 671.495 382.726 670.603 381.484L670.292 380.98C668.12 376.712 666.646 372.367 665.21 368.177C664.59 366.393 664.008 364.647 663.387 362.979L662.883 361.621L663.426 360.302C664.434 357.819 664.861 354.676 657.063 348.935L656.869 348.78C654.115 346.413 652.33 344.163 650.778 342.146C648.528 339.275 646.627 336.792 641.933 334.076L640.963 333.533L640.459 332.524C639.256 330.041 638.674 327.52 638.092 325.114C637.394 322.166 636.812 319.606 635.183 317.433L634.756 316.735C633.98 315.028 630.799 312.351 628.238 310.217C625.057 307.579 622.07 305.096 620.596 302.38L620.363 301.876C618.772 297.686 616.794 293.341 611.673 289.966L611.285 289.656C609.151 287.793 606.785 286.397 604.496 285C602.129 283.565 599.646 282.129 597.435 280.151C595.456 278.638 590.685 277.745 586.029 276.892C581.8 276.077 577.417 275.262 573.421 273.788L572.528 273.478L571.132 271.848C568.804 269.094 566.554 266.456 559.803 264.283L558.911 264.012L558.252 263.352C556.273 261.296 553.325 258.891 543.471 256.718L543.121 256.602C539.707 255.477 536.992 254.119 534.392 252.839C531.599 251.442 528.961 250.123 525.702 249.27L524.965 249.076L524.345 248.571C523.724 248.183 520.814 247.33 519.107 246.787C515.616 245.739 513.327 245.08 512.008 243.877C505.335 242.558 496.257 240.89 488.42 240.23L487.528 240.153L487.256 239.959C485.937 239.804 482.329 239.959 480.351 239.998C477.635 240.075 476.394 240.114 475.579 239.998C473.135 239.881 470.885 239.493 468.518 239.066C465.027 238.446 461.419 237.825 456.53 237.941C451.603 238.058 448.616 239.571 445.706 241.006C443.534 242.054 441.323 243.179 438.607 243.567H438.335C432.865 243.993 429.374 243.45 425.998 242.907C422.584 242.364 419.364 241.86 413.933 242.442C413.351 242.752 412.614 243.489 411.761 244.343C409.51 246.593 406.213 249.89 399.656 251.442C398.221 252.684 396.204 252.334 394.419 252.024C391.742 251.559 387.32 250.744 382.354 251.791C379.987 253.188 375.797 255.167 371.375 257.223C368.077 258.774 364.702 260.365 362.568 261.49L362.374 261.607C357.757 263.74 355.042 268.667 355.197 270.103L355.507 272.935L352.83 274.06C348.136 275.767 346.235 276.969 343.791 278.483C341.968 279.608 339.912 280.927 336.536 282.517C335.295 283.41 334.015 284.263 332.696 285.116C329.282 287.405 325.363 289.966 324.2 292.177L323.928 292.643L323.54 293.031C321.135 295.475 316.945 296.833 312.522 298.307C309.884 299.16 305.539 300.596 304.647 301.643V301.721C302.28 307.424 297.547 312.467 290.564 316.735C290.564 317.123 290.564 317.511 290.525 317.937C290.37 322.593 290.176 328.994 285.831 333.999L285.365 334.503L284.745 334.813C275.938 339.391 272.136 342.029 267.132 346.491C267.132 346.995 267.132 347.538 267.132 348.081C267.287 352.659 267.52 359.526 258.48 364.957C256.773 368.876 258.597 374.385 260.847 379.816L261.157 380.592V381.445C260.886 384.665 259.411 387.614 258.092 390.213C256.657 393.084 255.416 395.528 255.959 397.623L256.541 399.834L254.795 401.347C248.704 406.546 246.958 410.697 246.337 415.585C247.191 419.116 246.26 422.374 245.445 425.284C244.553 428.465 244.048 430.521 245.057 432.461L246.143 434.478L244.786 436.341C242.38 439.599 242.419 442.819 242.458 446.854C242.458 448.794 242.458 450.811 242.225 452.906C242.303 454.07 242.419 455.273 242.574 456.553C243.117 461.053 243.777 466.601 240.402 472.071C240.906 473.739 241.333 475.408 241.721 476.998C242.729 480.955 243.661 484.68 245.755 488.326L246.221 489.102V489.995C246.415 493.525 244.824 496.784 243.389 499.693C241.643 503.185 240.634 505.435 241.643 507.22L242.031 507.918L242.109 508.733C242.225 510.595 242.225 512.457 242.225 514.28C242.225 518.199 242.148 521.923 243.583 525.221C249.945 529.333 257.821 534.803 255.26 543.299C255.92 544.502 256.812 545.86 257.782 547.218C260.575 551.291 263.95 556.296 262.554 561.378C263.524 563.046 264.726 564.753 265.968 566.499C268.024 569.409 270.158 572.396 271.399 575.655C274.697 579.263 275.977 583.297 277.102 586.905C277.839 589.233 278.499 591.405 279.663 593.074L280.051 593.656L280.206 594.315C280.555 595.751 283.115 598.35 284.978 600.251C287.926 603.238 290.68 606.031 291.495 609.329C292.465 610.493 294.482 611.695 296.306 612.782C299.06 614.411 302.319 616.39 303.483 619.416C308.216 621.743 310.932 624.304 313.414 626.554C315.82 628.765 317.915 630.705 321.755 632.412L324.781 633.77L323.812 636.718C324.394 637.805 327.497 639.861 329.204 640.986C330.64 641.956 332.114 642.926 333.433 643.973L333.976 644.477C335.023 645.758 337.584 647.193 339.834 648.435C342.433 649.87 344.877 651.267 346.507 653.051C354.848 655.534 360.202 658.987 362.84 663.565C363.81 663.953 364.818 664.341 365.905 664.767C374.633 668.143 378.862 669.966 380.375 672.604C382.703 673.302 385.574 674.039 388.406 674.738C393.992 676.134 397.368 676.988 399.346 678.113C403.109 678.889 406.64 679.122 409.821 679.316C413.041 679.548 415.64 679.704 417.735 680.363C422.507 680.945 424.99 680.712 427.628 680.48C429.141 680.363 430.77 680.208 432.826 680.208H432.865Z" fill="#8E8B8B"/>
</g>
<g opacity="0.06">
<path d="M468.829 745.076C467.044 745.076 465.027 745.076 462.738 744.959L460.643 744.882L460.372 744.378C459.557 744.222 458.471 743.99 457.617 743.834C454.009 743.136 451.837 742.709 450.479 742.205C440.159 741.545 436.784 741.041 431.275 740.265C429.723 740.032 427.977 739.8 425.883 739.489C422.042 738.83 416.416 737.86 414.128 734.756C412.304 734.485 410.52 734.252 408.813 733.98C399.89 732.739 394.575 732.002 392.557 729.635C390.54 728.898 388.484 728.045 386.35 727.152C382.16 725.407 377.815 723.622 372.811 722.109L368.659 720.868L369.241 719.704C367.884 719.316 366.138 718.928 364.741 718.617C361.288 717.842 357.37 716.949 354.111 715.63L353.684 715.436L353.296 715.165C351.512 713.846 350.27 712.255 349.107 710.742C347.128 708.22 345.266 705.815 340.572 703.992L339.835 703.72L339.291 703.138C338.709 702.517 337.817 701.78 336.886 700.966C333.666 698.211 330.019 695.069 329.864 691.112C329.864 690.685 329.864 690.142 329.981 689.599C326.217 686.573 320.592 683.663 312.872 680.714L311.863 680.326L311.242 679.473C310.505 678.426 309.419 677.378 308.294 676.214C305.811 673.731 302.824 670.744 302.475 666.942C299.565 664.576 295.22 662.791 289.517 660.386C287.461 659.532 285.25 658.601 282.805 657.554L279.663 656.157L280.866 652.937C282.146 649.484 282.107 642.967 280.284 638.932C278.111 637.458 275.202 636.216 272.369 635.014C267.326 632.88 262.554 630.862 261.041 626.905C255.106 622.677 252.429 618.448 249.829 614.336C249.131 613.211 248.433 612.086 247.618 610.96C244.127 606.344 246.221 601.068 247.734 597.188C248.394 595.559 249.054 593.891 249.17 592.61C244.282 588.847 243.118 585.084 242.187 581.98C241.566 579.963 241.1 578.334 239.587 576.588L239.044 575.928L238.85 575.075C238.54 573.756 238.307 572.398 238.113 571.118C237.415 566.423 236.833 562.738 230.859 558.936L229.152 557.85V555.832C229.152 553.854 228.026 551.642 226.824 549.237C225.194 546.017 223.371 542.409 223.759 538.219L223.875 536.978L224.69 536.086C226.707 533.874 227.561 531.896 227.328 530.266C226.979 528.055 224.612 525.65 220.461 523.244L215.845 520.606L219.957 517.231C223.099 514.671 224.031 512.11 225.194 508.929C226.009 506.717 226.863 504.312 228.531 501.907C220.694 495.35 220.733 488.6 220.772 483.014V481.539L221.819 480.492C224.729 477.505 223.914 475.022 221.005 469.241C220.461 468.155 219.918 467.069 219.453 465.982L219.22 465.284C217.746 458.495 218.211 451.395 218.793 445.305L218.948 443.83L220.073 442.86C224.147 439.446 225.427 436.11 226.901 432.269C227.716 430.174 228.531 428.041 229.85 425.829C230.354 424.51 230.548 423.191 230.742 421.795C231.246 418.187 231.906 413.803 237.609 409.341C236.406 405.539 236.678 402.048 236.911 398.867C237.027 397.16 237.143 395.569 237.066 393.939V393.086L237.337 392.31C238.385 389.788 240.131 387.228 241.799 384.706C243.933 381.525 246.338 377.956 246.493 375.628C245.717 371.399 248.821 368.296 251.071 366.046C251.808 365.309 253.011 364.106 253.321 363.446C253.282 363.369 253.205 363.291 253.088 363.175L249.907 359.877L253.825 357.511C261.546 352.855 263.253 347.036 263.835 342.497V342.264C264.688 338.152 267.598 335.281 270.197 332.798C271.788 331.246 273.301 329.772 274.27 328.143L274.542 327.677L274.969 327.289C276.637 325.815 278.189 324.263 279.818 322.673C282.767 319.802 285.793 316.814 289.478 314.021C288.276 309.521 292.388 305.409 294.599 303.197C295.724 302.072 296.888 300.908 297.47 299.938L297.586 299.744C301.311 294.468 308.953 288.727 317.333 284.808C317.45 284.343 317.566 283.8 317.682 283.179C318.381 279.649 319.467 274.334 328.08 270.92C330.562 268.359 333.045 267.156 335.916 265.799C337.313 265.139 338.942 264.363 340.766 263.316C346.74 260.134 353.102 253.927 354.616 251.6L355.353 250.474L356.633 250.086C361.405 248.651 366.021 248.03 369.784 247.487C372.073 247.177 374.828 246.789 375.953 246.362C378.436 241.939 386.816 237.284 391.975 235.461C394.109 233.87 397.562 234.025 402.023 234.18C405.476 234.297 409.394 234.452 411.994 233.754L412.304 233.676C415.602 233.094 416.61 231.969 418.085 230.301C420.218 227.857 422.895 224.831 430.771 223.938C434.379 223.163 437.599 223.24 440.237 223.279C442.177 223.279 443.845 223.357 445.164 223.046L445.707 222.969C452.923 222.425 456.802 223.046 459.673 223.473C461.458 223.744 462.738 223.938 464.367 223.822C468.169 223.628 470.846 222.542 473.678 221.417C476.976 220.059 480.739 218.546 485.976 218.546C490.593 218.546 494.162 219.167 497.305 219.749C499.05 220.059 500.719 220.369 502.348 220.486C504.909 220.641 506.965 220.486 509.098 220.292C511.892 220.059 515.073 219.787 519.69 220.292C527.41 220.99 536.488 224.326 539.708 227.469C543.432 228.206 546.381 229.409 549.252 230.572C552.704 231.969 556.274 233.405 561.627 234.258L561.976 234.336C564.421 234.956 565.352 234.724 566.554 234.413C568.688 233.87 570.744 233.521 574.352 234.918C576.757 235.771 580.521 236.663 584.517 237.672C589.831 238.991 595.379 240.31 599.104 241.862L599.841 242.172L600.384 242.754C602.673 245.159 607.794 250.746 609.85 254.587C612.061 255.751 615.63 256.992 619.083 258.234C623.079 259.63 627.191 261.066 630.489 262.734L630.722 262.889C632.817 264.169 634.058 265.333 635.144 266.342C637.045 268.088 638.675 269.639 645.813 271.889L647.132 272.316L647.83 273.48C649.149 275.614 649.305 277.864 649.421 279.649C649.615 282.054 649.693 283.373 651.826 284.925L652.02 285.08C655.008 287.524 659.624 288.998 666.607 291.21C669.401 292.102 672.543 293.11 676.112 294.313L680.651 295.865L677.936 299.822C677.47 300.482 676.035 302.926 676.849 305.525C677.586 307.892 680.108 309.986 684.104 311.538L687.673 312.935L686.121 316.426C685.617 317.629 691.281 321.703 693.725 323.41C694.85 324.224 695.975 325.039 697.1 325.854L698.148 326.63L698.458 327.91C699.351 331.595 701.407 334.156 707.575 339.277L709.476 340.829L708.739 343.156C707.187 348.239 706.45 352.739 713.433 356.696L714.326 357.2L715.528 359.373C718.089 363.834 721.736 370.313 717.39 376.559C718.826 377.801 720.455 379.003 722.046 380.206C726.042 383.154 730.154 386.219 732.055 390.409L732.443 391.263L732.365 392.194C732.327 392.776 732.249 393.358 732.21 393.939C731.706 399.06 731.318 403.134 736.982 407.246L740.163 409.574L737.603 412.6C735.973 414.501 736.284 415.975 737.525 419.7C738.262 421.95 739.116 424.51 738.922 427.342C739.737 430.911 741.637 434.869 743.538 438.709C744.469 440.649 745.439 442.628 746.293 444.606L746.487 445.227C747.146 448.059 746.603 450.736 746.138 453.102C745.362 457.059 744.974 459.038 748.582 461.715L752.733 464.78L748.465 467.689C747.418 468.388 746.758 469.086 746.681 469.59C746.526 470.638 748.31 472.966 749.629 474.634C751.453 477 753.354 479.444 753.974 482.354V482.548C754.983 489.104 753.237 496.049 748.97 502.683C749.474 507.455 749.746 513.895 745.284 520.179C749.319 525.921 746.37 531.857 744.276 535.93C743.577 537.288 742.956 538.568 742.53 539.771L742.219 540.431C740.59 543.185 740.512 545.629 740.396 548.694C740.318 551.022 740.241 553.621 739.349 556.492L739.116 557.307L738.534 557.927C733.102 563.747 728.137 569.372 727.167 574.105L727.012 574.842L726.585 575.463C724.529 578.334 724.956 582.019 725.382 585.938C725.615 587.877 725.809 589.895 725.731 591.873V592.571L725.421 593.231C724.645 594.938 724.141 596.529 723.598 598.236C722.434 601.844 721.231 605.607 717.701 609.758C713.356 614.53 709.709 619.845 706.528 624.5L705.441 626.091C703.424 628.768 700.825 630.746 698.303 632.686C696.208 634.276 693.648 636.216 692.988 637.69C693.725 642.074 692.367 646.924 691.165 651.269C690.816 652.549 690.466 653.713 690.234 654.799L689.807 656.739L687.945 657.437C681.388 659.881 678.75 662.093 675.957 664.459C673.978 666.127 671.961 667.873 668.741 669.619C667.81 672.373 665.094 674.197 662.961 675.632C662.301 676.098 661.292 676.757 660.711 677.262L661.486 679.395L658.771 680.908C653.495 683.896 647.908 687.504 642.981 690.724C641.934 691.383 640.964 692.043 639.994 692.663C639.916 693.051 639.8 693.439 639.645 693.827C638.054 697.396 633.127 698.871 625.717 701.082C624.088 701.548 622.419 702.091 620.674 702.634C620.247 703.371 619.898 704.535 619.587 705.776C618.656 709.151 617.299 714.272 611.13 716.755C609.035 717.492 607.173 718.113 605.427 718.695C601.199 720.092 596.853 721.527 595.34 722.73C593.711 725.601 589.366 725.484 583.585 725.329C580.016 725.213 575.632 725.096 572.374 725.717C569.037 729.286 561.317 733.204 559.688 733.942L559.3 734.097C557.011 734.795 554.217 736.231 551.502 737.627C548.204 739.295 544.79 741.041 541.687 741.895C539.359 743.058 535.673 743.524 529.194 744.222C527.798 744.378 526.362 744.533 524.888 744.727C520.504 745.309 515.888 744.61 512.202 744.028C510.262 743.718 508.051 743.408 507.12 743.524H506.848L503.512 743.718C497.072 744.067 491.485 744.378 483.92 744.378C482.291 744.378 480.778 744.494 479.032 744.61C476.472 744.804 473.446 745.037 468.868 745.037L468.829 745.076ZM463.63 737.666C471.079 737.899 475.153 737.588 478.45 737.356C480.351 737.2 481.981 737.084 483.882 737.084C491.253 737.084 496.49 736.812 503.085 736.424L506.305 736.231C508.206 736.037 510.534 736.386 513.25 736.774C516.664 737.278 520.543 737.899 523.957 737.433C525.509 737.239 526.983 737.084 528.38 736.929C532.337 736.502 537.303 735.959 538.428 735.299L538.854 735.067L539.436 734.911C541.88 734.33 545.062 732.7 548.165 731.11C551.075 729.635 554.101 728.084 556.894 727.191C560.89 725.368 566.322 721.799 567.175 720.635L567.912 719.277L569.348 718.967C573.693 717.764 579.046 717.919 583.779 718.036C585.797 718.074 588.474 718.152 589.715 718.036C592.159 715.436 596.776 713.884 603.138 711.789C604.845 711.208 606.669 710.626 608.57 709.927C611.052 708.919 611.673 707.173 612.527 703.914C613.186 701.547 613.885 698.871 616.096 696.814L616.678 696.271L617.454 696.039C619.587 695.34 621.682 694.72 623.661 694.138C626.687 693.245 630.605 692.043 632.39 691.112L631.614 689.443L634.33 687.698C635.804 686.766 637.395 685.719 639.063 684.633C643.485 681.762 648.49 678.503 653.339 675.671C654.038 672.839 656.947 670.899 658.926 669.58C659.818 668.998 661.254 668.028 661.719 667.446L661.409 665.158L663.814 663.994C667.267 662.325 669.129 660.735 671.263 658.911C674.017 656.584 677.121 653.946 683.639 651.308C683.794 650.687 683.988 650.027 684.182 649.329C685.19 645.721 686.432 641.26 685.733 638.466L685.539 637.729L685.656 636.992C686.393 632.647 690.195 629.737 693.919 626.905C696.053 625.276 698.226 623.608 699.583 621.862L700.553 620.427C703.89 615.538 707.692 609.991 712.269 604.986C714.752 602.038 715.645 599.283 716.653 596.063C717.158 594.434 717.701 592.765 718.477 590.981C718.477 589.739 718.322 588.304 718.128 586.83C717.623 582.407 717.002 576.937 720.184 571.932C721.774 565.842 726.895 559.789 732.598 553.66C732.986 551.953 733.064 550.246 733.141 548.5C733.258 545.125 733.413 541.323 735.779 537.094C736.323 535.581 737.06 534.107 737.797 532.672C740.396 527.512 740.978 525.611 738.068 523.05L735.236 520.529L737.874 517.774C742.452 512.964 742.297 508.308 741.599 502.217L741.443 500.859L742.219 499.734C745.983 494.264 747.573 488.872 746.836 483.789C746.526 482.548 745.129 480.763 743.926 479.173C741.56 476.147 738.883 472.694 739.504 468.504C739.698 467.146 740.241 465.905 741.133 464.741C737.331 460.086 738.301 455.197 738.961 451.745C739.31 449.999 739.581 448.486 739.387 447.205C738.65 445.498 737.797 443.791 736.943 441.968C734.81 437.545 732.559 432.968 731.628 428.351L731.512 427.769L731.589 427.187C731.783 425.674 731.202 423.928 730.581 422.066C729.572 419.079 728.292 415.199 730.076 411.087C723.83 405.035 724.451 398.362 724.917 393.358C724.917 393.164 724.917 392.97 724.955 392.776C723.598 390.564 720.688 388.431 717.662 386.18C714.83 384.047 711.882 381.874 709.554 379.197L707.148 376.443L709.903 374.038C713.278 371.128 712.425 368.839 709.127 363.097L708.855 362.632C699.118 356.58 699.816 348.277 701.019 343.428C696.053 339.161 693.105 335.747 691.63 330.975C690.893 330.432 690.156 329.888 689.419 329.384C684.531 325.893 679.138 322.013 678.712 317.164C672.931 314.254 670.681 310.491 669.827 307.698C669.051 305.176 669.09 302.499 669.827 299.9C667.849 299.24 666.025 298.658 664.357 298.154C656.909 295.787 651.516 294.08 647.442 290.783C642.632 287.252 642.322 283.024 642.128 280.192C642.089 279.493 642.011 278.873 641.934 278.329C634.524 275.808 632.312 273.713 630.14 271.695C629.209 270.803 628.394 270.066 626.997 269.174C624.165 267.738 620.363 266.419 616.678 265.139C612.1 263.548 607.794 262.035 605 260.251L603.992 259.591L603.565 258.466C602.983 256.953 599.608 252.686 595.573 248.379C592.314 247.138 587.465 245.974 582.732 244.81C578.542 243.802 574.624 242.832 571.753 241.823C569.93 241.125 569.503 241.241 568.339 241.552C566.283 242.095 564.149 242.483 560.269 241.552C554.14 240.582 550.066 238.913 546.42 237.439C543.277 236.159 540.561 235.073 536.876 234.53L532.492 233.87L533.19 231.891C530.707 230.534 525.16 228.245 518.875 227.702C514.918 227.236 512.357 227.469 509.68 227.702C507.353 227.896 504.947 228.128 501.689 227.896C499.632 227.702 497.848 227.391 495.947 227.042C492.96 226.499 489.856 225.956 485.899 225.956C481.942 225.956 479.42 227.042 476.316 228.284C473.174 229.564 469.644 230.999 464.755 231.232C462.389 231.426 460.488 231.154 458.432 230.805C455.677 230.378 452.574 229.874 446.405 230.34C444.349 230.766 442.254 230.728 440.043 230.689C437.521 230.65 434.961 230.611 432.09 231.232L431.702 231.31C426.503 231.853 425.262 233.288 423.516 235.228C421.693 237.323 419.404 239.922 413.662 240.97C410.015 241.901 405.593 241.745 401.674 241.59C399.851 241.513 397.446 241.435 396.32 241.59L396.088 241.901L394.924 242.289C389.143 244.151 383.324 248.302 382.354 249.893L382.238 250.358L381.85 250.94C379.949 253.617 376.263 254.121 370.716 254.897C367.379 255.363 363.655 255.867 359.853 256.914C356.982 260.6 350.426 266.613 344.257 269.911C342.317 271.036 340.572 271.851 339.059 272.588C336.265 273.907 334.597 274.722 332.89 276.661L332.269 277.36L331.377 277.67C325.868 279.649 325.441 281.705 324.821 284.769C324.549 286.205 324.2 287.796 323.385 289.386L322.803 290.511L321.64 291.016C312.911 294.856 306.199 300.404 303.6 304.012C302.552 305.641 301.156 307.077 299.759 308.473C298.712 309.56 296.733 311.499 296.578 312.314C296.578 312.314 296.655 312.431 296.849 312.625L299.837 315.728L296.267 318.172C291.845 321.198 288.47 324.496 284.9 327.987C283.387 329.462 281.836 330.975 280.206 332.449C278.771 334.699 276.909 336.522 275.24 338.113C273.184 340.092 271.438 341.799 271.012 343.661C269.964 351.342 266.473 357.317 260.459 361.895C261.429 366.007 257.899 369.537 256.153 371.283C255.338 372.098 253.631 373.805 253.593 374.425L253.709 374.852V375.279C253.787 379.934 250.722 384.473 247.773 388.857C246.415 390.875 245.135 392.814 244.282 394.521C244.32 396.267 244.204 397.897 244.088 399.448C243.816 403.056 243.622 405.927 245.213 409.031L246.765 412.018L243.894 413.803C238.695 417.062 238.346 419.35 237.842 422.842C237.57 424.627 237.299 426.644 236.406 428.855L236.135 429.36C235.087 431.144 234.35 433.006 233.574 434.946C232.061 438.826 230.393 443.171 225.776 447.477C225.35 452.559 225.039 458.262 226.125 463.422C226.513 464.275 226.94 465.129 227.367 466.021C229.889 471.065 233.264 477.815 227.91 484.449C227.91 489.57 228.453 493.527 235.669 498.221L239.549 500.743L236.212 503.924C233.768 506.252 232.915 508.657 231.906 511.412C230.975 513.933 230.005 516.688 227.832 519.442C231.673 522.391 233.807 525.572 234.389 529.102C234.971 532.672 233.807 536.318 230.897 539.887C231.091 541.75 232.139 543.767 233.186 545.94C234.389 548.267 235.669 550.905 236.135 553.776C243.506 559.13 244.437 565.143 245.174 569.993C245.29 570.885 245.446 571.738 245.601 572.553C247.618 575.191 248.394 577.752 249.015 579.808C249.907 582.756 250.528 584.851 254.485 587.489L255.649 588.265L255.998 589.623C256.929 593.192 255.571 596.723 254.33 599.826C253.011 603.163 252.312 605.258 253.321 606.615C254.252 607.934 255.028 609.176 255.804 610.379C258.364 614.413 260.576 617.944 266.085 621.552L267.559 622.521L267.714 624.267C268.18 625.315 272.447 627.138 275.008 628.186C278.383 629.621 282.223 631.212 285.172 633.501L285.793 633.966L286.142 634.626C288.857 639.63 289.362 646.652 288.392 651.967C289.672 652.51 290.914 653.015 292.116 653.519C299.41 656.545 304.647 658.717 308.566 662.636L309.885 663.994L309.574 665.856C309.38 667.02 311.63 669.309 313.299 670.977C314.307 671.985 315.355 673.033 316.286 674.197C326.062 677.999 332.619 681.801 336.925 686.107L339.563 688.706L337.158 691.073C337.817 692.237 340.261 694.332 341.503 695.379C342.317 696.077 343.132 696.776 343.83 697.435C349.921 699.996 352.715 703.565 354.771 706.203C355.624 707.289 356.361 708.259 357.215 708.957C359.892 709.966 363.267 710.742 366.293 711.402C371.724 712.643 375.177 713.419 376.729 715.63C381.307 717.104 385.419 718.811 389.066 720.324C391.665 721.411 394.109 722.419 396.398 723.195L398.997 724.088V724.825C401.247 725.445 405.903 726.105 409.744 726.648C412.149 726.997 414.709 727.346 417.27 727.734L420.606 728.277L420.451 730.566C421.227 730.916 423.012 731.497 426.891 732.196C428.909 732.467 430.654 732.7 432.206 732.933C437.637 733.709 440.935 734.174 451.41 734.873H452.186L452.884 735.299C453.582 735.571 457.035 736.231 458.859 736.58C461.031 737.006 462.466 737.278 463.475 737.588L463.63 737.666Z" fill="#191718"/>
</g>
<g opacity="0.1">
<path d="M501.261 778.787C499.981 778.787 498.584 778.787 497.576 778.787C493.774 778.71 491.95 778.671 490.825 778.361C485.239 777.817 480.157 775.334 476.393 773.472C474.803 772.696 472.979 771.804 472.126 771.61C469.915 771.416 467.703 771.765 465.182 772.231C461.845 772.813 458.043 773.472 453.388 772.852C441.594 771.92 436.861 769.438 433.719 767.769C433.175 767.498 432.71 767.226 432.206 766.993C429.645 766.412 427.434 766.256 424.834 766.101C421.653 765.868 418.045 765.636 412.963 764.588L412.304 764.394C410.519 763.657 407.803 763.075 405.204 762.493C401.635 761.717 397.949 760.903 395.078 759.506C389.531 757.838 385.457 753.881 381.849 750.428C379.754 748.372 377.737 746.471 376.03 745.617L373.663 744.453C372.655 744.376 371.413 744.298 370.405 744.259C365.594 744.027 360.163 743.716 356.555 741.776L355.895 741.427L355.43 740.845C354.693 739.876 353.218 738.363 351.705 736.772C348.408 733.319 345.808 730.526 344.334 728.237C341.425 727.112 338.709 726.375 336.071 725.638C331.803 724.435 327.769 723.31 323.54 720.866C318.768 717.84 318.186 714.348 317.721 711.827C317.488 710.391 317.333 709.615 316.712 708.8C308.798 706.318 303.909 702.826 302.164 698.403C301.388 696.464 301.271 694.369 301.776 692.351C295.724 688.084 289.478 682.652 284.783 678.579L281.137 675.398L283.193 673.342C282.029 672.76 280.361 672.061 278.964 671.479C276.248 670.354 273.184 669.113 270.274 667.367L269.886 667.095C265.308 663.565 265.231 659.414 265.192 656.66C265.192 654.177 265.153 653.052 262.864 651.422L261.778 650.646L261.429 649.366C261.079 648.086 260.885 646.767 260.653 645.37C259.877 640.637 259.101 636.176 254.096 632.762L252.157 631.443L252.544 629.115C252.894 627.214 249.286 623.878 246.415 621.201C244.63 619.571 242.807 617.864 241.255 616.041L239.858 614.411L240.557 612.394C240.983 611.23 240.402 609.911 239.47 607.816C238.345 605.295 236.677 601.687 238.19 597.691C237.531 596.76 236.716 595.79 235.901 594.859C233.224 591.677 230.16 588.031 230.586 583.647C230.703 582.561 231.013 581.513 231.517 580.543C224.651 575.151 222.517 568.361 225 559.865L225.116 559.4L225.349 558.973C227.948 554.667 227.172 549.778 226.358 544.58C226.241 543.882 226.125 543.183 226.047 542.485L225.931 541.67L226.164 540.894C226.552 539.614 225.698 537.752 224.806 535.773C223.409 532.67 221.392 528.208 223.875 523.708C223.215 523.01 222.517 522.35 221.78 521.613C217.163 517.074 210.258 510.207 216.038 502.953C217.629 500.082 218.987 495.504 213.633 488.133L211.926 485.766L213.866 483.555C214.525 482.818 215.223 482.081 215.883 481.344C218.405 478.628 221.237 475.524 221.043 473.662C220.926 472.498 219.374 471.257 218.443 470.597L215.107 468.231L217.823 465.166C218.909 463.963 218.793 462.877 217.861 459.579C216.969 456.321 215.534 451.161 219.918 446.622C219.607 444.022 220.228 441.578 220.771 439.561C221.702 435.992 221.974 434.479 219.801 432.423L216.969 429.746L219.84 427.069C222.129 424.935 227.483 419.969 227.599 416.594C227.599 415.973 227.483 415.042 226.202 413.723L224.534 412.016L225.427 409.805C226.59 406.857 228.802 404.102 230.935 401.425C232.953 398.904 235.203 396.071 235.707 394.015C230.47 386.567 235.125 379.118 238.578 373.57L238.889 373.027L239.432 372.523C243.971 368.876 247.074 365.85 250.333 362.63C251.613 361.388 252.894 360.108 254.329 358.789C253.67 351.922 260.691 346.763 266.511 343.232C265.812 339.818 267.132 336.598 268.14 334.038C268.838 332.292 269.576 330.507 269.343 329.46L268.8 326.822L274.813 323.447C281.525 319.722 285.947 317.239 291.573 313.282C292.736 312.506 292.853 311.924 292.465 308.743C291.999 304.98 291.262 298.734 299.564 295.165C303.095 293.147 305.345 291.13 307.75 288.958C309.923 287.018 312.134 285 315.238 283.061C315.509 277.358 320.242 274.759 329.747 271.732C333.549 269.444 335.877 267.62 338.36 265.719C339.562 264.788 340.765 263.857 342.2 262.848C345.071 257.456 349.959 253.382 356.749 250.705C359.697 249.037 363.654 247.99 367.495 246.942C370.172 246.244 374.168 245.158 375.021 244.382L375.642 243.839C378.668 241.084 384.216 236.118 395.777 233.635C397.523 231.89 400.859 231.385 407.687 230.493C409.743 230.221 411.993 229.911 413.933 229.601C415.019 227.467 417.812 227.273 424.796 226.807C427.24 226.652 430.188 226.458 433.602 226.148C436.783 221.919 447.568 220.212 450.362 219.863C453.504 219.165 456.841 218.893 460.371 218.622C462.233 218.467 464.134 218.35 466.035 218.117C469.022 217.729 473.445 217.807 479.07 217.885C483.105 217.962 487.683 218.04 492.765 217.923C493.541 217.846 494.239 218.001 494.821 218.117C496.024 218.389 498.817 219.01 505.49 219.165C512.085 219.32 514.064 217.768 515.499 216.682C516.624 215.828 518.37 214.548 520.93 214.936C523.84 215.13 526.75 215.246 529.582 215.402C536.798 215.79 543.664 216.139 548.979 216.915L552.82 217.458L552.51 219.048C554.411 219.824 558.407 220.988 565.273 221.842C570.627 222.656 573.459 224.131 576.214 225.527C578.852 226.885 581.335 228.165 586.611 229.019L587.27 229.213C589.094 229.872 590.49 230.028 591.693 230.183C593.09 230.338 595.146 230.571 596.581 232.045C605.116 233.519 608.065 236.39 610.664 238.912C612.836 241.007 614.543 242.675 620.557 243.8L629.984 245.507L628.316 246.516C630.333 246.981 631.885 247.757 632.661 249.425C633.126 249.58 633.631 249.774 634.096 249.93C642.166 252.839 651.36 256.098 655.705 259.396L656.093 259.745C659.818 263.508 663.93 267.853 666.102 271.965C666.801 272.935 667.421 273.983 668.12 275.069C670.176 278.405 672.465 282.207 677.469 284.923L678.09 285.272L678.556 285.815C679.875 287.406 682.784 289.229 685.578 291.014C688.759 293.031 692.095 295.087 694.384 297.57C698.574 300.402 699.932 303.661 701.057 306.26C701.988 308.472 702.686 310.062 704.898 311.692C715.062 316.774 721.463 320.227 724.489 326.123L725.227 327.598L724.645 329.111C723.636 331.749 724.257 335.706 724.839 339.547C725.033 340.827 725.227 342.068 725.343 343.232C731.822 348.625 738.339 354.25 740.783 360.186L741.559 362.048L740.395 363.677C739.348 365.152 739.503 366.044 743.46 370.661C744.43 371.824 745.439 372.988 746.409 374.268C749.668 376.829 751.918 379.157 754.129 381.407C756.845 384.239 759.444 386.877 763.944 389.942L768.212 392.813L764.099 395.916C757.931 400.572 755.254 406.779 757.659 411.085L757.97 411.667L758.086 412.327C758.319 413.917 760.491 416.284 762.392 418.34C765.729 421.948 769.492 426.06 768.483 431.22L768.367 431.802L768.057 432.306C766 435.914 769.414 440.337 774.807 446.622L775.544 447.514L775.699 448.717C776.048 452.363 775.583 455.739 775.078 458.959C774.652 461.713 774.264 464.351 774.458 466.95V467.183V467.416C774.38 468.774 775.583 470.791 776.747 472.77C778.764 476.145 781.674 481.033 779.036 486.038C782.682 492.943 779.928 499.733 777.367 505.125C779.424 511.643 776.785 517.772 773.953 523.281C777.6 529.372 777.755 535.502 777.911 540.972L778.027 544.502L776.242 545.627C772.285 548.11 772.246 549.934 772.208 553.309C772.208 555.598 772.13 558.546 770.423 561.495C773.139 566.848 771.315 572.357 769.958 576.547C769.453 578.06 768.988 579.534 768.716 580.854L768.444 582.289L767.242 583.142C762.509 586.479 761.073 589.621 759.405 593.268C758.668 594.859 757.931 596.488 756.883 598.195C758.784 603.161 759.172 610.842 749.008 617.981C747.301 623.606 745.361 627.292 742.296 632.257L741.908 632.878L741.327 633.305C739.387 634.701 739.193 636.02 738.921 638.969C738.611 642.538 738.184 647.232 732.442 650.879C732.481 651.694 732.404 652.392 732.248 652.974C731.201 657.319 726.313 660.035 720.649 663.216C719.834 663.682 719.019 664.147 718.166 664.613C717.933 669.617 712.851 674.234 708.622 678.113C708.234 678.501 707.807 678.85 707.419 679.2C708.273 680.984 708.312 682.691 708.157 683.971C707.536 688.394 703.617 692.662 696.44 696.619C693.996 698.248 692.173 699.839 690.272 701.507C687.634 703.796 684.918 706.162 680.728 708.49C679.72 711.633 675.724 713.068 673.357 713.96C672.387 714.309 670.797 714.891 670.137 715.318L669.904 716.366L668.624 717.18C665.986 718.887 664.24 721.021 662.417 723.31C660.555 725.599 658.654 727.965 655.783 729.905C651.205 732.737 644.028 736.151 634.29 740.108C632.04 745.423 625.018 749.186 622.69 750.311L622.225 750.544L621.721 750.622C607.134 753.182 602.517 755.161 601.043 756.131C600.034 758.808 596.077 760.359 591.926 761.989C590.529 762.532 588.473 763.347 587.736 763.773L587.27 764.433L586.145 764.821C582.46 766.024 577.494 766.256 571.791 766.489C567.989 766.644 564.071 766.799 560.269 767.265C558.911 768.507 556.816 769.632 554.372 770.912C554.023 771.106 553.635 771.3 553.247 771.494L554.76 773.24L548.63 774.52C545.604 775.141 541.647 774.869 536.642 774.52C532.647 774.209 528.224 773.899 523.413 773.977C519.767 778.128 508.399 778.71 504.287 778.787C503.589 778.865 502.386 778.865 501.106 778.865L501.261 778.787ZM470.846 764.161C471.544 764.161 472.281 764.161 473.057 764.278H473.29C475.152 764.627 477.13 765.597 479.652 766.838C483.377 768.662 488.032 770.989 492.649 771.106L492.804 778.438C494.123 778.283 495.713 776.886 495.713 774.869C495.713 772.852 494.162 771.455 492.687 771.261C493.89 771.416 502.425 771.571 503.744 771.416H504.132C504.714 771.416 505.296 771.377 505.839 771.339L489.7 768.235L519.844 766.683C526.439 766.334 532.453 766.799 537.302 767.149C540.755 767.42 543.781 767.614 545.915 767.498C547.04 766.528 548.708 765.636 551.074 764.394C551.967 763.929 553.208 763.269 554.178 762.687L553.596 760.786L557.825 760.166C562.519 759.467 567.368 759.273 571.636 759.079C576.214 758.885 580.52 758.691 583.313 757.993C584.593 757.023 586.494 756.247 589.443 755.083C590.801 754.54 592.818 753.764 593.982 753.144L594.835 752.018C597.047 749.148 602.207 746.587 620.052 743.406C625.212 740.807 627.617 737.819 627.734 736.772L628.005 734.677L629.984 733.901C640.148 729.828 647.519 726.414 651.865 723.698C653.688 722.456 655.123 720.672 656.792 718.616C658.615 716.366 660.671 713.805 663.736 711.594C665.171 709.033 668.314 707.908 670.913 706.938C671.65 706.667 672.736 706.279 673.435 705.93L672.969 704.145L675.607 702.826C680.108 700.576 682.59 698.403 685.5 695.843C687.556 694.058 689.651 692.235 692.522 690.295L692.794 690.14C698.458 687.036 700.708 684.243 700.902 682.846C700.902 682.614 701.018 682.109 700.087 681.217L697.449 678.657L700.01 676.018C701.096 674.893 702.376 673.729 703.695 672.527C705.829 670.587 711.454 665.466 710.795 663.992L709.553 661.082L712.269 659.453C713.859 658.483 715.489 657.591 717.041 656.698C720.028 655.03 724.528 652.508 725.071 651.189C725.071 651.189 724.994 651.073 724.916 650.957L722.55 647.387L726.468 645.642C731.046 643.586 731.24 641.646 731.55 638.193C731.822 635.167 732.21 631.055 736.322 627.718C739.464 622.558 740.861 619.416 742.258 614.567L742.646 613.248L743.809 612.51C752.15 607.118 750.987 602.501 749.396 599.475L748.31 597.458L749.668 595.596C750.948 593.85 751.763 592.027 752.655 590.126C754.401 586.362 756.34 582.134 761.772 577.944C762.082 576.664 762.509 575.422 762.897 574.181C764.449 569.448 765.302 566.422 763.013 563.551L761.035 561.068L763.207 558.779C764.643 557.227 764.72 555.869 764.759 553.154C764.798 549.623 764.875 544.851 770.462 540.584C770.307 535.308 770.074 530.342 766.621 525.648L765.263 523.824L766.311 521.807C769.376 515.988 771.936 511.022 769.919 506.405L769.22 504.854L769.958 503.34C773.061 496.978 774.846 492.517 771.587 488.133L769.802 485.727L771.82 483.516C773.177 482.042 772.945 480.917 770.345 476.572C768.716 473.856 766.893 470.752 767.009 467.222C766.815 463.886 767.281 460.821 767.707 457.872C768.095 455.351 768.444 452.945 768.367 450.54C763.168 444.449 757.388 437.117 761.19 429.435C761.073 427.845 758.784 425.362 756.883 423.306C754.323 420.512 751.646 417.642 750.87 414.15C747.573 407.671 749.629 399.718 755.952 393.278C752.965 390.912 750.831 388.7 748.775 386.567C746.564 384.316 744.508 382.144 741.443 379.816L741.016 379.467L740.706 379.002C739.852 377.799 738.844 376.596 737.835 375.471C734.77 371.902 730.697 367.13 733.18 361.505C730.658 357.276 724.839 352.427 719.64 348.12L718.205 346.918L718.088 345.366C718.011 344.008 717.739 342.379 717.506 340.711C716.886 336.753 716.226 332.37 717.157 328.374C714.713 324.998 709.359 322.205 701.29 318.17L700.785 317.86C696.712 314.95 695.354 311.73 694.268 309.17C693.259 306.842 692.561 305.174 689.962 303.467L689.535 303.195L689.186 302.808C687.556 300.945 684.53 299.044 681.621 297.221C678.439 295.204 675.413 293.303 673.318 291.053C666.995 287.445 664.007 282.518 661.796 278.91C661.175 277.862 660.555 276.892 659.973 276.116L659.662 275.573C657.917 272.12 653.688 267.775 651.05 265.098C647.481 262.499 638.674 259.357 631.613 256.835C630.256 256.331 628.937 255.865 627.695 255.438L622.031 253.382L622.419 253.033C619.587 252.645 617.143 252.18 616.056 250.317C610.198 248.727 607.754 246.36 605.543 244.188C603.293 241.976 601.314 240.075 593.866 239.067L591.538 238.756L591.15 237.515C591.15 237.515 590.956 237.515 590.878 237.515C589.521 237.36 587.542 237.166 585.02 236.274C578.891 235.187 575.671 233.558 572.839 232.122C570.394 230.881 568.299 229.795 564.226 229.174C558.911 228.476 549.872 226.924 546.419 224.014C541.647 223.432 535.595 223.122 529.194 222.773C526.245 222.618 523.258 222.462 520.271 222.268C520.154 222.346 520.038 222.462 519.883 222.579C517.245 224.557 513.753 226.691 505.335 226.536C497.925 226.381 494.627 225.644 493.231 225.333H493.153C487.877 225.411 483.144 225.333 478.993 225.256C473.678 225.178 469.488 225.101 467.005 225.45C464.949 225.682 462.931 225.838 460.992 225.993C457.655 226.264 454.552 226.497 451.914 227.118L451.564 227.195C448.926 227.545 446.482 228.088 444.465 228.67L452.146 231.89L437.559 233.248C432.593 233.713 428.559 233.985 425.339 234.179C425.261 234.179 425.184 234.179 425.067 234.179L419.248 235.963C416.455 236.817 412.498 237.321 408.696 237.825C406.872 238.058 404.428 238.368 402.644 238.718L402.993 239.804L398.842 240.58C388.173 242.558 383.595 246.671 380.608 249.386L379.987 249.93C377.853 251.869 373.935 252.917 369.435 254.158C366.098 255.05 362.335 256.059 360.201 257.301L359.658 257.572C354.149 259.667 350.347 262.81 348.408 266.961L347.981 267.814L347.205 268.357C345.576 269.521 344.218 270.569 342.86 271.577C340.261 273.595 337.545 275.69 333.161 278.289L332.812 278.522L332.424 278.638C322.298 281.858 322.415 282.906 322.686 284.651L323.036 287.173L320.785 288.376C317.371 290.238 315.121 292.255 312.716 294.428C310.194 296.678 307.362 299.277 303.017 301.721L302.629 301.915C299.254 303.312 299.37 304.398 299.797 307.967C300.185 311.187 300.767 316.037 295.801 319.412C289.904 323.563 285.094 326.24 278.421 329.964L276.714 330.934C276.52 333.068 275.705 335.046 275.007 336.87C273.727 340.012 273.3 341.525 274.153 342.805L276.404 346.064L272.99 348.043C264.261 353.125 260.924 356.384 261.817 358.906L262.631 361.194L260.847 362.824C258.868 364.647 257.161 366.315 255.493 367.984C252.195 371.204 249.092 374.268 244.553 377.954C240.712 384.161 239.432 387.265 242.264 390.601L243.078 391.532L243.156 392.774C243.466 397.662 240.052 401.968 236.716 406.119C235.436 407.71 234.117 409.378 233.224 410.891C234.427 412.753 235.048 414.81 234.97 416.943C234.854 421.87 231.285 426.332 227.328 430.25C229.772 434.401 228.685 438.591 227.948 441.54C227.405 443.596 226.978 445.38 227.483 446.855L228.453 449.454L226.241 451.083C223.797 452.868 223.991 454.032 225.039 457.834C225.737 460.394 226.668 463.692 225.388 467.028C227.172 468.89 228.22 470.908 228.453 473.08C228.996 478.24 225.116 482.469 221.392 486.503C221.392 486.503 221.392 486.503 221.392 486.542C226.784 495.543 225 502.603 222.401 507.104L222.051 507.608C220.577 509.354 221.586 511.138 227.134 516.647C228.685 518.16 230.276 519.751 231.634 521.419L233.768 524.018L231.401 526.385C229.694 528.053 229.927 529.139 231.711 533.058C232.875 535.657 234.349 538.877 233.651 542.407C233.729 542.834 233.806 543.3 233.845 543.726C234.776 549.546 235.824 556.141 232.138 562.581C230.935 566.926 230.625 571.892 239.005 576.896L243.505 579.573L239.47 582.871C239.005 583.259 238.229 583.957 238.151 584.578C238.035 585.897 240.208 588.496 241.798 590.397C243.311 592.221 244.902 594.083 245.91 596.1L246.88 598.001L245.678 599.786C244.785 601.105 245.018 601.997 246.376 604.984C247.307 607.04 248.51 609.678 248.238 612.704C249.286 613.791 250.488 614.916 251.652 615.963C255.609 619.61 259.683 623.373 260.11 628.067C266.278 633.111 267.325 639.512 268.14 644.323C268.257 645.099 268.373 645.836 268.528 646.495C272.679 650.064 272.718 654.021 272.757 656.698C272.757 658.987 272.796 659.996 274.425 661.276C276.869 662.673 279.585 663.798 281.99 664.807C286.878 666.824 290.758 668.415 291.456 672.061C291.573 672.721 291.611 673.574 291.379 674.505C296.383 678.85 302.707 684.243 308.487 687.967L311.436 689.868L309.651 692.894C308.681 694.485 309.069 695.455 309.224 695.804C309.651 696.89 311.552 699.645 320.01 702.166L320.863 702.399L321.523 703.02C324.355 705.736 324.859 708.568 325.208 710.663C325.557 712.641 325.674 713.495 327.575 714.697C330.872 716.598 334.286 717.568 338.282 718.693C341.308 719.547 344.722 720.517 348.485 722.03L349.843 722.573L350.464 723.892C351.24 725.56 354.848 729.362 357.214 731.845C358.65 733.319 359.891 734.638 360.861 735.763C363.227 736.694 367.728 736.927 371.064 737.121C376.301 737.393 379.444 737.548 380.996 739.992C380.996 739.992 380.996 740.031 381.035 740.07C383.207 741.427 385.147 743.367 387.242 745.346C390.462 748.449 393.759 751.631 397.717 752.756L398.415 753.027C400.432 754.075 403.807 754.812 407.027 755.51C409.782 756.131 412.653 756.751 414.98 757.644C419.442 758.536 422.546 758.73 425.572 758.963C428.442 759.157 431.197 759.351 434.456 760.127L435.038 760.321C435.814 760.631 436.551 761.019 437.365 761.446C440.159 762.92 443.961 764.898 454.319 765.713H454.552C458.121 766.218 461.069 765.713 464.173 765.17C466.384 764.782 468.673 764.394 471.078 764.394L470.846 764.161Z" fill="#191718"/>
</g>
</g>
<path style="mix-blend-mode:screen" opacity="0.45" fill-rule="evenodd" clip-rule="evenodd" d="M500 0C223.922 0 0 223.769 0 500C0 776.232 223.922 1000 500 1000C776.078 1000 1000 776.079 1000 500C1000 223.922 776.231 0 500 0ZM500 980.576C234.628 980.576 19.4249 765.372 19.4249 500C19.4249 234.629 234.628 19.4249 500 19.4249C765.372 19.4249 980.575 234.629 980.575 500C980.575 765.372 765.372 980.576 500 980.576Z" fill="url(#paint2_linear_548_25063)"/>
</g>
<defs>
<radialGradient id="paint0_radial_548_25063" cx="0" cy="0" r="1" gradientUnits="userSpaceOnUse" gradientTransform="translate(500.006 500.005) scale(400 400)">
<stop stop-color="white"/>
<stop offset="1"/>
</radialGradient>
<radialGradient id="paint1_radial_548_25063" cx="0" cy="0" r="1" gradientUnits="userSpaceOnUse" gradientTransform="translate(328.384 327.519) scale(566.373 566.373)">
<stop offset="0.12" stop-color="#F9F9FB"/>
<stop offset="0.19" stop-color="#EBEBED"/>
<stop offset="0.3" stop-color="#DDDCDF"/>
<stop offset="0.49" stop-color="#B3ADB0"/>
<stop offset="0.53" stop-color="#AAA4A6"/>
<stop offset="0.82" stop-color="#474143"/>
</radialGradient>
<linearGradient id="paint2_linear_548_25063" x1="500" y1="25.2371" x2="500" y2="1048.18" gradientUnits="userSpaceOnUse">
<stop stop-color="#27A2D9"/>
<stop offset="0.19" stop-color="#1D78A1"/>
<stop offset="0.39" stop-color="#124E68"/>
<stop offset="0.59" stop-color="#0A2C3B"/>
<stop offset="0.76" stop-color="#04141A"/>
<stop offset="0.9" stop-color="#010507"/>
<stop offset="1"/>
</linearGradient>
<clipPath id="clip0_548_25063">
<rect width="1000" height="1000" fill="white"/>
</clipPath>
<clipPath id="clip1_548_25063">
<rect width="575.994" height="573.278" fill="white" transform="translate(212.004 213.076)"/>
</clipPath>
</defs>
</svg>
