<svg width="1000" height="1000" viewBox="0 0 1000 1000" fill="none" xmlns="http://www.w3.org/2000/svg">
<g clip-path="url(#clip0_548_25698)">
<g clip-path="url(#clip1_548_25698)">
<path style="mix-blend-mode:screen" d="M465.731 842.62C667.719 842.62 831.463 678.876 831.463 476.888C831.463 274.9 667.719 111.157 465.731 111.157C263.744 111.157 100 274.9 100 476.888C100 678.876 263.744 842.62 465.731 842.62Z" fill="url(#paint0_radial_548_25698)"/>
<path style="mix-blend-mode:screen" d="M434.538 777.375C603.61 777.375 740.669 640.315 740.669 471.243C740.669 302.172 603.61 165.112 434.538 165.112C265.466 165.112 128.406 302.172 128.406 471.243C128.406 640.315 265.466 777.375 434.538 777.375Z" fill="url(#paint1_radial_548_25698)"/>
<path style="mix-blend-mode:screen" d="M465.731 788.444C637.799 788.444 777.287 648.956 777.287 476.888C777.287 304.821 637.799 165.333 465.731 165.333C293.664 165.333 154.176 304.821 154.176 476.888C154.176 648.956 293.664 788.444 465.731 788.444Z" fill="url(#paint2_radial_548_25698)"/>
<path fill-rule="evenodd" clip-rule="evenodd" d="M740.78 350.322C740.78 350.322 651.029 251.697 531.513 213.88C531.513 213.88 317.186 251.176 266.333 337.327C215.481 423.47 186.625 576.398 266.333 670.318C346.042 764.237 435.209 794.428 545.235 775.97C655.261 757.503 683.509 717.878 683.509 717.878C683.509 717.878 689.462 666.062 736.469 656.77C736.469 656.77 801.738 468.054 740.788 350.33L740.78 350.322Z" fill="url(#paint3_radial_548_25698)"/>
<path fill-rule="evenodd" clip-rule="evenodd" d="M746.283 500.21C746.283 524.432 742.872 547.912 736.446 570.082C723.656 614.657 698.865 654.172 665.777 684.931C642.123 706.99 614.206 724.557 583.455 736.218C555.593 746.789 525.465 752.537 493.854 752.537C489.417 752.537 484.869 752.482 480.44 752.197H480.385C473.792 751.858 467.255 751.234 460.773 750.437C412.053 744.065 367.761 723.775 331.886 693.64C318.409 682.381 306.132 669.702 295.332 655.885C287.145 645.48 279.7 634.45 273.218 622.797C271.686 620.01 270.202 617.168 268.67 614.381C268.67 614.27 268.67 614.207 268.615 614.097C267.02 611.081 265.599 608.01 264.241 604.946H264.186C259.804 595.283 255.943 585.335 252.872 575.095C250.543 567.761 248.554 560.197 246.959 552.523C246.904 552.468 246.904 552.349 246.904 552.294C245.822 546.894 244.859 541.494 244.117 535.975C242.411 524.267 241.559 512.321 241.559 500.21C241.559 493.215 241.788 486.22 242.411 479.399C242.751 475.017 243.264 470.754 243.832 466.435C247.069 441.589 254.009 417.936 264.012 395.932C268.899 385.132 274.584 374.726 280.9 364.778C291.471 348.12 303.93 332.882 317.967 319.239C363.451 275.003 425.482 247.773 493.877 247.773C496.554 247.773 499.222 247.828 501.836 247.884C504.678 247.994 507.465 248.113 510.307 248.278C513.149 248.452 515.991 248.673 518.778 249.021C530.321 250.158 541.635 252.037 552.664 254.705C560.622 256.639 568.47 258.858 576.144 261.526C581.378 263.287 586.494 265.221 591.547 267.385C595.297 268.979 598.992 270.622 602.695 272.39C603.319 272.674 603.943 272.958 604.629 273.298C609.69 275.745 614.632 278.414 619.472 281.201C638.176 291.891 655.292 304.965 670.64 319.974C673.372 322.642 676.04 325.374 678.717 328.216C680.477 330.15 682.238 332.085 683.951 334.074C686.849 337.374 689.691 340.84 692.478 344.306C702.544 357.096 711.355 370.857 718.8 385.416C727.445 402.359 734.267 420.438 738.925 439.371C743.756 458.872 746.314 479.17 746.314 500.202L746.283 500.21Z" fill="url(#paint4_radial_548_25698)"/>
<path fill-rule="evenodd" clip-rule="evenodd" d="M720.372 419.996C695.139 378.966 618.375 369.539 593.687 392.766C571.66 413.491 591.714 476.091 614.57 515.858C614.57 515.858 545.235 413.633 590.995 372.578C636.755 331.532 730.335 384.018 749.497 416.317C768.658 448.616 761.963 510.024 749.497 531.814C737.03 553.605 711.585 551.165 711.585 551.165C711.585 551.165 771.982 503.889 720.372 419.996Z" fill="url(#paint5_radial_548_25698)"/>
<path style="mix-blend-mode:multiply" opacity="0.71" fill-rule="evenodd" clip-rule="evenodd" d="M253.717 422.389C253.717 422.389 291.945 376.013 320.13 382.471C348.316 388.937 334.286 439.118 334.286 439.118L362.637 357.531C362.637 357.531 310.759 336.427 293.634 346.162C293.634 346.162 266.309 383.987 253.717 422.389Z" fill="url(#paint6_linear_548_25698)"/>
<path fill-rule="evenodd" clip-rule="evenodd" d="M371.568 698.755C371.568 698.755 364.454 708.924 371.568 724.13C378.681 739.336 410.001 762.919 480.298 767.916C556.486 773.324 596.182 726.799 596.719 718.146C597.256 709.493 573.176 701.771 573.176 701.771C573.176 701.771 600.177 702.719 606.525 718.248C612.873 733.786 561.389 787.788 475.585 780.217C389.781 772.645 347.385 721.667 347.89 708.04C348.395 694.413 371.568 698.748 371.568 698.748V698.755Z" fill="url(#paint7_linear_548_25698)"/>
<path fill-rule="evenodd" clip-rule="evenodd" d="M320.13 350.701C320.13 350.701 308.019 342.554 293.634 346.162C274.315 351.001 250.227 393.603 247.709 426.668C245.522 455.272 255.872 478.23 261.928 481.602C267.983 484.965 286.134 481.602 286.134 481.602C286.134 481.602 269.404 493.713 245.474 485.304C221.544 476.896 233.063 406.235 245.474 375.95C257.885 345.664 296.579 326.148 306.337 328.169C316.096 330.19 320.13 350.709 320.13 350.709V350.701Z" fill="url(#paint8_linear_548_25698)"/>
<path fill-rule="evenodd" clip-rule="evenodd" d="M567.775 566.387C561.72 558.31 527.06 549.87 527.06 549.87L509.383 569.419C496.435 573.121 487.356 613.836 498.457 622.916C509.557 632.003 553.643 629.982 560.37 612.818C567.096 595.654 573.831 574.456 567.775 566.387ZM514.61 612.486C504.852 602.728 509.786 576.722 521.005 575.474C536.148 573.792 545.077 577.827 548.259 591.627C551.448 605.42 524.368 622.245 514.61 612.486Z" fill="url(#paint9_linear_548_25698)"/>
<path fill-rule="evenodd" clip-rule="evenodd" d="M301.127 675.631C307.009 678.955 327.891 674.439 327.891 674.439L330.465 657.259C335.944 651.298 326.888 623.342 318.038 620.808C309.188 618.273 286.947 631.979 289.252 644.58C291.566 657.18 295.237 672.299 301.119 675.631H301.127ZM313.175 631.876C321.551 635.208 327.788 652.822 322.38 656.762C315.077 662.083 309.069 662.091 302.737 654.385C296.413 646.68 304.798 628.545 313.175 631.876Z" fill="url(#paint10_linear_548_25698)"/>
<path style="mix-blend-mode:multiply" opacity="0.71" fill-rule="evenodd" clip-rule="evenodd" d="M734.764 449.595C734.764 449.595 691.602 409.543 642.052 411.091C592.495 412.638 585.966 467.233 605.032 497.51C624.099 527.78 548.527 473.943 548.527 473.943V357.53C548.527 357.53 640.165 348.514 688.87 370.526C737.575 392.529 734.772 449.603 734.772 449.603L734.764 449.595Z" fill="url(#paint11_linear_548_25698)"/>
<path style="mix-blend-mode:multiply" opacity="0.71" fill-rule="evenodd" clip-rule="evenodd" d="M584.591 277.056C577.652 286.775 587.489 321.458 587.489 321.458L509.367 284.335L518.747 249.028C530.289 250.165 541.603 252.044 552.632 254.713C560.59 256.647 568.438 258.866 576.112 261.534C581.347 263.295 586.463 265.229 591.515 267.392C595.266 268.987 598.96 270.629 602.663 272.398C603.287 272.682 603.911 272.966 604.598 273.306C609.658 275.753 614.601 278.422 619.44 281.209C607.045 276.432 589.021 270.858 584.591 277.056Z" fill="url(#paint12_linear_548_25698)"/>
<path style="mix-blend-mode:multiply" opacity="0.71" fill-rule="evenodd" clip-rule="evenodd" d="M244.63 539.812C244.63 539.812 253.733 528.743 269.863 533.378C285.992 538.012 289.585 554.157 289.585 554.157L302.714 507.221L248.854 495.481L239.017 504.805L244.63 539.804V539.812Z" fill="url(#paint13_linear_548_25698)"/>
<path style="mix-blend-mode:multiply" opacity="0.71" fill-rule="evenodd" clip-rule="evenodd" d="M505.294 601.157C505.294 601.157 508.941 589.093 531.505 589.053C554.077 589.014 550.754 603.967 550.754 603.967L566.102 575.111L521.329 548.323L480.29 565.787L505.286 601.165L505.294 601.157Z" fill="url(#paint14_linear_548_25698)"/>
<path style="mix-blend-mode:multiply" opacity="0.71" fill-rule="evenodd" clip-rule="evenodd" d="M367.351 723.065C367.351 723.065 381.893 713.369 472.379 707.985C562.864 702.601 598.866 733.076 598.866 733.076L609.185 690.174L428.743 651.969L344.115 676.863L339.149 699.545L367.343 723.065H367.351Z" fill="url(#paint15_linear_548_25698)"/>
<path fill-rule="evenodd" clip-rule="evenodd" d="M265.844 511.445C265.844 511.445 251.285 500.163 235.669 513.561C220.802 526.319 220.866 562.352 231.516 582.201C240.682 599.286 267.502 589.882 267.502 589.882C267.502 589.882 246.106 609.123 229.282 597.343C212.457 585.564 209.094 520.287 223.897 501.781C238.701 483.275 265.844 511.445 265.844 511.445Z" fill="url(#paint16_linear_548_25698)"/>
<path fill-rule="evenodd" clip-rule="evenodd" d="M774.184 430.615C768.855 408.983 761.078 388.313 751.115 368.923C747.917 362.583 744.451 356.401 740.78 350.33C718.776 361.036 684.891 366.152 638.12 342.553C575.362 310.91 544.619 249.431 531.513 213.895C525.276 213.098 518.992 212.458 512.652 212.032C509.399 211.819 506.154 211.661 502.957 211.55C499.972 211.495 496.933 211.44 493.846 211.44C415.582 211.44 344.621 242.554 292.624 293.162C276.534 308.826 262.26 326.242 250.22 345.261C242.972 356.662 236.474 368.544 230.877 380.9C219.421 406.101 211.486 433.165 207.752 461.556C207.112 466.514 206.583 471.409 206.205 476.422C205.462 484.199 205.139 492.189 205.139 500.187C205.139 514.09 206.149 527.732 208.068 541.154C208.92 547.439 210.042 553.62 211.321 559.802C211.321 559.858 211.321 559.96 211.376 560.071C213.184 568.811 215.481 577.495 218.142 585.911C221.655 597.58 226.076 608.981 231.035 620.01H231.145C232.692 623.579 234.343 627.045 236.103 630.503C236.206 630.605 236.261 630.66 236.261 630.826C237.966 634.024 239.672 637.269 241.432 640.419C248.893 653.793 257.365 666.417 266.736 678.299C279.092 694.121 293.106 708.664 308.501 721.509C349.626 755.979 400.242 779.151 456.02 786.454C463.371 787.409 470.887 788.104 478.45 788.475H478.506C483.566 788.791 488.738 788.901 493.846 788.901C530.021 788.901 564.491 782.349 596.403 770.198C628.583 757.945 657.992 740.149 683.509 717.877C670.459 689.803 681.22 635.516 701.407 634.663C711.316 634.237 725.914 643.664 736.461 656.77C751.644 633.329 763.47 607.599 771.358 580.156C778.708 554.797 782.655 527.946 782.655 500.187C782.655 476.162 779.726 452.879 774.184 430.607V430.615ZM240.785 599.23C205.147 590.601 215.529 501.308 241.48 500.187C258.636 499.444 289.584 528.159 289.584 554.157C289.584 580.156 254.633 602.586 240.785 599.23ZM515.778 618.305C494.264 613.015 503.446 578.095 518.289 572.963C532.003 568.226 557.291 579.319 554.322 594.975C550.288 616.307 524.139 620.357 515.778 618.297V618.305ZM307.767 665.936C294.519 662.967 289.119 636.005 298.261 633.132C306.709 630.479 323.541 647.54 321.717 656.32C319.23 668.281 312.922 667.088 307.767 665.928V665.936ZM332.581 443.934C320.699 474.835 260.712 494.81 251.388 484.262C236.364 467.375 233.964 421.291 250.109 384.689C268.647 342.546 293.532 336.261 302.959 335.093C312.385 333.972 355.382 384.689 332.581 443.934ZM461.508 775.361C383.615 770.19 333.434 707.914 362.203 700.879C467.152 675.252 610.306 701.519 606.524 718.249C600.611 744.247 548.717 781.164 461.508 775.361ZM698.691 556.399C616.275 582.556 548.93 407.972 590.545 380.908C633.589 352.833 708.884 381.879 730.982 411.596C749.504 436.513 781.116 530.188 698.699 556.399H698.691Z" fill="url(#paint17_radial_548_25698)"/>
<path style="mix-blend-mode:screen" d="M470.227 500.411C535.807 454.832 557.849 373.105 519.459 317.868C481.069 262.632 396.784 254.804 331.204 300.383C265.624 345.963 243.582 427.69 281.972 482.926C320.362 538.162 404.647 545.99 470.227 500.411Z" fill="url(#paint18_radial_548_25698)"/>
<path fill-rule="evenodd" clip-rule="evenodd" d="M610.953 249.06C610.953 249.06 554.63 222.43 546.237 226.038C537.853 229.646 566.243 304.633 627.999 335.069C694.104 367.652 730.958 345.151 730.958 345.151L717.245 327.166C717.245 327.166 737.937 345.546 740.764 350.33C740.764 350.33 705.133 394.116 620.427 342.561C531.497 288.441 531.497 213.887 531.497 213.887C531.497 213.887 565.177 219.935 610.945 249.068L610.953 249.06Z" fill="url(#paint19_radial_548_25698)"/>
<g style="mix-blend-mode:multiply">
<path fill-rule="evenodd" clip-rule="evenodd" d="M346.453 283.862C345.3 284.817 342.789 286.609 344.779 288.006C345.316 288.385 345.789 288.188 346.358 288.346C346.8 288.472 346.91 288.82 347.432 288.622C349.05 288.006 348.403 283.412 346.579 284.335L346.453 283.862Z" fill="#D1DEFF"/>
<path fill-rule="evenodd" clip-rule="evenodd" d="M286.071 502.397C284.918 503.353 282.407 505.145 284.397 506.542C284.934 506.921 285.408 506.724 285.976 506.882C286.418 507.008 286.529 507.355 287.05 507.158C288.668 506.542 288.021 501.947 286.197 502.871L286.071 502.397Z" fill="#D1DEFF"/>
<path fill-rule="evenodd" clip-rule="evenodd" d="M354.806 300.56C355.54 300.149 356.298 299.936 357.072 299.92C357.245 300.915 358.161 302.865 356.74 303.639C355.548 304.286 355.911 302.155 355.343 301.665L354.806 300.56Z" fill="#D1DEFF"/>
<path fill-rule="evenodd" clip-rule="evenodd" d="M371.1 301.026C372.624 301.626 374.132 302.257 375.624 302.913C376.106 302.486 376.84 302.565 377.409 302.186C378.143 301.705 378.798 300.678 379.082 299.826C379.509 298.539 378.853 297.481 378.261 296.494C377.866 295.839 377.487 294.868 376.887 294.425C376.185 293.904 374.811 294.11 374.077 294.457C373.169 294.891 372.506 295.823 371.898 296.652C371.329 297.433 370.666 298.728 370.642 299.707C370.611 300.765 371.456 301.878 372.229 302.415L371.108 301.01L371.1 301.026Z" fill="#D1DEFF"/>
<path fill-rule="evenodd" clip-rule="evenodd" d="M384.806 612.605C386.33 613.205 387.838 613.836 389.33 614.492C389.812 614.065 390.546 614.144 391.115 613.765C391.849 613.284 392.504 612.257 392.788 611.405C393.215 610.118 392.559 609.06 391.967 608.081C391.573 607.425 391.194 606.454 390.594 606.012C389.891 605.491 388.517 605.697 387.783 606.044C386.875 606.478 386.212 607.41 385.604 608.239C385.035 609.02 384.372 610.315 384.349 611.294C384.317 612.352 385.162 613.465 385.935 614.002L384.814 612.597L384.806 612.605Z" fill="#D1DEFF"/>
<path fill-rule="evenodd" clip-rule="evenodd" d="M700.854 602.073C702.378 602.673 703.886 603.304 705.378 603.959C705.86 603.533 706.594 603.612 707.162 603.233C707.897 602.744 708.552 601.725 708.836 600.873C709.263 599.586 708.607 598.528 708.015 597.541C707.62 596.885 707.241 595.914 706.641 595.472C705.939 594.951 704.565 595.156 703.831 595.504C702.923 595.938 702.26 596.87 701.652 597.699C701.083 598.48 700.42 599.775 700.389 600.754C700.357 601.812 701.202 602.925 701.975 603.462L700.854 602.065V602.073Z" fill="#D1DEFF"/>
<path fill-rule="evenodd" clip-rule="evenodd" d="M327.622 315.639C326.967 316.097 326.438 316.666 326.027 317.353C326.651 318.134 326.959 318.869 328.017 319.176C328.443 319.303 328.893 319.311 329.241 318.971C329.683 318.537 329.446 318.055 329.564 317.629C329.856 316.595 330.141 316.326 329.556 315.379C329.201 314.811 328.956 314.582 328.341 314.582C327.906 314.582 326.967 314.7 326.746 315.189L327.622 315.639Z" fill="#D1DEFF"/>
<path fill-rule="evenodd" clip-rule="evenodd" d="M331.08 339.767C330.97 340.027 329.793 343.011 331.317 342.151C332.083 341.717 331.807 340.548 331.293 340.209C331.317 340.114 331.349 340.011 331.372 339.917L331.08 339.767Z" fill="#D1DEFF"/>
<path fill-rule="evenodd" clip-rule="evenodd" d="M307.696 487.002C307.585 487.27 306.409 490.247 307.932 489.386C308.698 488.952 308.422 487.783 307.909 487.444C307.932 487.349 307.964 487.246 307.988 487.152L307.696 487.002Z" fill="#D1DEFF"/>
<path fill-rule="evenodd" clip-rule="evenodd" d="M384.451 359.583C383.433 360.918 383.307 361.454 382.841 362.836C383.275 363.239 384.128 363.468 384.688 363.444C385.58 363.404 385.62 363.12 385.651 362.268C385.675 361.581 385.959 361.036 385.794 360.373C385.62 359.694 384.949 358.999 384.159 359.433L384.451 359.583Z" fill="#D1DEFF"/>
<path fill-rule="evenodd" clip-rule="evenodd" d="M343.034 318.553C343.618 319.089 343.982 319.753 344.132 320.542C343.318 320.747 343.224 319.95 343.105 319.318C342.916 318.308 343.382 318.624 343.855 317.818C343.942 317.834 344.037 317.858 344.124 317.874L343.034 318.56V318.553Z" fill="#D1DEFF"/>
<path fill-rule="evenodd" clip-rule="evenodd" d="M335.06 286.735C334.412 287.193 333.883 287.754 333.473 288.441C333.86 288.915 333.67 289.775 334.57 289.712C335.202 289.665 335.715 288.993 336.023 288.472C336.378 287.864 336.41 287.383 336.449 286.72C336.473 286.388 336.465 284.959 335.857 285.899L335.06 286.735Z" fill="#D1DEFF"/>
<path fill-rule="evenodd" clip-rule="evenodd" d="M438.201 270.235C438.399 269.501 438.517 268.482 438.896 267.819C439.006 267.629 439.283 267.464 439.417 267.266C439.867 266.619 439.725 266.508 440.459 266.492C441.296 266.469 441.841 266.556 442.504 267.085C444.77 268.893 439.014 270.29 438.801 268.537L438.201 270.235Z" fill="#D1DEFF"/>
<path fill-rule="evenodd" clip-rule="evenodd" d="M457.528 277.38C457.236 278.69 456.399 280.459 457.607 281.327C458.649 282.077 460.836 280.901 461.665 280.143C463.142 278.801 464.926 276.259 463.521 274.387C462.699 273.29 460.378 272.453 459.036 272.58C456.289 272.84 455.491 276.117 455.112 278.738L457.528 277.38Z" fill="#D1DEFF"/>
<path fill-rule="evenodd" clip-rule="evenodd" d="M340.989 352.62C340.697 353.93 339.86 355.699 341.068 356.567C342.11 357.317 344.297 356.141 345.126 355.391C346.603 354.049 348.387 351.507 346.981 349.636C346.16 348.538 343.839 347.701 342.497 347.828C339.75 348.088 338.952 351.365 338.573 353.986L340.989 352.628V352.62Z" fill="#D1DEFF"/>
<path fill-rule="evenodd" clip-rule="evenodd" d="M663.234 584.869C662.942 586.18 662.105 587.948 663.313 588.817C664.355 589.567 666.542 588.391 667.371 587.641C668.848 586.298 670.632 583.756 669.227 581.885C668.405 580.788 666.084 579.951 664.742 580.077C661.995 580.338 661.197 583.614 660.818 586.235L663.234 584.877V584.869Z" fill="#D1DEFF"/>
<path fill-rule="evenodd" clip-rule="evenodd" d="M769.202 538.186C768.91 539.496 768.073 541.265 769.281 542.141C770.323 542.891 772.51 541.715 773.339 540.957C774.808 539.615 776.6 537.073 775.194 535.201C774.373 534.104 772.052 533.267 770.71 533.393C767.963 533.654 767.165 536.93 766.786 539.552L769.202 538.194V538.186Z" fill="#D1DEFF"/>
<path fill-rule="evenodd" clip-rule="evenodd" d="M465.975 250.837C465.683 248.595 465.273 246.376 467.27 245.192C468.36 244.552 470.349 244.323 471.376 245.089C472.118 245.642 472.765 246.668 473.231 247.434C473.918 248.571 473.736 248.571 473.381 249.613C472.56 251.997 471.999 253.568 469.631 253.568C466.497 253.568 466.015 251.137 465.975 248.113V250.837Z" fill="#D1DEFF"/>
<path fill-rule="evenodd" clip-rule="evenodd" d="M494.959 290.312C496.672 289.846 498.149 288.946 499.38 287.628C498.149 286.862 495.448 285.275 494.959 287.588V290.312Z" fill="#D1DEFF"/>
<path fill-rule="evenodd" clip-rule="evenodd" d="M395.339 648.519C397.052 648.054 398.528 647.154 399.76 645.835C398.528 645.069 395.828 643.482 395.339 645.796V648.519Z" fill="#D1DEFF"/>
<path fill-rule="evenodd" clip-rule="evenodd" d="M580.162 687.284C581.875 686.818 583.352 685.918 584.583 684.6C583.352 683.834 580.652 682.247 580.162 684.56V687.284Z" fill="#D1DEFF"/>
<path fill-rule="evenodd" clip-rule="evenodd" d="M517.302 325.019C519.007 322.919 521.478 319.09 524.573 321.19C526.373 322.405 526.886 325.642 525.165 326.921C523.57 328.114 522.11 328.453 520.31 328.943C518.936 329.322 516.891 328.414 517.302 326.377V325.019Z" fill="#D1DEFF"/>
<path fill-rule="evenodd" clip-rule="evenodd" d="M353.716 555.705C355.421 553.605 357.892 549.776 360.987 551.876C362.787 553.099 363.3 556.328 361.579 557.607C359.984 558.8 358.524 559.131 356.724 559.629C355.35 560.008 353.305 559.1 353.716 557.063V555.705Z" fill="#D1DEFF"/>
<path fill-rule="evenodd" clip-rule="evenodd" d="M627.225 662.92C628.931 660.82 631.402 656.991 634.497 659.091C636.297 660.315 636.81 663.544 635.089 664.823C633.494 666.015 632.033 666.354 630.233 666.844C628.86 667.223 626.815 666.315 627.225 664.278V662.92Z" fill="#D1DEFF"/>
<path fill-rule="evenodd" clip-rule="evenodd" d="M397.604 374.955C399.31 372.855 401.781 369.026 404.876 371.126C406.676 372.35 407.189 375.579 405.468 376.858C403.873 378.05 402.412 378.389 400.612 378.879C399.239 379.258 397.194 378.35 397.604 376.313V374.955Z" fill="#D1DEFF"/>
<path fill-rule="evenodd" clip-rule="evenodd" d="M496.372 283.696C498.077 281.596 500.548 277.767 503.643 279.867C505.443 281.09 505.956 284.319 504.235 285.598C502.641 286.791 501.18 287.122 499.38 287.62C498.006 287.999 495.961 287.091 496.372 285.054V283.696Z" fill="#D1DEFF"/>
<path fill-rule="evenodd" clip-rule="evenodd" d="M741.853 396.398C743.559 394.298 746.03 390.469 749.125 392.569C750.925 393.793 751.438 397.022 749.717 398.301C748.122 399.493 746.661 399.832 744.861 400.322C743.488 400.701 741.443 399.793 741.853 397.756V396.398Z" fill="#D1DEFF"/>
<path fill-rule="evenodd" clip-rule="evenodd" d="M484.9 470.051C486.605 467.951 489.077 464.122 492.172 466.222C493.972 467.446 494.485 470.675 492.764 471.954C491.169 473.146 489.708 473.486 487.908 473.975C486.534 474.354 484.49 473.446 484.9 471.409V470.051Z" fill="#D1DEFF"/>
<path fill-rule="evenodd" clip-rule="evenodd" d="M370.28 260.326C364.232 264.163 354.047 268.932 353.021 277.23C352.397 282.243 354.711 285.188 359.235 287.359C363.087 289.207 368.867 289.372 372.735 287.414C378.277 284.62 384.68 280.001 387.167 274.111C388.967 269.856 388.667 266.935 386.67 262.719C385.596 260.453 383.457 257.745 381.025 256.9C373.296 254.216 368.645 261.803 362.929 265.229L370.28 260.334V260.326Z" fill="#D1DEFF"/>
<path fill-rule="evenodd" clip-rule="evenodd" d="M394.628 291.986C395.82 292.412 396.822 293.075 397.644 293.975C396.459 294.378 395.18 295.317 393.964 294.883C392.385 294.323 392.093 292.822 392.449 291.314C392.646 290.493 394.122 289.041 394.967 289.404C395.393 289.585 395.48 290.17 395.615 290.541C395.907 291.322 395.93 291.157 395.504 291.978H394.62L394.628 291.986Z" fill="#D1DEFF"/>
<path fill-rule="evenodd" clip-rule="evenodd" d="M770.899 473.873C772.091 474.291 773.094 474.962 773.915 475.862C772.731 476.265 771.452 477.204 770.236 476.77C768.657 476.209 768.365 474.709 768.72 473.201C768.917 472.38 770.394 470.928 771.239 471.291C771.665 471.472 771.752 472.057 771.886 472.428C772.178 473.209 772.202 473.044 771.775 473.865H770.891L770.899 473.873Z" fill="#D1DEFF"/>
<path fill-rule="evenodd" clip-rule="evenodd" d="M325.253 299.446C321.93 302.36 318.795 305.849 317.027 310.026C316.127 312.15 317.729 312.26 319.656 311.881C323.398 311.147 327.156 310.113 330.851 309.173C333.038 308.613 336.18 307.46 337.696 305.597C338.864 304.168 339.346 301.72 339.086 299.92C338.722 297.417 336.946 296.438 334.672 295.807C329.469 294.37 322.79 297.788 320.856 302.581L325.245 299.446H325.253Z" fill="#D1DEFF"/>
<path fill-rule="evenodd" clip-rule="evenodd" d="M338.802 321.434C340.681 321.49 342.426 321.94 344.036 322.792C343.571 323.345 343.721 324.095 343.476 324.75C343.113 325.713 342.197 326.685 341.336 327.237C339.899 328.145 337.507 328.485 335.912 327.877C331.065 326.037 338.502 320.29 340.136 322.326L338.81 321.442L338.802 321.434Z" fill="#D1DEFF"/>
<path fill-rule="evenodd" clip-rule="evenodd" d="M430.48 245.957C432.288 245.089 433.914 243.984 435.872 243.652C438.122 243.273 440.207 242.831 442.496 242.839C443.649 242.839 446.223 242.744 445.473 244.623C444.659 246.66 440.278 248.594 438.541 249.416C435.556 250.821 432.754 252.234 429.406 252.581C427.717 252.755 424.882 252.881 423.927 251.184C423.122 249.763 423.509 248.594 424.29 247.276C425.111 245.902 425.98 245.326 427.488 244.734C428.182 244.457 432.059 243.423 432.256 244.631L430.488 245.957H430.48Z" fill="#D1DEFF"/>
<path fill-rule="evenodd" clip-rule="evenodd" d="M400.383 246.842C399.586 247.418 393.467 250.813 396.38 252.281C397.944 253.071 401.023 252.842 402.61 252.171C404.023 251.571 405.452 250.639 404.568 249.013C402.775 245.728 398.275 247.623 395.954 249.052L400.383 246.842Z" fill="#D1DEFF"/>
<path fill-rule="evenodd" clip-rule="evenodd" d="M513.591 219.683C512.21 220.685 501.599 226.575 506.644 229.125C509.36 230.499 514.697 230.096 517.452 228.928C519.907 227.886 522.387 226.275 520.847 223.449C517.736 217.748 509.928 221.041 505.902 223.52L513.583 219.683H513.591Z" fill="#D1DEFF"/>
<path fill-rule="evenodd" clip-rule="evenodd" d="M315.843 480.765C316.293 483.283 316.814 486.031 319.001 487.697C321.267 489.426 323.84 488.723 326.067 487.413C327.717 486.441 329.28 485.399 330.891 484.404C331.83 483.828 332.659 483.678 332.699 482.336C332.746 480.891 331.412 478.949 330.583 477.859C329.588 476.549 327.591 474.986 326.043 474.409C322.664 473.146 316.214 474.409 316.285 479.004L315.843 480.773V480.765Z" fill="#D1DEFF"/>
<path fill-rule="evenodd" clip-rule="evenodd" d="M515.178 487.168C516.054 492.047 517.057 497.384 521.297 500.605C525.694 503.953 530.668 502.595 534.987 500.045C538.184 498.158 541.208 496.144 544.334 494.218C546.158 493.097 547.761 492.813 547.84 490.207C547.927 487.405 545.345 483.647 543.734 481.523C541.816 478.988 537.932 475.949 534.931 474.836C528.378 472.388 515.873 474.82 516.023 483.733L515.162 487.168H515.178Z" fill="#D1DEFF"/>
</g>
<path style="mix-blend-mode:screen" fill-rule="evenodd" clip-rule="evenodd" d="M596.742 388.384C596.742 388.384 853.198 301.839 894.079 346.209C941.844 398.056 685.128 558.365 685.128 558.365C685.128 558.365 631.662 562.013 596.506 485.32C586.116 462.653 576.342 415.512 596.75 388.384H596.742Z" fill="url(#paint20_linear_548_25698)"/>
<path style="mix-blend-mode:screen" fill-rule="evenodd" clip-rule="evenodd" d="M371.566 698.756C371.566 698.756 415.045 883.556 484.024 888.324C552.995 893.093 596.718 718.146 596.718 718.146C596.718 718.146 563.259 690.553 484.024 690.553C404.789 690.553 371.566 698.756 371.566 698.756Z" fill="url(#paint21_linear_548_25698)"/>
<path style="mix-blend-mode:screen" fill-rule="evenodd" clip-rule="evenodd" d="M302.714 347.812C302.714 347.812 231.169 335.069 209.37 381.381C183.498 436.355 267.502 482.944 267.502 482.944C267.502 482.944 311.264 483.125 332.573 443.934C353.882 404.735 329.107 347.985 302.714 347.812Z" fill="url(#paint22_linear_548_25698)"/>
<path style="mix-blend-mode:screen" fill-rule="evenodd" clip-rule="evenodd" d="M236.648 511.563C236.648 511.563 110.966 555.223 110.966 580.061C110.966 611.231 267.501 589.883 267.501 589.883C267.501 589.883 286.142 576.469 289.584 554.157C293.018 531.846 266.057 508.476 257.925 507.79C249.793 507.111 240.706 509.069 236.648 511.556V511.563Z" fill="url(#paint23_linear_548_25698)"/>
<path style="mix-blend-mode:screen" fill-rule="evenodd" clip-rule="evenodd" d="M552.633 254.713C552.633 254.713 605.096 203.885 669.733 219.683C734.37 235.481 694.839 353.694 694.839 353.694C694.839 353.694 649.624 351.649 605.972 321.458C562.32 291.267 552.625 254.713 552.625 254.713H552.633Z" fill="url(#paint24_linear_548_25698)"/>
<path style="mix-blend-mode:screen" opacity="0.5" fill-rule="evenodd" clip-rule="evenodd" d="M679.009 671.66C679.009 671.66 778.739 775.598 789.635 758.758C800.403 742.107 708.979 635.903 708.979 635.903C708.979 635.903 692.265 624.037 679.009 671.668V671.66Z" fill="url(#paint25_linear_548_25698)"/>
<path fill-rule="evenodd" clip-rule="evenodd" d="M640.615 252.486C638.831 254.989 638.634 255.147 638.468 257.634C638.381 258.953 638.073 261.139 638.571 262.395C639.415 264.534 642.518 266.453 644.784 266.184C646.671 265.963 648.929 264.598 650.689 263.792C652.924 262.774 654.045 261.116 654.992 258.945C655.948 256.766 655.371 255.337 654.455 253.197C653.603 251.2 652.261 248.949 650.697 247.434C648.866 245.657 646.458 244.67 644.2 246.163C642.186 247.489 639.96 250.734 639.889 253.197L640.607 252.479L640.615 252.486Z" fill="#FFC445"/>
<path fill-rule="evenodd" clip-rule="evenodd" d="M207.128 562.874C206.188 564.192 206.086 564.271 205.999 565.582C205.952 566.276 205.794 567.429 206.054 568.092C206.496 569.221 208.131 570.232 209.331 570.09C210.325 569.971 211.518 569.253 212.441 568.834C213.618 568.297 214.21 567.421 214.707 566.284C215.213 565.139 214.905 564.382 214.423 563.26C213.973 562.21 213.27 561.018 212.449 560.229C211.486 559.289 210.215 558.776 209.031 559.558C207.973 560.26 206.796 561.966 206.765 563.26L207.144 562.881L207.128 562.874Z" fill="#FFC445"/>
<path fill-rule="evenodd" clip-rule="evenodd" d="M660.005 282.646C661.813 283.167 663.297 284.106 664.474 285.464C663.266 285.796 663.495 287.296 662.2 287.706C660.708 288.18 659.855 286.562 658.568 286.956L660.005 282.646Z" fill="#FF8800"/>
<path fill-rule="evenodd" clip-rule="evenodd" d="M537.221 799.363C539.029 799.884 540.513 800.823 541.69 802.181C540.482 802.513 540.711 804.013 539.416 804.423C537.924 804.897 537.071 803.279 535.784 803.673L537.221 799.363Z" fill="#FFC445"/>
<path fill-rule="evenodd" clip-rule="evenodd" d="M695.912 223.756C695.462 225.091 693.046 229.828 693.757 231.367C694.578 233.144 696.757 232.378 698.06 231.517C698.928 230.941 699.41 230.104 700.215 229.472C700.886 228.935 701.802 228.722 702.41 228.114C703.034 227.491 703.207 226.591 703.768 225.904C704.391 225.146 705.355 224.743 705.907 224.041C707.518 221.988 706.949 218.94 704.368 218.19C699.726 216.84 697.902 220.685 695.194 223.772H695.912V223.756Z" fill="#FFC445"/>
<path fill-rule="evenodd" clip-rule="evenodd" d="M715.871 681.939C715.421 683.281 713.005 688.01 713.716 689.55C714.545 691.326 716.716 690.56 718.026 689.7C718.895 689.123 719.377 688.287 720.182 687.655C720.853 687.118 721.769 686.905 722.377 686.297C722.985 685.689 723.182 684.765 723.735 684.086C724.358 683.329 725.322 682.926 725.874 682.223C727.485 680.17 726.916 677.123 724.335 676.365C719.692 675.015 717.869 678.86 715.161 681.947H715.879L715.871 681.939Z" fill="#FFC445"/>
<path fill-rule="evenodd" clip-rule="evenodd" d="M459.724 715.32C459.274 716.654 456.858 721.391 457.568 722.93C458.389 724.707 460.568 723.941 461.879 723.08C462.748 722.504 463.229 721.667 464.034 721.036C464.706 720.499 465.621 720.286 466.229 719.678C466.853 719.054 467.035 718.154 467.587 717.467C468.211 716.709 469.174 716.306 469.727 715.604C471.337 713.559 470.769 710.504 468.187 709.754C463.545 708.403 461.721 712.248 459.013 715.335H459.732L459.724 715.32Z" fill="#FFC445"/>
<path fill-rule="evenodd" clip-rule="evenodd" d="M734.693 211.55C735.893 208.898 736.312 207.548 738.846 206.332C740.117 205.724 741.902 205.558 741.846 207.587C741.823 208.519 740.315 210.516 739.73 211.203C738.649 212.482 737.133 212.593 735.538 212.151C735.499 211.953 735.459 211.756 735.42 211.558H734.701L734.693 211.55Z" fill="#FFC445"/>
<path fill-rule="evenodd" clip-rule="evenodd" d="M273.241 417.888C274.441 415.236 274.86 413.886 277.394 412.67C278.665 412.062 280.449 411.896 280.394 413.925C280.37 414.857 278.863 416.854 278.278 417.541C277.197 418.82 275.681 418.931 274.086 418.488C274.047 418.291 274.007 418.094 273.96 417.896H273.241V417.888Z" fill="#FFC445"/>
<path fill-rule="evenodd" clip-rule="evenodd" d="M464.942 842.849C465.898 840.748 466.221 839.675 468.235 838.712C469.237 838.23 470.651 838.104 470.611 839.706C470.595 840.448 469.395 842.027 468.929 842.572C468.069 843.583 466.877 843.677 465.606 843.322C465.574 843.164 465.542 843.006 465.511 842.849H464.942Z" fill="#FFC445"/>
<path fill-rule="evenodd" clip-rule="evenodd" d="M709.665 439.023C709.271 437.523 706.041 440.421 707.163 439.252C708.126 438.25 710.131 437.263 711.331 436.781C712.989 436.118 714.173 435.976 715.823 436.481C718.168 437.2 720.624 438.747 721.879 440.887C725.503 447.084 720.592 452.485 714.71 454.774C709.223 456.914 701.565 455.856 700.294 449.121C699.939 447.234 700.894 443.342 702.449 442.047C704.099 440.666 707.589 439.387 709.665 439.031V439.023Z" fill="#FF8800"/>
<path fill-rule="evenodd" clip-rule="evenodd" d="M263.009 557.615C262.78 556.502 260.893 558.658 261.549 557.789C262.109 557.047 263.285 556.305 263.98 555.949C264.943 555.452 265.638 555.349 266.601 555.721C267.967 556.25 269.404 557.402 270.138 558.997C272.254 563.608 269.388 567.626 265.954 569.332C262.749 570.919 258.28 570.137 257.538 565.124C257.333 563.718 257.885 560.821 258.793 559.858C259.756 558.831 261.793 557.876 263.009 557.615Z" fill="#FFC445"/>
<path fill-rule="evenodd" clip-rule="evenodd" d="M289.837 456.882C290.334 456.258 288.329 456.203 289.095 456.172C289.75 456.148 290.666 456.448 291.179 456.669C291.874 456.969 292.245 457.301 292.474 457.987C292.798 458.966 292.814 460.253 292.277 461.359C290.729 464.556 287.279 464.801 284.824 463.703C282.534 462.685 280.971 459.914 283.347 457.277C284.011 456.535 285.826 455.548 286.75 455.611C287.737 455.674 289.158 456.345 289.845 456.89L289.837 456.882Z" fill="#FFC445"/>
<path fill-rule="evenodd" clip-rule="evenodd" d="M538.319 717.941C538.232 716.654 535.137 718.493 536.243 717.727C537.19 717.064 538.99 716.583 540.04 716.385C541.501 716.109 542.488 716.188 543.751 716.859C545.543 717.822 547.304 719.48 547.975 721.422C549.933 727.059 545.053 730.675 539.89 731.591C535.074 732.452 528.995 730.352 529.042 724.659C529.058 723.064 530.463 720.041 531.94 719.235C533.511 718.375 536.558 717.893 538.311 717.941H538.319Z" fill="#FF8800"/>
<path fill-rule="evenodd" clip-rule="evenodd" d="M245.475 375.942C245.08 374.442 244.725 373.747 245.846 372.579C246.809 371.576 248.815 370.589 250.015 370.107C251.673 369.444 252.857 369.302 254.507 369.807C256.852 370.526 259.307 372.073 260.563 374.213C264.186 380.411 259.276 385.811 253.394 388.1C247.907 390.24 240.249 389.182 238.977 382.447C238.622 380.561 239.577 376.668 241.133 375.373C242.783 373.992 246.272 372.713 248.349 372.358L245.475 375.95V375.942Z" fill="#FFC445"/>
<path fill-rule="evenodd" clip-rule="evenodd" d="M767.726 410.483C767.663 414.864 768.161 414.541 772.021 415.362C774.879 415.97 777.24 414.272 779.774 413.175C781.14 412.583 782.561 411.509 783.382 410.309C784.496 408.691 784.417 408.09 782.98 406.898C782.009 406.093 780.785 405.067 779.514 404.806C778.748 404.648 777.99 404.751 777.216 404.585C776.727 404.482 776.356 404.103 775.669 403.993C773.892 403.717 769.779 405.059 768.39 406.148C767.197 407.08 765.974 409.725 766.282 411.209L767.718 410.491L767.726 410.483Z" fill="#FFC445"/>
<path fill-rule="evenodd" clip-rule="evenodd" d="M812.838 430.362C812.633 429.889 812.546 429.407 812.585 428.902C813.185 428.507 813.257 427.702 814.014 427.347C814.559 427.086 815.246 426.991 815.783 427.275C816.833 427.82 816.801 429.154 816.288 429.999C815.909 430.623 815.554 431.673 814.836 432.06C813.92 432.557 812.554 431.476 812.262 430.655L812.846 430.362H812.838Z" fill="#FFC445"/>
<path fill-rule="evenodd" clip-rule="evenodd" d="M759.886 716.946C759.681 716.472 759.594 715.991 759.633 715.485C760.233 715.091 760.304 714.285 761.062 713.93C761.607 713.669 762.294 713.575 762.831 713.859C763.881 714.404 763.849 715.738 763.336 716.583C762.957 717.206 762.602 718.257 761.876 718.643C760.96 719.141 759.594 718.059 759.302 717.238L759.886 716.946Z" fill="#FFC445"/>
<path fill-rule="evenodd" clip-rule="evenodd" d="M521.597 734.505C521.392 734.031 521.305 733.549 521.344 733.044C521.944 732.649 522.015 731.844 522.773 731.489C523.318 731.228 524.005 731.133 524.542 731.418C525.592 731.962 525.56 733.297 525.047 734.141C524.668 734.765 524.313 735.815 523.586 736.202C522.671 736.699 521.305 735.618 521.013 734.797L521.597 734.505Z" fill="#FFC445"/>
<path fill-rule="evenodd" clip-rule="evenodd" d="M197.717 371.236C197.512 370.763 197.425 370.281 197.464 369.776C198.064 369.381 198.135 368.576 198.893 368.221C199.438 367.96 200.125 367.865 200.662 368.149C201.712 368.694 201.68 370.028 201.167 370.873C200.788 371.497 200.433 372.547 199.707 372.934C198.791 373.431 197.425 372.35 197.133 371.529L197.717 371.236Z" fill="#FFC445"/>
<path fill-rule="evenodd" clip-rule="evenodd" d="M687.291 511.737C688.467 509.708 688.728 508.808 690.883 508.31C691.949 508.058 693.575 507.813 694.507 508.476C695.975 509.518 696.441 513.624 695.762 515.171C694.775 517.414 691.696 517.05 690.007 516.245C687.37 514.99 686.62 513.813 686.572 511.026L687.291 511.745V511.737Z" fill="#FFC445"/>
<path fill-rule="evenodd" clip-rule="evenodd" d="M836.673 345.128C836.279 345.617 836.105 346.162 836.152 346.754C837.447 347.614 841.403 346.707 841.142 344.725C841.016 343.746 839.824 343.422 839.002 343.32C837.313 343.106 836.452 344.599 835.592 345.846L836.666 345.128H836.673Z" fill="#FFC445"/>
<path fill-rule="evenodd" clip-rule="evenodd" d="M607.496 409.654C607.101 410.143 606.927 410.688 606.975 411.28C608.269 412.141 612.225 411.233 611.964 409.251C611.838 408.272 610.646 407.949 609.825 407.846C608.135 407.633 607.275 409.125 606.414 410.372L607.488 409.654H607.496Z" fill="#FFC445"/>
<path fill-rule="evenodd" clip-rule="evenodd" d="M168.577 403.882C168.174 404.372 168.008 404.917 168.056 405.509C169.35 406.369 173.306 405.461 173.045 403.48C172.919 402.501 171.727 402.177 170.906 402.074C169.216 401.861 168.356 403.353 167.495 404.601L168.569 403.882H168.577Z" fill="#FFC445"/>
<path fill-rule="evenodd" clip-rule="evenodd" d="M156.734 558.334C156.331 558.823 156.166 559.368 156.213 559.96C157.508 560.821 161.463 559.913 161.203 557.931C161.076 556.952 159.884 556.629 159.063 556.526C157.373 556.313 156.513 557.797 155.652 559.052L156.726 558.334H156.734Z" fill="#FFC445"/>
<path fill-rule="evenodd" clip-rule="evenodd" d="M458.918 807.629C458.002 811.253 457.221 813.305 460.039 815.84C461.91 817.521 465.226 818.635 467.776 818.477C471.882 818.224 478.719 814.932 477.282 809.729C476.548 807.06 472.371 803.855 469.75 803.263C464.373 802.047 459.029 806.358 458.926 811.94V807.629H458.918Z" fill="#FFC445"/>
<path style="mix-blend-mode:screen" fill-rule="evenodd" clip-rule="evenodd" d="M321.646 721.462C292.347 696.932 268.054 666.544 250.598 632.129C239.632 610.497 231.374 587.293 226.258 562.952C226.21 562.905 226.21 562.802 226.21 562.708C222.278 543.831 220.163 524.259 220.163 504.197C220.163 448.245 236.387 396.082 264.367 352.13C276.265 333.45 290.231 316.334 306.014 300.994C357.095 251.334 426.769 220.756 503.612 220.756C509.809 220.756 515.904 220.954 521.999 221.348C541.216 222.58 559.896 225.762 577.873 230.633C555.719 223.377 532.342 218.79 508.128 217.235C502.033 216.84 495.938 216.643 489.74 216.643C412.889 216.643 343.223 247.228 292.142 296.88C276.36 312.221 262.393 329.329 250.495 348.017C222.523 391.969 206.299 444.139 206.299 500.084C206.299 520.145 208.415 539.709 212.346 558.594C212.346 558.689 212.346 558.792 212.394 558.839C217.51 583.18 225.768 606.383 236.734 628.016C254.19 662.43 278.476 692.818 307.782 717.348C338.833 743.402 375.506 762.856 415.716 773.719C380.93 762.374 349.105 744.484 321.662 721.462H321.646Z" fill="url(#paint26_radial_548_25698)"/>
</g>
<path style="mix-blend-mode:screen" opacity="0.45" fill-rule="evenodd" clip-rule="evenodd" d="M500 0C223.922 0 0 223.769 0 500C0 776.232 223.922 1000 500 1000C776.078 1000 1000 776.079 1000 500C1000 223.922 776.231 0 500 0ZM500 980.576C234.628 980.576 19.4249 765.372 19.4249 500C19.4249 234.629 234.628 19.4249 500 19.4249C765.372 19.4249 980.575 234.629 980.575 500C980.575 765.372 765.372 980.576 500 980.576Z" fill="url(#paint27_linear_548_25698)"/>
</g>
<defs>
<radialGradient id="paint0_radial_548_25698" cx="0" cy="0" r="1" gradientUnits="userSpaceOnUse" gradientTransform="translate(465.731 476.888) scale(365.731)">
<stop stop-color="#009BFF"/>
<stop offset="1"/>
</radialGradient>
<radialGradient id="paint1_radial_548_25698" cx="0" cy="0" r="1" gradientUnits="userSpaceOnUse" gradientTransform="translate(434.538 471.243) scale(306.132 306.132)">
<stop stop-color="#009BFF"/>
<stop offset="1"/>
</radialGradient>
<radialGradient id="paint2_radial_548_25698" cx="0" cy="0" r="1" gradientUnits="userSpaceOnUse" gradientTransform="translate(465.731 476.888) scale(311.555 311.555)">
<stop stop-color="#0092FF"/>
<stop offset="0.13" stop-color="#008FFB"/>
<stop offset="0.26" stop-color="#0088EF"/>
<stop offset="0.38" stop-color="#007DDA"/>
<stop offset="0.51" stop-color="#006DBE"/>
<stop offset="0.63" stop-color="#00589A"/>
<stop offset="0.76" stop-color="#003F6E"/>
<stop offset="0.88" stop-color="#00213A"/>
<stop offset="1"/>
</radialGradient>
<radialGradient id="paint3_radial_548_25698" cx="0" cy="0" r="1" gradientUnits="userSpaceOnUse" gradientTransform="translate(321.465 364.865) scale(493.008 493.008)">
<stop stop-color="#4F8CFF"/>
<stop offset="0.15" stop-color="#4A85F8"/>
<stop offset="0.36" stop-color="#3D71E6"/>
<stop offset="0.61" stop-color="#2852C8"/>
<stop offset="0.9" stop-color="#0B269F"/>
<stop offset="1" stop-color="#00158E"/>
</radialGradient>
<radialGradient id="paint4_radial_548_25698" cx="0" cy="0" r="1" gradientUnits="userSpaceOnUse" gradientTransform="translate(337.594 382.124) scale(446.095 446.095)">
<stop stop-color="#FF7263"/>
<stop offset="0.21" stop-color="#FC6E62"/>
<stop offset="0.37" stop-color="#F36561"/>
<stop offset="0.51" stop-color="#E4545F"/>
<stop offset="0.64" stop-color="#D03D5D"/>
<stop offset="0.77" stop-color="#B51F5A"/>
<stop offset="0.88" stop-color="#9A0057"/>
<stop offset="0.99" stop-color="#9A00AE"/>
</radialGradient>
<radialGradient id="paint5_radial_548_25698" cx="0" cy="0" r="1" gradientUnits="userSpaceOnUse" gradientTransform="translate(610.796 409.085) scale(167.549 167.549)">
<stop stop-color="#0088E8"/>
<stop offset="0.19" stop-color="#1595EE"/>
<stop offset="0.53" stop-color="#34AAF7"/>
<stop offset="0.81" stop-color="#48B6FC"/>
<stop offset="1" stop-color="#4FBBFF"/>
</radialGradient>
<linearGradient id="paint6_linear_548_25698" x1="253.717" y1="391.353" x2="362.637" y2="391.353" gradientUnits="userSpaceOnUse">
<stop stop-color="#A131A4"/>
<stop offset="1" stop-color="#FFC0B3"/>
</linearGradient>
<linearGradient id="paint7_linear_548_25698" x1="477.464" y1="780.943" x2="477.464" y2="698.1" gradientUnits="userSpaceOnUse">
<stop stop-color="#4FBBFF"/>
<stop offset="0.19" stop-color="#48B6FC"/>
<stop offset="0.47" stop-color="#34AAF7"/>
<stop offset="0.81" stop-color="#1595EE"/>
<stop offset="1" stop-color="#0088E8"/>
</linearGradient>
<linearGradient id="paint8_linear_548_25698" x1="275.823" y1="488.265" x2="275.823" y2="328.019" gradientUnits="userSpaceOnUse">
<stop stop-color="#4FBBFF"/>
<stop offset="0.19" stop-color="#48B6FC"/>
<stop offset="0.47" stop-color="#34AAF7"/>
<stop offset="0.81" stop-color="#1595EE"/>
<stop offset="1" stop-color="#0088E8"/>
</linearGradient>
<linearGradient id="paint9_linear_548_25698" x1="493.467" y1="589.054" x2="570.144" y2="589.054" gradientUnits="userSpaceOnUse">
<stop stop-color="#0088E8"/>
<stop offset="0.03" stop-color="#0B8DE9"/>
<stop offset="0.24" stop-color="#4EAFEF"/>
<stop offset="0.43" stop-color="#87CBF5"/>
<stop offset="0.61" stop-color="#B3E1F9"/>
<stop offset="0.77" stop-color="#D2F1FC"/>
<stop offset="0.91" stop-color="#E6FBFE"/>
<stop offset="1" stop-color="#EDFFFF"/>
</linearGradient>
<linearGradient id="paint10_linear_548_25698" x1="335.758" y1="638.681" x2="295.785" y2="660.375" gradientUnits="userSpaceOnUse">
<stop stop-color="#0088E8"/>
<stop offset="0.03" stop-color="#0B8DE9"/>
<stop offset="0.24" stop-color="#4EAFEF"/>
<stop offset="0.43" stop-color="#87CBF5"/>
<stop offset="0.61" stop-color="#B3E1F9"/>
<stop offset="0.77" stop-color="#D2F1FC"/>
<stop offset="0.91" stop-color="#E6FBFE"/>
<stop offset="1" stop-color="#EDFFFF"/>
</linearGradient>
<linearGradient id="paint11_linear_548_25698" x1="548.519" y1="431.223" x2="734.796" y2="431.223" gradientUnits="userSpaceOnUse">
<stop stop-color="#A131A4"/>
<stop offset="1" stop-color="#FFC0B3"/>
</linearGradient>
<linearGradient id="paint12_linear_548_25698" x1="509.367" y1="285.243" x2="619.44" y2="285.243" gradientUnits="userSpaceOnUse">
<stop stop-color="#A131A4"/>
<stop offset="1" stop-color="#FFC0B3"/>
</linearGradient>
<linearGradient id="paint13_linear_548_25698" x1="239.017" y1="524.819" x2="302.714" y2="524.819" gradientUnits="userSpaceOnUse">
<stop stop-color="#A131A4"/>
<stop offset="1" stop-color="#FFC0B3"/>
</linearGradient>
<linearGradient id="paint14_linear_548_25698" x1="480.298" y1="576.145" x2="566.102" y2="576.145" gradientUnits="userSpaceOnUse">
<stop stop-color="#A131A4"/>
<stop offset="1" stop-color="white"/>
</linearGradient>
<linearGradient id="paint15_linear_548_25698" x1="339.157" y1="692.519" x2="609.193" y2="692.519" gradientUnits="userSpaceOnUse">
<stop stop-color="#A131A4"/>
<stop offset="1" stop-color="#FFC0B3"/>
</linearGradient>
<linearGradient id="paint16_linear_548_25698" x1="241.006" y1="601.157" x2="241.006" y2="495.481" gradientUnits="userSpaceOnUse">
<stop stop-color="#4FBBFF"/>
<stop offset="0.19" stop-color="#48B6FC"/>
<stop offset="0.47" stop-color="#34AAF7"/>
<stop offset="0.81" stop-color="#1595EE"/>
<stop offset="1" stop-color="#0088E8"/>
</linearGradient>
<radialGradient id="paint17_radial_548_25698" cx="0" cy="0" r="1" gradientUnits="userSpaceOnUse" gradientTransform="translate(311.6 368.768) scale(527.106 484.368)">
<stop stop-color="#B1FFFF"/>
<stop offset="0.29" stop-color="#B0FCFF"/>
<stop offset="0.44" stop-color="#AEF5FF"/>
<stop offset="0.55" stop-color="#ABE7FF"/>
<stop offset="0.62" stop-color="#A9DBFF"/>
<stop offset="0.65" stop-color="#A2D6FE"/>
<stop offset="0.7" stop-color="#8EC9FC"/>
<stop offset="0.76" stop-color="#6FB5F8"/>
<stop offset="0.82" stop-color="#4398F4"/>
<stop offset="0.89" stop-color="#0B74EE"/>
<stop offset="0.91" stop-color="#006DED"/>
</radialGradient>
<radialGradient id="paint18_radial_548_25698" cx="0" cy="0" r="1" gradientUnits="userSpaceOnUse" gradientTransform="translate(398.271 397.519) rotate(-34.8) scale(144.874 121.452)">
<stop stop-color="#FF7700"/>
<stop offset="0.17" stop-color="#C45B00"/>
<stop offset="0.4" stop-color="#7F3B00"/>
<stop offset="0.6" stop-color="#482100"/>
<stop offset="0.78" stop-color="#210F00"/>
<stop offset="0.92" stop-color="#080400"/>
<stop offset="1"/>
</radialGradient>
<radialGradient id="paint19_radial_548_25698" cx="0" cy="0" r="1" gradientUnits="userSpaceOnUse" gradientTransform="translate(571.336 254.816) scale(164.652 164.652)">
<stop stop-color="#0088E8"/>
<stop offset="0.14" stop-color="#1B92EC"/>
<stop offset="0.4" stop-color="#4BA5F4"/>
<stop offset="0.64" stop-color="#6EB3FA"/>
<stop offset="0.83" stop-color="#83BBFD"/>
<stop offset="0.96" stop-color="#8BBFFF"/>
</radialGradient>
<linearGradient id="paint20_linear_548_25698" x1="608.096" y1="509.116" x2="856.151" y2="300.97" gradientUnits="userSpaceOnUse">
<stop stop-color="#FF3D00"/>
<stop offset="1"/>
</linearGradient>
<linearGradient id="paint21_linear_548_25698" x1="484.142" y1="888.411" x2="484.142" y2="690.545" gradientUnits="userSpaceOnUse">
<stop/>
<stop offset="1" stop-color="#FF3D00"/>
</linearGradient>
<linearGradient id="paint22_linear_548_25698" x1="205.77" y1="420.359" x2="340.792" y2="408.548" gradientUnits="userSpaceOnUse">
<stop/>
<stop offset="1" stop-color="#FF3D00"/>
</linearGradient>
<linearGradient id="paint23_linear_548_25698" x1="109.379" y1="562.36" x2="289.679" y2="546.594" gradientUnits="userSpaceOnUse">
<stop/>
<stop offset="1" stop-color="#FF3D00"/>
</linearGradient>
<linearGradient id="paint24_linear_548_25698" x1="604.346" y1="323.598" x2="693.694" y2="234.257" gradientUnits="userSpaceOnUse">
<stop stop-color="#FF3D00"/>
<stop offset="1"/>
</linearGradient>
<linearGradient id="paint25_linear_548_25698" x1="777.026" y1="767.94" x2="689.233" y2="642.558" gradientUnits="userSpaceOnUse">
<stop/>
<stop offset="1" stop-color="#FF3D00"/>
</linearGradient>
<radialGradient id="paint26_radial_548_25698" cx="0" cy="0" r="1" gradientUnits="userSpaceOnUse" gradientTransform="translate(282.605 307.16) scale(373.082 373.082)">
<stop stop-color="#FFFFD9"/>
<stop offset="1"/>
</radialGradient>
<linearGradient id="paint27_linear_548_25698" x1="500" y1="25.2371" x2="500" y2="1048.18" gradientUnits="userSpaceOnUse">
<stop stop-color="#27A2D9"/>
<stop offset="0.19" stop-color="#1D78A1"/>
<stop offset="0.39" stop-color="#124E68"/>
<stop offset="0.59" stop-color="#0A2C3B"/>
<stop offset="0.76" stop-color="#04141A"/>
<stop offset="0.9" stop-color="#010507"/>
<stop offset="1"/>
</linearGradient>
<clipPath id="clip0_548_25698">
<rect width="1000" height="1000" fill="white"/>
</clipPath>
<clipPath id="clip1_548_25698">
<rect width="800" height="777.254" fill="white" transform="translate(100 111.157)"/>
</clipPath>
</defs>
</svg>
