<svg width="1000" height="1001" viewBox="0 0 1000 1001" fill="none" xmlns="http://www.w3.org/2000/svg">
<g clip-path="url(#clip0_548_24002)">
<g clip-path="url(#clip1_548_24002)">
<path style="mix-blend-mode:screen" d="M499.863 899.723C720.7 899.723 899.724 720.699 899.724 499.862C899.724 279.024 720.7 100 499.863 100C279.025 100 100.001 279.024 100.001 499.862C100.001 720.699 279.025 899.723 499.863 899.723Z" fill="url(#paint0_radial_548_24002)"/>
<path style="mix-blend-mode:screen" d="M526.349 859.644C712.471 859.644 863.353 708.762 863.353 522.64C863.353 336.518 712.471 185.636 526.349 185.636C340.227 185.636 189.345 336.518 189.345 522.64C189.345 708.762 340.227 859.644 526.349 859.644Z" fill="url(#paint1_radial_548_24002)"/>
<path style="mix-blend-mode:screen" d="M723.693 721.433C849.285 595.842 849.285 392.218 723.693 266.626C598.102 141.035 394.478 141.035 268.886 266.626C143.294 392.218 143.294 595.842 268.886 721.433C394.478 847.025 598.102 847.025 723.693 721.433Z" fill="url(#paint2_radial_548_24002)"/>
<path fill-rule="evenodd" clip-rule="evenodd" d="M652.347 222.715C652.347 222.715 692.098 233.724 718.558 232.113C718.558 232.113 765.947 264.316 792.416 349.643C792.416 349.643 769.655 376.625 774.495 407.978C774.495 407.978 733.956 297.838 652.347 222.715Z" fill="url(#paint3_linear_548_24002)"/>
<path fill-rule="evenodd" clip-rule="evenodd" d="M695.948 859.467C695.948 859.467 679.736 854.574 667.701 856.034C667.701 856.034 651.524 843.901 651.268 822.875C651.268 822.875 663.683 807.557 668.188 795.743C668.188 795.743 673.161 829.707 695.948 859.467Z" fill="url(#paint4_linear_548_24002)"/>
<path fill-rule="evenodd" clip-rule="evenodd" d="M780.885 469.898C780.885 498.897 776.805 526.994 769.097 553.507C753.806 606.851 724.169 654.072 684.594 690.903C656.302 717.283 622.905 738.257 586.135 752.212C552.808 764.893 516.738 771.778 478.942 771.778C473.588 771.778 468.172 771.654 462.88 771.336H462.819C454.916 770.955 447.075 770.185 439.368 769.23C381.059 761.584 328.104 737.363 285.148 701.292C269.025 687.85 254.37 672.682 241.432 656.107C231.618 643.683 222.76 630.488 214.981 616.533C213.132 613.223 211.353 609.842 209.565 606.462C209.565 606.338 209.504 606.267 209.442 606.143C207.592 602.515 205.875 598.878 204.212 595.179H204.15C198.92 583.648 194.336 571.728 190.637 559.489C187.831 550.693 185.477 541.649 183.566 532.472C183.504 532.41 183.504 532.277 183.504 532.215C182.168 525.782 181.017 519.277 180.123 512.711C178.088 498.694 177.062 484.419 177.062 469.889C177.062 461.544 177.38 453.19 178.141 445.031C178.522 439.801 179.097 434.641 179.796 429.482C183.681 399.783 191.964 371.492 203.946 345.174C209.813 332.236 216.565 319.811 224.149 307.891C236.769 288.006 251.68 269.785 268.503 253.405C322.865 200.512 397.103 167.946 478.933 167.946C482.119 167.946 485.305 168.008 488.429 168.07C491.809 168.194 495.181 168.327 498.561 168.583C515.897 169.734 532.844 172.282 549.224 176.229C558.782 178.521 568.153 181.202 577.33 184.388C583.578 186.494 589.693 188.848 595.746 191.397C600.268 193.309 604.666 195.282 609.064 197.388C609.825 197.769 610.595 198.087 611.356 198.468C640.674 212.804 667.249 231.671 690.311 254.29C693.621 257.476 696.815 260.794 700.001 264.166C702.107 266.458 704.205 268.821 706.249 271.175C709.753 275.122 713.134 279.272 716.443 283.413C728.487 298.705 739.062 315.148 747.921 332.607C758.31 352.873 766.469 374.474 772.009 397.102C777.805 420.429 780.867 444.774 780.867 469.88L780.885 469.898Z" fill="url(#paint5_radial_548_24002)"/>
<path style="mix-blend-mode:multiply" opacity="0.5" fill-rule="evenodd" clip-rule="evenodd" d="M188.583 425.305C188.583 425.305 242.432 453.393 290.67 415.199C338.908 377.005 300.325 234.52 300.325 234.52L188.583 425.296V425.305Z" fill="url(#paint6_linear_548_24002)"/>
<path style="mix-blend-mode:multiply" opacity="0.89" fill-rule="evenodd" clip-rule="evenodd" d="M538.623 642.346C538.623 642.346 562.986 671.638 622.604 674.859C682.223 678.08 741.797 609.657 755.478 547.675C769.16 485.694 724.886 423.04 681.418 413.305C637.949 403.58 538.614 642.346 538.614 642.346H538.623Z" fill="url(#paint7_linear_548_24002)"/>
<path style="mix-blend-mode:screen" fill-rule="evenodd" clip-rule="evenodd" d="M299.927 705.682C268.715 679.549 242.848 647.187 224.256 610.524C212.574 587.48 203.778 562.764 198.336 536.844C198.282 536.79 198.282 536.684 198.282 536.578C194.097 516.463 191.84 495.623 191.84 474.26C191.84 414.659 209.123 359.103 238.919 312.28C251.591 292.378 266.467 274.157 283.272 257.812C337.688 204.919 411.89 172.344 493.747 172.344C500.349 172.344 506.836 172.557 513.331 172.973C533.809 174.282 553.702 177.672 572.844 182.866C549.251 175.132 524.349 170.247 498.553 168.592C492.057 168.176 485.562 167.964 478.969 167.964C397.111 167.964 322.909 200.539 268.494 253.432C251.68 269.768 236.813 287.997 224.141 307.9C194.344 354.722 177.062 410.279 177.062 469.88C177.062 491.251 179.309 512.092 183.504 532.198C183.504 532.304 183.504 532.41 183.557 532.463C189.008 558.383 197.805 583.108 209.477 606.143C228.07 642.798 253.937 675.169 285.148 701.301C318.228 729.053 357.28 749.779 400.111 761.345C363.059 749.257 329.166 730.213 299.927 705.682Z" fill="url(#paint8_radial_548_24002)"/>
<path fill-rule="evenodd" clip-rule="evenodd" d="M232.37 644.054C232.37 644.054 251.494 675.222 246.671 725.938C246.671 725.938 288.599 799.22 406.934 805.256C406.934 805.256 466.5 761.345 523.516 768.495C523.516 768.495 425.075 628.161 232.379 644.054H232.37Z" fill="url(#paint9_linear_548_24002)"/>
<path fill-rule="evenodd" clip-rule="evenodd" d="M188.584 425.305C188.584 425.305 168.752 370.572 150.947 351.244C150.947 351.244 137.266 264.308 225.813 234.52C225.813 234.52 273.503 243.618 300.325 234.52C300.325 234.52 310.538 293.281 270.087 356.076C235.592 409.615 188.592 425.305 188.592 425.305H188.584Z" fill="url(#paint10_linear_548_24002)"/>
<path fill-rule="evenodd" clip-rule="evenodd" d="M731.036 467.924C731.036 467.924 709.939 393.713 638.277 389.262C562.269 384.536 494.96 536.215 518.411 608.674C541.862 681.134 626.463 670.7 665.197 644.364C712.249 612.382 735.337 541.693 731.036 467.924Z" fill="url(#paint11_linear_548_24002)"/>
<path style="mix-blend-mode:multiply" opacity="0.5" fill-rule="evenodd" clip-rule="evenodd" d="M408.643 249.998C408.643 249.998 434.368 293.52 484.199 288.759C538.614 283.555 553.163 237.485 551.136 219.237C549.11 200.99 408.643 249.998 408.643 249.998Z" fill="url(#paint12_linear_548_24002)"/>
<path fill-rule="evenodd" clip-rule="evenodd" d="M649.984 415.208C584.268 414.845 486.924 589.701 571.675 648.488C652.196 704.337 726.602 583.117 735.337 541.702C744.071 500.295 738.469 415.695 649.984 415.208Z" fill="url(#paint13_linear_548_24002)"/>
<path fill-rule="evenodd" clip-rule="evenodd" d="M619.409 646.718C616.285 646.461 613.223 646.019 610.356 645.568C569.569 638.559 554.277 610.196 550.835 581.586C548.666 563.427 551.277 545.197 555.171 532.198C562.879 506.455 604.241 446.101 651.594 437.624C668.417 434.562 686.01 438.137 703.151 452.216C717.62 464.199 724.823 479.942 726.478 497.402C732.85 562.533 663.833 650.665 619.418 646.718H619.409Z" fill="url(#paint14_linear_548_24002)"/>
<path fill-rule="evenodd" clip-rule="evenodd" d="M420.226 170.035C420.226 170.035 390.05 208.786 404.934 243.626C420.731 280.582 509.243 279.015 537.844 250.786C566.445 222.556 543.623 168.698 519.012 159.247C490.986 148.486 453.987 150.522 420.226 170.035Z" fill="url(#paint15_radial_548_24002)"/>
<path fill-rule="evenodd" clip-rule="evenodd" d="M414.589 220.742C429.996 251.803 535.508 256.246 543.127 202.353C550.366 151.15 475.579 144.814 453.987 150.513C432.394 156.212 393.837 178.911 414.589 220.742Z" fill="url(#paint16_linear_548_24002)"/>
<path fill-rule="evenodd" clip-rule="evenodd" d="M528.119 189.087C528.314 190.804 528.314 192.468 528.119 194.061C528.057 195.778 527.8 197.503 527.42 199.096C518.818 233.697 449.288 244.98 433.421 225.733C429.023 220.379 426.35 215.087 425.076 210.061C419.66 188.84 438.589 171.822 451.138 165.256C466.624 157.097 524.676 148.752 528.119 189.087Z" fill="url(#paint17_linear_548_24002)"/>
<path fill-rule="evenodd" clip-rule="evenodd" d="M150.947 351.253C152.407 370.996 251.698 277.396 225.813 234.529C225.813 234.529 142.903 242.175 150.947 351.253Z" fill="url(#paint18_linear_548_24002)"/>
<path fill-rule="evenodd" clip-rule="evenodd" d="M246.662 725.938C240.494 690.664 419.81 715.036 406.926 805.256C404.112 824.981 256.91 784.513 246.662 725.938Z" fill="url(#paint19_linear_548_24002)"/>
<path fill-rule="evenodd" clip-rule="evenodd" d="M390.811 802.654C387.82 805.079 289.423 790.548 255.583 730.77C253.353 726.752 263.866 725.478 279.99 727.39C286.105 728.089 292.989 729.301 300.317 731.018C323.644 736.434 351.104 747.018 369.714 763.84C375.51 769.07 379.97 773.778 383.289 777.991C388.068 784.106 390.616 789.079 391.767 792.902C393.36 798.318 392.209 801.565 390.811 802.654Z" fill="url(#paint20_linear_548_24002)"/>
<path fill-rule="evenodd" clip-rule="evenodd" d="M383.297 777.991C344.298 771.106 316.254 748.035 300.325 731.027C323.652 736.443 351.112 747.026 369.722 763.849C375.519 769.079 379.979 773.787 383.297 777.999V777.991Z" fill="url(#paint21_linear_548_24002)"/>
<path fill-rule="evenodd" clip-rule="evenodd" d="M215.025 261.644C213.37 266.945 210.574 274.015 206.362 283.422C198.831 300.183 183.955 317.634 173.114 326.13C167.583 330.519 163.079 332.572 161.256 330.979C157.495 327.731 158.123 303.67 169.636 281.316C181.158 258.909 212.344 242.998 215.538 246.476C217.538 248.644 217.875 252.635 215.025 261.644Z" fill="url(#paint22_linear_548_24002)"/>
<path fill-rule="evenodd" clip-rule="evenodd" d="M215.025 261.644C213.37 266.945 210.574 274.015 206.362 283.422C198.831 300.183 183.955 317.634 173.114 326.13C185.769 291.688 208.185 268.254 215.025 261.635V261.644Z" fill="url(#paint23_linear_548_24002)"/>
<path fill-rule="evenodd" clip-rule="evenodd" d="M246.662 601.595C243.539 599.683 240.486 596.241 237.742 591.843C237.742 591.843 237.742 591.781 237.618 591.648C227.61 575.524 221.813 547.481 232.388 541.746C245.45 534.605 264.76 538.304 273.494 561.498C273.494 561.498 273.494 561.56 273.556 561.622C273.874 562.383 274.193 563.215 274.388 564.047C274.45 564.171 274.512 564.303 274.512 564.427C274.635 565.064 274.83 565.64 275.025 566.02C275.281 566.852 275.538 567.675 275.724 568.569C281.14 590.683 261.255 610.435 246.662 601.577V601.595Z" fill="url(#paint24_linear_548_24002)"/>
<path style="mix-blend-mode:multiply" opacity="0.4" fill-rule="evenodd" clip-rule="evenodd" d="M273.494 561.507C268.582 551.631 249.468 540.162 237.742 550.861C225.441 562.082 236.592 589.099 237.618 591.648C227.61 575.524 221.813 547.481 232.388 541.746C245.45 534.605 264.76 538.304 273.494 561.498V561.507Z" fill="url(#paint25_radial_548_24002)"/>
<path fill-rule="evenodd" clip-rule="evenodd" d="M338.121 307.776C336.759 306.776 335.493 305.077 334.405 302.953C334.405 302.953 334.405 302.927 334.352 302.856C330.378 295.059 328.803 281.953 333.883 279.732C340.157 276.962 348.891 279.405 351.997 290.405C351.997 290.405 351.997 290.431 352.024 290.467C352.139 290.829 352.254 291.219 352.307 291.608C352.334 291.67 352.36 291.732 352.351 291.785C352.387 292.086 352.449 292.351 352.519 292.537C352.608 292.927 352.688 293.316 352.741 293.732C354.369 304.103 344.475 312.404 338.113 307.767L338.121 307.776Z" fill="url(#paint26_linear_548_24002)"/>
<path style="mix-blend-mode:multiply" opacity="0.4" fill-rule="evenodd" clip-rule="evenodd" d="M352.006 290.405C350.139 285.679 341.794 279.67 335.998 284.13C329.909 288.803 333.989 301.652 334.36 302.865C330.387 295.068 328.812 281.962 333.891 279.741C340.166 276.971 348.9 279.414 352.006 290.413V290.405Z" fill="url(#paint27_radial_548_24002)"/>
<path fill-rule="evenodd" clip-rule="evenodd" d="M564.224 729.248H564.127C563.525 729.549 562.826 729.85 562.127 729.947C562.03 730.044 561.923 730.151 561.826 730.151C561.322 730.248 560.826 730.354 560.525 730.549C559.923 730.752 559.224 730.947 558.428 731.151C548.331 733.85 538.826 730.151 533.526 724.151C529.225 719.354 527.729 713.248 530.826 707.85C532.331 705.248 535.127 702.647 538.729 700.346L538.826 700.248C551.924 691.744 574.923 686.452 579.826 695.045C581.224 697.346 582.127 699.947 582.428 702.647C583.923 712.248 579.029 723.345 564.224 729.248Z" fill="url(#paint28_linear_548_24002)"/>
<path style="mix-blend-mode:screen" opacity="0.5" fill-rule="evenodd" clip-rule="evenodd" d="M315.343 562.976C315.343 562.976 333.502 591.94 383.298 588.922C433.093 585.905 442.146 561.542 445.164 541.728C448.182 521.906 439.872 497.526 439.872 497.526C439.872 497.526 329.812 518.322 315.343 562.985V562.976Z" fill="url(#paint29_radial_548_24002)"/>
<path style="mix-blend-mode:multiply" opacity="0.4" fill-rule="evenodd" clip-rule="evenodd" d="M582.428 702.647C578.33 699.142 569.826 694.85 555.923 699.248C534.623 705.947 533.526 724.151 533.526 724.151C529.225 719.354 527.729 713.248 530.826 707.85C532.331 705.248 535.127 702.647 538.729 700.346L538.826 700.248C551.924 691.744 574.923 686.452 579.826 695.045C581.224 697.346 582.127 699.947 582.428 702.647Z" fill="url(#paint30_radial_548_24002)"/>
<path fill-rule="evenodd" clip-rule="evenodd" d="M442.305 525.569L442.243 526.649C442.376 603.763 326.829 594.329 308.732 553.286C306.245 547.613 304.139 541.304 302.546 534.675V534.613C292.352 493.322 298.723 438.004 317.139 425.323C336.51 412.005 373.731 411.686 400.81 425.323C431.332 440.686 443.385 486.632 442.296 525.569H442.305Z" fill="url(#paint31_linear_548_24002)"/>
<path style="mix-blend-mode:multiply" opacity="0.4" fill-rule="evenodd" clip-rule="evenodd" d="M442.305 525.569L442.243 526.649C442.243 526.649 443.969 478.411 420.642 452.659C397.253 426.916 350.607 419.65 323.9 448.641C297.9 476.933 302.298 531.994 302.546 534.613C292.352 493.322 298.723 438.004 317.139 425.323C336.51 412.005 373.731 411.686 400.81 425.323C431.332 440.686 443.385 486.632 442.296 525.569H442.305Z" fill="url(#paint32_linear_548_24002)"/>
<path fill-rule="evenodd" clip-rule="evenodd" d="M658.913 282.83C652.346 286.334 636.798 276.653 622.586 264.538C605.312 249.688 590.153 231.149 596.073 228.467C604.17 224.839 633.931 227.255 647.63 238.538C653.497 243.379 659.099 250.839 662.479 258.423C666.753 268.299 667.134 278.369 658.913 282.83Z" fill="url(#paint33_linear_548_24002)"/>
<path style="mix-blend-mode:multiply" opacity="0.4" fill-rule="evenodd" clip-rule="evenodd" d="M662.488 258.423C662.426 258.361 662.364 258.228 662.293 258.166C640.771 225.671 607.577 227.078 605.152 235.936C602.728 244.795 622.595 264.538 622.595 264.538C605.32 249.688 590.161 231.149 596.082 228.467C604.179 224.839 633.94 227.255 647.638 238.538C653.506 243.379 659.107 250.839 662.488 258.423Z" fill="url(#paint34_linear_548_24002)"/>
<path fill-rule="evenodd" clip-rule="evenodd" d="M172.345 343.103C172.345 343.103 221.486 318.448 226.645 269.759C226.645 269.759 201.858 319.873 172.345 343.103Z" fill="#E5BDFA"/>
<path fill-rule="evenodd" clip-rule="evenodd" d="M538.622 584.515C538.622 584.515 543.463 486.888 614.073 429.349C614.073 429.349 529.384 469.862 538.622 584.515Z" fill="#E5BDFA"/>
<path fill-rule="evenodd" clip-rule="evenodd" d="M417.474 225.051C417.474 225.051 430.712 245.148 475.977 243.618C521.233 242.078 536.091 221.423 538.622 215.883C538.622 215.883 527.392 250.538 476.225 249.325C422.235 248.051 417.474 225.051 417.474 225.051Z" fill="#FFA5F7"/>
<path fill-rule="evenodd" clip-rule="evenodd" d="M323.918 716.983C323.918 716.983 392.545 744.681 406.448 784.548C406.448 784.548 404.917 738.796 323.918 716.983Z" fill="#FFA5F7"/>
<path style="mix-blend-mode:multiply" opacity="0.71" fill-rule="evenodd" clip-rule="evenodd" d="M726.469 497.402V497.525C726.469 497.525 703.151 457.261 638.47 474.915C580.48 490.72 555.427 565.33 550.835 581.586C548.666 563.427 551.277 545.197 555.171 532.198C562.879 506.455 604.241 446.101 651.594 437.624C668.417 434.562 686.01 438.137 703.151 452.216C717.62 464.199 724.823 479.942 726.478 497.402H726.469Z" fill="url(#paint35_linear_548_24002)"/>
<path fill-rule="evenodd" clip-rule="evenodd" d="M805.017 820.645C803.787 827.45 801.636 833.866 798.707 839.76C792.858 851.627 783.902 861.45 773.062 868.423C765.301 873.414 756.584 876.918 747.363 878.635C739.009 880.202 730.248 880.281 721.381 878.679C720.124 878.449 718.859 878.193 717.629 877.892H717.611C715.77 877.467 713.965 876.954 712.195 876.405C698.833 872.14 687.435 864.211 678.886 853.928C675.674 850.087 672.877 845.91 670.541 841.476C668.762 838.149 667.249 834.671 666.01 831.069C665.718 830.211 665.444 829.344 665.169 828.477C665.169 828.45 665.169 828.432 665.152 828.397C664.868 827.468 664.621 826.539 664.391 825.601H664.373C663.638 822.671 663.063 819.68 662.718 816.654C662.435 814.468 662.267 812.247 662.205 810.017C662.196 809.999 662.205 809.972 662.205 809.955C662.161 808.388 662.169 806.813 662.24 805.238C662.355 801.857 662.718 798.468 663.338 795.061C663.691 793.105 664.116 791.159 664.647 789.274C664.957 788.061 665.311 786.875 665.691 785.698C667.86 778.893 671.001 772.61 674.93 766.938C676.851 764.15 678.966 761.522 681.249 759.044C685.054 754.911 689.319 751.265 693.965 748.141C708.965 738.035 727.761 733.54 746.965 737.009C747.708 737.142 748.46 737.292 749.186 737.442C749.973 737.619 750.761 737.788 751.54 737.991C755.557 738.991 759.425 740.31 763.106 741.929C765.256 742.876 767.336 743.894 769.354 745.035C770.725 745.796 772.062 746.611 773.38 747.46C774.362 748.097 775.309 748.752 776.247 749.433C776.407 749.557 776.575 749.664 776.743 749.787C783.017 754.398 788.451 759.947 792.902 766.23C793.548 767.115 794.15 768.035 794.76 768.955C795.159 769.584 795.548 770.221 795.929 770.867C796.583 771.946 797.203 773.061 797.805 774.168C799.982 778.265 801.769 782.575 803.105 787.044C804.681 792.238 805.681 797.654 806.026 803.194C806.397 808.91 806.088 814.751 805.017 820.645Z" fill="url(#paint36_radial_548_24002)"/>
<path fill-rule="evenodd" clip-rule="evenodd" d="M753.628 730.301C753.628 730.301 725.062 729.54 714.39 757.991C703.071 788.167 747.398 834.432 775.654 834.025C803.911 833.618 811.034 798.061 806.787 779.079C801.619 756.026 779.911 737.814 753.637 730.301H753.628Z" fill="url(#paint37_linear_548_24002)"/>
<path fill-rule="evenodd" clip-rule="evenodd" d="M724.921 756.504C716.434 783.061 765.018 844.388 796.309 817.45C826.035 791.858 793.23 746.54 779.902 737.814C766.575 729.089 736.354 720.752 724.93 756.504H724.921Z" fill="url(#paint38_linear_548_24002)"/>
<path fill-rule="evenodd" clip-rule="evenodd" d="M801.77 797.911C801.283 799.141 800.743 800.327 800.221 801.433C792.584 817.061 780.752 819.698 770.328 817.503C763.717 816.105 757.691 812.76 753.655 809.556C745.655 803.211 729.877 778.902 732.948 758.663C734.018 751.469 737.505 744.796 744.602 739.619C750.62 735.266 757.027 734.327 763.328 735.841C786.85 741.425 808.805 780.415 801.77 797.902V797.911Z" fill="url(#paint39_linear_548_24002)"/>
<path fill-rule="evenodd" clip-rule="evenodd" d="M800.221 801.433C787.717 826.972 764.027 817.795 753.655 809.556C745.655 803.211 729.877 778.902 732.948 758.663C734.877 754.876 737.753 751.407 741.824 748.442C768.177 729.23 802.548 776.769 800.221 801.424V801.433Z" fill="url(#paint40_linear_548_24002)"/>
<path style="mix-blend-mode:multiply" opacity="0.71" fill-rule="evenodd" clip-rule="evenodd" d="M763.328 735.85L763.372 735.867C763.372 735.867 746.363 740.257 744.284 768.654C742.417 794.114 765.248 813.609 770.328 817.503C763.717 816.105 757.691 812.76 753.655 809.556C745.655 803.211 729.877 778.902 732.948 758.663C734.018 751.469 737.505 744.796 744.602 739.619C750.62 735.266 757.027 734.327 763.328 735.841V735.85Z" fill="url(#paint41_linear_548_24002)"/>
<path style="mix-blend-mode:multiply" opacity="0.71" fill-rule="evenodd" clip-rule="evenodd" d="M528.119 189.087C528.314 190.804 528.314 192.468 528.119 194.061C516.013 176.282 493.703 172.327 465.607 178.38C437.439 184.433 425.076 210.052 425.076 210.052C419.66 188.831 438.589 171.813 451.138 165.247C466.624 157.088 524.676 148.743 528.119 189.079V189.087Z" fill="url(#paint42_linear_548_24002)"/>
</g>
<path style="mix-blend-mode:screen" opacity="0.45" fill-rule="evenodd" clip-rule="evenodd" d="M500 0C223.922 0 0 223.769 0 500C0 776.232 223.922 1000 500 1000C776.078 1000 1000 776.079 1000 500C1000 223.922 776.231 0 500 0ZM500 980.576C234.628 980.576 19.4249 765.372 19.4249 500C19.4249 234.629 234.628 19.4249 500 19.4249C765.372 19.4249 980.575 234.629 980.575 500C980.575 765.372 765.372 980.576 500 980.576Z" fill="url(#paint43_linear_548_24002)"/>
</g>
<defs>
<radialGradient id="paint0_radial_548_24002" cx="0" cy="0" r="1" gradientUnits="userSpaceOnUse" gradientTransform="translate(499.863 499.862) scale(399.862)">
<stop stop-color="#9813FF"/>
<stop offset="1"/>
</radialGradient>
<radialGradient id="paint1_radial_548_24002" cx="0" cy="0" r="1" gradientUnits="userSpaceOnUse" gradientTransform="translate(526.349 522.64) scale(337.004)">
<stop stop-color="#9813FF"/>
<stop offset="1"/>
</radialGradient>
<radialGradient id="paint2_radial_548_24002" cx="0" cy="0" r="1" gradientUnits="userSpaceOnUse" gradientTransform="translate(496.292 494.032) scale(321.597)">
<stop stop-color="#9813FF"/>
<stop offset="1"/>
</radialGradient>
<linearGradient id="paint3_linear_548_24002" x1="704.842" y1="396.943" x2="730.638" y2="234.025" gradientUnits="userSpaceOnUse">
<stop stop-color="#8931B3"/>
<stop offset="1" stop-color="#8E8CFF"/>
</linearGradient>
<linearGradient id="paint4_linear_548_24002" x1="687.053" y1="802.201" x2="668.5" y2="856.297" gradientUnits="userSpaceOnUse">
<stop stop-color="#8E8CFF"/>
<stop offset="1" stop-color="#8931B3"/>
</linearGradient>
<radialGradient id="paint5_radial_548_24002" cx="0" cy="0" r="1" gradientUnits="userSpaceOnUse" gradientTransform="translate(376.519 364.89) scale(455.268 455.268)">
<stop stop-color="#FFB8E2"/>
<stop offset="0.22" stop-color="#FCB7E2"/>
<stop offset="0.33" stop-color="#F5B4E5"/>
<stop offset="0.42" stop-color="#E7B0E9"/>
<stop offset="0.49" stop-color="#D5AAEF"/>
<stop offset="0.55" stop-color="#BDA2F7"/>
<stop offset="0.58" stop-color="#AE9DFC"/>
<stop offset="0.64" stop-color="#A896FC"/>
<stop offset="0.72" stop-color="#9982FC"/>
<stop offset="0.81" stop-color="#8063FD"/>
<stop offset="0.91" stop-color="#5E37FE"/>
<stop offset="0.92" stop-color="#5E37FF"/>
<stop offset="0.99" stop-color="#5E9AFF"/>
</radialGradient>
<linearGradient id="paint6_linear_548_24002" x1="188.583" y1="334.9" x2="314.935" y2="334.9" gradientUnits="userSpaceOnUse">
<stop stop-color="white"/>
<stop offset="0.17" stop-color="#DBCFEA"/>
<stop offset="0.36" stop-color="#B9A2D6"/>
<stop offset="0.55" stop-color="#9E7FC7"/>
<stop offset="0.72" stop-color="#8B66BC"/>
<stop offset="0.87" stop-color="#8057B5"/>
<stop offset="1" stop-color="#7C52B3"/>
</linearGradient>
<linearGradient id="paint7_linear_548_24002" x1="538.623" y1="543.985" x2="758.009" y2="543.985" gradientUnits="userSpaceOnUse">
<stop stop-color="#7C52B3"/>
<stop offset="0.13" stop-color="#8057B5"/>
<stop offset="0.28" stop-color="#8B66BC"/>
<stop offset="0.45" stop-color="#9E7FC7"/>
<stop offset="0.64" stop-color="#B9A2D6"/>
<stop offset="0.83" stop-color="#DBCFEA"/>
<stop offset="1" stop-color="white"/>
</linearGradient>
<radialGradient id="paint8_radial_548_24002" cx="0" cy="0" r="1" gradientUnits="userSpaceOnUse" gradientTransform="translate(258.344 264.387) scale(397.384 397.384)">
<stop stop-color="#FFFFD9"/>
<stop offset="1"/>
</radialGradient>
<linearGradient id="paint9_linear_548_24002" x1="363.103" y1="799.928" x2="385.589" y2="657.975" gradientUnits="userSpaceOnUse">
<stop stop-color="#6D109D"/>
<stop offset="1" stop-color="#8E8CFF"/>
</linearGradient>
<linearGradient id="paint10_linear_548_24002" x1="273.494" y1="355.165" x2="173.902" y2="268.591" gradientUnits="userSpaceOnUse">
<stop stop-color="#C98EFF"/>
<stop offset="1" stop-color="#8931B3"/>
</linearGradient>
<linearGradient id="paint11_linear_548_24002" x1="708.393" y1="597.598" x2="537.977" y2="467.258" gradientUnits="userSpaceOnUse">
<stop stop-color="#5400B3"/>
<stop offset="1" stop-color="#F2C0FF"/>
</linearGradient>
<linearGradient id="paint12_linear_548_24002" x1="408.643" y1="252.14" x2="551.322" y2="252.14" gradientUnits="userSpaceOnUse">
<stop stop-color="white"/>
<stop offset="0.17" stop-color="#DBCFEA"/>
<stop offset="0.36" stop-color="#B9A2D6"/>
<stop offset="0.55" stop-color="#9E7FC7"/>
<stop offset="0.72" stop-color="#8B66BC"/>
<stop offset="0.87" stop-color="#8057B5"/>
<stop offset="1" stop-color="#7C52B3"/>
</linearGradient>
<linearGradient id="paint13_linear_548_24002" x1="623.083" y1="664.606" x2="655.555" y2="414.933" gradientUnits="userSpaceOnUse">
<stop stop-color="#644FF7"/>
<stop offset="1" stop-color="#9F6DFF"/>
</linearGradient>
<linearGradient id="paint14_linear_548_24002" x1="565.002" y1="630.47" x2="697.886" y2="467.561" gradientUnits="userSpaceOnUse">
<stop stop-color="#935CE1"/>
<stop offset="0.22" stop-color="#8F5ADF"/>
<stop offset="0.43" stop-color="#8353DB"/>
<stop offset="0.63" stop-color="#7149D5"/>
<stop offset="0.82" stop-color="#563BCC"/>
<stop offset="0.99" stop-color="#392CC2"/>
</linearGradient>
<radialGradient id="paint15_radial_548_24002" cx="0" cy="0" r="1" gradientUnits="userSpaceOnUse" gradientTransform="translate(415.315 228.056) rotate(-109.29) scale(113.22 113.22)">
<stop stop-color="#DEA5FF"/>
<stop offset="1" stop-color="#8931B3"/>
</radialGradient>
<linearGradient id="paint16_linear_548_24002" x1="538.451" y1="174.251" x2="413.062" y2="218.137" gradientUnits="userSpaceOnUse">
<stop stop-color="#C287F8"/>
<stop offset="1" stop-color="#CCB3FF"/>
</linearGradient>
<linearGradient id="paint17_linear_548_24002" x1="476.199" y1="235.069" x2="476.199" y2="158.495" gradientUnits="userSpaceOnUse">
<stop stop-color="#9F6DFF"/>
<stop offset="0.27" stop-color="#9B69FE"/>
<stop offset="0.52" stop-color="#905EFD"/>
<stop offset="0.76" stop-color="#7D4BFA"/>
<stop offset="1" stop-color="#6431F7"/>
</linearGradient>
<linearGradient id="paint18_linear_548_24002" x1="190.256" y1="353.952" x2="190.256" y2="234.529" gradientUnits="userSpaceOnUse">
<stop stop-color="#FC9FF7"/>
<stop offset="1" stop-color="#F66DFF"/>
</linearGradient>
<linearGradient id="paint19_linear_548_24002" x1="327.051" y1="810.309" x2="327.051" y2="710.452" gradientUnits="userSpaceOnUse">
<stop stop-color="#C282F7"/>
<stop offset="1" stop-color="#DC6DFF"/>
</linearGradient>
<linearGradient id="paint20_linear_548_24002" x1="323.918" y1="802.902" x2="323.918" y2="726.522" gradientUnits="userSpaceOnUse">
<stop stop-color="#4848F7"/>
<stop offset="1" stop-color="#6D20FF"/>
</linearGradient>
<linearGradient id="paint21_linear_548_24002" x1="341.811" y1="777.991" x2="341.811" y2="731.027" gradientUnits="userSpaceOnUse">
<stop stop-color="#644FF7"/>
<stop offset="1" stop-color="#9F6DFF"/>
</linearGradient>
<linearGradient id="paint22_linear_548_24002" x1="188.149" y1="331.519" x2="188.149" y2="245.998" gradientUnits="userSpaceOnUse">
<stop stop-color="#9F6DFF"/>
<stop offset="1" stop-color="#644FF7"/>
</linearGradient>
<linearGradient id="paint23_linear_548_24002" x1="190.556" y1="291.661" x2="198.902" y2="296.944" gradientUnits="userSpaceOnUse">
<stop stop-color="#9084FF"/>
<stop offset="1" stop-color="#C287F8"/>
</linearGradient>
<linearGradient id="paint24_linear_548_24002" x1="223.663" y1="553.595" x2="275.715" y2="586.498" gradientUnits="userSpaceOnUse">
<stop stop-color="#9084FF"/>
<stop offset="0.49" stop-color="#D08BFC"/>
<stop offset="1" stop-color="#FFC9F8"/>
</linearGradient>
<radialGradient id="paint25_radial_548_24002" cx="0" cy="0" r="1" gradientUnits="userSpaceOnUse" gradientTransform="translate(250.123 565.073) scale(25.0262 25.0262)">
<stop stop-color="#1372B3"/>
<stop offset="1" stop-color="white"/>
</radialGradient>
<linearGradient id="paint26_linear_548_24002" x1="329.426" y1="284.817" x2="352.057" y2="301.947" gradientUnits="userSpaceOnUse">
<stop stop-color="#9084FF"/>
<stop offset="0.49" stop-color="#D08BFC"/>
<stop offset="1" stop-color="#FFC9F8"/>
</linearGradient>
<radialGradient id="paint27_radial_548_24002" cx="0" cy="0" r="1" gradientUnits="userSpaceOnUse" gradientTransform="translate(341.133 291.115) rotate(4.82) scale(11.5397 11.5397)">
<stop stop-color="#1372B3"/>
<stop offset="1" stop-color="white"/>
</radialGradient>
<linearGradient id="paint28_linear_548_24002" x1="582.569" y1="711.823" x2="529.251" y2="710.699" gradientUnits="userSpaceOnUse">
<stop stop-color="#9566FC"/>
<stop offset="1" stop-color="#5445B1"/>
</linearGradient>
<radialGradient id="paint29_radial_548_24002" cx="0" cy="0" r="1" gradientUnits="userSpaceOnUse" gradientTransform="translate(398.696 578.347) scale(56.3709 56.3709)">
<stop stop-color="#FFFFE8"/>
<stop offset="0.2" stop-color="#BBBBAA"/>
<stop offset="0.42" stop-color="#79796E"/>
<stop offset="0.61" stop-color="#45453E"/>
<stop offset="0.78" stop-color="#1F1F1C"/>
<stop offset="0.91" stop-color="#080807"/>
<stop offset="1"/>
</radialGradient>
<radialGradient id="paint30_radial_548_24002" cx="0" cy="0" r="1" gradientUnits="userSpaceOnUse" gradientTransform="translate(555.808 707.407) scale(22.2386 22.2386)">
<stop stop-color="#1372B3"/>
<stop offset="1" stop-color="white"/>
</radialGradient>
<linearGradient id="paint31_linear_548_24002" x1="295.838" y1="455.615" x2="440.668" y2="547.171" gradientUnits="userSpaceOnUse">
<stop stop-color="#9084FF"/>
<stop offset="0.12" stop-color="#9684FE"/>
<stop offset="0.29" stop-color="#AA86FD"/>
<stop offset="0.49" stop-color="#C98AFC"/>
<stop offset="0.53" stop-color="#D08BFC"/>
<stop offset="1" stop-color="#FFC9F8"/>
</linearGradient>
<linearGradient id="paint32_linear_548_24002" x1="297.706" y1="474.915" x2="442.376" y2="474.915" gradientUnits="userSpaceOnUse">
<stop stop-color="#1372B3"/>
<stop offset="1" stop-color="white"/>
</linearGradient>
<linearGradient id="paint33_linear_548_24002" x1="596.117" y1="227.706" x2="667.24" y2="272.67" gradientUnits="userSpaceOnUse">
<stop stop-color="#845FFF"/>
<stop offset="0.49" stop-color="#A972FC"/>
<stop offset="1" stop-color="#D4B0F8"/>
</linearGradient>
<linearGradient id="paint34_linear_548_24002" x1="594.772" y1="245.724" x2="662.488" y2="245.724" gradientUnits="userSpaceOnUse">
<stop stop-color="#1372B3"/>
<stop offset="1" stop-color="white"/>
</linearGradient>
<linearGradient id="paint35_linear_548_24002" x1="550.047" y1="509.101" x2="726.469" y2="509.101" gradientUnits="userSpaceOnUse">
<stop stop-color="#7C52B3"/>
<stop offset="1" stop-color="white"/>
</linearGradient>
<radialGradient id="paint36_radial_548_24002" cx="0" cy="0" r="1" gradientUnits="userSpaceOnUse" gradientTransform="translate(714.527 778.893) rotate(10.24) scale(108.556 108.556)">
<stop stop-color="#FFB8E2"/>
<stop offset="0.22" stop-color="#FCB7E2"/>
<stop offset="0.33" stop-color="#F5B4E5"/>
<stop offset="0.42" stop-color="#E7B0E9"/>
<stop offset="0.49" stop-color="#D5AAEF"/>
<stop offset="0.55" stop-color="#BDA2F7"/>
<stop offset="0.58" stop-color="#AE9DFC"/>
<stop offset="0.64" stop-color="#A896FC"/>
<stop offset="0.72" stop-color="#9982FC"/>
<stop offset="0.81" stop-color="#8063FD"/>
<stop offset="0.91" stop-color="#5E37FE"/>
<stop offset="0.92" stop-color="#5E37FF"/>
<stop offset="0.99" stop-color="#5E9AFF"/>
</radialGradient>
<linearGradient id="paint37_linear_548_24002" x1="797.318" y1="758.561" x2="728.092" y2="805.366" gradientUnits="userSpaceOnUse">
<stop stop-color="#5400B3"/>
<stop offset="1" stop-color="#F2C0FF"/>
</linearGradient>
<linearGradient id="paint38_linear_548_24002" x1="809.522" y1="797.08" x2="724.579" y2="755.761" gradientUnits="userSpaceOnUse">
<stop stop-color="#644FF7"/>
<stop offset="1" stop-color="#9F6DFF"/>
</linearGradient>
<linearGradient id="paint39_linear_548_24002" x1="804.678" y1="789.523" x2="730.517" y2="764.652" gradientUnits="userSpaceOnUse">
<stop stop-color="#392CC2"/>
<stop offset="1" stop-color="#5F33C5"/>
</linearGradient>
<linearGradient id="paint40_linear_548_24002" x1="802.86" y1="793.776" x2="729.496" y2="769.172" gradientUnits="userSpaceOnUse">
<stop stop-color="#5E48F7"/>
<stop offset="1" stop-color="#8C50FF"/>
</linearGradient>
<linearGradient id="paint41_linear_548_24002" x1="744.4" y1="809.145" x2="768.382" y2="737.635" gradientUnits="userSpaceOnUse">
<stop stop-color="#7C52B3"/>
<stop offset="1" stop-color="white"/>
</linearGradient>
<linearGradient id="paint42_linear_548_24002" x1="424.12" y1="184.273" x2="528.269" y2="184.273" gradientUnits="userSpaceOnUse">
<stop stop-color="#7C52B3"/>
<stop offset="1" stop-color="white"/>
</linearGradient>
<linearGradient id="paint43_linear_548_24002" x1="500" y1="25.2371" x2="500" y2="1048.18" gradientUnits="userSpaceOnUse">
<stop stop-color="#27A2D9"/>
<stop offset="0.19" stop-color="#1D78A1"/>
<stop offset="0.39" stop-color="#124E68"/>
<stop offset="0.59" stop-color="#0A2C3B"/>
<stop offset="0.76" stop-color="#04141A"/>
<stop offset="0.9" stop-color="#010507"/>
<stop offset="1"/>
</linearGradient>
<clipPath id="clip0_548_24002">
<rect width="1000" height="1000" fill="white" transform="translate(0 0.334961)"/>
</clipPath>
<clipPath id="clip1_548_24002">
<rect width="799.732" height="799.732" fill="white" transform="translate(100 100)"/>
</clipPath>
</defs>
</svg>
