<svg width="1000" height="1000" viewBox="0 0 1000 1000" fill="none" xmlns="http://www.w3.org/2000/svg">
<g clip-path="url(#clip0_548_24001)">
<path style="mix-blend-mode:screen" d="M499.995 900.326C720.906 900.326 899.99 721.242 899.99 500.331C899.99 279.419 720.906 100.335 499.995 100.335C279.083 100.335 99.999 279.419 99.999 500.331C99.999 721.242 279.083 900.326 499.995 900.326Z" fill="url(#paint0_radial_548_24001)"/>
<path style="mix-blend-mode:screen" d="M764.874 761.492C896.527 629.84 896.527 416.389 764.874 284.737C633.222 153.084 419.771 153.084 288.119 284.737C156.467 416.389 156.467 629.84 288.119 761.492C419.771 893.144 633.222 893.144 764.874 761.492Z" fill="url(#paint1_radial_548_24001)"/>
<path style="mix-blend-mode:screen" d="M496.428 816.202C674.1 816.202 818.133 672.17 818.133 494.497C818.133 316.824 674.1 172.792 496.428 172.792C318.755 172.792 174.723 316.824 174.723 494.497C174.723 672.17 318.755 816.202 496.428 816.202Z" fill="url(#paint2_radial_548_24001)"/>
<path fill-rule="evenodd" clip-rule="evenodd" d="M805.818 568.485L803.526 576.709C803.464 577.09 803.331 577.408 803.207 577.86C796.957 599.283 788.547 619.803 778.216 639.119C761.388 670.545 739.523 698.855 713.576 723.013C683.425 751.066 647.918 773.374 608.711 788.29C573.266 801.737 534.829 809.076 494.603 809.076C488.929 809.076 483.131 808.952 477.518 808.633H477.456C469.038 808.19 460.69 807.42 452.466 806.402C398.466 799.329 348.68 778.863 306.543 748.331C302.586 745.462 298.7 742.532 294.938 739.531C302.329 733.158 317.954 732.52 317.954 732.52L296.212 715.24L241.708 685.912C231.253 672.713 221.817 658.629 213.531 643.775C211.557 640.269 209.645 636.702 207.795 633.063C207.795 632.94 207.671 632.869 207.6 632.745C205.688 628.859 203.838 624.964 202.049 621.077H201.987C196.437 608.773 191.533 596.087 187.576 583.083C184.646 573.708 182.096 564.086 180.051 554.268C179.989 554.206 179.989 554.074 179.989 554.012C178.591 547.186 177.378 540.246 176.422 533.226C174.253 518.31 173.173 503.137 173.173 487.645C173.173 484.078 173.235 480.439 173.368 476.934C173.492 471.64 173.81 466.355 174.324 461.185C174.704 456.024 175.28 450.855 175.917 445.756C175.917 445.375 175.979 445.056 176.041 444.605C176.997 437.461 178.148 430.521 179.609 423.572C181.583 413.559 184.07 403.68 187.062 394.058C191.081 380.54 195.985 367.474 201.793 354.85C207.343 342.607 213.655 330.754 220.728 319.343C242.655 307.738 256.686 301.683 256.686 301.683C256.686 301.683 630.895 227.411 636.693 221.038C642.43 214.726 670.802 218.683 670.802 218.683C688.329 230.217 704.715 243.416 719.693 258.076C723.199 261.458 726.581 265.025 730.024 268.593C732.255 271.018 734.486 273.568 736.655 276.055C740.355 280.26 743.984 284.66 747.49 289.059C760.299 305.383 771.586 322.911 781.023 341.457C784.723 348.601 788.096 355.93 791.221 363.384C791.221 363.446 791.283 363.508 791.283 363.579C820.159 476.544 784.528 572.354 784.528 572.354C792.433 569.68 799.639 568.653 805.818 568.468V568.485Z" fill="url(#paint3_radial_548_24001)"/>
<path fill-rule="evenodd" clip-rule="evenodd" d="M805.818 568.485L803.526 576.709C803.464 577.09 803.331 577.408 803.207 577.86C796.957 599.283 788.547 619.803 778.216 639.119C761.388 670.545 739.523 698.855 713.576 723.013C683.425 751.066 647.918 773.374 608.711 788.29C573.266 801.737 534.829 809.076 494.603 809.076C488.929 809.076 483.131 808.952 477.518 808.633H477.456C469.038 808.19 460.69 807.42 452.466 806.402C398.466 799.329 348.68 778.863 306.543 748.331C302.586 745.462 298.7 742.532 294.938 739.531C302.329 733.158 317.954 732.52 317.954 732.52L296.212 715.24L241.708 685.912C231.253 672.713 221.817 658.629 213.531 643.775C211.557 640.269 209.645 636.702 207.795 633.063C207.795 632.94 207.671 632.869 207.6 632.745C205.688 628.859 203.838 624.964 202.049 621.077H201.987C196.437 608.773 191.533 596.087 187.576 583.083C184.646 573.708 182.096 564.086 180.051 554.268C179.989 554.206 179.989 554.074 179.989 554.012C178.591 547.186 177.378 540.246 176.422 533.226C174.253 518.31 173.173 503.137 173.173 487.645C173.173 484.078 173.235 480.439 173.368 476.934C173.492 471.64 173.81 466.355 174.324 461.185C174.704 456.024 175.28 450.855 175.917 445.756C175.917 445.375 175.979 445.056 176.041 444.605C176.997 437.461 178.148 430.521 179.609 423.572C181.583 413.559 184.07 403.68 187.062 394.058C191.081 380.54 195.985 367.474 201.793 354.85C207.343 342.607 213.655 330.754 220.728 319.343C242.655 307.738 256.686 301.683 256.686 301.683C256.686 301.683 630.895 227.411 636.693 221.038C642.43 214.726 670.802 218.683 670.802 218.683C688.329 230.217 704.715 243.416 719.693 258.076C723.199 261.458 726.581 265.025 730.024 268.593C732.255 271.018 734.486 273.568 736.655 276.055C740.355 280.26 743.984 284.66 747.49 289.059C760.299 305.383 771.586 322.911 781.023 341.457C784.723 348.601 788.096 355.93 791.221 363.384C791.221 363.446 791.283 363.508 791.283 363.579C820.159 476.544 784.528 572.354 784.528 572.354C792.433 569.68 799.639 568.653 805.818 568.468V568.485Z" fill="url(#paint4_radial_548_24001)"/>
<path fill-rule="evenodd" clip-rule="evenodd" d="M796.639 487.654C796.639 499.065 796.002 510.281 794.727 521.311C792.877 538.458 789.566 555.162 784.848 571.291C784.786 571.672 784.653 571.991 784.529 572.371C778.66 592.52 770.755 611.765 761.07 629.939C745.26 659.452 724.669 686.036 700.316 708.734C672.015 735.123 638.606 756.103 601.824 770.063C568.486 782.749 532.404 789.636 494.595 789.636C489.239 789.636 483.822 789.512 478.528 789.193H478.466C470.561 788.813 462.718 788.042 455.007 787.086C404.265 780.456 357.533 761.202 317.946 732.52C312.014 728.315 306.278 723.783 300.736 719.135C299.205 717.861 297.674 716.586 296.213 715.249C281.872 702.82 268.735 688.922 257.006 673.944C247.188 661.515 238.327 648.316 230.546 634.356C228.696 631.045 226.907 627.664 225.128 624.282C225.128 624.158 225.066 624.087 225.004 623.963C223.154 620.334 221.437 616.695 219.772 612.995H219.71C214.488 601.46 209.893 589.536 206.193 577.293C203.387 568.494 201.032 559.447 199.12 550.267C199.058 550.205 199.058 550.072 199.058 550.01C197.721 543.575 196.57 537.068 195.676 530.5C193.64 516.477 192.613 502.199 192.613 487.663C192.613 484.281 192.675 480.909 192.808 477.589C192.932 472.614 193.251 467.648 193.702 462.796C194.083 457.954 194.596 453.103 195.234 448.323C195.234 447.942 195.296 447.623 195.358 447.243C196.252 440.55 197.332 433.982 198.668 427.484C200.518 418.048 202.873 408.806 205.679 399.75C209.442 387.064 214.098 374.759 219.516 362.906C225.385 349.964 232.139 337.535 239.726 325.611C244.958 317.325 250.623 309.358 256.687 301.701C265.106 290.865 274.277 280.667 284.103 271.098C338.483 218.187 412.746 185.61 494.604 185.61C497.791 185.61 500.978 185.672 504.103 185.734C507.484 185.858 510.857 185.991 514.239 186.248C523.613 186.885 532.917 187.903 542.035 189.372C542.159 189.372 542.23 189.434 542.354 189.434C550.002 190.585 557.527 192.108 564.919 193.896C574.479 196.189 583.854 198.871 593.034 202.058C599.284 204.165 605.401 206.52 611.456 209.069C615.979 210.981 620.379 212.955 624.778 215.062C625.54 215.443 626.31 215.761 627.071 216.142C656.399 230.483 682.983 249.356 706.052 271.983C709.363 275.17 712.55 278.49 715.746 281.862C717.853 284.155 719.951 286.519 721.995 288.873C725.501 292.822 728.883 296.973 732.193 301.116C744.242 316.413 754.82 332.861 763.681 350.327C774.074 370.599 782.236 392.207 787.778 414.843C791.345 429.122 793.833 443.782 795.24 458.769C796.196 468.267 796.639 477.89 796.639 487.645V487.654Z" fill="url(#paint5_radial_548_24001)"/>
<path style="mix-blend-mode:screen" fill-rule="evenodd" clip-rule="evenodd" d="M347.141 367.297C347.141 367.297 339.129 385.108 345.804 403.184C352.479 421.261 371.202 409.266 393.545 403.184C415.889 397.103 438.843 373.609 453.334 359.091C467.826 344.564 481.715 324.637 480.511 305.312C479.307 285.988 458.902 273.293 458.902 273.293C458.902 273.293 466.321 263.83 460.089 301.701C453.856 339.571 445.376 353.08 437.276 359.091C429.176 365.101 404.513 379.478 391.066 387.507C377.62 395.536 362.597 403.893 353.683 401.945C344.777 399.998 340.077 379.991 347.141 367.306V367.297Z" fill="url(#paint6_radial_548_24001)"/>
<path style="mix-blend-mode:screen" fill-rule="evenodd" clip-rule="evenodd" d="M388.074 354.257C388.074 354.257 376.637 364.411 379.656 372.608C382.674 380.806 404.416 375.556 418.305 357.949C432.195 340.341 421.218 326.124 421.218 326.124C421.218 326.124 416.119 355.505 402.601 360.675C389.084 365.836 384.684 363.667 384.684 363.667C384.684 363.667 382.586 361.304 388.066 354.257H388.074Z" fill="url(#paint7_radial_548_24001)"/>
<path style="mix-blend-mode:screen" fill-rule="evenodd" clip-rule="evenodd" d="M353.426 366.943C353.426 366.943 364.562 354.319 377.239 342.492C389.924 330.675 411.869 326.116 411.869 326.116C411.869 326.116 399.06 319.326 382.648 328.878C366.235 338.429 353.426 366.943 353.426 366.943Z" fill="url(#paint8_radial_548_24001)"/>
<path style="mix-blend-mode:screen" fill-rule="evenodd" clip-rule="evenodd" d="M307.934 367.173C307.934 367.173 333.756 338.482 365.155 326.124C396.564 313.766 407.435 310.146 421.324 298.673C435.213 287.2 450.9 278.012 450.9 278.012C450.9 278.012 420.332 279.57 373.618 309.163C326.904 338.757 307.81 357.55 307.942 367.173H307.934Z" fill="url(#paint9_radial_548_24001)"/>
<path style="mix-blend-mode:screen" fill-rule="evenodd" clip-rule="evenodd" d="M244.957 361.463C244.957 361.463 289.662 316.785 324.691 299.275C359.72 281.765 383.276 270.283 414.675 262.431C446.084 254.579 494.621 240.885 494.621 240.885L503.385 236.485C503.385 236.485 403.521 238.503 337.978 278.012C272.435 317.52 244.957 361.463 244.957 361.463Z" fill="url(#paint10_radial_548_24001)"/>
<path style="mix-blend-mode:screen" fill-rule="evenodd" clip-rule="evenodd" d="M298.559 412.975C298.559 412.975 306.004 474.676 316.742 477.456C327.471 480.227 365.952 479.944 423.148 450.695C480.334 421.447 491.957 428.21 524.003 395.625C556.057 363.039 569.035 326.062 578.959 301.701C588.882 277.339 591.786 249.533 588.687 240.885C588.687 240.885 599.487 247.329 599.487 271.487C599.487 295.646 592.237 336.234 581.977 359.719C571.708 383.213 545.134 420.048 513.132 438.169C481.122 456.29 417.11 491.08 354.294 490.593C291.486 490.106 301.409 485.565 294.938 473.039C288.467 460.513 298.559 412.966 298.559 412.966V412.975Z" fill="url(#paint11_radial_548_24001)"/>
<g style="mix-blend-mode:multiply" opacity="0.5">
<path fill-rule="evenodd" clip-rule="evenodd" d="M200.651 465.665C200.651 465.665 211.876 490.54 218.161 513.282C224.447 536.015 223.243 574.673 249.207 580.711C275.18 586.748 311.413 603.656 325.302 599.433C339.191 595.202 390.482 586.004 418.916 591.581C447.35 597.158 499.243 593.998 517.355 584.942C535.476 575.886 574.479 552.622 593.025 545.531C611.571 538.44 637.181 518.248 659.25 495.825C681.319 473.393 681.018 447.854 686.453 435.168C691.889 422.483 702.759 371.758 701.555 348.804C700.351 325.859 686.453 282.978 686.453 282.978L673.538 269.327C673.538 269.327 689.472 328.276 682.231 369.944C674.981 411.612 681.629 428.529 652.637 468.382C623.645 508.245 583.181 539.644 537.892 554.746C492.595 569.849 463.559 568.025 416.499 572.389C372.583 576.461 317.954 573.345 296.213 567.689C276.702 562.607 250.42 549.532 230.493 517.717C210.566 485.901 200.66 465.674 200.66 465.674L200.651 465.665Z" fill="#7D72B3"/>
</g>
<g style="mix-blend-mode:multiply" opacity="0.4">
<path fill-rule="evenodd" clip-rule="evenodd" d="M300.542 400.431C300.542 400.431 304.702 467.435 313.227 473.207C321.752 478.979 339.802 481.36 356.71 475.624C373.618 469.887 431.601 450.863 441.56 444.826C451.528 438.789 512.574 408.292 524.605 399.227C536.626 390.171 552.685 357.949 558.12 351.256C563.555 344.573 578.348 304.71 582.579 289.608C586.811 274.506 589.829 256.394 589.829 256.394C589.829 256.394 591.033 247.94 583.792 245.222C576.542 242.505 575.347 245.222 575.347 245.222C575.347 245.222 573.824 255.19 567.486 283.872C561.147 312.562 475.686 411.001 432.504 436.664C389.322 462.327 348.256 463.239 333.455 461.424C318.654 459.61 300.241 411.904 300.542 400.431Z" fill="#7D72B3"/>
</g>
<g style="mix-blend-mode:multiply" opacity="0.4">
<path fill-rule="evenodd" clip-rule="evenodd" d="M298.559 412.975C298.559 412.975 300.338 371.254 311.111 357.249C321.885 343.245 358.047 314.368 379.425 303.498C400.804 292.627 431.938 277.215 442.773 274.922C453.609 272.629 461.239 274.922 461.239 274.922C461.239 274.922 448.209 267.867 418.314 275.418C388.419 282.969 354.603 310.765 338.288 319.361C321.982 327.957 296.62 348.795 290.574 359.365C284.537 369.935 298.559 412.975 298.559 412.975Z" fill="#7D72B3"/>
</g>
<g style="mix-blend-mode:multiply" opacity="0.4">
<path fill-rule="evenodd" clip-rule="evenodd" d="M225.084 368.988L317.751 287.793L375.15 261.821C375.15 261.821 431.894 242.54 457.867 236.476C483.84 230.412 542.115 228.597 542.115 228.597L572.665 231.917C572.665 231.917 519.497 202.926 440.95 224.065C362.402 245.205 310.2 271.602 287.246 293.282C264.3 314.961 229.652 358.374 225.075 368.979L225.084 368.988Z" fill="#7D72B3"/>
</g>
<path style="mix-blend-mode:screen" fill-rule="evenodd" clip-rule="evenodd" d="M222.491 372.608C222.491 372.608 172.705 432.698 196.863 469.675C221.021 506.651 231.706 559.978 238.708 572.38C245.711 584.783 325.869 603.426 342.511 599.575C359.154 595.724 399.078 585.252 425.202 595.361C425.202 595.361 471.456 591.378 484.743 591.378C498.03 591.378 522.189 580.109 527.828 577.285C533.467 574.461 564.866 564.404 580.977 557.96C597.08 551.515 622.849 531.385 633.322 523.338C643.794 515.282 671.166 482.67 676.406 472.605C681.638 462.54 697.316 403.751 701.37 375.972C705.424 348.193 693.482 294.636 684.462 276.126C675.441 257.607 647.016 240.292 647.016 240.292L648.672 231.917L670.82 218.709C670.82 218.709 709.426 269.327 713.055 313.041C715.18 338.668 721.111 393.35 714.365 416.808C708.948 435.646 690.508 491.027 674.406 510.803C658.303 530.588 609.987 581.073 584.217 590.855C558.448 600.637 482.441 613.819 437.666 614.73C404.664 615.403 331.968 609.499 296.24 608.295C260.512 607.082 234.964 584.694 220.764 573.345C206.565 561.988 211.39 531.084 196.898 506.678C182.407 482.272 174.422 449.81 178.007 432.141C181.601 414.471 222.526 372.617 222.526 372.617L222.491 372.608Z" fill="url(#paint12_radial_548_24001)"/>
<path fill-rule="evenodd" clip-rule="evenodd" d="M309.916 601.381C302.268 599.593 295.38 595.388 287.794 593.476C283.527 592.458 279.313 591.82 275.108 590.607C270.904 589.395 266.123 588.571 261.786 588.377C252.986 588.058 243.868 586.022 238.265 578.559C233.29 571.867 230.236 564.98 227.934 556.951C224.933 546.239 222.065 535.528 218.754 524.825C215.691 514.946 211.486 506.209 206.007 497.409C203.838 493.904 201.988 490.398 199.633 487.017C197.464 483.954 194.472 481.024 192.808 477.58L192.746 477.518C188.541 468.595 187.071 458.716 187.328 449.022C187.452 443.79 188.921 438.886 190.072 433.787C191.604 427.352 193.259 421.677 196.579 415.87C199.642 410.576 202.634 405.159 205.697 399.741C212.522 387.755 219.657 375.769 228.138 364.995C239.044 351.292 251.216 338.217 263.521 325.788C270.665 318.52 278.756 312.146 286.917 306.091C293.805 300.992 300.178 295.38 306.995 290.219C318.724 281.296 332.109 275.489 345.246 269.115C361.118 261.466 376.991 254.066 393.5 248.011C413.073 240.867 433.212 235.201 453.617 231.05C476.89 226.331 501.429 225.375 525.144 225.499C538.149 225.561 552.047 223.906 564.476 228.748C571.487 231.492 579.649 234.228 585.766 238.441C587.164 239.397 587.802 239.592 588.696 240.867C589.271 241.628 589.59 242.655 589.909 243.54C590.865 245.771 592.015 249.471 592.015 251.826C592.015 254.438 590.865 256.739 590.865 259.475C590.927 263.361 589.909 266.866 589.785 270.691C589.59 275.09 588.51 278.534 587.872 282.801C586.598 290.706 585.447 298.292 582.393 305.746C577.931 316.52 575.001 327.868 570.088 338.509C568.619 341.758 566.007 344.245 564.538 347.494C563.139 350.424 561.864 352.85 560.2 355.656C557.075 360.888 554.525 366.305 550.958 371.272C543.566 381.47 536.042 392.376 526.286 400.467C514.495 410.284 501.615 418.127 488.097 425.333C479.298 429.99 470.118 433.752 461.195 438.213C453.227 442.162 445.26 446.243 437.222 450.005C416.57 459.627 394.633 466.771 372.963 473.526C366.713 475.5 360.853 477.607 354.408 478.501C348.548 479.333 341.723 481.245 335.792 481.112C329.418 480.917 322.725 479.457 316.732 477.412C306.402 473.968 305.384 462.752 304.622 453.44C304.047 446.685 303.286 439.355 301.949 432.725C300.931 427.174 300.479 421.695 299.205 416.082C297.93 410.408 297.098 404.61 297.036 398.803C296.912 391.411 299.78 384.462 301.435 377.256C302.515 372.599 303.029 367.819 304.941 363.358C307.685 356.851 312.908 351.247 318.069 346.591C323.363 341.873 328.586 337.216 333.818 332.436C336.942 329.506 340.643 327.337 343.953 324.655C349.752 319.999 356.196 316.369 362.827 312.987C368.059 310.243 371.883 305.914 376.725 302.727C381.7 299.479 387.375 296.035 392.659 293.353C397.316 291.06 402.353 289.467 407.195 287.554C411.143 286.023 414.782 283.73 418.801 282.394C422.501 281.119 426.325 280.738 429.955 279.207C433.522 277.737 436.904 276.4 440.604 275.444C444.747 274.426 449.403 272.7 453.608 272.576C461.894 272.452 465.975 276.595 468.082 284.624C471.012 295.592 467.639 304.834 463.682 314.97C460.495 323.132 456.99 331.223 453.865 339.518C449.722 350.548 439.905 356.346 431.619 363.871C422.881 371.776 412.108 378.849 401.406 383.63C398.024 385.161 394.394 386.055 391.075 387.454C388.207 388.729 385.4 390.322 382.532 391.853C380.682 392.871 379.345 394.341 377.619 395.483C376.088 396.501 374.3 397.076 372.706 398.094C368.882 400.644 364.863 403.131 360.658 404.982C356.577 406.832 348.486 407.912 345.804 403.131C344.396 400.706 344.591 397.333 343.953 394.589C343.192 391.34 343.059 388.401 343.059 385.028C343.059 381.655 343.697 379.159 344.21 375.91C344.724 372.785 346.122 370.298 347.14 367.244C350.203 358.577 356.196 352.133 361.481 344.998C364.792 340.474 367.669 336.012 371.555 331.799C377.292 325.682 385.392 322.619 393.483 320.583C400.75 318.795 411.586 316.635 418.278 320.839C423.953 324.345 419.996 332.055 418.154 336.774C417.136 339.385 416.047 342.068 415.162 344.741C414.525 346.715 414.268 348.946 413.126 350.858C410.771 354.806 406.115 357.55 402.609 360.613C401.016 361.95 398.467 363.862 396.554 364.5C394.129 365.261 391.517 365.199 389.092 365.774C387.879 366.031 387.242 367.562 385.781 366.987C384.444 366.544 384.444 365.013 384.701 363.605C384.958 362.331 385.533 361.056 385.781 359.843C385.843 359.586 385.524 359.144 385.586 358.825C386.604 355.063 391.385 350.345 393.553 347.158C396.997 348.556 394.633 350.601 393.996 352.133C393.553 353.407 393.615 354.62 393.297 355.957C393.04 357.037 391.385 359.02 392.597 360.162C393.43 360.994 396.227 359.524 397.121 359.206C404.513 356.594 409.293 348.494 411.595 341.165C413.064 336.384 412.807 328.098 407.514 325.992C403.566 324.46 398.776 325.292 394.633 325.23C379.655 324.974 370.794 340.979 362.827 351.301C357.409 358.312 353.266 366.279 350.203 374.565C348.034 380.301 347.14 386.232 345.609 392.03C344.458 396.297 343.059 402.866 349.628 401.972C353.452 401.396 357.595 399.36 361.233 398.147C364.42 397.067 367.226 395.917 370.219 394.323C374.937 391.774 380.231 391.074 385.135 388.906C388.959 387.188 392.845 385.081 396.67 383.231C406.549 378.451 416.18 368.696 423.059 360.286C427.644 354.611 434.213 350.345 439.444 345.175C444.924 339.757 447.863 333.003 451.616 326.372C455.379 319.618 457.291 313.111 458.946 305.658C460.478 299.027 464.426 291.503 462.39 284.624C460.221 277.48 451.041 277.356 445.119 278.375C440.206 279.207 434.788 280.03 430.14 281.88C421.474 285.324 412.931 289.024 404.318 292.53C390.738 298.142 379.452 307.384 367.023 314.97C360.711 318.795 353.895 321.725 348.026 326.319C343.688 329.701 339.545 333.649 335.402 337.349C332.472 340.023 329.984 342.9 326.736 345.192C322.469 348.185 318.193 351.504 315.006 355.647C312.395 359.029 309.394 363.039 307.933 367.12C306.853 370.369 307.871 373.432 308.057 376.742C308.314 381.266 307.039 385.48 306.844 389.941C306.65 394.66 306.844 399.502 306.906 404.22C306.906 413.462 305.508 422.456 305.693 431.822C305.817 437.558 307.092 443.613 308.243 449.288C309.137 453.811 310.987 457.706 311.306 462.354C311.43 465.284 311.943 469.303 314.555 471.215C315.829 472.171 317.485 472.428 318.954 473.003C320.291 473.517 321.504 473.959 322.779 474.34C323.478 474.597 324.248 474.721 325.009 474.977C325.585 475.296 326.027 476.128 326.603 476.376C328.134 477.013 330.427 476.633 332.02 476.314C335.721 475.615 339.35 474.721 343.051 474.083C352.292 472.49 361.667 472.685 370.466 469.365C380.602 465.541 390.039 460.061 400.042 455.98C415.021 449.863 431.088 445.402 445.429 437.682C451.864 434.177 458.557 430.928 465.187 427.927C480.935 420.854 497.445 415.118 511.282 404.468C516.575 400.387 520.585 395.731 525.118 390.95C527.667 388.206 530.412 385.79 532.704 382.789C539.459 373.989 545.965 364.429 551.126 354.611C553.357 350.468 554.694 345.945 556.995 341.802C560.563 335.366 564.9 329.692 568.211 323.061C571.46 316.555 573.372 310.057 575.541 303.17C576.878 298.965 577.834 295.522 577.71 291.06C577.586 282.137 578.542 274.418 582.11 266.264C584.084 261.803 586.89 255.172 585.42 250.135C584.659 247.648 581.083 247.01 578.914 246.311C573.815 244.594 568.521 243.319 563.617 241.15C559.093 239.114 555.836 236.751 550.869 235.856C548.957 235.476 547.231 235.219 545.319 235.281C540.539 235.538 536.396 238.849 531.615 238.663C530.022 238.601 528.942 238.087 527.278 237.769C524.79 237.326 522.117 237.645 519.691 237.574C514.212 237.379 508.918 236.361 503.367 236.423C496.87 236.485 490.487 237.06 483.99 237.441C477.935 237.76 471.818 237.246 465.754 237.441C461.867 237.565 459.442 239.353 455.998 240.885C452.873 242.283 449.368 242.859 446.119 244.071C443.251 245.222 440.569 246.24 437.514 246.364C433.239 246.426 428.972 245.789 424.829 246.683C419.854 247.834 414.436 249.932 409.78 251.906C396.2 257.704 383.01 264.972 368.917 269.434C362.092 271.54 355.081 272.497 348.451 275.17C345.963 276.188 343.794 277.976 341.563 279.437C337.102 282.429 332.445 285.173 327.86 288.041C317.6 294.548 307.845 301.683 298.089 308.951C286.617 317.493 275.648 326.036 266.15 336.871C249.578 355.93 232.298 375.184 217.957 396.032C211.132 405.849 203.484 416.428 198.641 427.396C198.517 427.652 198.447 427.838 198.323 428.095C195.649 434.407 194.242 441.037 195.136 447.854C195.136 447.978 195.136 448.11 195.198 448.234C195.959 453.847 198.385 460.477 200.615 465.576C202.846 470.675 204.696 476.093 207.565 480.944C210.69 486.238 215.027 490.637 217.32 496.374C220.064 503.447 222.552 511.033 224.65 518.363C227.394 527.605 229.492 537.165 231.218 546.602C232.369 552.471 233.325 558.394 236.06 563.749C239.947 571.274 248.241 574.08 254.996 578.48C258.563 580.834 261.051 581.605 265.388 581.79C271.444 582.109 277.18 583.579 282.987 585.296C295.354 589.12 307.721 591.926 320.725 591.732C328.435 591.67 335.774 589.563 343.352 588.607C350.425 587.713 357.507 587.013 364.518 585.863C370.891 584.845 377.141 583.056 383.639 583.056C389.756 583.056 396.767 584.074 402.698 585.73C413.347 588.66 423.731 591.023 434.823 590.572C441.578 590.377 448.208 588.855 454.901 588.403C461.212 588.023 467.205 588.979 473.455 589.421C484.547 590.121 495.197 587.385 505.519 584.004C512.592 581.711 518.461 578.329 524.773 574.567C529.872 571.575 534.785 570.681 540.388 569.211C551.356 566.281 562.254 562.262 572.204 556.65C585.208 549.258 595.919 538.352 608.543 530.447C615.687 525.985 623.716 523.055 630.665 518.275C636.401 514.388 641.819 509.856 646.67 504.952C652.344 499.215 657.7 493.222 663.375 487.486C667.712 483.086 669.43 477.607 671.979 472.118C675.803 464.018 677.14 455.67 678.548 446.871C680.017 438.205 683.841 430.547 687.604 422.518C692.384 412.258 696.465 402.627 697.483 391.154C698.315 382.55 699.457 373.874 699.457 365.208C699.457 359.657 698.501 354.24 697.802 348.76C697.102 343.661 696.084 338.748 694.995 333.711C693.597 327.523 693.783 321.149 692.641 314.908C691.623 309.553 689.967 303.878 688.498 298.585C687.48 294.822 686.072 290.936 684.549 287.369C681.743 281.057 678.043 274.488 673.519 269.203C671.607 266.973 669.182 266.273 667.022 264.68C665.366 263.405 664.986 262.325 663.074 261.369C660.391 260.032 657.718 258.696 655.106 257.226C650.902 254.801 646.121 254.101 641.907 251.808C637.888 249.64 634.259 246.771 630.435 244.346C626.097 241.602 621.697 239.76 617.944 236.184C614.244 232.616 611.827 228.084 608.251 224.517C604.612 220.816 599.389 218.4 595.247 215.213C588.041 209.6 579.56 209.158 571.469 205.714C567.326 203.926 563.369 203.678 559.04 202.784C554.127 201.766 550.816 198.765 545.593 198.19C540.937 197.676 536.352 197.614 531.828 196.339C529.084 195.64 526.534 195.003 523.799 194.746C518.381 194.232 513.149 195.003 507.794 195.578C503.075 196.091 498.295 195.835 493.577 195.835C489.629 195.835 485.477 196.215 481.529 195.578C470.313 193.861 458.008 194.047 446.659 194.817C435.824 195.578 425.236 196.348 414.976 199.916C406.239 202.908 397.634 205.466 389.092 208.972C383.232 211.326 378.124 214.584 372.644 217.638C359.445 225.03 347.335 234.086 334.774 242.505C320.751 251.808 307.552 262.139 294.035 272.275C285.236 278.906 276.312 285.474 267.646 292.29C263.884 295.283 260.254 298.408 256.678 301.594C265.096 290.759 274.267 280.561 284.094 270.992C338.474 218.081 412.737 185.504 494.595 185.504C497.782 185.504 500.968 185.566 504.093 185.628C507.475 185.752 510.848 185.885 514.229 186.141C523.604 186.779 532.908 187.797 542.026 189.266C542.15 189.266 542.221 189.328 542.345 189.328C552.737 192.134 563.059 195.127 573.39 198.251C581.994 200.863 590.661 203.227 599.142 206.157C604.754 208.069 610.234 210.556 615.651 212.787C620.556 214.894 625.982 216.673 630.568 219.294C638.03 223.499 644.97 229.111 651.858 234.21C656.443 237.653 660.719 241.602 664.862 245.621C670.66 251.295 675.892 257.607 680.292 264.361C690.622 280.366 698.846 298.469 702.732 317.077C706.043 332.764 705.601 349.778 704.963 365.783C704.644 374.326 703.113 383.7 701.396 392.11C699.483 401.352 696.235 409.957 695.279 419.526C694.836 424.182 695.597 428.963 694.836 433.548C694.199 437.31 692.8 440.94 692.03 444.702C690.436 452.669 688.082 460.389 684.381 467.718C679.406 477.731 672.652 486.016 665.446 494.621C657.346 504.243 648.68 513.494 640.261 522.922C631.78 532.421 621.582 540.069 610.685 546.576C602.204 551.675 593.538 557.792 584.296 561.368C575.63 564.812 565.812 569.716 556.438 570.743C549.303 571.442 543.628 574.124 537.821 578.453C534.315 581.003 531.704 584.446 528.446 587.19C525.516 589.678 522.073 590.439 518.567 591.652C510.219 594.458 502.057 593.821 493.32 593.821C480.891 593.821 468.648 595.034 456.282 596.308C450.032 596.946 443.853 597.459 437.603 597.07C431.991 596.751 426.449 595.281 420.899 594.582C414.72 593.821 408.532 593.688 402.415 592.732C397.572 591.9 393.748 591.838 388.835 592.475C384.887 592.918 380.93 592.475 376.982 592.794C372.901 593.175 368.882 594.069 364.81 594.644C346.255 597.194 328.851 605.736 309.925 601.275L309.916 601.381Z" fill="#00C4FF"/>
<path style="mix-blend-mode:screen" fill-rule="evenodd" clip-rule="evenodd" d="M294.929 739.522C294.929 739.522 365.633 751.942 397.767 751.013C446.349 749.605 502.341 755.643 545.824 756.855C589.306 758.059 665.304 722.411 679.194 715.878C693.083 709.345 726.616 690.197 755.891 657.735C785.166 625.273 796.718 572.371 796.718 572.371H784.511C784.511 572.371 779.881 595.273 762.229 620.98C751.642 636.401 736.079 649.91 714.825 668.278C684.248 694.703 644.439 715.046 604.302 725.049C550.878 738.372 503.385 734.68 470.631 739.567C423.209 746.631 317.927 729.882 317.927 729.882L294.911 739.531L294.929 739.522Z" fill="url(#paint13_radial_548_24001)"/>
<path fill-rule="evenodd" clip-rule="evenodd" d="M276.269 704.511C276.269 704.511 287.547 733.839 294.929 739.522C294.929 739.522 310.457 740.478 317.946 732.511L296.204 715.231L276.269 704.502V704.511Z" fill="url(#paint14_radial_548_24001)"/>
<path fill-rule="evenodd" clip-rule="evenodd" d="M797.64 517.699C797.64 517.699 805.2 550.834 805.819 568.485C805.819 568.485 794.019 575.921 784.529 572.371C784.529 572.371 795.666 531.845 797.64 517.699Z" fill="url(#paint15_radial_548_24001)"/>
<path fill-rule="evenodd" clip-rule="evenodd" d="M593.025 202.058C593.025 202.058 656.046 208.379 670.803 218.701C670.803 218.701 660.374 230.377 648.654 231.908C648.654 231.908 597.549 203.563 593.025 202.058Z" fill="#FF61C7"/>
<path fill-rule="evenodd" clip-rule="evenodd" d="M220.729 319.361L246.56 315.289L256.678 301.701C256.678 301.701 238.15 309.854 220.72 319.361H220.729Z" fill="#FF61C7"/>
<g style="mix-blend-mode:multiply" opacity="0.5">
<path fill-rule="evenodd" clip-rule="evenodd" d="M241.7 685.912C241.7 685.912 363.952 721.402 459.372 723.225C554.792 725.049 590.644 703.785 631.905 687.842C673.166 671.899 740.913 635.303 761.336 608.286C781.767 581.268 797.631 517.699 797.631 517.699C797.631 517.699 778.014 613.048 761.061 629.939C744.1 646.829 668.333 697.863 655.045 704.511C641.758 711.159 605.658 738.566 540.362 730.936C540.362 730.936 496.472 737.123 480.582 735.911C464.692 734.707 440.047 750.721 394.749 736.07C394.749 736.07 331.729 732.892 317.946 729.873C304.163 726.855 241.7 685.912 241.7 685.912Z" fill="#54469B"/>
</g>
<path fill-rule="evenodd" clip-rule="evenodd" d="M271.391 557.606C271.391 557.606 372.715 575.169 446.119 567.671C519.523 560.173 559.217 541.848 580.153 528.154C601.089 514.468 642.111 470.631 657.461 450.686C672.803 430.733 680.548 380.868 680.548 380.868C680.548 380.868 683.319 429.582 670.793 450.686C658.267 471.791 615.2 511.918 597.628 523.577C580.056 535.236 529.686 562.891 503.385 567.671C477.085 572.442 433.673 585.747 402.238 579.985C370.794 574.213 294.566 575.195 271.391 557.615V557.606Z" fill="#B04FE2"/>
<path fill-rule="evenodd" clip-rule="evenodd" d="M411.869 719.817C411.869 719.817 517.354 712.558 553.587 704.511C589.82 696.456 637.473 676.856 670.793 664.631C704.113 652.406 729.29 628.221 747.649 614.783C766.018 601.345 789.566 545.522 789.566 545.522C789.566 545.522 774.543 600.867 751.474 618.926C728.404 636.985 669.359 670.075 602.647 699.678C528.508 732.573 470.844 723.225 411.86 719.817H411.869Z" fill="#8B40E0"/>
<path fill-rule="evenodd" clip-rule="evenodd" d="M779.421 587.359C781.077 582.322 782.865 577.347 784.52 572.38C778.651 592.528 770.746 611.774 761.061 629.948L760.866 630.142C758.06 632.887 754.617 635.055 752.005 638.047C749.332 641.04 746.968 644.041 744.1 646.847C730.335 660.488 714.586 672.218 698.324 682.805C681.62 693.702 664.924 704.033 646.626 712C632.604 718.117 618.254 723.349 603.4 727.111C591.476 730.174 578.728 731.511 566.424 732.087C560.174 732.405 554.057 733.423 547.869 733.999C540.159 734.831 532.253 734.698 524.667 736.035C511.539 738.46 498.021 740.178 484.698 740.877C473.288 741.514 461.939 743.108 450.528 743.108C435.868 743.046 421.333 740.753 406.664 740.815C392.447 740.939 378.107 740.301 363.952 739.027C355.471 738.195 347.185 736.601 338.837 735.645C331.764 734.813 324.939 733.29 317.928 732.52C311.997 728.315 306.26 723.783 300.719 719.135C299.187 717.861 297.656 716.586 296.195 715.249C304.224 717.799 312.2 720.543 320.292 723.092C331.64 726.66 344.388 728.767 356.25 730.236C365.943 731.449 377.602 732.343 387.171 729.918C397.113 727.43 404.513 730.617 413.56 734.317C417.765 736.035 422.041 736.867 426.441 738.142C432.628 739.93 437.214 739.54 443.526 738.717C449.076 738.018 454.875 737.062 460.416 735.849C465.134 734.831 469.658 732.919 474.438 732.281C482.724 731.263 491.523 730.05 499.809 731.52C509.37 733.175 518.868 734.131 528.5 732.6C538.512 730.945 547.816 729.988 557.952 729.927C561.395 729.927 564.202 730.245 567.512 730.821C571.213 731.458 574.656 730.44 578.286 730.059C584.916 729.36 590.715 728.404 597.159 726.43C603.019 724.58 608.632 721.968 614.368 719.799C625.584 715.594 635.72 711.452 645.67 704.688C654.018 699.076 663.269 695.128 671.741 689.71C679.84 684.478 687.038 677.919 695.323 672.944C704.061 667.65 712.028 661.152 720.376 655.221C725.669 651.459 730.388 646.997 735.673 643.173C740.267 639.862 745.295 637.242 749.571 633.48C756.901 627.23 763.726 620.475 768.506 611.995C772.968 604.152 776.668 595.928 779.403 587.385L779.421 587.359Z" fill="#00C4FF"/>
<path fill-rule="evenodd" clip-rule="evenodd" d="M455.786 419.491C455.786 419.491 528.659 359.834 559.28 301.692C559.28 301.692 474.35 388.941 455.786 419.491Z" fill="#FF77F4"/>
<path fill-rule="evenodd" clip-rule="evenodd" d="M379.151 490.602C379.151 490.602 425.193 490.903 476.112 469.666C527.022 448.438 552.561 404.636 552.561 404.636C552.561 404.636 518.116 437.558 480.6 455.98C443.083 474.402 414.694 478.899 379.16 490.593L379.151 490.602Z" fill="#EA9CF4"/>
<path fill-rule="evenodd" clip-rule="evenodd" d="M561.111 394.128C561.111 394.128 566.272 380.983 575.93 357.94C585.597 334.897 593.201 322.548 593.201 322.548C593.201 322.548 590.085 357.71 561.111 394.128Z" fill="#EA9CF4"/>
<path fill-rule="evenodd" clip-rule="evenodd" d="M363.394 611.951C363.394 611.951 427.37 627.495 510.706 611.951C594.052 596.406 597.672 591.333 620.626 573.336C643.572 555.34 659.887 532.288 668.943 523.577C677.999 514.875 689.401 484.644 689.401 484.644C689.401 484.644 665.836 527.003 632.055 555.366C598.274 583.72 570.495 597.619 513.725 606.073C456.955 614.527 391.712 613.633 363.394 611.951Z" fill="#D374F4"/>
<path fill-rule="evenodd" clip-rule="evenodd" d="M419.518 750.836C419.518 750.836 477.492 755.837 501.039 760.671C524.596 765.504 569.884 765.327 595.857 755.749C621.83 746.171 673.272 718.631 673.272 718.631C673.272 718.631 625.265 745.569 568.079 751.606C510.892 757.643 476.102 747.985 419.518 750.827V750.836Z" fill="#D374F4"/>
<path fill-rule="evenodd" clip-rule="evenodd" d="M690.118 710.194C690.118 710.194 726.918 685.487 744.976 669.084C744.976 669.084 725.705 695.455 690.118 710.194Z" fill="#D374F4"/>
<path fill-rule="evenodd" clip-rule="evenodd" d="M410.515 395.625C410.515 395.625 452.519 364.013 465.842 341.173C479.174 318.325 480.502 305.312 480.502 305.312C480.502 305.312 486.433 327.532 461.221 355.78C436.01 384.028 410.506 395.625 410.506 395.625H410.515Z" fill="#F2C4F8"/>
<path style="mix-blend-mode:screen" opacity="0.5" fill-rule="evenodd" clip-rule="evenodd" d="M312.412 373.555C309.013 388.968 305.569 404.636 310.801 419.491C316.033 434.345 324.089 444.012 331.737 444.817C339.386 445.623 350.664 427.502 350.256 422.27C349.858 417.038 337.774 403.344 336.969 389.658C336.163 375.972 351.08 355.833 350.265 348.185C349.451 340.536 318.007 348.185 312.403 373.547L312.412 373.555Z" fill="url(#paint16_linear_548_24001)"/>
<path style="mix-blend-mode:screen" opacity="0.5" fill-rule="evenodd" clip-rule="evenodd" d="M319.265 310.526C314.219 305.109 280.27 336.889 256.687 361.463C233.104 386.037 209.751 418.251 207.733 438.78C205.724 459.318 222.632 490.336 253.226 517.708C283.82 545.08 363.482 570.043 382.639 558.765C401.795 547.496 394.74 512.467 379.142 504.004C363.544 495.55 312.811 512.582 289.06 487.619C265.309 462.655 276.038 429.113 278.995 400.927C282.616 366.42 293.486 337.314 303.551 328.453C313.617 319.591 319.256 310.518 319.256 310.518L319.265 310.526Z" fill="url(#paint17_linear_548_24001)"/>
<path fill-rule="evenodd" clip-rule="evenodd" d="M215.178 416.799C208.618 439.063 207.848 462.867 221.543 481.147C235.238 499.428 245.577 485.751 250.411 441.135C255.244 396.51 252.473 365.987 252.473 365.987C252.473 365.987 223.428 388.782 215.178 416.808V416.799Z" fill="#FFFFF8"/>
<path fill-rule="evenodd" clip-rule="evenodd" d="M237.566 494.169C228.306 502.765 250.42 519.797 254.022 511.591C257.625 503.376 243.585 488.584 237.566 494.169Z" fill="#F5CEFA"/>
<path fill-rule="evenodd" clip-rule="evenodd" d="M213.036 561.536C212.16 575.673 220.224 591.749 244.958 601C269.692 610.26 289.061 607.737 289.061 607.737C289.061 607.737 260.122 602 244.197 590.846C228.271 579.692 213.036 561.536 213.036 561.536Z" fill="#F5CEFA"/>
<path fill-rule="evenodd" clip-rule="evenodd" d="M314.457 375.751C306.295 364.942 316.918 350.159 331.888 341.058C346.857 331.958 348.654 334.72 345.449 342.661C342.245 350.61 337.349 367.368 330.347 375.742C323.345 384.116 319.291 382.142 314.457 375.742V375.751Z" fill="#FFFFF8"/>
<path fill-rule="evenodd" clip-rule="evenodd" d="M368.271 356.94C365.164 351.646 371.431 336.181 379.974 337.597C388.517 339.013 386.436 342.422 382.426 348.069C379.434 352.292 371.201 361.941 368.271 356.94Z" fill="#FFFFF8"/>
<path fill-rule="evenodd" clip-rule="evenodd" d="M430.123 383.426C427.211 377.415 451.041 359.055 454.264 360.976C457.486 362.897 455.397 372.617 449.837 376.264C444.278 379.911 431.132 385.533 430.114 383.426H430.123Z" fill="#FFFFF8"/>
</g>
<path style="mix-blend-mode:screen" opacity="0.45" fill-rule="evenodd" clip-rule="evenodd" d="M500 0C223.922 0 0 223.769 0 500C0 776.232 223.922 1000 500 1000C776.078 1000 1000 776.079 1000 500C1000 223.922 776.231 0 500 0ZM500 980.576C234.628 980.576 19.4249 765.372 19.4249 500C19.4249 234.629 234.628 19.4249 500 19.4249C765.372 19.4249 980.575 234.629 980.575 500C980.575 765.372 765.372 980.576 500 980.576Z" fill="url(#paint18_linear_548_24001)"/>
<defs>
<radialGradient id="paint0_radial_548_24001" cx="0" cy="0" r="1" gradientUnits="userSpaceOnUse" gradientTransform="translate(499.995 500.331) scale(399.996)">
<stop stop-color="#E213FF"/>
<stop offset="1"/>
</radialGradient>
<radialGradient id="paint1_radial_548_24001" cx="0" cy="0" r="1" gradientUnits="userSpaceOnUse" gradientTransform="translate(526.496 523.111) scale(337.117 337.117)">
<stop stop-color="#E213FF"/>
<stop offset="1"/>
</radialGradient>
<radialGradient id="paint2_radial_548_24001" cx="0" cy="0" r="1" gradientUnits="userSpaceOnUse" gradientTransform="translate(496.428 494.497) scale(321.705 321.705)">
<stop stop-color="#E213FF"/>
<stop offset="1"/>
</radialGradient>
<radialGradient id="paint3_radial_548_24001" cx="0" cy="0" r="1" gradientUnits="userSpaceOnUse" gradientTransform="translate(293.583 374.936) scale(493.53 493.53)">
<stop stop-color="#FF9AFF"/>
<stop offset="0.09" stop-color="#FB94FF"/>
<stop offset="0.21" stop-color="#F083FF"/>
<stop offset="0.34" stop-color="#DF67FF"/>
<stop offset="0.49" stop-color="#C740FF"/>
<stop offset="0.64" stop-color="#A810FF"/>
<stop offset="0.68" stop-color="#9F00FF"/>
<stop offset="0.74" stop-color="#9800F8"/>
<stop offset="0.83" stop-color="#8700E4"/>
<stop offset="0.93" stop-color="#6A00C5"/>
<stop offset="1" stop-color="#5200AB"/>
</radialGradient>
<radialGradient id="paint4_radial_548_24001" cx="0" cy="0" r="1" gradientUnits="userSpaceOnUse" gradientTransform="translate(293.583 374.936) scale(493.53 493.53)">
<stop stop-color="#FF9AFF"/>
<stop offset="0.09" stop-color="#FB94FF"/>
<stop offset="0.21" stop-color="#F083FF"/>
<stop offset="0.34" stop-color="#DF67FF"/>
<stop offset="0.49" stop-color="#C740FF"/>
<stop offset="0.64" stop-color="#A810FF"/>
<stop offset="0.68" stop-color="#9F00FF"/>
<stop offset="0.74" stop-color="#9800F8"/>
<stop offset="0.83" stop-color="#8700E4"/>
<stop offset="0.93" stop-color="#6A00C5"/>
<stop offset="1" stop-color="#5200AB"/>
</radialGradient>
<radialGradient id="paint5_radial_548_24001" cx="0" cy="0" r="1" gradientUnits="userSpaceOnUse" gradientTransform="translate(307.579 346.379) scale(485.138 485.138)">
<stop stop-color="#FF9AFF"/>
<stop offset="0.09" stop-color="#FB94FF"/>
<stop offset="0.21" stop-color="#F083FF"/>
<stop offset="0.34" stop-color="#DF67FF"/>
<stop offset="0.49" stop-color="#C740FF"/>
<stop offset="0.64" stop-color="#A810FF"/>
<stop offset="0.68" stop-color="#9F00FF"/>
<stop offset="0.74" stop-color="#9800F8"/>
<stop offset="0.83" stop-color="#8700E4"/>
<stop offset="0.93" stop-color="#6A00C5"/>
<stop offset="1" stop-color="#5200AB"/>
</radialGradient>
<radialGradient id="paint6_radial_548_24001" cx="0" cy="0" r="1" gradientUnits="userSpaceOnUse" gradientTransform="translate(371.379 295.07) scale(108.477 108.477)">
<stop stop-color="white"/>
<stop offset="1" stop-color="#623964"/>
</radialGradient>
<radialGradient id="paint7_radial_548_24001" cx="0" cy="0" r="1" gradientUnits="userSpaceOnUse" gradientTransform="translate(388.632 334.286) scale(37.7378 37.7378)">
<stop stop-color="white"/>
<stop offset="1" stop-color="#623964"/>
</radialGradient>
<radialGradient id="paint8_radial_548_24001" cx="0" cy="0" r="1" gradientUnits="userSpaceOnUse" gradientTransform="translate(365.421 330.79) scale(39.765 39.765)">
<stop stop-color="white"/>
<stop offset="1" stop-color="#623964"/>
</radialGradient>
<radialGradient id="paint9_radial_548_24001" cx="0" cy="0" r="1" gradientUnits="userSpaceOnUse" gradientTransform="translate(337.297 292.494) scale(91.8613 91.8613)">
<stop stop-color="white"/>
<stop offset="1" stop-color="#623964"/>
</radialGradient>
<radialGradient id="paint10_radial_548_24001" cx="0" cy="0" r="1" gradientUnits="userSpaceOnUse" gradientTransform="translate(298.036 256.792) scale(155.74 155.74)">
<stop stop-color="white"/>
<stop offset="1" stop-color="#623964"/>
</radialGradient>
<radialGradient id="paint11_radial_548_24001" cx="0" cy="0" r="1" gradientUnits="userSpaceOnUse" gradientTransform="translate(355.754 281.455) scale(217.008 217.008)">
<stop stop-color="white"/>
<stop offset="1" stop-color="#623964"/>
</radialGradient>
<radialGradient id="paint12_radial_548_24001" cx="0" cy="0" r="1" gradientUnits="userSpaceOnUse" gradientTransform="translate(288.087 283.058) scale(366.622 366.622)">
<stop stop-color="white"/>
<stop offset="1" stop-color="#623964"/>
</radialGradient>
<radialGradient id="paint13_radial_548_24001" cx="0" cy="0" r="1" gradientUnits="userSpaceOnUse" gradientTransform="translate(397.988 602.354) scale(288.951 288.951)">
<stop stop-color="#FFFF4A"/>
<stop offset="1" stop-color="#360038"/>
</radialGradient>
<radialGradient id="paint14_radial_548_24001" cx="0" cy="0" r="1" gradientUnits="userSpaceOnUse" gradientTransform="translate(284.2 713.842) scale(31.187 31.187)">
<stop stop-color="#6D00C2"/>
<stop offset="0.4" stop-color="#6600BC"/>
<stop offset="0.98" stop-color="#5200AB"/>
<stop offset="1" stop-color="#5200AB"/>
</radialGradient>
<radialGradient id="paint15_radial_548_24001" cx="0" cy="0" r="1" gradientUnits="userSpaceOnUse" gradientTransform="translate(788.575 532.509) scale(32.5768 32.5768)">
<stop stop-color="#1F0081"/>
<stop offset="0.73" stop-color="#250087"/>
<stop offset="1" stop-color="#2A008B"/>
</radialGradient>
<linearGradient id="paint16_linear_548_24001" x1="308.119" y1="395.102" x2="350.309" y2="395.102" gradientUnits="userSpaceOnUse">
<stop stop-color="#BDFFE8"/>
<stop offset="0.2" stop-color="#8ABBAA"/>
<stop offset="0.42" stop-color="#59796E"/>
<stop offset="0.61" stop-color="#33453E"/>
<stop offset="0.78" stop-color="#171F1C"/>
<stop offset="0.91" stop-color="#060807"/>
<stop offset="1"/>
</linearGradient>
<linearGradient id="paint17_linear_548_24001" x1="207.574" y1="435.726" x2="394.218" y2="435.726" gradientUnits="userSpaceOnUse">
<stop stop-color="#BDFFE8"/>
<stop offset="0.2" stop-color="#8ABBAA"/>
<stop offset="0.42" stop-color="#59796E"/>
<stop offset="0.61" stop-color="#33453E"/>
<stop offset="0.78" stop-color="#171F1C"/>
<stop offset="0.91" stop-color="#060807"/>
<stop offset="1"/>
</linearGradient>
<linearGradient id="paint18_linear_548_24001" x1="500" y1="25.2371" x2="500" y2="1048.18" gradientUnits="userSpaceOnUse">
<stop stop-color="#27A2D9"/>
<stop offset="0.19" stop-color="#1D78A1"/>
<stop offset="0.39" stop-color="#124E68"/>
<stop offset="0.59" stop-color="#0A2C3B"/>
<stop offset="0.76" stop-color="#04141A"/>
<stop offset="0.9" stop-color="#010507"/>
<stop offset="1"/>
</linearGradient>
<clipPath id="clip0_548_24001">
<rect width="800" height="800" fill="white" transform="translate(100 100.335)"/>
</clipPath>
</defs>
</svg>
