<svg width="1000" height="1000" viewBox="0 0 1000 1000" fill="none" xmlns="http://www.w3.org/2000/svg">
<g clip-path="url(#clip0_548_25700)">
<g clip-path="url(#clip1_548_25700)">
<path style="mix-blend-mode:color-dodge" d="M782.831 782.835C939.039 626.627 939.039 373.364 782.831 217.156C626.623 60.9476 373.359 60.9476 217.151 217.156C60.9432 373.364 60.9432 626.627 217.151 782.835C373.359 939.044 626.623 939.044 782.831 782.835Z" fill="url(#paint0_radial_548_25700)"/>
<path d="M812.569 499.996C812.569 505.982 812.375 511.961 812.05 517.883C811.531 527.122 810.622 536.224 809.316 545.196C809.187 546.299 809.057 547.28 808.862 548.319C804.117 578.82 795.007 607.829 782.133 634.696C746.554 709.099 682.493 767.181 603.985 794.892C571.464 806.338 536.477 812.584 499.989 812.584C478.07 812.584 456.67 810.305 435.993 806.014C433.324 805.494 430.598 804.846 427.93 804.197C425.78 803.742 423.638 803.223 421.489 802.639C412.452 800.295 403.537 797.569 394.759 794.446C372.906 786.642 352.22 776.494 332.97 764.269C332.516 763.945 331.997 763.62 331.478 763.296C326.927 760.367 322.368 757.244 317.882 754.056C302.793 743.194 288.614 731.034 275.667 717.698C272.024 713.926 268.447 710.024 265.064 706.122C243.6 681.729 225.908 654.027 212.904 623.777C209.716 616.427 206.852 608.948 204.192 601.274C201.069 592.172 198.335 582.803 196.063 573.304C190.401 549.763 187.416 525.24 187.416 500.004C187.416 474.767 190.539 449.66 196.323 425.925C198.862 415.452 201.92 405.174 205.49 395.229C219.799 354.839 242.237 318.286 270.791 287.525C279.309 278.221 288.484 269.508 298.17 261.38C310.2 251.167 323.017 241.871 336.548 233.605C362.109 217.802 390.014 205.699 419.671 197.895C426.567 196.013 433.592 194.383 440.682 193.085C459.867 189.378 479.709 187.423 499.997 187.423C508.969 187.423 517.884 187.812 526.596 188.526C539.673 189.629 552.482 191.519 565.039 194.253C607.319 203.095 646.403 220.593 680.489 244.726C700.518 258.906 718.729 275.422 734.929 293.763C760.295 322.642 780.454 356.267 793.79 393.079C794.115 393.988 794.504 394.831 794.763 395.683C806.339 428.334 812.586 463.459 812.586 500.012L812.569 499.996Z" fill="url(#paint1_linear_548_25700)"/>
<path d="M794.732 395.699C736.357 423.921 745.459 438.879 673.879 602.515C616.827 732.9 490.579 787.777 436.001 806.013C433.292 805.47 430.607 804.87 427.922 804.204C676.685 669.09 671.948 481.662 654.28 343.198C643.183 256.294 576.542 210.769 526.645 188.542C539.698 189.629 552.49 191.527 565.031 194.212C725.049 278.788 671.591 552.521 657.298 597.988C640.717 650.757 678.405 576.881 708.557 481.897C732.65 405.969 776.974 394.571 793.799 393.071C794.131 393.947 794.464 394.823 794.732 395.691V395.699Z" fill="url(#paint2_linear_548_25700)"/>
<path d="M734.873 293.779C721.61 325.984 714.885 385.478 710.058 427.628C704.031 480.396 707.04 400.493 707.04 326.617C707.04 297.04 694.945 268.389 680.449 244.718C700.47 258.889 718.746 275.381 734.873 293.779Z" fill="url(#paint3_linear_548_25700)"/>
<path d="M716.094 634.176C707.803 676.991 719.768 676.781 782.125 634.687C746.579 709.075 682.469 767.181 603.985 794.859C616.802 783.308 628.467 768.714 637.699 750.259C682.834 659.981 717.424 584.239 809.333 545.22C809.179 546.274 809.033 547.304 808.879 548.327C778.126 565.451 722.607 600.584 716.102 634.168L716.094 634.176Z" fill="url(#paint4_linear_548_25700)"/>
<path d="M464.313 590.461C460.816 632.343 444.536 711.914 332.971 764.228C332.492 763.961 331.973 763.628 331.494 763.296C362.791 744.784 397.624 713.123 415.559 659.81C452.769 549.243 437.689 440.688 348.23 454.771C348.23 454.771 316.057 461.796 310.022 527.138C304.538 586.478 326.424 673.95 265.033 706.098C243.592 681.737 225.924 653.994 212.897 623.777C223.661 624.564 238.709 621.668 253.757 605.533C281.889 575.38 289.937 552.253 294.942 520.113C299.979 487.941 303.987 473.858 310.022 456.791C316.049 439.691 288.914 413.554 252.735 452.751C223.215 484.745 201.053 518.694 196.08 573.239C190.41 549.746 187.425 525.232 187.425 499.995C187.425 463.24 193.785 427.928 205.458 395.18C242.335 367.834 293.295 349.525 354.265 377.869C476.473 434.71 468.847 536.175 464.321 590.444L464.313 590.461Z" fill="url(#paint5_linear_548_25700)"/>
<path d="M538.188 677.9C515.482 733.443 471.126 773.638 421.496 802.639C412.419 800.286 403.496 797.544 394.751 794.405C461.602 744.143 519.401 663.12 521.088 533.157C524.252 289.975 349.186 279.454 270.759 287.533C279.325 278.212 288.492 269.468 298.169 261.331C464.255 248.068 531.163 392.438 531.163 392.438C518.257 255.239 457.619 211.702 419.655 197.863C426.591 195.989 433.559 194.391 440.673 193.036C584.41 275.203 605.639 513.047 538.188 677.892V677.9Z" fill="url(#paint6_linear_548_25700)"/>
<g style="mix-blend-mode:color-dodge" opacity="0.65">
<path d="M806.948 440.972C809.284 456.629 810.566 472.634 810.566 488.939C810.566 505.244 809.414 520.373 807.208 535.624C807.053 536.711 806.899 537.773 806.737 538.828C801.854 570.294 792.419 600.228 779.132 627.963C742.441 704.743 676.279 764.707 595.265 793.278C561.681 805.138 525.55 811.579 487.926 811.579C481.015 811.579 474.16 811.335 467.362 810.905C478.086 812.025 488.973 812.593 499.989 812.593C536.444 812.593 571.448 806.354 603.985 794.86C682.477 767.181 746.578 709.075 782.125 634.688C794.999 607.821 804.133 578.812 808.871 548.327C809.025 547.305 809.171 546.275 809.325 545.22C811.466 530.448 812.578 515.335 812.578 499.987C812.578 479.797 810.598 460.084 806.94 440.964L806.948 440.972Z" fill="white"/>
</g>
<path style="mix-blend-mode:color-burn" d="M794.732 395.699C794.464 394.823 794.132 393.947 793.799 393.079C780.414 356.258 760.272 322.642 734.881 293.788C718.746 275.398 700.478 258.898 680.458 244.726C654.897 226.628 626.496 212.262 596.06 202.462C598.826 205.383 601.56 208.344 604.221 211.369C629.611 240.224 649.754 273.848 663.138 310.661C663.471 311.537 663.804 312.413 664.071 313.281C675.647 345.907 681.926 381.008 681.926 417.577C681.926 432.925 680.815 448.03 678.673 462.81C678.519 463.864 678.373 464.895 678.219 465.917C673.481 496.402 664.347 525.41 651.473 552.277C615.926 626.665 551.817 684.771 473.333 712.449C440.796 723.936 405.792 730.182 369.337 730.182C347.418 730.182 326.011 727.919 305.349 723.611C302.632 723.068 299.955 722.468 297.27 721.802C295.096 721.324 292.987 720.805 290.845 720.237C284.875 718.688 278.993 716.911 273.169 715.021C274.013 715.905 274.84 716.805 275.692 717.682C288.63 731.042 302.77 743.218 317.907 754.072C322.336 757.268 326.895 760.343 331.503 763.295C331.981 763.628 332.5 763.961 332.979 764.228C352.245 776.469 372.931 786.634 394.76 794.413C403.505 797.553 412.428 800.294 421.505 802.647C423.647 803.223 425.756 803.734 427.93 804.213C430.615 804.878 433.3 805.478 436.01 806.022C456.663 810.337 478.071 812.592 499.997 812.592C536.453 812.592 571.456 806.354 603.994 794.859C682.486 767.181 746.587 709.075 782.134 634.687C795.008 607.82 804.142 578.812 808.879 548.327C809.033 547.305 809.179 546.274 809.333 545.22C811.475 530.448 812.586 515.335 812.586 499.987C812.586 463.41 806.316 428.317 794.732 395.691V395.699Z" fill="url(#paint7_linear_548_25700)"/>
<g style="mix-blend-mode:overlay" opacity="0.5">
<path d="M812.577 499.996C812.577 505.998 812.399 511.969 812.066 517.907C739.788 602.791 503.663 531.868 360.283 442.708C298.202 404.087 242.083 407.129 196.282 425.917C198.813 415.452 201.888 405.198 205.449 395.188C219.775 354.847 242.204 318.302 270.759 287.542C279.325 278.221 288.492 269.476 298.169 261.34C332.937 231.853 374.244 209.869 419.623 197.871C426.558 195.997 433.551 194.399 440.665 193.045C459.874 189.337 479.684 187.407 499.972 187.407C508.928 187.407 517.827 187.796 526.596 188.551C539.648 189.638 552.465 191.536 565.014 194.221C607.262 203.12 646.37 220.601 680.441 244.726C700.461 258.898 718.737 275.39 734.864 293.788C760.255 322.642 780.397 356.267 793.782 393.079C794.114 393.955 794.447 394.831 794.715 395.699C806.291 428.326 812.569 463.427 812.569 499.996H812.577Z" fill="#FFF7F5"/>
</g>
<path style="mix-blend-mode:color-dodge" opacity="0.5" d="M430.647 640.715C540.559 640.715 629.659 551.614 629.659 441.702C629.659 331.791 540.559 242.69 430.647 242.69C320.736 242.69 231.635 331.791 231.635 441.702C231.635 551.614 320.736 640.715 430.647 640.715Z" fill="url(#paint8_radial_548_25700)"/>
<path d="M375.793 399.601C356.592 437.249 323.276 458.714 301.39 447.551C279.503 436.389 277.329 396.819 296.53 359.171C315.732 321.523 349.048 300.059 370.934 311.221C392.82 322.383 394.994 361.953 375.793 399.601Z" fill="white"/>
<path d="M373.83 510.736C366.716 521.136 356.049 526.222 349.997 522.085C343.946 517.948 344.814 506.161 351.928 495.761C359.042 485.362 369.709 480.275 375.761 484.413C381.813 488.55 380.945 500.336 373.83 510.736Z" fill="white"/>
<g style="mix-blend-mode:color-dodge" opacity="0.5">
<path d="M204.175 601.266C201.052 592.165 198.318 582.795 196.047 573.296C190.385 549.755 187.399 525.232 187.399 499.996C187.399 474.759 190.523 449.652 196.306 425.917C198.845 415.444 201.904 405.166 205.473 395.221C219.783 354.831 242.22 318.278 270.775 287.517C279.292 278.213 288.467 269.501 298.153 261.372C310.183 251.159 323 241.863 336.531 233.597C259.978 297.925 174.258 414.146 204.175 601.274V601.266Z" fill="white"/>
</g>
<path style="mix-blend-mode:color-dodge" opacity="0.35" d="M690.247 782.035C742.333 782.035 784.557 737.297 784.557 682.111C784.557 626.925 742.333 582.187 690.247 582.187C638.161 582.187 595.937 626.925 595.937 682.111C595.937 737.297 638.161 782.035 690.247 782.035Z" fill="url(#paint9_radial_548_25700)"/>
</g>
<path style="mix-blend-mode:screen" opacity="0.45" fill-rule="evenodd" clip-rule="evenodd" d="M500 0C223.922 0 0 223.769 0 500C0 776.232 223.922 1000 500 1000C776.078 1000 1000 776.079 1000 500C1000 223.922 776.231 0 500 0ZM500 980.576C234.628 980.576 19.4249 765.372 19.4249 500C19.4249 234.629 234.628 19.4249 500 19.4249C765.372 19.4249 980.575 234.629 980.575 500C980.575 765.372 765.372 980.576 500 980.576Z" fill="url(#paint10_linear_548_25700)"/>
</g>
<defs>
<radialGradient id="paint0_radial_548_25700" cx="0" cy="0" r="1" gradientUnits="userSpaceOnUse" gradientTransform="translate(499.988 499.993) scale(399.996)">
<stop stop-color="#717A78"/>
<stop offset="0.16" stop-color="#6C7573"/>
<stop offset="0.35" stop-color="#5F6765"/>
<stop offset="0.55" stop-color="#4A4F4E"/>
<stop offset="0.76" stop-color="#2B2F2E"/>
<stop offset="0.97" stop-color="#050606"/>
<stop offset="1"/>
</radialGradient>
<linearGradient id="paint1_linear_548_25700" x1="199.836" y1="262.621" x2="690.216" y2="650.384" gradientUnits="userSpaceOnUse">
<stop stop-color="#FF91A7"/>
<stop offset="0.1" stop-color="#FB89A8"/>
<stop offset="0.24" stop-color="#F274AE"/>
<stop offset="0.42" stop-color="#E253B6"/>
<stop offset="0.62" stop-color="#CD24C2"/>
<stop offset="0.76" stop-color="#BD00CC"/>
<stop offset="1" stop-color="#8B00CC"/>
</linearGradient>
<linearGradient id="paint2_linear_548_25700" x1="611.327" y1="806.021" x2="611.327" y2="188.55" gradientUnits="userSpaceOnUse">
<stop stop-color="#E56CCB"/>
<stop offset="0.57" stop-color="#F492DD"/>
<stop offset="1" stop-color="#FFABE9"/>
</linearGradient>
<linearGradient id="paint3_linear_548_25700" x1="680.449" y1="344.699" x2="734.873" y2="344.699" gradientUnits="userSpaceOnUse">
<stop stop-color="#E56CCB"/>
<stop offset="0.34" stop-color="#E268C8"/>
<stop offset="0.64" stop-color="#DB5DC1"/>
<stop offset="0.93" stop-color="#CF4BB5"/>
<stop offset="1" stop-color="#CC46B2"/>
</linearGradient>
<linearGradient id="paint4_linear_548_25700" x1="603.985" y1="670.048" x2="809.325" y2="670.048" gradientUnits="userSpaceOnUse">
<stop stop-color="#E56CCB"/>
<stop offset="0.34" stop-color="#E268C8"/>
<stop offset="0.64" stop-color="#DB5DC1"/>
<stop offset="0.93" stop-color="#CF4BB5"/>
<stop offset="1" stop-color="#CC46B2"/>
</linearGradient>
<linearGradient id="paint5_linear_548_25700" x1="326.879" y1="764.228" x2="326.879" y2="363.648" gradientUnits="userSpaceOnUse">
<stop stop-color="#CC4DB0"/>
<stop offset="0.26" stop-color="#DA6FC0"/>
<stop offset="0.76" stop-color="#F4AEDD"/>
<stop offset="1" stop-color="#FFC7E9"/>
</linearGradient>
<linearGradient id="paint6_linear_548_25700" x1="422.876" y1="802.647" x2="422.876" y2="193.044" gradientUnits="userSpaceOnUse">
<stop stop-color="#CC4DB0"/>
<stop offset="0.26" stop-color="#DA6FC0"/>
<stop offset="0.76" stop-color="#F4AEDD"/>
<stop offset="1" stop-color="#FFC7E9"/>
</linearGradient>
<linearGradient id="paint7_linear_548_25700" x1="273.153" y1="507.523" x2="812.578" y2="507.523" gradientUnits="userSpaceOnUse">
<stop stop-color="#FFF7F5"/>
<stop offset="0.16" stop-color="#F8EEF2"/>
<stop offset="0.41" stop-color="#E7D8ED"/>
<stop offset="0.73" stop-color="#CBB3E4"/>
<stop offset="1" stop-color="#AE8EDB"/>
</linearGradient>
<radialGradient id="paint8_radial_548_25700" cx="0" cy="0" r="1" gradientUnits="userSpaceOnUse" gradientTransform="translate(430.647 441.702) scale(199.012)">
<stop stop-color="white"/>
<stop offset="0.12" stop-color="#E7E7E7"/>
<stop offset="0.37" stop-color="#ACACAC"/>
<stop offset="0.72" stop-color="#4D4D4D"/>
<stop offset="1"/>
</radialGradient>
<radialGradient id="paint9_radial_548_25700" cx="0" cy="0" r="1" gradientUnits="userSpaceOnUse" gradientTransform="translate(690.247 682.385) scale(94.3104 99.9691)">
<stop stop-color="#1C00E8"/>
<stop offset="0.1" stop-color="#1B00E1"/>
<stop offset="0.23" stop-color="#1800CE"/>
<stop offset="0.39" stop-color="#1500B0"/>
<stop offset="0.57" stop-color="#100085"/>
<stop offset="0.76" stop-color="#09004F"/>
<stop offset="0.96" stop-color="#01000D"/>
<stop offset="1"/>
</radialGradient>
<linearGradient id="paint10_linear_548_25700" x1="500" y1="25.2371" x2="500" y2="1048.18" gradientUnits="userSpaceOnUse">
<stop stop-color="#27A2D9"/>
<stop offset="0.19" stop-color="#1D78A1"/>
<stop offset="0.39" stop-color="#124E68"/>
<stop offset="0.59" stop-color="#0A2C3B"/>
<stop offset="0.76" stop-color="#04141A"/>
<stop offset="0.9" stop-color="#010507"/>
<stop offset="1"/>
</linearGradient>
<clipPath id="clip0_548_25700">
<rect width="1000" height="1000" fill="white"/>
</clipPath>
<clipPath id="clip1_548_25700">
<rect width="800" height="800" fill="white" transform="translate(100 100)"/>
</clipPath>
</defs>
</svg>
