<svg width="1000" height="1000" viewBox="0 0 1000 1000" fill="none" xmlns="http://www.w3.org/2000/svg">
<g clip-path="url(#clip0_548_25701)">
<g clip-path="url(#clip1_548_25701)">
<path style="mix-blend-mode:screen" d="M500 900C720.914 900 900 720.914 900 500C900 279.086 720.914 100 500 100C279.086 100 100 279.086 100 500C100 720.914 279.086 900 500 900Z" fill="url(#paint0_radial_548_25701)"/>
<path d="M220.775 567.606C220.775 567.606 146.177 546.485 157.512 445.949C158.538 436.992 160.141 428.673 162.329 420.939C185.197 338.166 266.169 322.645 266.169 322.645C269.968 331.116 272.445 340.597 273.812 350.724C285.489 435.587 220.768 567.606 220.768 567.606H220.775Z" fill="url(#paint1_linear_548_25701)"/>
<path style="mix-blend-mode:multiply" d="M255.754 348.027C255.754 348.027 178.967 362.705 169.585 445.767C160.582 525.501 219.742 542.223 219.742 542.223C219.742 542.223 284.046 411.047 255.754 348.027Z" fill="url(#paint2_linear_548_25701)"/>
<path style="mix-blend-mode:multiply" d="M220.775 567.609C220.775 567.609 146.177 546.488 157.512 445.952C158.538 436.995 160.141 428.676 162.329 420.942C194.595 423.715 237.125 412.038 273.812 350.72C285.489 435.582 220.768 567.601 220.768 567.601L220.775 567.609Z" fill="url(#paint3_linear_548_25701)"/>
<path d="M253.215 642.207C253.215 642.207 241.402 771.969 342.431 802.792C438.135 831.988 491.658 780.083 491.658 780.083L253.215 642.207Z" fill="url(#paint4_linear_548_25701)"/>
<path style="mix-blend-mode:multiply" d="M271.434 655.18C271.434 655.18 261.428 765.075 346.989 791.172C428.038 815.901 473.371 771.943 473.371 771.943L271.441 655.18H271.434Z" fill="url(#paint5_linear_548_25701)"/>
<path d="M790.112 498.663C790.112 659.924 659.408 790.628 498.146 790.628C399.411 790.628 312.118 741.626 259.316 666.64C225.835 619.149 206.181 561.189 206.181 498.663C206.181 337.401 336.885 206.697 498.146 206.697C552.794 206.697 603.939 221.732 647.632 247.867C732.98 298.769 790.112 392.049 790.112 498.67V498.663Z" fill="url(#paint6_linear_548_25701)"/>
<g style="mix-blend-mode:overlay" opacity="0.85">
<path d="M274.753 670.034C239.38 619.861 218.616 558.626 218.616 492.567C218.616 413.555 248.352 341.517 297.196 286.945C241.165 340.142 206.172 415.287 206.172 498.66C206.172 561.194 225.834 619.147 259.308 666.638C293.443 715.124 342.058 752.64 398.81 773.175C348.85 750.307 306.054 714.501 274.753 670.034Z" fill="white"/>
</g>
<path style="mix-blend-mode:color-dodge" opacity="0.5" d="M636.14 528.991C685.447 419.535 639.675 292.18 533.907 244.535C428.139 196.89 302.427 246.997 253.121 356.453C203.814 465.909 249.586 593.265 355.354 640.91C461.122 688.555 586.834 638.447 636.14 528.991Z" fill="url(#paint7_radial_548_25701)"/>
<path style="mix-blend-mode:color-dodge" opacity="0.5" d="M528.71 452.709C560.382 382.401 530.98 300.595 463.04 269.991C395.101 239.386 314.35 271.572 282.678 341.88C251.007 412.188 280.408 493.994 348.348 524.598C416.288 555.203 497.039 523.017 528.71 452.709Z" fill="url(#paint8_radial_548_25701)"/>
<path style="mix-blend-mode:color-burn" opacity="0.15" d="M790.112 498.663C790.112 659.924 659.408 790.629 498.146 790.629C399.411 790.629 312.118 741.626 259.316 666.64C719.556 734.667 652.16 393.409 647.632 247.859C732.98 298.762 790.112 392.042 790.112 498.663Z" fill="url(#paint9_linear_548_25701)"/>
<g style="mix-blend-mode:overlay" opacity="0.85">
<path d="M682.55 272.353C741.634 325.747 778.755 403.005 778.755 488.93C778.755 650.192 648.05 780.896 486.789 780.896C416.962 780.896 352.871 756.364 302.645 715.483C354.39 762.176 422.941 790.628 498.147 790.628C659.408 790.628 790.113 659.924 790.113 498.663C790.113 407.358 748.191 325.854 682.55 272.353Z" fill="white"/>
</g>
<path d="M748.747 717.632C745.001 754.13 700.959 788.485 651.372 795.976C636.534 798.217 621.157 798.02 606.213 794.76C541.59 780.599 583.679 715.3 602.224 700.842C700.177 624.686 734.099 641.909 744.902 671.889C750.502 687.463 749.864 706.532 748.747 717.632Z" fill="url(#paint10_linear_548_25701)"/>
<path style="mix-blend-mode:multiply" d="M623.397 710.998C608.377 722.675 574.287 775.567 626.633 787.017C678.979 798.466 738.079 762.986 742.014 724.574C744.711 698.295 743.982 617.216 623.389 710.99L623.397 710.998Z" fill="url(#paint11_linear_548_25701)"/>
<path style="mix-blend-mode:multiply" d="M651.377 795.977C636.54 798.218 621.163 798.021 606.219 794.761C541.596 780.6 583.685 715.301 602.23 700.843C700.183 624.687 734.105 641.91 744.908 671.89C649.729 669.116 648.415 760.938 651.385 795.977H651.377Z" fill="url(#paint12_linear_548_25701)"/>
<g style="mix-blend-mode:overlay" opacity="0.25">
<path d="M725.635 687.219C738.527 693.768 740.328 716.127 729.646 737.172C718.964 758.209 699.857 769.962 686.957 763.413C674.064 756.864 672.263 734.505 682.945 713.46C693.627 692.423 712.734 680.67 725.635 687.219Z" fill="white"/>
</g>
<path d="M517.231 602.169C503.594 624.383 407.297 675.346 343.829 620.524C340.775 617.834 337.774 614.955 334.864 611.779C300.767 574.644 305.007 544.171 315.992 524.03C325.079 507.468 341.725 496.353 360.376 493.489C373.2 491.529 383.897 490.807 394.222 491.597C412.387 492.828 429.542 498.45 455.229 509.268C502.933 529.348 531.544 578.868 517.238 602.161L517.231 602.169Z" fill="url(#paint13_linear_548_25701)"/>
<path style="mix-blend-mode:multiply" d="M365.466 519.112C350.773 521.376 337.652 530.121 330.518 543.158C321.842 559.021 318.522 583.036 345.379 612.301C394.951 666.311 477.793 623.082 489.067 604.727C500.334 586.372 477.793 547.359 440.216 531.542C408.391 518.148 393.189 514.85 365.474 519.112H365.466Z" fill="url(#paint14_linear_548_25701)"/>
<path style="mix-blend-mode:multiply" d="M517.231 602.169C503.594 624.383 407.297 675.346 343.829 620.524C487.791 602.298 416.627 512.778 394.222 491.604C412.387 492.835 429.542 498.457 455.229 509.276C502.933 529.356 531.544 578.875 517.238 602.169H517.231Z" fill="url(#paint15_linear_548_25701)"/>
<g style="mix-blend-mode:overlay" opacity="0.25">
<path d="M406.729 539.207C411.181 560.829 394.277 582.588 368.962 587.799C343.648 593.011 319.527 579.708 315.067 558.079C310.615 536.457 327.519 514.698 352.833 509.486C378.14 504.274 402.269 517.577 406.721 539.207H406.729Z" fill="white"/>
</g>
<path d="M360.756 516.448C364.053 521.994 360.087 530.435 351.897 535.305C343.707 540.174 334.401 539.62 331.103 534.074C327.806 528.528 331.772 520.087 339.962 515.217C348.152 510.347 357.459 510.902 360.756 516.448Z" fill="white"/>
<path d="M737.176 684.756C743.626 684.498 749.157 692.004 749.537 701.524C749.916 711.043 745.001 718.967 738.551 719.226C732.101 719.484 718.099 713.71 717.719 704.19C717.339 694.671 730.725 685.015 737.176 684.756Z" fill="white"/>
<path d="M840.915 478.803C836.927 534.081 801.356 585.128 777.949 586.245C752.399 587.46 689.143 564.349 683.058 469.458C681.546 445.854 683.012 426.488 686.416 410.678C699.552 348.342 741.451 340.509 741.451 340.509C791.327 340.509 838.773 402.549 841.204 463.381C841.402 468.539 841.303 473.698 840.915 478.803Z" fill="url(#paint16_linear_548_25701)"/>
<path style="mix-blend-mode:multiply" d="M758.833 360.536C758.833 360.536 707.179 370.222 713.036 461.664C717.807 536.08 767.418 554.207 787.452 553.25C807.486 552.293 838.97 504.596 837.063 456.893C835.156 409.189 797.944 360.536 758.833 360.536Z" fill="url(#paint17_linear_548_25701)"/>
<path style="mix-blend-mode:multiply" d="M840.916 478.801C836.928 534.079 801.357 585.126 777.95 586.243C752.4 587.458 689.144 564.347 683.059 469.456C681.547 445.851 683.013 426.486 686.417 410.676C713.182 469.168 773.277 563.474 840.916 478.801Z" fill="url(#paint18_linear_548_25701)"/>
<g style="mix-blend-mode:overlay" opacity="0.25">
<path d="M777.987 372.104C799.609 367.652 823.214 393.506 830.697 429.852C838.181 466.197 826.724 499.276 805.094 503.728C783.472 508.18 759.867 482.326 752.384 445.981C744.901 409.635 756.357 376.556 777.987 372.104Z" fill="white"/>
</g>
<path d="M774.836 388.652C783.573 385.081 805.286 387.535 810.558 400.435C815.831 413.328 802.672 431.782 793.935 435.353C785.198 438.923 773.84 431.372 768.568 418.471C763.295 405.579 766.099 392.222 774.836 388.652Z" fill="white"/>
<path d="M403.096 344.011C431.373 349.246 455.647 370.526 454.872 382.659C454.028 395.901 438.477 427.187 389.2 424.87C376.946 424.292 367.039 422.423 359.084 419.757C327.7 409.394 326.066 387.346 326.066 387.346C328.938 361.629 363.658 340.737 395.157 342.978C397.831 343.176 400.482 343.517 403.096 344.019V344.011Z" fill="url(#paint19_linear_548_25701)"/>
<path style="mix-blend-mode:multiply" d="M337.395 379.529C337.395 379.529 339.415 406.72 386.906 408.961C425.554 410.785 437.748 386.245 438.409 375.86C439.07 365.474 416.285 346.496 391.579 344.741C366.872 342.978 339.643 359.366 337.395 379.537V379.529Z" fill="url(#paint20_linear_548_25701)"/>
<path style="mix-blend-mode:multiply" d="M403.095 344.011C431.373 349.245 455.646 370.525 454.871 382.658C454.028 395.901 438.476 427.186 389.2 424.869C376.945 424.292 367.038 422.423 359.084 419.756C390.78 409.317 442.867 383.76 403.095 344.011Z" fill="url(#paint21_linear_548_25701)"/>
<g style="mix-blend-mode:overlay" opacity="0.25">
<path d="M344.46 370.32C343.404 358.917 358.097 348.235 377.265 346.465C396.441 344.694 412.836 352.504 413.884 363.916C414.94 375.319 400.247 386.001 381.079 387.771C361.911 389.542 345.508 381.731 344.46 370.32Z" fill="white"/>
</g>
<path d="M352.817 372.896C351.48 368.186 353.994 357.132 360.946 355.157C367.898 353.181 376.657 361.022 377.994 365.732C379.332 370.442 374.781 375.867 367.829 377.842C360.878 379.818 354.154 377.607 352.817 372.896Z" fill="white"/>
<path d="M632.293 275.764C619.453 304.809 533.717 332.858 450.884 313.121C431.374 308.479 415.267 303.791 402.018 298.845C392.551 295.32 384.513 290.131 378.101 283.818C354.238 260.517 352.209 222.089 379.074 197.74C405.284 173.914 446.933 148.957 505.319 150.879C541.771 152.08 569.212 163.605 589.208 179.354C629.33 210.944 639.457 259.506 632.293 275.78V275.764Z" fill="url(#paint22_linear_548_25701)"/>
<path style="mix-blend-mode:multiply" d="M415.913 289.592C377.767 275.392 367.138 229.55 396.267 203.111C418.686 182.765 454.325 161.402 504.232 163.065C597.968 166.188 621.999 249.014 612.798 269.854C601.835 294.697 528.498 318.674 457.683 301.808C441 297.835 427.226 293.808 415.906 289.592H415.913Z" fill="url(#paint23_linear_548_25701)"/>
<path style="mix-blend-mode:multiply" d="M632.293 275.762C619.454 304.806 533.718 332.856 450.884 313.118C431.374 308.476 415.268 303.788 402.018 298.842C392.552 295.317 384.514 290.128 378.102 283.815C557.68 297.338 586.109 218.85 589.201 179.344C629.323 210.933 639.45 259.496 632.286 275.769L632.293 275.762Z" fill="url(#paint24_linear_548_25701)"/>
<g style="mix-blend-mode:overlay" opacity="0.25">
<path d="M539.193 183.294C546.776 205.736 520.025 233.208 479.44 244.658C438.863 256.107 399.82 247.187 392.238 224.745C384.656 202.302 411.406 174.83 451.991 163.381C492.569 151.932 531.611 160.851 539.193 183.294Z" fill="white"/>
</g>
<path d="M469.619 194.419C471.753 204.501 460.494 214.932 444.464 217.713C428.433 220.493 403.347 215.813 401.212 205.732C399.077 195.65 420.532 172.433 436.563 169.652C452.593 166.871 467.484 184.338 469.619 194.419Z" fill="white"/>
<path d="M513.782 209.014C514.967 214.598 508.73 220.372 499.848 221.914C490.967 223.457 482.815 220.175 481.63 214.591C480.445 209.007 486.682 203.233 495.563 201.69C504.445 200.148 512.597 203.43 513.782 209.014Z" fill="white"/>
</g>
<path style="mix-blend-mode:screen" opacity="0.45" fill-rule="evenodd" clip-rule="evenodd" d="M500 0C223.922 0 0 223.769 0 500C0 776.232 223.922 1000 500 1000C776.078 1000 1000 776.079 1000 500C1000 223.922 776.231 0 500 0ZM500 980.576C234.628 980.576 19.4249 765.372 19.4249 500C19.4249 234.629 234.628 19.4249 500 19.4249C765.372 19.4249 980.575 234.629 980.575 500C980.575 765.372 765.372 980.576 500 980.576Z" fill="url(#paint25_linear_548_25701)"/>
</g>
<defs>
<radialGradient id="paint0_radial_548_25701" cx="0" cy="0" r="1" gradientUnits="userSpaceOnUse" gradientTransform="translate(500 500) scale(400)">
<stop stop-color="#2F7C7B"/>
<stop offset="0.42" stop-color="#1A4645"/>
<stop offset="0.94"/>
</radialGradient>
<linearGradient id="paint1_linear_548_25701" x1="215.784" y1="567.606" x2="215.784" y2="322.645" gradientUnits="userSpaceOnUse">
<stop stop-color="#FF871A"/>
<stop offset="0.18" stop-color="#FF911C"/>
<stop offset="0.47" stop-color="#FFAD21"/>
<stop offset="0.85" stop-color="#FFDA2B"/>
<stop offset="0.99" stop-color="#FFEE2F"/>
</linearGradient>
<linearGradient id="paint2_linear_548_25701" x1="168.658" y1="445.129" x2="262.948" y2="445.129" gradientUnits="userSpaceOnUse">
<stop stop-color="#FF871A"/>
<stop offset="0.18" stop-color="#FF911C"/>
<stop offset="0.47" stop-color="#FFAD21"/>
<stop offset="0.85" stop-color="#FFDA2B"/>
<stop offset="0.99" stop-color="#FFEE2F"/>
</linearGradient>
<linearGradient id="paint3_linear_548_25701" x1="215.784" y1="567.609" x2="215.784" y2="350.727" gradientUnits="userSpaceOnUse">
<stop stop-color="white"/>
<stop offset="0.15" stop-color="#FFEEDD"/>
<stop offset="0.44" stop-color="#FFD09F"/>
<stop offset="0.69" stop-color="#FFBA71"/>
<stop offset="0.88" stop-color="#FFAD55"/>
<stop offset="0.99" stop-color="#FFA84B"/>
</linearGradient>
<linearGradient id="paint4_linear_548_25701" x1="252.79" y1="726.955" x2="491.65" y2="726.955" gradientUnits="userSpaceOnUse">
<stop stop-color="#FF871A"/>
<stop offset="0.18" stop-color="#FF911C"/>
<stop offset="0.47" stop-color="#FFAD21"/>
<stop offset="0.85" stop-color="#FFDA2B"/>
<stop offset="0.99" stop-color="#FFEE2F"/>
</linearGradient>
<linearGradient id="paint5_linear_548_25701" x1="271.077" y1="726.952" x2="473.363" y2="726.952" gradientUnits="userSpaceOnUse">
<stop stop-color="#FF871A"/>
<stop offset="0.18" stop-color="#FF911C"/>
<stop offset="0.47" stop-color="#FFAD21"/>
<stop offset="0.85" stop-color="#FFDA2B"/>
<stop offset="0.99" stop-color="#FFEE2F"/>
</linearGradient>
<linearGradient id="paint6_linear_548_25701" x1="153.881" y1="333.914" x2="680.733" y2="586.062" gradientUnits="userSpaceOnUse">
<stop stop-color="#F50C76"/>
<stop offset="0.14" stop-color="#E90B70"/>
<stop offset="0.4" stop-color="#CA0B61"/>
<stop offset="0.73" stop-color="#97094A"/>
<stop offset="1" stop-color="#6B0935"/>
</linearGradient>
<radialGradient id="paint7_radial_548_25701" cx="0" cy="0" r="1" gradientUnits="userSpaceOnUse" gradientTransform="translate(444.65 442.702) scale(213.789 213.789)">
<stop stop-color="#CD0B63"/>
<stop offset="0.14" stop-color="#B50957"/>
<stop offset="0.45" stop-color="#7A063B"/>
<stop offset="0.88" stop-color="#1B010D"/>
<stop offset="1"/>
</radialGradient>
<radialGradient id="paint8_radial_548_25701" cx="0" cy="0" r="1" gradientUnits="userSpaceOnUse" gradientTransform="translate(405.699 397.285) scale(137.33 137.33)">
<stop stop-color="#CD0B63"/>
<stop offset="0.14" stop-color="#B50957"/>
<stop offset="0.45" stop-color="#7A063B"/>
<stop offset="0.88" stop-color="#1B010D"/>
<stop offset="1"/>
</radialGradient>
<linearGradient id="paint9_linear_548_25701" x1="725.816" y1="445.329" x2="308.623" y2="731.947" gradientUnits="userSpaceOnUse">
<stop stop-color="#B8105C"/>
<stop offset="0.02" stop-color="#B30F5F"/>
<stop offset="0.26" stop-color="#7E0A8F"/>
<stop offset="0.49" stop-color="#5305B6"/>
<stop offset="0.7" stop-color="#3502D1"/>
<stop offset="0.88" stop-color="#2200E2"/>
<stop offset="1" stop-color="#1C00E8"/>
</linearGradient>
<linearGradient id="paint10_linear_548_25701" x1="571.562" y1="721.955" x2="749.499" y2="721.955" gradientUnits="userSpaceOnUse">
<stop stop-color="#FF871A"/>
<stop offset="0.18" stop-color="#FF911C"/>
<stop offset="0.47" stop-color="#FFAD21"/>
<stop offset="0.85" stop-color="#FFDA2B"/>
<stop offset="0.99" stop-color="#FFEE2F"/>
</linearGradient>
<linearGradient id="paint11_linear_548_25701" x1="598.553" y1="728.069" x2="742.644" y2="728.069" gradientUnits="userSpaceOnUse">
<stop stop-color="#FF871A"/>
<stop offset="0.18" stop-color="#FF911C"/>
<stop offset="0.47" stop-color="#FFAD21"/>
<stop offset="0.85" stop-color="#FFDA2B"/>
<stop offset="0.99" stop-color="#FFEE2F"/>
</linearGradient>
<linearGradient id="paint12_linear_548_25701" x1="658.23" y1="797.466" x2="658.23" y2="646.446" gradientUnits="userSpaceOnUse">
<stop stop-color="white"/>
<stop offset="0.15" stop-color="#FFEEDD"/>
<stop offset="0.44" stop-color="#FFD09F"/>
<stop offset="0.69" stop-color="#FFBA71"/>
<stop offset="0.88" stop-color="#FFAD55"/>
<stop offset="0.99" stop-color="#FFA84B"/>
</linearGradient>
<linearGradient id="paint13_linear_548_25701" x1="308.27" y1="569.336" x2="520.69" y2="566.63" gradientUnits="userSpaceOnUse">
<stop stop-color="#FFEE2F"/>
<stop offset="0.15" stop-color="#FFDA2B"/>
<stop offset="0.53" stop-color="#FFAD21"/>
<stop offset="0.82" stop-color="#FF911C"/>
<stop offset="0.99" stop-color="#FF871A"/>
</linearGradient>
<linearGradient id="paint14_linear_548_25701" x1="324.431" y1="578.854" x2="491.794" y2="576.721" gradientUnits="userSpaceOnUse">
<stop stop-color="#FF871A"/>
<stop offset="0.18" stop-color="#FF911C"/>
<stop offset="0.47" stop-color="#FFAD21"/>
<stop offset="0.85" stop-color="#FFDA2B"/>
<stop offset="0.99" stop-color="#FFEE2F"/>
</linearGradient>
<linearGradient id="paint15_linear_548_25701" x1="343.203" y1="569.112" x2="520.693" y2="566.85" gradientUnits="userSpaceOnUse">
<stop stop-color="white"/>
<stop offset="0.15" stop-color="#FFEEDD"/>
<stop offset="0.44" stop-color="#FFD09F"/>
<stop offset="0.69" stop-color="#FFBA71"/>
<stop offset="0.88" stop-color="#FFAD55"/>
<stop offset="0.99" stop-color="#FFA84B"/>
</linearGradient>
<linearGradient id="paint16_linear_548_25701" x1="761.88" y1="586.298" x2="761.88" y2="340.509" gradientUnits="userSpaceOnUse">
<stop stop-color="#FF871A"/>
<stop offset="0.91" stop-color="#FFE42D"/>
<stop offset="0.99" stop-color="#FFEE2F"/>
</linearGradient>
<linearGradient id="paint17_linear_548_25701" x1="712.58" y1="456.916" x2="837.146" y2="456.916" gradientUnits="userSpaceOnUse">
<stop stop-color="#FF871A"/>
<stop offset="0.18" stop-color="#FF911C"/>
<stop offset="0.47" stop-color="#FFAD21"/>
<stop offset="0.85" stop-color="#FFDA2B"/>
<stop offset="0.99" stop-color="#FFEE2F"/>
</linearGradient>
<linearGradient id="paint18_linear_548_25701" x1="761.691" y1="586.296" x2="761.691" y2="410.676" gradientUnits="userSpaceOnUse">
<stop stop-color="white"/>
<stop offset="0.15" stop-color="#FFEEDD"/>
<stop offset="0.44" stop-color="#FFD09F"/>
<stop offset="0.69" stop-color="#FFBA71"/>
<stop offset="0.88" stop-color="#FFAD55"/>
<stop offset="0.99" stop-color="#FFA84B"/>
</linearGradient>
<linearGradient id="paint19_linear_548_25701" x1="454.117" y1="390.959" x2="327.373" y2="376.832" gradientUnits="userSpaceOnUse">
<stop stop-color="#FF871A"/>
<stop offset="0.91" stop-color="#FFE42D"/>
<stop offset="0.99" stop-color="#FFEE2F"/>
</linearGradient>
<linearGradient id="paint20_linear_548_25701" x1="384.566" y1="408.946" x2="391.726" y2="344.713" gradientUnits="userSpaceOnUse">
<stop stop-color="#FF871A"/>
<stop offset="0.18" stop-color="#FF911C"/>
<stop offset="0.47" stop-color="#FFAD21"/>
<stop offset="0.85" stop-color="#FFDA2B"/>
<stop offset="0.99" stop-color="#FFEE2F"/>
</linearGradient>
<linearGradient id="paint21_linear_548_25701" x1="454.105" y1="391.056" x2="363.544" y2="380.962" gradientUnits="userSpaceOnUse">
<stop stop-color="white"/>
<stop offset="0.15" stop-color="#FFEEDD"/>
<stop offset="0.44" stop-color="#FFD09F"/>
<stop offset="0.69" stop-color="#FFBA71"/>
<stop offset="0.88" stop-color="#FFAD55"/>
<stop offset="0.99" stop-color="#FFA84B"/>
</linearGradient>
<linearGradient id="paint22_linear_548_25701" x1="492.753" y1="319.252" x2="503.36" y2="150.651" gradientUnits="userSpaceOnUse">
<stop stop-color="#FF871A"/>
<stop offset="0.2" stop-color="#FFA01F"/>
<stop offset="0.55" stop-color="#FFCA27"/>
<stop offset="0.83" stop-color="#FFE42D"/>
<stop offset="0.99" stop-color="#FFEE2F"/>
</linearGradient>
<linearGradient id="paint23_linear_548_25701" x1="493.491" y1="307.043" x2="502.561" y2="162.879" gradientUnits="userSpaceOnUse">
<stop stop-color="#FF871A"/>
<stop offset="0.18" stop-color="#FF911C"/>
<stop offset="0.47" stop-color="#FFAD21"/>
<stop offset="0.85" stop-color="#FFDA2B"/>
<stop offset="0.99" stop-color="#FFEE2F"/>
</linearGradient>
<linearGradient id="paint24_linear_548_25701" x1="503.399" y1="319.919" x2="512.548" y2="174.505" gradientUnits="userSpaceOnUse">
<stop stop-color="white"/>
<stop offset="0.15" stop-color="#FFEEDD"/>
<stop offset="0.44" stop-color="#FFD09F"/>
<stop offset="0.69" stop-color="#FFBA71"/>
<stop offset="0.88" stop-color="#FFAD55"/>
<stop offset="0.99" stop-color="#FFA84B"/>
</linearGradient>
<linearGradient id="paint25_linear_548_25701" x1="500" y1="25.2371" x2="500" y2="1048.18" gradientUnits="userSpaceOnUse">
<stop stop-color="#27A2D9"/>
<stop offset="0.19" stop-color="#1D78A1"/>
<stop offset="0.39" stop-color="#124E68"/>
<stop offset="0.59" stop-color="#0A2C3B"/>
<stop offset="0.76" stop-color="#04141A"/>
<stop offset="0.9" stop-color="#010507"/>
<stop offset="1"/>
</linearGradient>
<clipPath id="clip0_548_25701">
<rect width="1000" height="1000" fill="white"/>
</clipPath>
<clipPath id="clip1_548_25701">
<rect width="800" height="800" fill="white" transform="translate(100 100)"/>
</clipPath>
</defs>
</svg>
