<svg width="700" height="750" viewBox="0 0 700 750" fill="none" xmlns="http://www.w3.org/2000/svg">
<g clip-path="url(#clip0_1411_30773)">
<path opacity="0.2" d="M556.214 38.3398H57.5147C29.1803 38.3398 6.23828 61.2908 6.23828 89.6163L24.0732 697.768C24.0732 726.094 47.0152 749.044 75.3496 749.044H624.648C652.974 749.044 675.925 726.094 675.925 697.768L692.521 131.962C692.708 131.962 692.895 131.962 693.091 131.962L556.214 38.3398Z" fill="#15383E"/>
<path opacity="0.9" d="M624.649 723.188C656.334 723.188 682.111 697.438 682.164 665.761L699.999 57.5117C699.999 25.7992 674.205 -0.00390625 642.484 -0.00390625H57.5146C25.8021 -0.00390625 -0.000976562 25.7992 -0.000976562 57.5117L17.8339 665.761C17.8874 697.438 43.6638 723.188 75.3495 723.188H624.649Z" fill="#FEFFFF"/>
<path d="M683.055 57.5139L672.458 418.704L670.31 492.129L668.358 558.638L665.22 665.674C665.22 688.046 647.02 706.246 624.648 706.246H75.3494C52.9867 706.246 34.7774 688.046 34.7774 665.674L31.9698 570.011L16.9336 57.5139C16.9336 35.1422 35.1428 16.9419 57.5055 16.9419H642.474C653.134 16.9419 663.206 21.0419 670.835 28.4931C678.714 36.1851 683.055 46.5063 683.055 57.5228V57.5139Z" fill="#FED269"/>
<path d="M93.4964 672.357C80.2784 672.357 69.5294 661.608 69.5294 648.39L51.6855 74.7937C51.6855 61.5757 62.4346 50.8267 75.6526 50.8267H624.336C630.629 50.8267 636.583 53.251 641.084 57.6451C645.746 62.1996 648.304 68.2872 648.304 74.7937L630.469 648.39C630.469 661.608 619.72 672.357 606.502 672.357H93.4964Z" fill="#FFE681"/>
<path d="M534.416 109.68H165.364C147.111 109.68 132.315 94.884 132.315 76.6302V17.6083C132.315 11.3336 137.404 6.23535 143.688 6.23535H556.11C562.385 6.23535 567.483 11.3247 567.483 17.6083V76.6302C567.483 85.2847 564.158 93.1638 558.713 99.0553C552.67 105.589 544.033 109.689 534.425 109.689L534.416 109.68Z" fill="#66525B"/>
<path d="M274.993 71.8213C274.583 71.8213 274.247 71.6906 273.985 71.4293C273.724 71.1306 273.593 70.7946 273.593 70.4213V41.2453C273.593 40.8346 273.724 40.4986 273.985 40.2373C274.247 39.976 274.583 39.8453 274.993 39.8453H287.537C290.823 39.8453 293.585 40.312 295.825 41.2453C298.065 42.1413 299.745 43.5973 300.865 45.6133C301.985 47.592 302.545 50.2426 302.545 53.5653V70.3653C302.545 70.7386 302.415 71.0746 302.153 71.3733C301.892 71.672 301.537 71.8213 301.089 71.8213H274.993ZM281.769 64.4853H293.865V53.8453C293.865 51.68 293.324 50.0373 292.241 48.9173C291.196 47.76 289.535 47.1813 287.257 47.1813H281.769V64.4853ZM310.425 58.6053C310.014 58.6053 309.678 58.4746 309.417 58.2133C309.156 57.9146 309.025 57.5786 309.025 57.2053V41.2453C309.025 40.8346 309.156 40.4986 309.417 40.2373C309.678 39.976 310.014 39.8453 310.425 39.8453H317.033C317.444 39.8453 317.78 39.976 318.041 40.2373C318.302 40.4986 318.433 40.8346 318.433 41.2453V57.2053C318.433 57.5786 318.302 57.9146 318.041 58.2133C317.78 58.4746 317.444 58.6053 317.033 58.6053H310.425ZM326.392 71.8213C325.981 71.8213 325.627 71.6906 325.328 71.4293C325.067 71.1306 324.936 70.7946 324.936 70.4213V65.5493C324.936 65.1386 325.067 64.8026 325.328 64.5413C325.627 64.28 325.981 64.1493 326.392 64.1493H334.512C336.789 64.1493 338.488 63.5706 339.608 62.4133C340.728 61.256 341.344 59.6133 341.456 57.4853C341.493 56.8133 341.512 56.2533 341.512 55.8053C341.512 55.3573 341.493 54.816 341.456 54.1813C341.344 52.016 340.728 50.3733 339.608 49.2533C338.488 48.096 336.789 47.5173 334.512 47.5173H326.392C325.981 47.5173 325.627 47.3866 325.328 47.1253C325.067 46.864 324.936 46.528 324.936 46.1173V41.2453C324.936 40.8346 325.067 40.4986 325.328 40.2373C325.627 39.976 325.981 39.8453 326.392 39.8453H334.792C338.376 39.8453 341.269 40.4426 343.472 41.6373C345.675 42.7946 347.317 44.456 348.4 46.6213C349.483 48.7493 350.08 51.2693 350.192 54.1813C350.229 54.816 350.248 55.3573 350.248 55.8053C350.248 56.2533 350.229 56.8133 350.192 57.4853C350.08 60.36 349.483 62.88 348.4 65.0453C347.317 67.2106 345.675 68.8906 343.472 70.0853C341.269 71.2426 338.376 71.8213 334.792 71.8213H326.392ZM357.516 71.8213C357.105 71.8213 356.769 71.6906 356.508 71.4293C356.246 71.1306 356.116 70.7946 356.116 70.4213V41.2453C356.116 40.8346 356.246 40.4986 356.508 40.2373C356.769 39.976 357.105 39.8453 357.516 39.8453H364.124C364.534 39.8453 364.87 39.976 365.132 40.2373C365.393 40.4986 365.524 40.8346 365.524 41.2453V70.4213C365.524 70.7946 365.393 71.1306 365.132 71.4293C364.87 71.6906 364.534 71.8213 364.124 71.8213H357.516ZM377.056 71.8213C376.235 71.8213 375.824 71.4106 375.824 70.5893V53.3973C375.824 51.008 376.067 49.1786 376.552 47.9093C377.075 46.64 377.877 46.0053 378.96 46.0053H387.976C387.043 46.0053 386.277 46.7893 385.68 48.3573C385.12 49.888 384.84 51.7733 384.84 54.0133V70.5893C384.84 70.9626 384.653 71.2613 384.28 71.4853C383.944 71.7093 383.589 71.8213 383.216 71.8213H377.056ZM372.688 47.1813C372.315 47.1813 371.979 47.0506 371.68 46.7893C371.419 46.528 371.288 46.192 371.288 45.7813V41.2453C371.288 40.8346 371.419 40.4986 371.68 40.2373C371.979 39.976 372.315 39.8453 372.688 39.8453H388.872C389.283 39.8453 389.619 39.976 389.88 40.2373C390.141 40.4986 390.272 40.8346 390.272 41.2453V45.7813C390.272 46.1546 390.141 46.4906 389.88 46.7893C389.656 47.0506 389.32 47.1813 388.872 47.1813H372.688ZM418.045 71.8213C417.634 71.8213 417.279 71.6906 416.981 71.4293C416.719 71.168 416.589 70.832 416.589 70.4213V53.8453C416.589 51.68 416.066 50.0373 415.021 48.9173C413.975 47.76 412.314 47.1813 410.037 47.1813H397.437C397.026 47.1813 396.69 47.0506 396.429 46.7893C396.167 46.528 396.037 46.192 396.037 45.7813V41.2453C396.037 40.8346 396.167 40.4986 396.429 40.2373C396.69 39.976 397.026 39.8453 397.437 39.8453H410.317C415.319 39.8453 419.127 40.9653 421.741 43.2053C424.391 45.4453 425.717 48.992 425.717 53.8453V70.4213C425.717 70.7946 425.567 71.1306 425.269 71.4293C425.007 71.6906 424.69 71.8213 424.317 71.8213H418.045ZM397.437 71.8213C397.026 71.8213 396.69 71.6906 396.429 71.4293C396.167 71.1306 396.037 70.7946 396.037 70.4213V53.8453C396.037 53.472 396.167 53.1546 396.429 52.8933C396.69 52.5946 397.026 52.4453 397.437 52.4453H403.709C404.119 52.4453 404.455 52.5946 404.717 52.8933C404.978 53.1546 405.109 53.472 405.109 53.8453V70.4213C405.109 70.7946 404.978 71.1306 404.717 71.4293C404.455 71.6906 404.119 71.8213 403.709 71.8213H397.437Z" fill="white"/>
<g style="mix-blend-mode:multiply" opacity="0.44">
<path d="M534.529 98.0842H165.478C147.224 98.0842 132.428 83.2886 132.428 65.0348V76.6306C132.428 94.8844 147.224 109.68 165.478 109.68H534.529C544.128 109.68 552.774 105.589 558.817 99.0468C564.263 93.1553 567.587 85.2762 567.587 76.6217V65.0259C567.587 73.6804 564.263 81.5595 558.817 87.451C552.774 93.9842 544.137 98.0842 534.529 98.0842Z" fill="#66525B"/>
</g>
<g style="mix-blend-mode:multiply" opacity="0.2">
<path d="M216.914 520.764C240.06 520.764 258.823 502.001 258.823 478.855C258.823 455.71 240.06 436.946 216.914 436.946C193.769 436.946 175.005 455.71 175.005 478.855C175.005 502.001 193.769 520.764 216.914 520.764Z" fill="#F3B516"/>
<path d="M133.351 439.708C137.592 429.471 132.73 417.734 122.493 413.494C112.256 409.254 100.52 414.115 96.2794 424.352C92.039 434.589 96.9004 446.326 107.138 450.566C117.375 454.806 129.111 449.945 133.351 439.708Z" fill="#F3B516"/>
<path d="M668.358 558.636L665.22 665.672C665.22 688.044 647.02 706.244 624.648 706.244H75.3493C52.9866 706.244 34.7773 688.044 34.7773 665.672L31.9697 570.009C56.5874 544.081 91.3927 527.904 129.977 527.904C171.467 527.904 208.572 546.612 233.368 576.052C242.842 572.594 253.065 570.713 263.743 570.713C300.295 570.713 331.687 592.817 345.27 624.396C351.028 623.112 357.027 622.435 363.168 622.435C393.606 622.435 420.166 639.013 434.329 663.622C446.023 632.275 476.22 609.948 511.64 609.948C512.327 609.948 513.004 609.948 513.69 609.975C530.304 571.159 568.844 543.956 613.739 543.956C633.65 543.956 652.314 549.304 668.366 558.645L668.358 558.636Z" fill="#F3B516"/>
<path d="M436.281 609.93C458.935 609.93 477.299 591.566 477.299 568.912C477.299 546.259 458.935 527.895 436.281 527.895C413.628 527.895 395.264 546.259 395.264 568.912C395.264 591.566 413.628 609.93 436.281 609.93Z" fill="#F3B516"/>
<path d="M528.575 511.843C538.179 511.843 545.965 504.058 545.965 494.454C545.965 484.85 538.179 477.064 528.575 477.064C518.971 477.064 511.186 484.85 511.186 494.454C511.186 504.058 518.971 511.843 528.575 511.843Z" fill="#F3B516"/>
<path opacity="0.1" d="M672.466 418.701L670.318 492.126C664.142 495.593 657.002 497.572 649.409 497.572C625.771 497.572 606.608 478.409 606.608 454.772C606.608 431.135 625.771 411.972 649.409 411.972C657.903 411.972 665.817 414.441 672.466 418.701Z" fill="#F3B516"/>
</g>
</g>
<defs>
<clipPath id="clip0_1411_30773">
<rect width="700" height="749.048" fill="white"/>
</clipPath>
</defs>
</svg>
