<svg width="1000" height="1000" viewBox="0 0 1000 1000" fill="none" xmlns="http://www.w3.org/2000/svg">
<g clip-path="url(#clip0_548_25697)">
<g clip-path="url(#clip1_548_25697)">
<path style="mix-blend-mode:screen" d="M471.133 871.052C676.104 871.052 842.266 704.891 842.266 499.92C842.266 294.95 676.104 128.788 471.133 128.788C266.163 128.788 100.001 294.95 100.001 499.92C100.001 704.891 266.163 871.052 471.133 871.052Z" fill="url(#paint0_radial_548_25697)"/>
<path fill-rule="evenodd" clip-rule="evenodd" d="M556.178 209.617C735.659 209.617 881.171 355.128 881.171 534.609C881.171 714.09 735.659 859.601 556.178 859.601C376.697 859.601 231.138 714.138 231.138 534.609C231.138 355.08 376.649 209.617 556.178 209.617Z" fill="url(#paint1_radial_548_25697)"/>
<path style="mix-blend-mode:screen" fill-rule="evenodd" clip-rule="evenodd" d="M556.178 209.617C735.659 209.617 881.171 355.128 881.171 534.609C881.171 714.09 735.659 859.601 556.178 859.601C376.697 859.601 231.138 714.138 231.138 534.609C231.138 355.08 376.649 209.617 556.178 209.617Z" fill="url(#paint2_radial_548_25697)"/>
<path style="mix-blend-mode:screen" fill-rule="evenodd" clip-rule="evenodd" d="M314.077 419.667C308.088 415.546 308.183 409.078 296.014 408.79C284.371 408.551 276.178 420.194 271.913 432.603C258.498 471.7 260.175 524.835 276.417 562.734C282.55 577.06 291.845 589.948 301.14 602.502C313.837 619.654 339.854 643.515 363.81 635.322C374.016 631.824 381.921 623.344 391.839 619.079C398.786 616.061 406.357 614.767 413.831 613.665C424.276 612.132 434.913 612.18 445.454 611.27C475.207 608.586 466.871 601.495 487.329 593.781C494.133 591.242 501.751 591.721 508.698 589.565C514.208 587.888 519.527 585.445 524.366 582.33C541.279 571.406 516.46 570.735 509.609 571.502C506.015 571.885 502.709 573.754 499.355 575.095C492.648 577.826 486.467 581.899 479.472 583.816C473.53 585.445 467.206 586.307 461.121 585.636C452.64 584.678 444.783 580.749 436.398 579.024C431.559 578.018 428.876 578.593 424.037 577.539C419.676 576.581 414.981 575.67 411.388 573.035C391.839 558.709 412.106 535.807 437.883 537.771C446.891 538.442 455.611 538.778 459.875 535.951C460.977 535.232 461.121 533.172 460.498 532.022C459.732 530.728 458.773 529.578 457.671 528.524C452.066 522.871 446.603 516.402 449.718 507.539C450.676 504.712 452.784 502.364 456.282 500.974C461.983 498.77 468.643 500.927 474.632 499.777C477.747 499.202 481.244 498.243 483.353 495.848C486.85 491.871 487.377 485.93 490.587 481.714C503.141 465.184 536.392 470.502 555.94 466.669C564.373 464.992 573.237 462.884 580.041 457.613C586.269 452.822 588.569 431.549 595.708 425.081C602.56 418.852 611.998 416.265 620.431 412.432C640.507 403.328 655.312 404.957 666.811 382.918C670.692 375.491 670.165 366.244 674.046 358.817C676.968 353.26 690 347.702 692.396 341.952C708.83 302.999 649.083 232.999 603.853 239.227C577.549 242.869 587.18 248.474 601.218 255.757C632.601 272.095 651.239 286.661 648.7 325.039C647.55 342.671 628.001 339.365 623.402 341.617C621.821 342.383 621.389 344.683 621.294 346.456C620.958 354.409 624.072 362.555 622.204 370.269C620.335 377.935 616.071 385.217 610.465 390.727C605.674 395.471 598.87 397.962 592.402 399.783C585.598 401.651 578.364 402.035 571.32 401.603C562.936 401.076 554.168 400.454 546.597 396.764C529.397 388.427 524.318 368.544 530.355 350.96C532.224 345.546 536.919 341.521 539.698 336.49C542.669 331.124 536.584 326.764 549.185 318.619C559.342 312.055 570.698 301.13 536.967 311.192C523.408 315.217 508.651 317.181 514.065 331.363C515.358 334.717 517.035 338.023 517.371 341.617C521.491 382.965 493.893 374.437 460.45 380.761C454.126 381.959 447.562 382.295 441.477 384.355C435.919 386.223 431.463 390.823 425.809 392.5C414.31 395.902 397.541 392.835 386.042 396.429C383.406 397.243 380.819 399.974 380.628 402.753C380.34 406.491 390.498 413.534 380.867 422.398C374.111 428.578 360.36 428.914 351.305 429.057C338.081 429.249 323.899 426.374 314.125 419.619L314.077 419.667ZM352.646 554.301C436.446 551.283 402.188 610.551 361.367 595.554C354.898 593.206 348.622 589.948 343.303 585.636C329.552 574.425 338.8 554.828 352.646 554.301Z" fill="url(#paint3_radial_548_25697)"/>
<path fill-rule="evenodd" clip-rule="evenodd" d="M241.824 617.451C240.147 626.123 236.937 634.603 236.793 643.419C236.793 646.342 239.476 648.69 241.297 650.942C244.842 655.35 248.196 660.237 252.892 663.447C259.456 667.999 270.619 665.986 277.615 667.807C280.777 668.621 283.125 671.4 286.191 672.454C290.407 673.94 295.055 673.892 299.271 675.329C301.236 676 312.591 680.791 305.452 684.049C303.248 685.055 300.565 683.81 298.217 684.337C296.444 684.768 294.624 685.583 293.378 686.876C290.647 689.799 289.305 693.871 286.622 696.794C284.083 699.573 278.238 696.938 276.177 694.782C271.817 690.278 268.272 685.295 265.205 679.546C263.528 683.522 263.049 687.451 262.474 691.476C261.756 696.507 261.276 701.585 261.42 706.664C261.42 707.862 262.139 709.108 263.097 709.826C270.38 715.48 296.876 729.998 304.206 732.25C310.339 734.166 316.568 735.651 322.892 736.897C339.901 740.251 336.739 735.699 352.023 730.141C360.456 727.075 369.032 724.296 377.8 722.38C396.247 718.307 415.268 716.917 433.523 712.126C446.986 708.629 459.587 702.4 472.668 697.657C482.298 694.207 491.737 689.751 501.751 687.547C505.871 686.637 510.423 687.02 514.4 688.457C517.418 689.511 520.053 691.907 521.778 694.638C523.216 696.938 523.743 699.908 523.455 702.639C523.168 705.131 521.97 707.718 520.149 709.395C516.556 712.749 511.429 714.234 507.644 717.397C504.194 720.271 501.128 723.625 498.589 727.315C496.576 730.285 496.385 734.358 494.085 737.089C491.881 739.676 488.623 741.305 485.508 742.647C476.98 746.288 467.924 748.588 459.3 751.99C456.329 753.187 453.407 754.625 450.724 756.35C443.201 761.189 436.829 767.897 428.732 771.73C422.599 774.652 415.604 775.467 408.848 776.233C396.055 777.719 383.119 777.431 370.278 778.485C360.935 779.252 351.4 783.181 342.201 779.06C339.326 787.205 337.793 801.723 340.764 812.503C342.441 818.684 349.34 822.469 354.898 825.583C360.312 828.65 366.732 829.464 372.817 830.566C383.981 832.531 395.432 832.627 406.548 834.783C411.627 835.741 416.466 837.801 421.161 839.909C426.528 842.305 431.415 845.659 436.685 848.342C441.764 850.929 446.699 853.804 452.065 855.721C456.665 857.35 461.504 858.595 466.391 858.883C473.386 859.314 480.382 858.404 487.329 857.829C494.42 857.206 501.511 856.391 508.554 855.289C511.621 854.81 514.543 853.66 517.61 853.038C528.63 850.738 539.793 849.252 550.766 846.569C558.959 844.557 566.912 841.826 574.866 839.047C587.275 834.687 599.541 829.848 611.758 825.057C629.438 818.061 647.166 811.162 664.606 803.687C670.356 801.244 675.914 798.369 681.328 795.255C698.864 785.097 716.448 774.94 733.457 763.92C746.393 755.535 758.899 746.528 771.117 737.137C782.232 728.56 792.917 719.409 803.362 710.018C812.369 701.921 820.898 693.296 829.426 684.72C832.253 681.893 834.361 678.348 837.428 675.856C837.907 675.473 838.769 676.335 838.913 676.91C841.165 686.349 807.291 725.59 799.289 732.345C793.108 737.568 786.544 742.263 780.316 747.39C771.787 754.481 763.594 762.051 755.018 769.094C748.741 774.269 742.465 779.444 735.757 783.995C724.114 791.853 711.944 798.752 699.774 807.041C691.102 812.935 681.711 820.217 673.422 825.583C666.571 829.991 660.63 831.668 653.395 834.447C642.998 838.472 632.888 843.167 622.347 846.809C616.358 848.869 610.034 849.779 603.997 851.456C594.222 854.187 586.604 857.014 576.447 858.931C595.756 860.895 606.967 866.693 618.562 861.422C623.353 859.218 627.234 855.242 632.121 853.277C639.692 850.211 647.645 848.246 655.599 846.521C675.626 842.161 705.572 837.274 716.161 830.566C722.533 826.494 726.222 820.169 732.115 815.522C736.475 812.12 741.746 809.964 746.25 806.802C762.013 795.686 778.687 785.193 791.719 770.963C806.716 754.625 816.202 733.974 829.378 716.151C840.35 701.346 856.401 688.984 863.732 670.969C867.373 662.057 867.038 651.948 869.434 642.653C871.542 634.651 873.889 626.698 877.243 619.176C891.042 588.559 895.498 590.38 899.523 551.427C900.433 542.419 900.241 533.172 898.325 524.308C896.792 517.217 891.761 511.276 889.269 504.425C886.586 497.094 885.293 489.284 882.945 481.81C881.364 476.779 879.543 471.796 877.531 466.909C875.471 461.878 872.931 457.039 870.679 452.152C872.5 461.734 874.848 471.269 876.189 480.947C878.729 499.154 879.591 519.661 878.585 538.011C875.375 595.938 853.143 638.58 812.753 679.881C803.218 689.607 793.827 699.621 783.238 708.197C778.447 712.078 772.554 714.474 766.996 717.061C759.33 720.655 751.281 723.338 743.519 726.692C735.613 730.093 727.516 733.016 720.041 737.232C715.202 739.963 711.178 743.94 706.77 747.342C701.978 750.983 697.522 755.056 692.444 758.314C686.407 762.195 680.13 765.693 673.614 768.711C660.725 774.652 647.549 780.066 634.325 785.145C625.941 788.355 613.819 794.632 597.433 796.884C595.947 797.075 593.935 797.075 593.073 795.83C592.45 794.919 593.6 793.338 594.558 792.811C605.961 787.062 615.112 781.791 624.695 775.179C633.415 769.19 640.698 761.237 649.37 755.152C656.222 750.361 664.463 747.629 671.218 742.647C676.297 738.909 680.705 734.166 684.634 729.231C691.917 720.08 697.522 709.635 704.805 700.483C709.357 694.782 714.436 689.368 720.185 684.816C725.599 680.552 731.684 677.102 737.961 674.275C746.106 670.634 755.545 669.963 763.259 665.555C768.625 662.489 772.937 657.554 776.195 652.283C781.466 643.851 783.478 633.693 788.557 625.165C796.271 612.228 805.518 600.25 814.478 588.128C821.521 578.593 828.804 569.203 836.613 560.243C838.865 557.656 841.644 555.404 844.615 553.631C845.813 552.912 847.346 552.625 848.687 553.008C851.227 553.727 851.514 557.224 857.12 556.602C865.936 555.691 869.194 543.138 871.446 535.807C873.746 528.333 876.237 507.491 875.95 499.202C875.95 497.669 875.614 495.704 874.129 494.986C873.41 494.65 872.404 495.752 871.158 495.321C870.2 494.986 869.625 493.74 869.482 492.734C867.517 481.283 866.846 469.64 865.409 458.093C864.69 452.2 864.307 446.259 863.013 440.461C862.199 436.963 860.713 433.61 859.084 430.351C858.557 429.297 857.791 428.1 856.689 427.812C855.97 427.62 855.635 428.866 855.012 429.297C854.341 429.824 853.718 430.543 852.904 430.639C851.706 430.783 849.741 431.166 849.31 430.016C848.687 428.339 848.208 426.614 847.825 424.842C845.621 414.253 844.088 403.904 841.596 393.123C841.213 391.494 840.542 389.913 840.303 388.284C840.303 387.949 840.542 387.374 840.878 387.422C841.405 387.422 841.74 387.997 842.027 388.428C843.561 391.111 844.806 393.986 846.196 396.765C847.442 399.208 848.735 401.891 849.981 404.143C851.083 406.203 851.754 404.431 851.802 403.856C851.897 400.119 851.275 396.333 850.316 392.692C848.352 385.553 845.908 378.51 842.938 371.754C839.009 362.89 834.984 346.552 832.397 344.061C820.658 332.801 802.499 317.469 790.377 302.185C777.153 285.511 759.905 252.595 744.86 242.821C739.877 239.563 732.02 244.211 713.238 234.724C701.691 228.879 692.06 222.746 681.472 215.319C672.368 208.899 569.931 205.497 538.26 210.193C538.739 214.888 546.31 216.23 551.197 216.373C557.569 216.517 563.846 214.936 570.17 214.553C571.176 214.505 572.949 214.026 573.189 214.984C573.428 216.038 571.656 216.469 570.793 217.092C566.912 219.823 563.367 221.308 560.109 225.237C557.186 228.735 564.325 228.304 566.002 228.447C574.626 229.07 589.335 229.597 592.929 229.789C599.205 230.076 605.53 228.783 611.758 229.501C618.562 230.316 625.366 231.897 631.786 234.341C636.194 236.018 639.74 239.467 644.004 241.575C651.191 245.169 658.33 248.954 665.996 251.35C670.356 252.739 675.195 251.829 679.699 252.691C682.047 253.122 684.155 254.512 686.455 255.231C689.809 256.285 693.642 256.285 696.708 258.105C700.685 260.453 704.518 263.472 707.105 267.305C710.171 271.856 711.513 277.462 713.286 282.685C715.442 288.961 716.208 295.717 718.844 301.802C720.233 305.012 722.772 307.599 725.168 310.091C729.672 314.786 734.128 319.673 739.494 323.362C744.333 326.668 745.771 320.344 746.729 319.434C747.16 319.002 747.975 319.194 748.55 319.434C749.795 320.009 751.185 320.631 751.856 321.829C753.341 324.464 754.299 327.339 755.305 330.214C757.222 335.532 756.791 335.436 760.863 338.838C763.642 341.138 766.565 343.246 769.152 345.786C770.973 347.558 772.937 349.379 774.135 351.679C775.716 354.697 776.77 358.003 777.441 361.309C778.112 364.615 777.633 368.065 778.208 371.419C778.447 372.808 779.07 374.15 779.884 375.348C781.705 378.127 784.34 380.283 785.922 383.157C787.646 386.272 788.125 389.913 789.707 393.075C791.527 396.765 795.217 399.592 796.175 403.616C798.187 411.953 793.827 426.662 789.707 433.897C786.976 438.64 782.568 442.234 779.022 446.402C774.614 451.529 769.583 456.176 765.75 461.782C763.163 465.519 761.917 469.975 760.049 474.144C756.311 482.481 753.437 491.249 748.885 499.154C745.339 505.287 740.692 510.749 735.948 516.019C730.438 522.152 724.497 527.998 718.173 533.316C710.507 539.832 701.93 545.246 694.073 551.523C686.694 557.416 679.938 564.172 672.368 569.873C664.127 576.15 655.695 582.235 646.783 587.505C639.644 591.674 631.93 594.74 624.36 598.046C618.993 600.394 613.292 601.975 607.926 604.37C603.565 606.335 599.445 608.826 595.277 611.126C588.233 615.007 581.286 619.128 574.195 622.865C567.152 626.602 560.204 630.627 552.826 633.549C548.466 635.274 543.77 636.328 539.123 636.855C537.35 637.047 535.29 636.855 533.852 635.801C532.99 635.178 532.654 633.549 533.229 632.639C534.571 630.531 536.775 629.046 538.931 627.8C547.076 623.2 555.653 619.271 564.085 615.151C573.237 610.647 582.675 606.718 591.635 601.879C598.343 598.286 604.907 594.357 611.04 589.853C619.041 583.96 626.851 577.731 633.942 570.736C644.195 560.578 653.011 549.031 662.882 538.491C667.481 533.556 672.416 528.956 677.351 524.356C682.382 519.661 687.892 515.492 692.731 510.653C698.96 504.425 704.949 497.908 710.507 491.057C715.49 484.924 720.089 478.408 724.354 471.796C728.187 465.807 732.882 460.105 734.894 453.254C738.727 440.126 739.734 426.279 741.65 412.72C742.608 406.108 743.662 399.496 743.615 392.836C743.567 386.559 741.267 380.426 741.363 374.15C741.363 370.988 742.992 368.017 743.902 364.951C744.573 362.699 745.914 360.638 746.154 358.339C746.441 355.751 745.148 341.33 744.333 339.221C741.219 330.837 734.319 328.681 726.558 332.61C723.779 334.047 720.664 339.988 719.802 342.863C718.604 346.888 718.46 351.152 717.406 355.224C715.106 363.849 712.184 363.609 703.703 366.388C697.139 368.496 690.192 369.215 683.676 371.515C681.615 372.233 679.459 373.431 678.261 375.3C676.872 377.456 676.776 380.283 676.441 382.822C676.105 385.793 677.064 388.955 676.297 391.878C674.237 399.927 664.702 405.964 658.809 411.474C656.222 413.87 654.353 417.176 651.287 418.852C646.831 421.248 641.752 422.206 636.817 423.356C630.924 424.746 624.743 424.985 618.898 426.518C615.017 427.525 611.231 429.058 607.734 431.022C605.338 432.412 603.086 434.232 601.409 436.436C600.595 437.49 600.691 439.024 600.739 440.365C600.739 441.132 601.074 441.994 601.649 442.569C602.32 443.24 603.565 443.096 604.188 443.767C605.913 445.636 604.188 450.475 601.697 452.823C600.164 454.212 597.528 453.925 596.043 455.362C593.743 457.566 592.833 460.92 590.773 463.363C583.155 472.179 570.601 480.899 558.671 481.906C552.634 482.385 546.549 481.283 540.464 481.283C532.846 481.283 525.18 481.426 517.562 481.906C505.919 482.624 497.918 482.049 491.497 492.878C489.868 495.704 489.102 499.01 487.137 501.598C485.987 503.083 484.215 504.089 482.49 504.76C480.142 505.67 477.603 505.958 475.111 506.245C471.662 506.676 468.068 505.862 464.714 506.868C462.989 507.347 461.744 508.976 460.785 510.462C459.731 512.139 458.533 514.103 458.821 516.019C459.108 518.08 461.648 519.182 462.271 521.146C462.75 522.679 461.504 524.404 461.983 525.985C462.462 527.662 463.516 529.291 465.002 530.202C466.391 531.064 468.212 530.872 469.841 530.968C474.345 531.208 478.896 530.441 483.304 531.256C488.671 532.262 488.575 539.497 484.215 540.455C477.986 541.796 471.566 541.892 465.241 542.323C463.708 542.419 462.079 541.653 460.594 542.036C456.809 542.898 453.455 545.486 449.622 545.965C445.07 546.492 440.422 544.144 435.919 544.911C431.367 545.677 427.63 548.983 423.27 550.469C420.203 551.523 416.706 551.044 413.783 552.433C404.057 556.985 404.44 567.238 413.352 569.155C420.874 570.784 428.78 569.442 436.398 570.496C450.772 572.461 453.598 575.623 471.661 574.569C479.567 574.138 487.521 573.323 495.139 571.263C498.445 570.352 500.649 566.951 503.859 565.849C507.836 564.507 512.531 565.801 516.364 564.028C519.67 562.495 521.012 558.231 524.174 556.506C527.528 554.685 531.6 554.637 535.338 553.775C541.135 552.433 546.98 551.044 552.826 549.846C556.85 549.031 565.331 547.833 564.564 554.829C564.229 557.847 563.271 560.914 561.546 563.405C558.911 567.238 555.557 570.64 551.772 573.323C547.364 576.437 541.902 577.731 537.302 580.558C534.284 582.426 532.367 585.876 529.157 587.314C520.868 591.099 511.86 593.111 503.236 596.034C497.534 597.95 491.737 599.579 486.227 601.927C484.406 602.694 482.873 604.083 481.244 605.233C477.507 607.916 474.009 610.935 470.08 613.378C466.822 615.438 463.516 617.499 459.827 618.648C451.49 621.332 442.914 623.009 434.385 624.829C429.163 625.931 423.797 626.314 418.574 627.369C412.154 628.662 405.781 630.195 399.457 631.872C394.474 633.214 389.587 634.747 384.7 636.376C381.058 637.622 377.561 639.443 373.871 640.449C370.901 641.263 367.787 641.551 364.672 641.79C356.24 642.509 347.807 642.844 339.374 643.276C333.194 643.611 327.013 643.898 320.832 644.042C316.568 644.138 312.256 644.569 308.039 643.898C300.038 642.653 292.276 640.257 284.418 638.341C279.387 637.095 274.405 635.705 269.374 634.412C266.164 633.597 262.858 633.214 259.743 632.16C256.916 631.154 253.898 630.195 251.598 628.231C247.909 625.117 245.226 620.948 242.063 617.355L241.824 617.451ZM330.223 559.38C328.067 561.632 326.39 564.603 326.007 567.669C324.33 581.133 345.938 590.284 359.593 593.782C366.349 595.507 370.278 594.932 380.963 589.326C382.592 588.463 384.939 588.463 385.946 586.93C387.958 583.72 387.67 579.504 389.251 576.102C390.593 573.227 393.372 571.167 394.666 568.292C395.241 566.951 395.336 565.226 394.666 563.932C393.42 561.632 391.695 559.141 389.251 558.231C380.244 554.733 338.081 551.283 330.223 559.428V559.38Z" fill="url(#paint4_radial_548_25697)"/>
<path style="mix-blend-mode:multiply" fill-rule="evenodd" clip-rule="evenodd" d="M241.824 617.451C240.147 626.123 236.937 634.603 236.793 643.419C236.793 646.342 239.476 648.69 241.297 650.942C244.842 655.35 248.196 660.237 252.892 663.447C259.456 667.999 270.619 665.986 277.615 667.807C280.777 668.621 283.125 671.4 286.191 672.454C290.407 673.94 295.055 673.892 299.271 675.329C301.236 676 312.591 680.791 305.452 684.049C303.248 685.055 300.565 683.81 298.217 684.337C296.444 684.768 294.624 685.583 293.378 686.876C290.647 689.799 289.305 693.871 286.622 696.794C284.083 699.573 278.238 696.938 276.177 694.782C271.817 690.278 268.272 685.295 265.205 679.546C263.528 683.522 263.049 687.451 262.474 691.476C261.756 696.507 261.276 701.585 261.42 706.664C261.42 707.862 262.139 709.108 263.097 709.826C270.38 715.48 296.876 729.998 304.206 732.25C310.339 734.166 316.568 735.651 322.892 736.897C339.901 740.251 336.739 735.699 352.023 730.141C360.456 727.075 369.032 724.296 377.8 722.38C396.247 718.307 415.268 716.917 433.523 712.126C446.986 708.629 459.587 702.4 472.668 697.657C482.298 694.207 491.737 689.751 501.751 687.547C505.871 686.637 510.423 687.02 514.4 688.457C517.418 689.511 520.053 691.907 521.778 694.638C523.216 696.938 523.743 699.908 523.455 702.639C523.168 705.131 521.97 707.718 520.149 709.395C516.556 712.749 511.429 714.234 507.644 717.397C504.194 720.271 501.128 723.625 498.589 727.315C496.576 730.285 496.385 734.358 494.085 737.089C491.881 739.676 488.623 741.305 485.508 742.647C476.98 746.288 467.924 748.588 459.3 751.99C456.329 753.187 453.407 754.625 450.724 756.35C443.201 761.189 436.829 767.897 428.732 771.73C422.599 774.652 415.604 775.467 408.848 776.233C396.055 777.719 383.119 777.431 370.278 778.485C360.935 779.252 351.4 783.181 342.201 779.06C339.326 787.205 337.793 801.723 340.764 812.503C342.441 818.684 349.34 822.469 354.898 825.583C360.312 828.65 366.732 829.464 372.817 830.566C383.981 832.531 395.432 832.627 406.548 834.783C411.627 835.741 416.466 837.801 421.161 839.909C426.528 842.305 431.415 845.659 436.685 848.342C441.764 850.929 446.699 853.804 452.065 855.721C456.665 857.35 461.504 858.595 466.391 858.883C473.386 859.314 480.382 858.404 487.329 857.829C494.42 857.206 501.511 856.391 508.554 855.289C511.621 854.81 514.543 853.66 517.61 853.038C528.63 850.738 539.793 849.252 550.766 846.569C558.959 844.557 566.912 841.826 574.866 839.047C587.275 834.687 599.541 829.848 611.758 825.057C629.438 818.061 647.166 811.162 664.606 803.687C670.356 801.244 675.914 798.369 681.328 795.255C698.864 785.097 716.448 774.94 733.457 763.92C746.393 755.535 758.899 746.528 771.117 737.137C782.232 728.56 792.917 719.409 803.362 710.018C812.369 701.921 820.898 693.296 829.426 684.72C832.253 681.893 834.361 678.348 837.428 675.856C837.907 675.473 838.769 676.335 838.913 676.91C841.165 686.349 807.291 725.59 799.289 732.345C793.108 737.568 786.544 742.263 780.316 747.39C771.787 754.481 763.594 762.051 755.018 769.094C748.741 774.269 742.465 779.444 735.757 783.995C724.114 791.853 711.944 798.752 699.774 807.041C691.102 812.935 681.711 820.217 673.422 825.583C666.571 829.991 660.63 831.668 653.395 834.447C642.998 838.472 632.888 843.167 622.347 846.809C616.358 848.869 610.034 849.779 603.997 851.456C594.222 854.187 586.604 857.014 576.447 858.931C595.756 860.895 606.967 866.693 618.562 861.422C623.353 859.218 627.234 855.242 632.121 853.277C639.692 850.211 647.645 848.246 655.599 846.521C675.626 842.161 705.572 837.274 716.161 830.566C722.533 826.494 726.222 820.169 732.115 815.522C736.475 812.12 741.746 809.964 746.25 806.802C762.013 795.686 778.687 785.193 791.719 770.963C806.716 754.625 816.202 733.974 829.378 716.151C840.35 701.346 856.401 688.984 863.732 670.969C867.373 662.057 867.038 651.948 869.434 642.653C871.542 634.651 873.889 626.698 877.243 619.176C891.042 588.559 895.498 590.38 899.523 551.427C900.433 542.419 900.241 533.172 898.325 524.308C896.792 517.217 891.761 511.276 889.269 504.425C886.586 497.094 885.293 489.284 882.945 481.81C881.364 476.779 879.543 471.796 877.531 466.909C875.471 461.878 872.931 457.039 870.679 452.152C872.5 461.734 874.848 471.269 876.189 480.947C878.729 499.154 879.591 519.661 878.585 538.011C875.375 595.938 853.143 638.58 812.753 679.881C803.218 689.607 793.827 699.621 783.238 708.197C778.447 712.078 772.554 714.474 766.996 717.061C759.33 720.655 751.281 723.338 743.519 726.692C735.613 730.093 727.516 733.016 720.041 737.232C715.202 739.963 711.178 743.94 706.77 747.342C701.978 750.983 697.522 755.056 692.444 758.314C686.407 762.195 680.13 765.693 673.614 768.711C660.725 774.652 647.549 780.066 634.325 785.145C625.941 788.355 613.819 794.632 597.433 796.884C595.947 797.075 593.935 797.075 593.073 795.83C592.45 794.919 593.6 793.338 594.558 792.811C605.961 787.062 615.112 781.791 624.695 775.179C633.415 769.19 640.698 761.237 649.37 755.152C656.222 750.361 664.463 747.629 671.218 742.647C676.297 738.909 680.705 734.166 684.634 729.231C691.917 720.08 697.522 709.635 704.805 700.483C709.357 694.782 714.436 689.368 720.185 684.816C725.599 680.552 731.684 677.102 737.961 674.275C746.106 670.634 755.545 669.963 763.259 665.555C768.625 662.489 772.937 657.554 776.195 652.283C781.466 643.851 783.478 633.693 788.557 625.165C796.271 612.228 805.518 600.25 814.478 588.128C821.521 578.593 828.804 569.203 836.613 560.243C838.865 557.656 841.644 555.404 844.615 553.631C845.813 552.912 847.346 552.625 848.687 553.008C851.227 553.727 851.514 557.224 857.12 556.602C865.936 555.691 869.194 543.138 871.446 535.807C873.746 528.333 876.237 507.491 875.95 499.202C875.95 497.669 875.614 495.704 874.129 494.986C873.41 494.65 872.404 495.752 871.158 495.321C870.2 494.986 869.625 493.74 869.482 492.734C867.517 481.283 866.846 469.64 865.409 458.093C864.69 452.2 864.307 446.259 863.013 440.461C862.199 436.963 860.713 433.61 859.084 430.351C858.557 429.297 857.791 428.1 856.689 427.812C855.97 427.62 855.635 428.866 855.012 429.297C854.341 429.824 853.718 430.543 852.904 430.639C851.706 430.783 849.741 431.166 849.31 430.016C848.687 428.339 848.208 426.614 847.825 424.842C845.621 414.253 844.088 403.904 841.596 393.123C841.213 391.494 840.542 389.913 840.303 388.284C840.303 387.949 840.542 387.374 840.878 387.422C841.405 387.422 841.74 387.997 842.027 388.428C843.561 391.111 844.806 393.986 846.196 396.765C847.442 399.208 848.735 401.891 849.981 404.143C851.083 406.203 851.754 404.431 851.802 403.856C851.897 400.119 851.275 396.333 850.316 392.692C848.352 385.553 845.908 378.51 842.938 371.754C839.009 362.89 834.984 346.552 832.397 344.061C820.658 332.801 802.499 317.469 790.377 302.185C777.153 285.511 759.905 252.595 744.86 242.821C739.877 239.563 732.02 244.211 713.238 234.724C701.691 228.879 692.06 222.746 681.472 215.319C672.368 208.899 569.931 205.497 538.26 210.193C538.739 214.888 546.31 216.23 551.197 216.373C557.569 216.517 563.846 214.936 570.17 214.553C571.176 214.505 572.949 214.026 573.189 214.984C573.428 216.038 571.656 216.469 570.793 217.092C566.912 219.823 563.367 221.308 560.109 225.237C557.186 228.735 564.325 228.304 566.002 228.447C574.626 229.07 589.335 229.597 592.929 229.789C599.205 230.076 605.53 228.783 611.758 229.501C618.562 230.316 625.366 231.897 631.786 234.341C636.194 236.018 639.74 239.467 644.004 241.575C651.191 245.169 658.33 248.954 665.996 251.35C670.356 252.739 675.195 251.829 679.699 252.691C682.047 253.122 684.155 254.512 686.455 255.231C689.809 256.285 693.642 256.285 696.708 258.105C700.685 260.453 704.518 263.472 707.105 267.305C710.171 271.856 711.513 277.462 713.286 282.685C715.442 288.961 716.208 295.717 718.844 301.802C720.233 305.012 722.772 307.599 725.168 310.091C729.672 314.786 734.128 319.673 739.494 323.362C744.333 326.668 745.771 320.344 746.729 319.434C747.16 319.002 747.975 319.194 748.55 319.434C749.795 320.009 751.185 320.631 751.856 321.829C753.341 324.464 754.299 327.339 755.305 330.214C757.222 335.532 756.791 335.436 760.863 338.838C763.642 341.138 766.565 343.246 769.152 345.786C770.973 347.558 772.937 349.379 774.135 351.679C775.716 354.697 776.77 358.003 777.441 361.309C778.112 364.615 777.633 368.065 778.208 371.419C778.447 372.808 779.07 374.15 779.884 375.348C781.705 378.127 784.34 380.283 785.922 383.157C787.646 386.272 788.125 389.913 789.707 393.075C791.527 396.765 795.217 399.592 796.175 403.616C798.187 411.953 793.827 426.662 789.707 433.897C786.976 438.64 782.568 442.234 779.022 446.402C774.614 451.529 769.583 456.176 765.75 461.782C763.163 465.519 761.917 469.975 760.049 474.144C756.311 482.481 753.437 491.249 748.885 499.154C745.339 505.287 740.692 510.749 735.948 516.019C730.438 522.152 724.497 527.998 718.173 533.316C710.507 539.832 701.93 545.246 694.073 551.523C686.694 557.416 679.938 564.172 672.368 569.873C664.127 576.15 655.695 582.235 646.783 587.505C639.644 591.674 631.93 594.74 624.36 598.046C618.993 600.394 613.292 601.975 607.926 604.37C603.565 606.335 599.445 608.826 595.277 611.126C588.233 615.007 581.286 619.128 574.195 622.865C567.152 626.602 560.204 630.627 552.826 633.549C548.466 635.274 543.77 636.328 539.123 636.855C537.35 637.047 535.29 636.855 533.852 635.801C532.99 635.178 532.654 633.549 533.229 632.639C534.571 630.531 536.775 629.046 538.931 627.8C547.076 623.2 555.653 619.271 564.085 615.151C573.237 610.647 582.675 606.718 591.635 601.879C598.343 598.286 604.907 594.357 611.04 589.853C619.041 583.96 626.851 577.731 633.942 570.736C644.195 560.578 653.011 549.031 662.882 538.491C667.481 533.556 672.416 528.956 677.351 524.356C682.382 519.661 687.892 515.492 692.731 510.653C698.96 504.425 704.949 497.908 710.507 491.057C715.49 484.924 720.089 478.408 724.354 471.796C728.187 465.807 732.882 460.105 734.894 453.254C738.727 440.126 739.734 426.279 741.65 412.72C742.608 406.108 743.662 399.496 743.615 392.836C743.567 386.559 741.267 380.426 741.363 374.15C741.363 370.988 742.992 368.017 743.902 364.951C744.573 362.699 745.914 360.638 746.154 358.339C746.441 355.751 745.148 341.33 744.333 339.221C741.219 330.837 734.319 328.681 726.558 332.61C723.779 334.047 720.664 339.988 719.802 342.863C718.604 346.888 718.46 351.152 717.406 355.224C715.106 363.849 712.184 363.609 703.703 366.388C697.139 368.496 690.192 369.215 683.676 371.515C681.615 372.233 679.459 373.431 678.261 375.3C676.872 377.456 676.776 380.283 676.441 382.822C676.105 385.793 677.064 388.955 676.297 391.878C674.237 399.927 664.702 405.964 658.809 411.474C656.222 413.87 654.353 417.176 651.287 418.852C646.831 421.248 641.752 422.206 636.817 423.356C630.924 424.746 624.743 424.985 618.898 426.518C615.017 427.525 611.231 429.058 607.734 431.022C605.338 432.412 603.086 434.232 601.409 436.436C600.595 437.49 600.691 439.024 600.739 440.365C600.739 441.132 601.074 441.994 601.649 442.569C602.32 443.24 603.565 443.096 604.188 443.767C605.913 445.636 604.188 450.475 601.697 452.823C600.164 454.212 597.528 453.925 596.043 455.362C593.743 457.566 592.833 460.92 590.773 463.363C583.155 472.179 570.601 480.899 558.671 481.906C552.634 482.385 546.549 481.283 540.464 481.283C532.846 481.283 525.18 481.426 517.562 481.906C505.919 482.624 497.918 482.049 491.497 492.878C489.868 495.704 489.102 499.01 487.137 501.598C485.987 503.083 484.215 504.089 482.49 504.76C480.142 505.67 477.603 505.958 475.111 506.245C471.662 506.676 468.068 505.862 464.714 506.868C462.989 507.347 461.744 508.976 460.785 510.462C459.731 512.139 458.533 514.103 458.821 516.019C459.108 518.08 461.648 519.182 462.271 521.146C462.75 522.679 461.504 524.404 461.983 525.985C462.462 527.662 463.516 529.291 465.002 530.202C466.391 531.064 468.212 530.872 469.841 530.968C474.345 531.208 478.896 530.441 483.304 531.256C488.671 532.262 488.575 539.497 484.215 540.455C477.986 541.796 471.566 541.892 465.241 542.323C463.708 542.419 462.079 541.653 460.594 542.036C456.809 542.898 453.455 545.486 449.622 545.965C445.07 546.492 440.422 544.144 435.919 544.911C431.367 545.677 427.63 548.983 423.27 550.469C420.203 551.523 416.706 551.044 413.783 552.433C404.057 556.985 404.44 567.238 413.352 569.155C420.874 570.784 428.78 569.442 436.398 570.496C450.772 572.461 453.598 575.623 471.661 574.569C479.567 574.138 487.521 573.323 495.139 571.263C498.445 570.352 500.649 566.951 503.859 565.849C507.836 564.507 512.531 565.801 516.364 564.028C519.67 562.495 521.012 558.231 524.174 556.506C527.528 554.685 531.6 554.637 535.338 553.775C541.135 552.433 546.98 551.044 552.826 549.846C556.85 549.031 565.331 547.833 564.564 554.829C564.229 557.847 563.271 560.914 561.546 563.405C558.911 567.238 555.557 570.64 551.772 573.323C547.364 576.437 541.902 577.731 537.302 580.558C534.284 582.426 532.367 585.876 529.157 587.314C520.868 591.099 511.86 593.111 503.236 596.034C497.534 597.95 491.737 599.579 486.227 601.927C484.406 602.694 482.873 604.083 481.244 605.233C477.507 607.916 474.009 610.935 470.08 613.378C466.822 615.438 463.516 617.499 459.827 618.648C451.49 621.332 442.914 623.009 434.385 624.829C429.163 625.931 423.797 626.314 418.574 627.369C412.154 628.662 405.781 630.195 399.457 631.872C394.474 633.214 389.587 634.747 384.7 636.376C381.058 637.622 377.561 639.443 373.871 640.449C370.901 641.263 367.787 641.551 364.672 641.79C356.24 642.509 347.807 642.844 339.374 643.276C333.194 643.611 327.013 643.898 320.832 644.042C316.568 644.138 312.256 644.569 308.039 643.898C300.038 642.653 292.276 640.257 284.418 638.341C279.387 637.095 274.405 635.705 269.374 634.412C266.164 633.597 262.858 633.214 259.743 632.16C256.916 631.154 253.898 630.195 251.598 628.231C247.909 625.117 245.226 620.948 242.063 617.355L241.824 617.451ZM330.223 559.38C328.067 561.632 326.39 564.603 326.007 567.669C324.33 581.133 345.938 590.284 359.593 593.782C366.349 595.507 370.278 594.932 380.963 589.326C382.592 588.463 384.939 588.463 385.946 586.93C387.958 583.72 387.67 579.504 389.251 576.102C390.593 573.227 393.372 571.167 394.666 568.292C395.241 566.951 395.336 565.226 394.666 563.932C393.42 561.632 391.695 559.141 389.251 558.231C380.244 554.733 338.081 551.283 330.223 559.428V559.38Z" fill="url(#paint5_radial_548_25697)"/>
<path style="mix-blend-mode:multiply" fill-rule="evenodd" clip-rule="evenodd" d="M333.529 680.121C351.784 673.413 382.256 669.149 402.188 667.759C414.693 666.897 438.602 668.718 449.191 666.274C474.105 660.477 489.294 649.217 511.525 639.155C519.718 635.466 530.163 630.914 539.698 627.321C547.556 622.961 555.749 619.224 563.798 615.247C572.949 610.743 582.388 606.814 591.348 601.975C598.056 598.382 604.62 594.453 610.753 589.949C618.754 584.056 626.564 577.827 633.655 570.832C643.908 560.674 652.724 549.127 662.594 538.587C667.194 533.652 672.129 529.052 677.064 524.452C682.095 519.757 687.605 515.589 692.444 510.749C698.673 504.521 704.662 498.005 710.22 491.153C715.202 485.02 719.802 478.504 724.066 471.892C727.899 465.903 732.595 460.201 734.607 453.35C738.44 440.222 739.446 426.375 741.363 412.816C742.321 406.204 743.375 399.592 743.327 392.932C743.279 386.655 740.98 380.523 741.075 374.246C741.075 371.084 742.704 368.113 743.615 365.047C744.286 362.795 745.627 360.735 745.867 358.435C746.154 355.847 744.86 341.426 744.046 339.318C742.225 334.335 739.015 331.556 735.086 330.933C736.092 331.891 737.003 332.849 737.674 334.047C738.584 335.724 738.871 337.736 738.871 339.605C738.871 342.192 738.776 344.875 737.817 347.271C736.619 350.338 734.607 353.116 732.547 355.704C729.72 359.345 725.216 361.789 723.204 365.957C721.719 369.071 721.862 372.952 722.581 376.354C723.396 380.187 726.51 383.158 727.708 386.895C729.049 390.968 730.487 395.28 730.103 399.544C729.624 405.293 727.516 410.803 725.264 416.122C723.443 420.53 719.658 423.979 718.029 428.483C715.298 436.053 715.442 444.534 712.328 451.96C708.447 461.064 703.416 469.784 697.283 477.546C690.048 486.697 681.616 494.89 672.56 502.269C659.384 513.049 643.285 520.044 630.972 531.783C621.772 540.503 617.604 553.487 608.98 562.83C602.559 569.778 594.606 575.336 586.413 579.983C581.19 582.954 574.483 582.523 569.26 585.397C556.707 592.297 545.639 601.688 533.421 609.21C523.12 615.534 512.675 621.715 501.799 626.986C491.258 632.112 480.526 637.047 469.266 640.401C458.102 643.707 446.364 644.761 434.913 646.869C422.216 649.217 409.375 650.75 396.822 653.817C386.425 656.356 376.555 660.764 366.253 663.591C361.654 664.885 356.91 666.13 352.119 666.13C345.891 666.13 339.806 664.405 333.577 663.735C330.511 663.399 327.396 662.585 324.378 663.112C320.545 663.783 317.239 666.13 313.549 667.328C311.585 667.951 309.573 668.718 307.512 668.526C301.715 668.047 295.822 667.28 290.36 665.364C286.479 664.022 272.44 654.823 271.53 654.823C267.888 654.823 264.487 657.362 260.845 657.362C258.833 657.362 256.773 657.171 254.76 656.691C252.988 656.26 251.263 655.685 249.682 654.775C245.465 652.427 240.099 643.468 239.285 641.503C238.422 639.347 238.566 633.885 239.045 628.567C237.847 633.454 236.745 638.341 236.697 643.324C236.697 646.246 239.38 648.594 241.201 650.846C244.747 655.254 248.101 660.141 252.796 663.351C254.473 664.501 256.485 665.22 258.593 665.699C264.822 667.089 272.296 666.322 277.471 667.711C280.633 668.526 282.981 671.305 286.047 672.359C290.264 673.844 294.911 673.796 299.128 675.234C301.092 675.904 312.447 680.696 305.308 683.954C303.104 684.96 300.421 683.714 298.074 684.241C296.301 684.673 294.48 685.487 293.234 686.781C292.755 687.308 292.276 687.883 291.893 688.458C293.953 686.972 296.397 686.158 299.703 686.11C304.111 686.11 310.052 688.074 313.837 687.787C322.317 687.164 326.055 682.66 333.337 679.977L333.529 680.121Z" fill="url(#paint6_radial_548_25697)"/>
<path style="mix-blend-mode:multiply" fill-rule="evenodd" clip-rule="evenodd" d="M356.573 584.774C342.774 584.343 330.892 580.078 326.101 571.454C328.4 582.857 347.182 590.619 359.544 593.781C366.299 595.506 370.228 594.931 380.913 589.325C382.542 588.463 384.89 588.463 385.896 586.93C387.908 583.72 387.621 579.503 389.202 576.102C390.543 573.227 393.322 571.167 394.616 568.292C395.191 566.95 395.287 565.225 394.616 563.932C393.37 561.632 391.645 559.14 389.202 558.23C388.962 558.134 388.675 558.038 388.435 557.943C388.818 558.47 389.202 559.045 389.441 559.667C390.16 561.584 388.723 564.842 387.046 565.848C383.356 568.052 375.163 568.292 372.145 572.173C370.612 574.137 372.097 580.941 368.551 582.426C364.814 584.007 360.694 584.965 356.669 584.822L356.573 584.774Z" fill="url(#paint7_radial_548_25697)"/>
<path style="mix-blend-mode:multiply" fill-rule="evenodd" clip-rule="evenodd" d="M480.763 561.536C480.332 563.453 482.488 565.321 482.248 567.238C482.105 568.292 480.859 569.01 479.853 569.346C473.672 571.502 456.519 572.891 450.77 571.454C446.458 570.352 442.433 568.244 438.121 567.238C436.54 566.854 434.815 567.238 433.234 567.477C426.813 568.531 423.364 569.346 417.806 569.873C423.891 570.4 430.071 569.729 436.108 570.544C450.482 572.508 453.309 575.67 471.372 574.616C479.278 574.185 487.231 573.371 494.849 571.31C498.155 570.4 500.359 566.998 503.57 565.896C507.546 564.555 512.242 565.848 516.075 564.075C519.381 562.542 520.722 558.278 523.885 556.553C527.238 554.732 531.311 554.685 535.048 553.822C540.846 552.481 546.691 551.091 552.536 549.893C554.74 549.462 558.238 548.887 560.825 549.606C551.674 546.348 534.713 549.079 525.466 550.229C519.812 550.947 515.691 550.085 514.302 555.595C513.967 556.984 513.392 558.518 512.05 559.284C510.421 560.195 508.361 560.53 506.492 560.338C500.934 559.811 495.616 557.751 490.058 557.176C487.088 556.889 481.482 558.038 480.715 561.536H480.763Z" fill="url(#paint8_radial_548_25697)"/>
<path style="mix-blend-mode:multiply" fill-rule="evenodd" clip-rule="evenodd" d="M485.459 742.838C476.93 746.479 467.875 748.779 459.251 752.181C456.28 753.379 453.357 754.816 450.674 756.541C443.152 761.38 436.78 768.088 428.682 771.921C422.549 774.844 415.554 775.658 408.798 776.425C396.006 777.91 383.069 777.623 370.229 778.677C360.886 779.443 351.351 783.372 342.152 779.252C339.277 787.397 337.744 801.914 340.714 812.695C342.391 818.876 349.291 822.661 354.849 825.775C360.263 828.841 366.683 829.656 372.768 830.758C383.932 832.722 395.383 832.818 406.499 834.974C411.577 835.932 416.417 837.993 421.112 840.101C426.478 842.496 431.365 845.85 436.636 848.533C441.715 851.121 446.65 853.995 452.016 855.912C456.615 857.541 461.455 858.787 466.342 859.074C473.337 859.505 480.332 858.595 487.28 858.02C493.604 857.493 499.977 856.774 506.253 855.816C507.02 855.72 507.738 855.577 508.505 855.481C511.571 855.002 514.494 853.852 517.561 853.229C528.581 850.929 539.744 849.444 550.716 846.761C558.909 844.748 566.863 842.017 574.816 839.238C587.226 834.878 599.491 830.039 611.709 825.248C629.389 818.253 647.117 811.353 664.557 803.879C670.307 801.435 675.864 798.56 681.279 795.446C698.815 785.289 716.399 775.131 733.408 764.111C746.344 755.727 758.849 746.719 771.067 737.328C782.183 728.752 792.867 719.6 803.312 710.209C812.32 702.112 820.849 693.488 829.377 684.911C832.204 682.085 834.312 678.539 837.378 676.048C837.858 675.664 838.72 676.527 838.864 677.102C841.116 686.541 807.241 725.781 799.24 732.537C793.059 737.759 786.495 742.455 780.266 747.581C771.738 754.672 763.545 762.243 754.968 769.286C748.692 774.46 742.415 779.635 735.707 784.187C724.065 792.044 711.895 798.944 699.725 807.233C691.053 813.126 681.662 820.409 673.373 825.775C666.521 830.183 660.58 831.86 653.345 834.639C642.948 838.663 632.839 843.359 622.298 847C616.309 849.06 609.984 849.971 603.947 851.648C594.173 854.379 586.555 857.206 576.397 859.122C595.706 861.087 606.918 866.884 618.513 861.614C623.304 859.41 627.185 855.433 632.072 853.468C639.642 850.402 647.596 848.438 655.549 846.713C675.577 842.353 705.522 837.466 716.111 830.758C722.484 826.685 726.173 820.361 732.066 815.713C736.426 812.311 741.697 810.155 746.2 806.993C761.964 795.877 778.637 785.385 791.67 771.154C806.666 754.816 816.153 734.166 829.329 716.342C840.301 701.537 856.352 689.176 863.683 671.161C867.324 662.249 866.989 652.139 869.384 642.844C871.492 634.843 873.84 626.889 877.194 619.367C890.993 588.751 895.449 590.571 899.473 551.618C900.384 542.611 900.192 533.364 898.276 524.5C896.742 517.409 891.712 511.467 889.22 504.616C886.537 497.285 885.243 489.476 882.896 482.001C881.315 476.97 879.494 471.987 877.482 467.1C875.421 462.069 872.882 457.23 870.63 452.343C872.451 461.926 874.798 471.46 876.14 481.139C878.679 499.346 879.542 519.852 878.536 538.203C875.325 596.129 853.094 638.772 812.703 680.072C803.169 689.799 793.778 699.812 783.189 708.389C778.398 712.27 772.505 714.665 766.947 717.253C759.281 720.846 751.231 723.529 743.469 726.883C735.564 730.285 727.466 733.208 719.992 737.424C715.153 740.155 711.128 744.132 706.72 747.533C701.929 751.175 697.473 755.247 692.394 758.505C686.357 762.386 680.081 765.884 673.565 768.903C660.676 774.844 647.5 780.258 634.276 785.337C625.891 788.547 613.769 794.823 597.383 797.075C595.898 797.267 593.886 797.267 593.023 796.021C592.4 795.111 593.55 793.53 594.509 793.003C605.912 787.253 615.063 781.983 624.646 775.371C633.366 769.382 640.649 761.428 649.321 755.343C656.172 750.552 664.413 747.821 671.169 742.838C676.248 739.101 680.656 734.357 684.585 729.422C691.867 720.271 697.473 709.826 704.756 700.675C709.308 694.973 714.386 689.559 720.136 685.007C725.55 680.743 731.635 677.293 737.911 674.467C746.057 670.825 755.496 670.154 763.209 665.746C768.576 662.68 772.888 657.745 776.146 652.475C781.416 644.042 783.429 633.884 788.507 625.356C796.221 612.42 805.469 600.441 814.428 588.319C821.471 578.785 828.754 569.394 836.564 560.434C838.816 557.847 841.595 555.595 844.565 553.822C845.763 553.104 847.296 552.816 848.638 553.199C851.177 553.918 851.465 557.416 857.071 556.793C865.887 555.883 869.145 543.329 871.397 535.999C873.696 528.524 876.188 507.682 875.9 499.393C875.9 497.86 875.565 495.896 874.08 495.177C873.361 494.842 872.355 495.944 871.109 495.513C870.151 495.177 869.576 493.931 869.432 492.925C867.468 481.474 866.797 469.831 865.36 458.284C864.641 452.391 864.258 446.45 862.964 440.652C862.149 437.155 860.664 433.801 859.035 430.543C858.508 429.489 857.741 428.291 856.639 428.003C855.921 427.812 855.585 429.058 854.963 429.489C854.292 430.016 853.669 430.735 852.854 430.83C851.656 430.974 849.692 431.357 849.261 430.207C848.638 428.531 848.159 426.806 847.776 425.033C845.572 414.444 844.038 404.095 841.547 393.315C841.164 391.686 840.493 390.105 840.253 388.475C840.253 388.14 840.493 387.565 840.828 387.613C841.355 387.613 841.691 388.188 841.978 388.619C843.511 391.302 844.757 394.177 846.146 396.956C847.392 399.4 848.686 402.083 849.932 404.335C851.034 406.395 851.704 404.622 851.752 404.047C851.8 402.179 851.656 400.31 851.417 398.489C851.129 396.621 850.746 394.752 850.267 392.931C848.303 385.792 845.859 378.749 842.888 371.994C838.96 363.13 834.935 346.791 832.348 344.3C828.994 341.042 825.065 337.496 820.944 333.663C826.311 343.677 830.527 352.733 833.162 364.423C834.12 368.64 834.839 373.143 835.318 378.222C837.139 396.285 835.462 425.464 829.904 442.09C825.64 454.787 815.722 464.896 810.02 477.018C804.846 488.038 804.51 501.454 797.371 511.372C783.908 530.105 728.425 580.989 708.828 595.123C679.841 616.013 618.8 654.535 584.111 663.207C558.574 669.579 531.551 667.902 505.774 673.46C487.903 677.293 471.66 686.636 453.98 691.236C426.957 698.231 406.786 700.339 378.086 709.012C364.623 713.084 361.7 712.078 348.189 710.449C339.133 709.347 329.647 708.82 326.005 713.372C324.376 715.336 326.676 719.6 324.52 720.894C321.262 722.858 316.71 722.283 313.069 721.038C304.397 718.115 297.018 712.078 288.537 708.676C285.519 707.478 283.267 707.574 281.398 708.149C278.763 708.964 276.895 710.736 274.691 710.928C273.014 711.072 271.193 710.305 270.043 709.107C265.348 704.316 264.341 695.836 263.431 686.78C263.144 688.409 262.904 690.038 262.712 691.667C261.994 696.698 261.515 701.777 261.658 706.856C261.658 708.053 262.377 709.299 263.335 710.018C268.701 714.186 284.609 723.194 295.485 728.56C299.318 730.429 302.528 731.866 304.444 732.441C310.577 734.357 316.806 735.843 323.13 737.088C340.139 740.442 336.977 735.891 352.261 730.333C360.694 727.266 369.27 724.487 378.038 722.571C396.485 718.498 415.506 717.109 433.761 712.318C447.225 708.82 459.826 702.591 472.906 697.848C482.536 694.398 491.975 689.942 501.989 687.738C506.109 686.828 510.661 687.211 514.638 688.649C517.656 689.703 520.292 692.098 522.016 694.829C523.454 697.129 523.981 700.1 523.693 702.831C523.406 705.322 522.208 707.91 520.387 709.587C516.794 712.94 511.667 714.426 507.882 717.588C504.432 720.463 501.366 723.817 498.827 727.506C496.814 730.476 496.623 734.549 494.323 737.28C492.119 739.867 488.861 741.496 485.746 742.838H485.459Z" fill="url(#paint9_radial_548_25697)"/>
<path style="mix-blend-mode:multiply" fill-rule="evenodd" clip-rule="evenodd" d="M418.955 706.616C403.767 710.688 386.422 707.382 370.515 710.736C362.706 712.413 358.633 711.503 347.996 710.257C338.941 709.155 329.454 708.628 325.813 713.18C324.184 715.144 326.484 719.408 324.328 720.702C321.069 722.666 316.518 722.091 312.876 720.846C304.204 717.923 296.826 711.886 288.345 708.484C285.327 707.286 283.075 707.382 281.206 707.957C278.571 708.772 276.702 710.544 274.498 710.736C272.821 710.88 271.001 710.113 269.851 708.915C265.155 704.124 264.149 695.644 263.239 686.588C262.951 688.217 262.712 689.846 262.52 691.475C261.801 696.506 261.322 701.585 261.466 706.663C261.466 707.861 262.185 709.107 263.143 709.826C268.509 713.994 284.416 723.002 295.292 728.368C299.125 730.237 302.336 731.674 304.252 732.249C310.385 734.165 316.614 735.651 322.938 736.896C339.947 740.25 336.785 735.699 352.069 730.141C360.502 727.074 369.078 724.295 377.846 722.379C396.293 718.306 415.314 716.917 433.569 712.126C447.032 708.628 459.633 702.399 472.713 697.656C482.344 694.206 491.783 689.75 501.797 687.546C505.917 686.636 510.469 687.019 514.445 688.457C517.464 689.511 520.099 691.906 521.824 694.637C523.261 696.937 523.788 699.908 523.501 702.639C523.214 705.13 522.016 707.718 520.195 709.394C518.949 710.544 517.56 711.503 516.075 712.317C518.326 711.311 520.578 710.257 522.591 708.82C531.694 702.303 531.359 694.254 551.818 684.576C568.204 676.814 536.437 677.101 533.275 677.197C518.374 677.628 508.888 674.849 493.22 679.162C472.474 684.863 444.589 699.668 419.099 706.52L418.955 706.616Z" fill="url(#paint10_radial_548_25697)"/>
<path style="mix-blend-mode:multiply" fill-rule="evenodd" clip-rule="evenodd" d="M661.155 649.695C636.768 658.032 605.624 665.794 579.943 672.598C577.499 673.221 565.713 675.616 564.755 678.251C564.323 679.401 573.666 679.928 582.818 679.21C608.595 677.197 633.366 668.525 657.801 663.542C678.835 659.278 713.955 651.277 732.497 640.64C742.032 635.178 751.71 629.237 758.706 620.756C765.461 612.563 766.803 601.064 772.552 592.152C777.631 584.247 784.243 577.395 790.903 570.783C802.21 559.572 815.051 549.989 826.454 538.873C831.964 533.507 838.241 528.333 841.499 521.385C846.626 510.557 849.5 498.627 851.129 486.744C852.998 473.425 851.656 459.817 851.896 446.402C851.992 440.029 851.8 433.082 853.525 430.447C853.286 430.591 852.998 430.734 852.711 430.782C851.513 430.926 849.548 431.309 849.117 430.159C848.494 428.482 848.015 426.758 847.632 424.985C845.428 414.396 843.895 404.047 841.403 393.267C841.02 391.638 840.349 390.056 840.109 388.427C840.109 388.092 840.349 387.517 840.684 387.565C841.211 387.565 841.547 388.14 841.834 388.571C843.368 391.254 844.613 394.129 846.003 396.908C847.248 399.352 848.542 402.035 849.788 404.287C850.89 406.347 851.561 404.574 851.609 403.999C851.656 402.13 851.513 400.262 851.273 398.441C850.986 396.573 850.602 394.704 850.123 392.883C848.159 385.744 845.715 378.701 842.745 371.945C838.816 363.082 834.791 346.743 832.204 344.252C831.821 343.869 831.437 343.485 831.006 343.15C833.785 345.641 839.103 366.196 839.103 374.82C839.103 376.114 839.007 377.312 838.816 378.27C838.672 378.941 837.426 378.941 837.331 379.611C836.851 381.911 837.858 390.296 838.049 393.027C839.103 405.82 840.637 418.612 840.349 431.453C839.966 447.887 839.822 464.752 835.222 480.564C831.677 492.733 823.196 502.891 816.536 513.671C807.72 527.997 800.246 543.473 788.843 555.834C780.027 565.369 766.324 569.202 756.933 578.114C719.896 613.234 724.352 628.231 661.155 649.791V649.695Z" fill="url(#paint11_radial_548_25697)"/>
<path style="mix-blend-mode:multiply" fill-rule="evenodd" clip-rule="evenodd" d="M425.905 816.384C417.185 817.726 411.579 820.696 405.351 822.613C397.253 825.104 388.102 825.775 369.608 818.828C348.334 810.826 343.064 798.896 344.645 781.408C344.645 781.025 344.693 780.641 344.741 780.258C343.879 780.019 343.064 779.683 342.202 779.348C339.327 787.493 337.794 802.01 340.764 812.791C342.441 818.972 349.341 822.757 354.899 825.871C360.313 828.937 366.733 829.752 372.818 830.854C383.982 832.818 395.433 832.914 406.549 835.07C411.627 836.029 416.466 838.089 421.162 840.197C426.528 842.593 431.415 845.947 436.686 848.63C441.764 851.217 446.699 854.092 452.066 856.008C456.665 857.637 461.504 858.883 466.392 859.17C473.387 859.602 480.382 858.691 487.329 858.116C493.654 857.589 500.026 856.871 506.303 855.912C507.07 855.816 507.788 855.673 508.555 855.577C511.621 855.098 514.544 853.948 517.61 853.325C528.63 851.025 539.794 849.54 550.766 846.857C558.959 844.844 566.913 842.113 574.866 839.335C587.276 834.974 599.541 830.135 611.759 825.344C629.439 818.349 647.167 811.449 664.607 803.975C670.356 801.531 675.914 798.657 681.328 795.542C698.864 785.385 716.449 775.227 733.458 764.207C746.394 755.823 758.899 746.815 771.117 737.424C782.233 728.848 792.917 719.696 803.362 710.306C812.37 702.208 820.898 693.584 829.427 685.008C832.254 682.181 834.362 678.635 837.428 676.144C837.907 675.761 838.77 676.623 838.914 677.198C841.165 686.637 807.291 725.877 799.29 732.633C798.475 733.304 797.661 733.974 796.846 734.645C820.276 717.828 830.912 704.556 849.071 673.509C851.227 669.771 853.335 666.034 855.396 662.201C860.426 652.715 864.882 642.94 868.524 633.022C869.482 630.339 872.644 620.23 871.973 619.176C871.734 618.792 870.68 620.23 869.386 622.242C867.518 625.26 865.17 629.477 864.403 630.77C856.306 644.569 850.029 655.158 839.536 668.142C834.601 674.227 829.139 679.833 823.582 685.295C814.957 693.776 806.381 702.304 797.086 710.018C789.611 716.199 781.179 721.182 773.273 726.883C762.78 734.454 752.096 741.784 741.938 749.786C734.991 755.248 729.337 762.243 722.054 767.274C714.532 772.448 706.099 776.09 697.954 780.21C687.413 785.624 676.633 790.607 666.044 795.878C659.193 799.279 652.677 803.4 645.585 806.131C632.457 811.162 618.658 814.132 605.53 819.067C598.535 821.703 592.402 826.254 585.359 828.698C571.321 833.537 554.407 833.633 540.177 837.753C515.694 844.797 507.788 851.792 486.659 852.463C482.011 852.606 476.693 852.463 470.464 851.888C463.373 851.265 459.875 848.582 459.157 845.18C458.055 839.718 464.283 832.483 474.824 829.321C487.569 825.536 500.793 823.571 513.681 820.265C540.177 813.462 579.37 805.891 603.758 797.986C615.209 794.249 626.181 789.17 637.249 784.331C636.29 784.714 635.332 785.049 634.374 785.433C625.989 788.643 613.867 794.919 597.481 797.171C595.996 797.363 593.983 797.363 593.121 796.117C592.498 795.207 593.648 793.626 594.606 793.099C606.009 787.349 615.161 782.079 624.743 775.467C633.464 769.478 640.746 761.524 649.418 755.439C656.27 750.648 664.511 747.917 671.267 742.934C675.962 739.484 680.083 735.172 683.772 730.621C676.92 736.514 671.315 739.245 655.551 744.036C648.652 746.144 638.111 747.773 634.757 750.073C627.379 755.152 613.196 781.073 585.359 790.751C552.251 802.25 516.221 808.527 481.436 812.455C463.038 814.516 444.352 813.893 426.001 816.672L425.905 816.384Z" fill="url(#paint12_radial_548_25697)"/>
<path fill-rule="evenodd" clip-rule="evenodd" d="M450.675 756.541C443.153 761.38 436.78 768.088 428.683 771.921C422.55 774.844 415.555 775.658 408.799 776.425C396.007 777.91 383.07 777.623 370.229 778.677C362.851 779.299 355.376 781.839 348.094 780.881C353.316 782.51 357.82 781.599 368.025 781.264C392.269 780.497 430.264 783.132 440.565 781.743C447.896 780.737 454.891 777.383 461.024 773.31C470.463 767.082 451.825 766.89 464.043 761.859C480.668 755.008 524.317 757.164 534.81 739.244C536.056 737.136 537.062 734.022 535.72 732.01C534.331 729.901 529.587 731.866 528.485 729.614C527.527 727.65 530.019 725.158 531.791 723.912C545.59 714.09 568.301 702.064 584.208 695.883C593.695 692.194 602.846 689.128 613.435 686.828C643.285 680.312 586.029 682.132 567.055 687.115C550.43 691.523 546.117 696.842 533.9 706.999C530.594 709.73 527.91 713.467 523.982 715.144C515.932 718.594 504.481 718.834 498.588 727.41C496.576 730.381 496.384 734.453 494.084 737.184C491.88 739.772 488.622 741.401 485.508 742.742C476.979 746.383 467.924 748.683 459.299 752.085C456.329 753.283 453.406 754.72 450.723 756.445L450.675 756.541Z" fill="url(#paint13_radial_548_25697)"/>
<path opacity="0.65" fill-rule="evenodd" clip-rule="evenodd" d="M618.129 795.782C608.163 799.279 597.91 801.914 587.705 804.502C576.014 807.52 564.18 809.82 552.441 812.647C544.104 814.659 535.528 816.049 527.43 818.971C526.281 819.402 524.795 821.798 525.945 822.277C530.401 824.242 535.528 824.29 540.415 824.673C550.716 825.487 561.113 826.254 571.462 825.871C574.912 825.727 578.362 824.769 581.38 823.14C588.998 819.067 595.275 812.695 603.085 809.005C609.697 805.843 617.027 804.406 624.166 802.681C632.839 800.573 642.086 800.812 650.375 797.554C663.647 792.38 696.036 768.95 703.366 757.499C703.941 756.637 703.702 754.912 702.743 754.481C701.593 753.954 700.252 754.912 699.15 755.535C689.519 760.757 680.368 766.794 670.69 771.969C662.353 776.425 653.824 780.449 645.248 784.33C636.336 788.355 627.377 792.523 618.129 795.782Z" fill="url(#paint14_radial_548_25697)"/>
<path fill-rule="evenodd" clip-rule="evenodd" d="M410.619 237.023C413.685 235.778 416.129 233.382 419.052 231.897C438.935 221.691 472.81 218.817 499.641 226.483C507.067 228.591 515.117 227.633 522.543 229.789C528.964 231.657 534.378 236.161 540.606 238.509C546.643 240.809 553.687 240.425 559.292 243.635C563.125 245.791 563.748 251.924 567.725 253.889C574.481 257.147 582.77 255.566 589.717 258.392C606.918 265.388 630.347 284.84 632.791 304.485C633.605 310.905 633.126 317.804 630.682 323.745C627.76 330.884 615.494 327.435 611.996 329.16C610.032 330.118 609.553 332.993 609.265 335.197C608.211 344.3 609.792 353.643 608.068 362.603C604.953 378.414 587.561 384.499 573.427 388.188C554.405 393.219 532.317 385.601 536.055 361.98C537.109 355.32 543.385 350.529 545.685 344.204C547.554 339.125 545.398 332.705 548.416 328.249C555.268 318.044 574.193 313.205 576.733 309.563C579.512 305.539 579.272 299.981 579.128 295.094C578.984 290.59 578.314 285.846 575.966 282.013C574.96 280.384 571.989 279.762 570.408 280.816C564.275 284.936 562.119 295.86 549.039 301.274C536.677 306.401 512.961 306.401 501.893 320.248C500.647 321.781 499.785 324.081 500.407 325.949C501.797 330.453 506.588 333.52 507.499 338.167C508.074 341.186 506.397 344.492 504.48 346.887C500.791 351.487 496.574 356.134 491.208 358.626C478.655 364.423 464.808 366.771 451.728 371.275C445.308 373.479 439.079 376.306 432.755 378.797C402.282 390.919 374.014 387.948 370.42 391.734C366.491 395.854 367.641 403.185 364.096 407.688C351.83 423.356 339.085 429.058 321.932 417.606C315.608 413.39 311.871 405.58 305.067 402.226C300.372 399.927 294.622 402.035 289.4 401.604C280.536 400.885 270.522 396.956 262.281 403.999C257.729 407.928 254.759 417.511 252.267 418.948C250.399 420.05 253.657 406.059 256.531 400.358C261.227 391.111 248.53 383.493 280.152 356.661C284.8 352.733 294.382 341.09 299.557 329.83C301.761 325.039 304.923 319.481 308.613 315.696C312.877 311.288 317.237 308.845 322.028 305.012C329.503 299.022 339.564 286.517 349.003 278.516C352.884 275.21 357.963 273.485 361.796 270.083C370.564 262.321 377.32 254.176 384.219 247.804C392.987 239.707 401.084 240.617 410.571 236.832L410.619 237.023Z" fill="url(#paint15_radial_548_25697)"/>
<path style="mix-blend-mode:multiply" fill-rule="evenodd" clip-rule="evenodd" d="M477.17 313.444C448.902 338.79 466.486 340.515 480.476 342.479C486.945 343.389 495.281 346.695 485.603 350.816C477.218 354.361 467.827 354.984 459.395 358.338C454.651 360.255 451.106 364.375 446.458 366.483C415.842 380.378 375.164 371.945 352.022 375.347C341.817 376.88 337.744 386.08 346.273 394.369C352.31 400.214 358.586 400.262 358.778 404.574C359.161 413.486 346.56 421.583 338.559 423.739C347.95 423.883 356.095 417.894 364 407.784C367.546 403.28 366.396 395.95 370.325 391.829C373.966 388.044 402.235 391.015 432.659 378.893C438.984 376.353 445.212 373.574 451.633 371.371C464.665 366.867 478.56 364.519 491.113 358.722C496.479 356.23 500.696 351.583 504.385 346.983C506.301 344.587 507.978 341.281 507.403 338.263C506.493 333.663 501.702 330.549 500.312 326.045C499.737 324.176 500.6 321.877 501.798 320.343C512.865 306.497 536.534 306.497 548.944 301.37C562.072 295.908 564.228 285.032 570.313 280.911C571.894 279.857 574.912 280.48 575.871 282.109C578.218 285.942 578.889 290.733 579.033 295.189C579.177 300.076 579.416 305.634 576.637 309.659C574.337 313.013 558.383 317.325 550.381 325.758C572.517 310.042 588.376 316.654 588.663 298.16C588.759 291.692 587.801 278.468 583.68 273.485C581.572 270.945 575.967 267.927 571.654 272.287C563.126 280.863 559.341 291.26 546.979 294.902C538.786 297.297 530.354 298.831 521.969 300.316C505.391 303.287 490.969 301.13 477.074 313.588L477.17 313.444Z" fill="url(#paint16_radial_548_25697)"/>
<path style="mix-blend-mode:multiply" fill-rule="evenodd" clip-rule="evenodd" d="M558.526 246.462C559.484 249.816 558.862 258.249 563.94 259.399C574.577 261.842 584.303 256.62 596.329 264.525C612.572 275.21 629.245 288.769 626.275 310.426C625.173 318.379 618.13 316.606 610.08 314.115C604.714 312.438 598.917 311.671 597.863 316.606C595.275 328.489 599.492 340.898 599.348 353.068C599.06 379.324 578.65 387.565 559.676 389.625C564.18 389.913 568.875 389.434 573.427 388.236C587.561 384.499 604.954 378.462 608.068 362.651C609.841 353.691 608.212 344.3 609.266 335.244C609.505 333.04 609.985 330.166 611.997 329.207C615.495 327.483 627.712 330.932 630.683 323.793C633.126 317.804 633.606 310.953 632.791 304.532C630.347 284.888 606.918 265.436 589.717 258.44C582.77 255.613 574.481 257.195 567.725 253.937C563.749 252.02 563.126 245.887 559.293 243.683C556.993 242.39 554.406 241.671 551.771 241.096C553.447 241.719 555.077 242.437 556.61 243.3C557.664 243.923 558.239 245.264 558.574 246.462H558.526Z" fill="url(#paint17_radial_548_25697)"/>
</g>
<path style="mix-blend-mode:screen" opacity="0.45" fill-rule="evenodd" clip-rule="evenodd" d="M500 0C223.922 0 0 223.769 0 500C0 776.232 223.922 1000 500 1000C776.078 1000 1000 776.079 1000 500C1000 223.922 776.231 0 500 0ZM500 980.576C234.628 980.576 19.4249 765.372 19.4249 500C19.4249 234.629 234.628 19.4249 500 19.4249C765.372 19.4249 980.575 234.629 980.575 500C980.575 765.372 765.372 980.576 500 980.576Z" fill="url(#paint18_linear_548_25697)"/>
</g>
<defs>
<radialGradient id="paint0_radial_548_25697" cx="0" cy="0" r="1" gradientUnits="userSpaceOnUse" gradientTransform="translate(471.133 499.92) scale(371.133 371.132)">
<stop stop-color="#19DDFF"/>
<stop offset="0.41" stop-color="#0E7D91"/>
<stop offset="0.97"/>
</radialGradient>
<radialGradient id="paint1_radial_548_25697" cx="0" cy="0" r="1" gradientUnits="userSpaceOnUse" gradientTransform="translate(424.945 356.374) scale(567.767 567.766)">
<stop stop-color="#71F5FF"/>
<stop offset="0.17" stop-color="#69E8FF"/>
<stop offset="0.47" stop-color="#56C8FF"/>
<stop offset="0.5" stop-color="#54C5FF"/>
<stop offset="0.92" stop-color="#1483FF"/>
</radialGradient>
<radialGradient id="paint2_radial_548_25697" cx="0" cy="0" r="1" gradientUnits="userSpaceOnUse" gradientTransform="translate(575.966 554.445) scale(357.286 357.285)">
<stop offset="0.04"/>
<stop offset="0.84"/>
<stop offset="0.85" stop-color="#0D1415"/>
<stop offset="0.9" stop-color="#3E6167"/>
<stop offset="0.93" stop-color="#659EA8"/>
<stop offset="0.96" stop-color="#81CAD7"/>
<stop offset="0.99" stop-color="#92E5F4"/>
<stop offset="1" stop-color="#99F0FF"/>
</radialGradient>
<radialGradient id="paint3_radial_548_25697" cx="0" cy="0" r="1" gradientUnits="userSpaceOnUse" gradientTransform="translate(324.33 267.065) scale(391.687 391.687)">
<stop stop-color="#86FFFF"/>
<stop offset="1"/>
</radialGradient>
<radialGradient id="paint4_radial_548_25697" cx="0" cy="0" r="1" gradientUnits="userSpaceOnUse" gradientTransform="translate(414.262 475.869) scale(509.409 509.408)">
<stop stop-color="#F2F6FF"/>
<stop offset="1" stop-color="#D6F3FF"/>
</radialGradient>
<radialGradient id="paint5_radial_548_25697" cx="0" cy="0" r="1" gradientUnits="userSpaceOnUse" gradientTransform="translate(525.707 478.312) scale(425.561 425.561)">
<stop offset="0.62" stop-color="white"/>
<stop offset="0.65" stop-color="#F5FAFF"/>
<stop offset="0.75" stop-color="#CFE7FF"/>
<stop offset="0.85" stop-color="#B4DAFF"/>
<stop offset="0.94" stop-color="#A3D1FF"/>
<stop offset="1" stop-color="#9ECFFF"/>
</radialGradient>
<radialGradient id="paint6_radial_548_25697" cx="0" cy="0" r="1" gradientUnits="userSpaceOnUse" gradientTransform="translate(305.069 293.801) scale(522.154 522.153)">
<stop offset="0.7" stop-color="white"/>
<stop offset="1" stop-color="#AAC2E6"/>
</radialGradient>
<radialGradient id="paint7_radial_548_25697" cx="0" cy="0" r="1" gradientUnits="userSpaceOnUse" gradientTransform="translate(362.466 546.587) scale(76.9959 76.9958)">
<stop stop-color="white"/>
<stop offset="1" stop-color="#AAC2E6"/>
</radialGradient>
<radialGradient id="paint8_radial_548_25697" cx="0" cy="0" r="1" gradientUnits="userSpaceOnUse" gradientTransform="translate(447.56 510.365) scale(170.522 170.521)">
<stop stop-color="white"/>
<stop offset="1" stop-color="#AAC2E6"/>
</radialGradient>
<radialGradient id="paint9_radial_548_25697" cx="0" cy="0" r="1" gradientUnits="userSpaceOnUse" gradientTransform="translate(432.132 563.932) scale(468.923 468.922)">
<stop stop-color="white"/>
<stop offset="1" stop-color="#CFE2FF"/>
</radialGradient>
<radialGradient id="paint10_radial_548_25697" cx="0" cy="0" r="1" gradientUnits="userSpaceOnUse" gradientTransform="translate(568.539 710.305) scale(302.042 302.042)">
<stop stop-color="#AAC2E6"/>
<stop offset="1" stop-color="white"/>
</radialGradient>
<radialGradient id="paint11_radial_548_25697" cx="0" cy="0" r="1" gradientUnits="userSpaceOnUse" gradientTransform="translate(603.947 578.162) scale(315.697 315.697)">
<stop stop-color="white"/>
<stop offset="1" stop-color="#AAC2E6"/>
</radialGradient>
<radialGradient id="paint12_radial_548_25697" cx="0" cy="0" r="1" gradientUnits="userSpaceOnUse" gradientTransform="translate(536.823 369.502) scale(558.376 558.375)">
<stop stop-color="white"/>
<stop offset="1" stop-color="#AAC2E6"/>
</radialGradient>
<radialGradient id="paint13_radial_548_25697" cx="0" cy="0" r="1" gradientUnits="userSpaceOnUse" gradientTransform="translate(554.598 666.513) scale(242.295 242.295)">
<stop stop-color="#F2F6FF"/>
<stop offset="1" stop-color="#D6F3FF"/>
</radialGradient>
<radialGradient id="paint14_radial_548_25697" cx="0" cy="0" r="1" gradientUnits="userSpaceOnUse" gradientTransform="translate(631.353 714.042) scale(218.961 218.961)">
<stop stop-color="#F2F6FF"/>
<stop offset="1" stop-color="#D6F3FF"/>
</radialGradient>
<radialGradient id="paint15_radial_548_25697" cx="0" cy="0" r="1" gradientUnits="userSpaceOnUse" gradientTransform="translate(277.134 322.931) scale(507.876 507.875)">
<stop stop-color="#F2F6FF"/>
<stop offset="1" stop-color="#D6F3FF"/>
</radialGradient>
<radialGradient id="paint16_radial_548_25697" cx="0" cy="0" r="1" gradientUnits="userSpaceOnUse" gradientTransform="translate(380.147 286.517) scale(218.626 218.626)">
<stop stop-color="white"/>
<stop offset="1" stop-color="#AAC2E6"/>
</radialGradient>
<radialGradient id="paint17_radial_548_25697" cx="0" cy="0" r="1" gradientUnits="userSpaceOnUse" gradientTransform="translate(505.151 284.744) scale(142.349 142.349)">
<stop stop-color="white"/>
<stop offset="1" stop-color="#AAC2E6"/>
</radialGradient>
<linearGradient id="paint18_linear_548_25697" x1="500" y1="25.2371" x2="500" y2="1048.18" gradientUnits="userSpaceOnUse">
<stop stop-color="#27A2D9"/>
<stop offset="0.19" stop-color="#1D78A1"/>
<stop offset="0.39" stop-color="#124E68"/>
<stop offset="0.59" stop-color="#0A2C3B"/>
<stop offset="0.76" stop-color="#04141A"/>
<stop offset="0.9" stop-color="#010507"/>
<stop offset="1"/>
</linearGradient>
<clipPath id="clip0_548_25697">
<rect width="1000" height="1000" fill="white"/>
</clipPath>
<clipPath id="clip1_548_25697">
<rect width="800" height="742.312" fill="white" transform="translate(100 128.789)"/>
</clipPath>
</defs>
</svg>
