<svg width="700" height="750" viewBox="0 0 700 750" fill="none" xmlns="http://www.w3.org/2000/svg">
<path opacity="0.2" d="M556.214 38.3395H57.5147C29.1803 38.3395 6.23828 61.2905 6.23828 89.616L24.0732 697.768C24.0732 726.093 47.0152 749.044 75.3496 749.044H624.648C652.974 749.044 675.925 726.093 675.925 697.768L692.521 131.962C692.708 131.962 692.895 131.962 693.091 131.962L556.214 38.3395Z" fill="#15383E"/>
<path opacity="0.9" d="M624.65 723.188C656.335 723.188 682.112 697.438 682.165 665.761L700 57.5116C700 25.7991 674.206 -0.00402832 642.484 -0.00402832H57.5156C25.8031 -0.00402832 0 25.7991 0 57.5116L17.8349 665.761C17.8884 697.438 43.6648 723.188 75.3505 723.188H624.65Z" fill="#FEFFFF"/>
<path d="M683.057 57.5135L672.459 418.704L670.311 492.129L668.359 558.638L665.222 665.674C665.222 688.046 647.022 706.246 624.65 706.246H75.3513C52.9886 706.246 34.7794 688.046 34.7794 665.674L31.9718 570.011L16.9355 57.5135C16.9355 35.1419 35.1448 16.9415 57.5075 16.9415H642.476C653.136 16.9415 663.208 21.0415 670.837 28.4928C678.716 36.1847 683.057 46.5059 683.057 57.5224V57.5135Z" fill="#FED269"/>
<path d="M93.4964 672.357C80.2784 672.357 69.5294 661.608 69.5294 648.39L51.6855 74.7937C51.6855 61.5757 62.4346 50.8267 75.6526 50.8267H624.336C630.629 50.8267 636.583 53.251 641.084 57.6451C645.746 62.1996 648.304 68.2872 648.304 74.7937L630.469 648.39C630.469 661.608 619.72 672.357 606.502 672.357H93.4964Z" fill="#FFE681"/>
<path d="M534.417 109.679H165.366C147.112 109.679 132.316 94.8838 132.316 76.63V17.6081C132.316 11.3333 137.406 6.23511 143.689 6.23511H556.111C562.386 6.23511 567.484 11.3244 567.484 17.6081V76.63C567.484 85.2845 564.16 93.1636 558.714 99.0551C552.671 105.588 544.034 109.688 534.426 109.688L534.417 109.679Z" fill="#66525B"/>
<path d="M243.851 71.8213C243.44 71.8213 243.104 71.6906 242.843 71.4293C242.581 71.1306 242.451 70.7946 242.451 70.4213V41.2453C242.451 40.8346 242.581 40.4986 242.843 40.2373C243.104 39.976 243.44 39.8453 243.851 39.8453H256.395C259.68 39.8453 262.443 40.312 264.683 41.2453C266.923 42.1413 268.603 43.5973 269.723 45.6133C270.843 47.592 271.403 50.2426 271.403 53.5653V70.3653C271.403 70.7386 271.272 71.0746 271.011 71.3733C270.749 71.672 270.395 71.8213 269.947 71.8213H243.851ZM250.627 64.4853H262.723V53.8453C262.723 51.68 262.181 50.0373 261.099 48.9173C260.053 47.76 258.392 47.1813 256.115 47.1813H250.627V64.4853ZM279.282 58.6053C278.872 58.6053 278.536 58.4746 278.274 58.2133C278.013 57.9146 277.882 57.5786 277.882 57.2053V41.2453C277.882 40.8346 278.013 40.4986 278.274 40.2373C278.536 39.976 278.872 39.8453 279.282 39.8453H285.89C286.301 39.8453 286.637 39.976 286.898 40.2373C287.16 40.4986 287.29 40.8346 287.29 41.2453V57.2053C287.29 57.5786 287.16 57.9146 286.898 58.2133C286.637 58.4746 286.301 58.6053 285.89 58.6053H279.282ZM301.633 72.4933C301.26 72.6053 300.905 72.4933 300.569 72.1573C300.271 71.8213 300.121 71.4666 300.121 71.0933V65.6613C300.121 65.3253 300.252 64.9893 300.513 64.6533C300.775 64.3173 301.111 64.0746 301.521 63.9253L303.313 63.1973C304.359 62.7493 305.311 62.1893 306.169 61.5173C307.065 60.808 307.775 59.8746 308.297 58.7173C308.82 57.5226 309.081 56.0106 309.081 54.1813C309.081 52.576 308.895 51.288 308.521 50.3173C308.148 49.3466 307.513 48.6373 306.617 48.1893C305.759 47.7413 304.527 47.5173 302.921 47.5173H301.633C301.26 47.5173 300.924 47.3866 300.625 47.1253C300.364 46.864 300.233 46.528 300.233 46.1173V41.1893C300.233 40.816 300.364 40.4986 300.625 40.2373C300.924 39.976 301.26 39.8453 301.633 39.8453H304.769C308.129 39.8453 310.799 40.3866 312.777 41.4693C314.793 42.5146 316.231 44.1013 317.089 46.2293C317.985 48.32 318.433 50.896 318.433 53.9573C318.433 56.496 318.023 58.7546 317.201 60.7333C316.417 62.712 315.335 64.448 313.953 65.9413C312.572 67.3973 311.023 68.6106 309.305 69.5813C307.588 70.552 305.777 71.2986 303.873 71.8213L301.633 72.4933ZM303.593 47.5173H294.129C293.756 47.5173 293.42 47.3866 293.121 47.1253C292.86 46.864 292.729 46.528 292.729 46.1173V33.4613C292.729 33.0506 292.86 32.7146 293.121 32.4533C293.42 32.192 293.756 32.0613 294.129 32.0613H299.841C300.252 32.0613 300.588 32.192 300.849 32.4533C301.148 32.7146 301.297 33.0506 301.297 33.4613V39.8453H303.649L303.593 47.5173ZM325.493 58.6053C325.082 58.6053 324.746 58.4746 324.485 58.2133C324.223 57.9146 324.093 57.5786 324.093 57.2053V41.2453C324.093 40.8346 324.223 40.4986 324.485 40.2373C324.746 39.976 325.082 39.8453 325.493 39.8453H332.101C332.511 39.8453 332.847 39.976 333.109 40.2373C333.37 40.4986 333.501 40.8346 333.501 41.2453V57.2053C333.501 57.5786 333.37 57.9146 333.109 58.2133C332.847 58.4746 332.511 58.6053 332.101 58.6053H325.493ZM340.62 71.8213C340.246 71.8213 339.91 71.6906 339.612 71.4293C339.35 71.1306 339.22 70.7946 339.22 70.4213V65.8853C339.22 65.4746 339.35 65.1386 339.612 64.8773C339.91 64.616 340.246 64.4853 340.62 64.4853H354.844V53.8453C354.844 51.7173 354.302 50.0933 353.22 48.9733C352.174 47.816 350.513 47.2373 348.236 47.2373H341.18C340.806 47.2373 340.47 47.1066 340.172 46.8453C339.91 46.5466 339.78 46.2106 339.78 45.8373V41.2453C339.78 40.8346 339.91 40.4986 340.172 40.2373C340.47 39.976 340.806 39.8453 341.18 39.8453H348.516C351.876 39.8453 354.713 40.312 357.028 41.2453C359.38 42.1786 361.172 43.672 362.404 45.7253C363.636 47.7786 364.252 50.4853 364.252 53.8453V64.4853H366.212C366.622 64.4853 366.958 64.616 367.22 64.8773C367.481 65.1386 367.612 65.4746 367.612 65.8853V70.4213C367.612 70.7946 367.481 71.1306 367.22 71.4293C366.958 71.6906 366.622 71.8213 366.212 71.8213H340.62ZM374.114 71.8213C373.704 71.8213 373.368 71.6906 373.106 71.4293C372.845 71.1306 372.714 70.7946 372.714 70.4213V41.2453C372.714 40.8346 372.845 40.4986 373.106 40.2373C373.368 39.976 373.704 39.8453 374.114 39.8453H380.722C381.133 39.8453 381.469 39.976 381.73 40.2373C381.992 40.4986 382.122 40.8346 382.122 41.2453V70.4213C382.122 70.7946 381.992 71.1306 381.73 71.4293C381.469 71.6906 381.133 71.8213 380.722 71.8213H374.114ZM406.143 47.5173H389.847C389.436 47.5173 389.1 47.3866 388.839 47.1253C388.577 46.864 388.447 46.528 388.447 46.1173V41.2453C388.447 40.8346 388.577 40.4986 388.839 40.2373C389.1 39.976 389.436 39.8453 389.847 39.8453H407.543C410.007 39.8453 412.209 40.3306 414.151 41.3013C416.129 42.272 417.679 43.7653 418.799 45.7813C419.956 47.7973 420.535 50.3733 420.535 53.5093V70.4213C420.535 70.7946 420.385 71.1306 420.087 71.4293C419.825 71.6906 419.489 71.8213 419.079 71.8213H403.903C403.529 71.8213 403.193 71.6906 402.895 71.4293C402.633 71.1306 402.503 70.7946 402.503 70.4213V65.8853C402.503 65.4746 402.633 65.1386 402.895 64.8773C403.193 64.616 403.529 64.4853 403.903 64.4853H411.407V53.9573C411.407 52.576 411.183 51.4 410.735 50.4293C410.287 49.4586 409.671 48.7306 408.887 48.2453C408.103 47.76 407.188 47.5173 406.143 47.5173ZM389.399 71.8213C389.025 71.8213 388.689 71.6906 388.391 71.4293C388.092 71.1306 387.98 70.776 388.055 70.3653L393.991 45.4453C394.065 45.072 394.233 44.7546 394.495 44.4933C394.756 44.232 395.073 44.12 395.447 44.1573L400.711 44.2133C401.121 44.2133 401.476 44.3813 401.775 44.7173C402.073 45.0533 402.167 45.4266 402.055 45.8373L396.959 70.3653C396.921 70.776 396.753 71.1306 396.455 71.4293C396.193 71.6906 395.876 71.8213 395.503 71.8213H389.399ZM449.19 71.8213C448.78 71.8213 448.425 71.6906 448.126 71.4293C447.865 71.168 447.734 70.832 447.734 70.4213V53.8453C447.734 51.68 447.212 50.0373 446.166 48.9173C445.121 47.76 443.46 47.1813 441.182 47.1813H428.582C428.172 47.1813 427.836 47.0506 427.574 46.7893C427.313 46.528 427.182 46.192 427.182 45.7813V41.2453C427.182 40.8346 427.313 40.4986 427.574 40.2373C427.836 39.976 428.172 39.8453 428.582 39.8453H441.462C446.465 39.8453 450.273 40.9653 452.886 43.2053C455.537 45.4453 456.862 48.992 456.862 53.8453V70.4213C456.862 70.7946 456.713 71.1306 456.414 71.4293C456.153 71.6906 455.836 71.8213 455.462 71.8213H449.19ZM428.582 71.8213C428.172 71.8213 427.836 71.6906 427.574 71.4293C427.313 71.1306 427.182 70.7946 427.182 70.4213V53.8453C427.182 53.472 427.313 53.1546 427.574 52.8933C427.836 52.5946 428.172 52.4453 428.582 52.4453H434.854C435.265 52.4453 435.601 52.5946 435.862 52.8933C436.124 53.1546 436.254 53.472 436.254 53.8453V70.4213C436.254 70.7946 436.124 71.1306 435.862 71.4293C435.601 71.6906 435.265 71.8213 434.854 71.8213H428.582Z" fill="white"/>
<g style="mix-blend-mode:multiply" opacity="0.44">
<path d="M534.53 98.084H165.479C147.225 98.084 132.43 83.2884 132.43 65.0345V76.6304C132.43 94.8842 147.225 109.68 165.479 109.68H534.53C544.13 109.68 552.775 105.589 558.818 99.0466C564.264 93.1551 567.589 85.276 567.589 76.6214V65.0256C567.589 73.6802 564.264 81.5593 558.818 87.4507C552.775 93.984 544.139 98.084 534.53 98.084Z" fill="#66525B"/>
</g>
<g style="mix-blend-mode:multiply" opacity="0.2">
<path d="M216.915 520.764C240.06 520.764 258.824 502.001 258.824 478.855C258.824 455.709 240.06 436.946 216.915 436.946C193.769 436.946 175.006 455.709 175.006 478.855C175.006 502.001 193.769 520.764 216.915 520.764Z" fill="#F3B516"/>
<path d="M133.353 439.708C137.594 429.471 132.732 417.734 122.495 413.494C112.258 409.254 100.522 414.115 96.2814 424.352C92.041 434.589 96.9023 446.326 107.139 450.566C117.377 454.806 129.113 449.945 133.353 439.708Z" fill="#F3B516"/>
<path d="M668.359 558.636L665.221 665.672C665.221 688.043 647.021 706.244 624.649 706.244H75.3502C52.9875 706.244 34.7783 688.043 34.7783 665.672L31.9707 570.009C56.5884 544.081 91.3936 527.904 129.978 527.904C171.468 527.904 208.573 546.612 233.369 576.052C242.843 572.593 253.066 570.713 263.744 570.713C300.296 570.713 331.688 592.817 345.271 624.396C351.029 623.112 357.028 622.435 363.169 622.435C393.607 622.435 420.167 639.013 434.33 663.622C446.024 632.275 476.221 609.948 511.641 609.948C512.328 609.948 513.005 609.948 513.691 609.974C530.305 571.158 568.845 543.956 613.74 543.956C633.651 543.956 652.315 549.304 668.367 558.645L668.359 558.636Z" fill="#F3B516"/>
<path d="M436.281 609.93C458.935 609.93 477.299 591.566 477.299 568.912C477.299 546.259 458.935 527.895 436.281 527.895C413.628 527.895 395.264 546.259 395.264 568.912C395.264 591.566 413.628 609.93 436.281 609.93Z" fill="#F3B516"/>
<path d="M528.577 511.843C538.181 511.843 545.966 504.058 545.966 494.454C545.966 484.85 538.181 477.064 528.577 477.064C518.973 477.064 511.188 484.85 511.188 494.454C511.188 504.058 518.973 511.843 528.577 511.843Z" fill="#F3B516"/>
<path opacity="0.1" d="M672.467 418.701L670.319 492.126C664.143 495.593 657.003 497.572 649.41 497.572C625.772 497.572 606.609 478.409 606.609 454.772C606.609 431.135 625.772 411.972 649.41 411.972C657.904 411.972 665.818 414.441 672.467 418.701Z" fill="#F3B516"/>
</g>
</svg>
