<svg width="40" height="40" viewBox="0 0 40 40" fill="none" xmlns="http://www.w3.org/2000/svg">
<g clip-path="url(#clip0_974_20884)">
<path fill-rule="evenodd" clip-rule="evenodd" d="M19.9995 3.74072C28.981 3.74072 36.2588 11.0185 36.2588 20C36.2588 28.9815 28.981 36.2592 19.9995 36.2592C11.018 36.2592 3.74023 28.9815 3.74023 20C3.74023 11.0185 11.018 3.74072 19.9995 3.74072Z" fill="url(#paint0_linear_974_20884)"/>
<path style="mix-blend-mode:multiply" fill-rule="evenodd" clip-rule="evenodd" d="M19.9994 30.2839C27.6908 30.2839 33.9253 24.0493 33.9253 16.3579C33.9253 14.395 33.5179 12.5246 32.7895 10.8333C34.6784 13.4382 35.7957 16.6357 35.7957 20.0987C35.7957 28.8209 28.7278 35.8888 20.0056 35.8888C11.2834 35.8888 4.20312 28.8209 4.20312 20.0987C4.20312 16.6357 5.31424 13.432 7.20312 10.8333C6.46856 12.5246 6.06732 14.395 6.06732 16.3579C6.06732 24.0493 12.3019 30.2839 19.9932 30.2839H19.9994Z" fill="url(#paint1_radial_974_20884)"/>
<path fill-rule="evenodd" clip-rule="evenodd" d="M20.0011 4.41984C28.606 4.41984 35.5813 11.3951 35.5813 20.0001C35.5813 28.605 28.606 35.5803 20.0011 35.5803C11.3961 35.5803 4.42081 28.605 4.42081 20.0001C4.42081 11.3951 11.3961 4.41984 20.0011 4.41984ZM37.7912 20.0001C37.7912 10.1729 29.8282 2.20996 20.0011 2.20996C10.1739 2.20996 2.21094 10.1729 2.21094 20.0001C2.21094 29.8272 10.1739 37.7902 20.0011 37.7902C29.8282 37.7902 37.7912 29.8272 37.7912 20.0001Z" fill="url(#paint2_linear_974_20884)"/>
<path fill-rule="evenodd" clip-rule="evenodd" d="M20 37.7901C29.8272 37.7901 37.7901 29.8272 37.7901 20C37.7901 10.1728 29.8272 2.20988 20 2.20988C10.1728 2.20988 2.20988 10.1728 2.20988 20C2.20988 29.8272 10.1728 37.7901 20 37.7901ZM40 20C40 31.0432 31.0432 40 20 40C8.95679 40 0 31.0432 0 20C0 8.95679 8.95679 0 20 0C31.0432 0 40 8.95679 40 20Z" fill="url(#paint3_linear_974_20884)"/>
<path style="mix-blend-mode:screen" fill-rule="evenodd" clip-rule="evenodd" d="M20.0011 35.5802C11.3961 35.5802 4.42081 28.6049 4.42081 20C4.09365 20.0494 3.71711 20.0802 3.31588 20.0802C2.91464 20.0802 2.5381 20.0494 2.21094 20C2.21094 29.8272 10.1739 37.7901 20.0011 37.7901C29.8282 37.7901 37.7912 29.8272 37.7912 20C37.464 20.0494 37.0875 20.0802 36.6862 20.0802C36.285 20.0802 35.9085 20.0494 35.5813 20C35.5813 28.6049 28.606 35.5802 20.0011 35.5802Z" fill="url(#paint4_linear_974_20884)"/>
<path style="mix-blend-mode:screen" fill-rule="evenodd" clip-rule="evenodd" d="M2.20988 20C2.20988 10.1728 10.1728 2.20988 20 2.20988C29.8272 2.20988 37.7901 10.1728 37.7901 20C38.1173 19.9506 38.4938 19.9198 38.8951 19.9198C39.2963 19.9198 39.6728 19.9506 40 20C40 8.95679 31.0432 0 20 0C8.95679 0 0 8.95679 0 20C0.32716 19.9506 0.703704 19.9198 1.10494 19.9198C1.50617 19.9198 1.88272 19.9506 2.20988 20Z" fill="url(#paint5_linear_974_20884)"/>
<g style="mix-blend-mode:screen">
<path fill-rule="evenodd" clip-rule="evenodd" d="M20.0001 2.20984C24.7594 2.20984 29.0742 4.07403 32.2656 7.11724C29.1051 3.91354 24.7779 1.93823 20.0001 1.93823C17.7532 1.93823 15.6051 2.3765 13.6297 3.1728C13.3149 2.63576 12.5618 2.45675 11.9014 2.77774C11.2223 3.1049 10.8952 3.82712 11.1483 4.41354C10.8211 4.61107 10.4939 4.82712 10.1791 5.04317C9.9816 4.81478 9.60506 4.80243 9.32111 5.01231C9.03098 5.22836 8.94456 5.59873 9.11123 5.85181C8.62975 6.24687 8.16679 6.66663 7.72852 7.11107C10.9199 4.06786 15.2409 2.20366 20.0001 2.20366V2.20984Z" fill="#D5C9E2"/>
</g>
<path style="mix-blend-mode:screen" fill-rule="evenodd" clip-rule="evenodd" d="M20.0002 35.5802C11.3952 35.5802 4.41992 28.6049 4.41992 20C4.41992 28.9815 11.3952 36.2593 20.0002 36.2593C28.6051 36.2593 35.5804 28.9815 35.5804 20C35.5804 28.6049 28.6051 35.5802 20.0002 35.5802Z" fill="url(#paint6_radial_974_20884)"/>
<path style="mix-blend-mode:multiply" fill-rule="evenodd" clip-rule="evenodd" d="M20.0009 5.24691C27.1121 5.24691 33.112 9.71604 35.0195 15.8333C33.1985 9.24691 27.1614 4.41357 20.0009 4.41357C12.8404 4.41357 6.80341 9.25308 4.98242 15.8333C6.88983 9.71604 12.8898 5.24691 20.0009 5.24691Z" fill="url(#paint7_radial_974_20884)"/>
<path style="mix-blend-mode:screen" fill-rule="evenodd" clip-rule="evenodd" d="M19.9999 23.9875C26.4752 23.9875 31.7283 19.9567 31.7283 14.9875C31.7283 10.0184 26.4752 5.98755 19.9999 5.98755C13.5246 5.98755 8.27148 10.0184 8.27148 14.9875C8.27148 19.9567 13.5246 23.9875 19.9999 23.9875Z" fill="url(#paint8_radial_974_20884)"/>
<path style="mix-blend-mode:screen" fill-rule="evenodd" clip-rule="evenodd" d="M19.9998 13.2098C24.0986 13.2098 27.4196 11.6666 27.4196 9.77152C27.4196 7.87646 24.0986 6.33325 19.9998 6.33325C15.9011 6.33325 12.5801 7.87646 12.5801 9.77152C12.5801 11.6666 15.9011 13.2098 19.9998 13.2098Z" fill="url(#paint9_radial_974_20884)"/>
</g>
<defs>
<linearGradient id="paint0_linear_974_20884" x1="19.9995" y1="36.2592" x2="19.9995" y2="3.74072" gradientUnits="userSpaceOnUse">
<stop stop-color="#7A86D0"/>
<stop offset="1" stop-color="#8F88E2"/>
</linearGradient>
<radialGradient id="paint1_radial_974_20884" cx="0" cy="0" r="1" gradientUnits="userSpaceOnUse" gradientTransform="translate(20.1105 16.6728) scale(30.716 30.716)">
<stop stop-color="white"/>
<stop offset="1" stop-color="#504EC7"/>
</radialGradient>
<linearGradient id="paint2_linear_974_20884" x1="20.0011" y1="37.7902" x2="20.0011" y2="2.20996" gradientUnits="userSpaceOnUse">
<stop stop-color="#898AD3"/>
<stop offset="1" stop-color="#4F5086"/>
</linearGradient>
<linearGradient id="paint3_linear_974_20884" x1="20" y1="37.7901" x2="20" y2="2.20987" gradientUnits="userSpaceOnUse">
<stop stop-color="#787D9F"/>
<stop offset="1" stop-color="#BAB1E2"/>
</linearGradient>
<linearGradient id="paint4_linear_974_20884" x1="20.0011" y1="37.7901" x2="20.0011" y2="20" gradientUnits="userSpaceOnUse">
<stop stop-color="#8988B8"/>
<stop offset="1"/>
</linearGradient>
<linearGradient id="paint5_linear_974_20884" x1="20" y1="20" x2="20" y2="0" gradientUnits="userSpaceOnUse">
<stop/>
<stop offset="1" stop-color="#8988B8"/>
</linearGradient>
<radialGradient id="paint6_radial_974_20884" cx="0" cy="0" r="1" gradientUnits="userSpaceOnUse" gradientTransform="translate(20.0002 35.5926) scale(18.6667 18.6667)">
<stop stop-color="#B9B9E2"/>
<stop offset="1" stop-color="#8988B8"/>
</radialGradient>
<radialGradient id="paint7_radial_974_20884" cx="0" cy="0" r="1" gradientUnits="userSpaceOnUse" gradientTransform="translate(20.0009 10.1296) scale(16.8827 16.8827)">
<stop stop-color="white"/>
<stop offset="0.07" stop-color="#E0DFF5"/>
<stop offset="0.18" stop-color="#B4B3E7"/>
<stop offset="0.3" stop-color="#908EDB"/>
<stop offset="0.41" stop-color="#7472D2"/>
<stop offset="0.52" stop-color="#605ECC"/>
<stop offset="0.64" stop-color="#5452C8"/>
<stop offset="0.75" stop-color="#504EC7"/>
</radialGradient>
<radialGradient id="paint8_radial_974_20884" cx="0" cy="0" r="1" gradientUnits="userSpaceOnUse" gradientTransform="translate(21.1789 -8.61121) scale(33.2963)">
<stop stop-color="#CCB9E2"/>
<stop offset="1"/>
</radialGradient>
<radialGradient id="paint9_radial_974_20884" cx="0" cy="0" r="1" gradientUnits="userSpaceOnUse" gradientTransform="translate(19.8455 -7.32107) scale(22.1111)">
<stop stop-color="#CCB9E2"/>
<stop offset="1"/>
</radialGradient>
<clipPath id="clip0_974_20884">
<rect width="40" height="40" fill="white"/>
</clipPath>
</defs>
</svg>
