<svg width="72" height="72" viewBox="0 0 72 72" fill="none" xmlns="http://www.w3.org/2000/svg">
<path d="M36 71.9866C55.8823 71.9866 72 55.8718 72 35.9933C72 16.1147 55.8823 0 36 0C16.1178 0 0 16.1147 0 35.9933C0 55.8718 16.1178 71.9866 36 71.9866Z" fill="#FEE9B3"/>
<path d="M57.5263 57.4841C57.5308 60.0898 57.339 62.6921 56.9524 65.269C44.2544 74.3704 27.1306 74.2301 14.5835 64.9217L14.4556 64.8275C14.1103 62.395 13.9378 59.941 13.9395 57.4841C13.9395 48.5574 16.1698 40.4393 19.8134 34.3963L19.4056 22.4525L19.3887 21.921L19.3493 20.7512L19.2776 18.6324H22.3714L22.9845 19.8205L23.7579 21.3192L26.2301 26.1066L26.5817 26.7871C29.3632 24.7878 32.4626 23.67 35.7307 23.67C39.1521 23.67 42.3893 24.8947 45.2721 27.0754L48.2435 21.3192L49.017 19.8219L49.1576 19.5407L49.6287 18.6282H52.7224L52.6507 20.747L52.6142 21.8366L52.5945 22.4482L52.1628 35.268C55.5026 41.214 57.5263 48.982 57.5263 57.4841Z" fill="#366FCA"/>
<path d="M21.445 50.9898C21.4131 51.9609 21.3971 52.9404 21.3971 53.9283C21.3843 59.1448 21.847 64.3516 22.7795 69.4842C19.8554 68.3292 17.0957 66.7953 14.5712 64.9217C14.2162 62.4585 14.039 59.9728 14.041 57.4841C14.041 48.5574 16.2714 40.4393 19.915 34.3963L19.5128 22.4454L19.4973 21.9561L19.4565 20.7456L19.3848 18.6282H22.4786L23.0664 19.767L23.8398 21.2658L26.2726 25.9773C26.2557 26.0195 26.2389 26.0602 26.2234 26.1024C24.7314 29.8831 23.5375 34.1461 22.7078 38.7563C22.5709 39.5155 22.4448 40.2841 22.3295 41.0621C22.1889 41.9493 22.0764 42.8505 21.9723 43.7602C21.8092 45.154 21.6803 46.5703 21.5856 48.0091C21.5593 48.4112 21.5354 48.8152 21.5139 49.2211C21.4867 49.8078 21.4637 50.3974 21.445 50.9898Z" fill="#356CBC"/>
<path d="M25.6307 50.7351C29.1342 50.7351 31.9743 47.8955 31.9743 44.3927C31.9743 40.8899 29.1342 38.0503 25.6307 38.0503C22.1272 38.0503 19.2871 40.8899 19.2871 44.3927C19.2871 47.8955 22.1272 50.7351 25.6307 50.7351Z" fill="#3469B7"/>
<path d="M46.5565 50.7351C50.06 50.7351 52.9001 47.8955 52.9001 44.3927C52.9001 40.8899 50.06 38.0503 46.5565 38.0503C43.053 38.0503 40.2129 40.8899 40.2129 44.3927C40.2129 47.8955 43.053 50.7351 46.5565 50.7351Z" fill="#3469B7"/>
<path d="M46.5566 40.6824C48.3429 40.6824 49.791 39.2346 49.791 37.4486C49.791 35.6627 48.3429 34.2148 46.5566 34.2148C44.7703 34.2148 43.3223 35.6627 43.3223 37.4486C43.3223 39.2346 44.7703 40.6824 46.5566 40.6824Z" fill="#3586CB"/>
<path d="M28.6758 48.7205C30.4621 48.7205 31.9102 47.2727 31.9102 45.4867C31.9102 43.7007 30.4621 42.2529 28.6758 42.2529C26.8895 42.2529 25.4414 43.7007 25.4414 45.4867C25.4414 47.2727 26.8895 48.7205 28.6758 48.7205Z" fill="#3586CB"/>
<path d="M27.9941 38.0178C29.7804 38.0178 31.2285 36.57 31.2285 34.7841C31.2285 32.9981 29.7804 31.5503 27.9941 31.5503C26.2078 31.5503 24.7598 32.9981 24.7598 34.7841C24.7598 36.57 26.2078 38.0178 27.9941 38.0178Z" fill="#3586CB"/>
<path d="M37.3457 43.9164C38.2389 43.9164 38.9629 43.1925 38.9629 42.2995C38.9629 41.4065 38.2389 40.6826 37.3457 40.6826C36.4526 40.6826 35.7285 41.4065 35.7285 42.2995C35.7285 43.1925 36.4526 43.9164 37.3457 43.9164Z" fill="#3586CB"/>
<path d="M43.3223 48.5092C44.2154 48.5092 44.9395 47.7853 44.9395 46.8923C44.9395 45.9993 44.2154 45.2754 43.3223 45.2754C42.4291 45.2754 41.7051 45.9993 41.7051 46.8923C41.7051 47.7853 42.4291 48.5092 43.3223 48.5092Z" fill="#3586CB"/>
<path d="M40.2129 33.1674C41.106 33.1674 41.8301 32.4435 41.8301 31.5505C41.8301 30.6575 41.106 29.9336 40.2129 29.9336C39.3197 29.9336 38.5957 30.6575 38.5957 31.5505C38.5957 32.4435 39.3197 33.1674 40.2129 33.1674Z" fill="#3586CB"/>
<path d="M20.8926 51.0868C21.7857 51.0868 22.5098 50.3629 22.5098 49.4699C22.5098 48.5769 21.7857 47.853 20.8926 47.853C19.9994 47.853 19.2754 48.5769 19.2754 49.4699C19.2754 50.3629 19.9994 51.0868 20.8926 51.0868Z" fill="#3586CB"/>
<path d="M21.293 43.9164C22.1861 43.9164 22.9102 43.1925 22.9102 42.2995C22.9102 41.4065 22.1861 40.6826 21.293 40.6826C20.3998 40.6826 19.6758 41.4065 19.6758 42.2995C19.6758 43.1925 20.3998 43.9164 21.293 43.9164Z" fill="#3586CB"/>
<path d="M51.1523 50.2194C52.4338 50.2194 53.4727 49.1807 53.4727 47.8995C53.4727 46.6182 52.4338 45.5796 51.1523 45.5796C49.8709 45.5796 48.832 46.6182 48.832 47.8995C48.832 49.1807 49.8709 50.2194 51.1523 50.2194Z" fill="#3586CB"/>
<path d="M39.1397 49.8213H32.458C30.4393 49.8213 28.8027 51.4578 28.8027 53.4766V53.4772C28.8027 55.4959 30.4393 57.1324 32.458 57.1324H39.1397C41.1584 57.1324 42.7949 55.4959 42.7949 53.4772V53.4766C42.7949 51.4578 41.1584 49.8213 39.1397 49.8213Z" fill="#27273D"/>
<path d="M19.2758 22.4541C24.4677 22.4541 28.6766 18.246 28.6766 13.055C28.6766 7.8641 24.4677 3.65601 19.2758 3.65601C14.0839 3.65601 9.875 7.8641 9.875 13.055C9.875 18.246 14.0839 22.4541 19.2758 22.4541Z" fill="#3469B7"/>
<path d="M16.4202 20.2154C17.6965 21.3028 19.2414 22.0278 20.8935 22.3145C17.2015 22.9569 13.4805 21.3456 11.4236 18.2137C9.36662 15.0818 9.36662 11.0275 11.4236 7.89562C13.4805 4.76369 17.2015 3.15239 20.8935 3.79482C17.3028 4.4222 14.3983 7.06814 13.4403 10.5845C12.4824 14.1009 13.6437 17.854 16.4202 20.2154Z" fill="#2F64A3"/>
<path d="M19.2755 20.7523C23.5968 20.7523 27.0999 17.2498 27.0999 12.9294C27.0999 8.60889 23.5968 5.10645 19.2755 5.10645C14.9543 5.10645 11.4512 8.60889 11.4512 12.9294C11.4512 17.2498 14.9543 20.7523 19.2755 20.7523Z" fill="white"/>
<path d="M16.4203 20.2155C13.3244 18.9986 11.3361 15.9581 11.4627 12.6345C11.5894 9.31099 13.8033 6.43056 16.9828 5.45264C14.6517 7.14752 13.2269 9.81782 13.1172 12.6975C13.0074 15.5773 14.2249 18.3482 16.4203 20.2155Z" fill="#E8E8E8"/>
<path d="M19.2769 17.9783C21.8266 17.9783 23.8936 15.9117 23.8936 13.3624C23.8936 10.8132 21.8266 8.74658 19.2769 8.74658C16.7271 8.74658 14.6602 10.8132 14.6602 13.3624C14.6602 15.9117 16.7271 17.9783 19.2769 17.9783Z" fill="#A65C3B"/>
<path d="M19.2328 16.8213C21.1434 16.8213 22.6922 15.2727 22.6922 13.3625C22.6922 11.4523 21.1434 9.90381 19.2328 9.90381C17.3223 9.90381 15.7734 11.4523 15.7734 13.3625C15.7734 15.2727 17.3223 16.8213 19.2328 16.8213Z" fill="#27273D"/>
<path d="M21.2916 12.4235C22.0869 12.4235 22.7316 11.7787 22.7316 10.9835C22.7316 10.1882 22.0869 9.54346 21.2916 9.54346C20.4963 9.54346 19.8516 10.1882 19.8516 10.9835C19.8516 11.7787 20.4963 12.4235 21.2916 12.4235Z" fill="white"/>
<path d="M19.233 14.8024C20.0283 14.8024 20.673 14.1577 20.673 13.3624C20.673 12.5671 20.0283 11.9224 19.233 11.9224C18.4377 11.9224 17.793 12.5671 17.793 13.3624C17.793 14.1577 18.4377 14.8024 19.233 14.8024Z" fill="white"/>
<path d="M52.723 22.4538C57.915 22.4538 62.1238 18.2457 62.1238 13.0548C62.1238 7.86385 57.915 3.65576 52.723 3.65576C47.5311 3.65576 43.3223 7.86385 43.3223 13.0548C43.3223 18.2457 47.5311 22.4538 52.723 22.4538Z" fill="#3469B7"/>
<path d="M49.8675 20.2154C51.1438 21.3028 52.6886 22.0278 54.3408 22.3145C50.6488 22.9569 46.9278 21.3456 44.8708 18.2137C42.8139 15.0818 42.8139 11.0275 44.8708 7.89562C46.9278 4.76369 50.6488 3.15239 54.3408 3.79482C50.75 4.4222 47.8455 7.06814 46.8876 10.5845C45.9297 14.1009 47.0909 17.854 49.8675 20.2154Z" fill="#2F64A3"/>
<path d="M52.7228 20.7523C57.0441 20.7523 60.5472 17.2498 60.5472 12.9294C60.5472 8.60889 57.0441 5.10645 52.7228 5.10645C48.4015 5.10645 44.8984 8.60889 44.8984 12.9294C44.8984 17.2498 48.4015 20.7523 52.7228 20.7523Z" fill="white"/>
<path d="M49.8676 20.2155C46.7717 18.9986 44.7834 15.9581 44.91 12.6345C45.0366 9.31099 47.2506 6.43056 50.4301 5.45264C48.099 7.14752 46.6742 9.81782 46.5644 12.6975C46.4547 15.5773 47.6722 18.3482 49.8676 20.2155Z" fill="#E8E8E8"/>
<path d="M52.7222 17.9783C55.2719 17.9783 57.3389 15.9117 57.3389 13.3624C57.3389 10.8132 55.2719 8.74658 52.7222 8.74658C50.1724 8.74658 48.1055 10.8132 48.1055 13.3624C48.1055 15.9117 50.1724 17.9783 52.7222 17.9783Z" fill="#A65C3B"/>
<path d="M52.6801 16.8213C54.5906 16.8213 56.1395 15.2727 56.1395 13.3625C56.1395 11.4523 54.5906 9.90381 52.6801 9.90381C50.7695 9.90381 49.2207 11.4523 49.2207 13.3625C49.2207 15.2727 50.7695 16.8213 52.6801 16.8213Z" fill="#27273D"/>
<path d="M54.7408 12.4235C55.5361 12.4235 56.1808 11.7787 56.1808 10.9835C56.1808 10.1882 55.5361 9.54346 54.7408 9.54346C53.9455 9.54346 53.3008 10.1882 53.3008 10.9835C53.3008 11.7787 53.9455 12.4235 54.7408 12.4235Z" fill="white"/>
<path d="M52.6802 14.8024C53.4755 14.8024 54.1202 14.1577 54.1202 13.3624C54.1202 12.5671 53.4755 11.9224 52.6802 11.9224C51.8849 11.9224 51.2402 12.5671 51.2402 13.3624C51.2402 14.1577 51.8849 14.8024 52.6802 14.8024Z" fill="white"/>
<path d="M33.2943 37.98C34.3575 37.98 35.2195 37.1182 35.2195 36.0552C35.2195 34.9921 34.3575 34.1304 33.2943 34.1304C32.2311 34.1304 31.3691 34.9921 31.3691 36.0552C31.3691 37.1182 32.2311 37.98 33.2943 37.98Z" fill="#27273D"/>
<path d="M38.3568 37.98C39.42 37.98 40.282 37.1182 40.282 36.0552C40.282 34.9921 39.42 34.1304 38.3568 34.1304C37.2936 34.1304 36.4316 34.9921 36.4316 36.0552C36.4316 37.1182 37.2936 37.98 38.3568 37.98Z" fill="#27273D"/>
<path d="M32.4604 49.8213H34.8862V51.7025C34.8862 52.3726 34.3428 52.9159 33.6726 52.9159C33.0023 52.9159 32.459 52.3726 32.459 51.7025L32.4604 49.8213Z" fill="#F6D372"/>
<path d="M39.7701 57.1323H37.3443V55.2511C37.3443 54.9293 37.4722 54.6207 37.6998 54.3931C37.9273 54.1656 38.236 54.0377 38.5579 54.0377C39.2281 54.0377 39.7715 54.581 39.7715 55.2511L39.7701 57.1323Z" fill="#F6D372"/>
</svg>
