<svg width="72" height="72" viewBox="0 0 72 72" fill="none" xmlns="http://www.w3.org/2000/svg">
<path d="M36 72C55.8823 72 72 55.8822 72 36C72 16.1177 55.8823 0 36 0C16.1178 0 0 16.1177 0 36C0 55.8822 16.1178 72 36 72Z" fill="#FFE3C3"/>
<path d="M60.7909 24.1523V59.3254C60.7917 60.383 60.6623 61.4367 60.4056 62.4627C53.7612 68.6018 45.0451 72.0077 35.9988 71.9999C34.7654 71.9999 33.5329 71.9377 32.3059 71.8129C26.8772 71.2607 21.6466 69.4742 17.0144 66.5901C14.763 65.1894 12.6725 63.5454 10.7805 61.6879L10.6497 61.5585C10.5213 60.8211 10.457 60.0739 10.457 59.3254V24.1523C10.4548 20.7396 11.8097 17.4662 14.223 15.0533C16.6364 12.6405 19.9102 11.2863 23.3228 11.2893H47.9322C51.3446 11.2871 54.6179 12.6415 57.0312 15.0541C59.4444 17.4668 60.7995 20.7399 60.798 24.1523H60.7909Z" fill="#41C0E3"/>
<path d="M32.3065 71.8129C26.8777 71.2607 21.6472 69.4743 17.0149 66.5901C14.7636 65.1894 12.6731 63.5455 10.781 61.6879C10.6367 60.9087 10.5642 60.1179 10.5645 59.3254V24.1523C10.559 17.8387 15.1408 12.4564 21.3743 11.4539C20.8908 12.9484 20.6455 14.5096 20.6473 16.0804V57.164C20.6441 64.1719 25.4876 70.2507 32.3191 71.8129H32.3065Z" fill="#3EB3CE"/>
<path d="M21.388 42.1523C26.6064 42.1523 30.8366 37.922 30.8366 32.7037C30.8366 27.4854 26.6064 23.2551 21.388 23.2551C16.1697 23.2551 11.9395 27.4854 11.9395 32.7037C11.9395 37.922 16.1697 42.1523 21.388 42.1523Z" fill="white"/>
<path d="M21.3877 38.804C24.4679 38.804 26.9649 36.307 26.9649 33.2268C26.9649 30.1466 24.4679 27.6497 21.3877 27.6497C18.3075 27.6497 15.8105 30.1466 15.8105 33.2268C15.8105 36.307 18.3075 38.804 21.3877 38.804Z" fill="#A65C3B"/>
<path d="M21.3381 37.4048C23.6456 37.4048 25.5161 35.5342 25.5161 33.2268C25.5161 30.9194 23.6456 29.0488 21.3381 29.0488C19.0307 29.0488 17.1602 30.9194 17.1602 33.2268C17.1602 35.5342 19.0307 37.4048 21.3381 37.4048Z" fill="#27273D"/>
<path d="M23.8248 31.7926C24.6201 31.7926 25.2648 31.1479 25.2648 30.3526C25.2648 29.5573 24.6201 28.9126 23.8248 28.9126C23.0295 28.9126 22.3848 29.5573 22.3848 30.3526C22.3848 31.1479 23.0295 31.7926 23.8248 31.7926Z" fill="white"/>
<path d="M21.3378 34.7992C22.2061 34.7992 22.91 34.0953 22.91 33.227C22.91 32.3587 22.2061 31.6548 21.3378 31.6548C20.4695 31.6548 19.7656 32.3587 19.7656 33.227C19.7656 34.0953 20.4695 34.7992 21.3378 34.7992Z" fill="white"/>
<path d="M50.0091 42.1523C55.2275 42.1523 59.4577 37.922 59.4577 32.7037C59.4577 27.4854 55.2275 23.2551 50.0091 23.2551C44.7908 23.2551 40.5605 27.4854 40.5605 32.7037C40.5605 37.922 44.7908 42.1523 50.0091 42.1523Z" fill="white"/>
<path d="M50.0088 38.804C53.089 38.804 55.586 36.307 55.586 33.2268C55.586 30.1466 53.089 27.6497 50.0088 27.6497C46.9286 27.6497 44.4316 30.1466 44.4316 33.2268C44.4316 36.307 46.9286 38.804 50.0088 38.804Z" fill="#A65C3B"/>
<path d="M49.9573 37.4048C52.2647 37.4048 54.1352 35.5342 54.1352 33.2268C54.1352 30.9194 52.2647 29.0488 49.9573 29.0488C47.6498 29.0488 45.7793 30.9194 45.7793 33.2268C45.7793 35.5342 47.6498 37.4048 49.9573 37.4048Z" fill="#27273D"/>
<path d="M52.4459 31.7926C53.2412 31.7926 53.8859 31.1479 53.8859 30.3526C53.8859 29.5573 53.2412 28.9126 52.4459 28.9126C51.6506 28.9126 51.0059 29.5573 51.0059 30.3526C51.0059 31.1479 51.6506 31.7926 52.4459 31.7926Z" fill="white"/>
<path d="M49.9589 34.7992C50.8272 34.7992 51.5311 34.0953 51.5311 33.227C51.5311 32.3587 50.8272 31.6548 49.9589 31.6548C49.0906 31.6548 48.3867 32.3587 48.3867 33.227C48.3867 34.0953 49.0906 34.7992 49.9589 34.7992Z" fill="white"/>
<path d="M19.696 50.7122C22.9098 50.7122 25.5151 49.3051 25.5151 47.5692C25.5151 45.8334 22.9098 44.4263 19.696 44.4263C16.4822 44.4263 13.877 45.8334 13.877 47.5692C13.877 49.3051 16.4822 50.7122 19.696 50.7122Z" fill="#FAB3A7"/>
<path d="M51.53 50.7122C54.7438 50.7122 57.3491 49.3051 57.3491 47.5692C57.3491 45.8334 54.7438 44.4263 51.53 44.4263C48.3162 44.4263 45.7109 45.8334 45.7109 47.5692C45.7109 49.3051 48.3162 50.7122 51.53 50.7122Z" fill="#FAB3A7"/>
<path d="M30.5366 39.2175H41.4378C41.4378 40.555 40.9065 41.8376 39.9608 42.7833C39.0151 43.729 37.7324 44.2603 36.395 44.2603H35.578C34.2405 44.2603 32.9579 43.729 32.0122 42.7833C31.0665 41.8376 30.5366 40.555 30.5366 39.2175Z" fill="#27273D"/>
<path d="M54.4209 64.3205C54.4216 65.2544 54.3274 66.1859 54.1396 67.1007C48.6364 70.3188 42.3741 72.0101 35.999 72.0001C34.7657 72.0001 33.5331 71.9379 32.3062 71.813C26.8774 71.2609 21.6469 69.4744 17.0146 66.5902C16.8892 65.8402 16.8262 65.081 16.8262 64.3205C16.8262 60.6896 18.2479 57.3427 20.6441 54.6582C24.0768 50.8107 29.5105 48.3301 35.6263 48.3301C46.0045 48.3273 54.4209 55.4865 54.4209 64.3205Z" fill="#3EACC6"/>
<path d="M33.2938 39.2175H39.2423V39.8658C39.2423 41.1286 38.2185 42.1524 36.9557 42.1524H35.5776C34.3147 42.1524 33.291 41.1286 33.291 39.8658V39.2175H33.2938Z" fill="white"/>
<path d="M53.8214 8.37012H17.4248C12.2278 8.37167 8.01562 12.5851 8.01562 17.7821V27.4853C8.01562 30.6465 10.5779 33.2093 13.7391 33.2101H16.0959C19.2577 33.2101 21.8208 30.647 21.8208 27.4853C21.8208 30.6465 24.383 33.2093 27.5442 33.2101H29.9011C33.0628 33.2101 35.6259 30.647 35.6259 27.4853C35.6298 30.6415 38.1875 33.1992 41.3438 33.2031H43.7006C46.8624 33.2031 49.4255 30.64 49.4255 27.4782C49.4255 30.6394 51.9877 33.2023 55.1489 33.2031H57.5156C60.6774 33.2031 63.2405 30.64 63.2405 27.4782V17.7821C63.2405 15.2848 62.2474 12.89 60.4809 11.1248C58.7143 9.35955 56.3187 8.36863 53.8214 8.37012Z" fill="#FC715A"/>
<path d="M22.7666 8.37012C21.3726 10.7002 20.6377 13.3653 20.6404 16.0806V31.0895C19.5543 32.4268 17.9222 33.2019 16.1995 33.1989H13.8426C10.6819 33.1981 8.11992 30.6361 8.11914 27.4754V17.7821C8.11877 15.286 9.11008 12.8921 10.875 11.1269C12.6398 9.36178 15.0337 8.37012 17.5298 8.37012H22.7666Z" fill="#E56453"/>
<path d="M17.4371 9.71162L7.19397 3.73647C6.98893 3.6163 6.73102 3.63498 6.54544 3.78344C6.35986 3.93191 6.28502 4.17942 6.35725 4.40584L10.2132 16.5938C10.4383 17.3048 11.0235 17.8431 11.7508 18.0083C12.478 18.1735 13.2383 17.9407 13.7485 17.3968L17.911 12.9572C18.3461 12.4908 18.5458 11.8518 18.4536 11.2206C18.3614 10.5894 17.9874 10.0342 17.4371 9.71162Z" fill="#DB1B1B"/>
<path d="M54.4215 9.71162L64.6632 3.73647C64.8683 3.6163 65.1262 3.63498 65.3118 3.78344C65.4973 3.93191 65.5722 4.17942 65.5 4.40584L61.6482 16.5938C61.4231 17.3048 60.8379 17.8431 60.1107 18.0083C59.3834 18.1735 58.6231 17.9407 58.1129 17.3968L53.9504 12.9572C53.515 12.4911 53.315 11.8525 53.4066 11.2213C53.4982 10.5901 53.8716 10.0347 54.4215 9.71162Z" fill="#DB1B1B"/>
<path d="M58.3248 30.3456C59.8385 30.3456 61.0655 29.1185 61.0655 27.6048C61.0655 26.0911 59.8385 24.864 58.3248 24.864C56.8111 24.864 55.584 26.0911 55.584 27.6048C55.584 29.1185 56.8111 30.3456 58.3248 30.3456Z" fill="#F98878"/>
<path d="M58.3254 23.8361C59.3972 23.8361 60.266 22.9672 60.266 21.8955C60.266 20.8237 59.3972 19.9548 58.3254 19.9548C57.2536 19.9548 56.3848 20.8237 56.3848 21.8955C56.3848 22.9672 57.2536 23.8361 58.3254 23.8361Z" fill="#F98878"/>
</svg>
