<svg width="72" height="72" viewBox="0 0 72 72" fill="none" xmlns="http://www.w3.org/2000/svg">
<path d="M36 72C55.8823 72 72 55.8822 72 36C72 16.1177 55.8823 0 36 0C16.1178 0 0 16.1177 0 36C0 55.8822 16.1178 72 36 72Z" fill="#A99BD4"/>
<path d="M66.2175 44.5246C66.0769 45.8592 68.5786 47.6029 68.3016 48.884C68.0203 50.1932 65.0208 50.7515 64.6059 51.9989C64.2375 53.1098 65.7703 54.9646 65.7914 56.2176C65.7988 56.3875 65.767 56.5569 65.6986 56.7126C65.537 57.0094 65.2798 57.2428 64.9687 57.375C63.855 57.9375 61.9298 58.0781 61.4053 58.9415C61.0523 59.5237 61.2717 60.4968 61.4644 61.4489C61.65 62.3657 61.8117 63.2643 61.4152 63.7748C60.8456 64.5089 59.2481 64.3373 58.0177 64.4779C57.4805 64.5412 57.0122 64.6649 56.7295 64.9504C56.5442 65.1593 56.4175 65.4135 56.3625 65.6873C50.3726 69.8085 43.2707 72.0101 36 72C34.474 72.0025 32.9494 71.9085 31.4353 71.7187C26.1125 71.0459 21.009 69.185 16.5023 66.2737L16.4039 66.209C16.3434 65.6887 16.2211 65.2373 15.9455 64.9574C15.5377 64.544 14.7389 64.4709 13.9022 64.4259C12.8405 64.371 11.7183 64.3654 11.2598 63.7748C10.9448 63.3698 10.9786 62.7201 11.1037 62.0099C11.2936 60.8976 11.6916 59.639 11.2697 58.9415C10.5877 57.8165 7.54031 57.9304 6.98062 56.7154C6.42094 55.5004 8.49516 53.2771 8.07328 52.0073C7.65984 50.76 4.65891 50.2017 4.37766 48.8925C4.09641 47.6085 6.60375 45.8648 6.46312 44.5331C6.32812 43.2225 3.51562 42.0468 3.51562 40.6968C3.51562 39.3468 6.32812 38.1656 6.46875 36.8676C6.60937 35.5345 4.10766 33.7893 4.38328 32.5082C4.66453 31.199 7.66406 30.6407 8.07891 29.3934C8.50078 28.1278 6.435 25.8778 6.98625 24.6853C7.54875 23.4703 10.5933 23.5856 11.2753 22.4592C11.9573 21.3328 10.4583 18.6623 11.2655 17.6259C12.0727 16.5895 15.0244 17.3812 15.9511 16.4418C16.8778 15.5025 16.0453 12.562 17.0761 11.7436C17.3222 11.5481 17.6597 11.4834 18.045 11.489C18.1491 11.489 18.2587 11.489 18.3698 11.5059C19.2459 11.5917 20.2936 11.9278 21.105 11.9194C21.1312 11.9208 21.1575 11.9208 21.1838 11.9194C21.4365 11.9219 21.6858 11.8599 21.908 11.7394C23.0442 11.0559 22.9683 8.00576 24.1861 7.47701C24.3418 7.41252 24.5101 7.38462 24.6783 7.39545C25.83 7.43904 27.457 8.8017 28.5834 8.76795C28.6742 8.76571 28.7644 8.75249 28.852 8.72857C30.1177 8.37138 30.8602 5.41264 32.1848 5.23123C32.2417 5.22275 32.2991 5.22089 32.3564 5.2242H32.3719C33.6277 5.30014 35.0592 7.69779 36.3403 7.69779H36.4008C37.6973 7.62185 39.143 5.18061 40.4002 5.22561H40.4297L40.4944 5.23264C40.5195 5.23596 40.5443 5.24066 40.5689 5.2467C41.8472 5.52795 42.5827 8.37982 43.8272 8.72998C45.1097 9.08998 47.2809 6.95248 48.4945 7.47842C49.583 7.95092 49.6364 10.4414 50.4492 11.4511C50.539 11.5661 50.6485 11.6642 50.7727 11.7408C51.1523 11.9686 51.7008 11.9531 52.3027 11.8603C53.5008 11.6803 54.9084 11.1979 55.6031 11.7478C56.6409 12.5662 55.7986 15.4983 56.7281 16.4461C57.6577 17.3939 60.5953 16.5754 61.4137 17.6301C62.2322 18.6848 60.7106 21.3201 61.4039 22.4634C62.0972 23.6067 65.1347 23.4745 65.693 24.6895C66.2498 25.875 64.1841 28.125 64.6059 29.3906C65.0208 30.6379 68.0203 31.1948 68.3016 32.5054C68.5828 33.7879 66.0769 35.5331 66.2175 36.8648C66.3581 38.1684 69.1706 39.3496 69.1706 40.694C69.1706 42.0384 66.3539 43.2225 66.2175 44.5246Z" fill="#FC4581"/>
<path d="M40.5691 5.24117C39.2909 5.52242 38.5568 8.37429 37.3123 8.72445C36.0298 9.08445 33.8585 6.94695 32.6463 7.47429C31.4341 8.00163 31.5002 11.0504 30.3668 11.7352C29.2334 12.4201 26.5798 10.9168 25.5363 11.7352C24.4929 12.5537 25.3423 15.4871 24.4113 16.4349C23.4804 17.3827 20.5441 16.5643 19.7257 17.6176C18.9073 18.6708 20.4288 21.3104 19.7355 22.4522C19.0423 23.5941 16.0048 23.4633 15.4465 24.6783C14.8882 25.8933 16.9554 28.1251 16.5321 29.3907C16.1187 30.638 13.1205 31.1949 12.8379 32.5055C12.5566 33.7894 15.0626 35.5332 14.922 36.8649C14.7813 38.1671 11.9688 39.3497 11.9688 40.6927C11.9688 41.6475 13.3891 42.5208 14.2582 43.4124C14.614 43.7766 14.8784 44.1436 14.9177 44.5205C14.9325 44.8294 14.8593 45.1361 14.7068 45.405C14.1316 46.5652 12.6143 47.8688 12.8337 48.8827C13.1149 50.1919 16.1145 50.7502 16.5293 51.9975C16.9512 53.2632 14.8868 55.5132 15.4366 56.7057C15.9865 57.8982 19.0437 57.8054 19.7257 58.9318C20.4077 60.0582 18.9073 62.7286 19.7159 63.765C20.5245 64.8014 23.4748 64.0097 24.4015 64.9491C25.3282 65.8885 24.4957 68.8275 25.5265 69.6488C26.5573 70.47 29.2235 68.971 30.357 69.6488C30.897 69.9736 31.1641 70.8342 31.4257 71.7033C26.1029 71.0305 20.9994 69.1696 16.4927 66.2583C16.4351 65.7127 16.3155 65.2346 16.0287 64.9435C15.6068 64.5132 14.763 64.4499 13.8855 64.4063C12.8534 64.3543 11.786 64.3303 11.343 63.7594C11.0393 63.3685 11.0618 62.7511 11.1743 62.0719C11.3585 60.9469 11.7846 59.6405 11.3529 58.9275C10.6695 57.8025 7.62211 57.9164 7.06383 56.7014C6.50555 55.4864 8.57836 53.2632 8.15648 51.9933C7.73461 50.746 4.74211 50.1877 4.46086 48.8785C4.17961 47.596 6.68555 45.8508 6.54492 44.5191C6.4043 43.2169 3.5918 42.0343 3.5918 40.6913C3.5918 39.3483 6.4043 38.16 6.54492 36.8635C6.68555 35.529 4.18383 33.7852 4.46086 32.5041C4.74211 31.1935 7.74164 30.6366 8.15508 29.3893C8.57695 28.1236 6.51258 25.8737 7.06383 24.6812C7.61508 23.4887 10.6695 23.5815 11.3529 22.4551C12.0363 21.3287 10.5345 18.6582 11.343 17.6204C12.1516 16.5826 15.102 17.3771 16.0287 16.4377C16.9554 15.4983 16.1229 12.5593 17.1537 11.738C17.4098 11.5593 17.7178 11.4703 18.0298 11.4849C18.1344 11.4827 18.2391 11.486 18.3434 11.4948C19.2068 11.558 20.2587 11.8955 21.0898 11.9166H21.1727C21.4548 11.9286 21.7349 11.865 21.9841 11.7324C23.1218 11.0476 23.0459 8.00023 24.2623 7.47148C24.389 7.41746 24.5253 7.38925 24.663 7.38851C25.788 7.35898 27.4151 8.72866 28.5682 8.76101C28.69 8.76672 28.8119 8.75344 28.9296 8.72163C30.1952 8.36445 30.9377 5.4057 32.261 5.22429L32.3412 5.21726H32.3566C33.6223 5.17367 35.0609 7.60788 36.356 7.68945H36.4165C37.6976 7.68945 39.1277 5.29179 40.3849 5.21585H40.4145C40.4671 5.21328 40.5198 5.21563 40.572 5.22289H40.6001L40.5691 5.24117Z" fill="#DD3E78"/>
<path d="M58.7531 39.576C58.7639 51.045 50.1064 60.6678 38.7 61.865C38.1375 61.9241 37.5637 61.9634 36.9872 61.9775L36.6778 61.9859C35.11 62.0121 33.544 61.8706 32.0062 61.5641C31.4887 61.4609 30.9773 61.3395 30.472 61.1999C29.3994 60.9044 28.3506 60.5284 27.3347 60.0749C24.2096 58.6781 21.4399 56.5943 19.2319 53.9788C15.8099 49.9594 13.9279 44.8547 13.9219 39.576C13.9219 39.5057 13.9219 39.4353 13.9219 39.365C13.9317 38.0994 15.5742 37.6269 16.2717 38.683C18.0998 41.4547 20.9123 42.8047 24.3492 43.4642C26.1773 43.8116 28.1756 43.9663 30.3075 44.0267C32.2242 44.0886 34.245 44.0802 36.3333 44.0802C37.3978 44.0802 38.4427 44.0802 39.4706 44.0802C40.6659 44.0802 41.8303 44.0549 42.9567 44.0113C44.6258 43.9612 46.2898 43.8005 47.9377 43.5303C51.5503 42.9017 54.4964 41.5616 56.3934 38.683C57.0966 37.6255 58.7334 38.0994 58.7433 39.3664C58.7531 39.4353 58.7531 39.5057 58.7531 39.576Z" fill="#27273D"/>
<path d="M53.379 54.1405C49.6606 58.5075 44.4049 61.2768 38.7005 61.8749C38.138 61.934 37.5643 61.9733 36.9877 61.9874L36.6784 61.9958C35.1106 62.022 33.5445 61.8805 32.0068 61.574C31.4893 61.4708 30.9779 61.3494 30.4726 61.2098C29.3999 60.9143 28.3512 60.5383 27.3352 60.0848C24.2102 58.688 21.4405 56.6043 19.2324 53.9887C23.5384 51.8666 29.5234 50.549 36.1412 50.549C42.9277 50.5321 49.0491 51.9159 53.379 54.1405Z" fill="#DB1B1B"/>
<path d="M60.1477 30.6083C61.4913 30.6083 62.5805 29.5191 62.5805 28.1755C62.5805 26.8319 61.4913 25.7427 60.1477 25.7427C58.8041 25.7427 57.7148 26.8319 57.7148 28.1755C57.7148 29.5191 58.8041 30.6083 60.1477 30.6083Z" fill="#F96B9E"/>
<path d="M56.9004 26.0071C57.8518 26.0071 58.623 25.2358 58.623 24.2844C58.623 23.333 57.8518 22.5618 56.9004 22.5618C55.949 22.5618 55.1777 23.333 55.1777 24.2844C55.1777 25.2358 55.949 26.0071 56.9004 26.0071Z" fill="#F96B9E"/>
<path d="M36.3041 40.6967C44.1436 40.6967 50.4988 34.3416 50.4988 26.5021C50.4988 18.6625 44.1436 12.3074 36.3041 12.3074C28.4646 12.3074 22.1094 18.6625 22.1094 26.5021C22.1094 34.3416 28.4646 40.6967 36.3041 40.6967Z" fill="white"/>
<path d="M36.3048 35.664C40.9313 35.664 44.6818 31.9134 44.6818 27.2869C44.6818 22.6604 40.9313 18.9099 36.3048 18.9099C31.6783 18.9099 27.9277 22.6604 27.9277 27.2869C27.9277 31.9134 31.6783 35.664 36.3048 35.664Z" fill="#3586CB"/>
<path d="M36.2273 33.5629C39.6935 33.5629 42.5034 30.753 42.5034 27.2868C42.5034 23.8206 39.6935 21.0107 36.2273 21.0107C32.7611 21.0107 29.9512 23.8206 29.9512 27.2868C29.9512 30.753 32.7611 33.5629 36.2273 33.5629Z" fill="#27273D"/>
<path d="M39.9634 24.9257C41.0445 24.9257 41.9209 24.0493 41.9209 22.9682C41.9209 21.8871 41.0445 21.0107 39.9634 21.0107C38.8823 21.0107 38.0059 21.8871 38.0059 22.9682C38.0059 24.0493 38.8823 24.9257 39.9634 24.9257Z" fill="white"/>
<path d="M36.2283 29.648C37.5323 29.648 38.5894 28.5909 38.5894 27.2869C38.5894 25.9829 37.5323 24.9258 36.2283 24.9258C34.9243 24.9258 33.8672 25.9829 33.8672 27.2869C33.8672 28.5909 34.9243 29.648 36.2283 29.648Z" fill="white"/>
<path d="M30.3148 44.0311V46.5891C30.3148 47.2041 30.0255 47.7833 29.5338 48.1528C29.0421 48.5223 28.4053 48.639 27.8145 48.4678L25.7656 47.873C24.9317 47.6302 24.3585 46.8656 24.3594 45.9971V43.4658C26.1819 43.8104 28.183 43.965 30.3148 44.0311Z" fill="#F6D372"/>
<path d="M44.6575 58.9064V60.3942C42.7488 61.1573 40.7437 61.6523 38.6992 61.8652V58.3116C38.6989 57.6959 38.9886 57.1161 39.4811 56.7467C39.9736 56.3773 40.6114 56.2615 41.2023 56.4342L43.2513 57.0277C44.0853 57.272 44.6582 58.0373 44.6575 58.9064Z" fill="#F6D372"/>
<path d="M39.4779 44.0803V46.7522C39.495 47.3238 39.1998 47.8595 38.7074 48.1504C38.215 48.4413 37.6034 48.4413 37.111 48.1504C36.6186 47.8595 36.3234 47.3238 36.3405 46.7522V44.0845C37.4065 44.0845 38.4527 44.0874 39.4779 44.0803Z" fill="#F6D372"/>
<path d="M30.472 57.4313V61.1944C29.3994 60.899 28.3506 60.5229 27.3347 60.0694V57.4313C27.3176 56.8597 27.6128 56.324 28.1052 56.0331C28.5975 55.7422 29.2092 55.7422 29.7016 56.0331C30.194 56.324 30.4892 56.8597 30.472 57.4313Z" fill="#F6D372"/>
<path d="M47.9438 43.5305V44.7061C47.9438 45.5038 47.2972 46.1504 46.4996 46.1504H44.4071C43.6095 46.1504 42.9629 45.5038 42.9629 44.7061V44.0157C44.6321 43.9642 46.2961 43.8021 47.9438 43.5305Z" fill="#F6D372"/>
<path d="M36.9849 60.3703V61.9777L36.6755 61.9861C35.1077 62.0122 33.5416 61.8708 32.0039 61.5642V60.3703C32.0028 59.9858 32.155 59.6168 32.4269 59.3449C32.6988 59.073 33.0679 58.9208 33.4524 58.9219H35.5435C35.9267 58.9226 36.294 59.0757 36.5643 59.3474C36.8347 59.619 36.986 59.9871 36.9849 60.3703Z" fill="#F6D372"/>
<path d="M22.1095 14.7234C21.8833 14.7226 21.6696 14.6192 21.5288 14.4421C21.4809 14.383 16.6069 8.48102 10.2788 8.3179C10.012 8.31112 9.76909 8.16252 9.64157 7.9281C9.51406 7.69367 9.52129 7.40902 9.66056 7.18138C9.79982 6.95373 10.0499 6.81768 10.3167 6.82446C17.348 7.00587 22.4822 13.2356 22.6917 13.5013C22.9504 13.8223 22.9008 14.2921 22.5806 14.5518C22.4484 14.6621 22.2818 14.7228 22.1095 14.7234Z" fill="#AD325E"/>
<path d="M12.1815 7.86391C12.3076 6.67688 10.2716 5.48761 7.63421 5.20761C4.99677 4.92761 2.75654 5.66291 2.63052 6.84995C2.5045 8.03698 4.54041 9.22625 7.17785 9.50625C9.81529 9.78625 12.0555 9.05095 12.1815 7.86391Z" fill="#00B564"/>
<path d="M49.011 14.722C48.7205 14.725 48.4547 14.559 48.33 14.2966C48.2053 14.0342 48.2444 13.7232 48.4303 13.4999C48.6454 13.2341 53.774 7.00442 60.8053 6.82302C61.2177 6.81215 61.5608 7.13765 61.5717 7.55005C61.5825 7.96245 61.257 8.30558 60.8446 8.31646C54.5053 8.47958 49.6354 14.3816 49.5862 14.4407C49.4466 14.6162 49.2353 14.7195 49.011 14.722Z" fill="#AD325E"/>
<path d="M63.9409 9.50627C66.5783 9.22627 68.6142 8.037 68.4882 6.84996C68.3622 5.66292 66.1219 4.92762 63.4845 5.20762C60.8471 5.48762 58.8111 6.67689 58.9372 7.86393C59.0632 9.05097 61.3034 9.78627 63.9409 9.50627Z" fill="#00B564"/>
</svg>
