<svg width="300" height="61" viewBox="0 0 300 61" fill="none" xmlns="http://www.w3.org/2000/svg">
<g clip-path="url(#clip0_590_66887)">
<path d="M45.4704 26.8536C44.6377 27.6913 44.0002 28.7023 43.603 29.8144C43.2058 30.9266 43.0588 32.1127 43.1724 33.2883L43.1329 33.2487C43.2497 34.6325 43.063 36.0249 42.5861 37.3292C42.1091 38.6333 41.3534 39.8176 40.3716 40.7996C39.3896 41.7814 38.2053 42.5374 36.901 43.0141C35.5969 43.491 34.2043 43.6777 32.8207 43.5609L32.8603 43.6004C31.2051 43.4464 29.5428 43.8065 28.0996 44.6319C26.6567 45.4572 25.5034 46.7075 24.7971 48.2123C24.0908 49.7172 23.8656 51.4031 24.1525 53.0406C24.4396 54.678 25.2246 56.187 26.4006 57.3619C27.5766 58.5368 29.0863 59.3204 30.7238 59.6058C32.3616 59.8914 34.0472 59.6647 35.5514 58.957C37.0556 58.2492 38.3048 57.095 39.1288 55.6512C39.9529 54.2074 40.3116 52.5448 40.1561 50.8897L40.1978 50.9292C40.081 49.5456 40.2675 48.153 40.7444 46.8487C41.2214 45.5447 41.9773 44.3603 42.9591 43.3783C43.9411 42.3965 45.1254 41.6406 46.4295 41.1639C47.7338 40.6869 49.1262 40.5002 50.51 40.6171L50.4683 40.5775C51.8202 40.699 53.1812 40.4773 54.4248 39.933C55.6683 39.3886 56.7544 38.539 57.5822 37.4632C58.41 36.3874 58.953 35.1198 59.1604 33.7784C59.368 32.4368 59.2336 31.0646 58.7696 29.7886C58.3056 28.5129 57.527 27.3749 56.5062 26.4801C55.4853 25.5854 54.255 24.9628 52.9294 24.6701C51.6038 24.3775 50.2257 24.4241 48.923 24.8057C47.6202 25.1875 46.435 25.8918 45.4769 26.8536H45.4704Z" fill="#1A2027" fill-opacity="0.95"/>
<path d="M29.2639 38.4201L29.2222 38.3805C30.3982 38.4989 31.5858 38.3546 32.6994 37.9578C33.8128 37.5611 34.8242 36.922 35.6603 36.0865C36.4963 35.2511 37.1364 34.2401 37.5338 33.1269C37.9315 32.0138 38.0767 30.8263 37.9592 29.6501L38.0009 29.6897C37.884 28.3059 38.0708 26.9135 38.5475 25.6092C39.0244 24.3051 39.7804 23.1208 40.7621 22.1388C41.7442 21.157 42.9285 20.401 44.2326 19.9243C45.5368 19.4473 46.9292 19.2607 48.313 19.3775L48.2713 19.338C49.9267 19.4935 51.5895 19.1345 53.0333 18.3101C54.4773 17.4857 55.6315 16.2359 56.3389 14.7313C57.0463 13.2268 57.2724 11.5406 56.9863 9.90282C56.7003 8.26503 55.916 6.75538 54.7402 5.57974C53.5647 4.40413 52.055 3.61975 50.4172 3.33367C48.7794 3.04757 47.0933 3.27366 45.5887 3.98109C44.0841 4.68851 42.8345 5.84286 42.01 7.28667C41.1855 8.73046 40.8265 10.3934 40.9821 12.0487L40.9425 12.007C41.0596 13.3908 40.8733 14.7835 40.3966 16.0878C39.9199 17.3921 39.1639 18.5767 38.1821 19.5588C37.2001 20.5406 36.0156 21.2965 34.7113 21.7732C33.4068 22.2499 32.0142 22.4362 30.6304 22.3191L30.6699 22.3609C29.4939 22.2425 28.3061 22.3868 27.1927 22.7836C26.0793 23.1801 25.0679 23.8194 24.2317 24.6549C23.3956 25.4903 22.7557 26.5013 22.358 27.6145C21.9606 28.7277 21.8154 29.9151 21.9329 31.0913L21.8934 31.0517C22.0098 32.4353 21.8229 33.8277 21.3459 35.1318C20.8688 36.4356 20.113 37.62 19.1312 38.6017C18.1494 39.5835 16.9652 40.3393 15.6612 40.8164C14.3572 41.2934 12.9648 41.4803 11.5812 41.3639L11.6208 41.4034C9.96547 41.2479 8.3025 41.6069 6.85869 42.4314C5.4149 43.2558 4.26055 44.5054 3.55313 46.0101C2.84569 47.5147 2.61959 49.2008 2.90569 50.8386C3.19179 52.4764 3.97616 53.986 5.15178 55.1616C6.32742 56.3374 7.83707 57.1217 9.47486 57.4077C11.1127 57.6937 12.7988 57.4677 14.3034 56.7603C15.808 56.0529 17.0577 54.8986 17.8821 53.4548C18.7066 52.0108 19.0656 50.348 18.91 48.6927L18.9518 48.7322C18.8349 47.3484 19.0216 45.956 19.4986 44.6517C19.9753 43.3477 20.7312 42.1633 21.713 41.1813C22.695 40.1995 23.8794 39.4436 25.1834 38.9669C26.4877 38.4899 27.8801 38.3032 29.2639 38.4201Z" fill="#1A2027" fill-opacity="0.95"/>
<path d="M14.5398 34.011C15.3725 33.1735 16.01 32.1625 16.4068 31.0503C16.8037 29.938 16.9501 28.7517 16.8356 27.5763L16.8773 27.6159C16.7604 26.2318 16.9471 24.8388 17.4242 23.5343C17.9014 22.2298 18.6577 21.0452 19.6401 20.0632C20.6226 19.0813 21.8073 18.3256 23.1121 17.8489C24.4168 17.3723 25.8098 17.1862 27.1939 17.3037L27.1521 17.2642C28.8068 17.4192 30.4692 17.0601 31.9123 16.2357C33.3554 15.4114 34.509 14.1619 35.2162 12.6578C35.9231 11.1537 36.149 9.46817 35.863 7.83099C35.5769 6.19381 34.7926 4.68473 33.6175 3.50953C32.4424 2.33433 30.9332 1.55022 29.296 1.26414C27.6589 0.978043 25.9733 1.20393 24.4693 1.91093C22.9651 2.61792 21.7157 3.77166 20.8914 5.21479C20.067 6.65792 19.7078 8.32021 19.8629 9.97494L19.8233 9.9354C19.9402 11.3191 19.7535 12.7116 19.2765 14.0158C18.7996 15.3199 18.0439 16.5043 17.062 17.4862C16.0801 18.4681 14.8957 19.2239 13.5915 19.7007C12.2874 20.1777 10.8949 20.3644 9.51118 20.2475L9.55072 20.2871C8.1987 20.1658 6.83793 20.3879 5.59454 20.9325C4.35115 21.4771 3.26534 22.3269 2.43775 23.4029C1.61017 24.4787 1.06758 25.7463 0.860242 27.0877C0.652923 28.4294 0.787569 29.8015 1.2517 31.0771C1.71584 32.3528 2.49448 33.4905 3.51543 34.3851C4.53639 35.2799 5.76664 35.9023 7.09219 36.1949C8.41773 36.4873 9.79567 36.4405 11.0984 36.0589C12.401 35.6771 13.5862 34.9728 14.5442 34.011H14.5398Z" fill="#1A2027" fill-opacity="0.95"/>
<path d="M82.5938 12.0991H89.1185V43.8506H82.5938V12.0991Z" fill="#1A2027" fill-opacity="0.95"/>
<path d="M92.8128 32.9783C92.8038 30.6966 93.4721 28.4633 94.7331 26.5616C95.9941 24.66 97.7912 23.1754 99.8966 22.296C102.002 21.4163 104.321 21.1815 106.56 21.6211C108.799 22.0607 110.858 23.1547 112.474 24.765C114.091 26.3751 115.193 28.429 115.642 30.6663C116.09 32.9036 115.865 35.2237 114.994 37.3327C114.123 39.4415 112.645 41.2447 110.749 42.5132C108.852 43.7819 106.622 44.4592 104.34 44.4592C102.825 44.4765 101.322 44.1916 99.9191 43.6213C98.5157 43.051 97.2402 42.2067 96.167 41.1379C95.0936 40.0689 94.2443 38.7967 93.6685 37.3958C93.0925 35.9948 92.8016 34.493 92.8128 32.9783ZM109.342 32.9783C109.315 31.9947 108.998 31.0411 108.432 30.2364C107.866 29.4319 107.075 28.8119 106.158 28.4545C105.242 28.0968 104.24 28.0173 103.279 28.226C102.317 28.4347 101.438 28.922 100.752 29.6274C100.066 30.3326 99.6031 31.2245 99.4215 32.1916C99.2396 33.1584 99.3465 34.1576 99.7295 35.064C100.112 35.9704 100.754 36.7437 101.574 37.2875C102.394 37.8312 103.356 38.1212 104.34 38.1212C105.014 38.1392 105.684 38.0173 106.308 37.7633C106.933 37.5093 107.498 37.1288 107.968 36.6458C108.438 36.1624 108.803 35.5871 109.039 34.9559C109.276 34.3248 109.379 33.6514 109.342 32.9783Z" fill="#1A2027" fill-opacity="0.95"/>
<path d="M141.871 22.104V42.7546C141.871 50.0614 136.173 53.1502 130.388 53.1502C128.352 53.3027 126.312 52.8912 124.494 51.9613C122.676 51.0311 121.149 49.6183 120.08 47.8777L125.647 44.6593C126.096 45.5666 126.812 46.3151 127.698 46.8048C128.584 47.2943 129.599 47.5016 130.606 47.3988C131.249 47.488 131.905 47.4313 132.524 47.233C133.142 47.0346 133.709 46.6996 134.181 46.2529C134.653 45.8061 135.018 45.2591 135.25 44.6518C135.482 44.0448 135.574 43.3935 135.52 42.7458V40.7577C134.756 41.6924 133.784 42.4352 132.681 42.9262C131.578 43.4172 130.375 43.6428 129.169 43.585C126.299 43.4945 123.578 42.2911 121.58 40.2291C119.582 38.1673 118.465 35.4089 118.465 32.538C118.465 29.6672 119.582 26.9088 121.58 24.847C123.578 22.785 126.299 21.5815 129.169 21.491C130.375 21.4333 131.578 21.6589 132.681 22.1499C133.784 22.6409 134.756 23.3836 135.52 24.3184V22.0996L141.871 22.104ZM135.522 32.5413C135.566 31.4899 135.294 30.4492 134.742 29.5536C134.189 28.6577 133.381 27.9479 132.422 27.5153C131.462 27.0825 130.396 26.947 129.359 27.1258C128.321 27.3046 127.362 27.7897 126.602 28.5188C125.843 29.2478 125.32 30.1872 125.099 31.2162C124.878 32.2452 124.971 33.3168 125.364 34.2929C125.758 35.269 126.434 36.1051 127.307 36.6934C128.18 37.2818 129.208 37.5955 130.261 37.5942C130.946 37.642 131.634 37.5458 132.28 37.3116C132.926 37.0774 133.516 36.7103 134.012 36.2345C134.508 35.7584 134.898 35.184 135.158 34.5477C135.418 33.9117 135.543 33.2283 135.522 32.5413Z" fill="#1A2027" fill-opacity="0.95"/>
<path d="M145.567 32.9783C145.558 30.6966 146.226 28.4633 147.487 26.5616C148.748 24.66 150.545 23.1754 152.651 22.296C154.756 21.4163 157.075 21.1815 159.314 21.6211C161.553 22.0607 163.611 23.1547 165.228 24.765C166.845 26.3751 167.947 28.429 168.396 30.6663C168.844 32.9036 168.619 35.2237 167.748 37.3327C166.877 39.4415 165.399 41.2447 163.503 42.5132C161.606 43.7819 159.376 44.4592 157.094 44.4592C155.579 44.4765 154.076 44.1916 152.673 43.6213C151.27 43.051 149.994 42.2067 148.921 41.1379C147.848 40.0689 146.998 38.7967 146.422 37.3958C145.846 35.9948 145.556 34.493 145.567 32.9783ZM162.096 32.9783C162.069 31.9947 161.752 31.0411 161.186 30.2364C160.62 29.4319 159.829 28.8119 158.912 28.4545C157.996 28.0968 156.994 28.0173 156.032 28.226C155.071 28.4347 154.192 28.922 153.506 29.6274C152.82 30.3326 152.357 31.2245 152.175 32.1916C151.993 33.1584 152.1 34.1576 152.483 35.064C152.866 35.9704 153.508 36.7437 154.328 37.2875C155.148 37.8312 156.11 38.1212 157.094 38.1212C157.768 38.1392 158.438 38.0173 159.062 37.7633C159.687 37.5093 160.252 37.1288 160.722 36.6458C161.192 36.1624 161.556 35.5871 161.793 34.9559C162.029 34.3248 162.133 33.6514 162.096 32.9783Z" fill="#1A2027" fill-opacity="0.95"/>
<path d="M171.664 16.2756C171.664 15.5013 171.894 14.7444 172.324 14.1006C172.754 13.4568 173.366 12.955 174.081 12.6587C174.796 12.3624 175.583 12.2849 176.343 12.4359C177.102 12.587 177.8 12.9599 178.347 13.5074C178.895 14.0548 179.267 14.7524 179.419 15.5118C179.57 16.2712 179.492 17.0584 179.196 17.7737C178.899 18.489 178.398 19.1005 177.754 19.5307C177.11 19.9608 176.353 20.1904 175.579 20.1904C174.544 20.1801 173.554 19.7644 172.822 19.0324C172.09 18.3004 171.674 17.3106 171.664 16.2756ZM172.323 22.1039H178.85V43.853H172.314L172.323 22.1039Z" fill="#1A2027" fill-opacity="0.95"/>
<path d="M207.022 32.9782C207.097 34.4156 206.888 35.8537 206.406 37.2099C205.923 38.566 205.178 39.8134 204.212 40.8804C203.246 41.9472 202.078 42.8128 200.776 43.427C199.474 44.041 198.064 44.3919 196.626 44.4591C195.417 44.525 194.209 44.3211 193.088 43.8622C191.967 43.4031 190.963 42.7005 190.148 41.8053V52.5502H183.623V22.1037H190.148V24.1468C190.963 23.2522 191.968 22.5501 193.089 22.0916C194.209 21.6329 195.417 21.4292 196.626 21.4951C198.064 21.5621 199.475 21.9128 200.777 22.527C202.079 23.1413 203.247 24.0068 204.213 25.0741C205.179 26.1413 205.925 27.3891 206.407 28.7457C206.889 30.1021 207.098 31.5406 207.022 32.9782ZM200.497 32.9782C200.472 31.9604 200.147 30.9727 199.563 30.1385C198.978 29.3046 198.161 28.6614 197.214 28.2897C196.266 27.9177 195.229 27.8336 194.234 28.048C193.238 28.2622 192.328 28.7653 191.617 29.4942C190.907 30.2233 190.427 31.1456 190.237 32.1463C190.048 33.1467 190.158 34.1806 190.554 35.1189C190.949 36.0572 191.613 36.8577 192.462 37.4208C193.31 37.9836 194.305 38.2839 195.324 38.2837C196.023 38.3149 196.72 38.1978 197.371 37.9403C198.022 37.6831 198.611 37.2909 199.099 36.79C199.588 36.2889 199.965 35.6905 200.206 35.0336C200.447 34.3768 200.546 33.6762 200.497 32.9782Z" fill="#1A2027" fill-opacity="0.95"/>
<path d="M227.156 37.3259C227.156 42.3282 222.809 44.4592 218.112 44.4592C216.214 44.631 214.308 44.2299 212.641 43.307C210.974 42.3843 209.622 40.9827 208.76 39.2834L214.412 36.0649C214.641 36.8503 215.132 37.5338 215.804 38.0006C216.475 38.4677 217.288 38.6902 218.103 38.6309C219.667 38.6309 220.452 38.152 220.452 37.2842C220.452 34.8896 209.751 36.1528 209.751 28.6285C209.751 23.8854 213.753 21.4952 218.277 21.4952C219.977 21.4414 221.66 21.8448 223.152 22.6631C224.643 23.4817 225.889 24.6851 226.757 26.1482L221.19 29.1492C220.946 28.5795 220.539 28.0942 220.021 27.7539C219.503 27.4136 218.896 27.2335 218.277 27.2357C217.145 27.2357 216.449 27.6751 216.449 28.4528C216.458 30.933 227.156 29.2788 227.156 37.3259Z" fill="#1A2027" fill-opacity="0.95"/>
<path d="M250.991 22.1038V43.8529H244.467V41.8076C243.713 42.71 242.758 43.4212 241.677 43.8825C240.596 44.3439 239.423 44.5422 238.25 44.4614C233.856 44.4614 230.121 41.3308 230.121 35.4542V22.1038H236.646V34.4985C236.591 35.0166 236.65 35.5403 236.819 36.0331C236.986 36.526 237.261 36.9764 237.621 37.3527C237.982 37.7291 238.419 38.0223 238.904 38.2124C239.388 38.4024 239.908 38.4846 240.429 38.4529C242.821 38.4529 244.473 37.0623 244.473 33.9735V22.1104L250.991 22.1038Z" fill="#1A2027" fill-opacity="0.95"/>
<path d="M288.403 30.4979V43.8506H281.878V31.0625C281.878 28.8876 280.834 27.497 278.747 27.497C276.573 27.497 275.353 29.0194 275.353 31.5854V43.8506H268.831V31.0625C268.831 28.8876 267.787 27.497 265.698 27.497C263.523 27.497 262.306 29.0194 262.306 31.5854V43.8506H255.781V22.1015H262.306V24.1006C262.983 23.2137 263.87 22.5103 264.887 22.0549C265.907 21.5993 267.023 21.4062 268.134 21.4929C269.25 21.4382 270.362 21.674 271.362 22.1768C272.359 22.6795 273.209 23.4326 273.831 24.3621C274.554 23.3895 275.511 22.6162 276.614 22.1144C277.717 21.6127 278.93 21.3989 280.138 21.4929C285.132 21.4951 288.403 25.0607 288.403 30.4979Z" fill="#1A2027" fill-opacity="0.95"/>
<path d="M293.922 21.9697C296.596 21.9697 298.764 19.8019 298.764 17.1278C298.764 14.4537 296.596 12.2859 293.922 12.2859C291.248 12.2859 289.08 14.4537 289.08 17.1278C289.08 19.8019 291.248 21.9697 293.922 21.9697Z" fill="#1A2027" fill-opacity="0.95"/>
</g>
<defs>
<clipPath id="clip0_590_66887">
<rect width="300" height="60.5042" fill="white"/>
</clipPath>
</defs>
</svg>
