<svg width="1000" height="1001" viewBox="0 0 1000 1001" fill="none" xmlns="http://www.w3.org/2000/svg">
<g clip-path="url(#clip0_548_24947)">
<g clip-path="url(#clip1_548_24947)">
<path style="mix-blend-mode:screen" d="M499.865 899.9C720.705 899.9 899.731 720.873 899.731 500.034C899.731 279.194 720.705 100.167 499.865 100.167C279.025 100.167 99.999 279.194 99.999 500.034C99.999 720.873 279.025 899.9 499.865 899.9Z" fill="url(#paint0_radial_548_24947)"/>
<path style="mix-blend-mode:screen" d="M499.865 814.089C673.313 814.089 813.92 673.482 813.92 500.034C813.92 326.586 673.313 185.978 499.865 185.978C326.417 185.978 185.81 326.586 185.81 500.034C185.81 673.482 326.417 814.089 499.865 814.089Z" fill="url(#paint1_radial_548_24947)"/>
<path style="mix-blend-mode:screen" d="M499.865 799.726C665.381 799.726 799.558 665.549 799.558 500.034C799.558 334.518 665.381 200.341 499.865 200.341C334.35 200.341 200.173 334.518 200.173 500.034C200.173 665.549 334.35 799.726 499.865 799.726Z" fill="url(#paint2_radial_548_24947)"/>
<path fill-rule="evenodd" clip-rule="evenodd" d="M571.257 675.07L654.974 679.863C654.974 679.863 724.28 658.98 758.85 614.96L775.108 523.305L748.245 439.461L602.276 532.812C602.276 532.812 569.156 644.8 571.25 675.07H571.257Z" fill="url(#paint3_linear_548_24947)"/>
<path fill-rule="evenodd" clip-rule="evenodd" d="M754.758 501.212C754.758 527.302 751.088 552.58 744.153 576.434C730.395 624.418 703.732 666.91 668.127 700.046C642.674 723.78 612.627 742.649 579.546 755.205C549.562 766.614 517.111 772.808 483.106 772.808C478.29 772.808 473.417 772.696 468.656 772.41H468.6C461.491 772.067 454.437 771.375 447.502 770.515C395.043 763.636 347.4 741.845 308.754 709.393C294.248 697.299 281.064 683.653 269.424 668.741C260.594 657.563 252.625 645.692 245.634 633.136C243.97 630.159 242.37 627.117 240.762 624.076C240.762 623.965 240.706 623.901 240.65 623.789C238.986 620.525 237.442 617.253 235.945 613.925H235.889C231.192 603.551 227.06 592.827 223.732 581.816C221.208 573.902 219.09 565.765 217.37 557.509C217.315 557.453 217.315 557.334 217.315 557.278C216.112 551.49 215.077 545.638 214.273 539.73C212.442 527.119 211.519 514.277 211.519 501.204C211.519 493.696 211.805 486.18 212.49 478.848C212.832 474.142 213.35 469.501 213.979 464.859C217.474 438.14 224.934 412.686 235.706 389.008C240.985 377.368 247.059 366.19 253.883 355.466C265.236 337.576 278.651 321.183 293.786 306.446C342.695 258.859 409.485 229.56 483.106 229.56C485.973 229.56 488.839 229.616 491.649 229.672C494.691 229.783 497.724 229.903 500.765 230.134C516.362 231.169 531.609 233.462 546.346 237.012C554.944 239.074 563.376 241.487 571.632 244.353C577.253 246.248 582.754 248.366 588.2 250.659C592.269 252.378 596.226 254.154 600.183 256.049C600.867 256.391 601.56 256.678 602.245 257.02C628.622 269.918 652.522 286.892 673.278 307.242C676.256 310.108 679.13 313.086 681.996 316.127C683.891 318.189 685.778 320.315 687.617 322.433C690.77 325.984 693.812 329.718 696.789 333.444C707.625 347.202 717.139 361.994 725.109 377.703C734.456 395.935 741.796 415.369 746.78 435.727C751.995 456.714 754.75 478.617 754.75 501.204L754.758 501.212Z" fill="url(#paint4_radial_548_24947)"/>
<path style="mix-blend-mode:multiply" opacity="0.71" fill-rule="evenodd" clip-rule="evenodd" d="M325.863 480.169C325.863 480.169 373.904 523.114 385.854 540.805C397.805 558.496 437.995 679.282 439.086 704.712C440.169 730.141 416.101 764.496 416.101 764.496C416.101 764.496 375.321 753.007 352.527 739.401L366.301 644.506L325.871 480.177L325.863 480.169Z" fill="url(#paint5_linear_548_24947)"/>
<path style="mix-blend-mode:multiply" opacity="0.71" fill-rule="evenodd" clip-rule="evenodd" d="M609.442 560.025L684.584 597.269C684.584 597.269 699.488 607.301 717.203 588.511C717.203 588.511 718.986 562.31 708.118 537.047L609.434 560.025H609.442Z" fill="url(#paint6_linear_548_24947)"/>
<g style="mix-blend-mode:multiply" opacity="0.3">
<path fill-rule="evenodd" clip-rule="evenodd" d="M333.706 494.405C327.567 520.527 331.469 547.939 340.911 572.827C342.949 578.201 345.139 585.104 348.475 589.945C351.102 593.758 355.553 596.051 359.167 598.798C363.952 602.436 368.299 606.584 372.997 610.31C378.323 614.538 383.737 617.126 390.17 619.419C402.391 623.766 414.668 627.014 427.558 623.192C439.007 619.793 450.153 611.529 456.785 601.688C459.874 597.11 463.449 593.05 466.713 588.615C469.93 584.244 471.944 578.735 473.942 573.727C477.899 563.798 479.157 551.243 478.457 540.622C478.122 535.55 477.517 530.391 476.275 525.463C474.977 520.312 472.621 515.535 471.633 510.288C470.017 501.698 466.18 494.07 462.74 486.021C454.197 466.061 432 454.127 411.539 451.157C401.929 449.764 392.415 451.985 382.973 453.442C372.997 454.979 365.744 459.612 356.866 463.959C351.635 466.523 346.508 469.389 342.774 473.935C333.945 484.707 332.663 499.835 333.722 494.381L333.706 494.405Z" fill="#7D72B3"/>
<path fill-rule="evenodd" clip-rule="evenodd" d="M415.655 638.988C420.265 634.84 426.539 630.111 432.478 628.025C436.547 626.592 440.344 628.144 443.664 630.517C450.36 635.302 449.078 646.44 443.784 652.093C434.118 662.403 415.942 654.171 415.99 641.003L415.663 638.98L415.655 638.988Z" fill="#7D72B3"/>
<path fill-rule="evenodd" clip-rule="evenodd" d="M509.371 552.31C506.704 548.703 504.849 547.501 504.992 543.902C505.096 541.195 508.145 536.036 509.57 533.441C513.853 525.622 520.669 520.049 529.084 517.39C535.016 515.511 540.549 514.643 546.751 514.595C552.316 514.556 556.918 516.188 562.157 517.883C571.655 520.949 582.149 526.012 589.139 533.441C595.715 540.423 594.76 553.042 588.996 560.168C584.585 565.614 578.184 568.91 572.364 572.644C565.994 576.728 559.012 581.943 551.632 583.965C546.855 585.279 543.431 585.956 538.726 584.578C534.172 583.241 530.501 581.911 526.353 579.801C522.556 577.867 519.673 577.078 516.576 574.037C513.838 571.362 511.568 568.623 509.658 565.279C506.959 560.542 507.914 554.746 509.363 552.326L509.371 552.31Z" fill="#7D72B3"/>
<path fill-rule="evenodd" clip-rule="evenodd" d="M488.688 503.091C487.589 506.618 485.184 513.728 491.554 513.337C494.452 513.162 498.775 510.71 500.312 508.919C506.673 501.514 491.482 496.514 490.137 503.091H488.688Z" fill="#7D72B3"/>
<path fill-rule="evenodd" clip-rule="evenodd" d="M583.447 680.684C580.405 674.298 579.729 671.862 581.791 665.063C584.872 654.912 589.983 643.718 595.349 634.53C598.757 628.686 602.969 620.74 609.41 617.946C614.577 615.708 620.604 614.339 626.217 613.989C638.454 613.232 647.904 619.013 656.606 627.078C661.98 632.062 666.455 636.202 669.568 643.009C672.267 648.909 673.875 656.695 673.246 663.16C671.455 681.575 655.42 694.608 643.557 707.18C634.194 717.1 618.566 729.56 603.98 724.258C593.892 720.595 587.873 709.895 583.741 700.596C581.002 694.433 582.006 687.26 583.455 680.676L583.447 680.684Z" fill="#7D72B3"/>
<path fill-rule="evenodd" clip-rule="evenodd" d="M567.524 632.484C563.957 635.39 562.77 638.948 561.903 643.526C561.266 646.846 559.904 654.227 563.153 656.926C566.011 659.298 571.266 655.294 573.551 653.821C575.517 652.547 576.95 651.209 578.463 649.402C579.251 648.463 580.302 647.643 580.764 646.488C581.504 644.641 581.234 642.061 581.146 640.103C581.042 637.667 579.657 635.692 577.969 634.076C576.536 632.699 575.326 632.356 573.383 631.942C571.281 631.496 568.678 630.621 567.531 632.484H567.524Z" fill="#7D72B3"/>
<path fill-rule="evenodd" clip-rule="evenodd" d="M464.062 751.861C463.672 752.927 463.29 753.596 463.847 754.623C464.405 755.658 466.244 757.155 466.992 757.848C469.755 760.411 472.716 761.176 476.331 761.94C479.882 762.688 483.56 763.158 487.159 762.434C489.452 761.972 492.366 761.462 493.879 759.512C496.673 755.889 494.356 750.443 492.501 746.98C491.076 744.329 489.07 741.948 487.438 739.417C485.686 736.694 483.17 734.425 480.694 732.355C477.629 729.791 472.884 726.296 468.927 729.138C465.193 731.821 463.123 736.662 462.135 740.985C461.586 743.405 461.706 746.28 462.549 748.628C463.155 750.316 464.373 751.463 464.062 751.877V751.861Z" fill="#7D72B3"/>
<path fill-rule="evenodd" clip-rule="evenodd" d="M684.425 646.488C682.275 644.689 681.463 644.585 681.694 642.133C681.941 639.53 682.148 636.998 683.127 634.538C685.245 629.195 689.664 624.785 693.891 621.043C696.328 618.893 699.25 617.587 702.291 616.56C703.875 616.027 705.173 615.39 706.829 615.621C709.632 616.011 711.511 617.755 712.378 620.406C713.748 624.586 711.694 629.227 709.425 632.643C706.527 637.014 704.258 641.958 699.664 644.832C697.538 646.162 695.309 647.467 693.055 648.582C691.694 649.259 690.181 649.967 688.613 649.776C687.522 649.641 684.115 648.757 684.425 646.48V646.488Z" fill="#7D72B3"/>
<path fill-rule="evenodd" clip-rule="evenodd" d="M241 458.195C241.566 460.599 241.677 463.091 242.457 465.432C244.042 470.233 247.505 474.349 251.064 477.829C257.831 484.445 267.473 487.16 276.509 488.999C281.199 489.954 286.254 490.758 291.047 490.814C294.956 490.862 299.089 491.698 302.966 491.395C309.479 490.886 315.673 489.039 321.262 485.726C329.542 480.822 336.325 473.195 333.594 463.115C332.106 457.598 328.451 452.877 324.462 448.952C320.107 444.668 316.596 440.218 310.896 437.606C308.404 436.46 305.856 435.305 303.3 434.294C300.235 433.068 297.329 431.388 294.049 430.823C291.326 430.353 288.523 429.302 285.777 429.175C283.086 429.047 280.188 429.039 277.497 429.254C267.712 430.059 257.608 435.775 250.825 442.741C248.142 445.504 245.849 448.593 243.166 451.324C240.698 453.84 240.992 456.873 240.992 458.195H241Z" fill="#7D72B3"/>
<path fill-rule="evenodd" clip-rule="evenodd" d="M442.223 389.884C439.516 394.128 438.513 395.075 438.114 400.035C437.613 406.333 438.051 412.28 439.611 418.435C443.17 432.479 454.181 443.8 463.576 454.381C478.998 471.746 496.37 487.558 517.572 497.51C525.916 501.427 534.753 505.885 544.291 504.627C553.543 503.409 561.942 499.938 570.756 497.136C578.502 494.675 586.822 492.382 594.864 491.284C598.637 490.766 602.403 490.265 606.193 489.843C611.694 489.238 616.344 487.032 621.599 485.488C629.194 483.258 637.1 481.905 644.624 479.485C648.103 478.37 651.367 476.977 654.608 475.297C659.87 472.566 665.507 470.95 670.738 468.068C690.101 457.391 703.317 436.022 704.352 413.761C704.878 402.416 700.738 390.545 695.029 380.911C691.797 375.442 687.704 370.529 684.13 365.275C679.504 358.483 674.018 352.385 668.087 346.7C657.084 336.159 644.688 329.36 630.189 324.885C622.228 322.433 614.863 321.366 606.448 321.398C593.637 321.438 580.58 323.197 568.017 325.737C555.445 328.277 542.715 330.96 530.366 334.447C517.349 338.117 504.244 343.667 492.015 349.383C479.396 355.283 468.393 363.109 460.32 374.55C458.504 377.122 456.402 379.598 454.675 382.193C453.313 384.239 452.573 385.84 450.574 387.32C446.944 390.019 443.576 390.617 442.223 389.868V389.884Z" fill="#7D72B3"/>
</g>
<path style="mix-blend-mode:multiply" opacity="0.71" fill-rule="evenodd" clip-rule="evenodd" d="M715.101 439.119L754.758 501.212C754.758 501.212 756.016 459.692 750.18 451.34C744.344 442.98 715.109 439.119 715.109 439.119H715.101Z" fill="url(#paint7_linear_548_24947)"/>
<path style="mix-blend-mode:multiply" opacity="0.71" fill-rule="evenodd" clip-rule="evenodd" d="M242.449 392.265C242.449 392.265 320.02 442.335 532.182 432.885L617.602 439.461C617.602 439.461 698.771 411.842 717.211 363.316C717.211 363.316 693.238 328.747 687.617 322.441C681.996 316.135 582.109 337.695 582.109 337.695L242.449 392.265Z" fill="url(#paint8_linear_548_24947)"/>
<path fill-rule="evenodd" clip-rule="evenodd" d="M253.882 339.789V324.025C253.882 324.025 296.764 268.58 367.376 207.682C367.376 207.682 550.963 191.456 603.112 207.682L623.749 254.894L684.584 277.975L687.609 322.449C687.609 322.449 647.642 385.959 574.864 408.14L538.049 399.406C538.049 399.406 497.732 416.102 391.276 416.102C284.821 416.102 242.449 392.273 242.449 392.273V355.776L253.882 339.797V339.789Z" fill="url(#paint9_linear_548_24947)"/>
<path fill-rule="evenodd" clip-rule="evenodd" d="M407.566 683.995L389.732 730.547L334.749 743.62L279.136 741.096C279.136 741.096 220.141 703.661 191.877 644.49L198.015 590.653L177.148 571.386C177.148 571.386 172.1 521.1 213.954 475.177C213.954 475.177 260.108 462.335 325.871 480.161L366.404 525.113C366.404 525.113 399.604 588.408 407.574 683.988L407.566 683.995Z" fill="url(#paint10_linear_548_24947)"/>
<path style="mix-blend-mode:multiply" opacity="0.71" fill-rule="evenodd" clip-rule="evenodd" d="M479.833 715.81C479.833 715.81 492.309 732.307 499.912 735.563C507.516 738.819 549.888 748.596 554.768 748.055C559.657 747.514 559.657 702.777 556.942 695.54C554.227 688.303 549.338 682.562 549.338 682.562L479.825 715.802L479.833 715.81Z" fill="url(#paint11_linear_548_24947)"/>
<path fill-rule="evenodd" clip-rule="evenodd" d="M786.086 378.921L783.968 396.636L753.061 454.198C735.745 454.66 717.282 440.839 715.108 439.119C715.052 439.063 714.933 439.007 714.877 438.944C702.497 418.761 698.134 374.383 698.134 374.383L712.584 356.549L736.262 352.249L742.225 355.744L763.212 349.837L779.669 360.33L784.542 363.483L786.086 378.905V378.921Z" fill="url(#paint12_linear_548_24947)"/>
<path fill-rule="evenodd" clip-rule="evenodd" d="M721.43 465.337C721.43 465.337 686.908 446.452 670.061 447.089L626.989 476.594C626.989 476.594 609.481 524.086 609.449 560.04C609.449 560.04 650.969 575.016 680.181 570.9C680.181 570.9 713.54 556.06 725.068 531.681C725.068 531.681 729.599 489.851 721.438 465.345L721.43 465.337Z" fill="url(#paint13_linear_548_24947)"/>
<path fill-rule="evenodd" clip-rule="evenodd" d="M253.882 324.017C253.882 324.017 333.697 326.637 421.698 304.058C421.698 304.058 510.781 272.8 528.161 260.842C545.541 248.883 603.12 207.674 603.12 207.674C603.12 207.674 511.871 184.927 367.383 207.674C367.383 207.674 291.397 264.44 253.89 324.017H253.882Z" fill="url(#paint14_linear_548_24947)"/>
<path fill-rule="evenodd" clip-rule="evenodd" d="M623.757 254.886C623.757 254.886 568.352 318.763 561.839 324.017C555.318 329.272 465.041 365.641 465.041 365.641L414.103 378.722C414.103 378.722 477.836 378.196 488.695 378.722L508.974 358.969L579.227 361.867C579.227 361.867 643.685 322.974 684.6 277.967L623.765 254.886H623.757Z" fill="url(#paint15_linear_548_24947)"/>
<path fill-rule="evenodd" clip-rule="evenodd" d="M242.449 355.768L298.937 361.143C298.937 361.143 336.596 362.775 358.323 355.442C358.323 355.442 282.695 351.748 253.882 339.789L242.449 355.768Z" fill="url(#paint16_linear_548_24947)"/>
<path fill-rule="evenodd" clip-rule="evenodd" d="M626.988 476.587C626.988 476.587 651.661 485.838 667.879 484.755C684.105 483.664 721.429 465.337 721.429 465.337C721.429 465.337 704.32 450.377 670.061 447.089L626.988 476.594V476.587Z" fill="url(#paint17_linear_548_24947)"/>
<path fill-rule="evenodd" clip-rule="evenodd" d="M177.124 571.41C177.124 571.41 251.7 555.112 272.178 546.88C292.655 538.648 325.839 480.193 325.839 480.193C325.839 480.193 284.869 461.181 213.938 475.185C213.938 475.185 169.743 516.307 177.116 571.418L177.124 571.41Z" fill="url(#paint18_linear_548_24947)"/>
<path fill-rule="evenodd" clip-rule="evenodd" d="M198.015 590.669C198.015 590.669 250.252 583.806 268.683 578.742C287.122 573.679 315.999 555.821 315.999 555.821C315.999 555.821 293.874 606.186 285.888 617.587C285.888 617.587 223.819 640.971 191.861 644.506C191.861 644.506 190.205 616.465 198.007 590.677L198.015 590.669Z" fill="url(#paint19_linear_548_24947)"/>
<path fill-rule="evenodd" clip-rule="evenodd" d="M477.103 703.39C477.103 703.39 489.053 677.22 503.177 671.631C503.177 671.631 536.855 671.942 549.347 682.57L541.202 732.156L494.491 728.963C494.491 728.963 477.111 720.094 477.111 703.39H477.103Z" fill="url(#paint20_linear_548_24947)"/>
<path fill-rule="evenodd" clip-rule="evenodd" d="M477.103 703.39C477.103 703.39 491.768 707.602 505.35 703.39C518.933 699.178 535.764 677.26 535.764 677.26C535.764 677.26 524.904 670.158 503.177 671.631C503.177 671.631 480.908 680.986 477.103 703.39Z" fill="url(#paint21_linear_548_24947)"/>
<path style="mix-blend-mode:multiply" opacity="0.5" fill-rule="evenodd" clip-rule="evenodd" d="M407.566 683.995L389.732 730.547L334.749 743.62L279.137 741.096C279.137 741.096 334.231 737.713 335.895 729.576C337.504 721.431 341.285 698.096 341.285 698.096C327.75 657.388 285.904 617.595 285.904 617.595C303.388 592.938 316.007 555.789 316.007 555.789L292.273 569.037L276.796 544.324C302.48 521.45 325.872 480.169 325.872 480.169L366.404 525.121C366.404 525.121 399.604 588.416 407.574 683.995H407.566Z" fill="url(#paint22_linear_548_24947)"/>
<path style="mix-blend-mode:multiply" opacity="0.5" fill-rule="evenodd" clip-rule="evenodd" d="M515.024 698.112L541.194 732.156L549.339 682.57L535.765 677.26L515.024 698.112Z" fill="url(#paint23_linear_548_24947)"/>
<path style="mix-blend-mode:multiply" opacity="0.71" fill-rule="evenodd" clip-rule="evenodd" d="M667.88 484.747C667.88 484.747 676.988 516.14 678.071 529.173C679.154 542.198 680.173 570.892 680.173 570.892C680.173 570.892 705.236 562.421 725.06 531.673C725.06 531.673 730.291 495.87 721.43 465.337C721.43 465.337 688.644 482.16 667.88 484.755V484.747Z" fill="url(#paint24_linear_548_24947)"/>
<path style="mix-blend-mode:multiply" opacity="0.5" fill-rule="evenodd" clip-rule="evenodd" d="M719.71 379.478L726.318 384.661C726.318 384.661 740.745 378.793 741.222 371.349C741.692 363.905 742.21 355.752 742.21 355.752L736.294 352.249L719.718 379.478H719.71Z" fill="url(#paint25_linear_548_24947)"/>
<path style="mix-blend-mode:multiply" opacity="0.71" fill-rule="evenodd" clip-rule="evenodd" d="M786.087 378.921L783.969 396.636L753.062 454.198C735.745 454.66 717.282 440.839 715.108 439.119C730.65 449.27 747.043 448.466 747.043 448.466C747.043 448.466 748.133 430.289 747.043 418.88C745.952 407.471 737.751 384.653 737.751 384.653L779.661 360.346L784.534 363.499L786.079 378.921H786.087Z" fill="url(#paint26_linear_548_24947)"/>
<path fill-rule="evenodd" clip-rule="evenodd" d="M736.286 352.257L719.71 379.486C719.71 379.486 709.75 382.106 698.134 374.415L712.576 356.565L736.286 352.257Z" fill="url(#paint27_linear_548_24947)"/>
<path fill-rule="evenodd" clip-rule="evenodd" d="M742.202 355.752L741.214 371.349C741.214 371.349 732.735 382.368 721.533 387.145C721.533 387.145 743.038 384.805 752.982 380.45C752.982 380.45 778.825 370.131 784.558 363.475L763.22 349.829L742.202 355.752Z" fill="url(#paint28_linear_548_24947)"/>
<path style="mix-blend-mode:multiply" opacity="0.5" fill-rule="evenodd" clip-rule="evenodd" d="M428.497 300.817L483.13 358.292L561.831 324.025C561.831 324.025 619.41 260.889 623.749 254.894L603.112 207.682C603.112 207.682 546.624 246.734 528.153 260.85C509.682 274.966 428.497 300.817 428.497 300.817Z" fill="url(#paint29_linear_548_24947)"/>
<path style="mix-blend-mode:multiply" opacity="0.5" fill-rule="evenodd" clip-rule="evenodd" d="M508.965 358.969L538.057 399.398C538.057 399.398 515.884 406.858 492.317 409.725L488.687 378.714L508.965 358.961V358.969Z" fill="url(#paint30_linear_548_24947)"/>
<path style="mix-blend-mode:multiply" opacity="0.5" fill-rule="evenodd" clip-rule="evenodd" d="M579.219 361.867L574.872 408.132C574.872 408.132 651.177 380.792 687.617 322.441L684.592 277.967C684.592 277.967 626.416 332.727 579.219 361.867Z" fill="url(#paint31_linear_548_24947)"/>
<path style="mix-blend-mode:multiply" opacity="0.2" fill-rule="evenodd" clip-rule="evenodd" d="M263.364 357.759L316.007 413.132H342.169L346.93 358.292C346.93 358.292 287.894 363.786 263.364 357.759Z" fill="url(#paint32_linear_548_24947)"/>
<g style="mix-blend-mode:soft-light">
<path fill-rule="evenodd" clip-rule="evenodd" d="M275.044 306.104C273.946 303.078 274.686 301.979 276.342 299.185C278.954 294.79 282.552 291.096 285.713 287.115C291.867 279.368 298.436 272.155 306.732 266.582C315.299 260.826 323.698 254.584 332.75 249.608C338.937 246.208 345.187 242.721 351.835 240.301C356.516 238.597 361.365 237.243 366.134 235.802C375.465 232.968 388.187 231.726 397.2 236.503C402.694 239.417 404.835 244.807 406.889 250.364C407.901 253.103 408.784 255.46 408.243 258.445C407.773 261.049 406.459 263.748 405.305 266.088C401.531 273.779 394.533 280.833 387.98 286.215C374.605 297.194 359.43 305.116 343.101 310.658C338.73 312.146 334.351 313.795 329.852 314.861C326.938 315.554 323.945 315.873 321.039 316.597C314.295 318.269 307.409 319.782 300.474 320.538C298.579 320.745 296.437 321.406 294.566 321.398C292.863 321.39 291.207 320.331 289.527 320.036C286.724 319.551 282.743 319.662 280.243 318.277C273.572 314.607 272.783 307.354 275.044 306.112V306.104Z" fill="#FFA989"/>
<path fill-rule="evenodd" clip-rule="evenodd" d="M386.572 298.134C387.177 295.315 387.009 295.196 388.785 293.596C389.788 292.147 390.935 290.817 392.232 289.615C393.864 288.206 395.64 286.988 397.543 285.976C403.028 282.927 409.724 279.52 416.149 281.414C420.472 282.688 422.916 284.774 421.913 289.503C421.348 292.171 419.127 294.862 417.041 296.51C413.299 299.471 409.031 301.239 404.66 303.086C401.348 304.479 396.5 305.315 392.893 304.519C389.605 303.795 386.11 300.22 386.572 298.142V298.134Z" fill="#FFA989"/>
<path fill-rule="evenodd" clip-rule="evenodd" d="M481.442 219.919C476.442 221.479 473.783 222.466 469.627 225.301C463.441 229.513 456.809 233.74 451.156 238.645C447.597 241.734 444.07 245.523 441.65 249.6C439.731 252.832 439.11 256.662 438.823 260.372C438.529 264.186 439.739 271.009 443.879 272.72C445.471 273.373 448.337 272.792 449.914 272.808C453.648 272.84 456.649 272.219 460.264 271.327C463.767 270.459 467.302 270.228 470.781 269.193C474.316 268.15 477.851 267.171 481.426 266.279C489.141 264.361 496.625 262.514 503.838 259.074C510.661 255.826 517.731 253.127 524.427 249.608C529.26 247.06 533.973 244.465 538.949 242.219C545.828 239.106 552.715 236.065 559.331 232.442C562.157 230.898 564.036 229.099 566.265 226.829C568.439 224.616 571.019 222.745 572.643 220.046C573.367 218.844 575.063 216.567 575.007 215.062C574.944 213.151 572.197 210.795 570.772 209.903C568.288 208.35 564.777 207.379 561.902 207.029C557.715 206.511 552.89 206.002 548.694 206.264C543.535 206.599 537.914 207.363 532.826 208.327C529.443 208.963 526.441 209.799 522.97 209.847C516.736 209.943 510.82 210.389 504.626 211.392C501.115 211.957 497.724 213.175 494.308 214.147C491.203 215.03 487.899 215.675 484.969 217.061C483.512 217.753 478.162 218.939 481.45 219.943L481.442 219.919Z" fill="#FFA989"/>
<path fill-rule="evenodd" clip-rule="evenodd" d="M466.96 209.784C463.64 211.344 458.703 213.064 456.681 216.535C455.36 218.804 457.199 219.25 459.213 219.266C462.764 219.29 466.41 217.594 469.818 216.662C472.445 215.946 475.232 214.608 477.429 213.016C478.472 212.26 480.566 211.495 479.866 209.927C479.452 209.003 477.294 208.032 476.394 207.753C472.995 206.726 468.815 207.507 466.235 209.784H466.96Z" fill="#FFA989"/>
<path fill-rule="evenodd" clip-rule="evenodd" d="M585.732 314.798C582.714 315.777 579.713 316.302 576.759 317.218C573.757 318.142 571.019 320.037 568.471 321.836C564.084 324.949 559.331 328.93 556.68 333.683C554.458 337.664 552.062 344.885 556.727 348.149C563.144 352.632 573.16 348.077 579.569 345.952C589.625 342.616 600.692 338.738 609.219 332.21C612.825 329.447 616.336 326.079 619.64 322.95C622.387 320.347 625.301 317.123 627.602 314.121C629.298 311.9 629.553 308.834 629.25 306.12C628.963 303.524 626.4 301.414 624.019 300.475C619.266 298.596 615.222 300.841 610.548 301.597C605.676 302.386 599.999 303.811 595.644 306.279C589.012 310.037 582.006 313.253 585.732 314.814V314.798Z" fill="#FFA989"/>
<path fill-rule="evenodd" clip-rule="evenodd" d="M602.388 287.999C601.576 286.916 601.082 285.73 600.907 284.424C602.372 284.042 603.2 282.354 604.203 281.422C605.071 280.61 606.13 280.069 607.181 279.551C608.916 278.7 612.053 277.219 614.012 277.967C617.754 279.4 618.661 283.047 616.727 286.566C614.8 290.085 611.161 292.41 607.26 292.911C604.378 293.285 598.152 289.209 601.663 285.817L602.388 287.991V287.999Z" fill="#FFA989"/>
<path fill-rule="evenodd" clip-rule="evenodd" d="M645.118 277.856C642.634 278.325 639.226 278.349 636.917 279.504C636.424 279.751 635.779 280.531 635.269 280.873C632.777 282.553 629.943 283.907 627.682 285.881C625.222 288.031 622.483 291.932 623.773 295.316C628.239 307.051 644.576 300.507 652.028 296.359C654.536 294.965 656.176 292.943 658.461 291.287C660.173 290.045 661.582 289.113 662.832 287.33C664.664 284.727 665.038 282.975 663.764 279.989C662.816 277.768 660.5 276.375 658.167 275.841C656.192 275.388 653.995 274.83 651.973 274.918C647.005 275.133 642.753 278.365 638.597 280.754L645.118 277.856Z" fill="#FFA989"/>
<path fill-rule="evenodd" clip-rule="evenodd" d="M217.832 488.609C206.582 493.887 196.606 502.454 190.276 513.242C187.442 518.075 185.133 522.995 183.214 528.266C182.219 530.996 181.805 533.886 180.738 536.593C179.815 538.95 178.828 541.163 178.39 543.687C177.379 549.436 174.672 561.123 183.907 561.88C188.047 562.222 192.888 561.211 196.924 560.375C204.886 558.727 213.182 555.51 220.531 552.055C228.699 548.209 236.964 543.902 244.002 538.249C250.642 532.915 258.07 528.568 264.089 522.469C271.278 515.192 281.66 503.258 273.555 492.892C265.896 483.099 249.36 485.336 238.643 486.626C233.58 487.231 227.935 487.287 223.007 488.776C221.868 489.118 220.459 489.667 219.44 490.241C218.684 490.663 218.031 491.507 217.84 488.616L217.832 488.609Z" fill="#FFA989"/>
<path fill-rule="evenodd" clip-rule="evenodd" d="M257.663 537.135C258.404 534.643 258.651 533.536 260.434 531.816C262.297 530.025 263.977 528.067 265.776 526.219C268.587 523.321 274.558 519.946 278.698 519.707C280.577 519.595 283.125 519.651 284.51 521.172C285.951 522.756 285.267 525.893 284.526 527.668C283.77 529.468 282.934 530.766 281.453 532.063C279.773 533.536 277.791 535.63 275.824 536.681C273.26 538.05 270.052 539.038 267.241 539.866C264.948 540.542 261.405 541.721 259.24 539.882C257.966 538.799 256.74 536.243 257.663 537.135Z" fill="#FFA989"/>
<path fill-rule="evenodd" clip-rule="evenodd" d="M226.518 596.521C224.106 597.07 220.603 597.373 218.429 598.885C216.534 600.199 214.99 602.206 213.612 604.013C210.77 607.755 208.318 611.783 205.483 615.541C203.159 618.614 200.977 622.038 199.026 625.366C197.697 627.635 196.956 629.761 198.238 632.213C201.431 638.343 211.335 636.855 216.662 635.581C222.402 634.203 227.545 631.425 232.919 629.068C237.752 626.95 242.792 625.127 247.441 622.611C255.443 618.288 265.196 613.885 269.519 605.366C271.207 602.046 271.852 599.355 270.395 595.852C269.041 592.596 266.597 590.175 263.492 588.48C260.26 586.712 256.741 587.11 253.198 587.086C248.253 587.054 242.792 587.803 238.023 589.236C234.981 590.152 231.813 591.64 228.875 592.843C224.345 594.706 222.02 598.4 226.526 596.513L226.518 596.521Z" fill="#FFA989"/>
<path fill-rule="evenodd" clip-rule="evenodd" d="M198.278 601.584C198.103 600.366 198.143 599.156 198.39 597.962C200.523 597.309 201.447 594.936 204.106 595.757C206.057 596.354 206.367 598.599 205.89 600.135C204.918 603.209 197.41 609.578 197.554 603.033L198.278 601.584Z" fill="#FFA989"/>
<path fill-rule="evenodd" clip-rule="evenodd" d="M672.641 456.746C669.027 456.897 665.42 457.176 661.822 457.582C660.866 458.362 659.823 459.023 658.709 459.556C654.982 461.523 651.599 462.932 648.366 465.727C645.755 467.98 639.601 471.945 639.967 476.133C640.301 479.978 645.882 480.719 648.836 480.734C651.862 480.75 654.927 480.074 657.96 479.914C662.164 479.699 666.312 479.166 670.5 478.664C675.842 478.02 681.543 477.024 686.264 474.325C689.074 472.717 691.001 471.005 693.007 468.466C693.931 467.295 695.348 466.125 695.054 464.493C694.862 463.418 692.872 461.244 692.092 460.52C690.937 459.461 689.313 458.792 687.888 458.155C680.985 455.074 673.095 457.494 672.649 456.738L672.641 456.746Z" fill="#FFA989"/>
<path fill-rule="evenodd" clip-rule="evenodd" d="M495.207 688.494C492.285 689.784 490.47 690.078 489.164 692.793C488.687 693.796 487.118 695.938 487.158 697.268C487.214 699.075 489.045 698.995 490.574 698.581C492.548 698.048 494.523 696.257 496.202 695.174C497.588 694.282 498.543 693.366 499.594 692.1C500.215 691.352 500.756 690.97 500.963 689.943C501.147 689.011 500.661 688.183 501.6 687.586C500.995 683.39 493.073 689.163 491.585 689.226L495.207 688.502V688.494Z" fill="#FFA989"/>
<path fill-rule="evenodd" clip-rule="evenodd" d="M515.486 680.524C510.98 682.523 507.946 684.075 505.637 688.542C504.913 689.951 504.22 691.416 504.953 692.841C507.301 697.403 512.325 693.342 514.921 691.384C516.712 690.038 518.663 689.091 520.199 687.427C520.9 686.679 521.362 685.811 521.999 685.023C522.572 684.314 523.694 683.55 524.061 682.69C524.785 680.994 523.615 679.712 522.046 679.218C519.069 678.287 516.816 680.246 514.037 680.516H515.486V680.524Z" fill="#FFA989"/>
<path fill-rule="evenodd" clip-rule="evenodd" d="M278.667 581.306C277.329 584.188 272.504 595.048 278.906 594.984C284.495 594.928 293.611 588.902 293.913 582.755C294.112 578.647 290.824 576.649 286.995 576.211C282.13 575.653 279.296 579.523 277.218 583.48L278.667 581.306Z" fill="#FFA989"/>
<path fill-rule="evenodd" clip-rule="evenodd" d="M295.323 487.884C294.073 489.596 292.305 491.053 294.073 492.804C294.941 493.664 295.848 494.206 297.106 494.381C299.558 494.723 303.189 492.518 303.308 490.058C303.396 488.21 302.512 486.714 301.119 485.695C299.137 484.254 297.775 485.161 296.055 486.435L295.331 487.884H295.323Z" fill="#FFA989"/>
</g>
<path fill-rule="evenodd" clip-rule="evenodd" d="M362.312 316.804C362.312 316.804 394.668 306.844 401.809 304.034C408.943 301.223 445.041 295.355 445.041 295.355C445.041 295.355 476.02 282.051 484.714 277.959C493.408 273.867 515.494 263.007 515.494 263.007L541.218 251.216C541.218 251.216 523.822 269.066 508.615 274.91C493.408 280.754 454.659 296.319 454.659 296.319C454.659 296.319 443.075 299.543 426.777 304.814C410.48 310.076 362.319 316.796 362.319 316.796L362.312 316.804Z" fill="#FFBD4A"/>
<path fill-rule="evenodd" clip-rule="evenodd" d="M563.733 361.302L578.598 368.459C578.598 368.459 593.964 359.319 596.368 350.546C596.368 350.546 567.268 358.555 563.741 361.302H563.733Z" fill="#FFAB4A"/>
<path fill-rule="evenodd" clip-rule="evenodd" d="M481.721 378.722L489.189 383.037L494.587 372.974L481.721 378.722Z" fill="#FFAB4A"/>
<path style="mix-blend-mode:multiply" opacity="0.71" fill-rule="evenodd" clip-rule="evenodd" d="M362.312 475.48C362.312 475.48 379.875 493.027 418.441 504.85C418.441 504.85 421.156 502.024 424.412 485.448C427.669 468.872 424.412 463.068 424.412 463.068C424.412 463.068 377.064 469.047 362.312 475.48Z" fill="url(#paint33_linear_548_24947)"/>
<path style="mix-blend-mode:multiply" opacity="0.71" fill-rule="evenodd" clip-rule="evenodd" d="M388.227 527.915C388.227 527.915 388.744 533.775 390.918 537.804C393.091 541.832 417.438 547.907 420.662 546.553C426.634 544.046 419.882 529.516 417.35 525.168C414.818 520.821 410.678 516.538 410.678 516.538L388.235 527.907L388.227 527.915Z" fill="url(#paint34_linear_548_24947)"/>
<path fill-rule="evenodd" clip-rule="evenodd" d="M237.027 634.02C237.027 634.02 269.973 619.307 280.291 611.895C290.609 604.482 306.111 577.747 306.111 577.747L289.526 618.965L278.484 623.129L266.716 625.66L237.027 634.012V634.02Z" fill="#FFAB4A"/>
<path fill-rule="evenodd" clip-rule="evenodd" d="M257.337 551.752L285.346 535.964C285.346 535.964 282.711 544.961 278.69 547.382C274.67 549.802 257.329 551.752 257.329 551.752H257.337Z" fill="#FFAB4A"/>
<path fill-rule="evenodd" clip-rule="evenodd" d="M658.143 484.405L670.563 494.413C670.563 494.413 673.612 486.22 674.209 483.609C674.814 480.997 658.143 484.397 658.143 484.397V484.405Z" fill="#FF864A"/>
<path fill-rule="evenodd" clip-rule="evenodd" d="M729.24 386.118L747.059 380.378L762.671 376.294C762.671 376.294 745.235 385.513 742.202 387.145C739.177 388.777 729.232 386.118 729.232 386.118H729.24Z" fill="#FFAB4A"/>
<path fill-rule="evenodd" clip-rule="evenodd" d="M715.101 379.908L721.542 374.908V380.911L715.101 379.908Z" fill="#FFAB4A"/>
<path fill-rule="evenodd" clip-rule="evenodd" d="M500.542 704.537L521.839 692.435L519.3 703.677L500.542 704.537Z" fill="#FF864A"/>
<path fill-rule="evenodd" clip-rule="evenodd" d="M261.827 357.759C261.827 357.759 278.069 356.437 287.599 356.437C297.129 356.437 315.958 358.292 315.958 358.292L334.207 360.084C334.207 360.084 323.745 360.936 301.659 361.302C279.574 361.668 261.827 357.759 261.827 357.759Z" fill="#FFB14A"/>
<path fill-rule="evenodd" clip-rule="evenodd" d="M353.259 460.297C353.259 460.297 369.915 441.778 377.16 439.119C384.405 436.46 418.385 451.985 424.364 454.182C430.344 456.38 412.852 490.806 408.401 494.413C403.951 498.019 353.983 479.771 353.259 460.289V460.297Z" fill="url(#paint35_linear_548_24947)"/>
<path fill-rule="evenodd" clip-rule="evenodd" d="M415.647 537.796C414.103 542.214 398.904 539.913 393.458 537.796L393.06 537.565L391.913 536.761C391.802 536.705 391.683 536.586 391.627 536.474C387.726 532.461 386.81 521.506 389.445 515.718C389.445 515.718 402.694 511.65 407.566 513.369C410.719 514.46 413.872 522.597 415.249 529.364V529.42C415.934 533.035 416.165 536.299 415.647 537.788V537.796Z" fill="url(#paint36_linear_548_24947)"/>
<path style="mix-blend-mode:multiply" opacity="0.5" fill-rule="evenodd" clip-rule="evenodd" d="M395.774 470.711L408.402 494.421C408.402 494.421 424.572 476.817 425.583 456.555L395.782 470.719L395.774 470.711Z" fill="url(#paint37_linear_548_24947)"/>
<path fill-rule="evenodd" clip-rule="evenodd" d="M232.418 396.564L201.813 403.984C201.813 403.984 196.821 421.683 197.546 429.071L216.51 449.159C216.51 449.159 222.386 413.148 232.418 396.564Z" fill="url(#paint38_linear_548_24947)"/>
<path fill-rule="evenodd" clip-rule="evenodd" d="M353.259 460.297C353.259 460.297 368.203 467.661 386.531 470.711C404.858 473.76 425.574 456.547 425.574 456.547C425.574 456.547 405.941 438.999 377.701 435.743C377.701 435.743 359.23 446.284 353.259 460.297Z" fill="url(#paint39_linear_548_24947)"/>
<path style="mix-blend-mode:multiply" opacity="0.5" fill-rule="evenodd" clip-rule="evenodd" d="M415.647 537.796C414.103 542.214 398.904 539.913 393.458 537.796L393.06 537.565L391.914 536.761L391.571 536.53L391.627 536.474L395.751 530.742L412.725 526.617L415.249 529.372V529.428C415.934 533.043 416.165 536.307 415.647 537.796Z" fill="url(#paint40_linear_548_24947)"/>
<path fill-rule="evenodd" clip-rule="evenodd" d="M389.429 515.694C389.429 515.694 389.11 527.836 394.269 530.264C399.428 532.692 411.188 527.804 412.74 526.633C414.293 525.463 409.15 514.372 404.699 512.939C400.249 511.506 389.437 515.686 389.437 515.686L389.429 515.694Z" fill="url(#paint41_linear_548_24947)"/>
<path style="mix-blend-mode:multiply" opacity="0.71" fill-rule="evenodd" clip-rule="evenodd" d="M653.19 677.467C653.19 677.467 647.402 676.4 642.944 677.411C638.477 678.43 631.248 701.758 631.248 705.261C631.248 719.027 647.251 715.126 652.116 713.844C656.98 712.562 658.15 702.14 658.15 702.14L653.19 677.475V677.467Z" fill="url(#paint42_linear_548_24947)"/>
<path fill-rule="evenodd" clip-rule="evenodd" d="M636.352 701.248C632.515 698.573 638.781 684.553 642.284 679.863L642.61 679.537L643.693 678.645C643.78 678.55 643.924 678.47 644.043 678.446C648.956 675.763 659.751 677.801 664.624 681.894C664.624 681.894 665.006 695.747 662.044 699.982C660.15 702.729 651.463 703.589 644.577 703.111L644.521 703.095C640.858 702.793 637.642 702.14 636.344 701.248H636.352Z" fill="url(#paint43_linear_548_24947)"/>
<path style="mix-blend-mode:multiply" opacity="0.5" fill-rule="evenodd" clip-rule="evenodd" d="M636.352 701.248C632.515 698.573 638.781 684.553 642.284 679.863L642.61 679.537L643.693 678.645L644.003 678.375L644.043 678.446L648.462 683.956L647.905 701.416L644.577 703.111L644.521 703.095C640.858 702.793 637.642 702.14 636.344 701.248H636.352Z" fill="url(#paint44_linear_548_24947)"/>
<path fill-rule="evenodd" clip-rule="evenodd" d="M664.656 681.894C664.656 681.894 653.039 678.343 649.321 682.666C645.595 686.989 647.172 699.624 647.88 701.432C648.597 703.239 660.651 701.24 663.222 697.339C665.794 693.438 664.656 681.894 664.656 681.894Z" fill="url(#paint45_linear_548_24947)"/>
<path fill-rule="evenodd" clip-rule="evenodd" d="M292.257 656.743L320.632 658.733L364.517 656.743L378.696 661.703L363.49 659.521L334.207 673.287L332.081 677.26L316.006 672.921L292.257 656.743Z" fill="url(#paint46_linear_548_24947)"/>
<path fill-rule="evenodd" clip-rule="evenodd" d="M292.257 656.743L316.006 671.432L324.47 670.118L337.232 669.028L363.49 659.521L334.207 673.287L332.081 677.26L313.881 673.916L292.257 656.743Z" fill="url(#paint47_linear_548_24947)"/>
<path fill-rule="evenodd" clip-rule="evenodd" d="M346.93 318.285L370.011 331.971L395.774 329.957L426.769 304.822L386.849 301.964L362.312 308.277L346.93 318.285Z" fill="url(#paint48_linear_548_24947)"/>
<path fill-rule="evenodd" clip-rule="evenodd" d="M346.93 318.285H354.613L368.737 321.414H383.944L400.512 314.885L418.688 304.822H426.761C426.761 304.822 410.313 321.669 395.767 329.957L369.995 331.979L346.922 318.293L346.93 318.285Z" fill="url(#paint49_linear_548_24947)"/>
<path fill-rule="evenodd" clip-rule="evenodd" d="M204.026 642.539L214.95 632.292L226.868 634.02C226.868 634.02 228.389 641.6 226.868 647.571C225.348 653.542 214.95 649.816 214.95 649.816L204.026 642.539Z" fill="url(#paint50_linear_548_24947)"/>
<path fill-rule="evenodd" clip-rule="evenodd" d="M204.026 642.539C204.026 642.539 215.029 646.13 216.837 646.13C218.644 646.13 222.991 645.955 224.806 644.506C226.614 643.057 226.868 634.028 226.868 634.028C226.868 634.028 228.389 642.515 226.868 647.579C226.868 647.579 226.614 651.926 218.923 651.655L213.851 650.119L204.026 642.547V642.539Z" fill="url(#paint51_linear_548_24947)"/>
<path fill-rule="evenodd" clip-rule="evenodd" d="M686.366 480.169C686.366 480.169 689.209 473.808 693.006 471.069C696.812 468.33 707.942 468.641 707.942 468.641L709.336 471.069C709.336 471.069 705.498 480.902 702.505 482.629C699.519 484.357 693.269 482.629 693.269 482.629L686.358 480.169H686.366Z" fill="url(#paint52_linear_548_24947)"/>
<path fill-rule="evenodd" clip-rule="evenodd" d="M707.951 468.641C707.951 468.641 704.01 475.257 701.295 477.024C698.58 478.792 695.085 480.145 695.085 480.145C695.085 480.145 690.722 480.878 686.367 480.169C686.367 480.169 692.784 483.25 697.856 483.394C697.856 483.394 703.564 483.481 704.4 482.629C705.236 481.777 709.345 471.069 709.345 471.069L707.951 468.641Z" fill="url(#paint53_linear_548_24947)"/>
</g>
<path style="mix-blend-mode:screen" opacity="0.45" fill-rule="evenodd" clip-rule="evenodd" d="M500 0C223.922 0 0 223.769 0 500C0 776.232 223.922 1000 500 1000C776.078 1000 1000 776.079 1000 500C1000 223.922 776.231 0 500 0ZM500 980.576C234.628 980.576 19.4249 765.372 19.4249 500C19.4249 234.629 234.628 19.4249 500 19.4249C765.372 19.4249 980.575 234.629 980.575 500C980.575 765.372 765.372 980.576 500 980.576Z" fill="url(#paint54_linear_548_24947)"/>
</g>
<defs>
<radialGradient id="paint0_radial_548_24947" cx="0" cy="0" r="1" gradientUnits="userSpaceOnUse" gradientTransform="translate(499.865 500.034) scale(399.866)">
<stop stop-color="#FF4000"/>
<stop offset="1"/>
</radialGradient>
<radialGradient id="paint1_radial_548_24947" cx="0" cy="0" r="1" gradientUnits="userSpaceOnUse" gradientTransform="translate(499.865 500.034) scale(314.055)">
<stop stop-color="#FF7300"/>
<stop offset="1"/>
</radialGradient>
<radialGradient id="paint2_radial_548_24947" cx="0" cy="0" r="1" gradientUnits="userSpaceOnUse" gradientTransform="translate(499.865 500.034) scale(299.693)">
<stop stop-color="#FF7900"/>
<stop offset="0.18" stop-color="#FC7700"/>
<stop offset="0.32" stop-color="#F27300"/>
<stop offset="0.43" stop-color="#E26B00"/>
<stop offset="0.54" stop-color="#CC6100"/>
<stop offset="0.64" stop-color="#AF5300"/>
<stop offset="0.74" stop-color="#8B4200"/>
<stop offset="0.83" stop-color="#612E00"/>
<stop offset="0.92" stop-color="#311700"/>
<stop offset="1"/>
</radialGradient>
<linearGradient id="paint3_linear_548_24947" x1="694.871" y1="667.15" x2="633.718" y2="476.222" gradientUnits="userSpaceOnUse">
<stop stop-color="#5B006F"/>
<stop offset="0.02" stop-color="#5C0270"/>
<stop offset="0.23" stop-color="#691A7B"/>
<stop offset="0.46" stop-color="#732B84"/>
<stop offset="0.7" stop-color="#793589"/>
<stop offset="0.99" stop-color="#7B398B"/>
</linearGradient>
<radialGradient id="paint4_radial_548_24947" cx="0" cy="0" r="1" gradientUnits="userSpaceOnUse" gradientTransform="translate(343.881 391.54) scale(436.322 436.322)">
<stop stop-color="#9D4863"/>
<stop offset="0.24" stop-color="#994562"/>
<stop offset="0.42" stop-color="#903C61"/>
<stop offset="0.58" stop-color="#7F2D5E"/>
<stop offset="0.73" stop-color="#68195B"/>
<stop offset="0.87" stop-color="#4C0057"/>
<stop offset="0.98" stop-color="#4C0086"/>
</radialGradient>
<linearGradient id="paint5_linear_548_24947" x1="325.863" y1="622.332" x2="439.118" y2="622.332" gradientUnits="userSpaceOnUse">
<stop stop-color="#CA528D"/>
<stop offset="1" stop-color="#8E7090"/>
</linearGradient>
<linearGradient id="paint6_linear_548_24947" x1="609.442" y1="568.496" x2="717.322" y2="568.496" gradientUnits="userSpaceOnUse">
<stop stop-color="#CA528D"/>
<stop offset="1" stop-color="#8E7090"/>
</linearGradient>
<linearGradient id="paint7_linear_548_24947" x1="715.101" y1="470.169" x2="754.869" y2="470.169" gradientUnits="userSpaceOnUse">
<stop stop-color="#CA528D"/>
<stop offset="1" stop-color="#8E7090"/>
</linearGradient>
<linearGradient id="paint8_linear_548_24947" x1="242.449" y1="380.378" x2="717.211" y2="380.378" gradientUnits="userSpaceOnUse">
<stop stop-color="#CA528D"/>
<stop offset="1" stop-color="#8E7090"/>
</linearGradient>
<linearGradient id="paint9_linear_548_24947" x1="242.449" y1="308.277" x2="687.617" y2="308.277" gradientUnits="userSpaceOnUse">
<stop stop-color="#DE6863"/>
<stop offset="0.25" stop-color="#DB6462"/>
<stop offset="0.43" stop-color="#D35B61"/>
<stop offset="0.6" stop-color="#C54A5F"/>
<stop offset="0.76" stop-color="#B1335C"/>
<stop offset="0.91" stop-color="#981559"/>
<stop offset="1" stop-color="#860057"/>
</linearGradient>
<linearGradient id="paint10_linear_548_24947" x1="292.257" y1="743.62" x2="292.257" y2="470.711" gradientUnits="userSpaceOnUse">
<stop stop-color="#860057"/>
<stop offset="0.03" stop-color="#8C0656"/>
<stop offset="0.19" stop-color="#A92455"/>
<stop offset="0.36" stop-color="#C03B54"/>
<stop offset="0.54" stop-color="#D14C54"/>
<stop offset="0.74" stop-color="#DA5554"/>
<stop offset="0.99" stop-color="#DE5954"/>
</linearGradient>
<linearGradient id="paint11_linear_548_24947" x1="479.833" y1="715.325" x2="558.773" y2="715.325" gradientUnits="userSpaceOnUse">
<stop stop-color="#CA528D"/>
<stop offset="1" stop-color="#8E7090"/>
</linearGradient>
<linearGradient id="paint12_linear_548_24947" x1="742.106" y1="454.206" x2="742.106" y2="349.853" gradientUnits="userSpaceOnUse">
<stop stop-color="#860057"/>
<stop offset="0.03" stop-color="#880456"/>
<stop offset="0.23" stop-color="#951B55"/>
<stop offset="0.45" stop-color="#9D2C54"/>
<stop offset="0.69" stop-color="#A33554"/>
<stop offset="0.99" stop-color="#A53954"/>
</linearGradient>
<linearGradient id="paint13_linear_548_24947" x1="667.88" y1="571.609" x2="667.88" y2="447.065" gradientUnits="userSpaceOnUse">
<stop stop-color="#860057"/>
<stop offset="0.03" stop-color="#880456"/>
<stop offset="0.23" stop-color="#951B55"/>
<stop offset="0.45" stop-color="#9D2C54"/>
<stop offset="0.69" stop-color="#A33554"/>
<stop offset="0.99" stop-color="#A53954"/>
</linearGradient>
<linearGradient id="paint14_linear_548_24947" x1="428.497" y1="324.113" x2="428.497" y2="197.57" gradientUnits="userSpaceOnUse">
<stop stop-color="#F49F57"/>
<stop offset="0.1" stop-color="#F69656"/>
<stop offset="0.35" stop-color="#FB8555"/>
<stop offset="0.63" stop-color="#FE7C54"/>
<stop offset="0.99" stop-color="#FF7954"/>
</linearGradient>
<linearGradient id="paint15_linear_548_24947" x1="549.339" y1="378.722" x2="549.339" y2="254.886" gradientUnits="userSpaceOnUse">
<stop stop-color="#F47D57"/>
<stop offset="0.4" stop-color="#FB7A54"/>
<stop offset="0.99" stop-color="#FF7954"/>
</linearGradient>
<linearGradient id="paint16_linear_548_24947" x1="242.449" y1="350.546" x2="358.331" y2="350.546" gradientUnits="userSpaceOnUse">
<stop stop-color="#F49F57"/>
<stop offset="0.1" stop-color="#F69656"/>
<stop offset="0.35" stop-color="#FB8555"/>
<stop offset="0.63" stop-color="#FE7C54"/>
<stop offset="0.99" stop-color="#FF7954"/>
</linearGradient>
<linearGradient id="paint17_linear_548_24947" x1="626.988" y1="465.958" x2="721.429" y2="465.958" gradientUnits="userSpaceOnUse">
<stop stop-color="#C75357"/>
<stop offset="0.13" stop-color="#D25856"/>
<stop offset="0.37" stop-color="#E35F54"/>
<stop offset="0.65" stop-color="#EC6354"/>
<stop offset="0.99" stop-color="#F06554"/>
</linearGradient>
<linearGradient id="paint18_linear_548_24947" x1="176.296" y1="520.726" x2="325.839" y2="520.726" gradientUnits="userSpaceOnUse">
<stop stop-color="#F49F57"/>
<stop offset="0.1" stop-color="#F69656"/>
<stop offset="0.35" stop-color="#FB8555"/>
<stop offset="0.63" stop-color="#FE7C54"/>
<stop offset="0.99" stop-color="#FF7954"/>
</linearGradient>
<linearGradient id="paint19_linear_548_24947" x1="191.726" y1="600.159" x2="316.007" y2="600.159" gradientUnits="userSpaceOnUse">
<stop stop-color="#F49F57"/>
<stop offset="0.1" stop-color="#F69656"/>
<stop offset="0.35" stop-color="#FB8555"/>
<stop offset="0.63" stop-color="#FE7C54"/>
<stop offset="0.99" stop-color="#FF7954"/>
</linearGradient>
<linearGradient id="paint20_linear_548_24947" x1="513.225" y1="732.156" x2="513.225" y2="671.631" gradientUnits="userSpaceOnUse">
<stop stop-color="#860057"/>
<stop offset="0.03" stop-color="#880456"/>
<stop offset="0.23" stop-color="#951B55"/>
<stop offset="0.45" stop-color="#9D2C54"/>
<stop offset="0.69" stop-color="#A33554"/>
<stop offset="0.99" stop-color="#A53954"/>
</linearGradient>
<linearGradient id="paint21_linear_548_24947" x1="477.103" y1="688.351" x2="535.764" y2="688.351" gradientUnits="userSpaceOnUse">
<stop stop-color="#C75357"/>
<stop offset="0.26" stop-color="#D15048"/>
<stop offset="0.58" stop-color="#D84F3F"/>
<stop offset="0.99" stop-color="#DB4F3C"/>
</linearGradient>
<linearGradient id="paint22_linear_548_24947" x1="276.78" y1="611.895" x2="407.566" y2="611.895" gradientUnits="userSpaceOnUse">
<stop stop-color="#CA528D"/>
<stop offset="1" stop-color="#8E7090"/>
</linearGradient>
<linearGradient id="paint23_linear_548_24947" x1="515.024" y1="704.704" x2="549.339" y2="704.704" gradientUnits="userSpaceOnUse">
<stop stop-color="#CA528D"/>
<stop offset="1" stop-color="#8E7090"/>
</linearGradient>
<linearGradient id="paint24_linear_548_24947" x1="667.88" y1="518.114" x2="726.597" y2="518.114" gradientUnits="userSpaceOnUse">
<stop stop-color="#CA528D"/>
<stop offset="1" stop-color="#8E7090"/>
</linearGradient>
<linearGradient id="paint25_linear_548_24947" x1="719.71" y1="368.459" x2="742.202" y2="368.459" gradientUnits="userSpaceOnUse">
<stop stop-color="#CA528D"/>
<stop offset="1" stop-color="#8E7090"/>
</linearGradient>
<linearGradient id="paint26_linear_548_24947" x1="715.1" y1="407.272" x2="786.087" y2="407.272" gradientUnits="userSpaceOnUse">
<stop stop-color="#CA528D"/>
<stop offset="1" stop-color="#8E7090"/>
</linearGradient>
<linearGradient id="paint27_linear_548_24947" x1="697.574" y1="371.397" x2="738.409" y2="363.976" gradientUnits="userSpaceOnUse">
<stop stop-color="#F47D57"/>
<stop offset="0.4" stop-color="#FB7A54"/>
<stop offset="0.99" stop-color="#FF7954"/>
</linearGradient>
<linearGradient id="paint28_linear_548_24947" x1="718.948" y1="372.974" x2="784.13" y2="361.129" gradientUnits="userSpaceOnUse">
<stop stop-color="#F47D57"/>
<stop offset="0.4" stop-color="#FB7A54"/>
<stop offset="0.99" stop-color="#FF7954"/>
</linearGradient>
<linearGradient id="paint29_linear_548_24947" x1="428.497" y1="282.983" x2="623.757" y2="282.983" gradientUnits="userSpaceOnUse">
<stop stop-color="#CA528D"/>
<stop offset="1" stop-color="#8E7090"/>
</linearGradient>
<linearGradient id="paint30_linear_548_24947" x1="488.687" y1="384.351" x2="538.057" y2="384.351" gradientUnits="userSpaceOnUse">
<stop stop-color="#CA528D"/>
<stop offset="1" stop-color="#8E7090"/>
</linearGradient>
<linearGradient id="paint31_linear_548_24947" x1="574.872" y1="343.054" x2="687.617" y2="343.054" gradientUnits="userSpaceOnUse">
<stop stop-color="#CA528D"/>
<stop offset="1" stop-color="#8E7090"/>
</linearGradient>
<linearGradient id="paint32_linear_548_24947" x1="263.364" y1="385.441" x2="346.93" y2="385.441" gradientUnits="userSpaceOnUse">
<stop stop-color="#CA528D"/>
<stop offset="1" stop-color="#8E7090"/>
</linearGradient>
<linearGradient id="paint33_linear_548_24947" x1="362.312" y1="483.959" x2="425.861" y2="483.959" gradientUnits="userSpaceOnUse">
<stop stop-color="#CA528D"/>
<stop offset="1" stop-color="#8E7090"/>
</linearGradient>
<linearGradient id="paint34_linear_548_24947" x1="388.227" y1="531.649" x2="423.067" y2="531.649" gradientUnits="userSpaceOnUse">
<stop stop-color="#CA528D"/>
<stop offset="1" stop-color="#8E7090"/>
</linearGradient>
<linearGradient id="paint35_linear_548_24947" x1="389.429" y1="494.874" x2="389.429" y2="438.816" gradientUnits="userSpaceOnUse">
<stop stop-color="#A20057"/>
<stop offset="0.28" stop-color="#BA2355"/>
<stop offset="0.57" stop-color="#CD4054"/>
<stop offset="0.82" stop-color="#D95254"/>
<stop offset="0.99" stop-color="#DE5954"/>
</linearGradient>
<linearGradient id="paint36_linear_548_24947" x1="401.937" y1="540.312" x2="401.937" y2="512.947" gradientUnits="userSpaceOnUse">
<stop stop-color="#A20057"/>
<stop offset="0.28" stop-color="#BA2355"/>
<stop offset="0.57" stop-color="#CD4054"/>
<stop offset="0.82" stop-color="#D95254"/>
<stop offset="0.99" stop-color="#DE5954"/>
</linearGradient>
<linearGradient id="paint37_linear_548_24947" x1="395.774" y1="475.48" x2="425.575" y2="475.48" gradientUnits="userSpaceOnUse">
<stop stop-color="#CA528D"/>
<stop offset="1" stop-color="#8E7090"/>
</linearGradient>
<linearGradient id="paint38_linear_548_24947" x1="214.95" y1="449.167" x2="214.95" y2="396.564" gradientUnits="userSpaceOnUse">
<stop stop-color="#A20057"/>
<stop offset="0.28" stop-color="#BA2355"/>
<stop offset="0.57" stop-color="#CD4054"/>
<stop offset="0.82" stop-color="#D95254"/>
<stop offset="0.99" stop-color="#DE5954"/>
</linearGradient>
<linearGradient id="paint39_linear_548_24947" x1="389.421" y1="471.069" x2="389.421" y2="435.743" gradientUnits="userSpaceOnUse">
<stop stop-color="#F49F57"/>
<stop offset="0.1" stop-color="#F69656"/>
<stop offset="0.35" stop-color="#FB8555"/>
<stop offset="0.63" stop-color="#FE7C54"/>
<stop offset="0.99" stop-color="#FF7954"/>
</linearGradient>
<linearGradient id="paint40_linear_548_24947" x1="391.563" y1="533.465" x2="415.926" y2="533.465" gradientUnits="userSpaceOnUse">
<stop stop-color="#CA528D"/>
<stop offset="1" stop-color="#8E7090"/>
</linearGradient>
<linearGradient id="paint41_linear_548_24947" x1="401.22" y1="530.933" x2="401.22" y2="512.645" gradientUnits="userSpaceOnUse">
<stop stop-color="#F47D57"/>
<stop offset="0.4" stop-color="#FB7A54"/>
<stop offset="0.99" stop-color="#FF7954"/>
</linearGradient>
<linearGradient id="paint42_linear_548_24947" x1="651.925" y1="677.029" x2="641.216" y2="715.643" gradientUnits="userSpaceOnUse">
<stop stop-color="#CA528D"/>
<stop offset="1" stop-color="#8E7090"/>
</linearGradient>
<linearGradient id="paint43_linear_548_24947" x1="637.467" y1="687.247" x2="663.844" y2="694.562" gradientUnits="userSpaceOnUse">
<stop stop-color="#A20057"/>
<stop offset="0.28" stop-color="#BA2355"/>
<stop offset="0.57" stop-color="#CD4054"/>
<stop offset="0.82" stop-color="#D95254"/>
<stop offset="0.99" stop-color="#DE5954"/>
</linearGradient>
<linearGradient id="paint44_linear_548_24947" x1="646.845" y1="679.082" x2="640.334" y2="702.559" gradientUnits="userSpaceOnUse">
<stop stop-color="#CA528D"/>
<stop offset="1" stop-color="#8E7090"/>
</linearGradient>
<linearGradient id="paint45_linear_548_24947" x1="646.706" y1="689.057" x2="664.328" y2="693.945" gradientUnits="userSpaceOnUse">
<stop stop-color="#F47D57"/>
<stop offset="0.4" stop-color="#FB7A54"/>
<stop offset="0.99" stop-color="#FF7954"/>
</linearGradient>
<linearGradient id="paint46_linear_548_24947" x1="292.257" y1="667.005" x2="378.696" y2="667.005" gradientUnits="userSpaceOnUse">
<stop stop-color="#860057"/>
<stop offset="0.21" stop-color="#89094C"/>
<stop offset="0.55" stop-color="#8D1343"/>
<stop offset="0.99" stop-color="#8F1640"/>
</linearGradient>
<linearGradient id="paint47_linear_548_24947" x1="292.257" y1="667.005" x2="363.49" y2="667.005" gradientUnits="userSpaceOnUse">
<stop stop-color="#F49F57"/>
<stop offset="0.1" stop-color="#F69656"/>
<stop offset="0.35" stop-color="#FB8555"/>
<stop offset="0.63" stop-color="#FE7C54"/>
<stop offset="0.99" stop-color="#FF7954"/>
</linearGradient>
<linearGradient id="paint48_linear_548_24947" x1="386.849" y1="331.971" x2="386.849" y2="301.964" gradientUnits="userSpaceOnUse">
<stop stop-color="#860057"/>
<stop offset="0.03" stop-color="#880456"/>
<stop offset="0.23" stop-color="#951B55"/>
<stop offset="0.45" stop-color="#9D2C54"/>
<stop offset="0.69" stop-color="#A33554"/>
<stop offset="0.99" stop-color="#A53954"/>
</linearGradient>
<linearGradient id="paint49_linear_548_24947" x1="346.93" y1="318.396" x2="426.769" y2="318.396" gradientUnits="userSpaceOnUse">
<stop stop-color="#F49F57"/>
<stop offset="0.1" stop-color="#F69656"/>
<stop offset="0.35" stop-color="#FB8555"/>
<stop offset="0.63" stop-color="#FE7C54"/>
<stop offset="0.99" stop-color="#FF7954"/>
</linearGradient>
<linearGradient id="paint50_linear_548_24947" x1="215.786" y1="650.971" x2="215.786" y2="632.292" gradientUnits="userSpaceOnUse">
<stop stop-color="#860057"/>
<stop offset="0.03" stop-color="#880456"/>
<stop offset="0.23" stop-color="#951B55"/>
<stop offset="0.45" stop-color="#9D2C54"/>
<stop offset="0.69" stop-color="#A33554"/>
<stop offset="0.99" stop-color="#A53954"/>
</linearGradient>
<linearGradient id="paint51_linear_548_24947" x1="204.026" y1="642.842" x2="227.545" y2="642.842" gradientUnits="userSpaceOnUse">
<stop stop-color="#F49F57"/>
<stop offset="0.1" stop-color="#F69656"/>
<stop offset="0.35" stop-color="#FB8555"/>
<stop offset="0.63" stop-color="#FE7C54"/>
<stop offset="0.99" stop-color="#FF7954"/>
</linearGradient>
<linearGradient id="paint52_linear_548_24947" x1="686.366" y1="476.013" x2="709.344" y2="476.013" gradientUnits="userSpaceOnUse">
<stop stop-color="#860057"/>
<stop offset="0.21" stop-color="#89094C"/>
<stop offset="0.55" stop-color="#8D1343"/>
<stop offset="0.99" stop-color="#8F1640"/>
</linearGradient>
<linearGradient id="paint53_linear_548_24947" x1="686.367" y1="476.021" x2="709.345" y2="476.021" gradientUnits="userSpaceOnUse">
<stop stop-color="#C75357"/>
<stop offset="0.13" stop-color="#D25856"/>
<stop offset="0.37" stop-color="#E35F54"/>
<stop offset="0.65" stop-color="#EC6354"/>
<stop offset="0.99" stop-color="#F06554"/>
</linearGradient>
<linearGradient id="paint54_linear_548_24947" x1="500" y1="25.2371" x2="500" y2="1048.18" gradientUnits="userSpaceOnUse">
<stop stop-color="#27A2D9"/>
<stop offset="0.19" stop-color="#1D78A1"/>
<stop offset="0.39" stop-color="#124E68"/>
<stop offset="0.59" stop-color="#0A2C3B"/>
<stop offset="0.76" stop-color="#04141A"/>
<stop offset="0.9" stop-color="#010507"/>
<stop offset="1"/>
</linearGradient>
<clipPath id="clip0_548_24947">
<rect width="1000" height="1000" fill="white" transform="translate(0 0.334961)"/>
</clipPath>
<clipPath id="clip1_548_24947">
<rect width="799.732" height="799.732" fill="white" transform="translate(100 100.167)"/>
</clipPath>
</defs>
</svg>
