<svg width="239" height="85" viewBox="0 0 239 85" fill="none" xmlns="http://www.w3.org/2000/svg">
<g clip-path="url(#clip0_627_81155)">
<g clip-path="url(#clip1_627_81155)">
<path d="M38.8308 84.6795C37.766 84.6795 36.9846 84.4375 36.4799 83.9674C35.9751 83.4903 35.5879 83.0892 35.3045 82.7504L32.9536 79.8119C31.4463 79.9778 29.8214 80.0608 28.0859 80.0608C22.6029 80.0608 17.8113 79.2241 13.7042 77.544C9.59706 75.8638 6.35425 73.3401 3.97573 69.9521C1.60412 66.5779 0.30423 62.4016 0.0829717 57.4233C0.0276572 55.1347 0 52.7009 0 50.1287C0 47.5566 0.0276572 45.0675 0.0829717 42.6613C0.30423 37.7383 1.59029 33.5759 3.94116 30.1671C6.29202 26.7584 9.53483 24.1586 13.6696 22.3678C17.8043 20.577 22.6167 19.685 28.0928 19.685C33.569 19.685 38.3813 20.577 42.5161 22.3678C46.6508 24.1586 49.9075 26.7584 52.286 30.1671C54.6645 33.5759 55.9368 37.7452 56.1027 42.6613C56.2133 45.0675 56.2686 47.5566 56.2686 50.1287C56.2686 52.7009 56.2133 55.1347 56.1027 57.4233C55.7639 63.743 53.7518 68.8043 50.0665 72.6072L56.6904 82.0867C56.7457 82.142 56.801 82.2526 56.8564 82.4255C56.9117 82.5914 56.9393 82.7297 56.9393 82.8472C57.05 83.352 56.9255 83.7807 56.559 84.1471C56.1926 84.5136 55.7639 84.6934 55.2592 84.6934H38.8238L38.8308 84.6795ZM28.0928 63.7084C29.939 63.7084 31.4186 63.1622 32.5387 62.0697C33.6589 60.9773 34.2466 59.2625 34.3019 56.9117C34.4125 54.5055 34.4678 52.1339 34.4678 49.783C34.4678 47.4321 34.4125 45.1159 34.3019 42.8203C34.2466 41.2577 33.9493 39.9716 33.4238 38.9621C32.8914 37.9526 32.1792 37.2128 31.2872 36.7426C30.3953 36.2655 29.3305 36.0305 28.0998 36.0305C26.869 36.0305 25.8803 36.2725 24.9537 36.7426C24.0341 37.2197 23.3012 37.9595 22.7757 38.9621C22.2433 39.9716 21.9529 41.2577 21.8976 42.8203C21.8423 45.1159 21.8146 47.4321 21.8146 49.783C21.8146 52.1339 21.8423 54.5055 21.8976 56.9117C22.0082 59.2625 22.6098 60.9773 23.7022 62.0697C24.7947 63.1622 26.2605 63.7084 28.1067 63.7084H28.0928Z" fill="white"/>
<path d="M75.7324 79.231C74.8957 79.231 74.2665 79.0098 73.8448 78.5604C73.423 78.1109 73.1326 77.6408 72.9666 77.136L60.7214 38.3053C60.6661 38.084 60.6384 37.8558 60.6384 37.6346C60.6384 37.0745 60.832 36.5974 61.2261 36.2102C61.6133 35.8161 62.0904 35.6225 62.6505 35.6225H75.5664C76.4031 35.6225 77.0599 35.8438 77.537 36.2932C78.0141 36.7426 78.3045 37.1851 78.4151 37.6346L83.5317 55.0794L88.9802 37.6346C89.0908 37.1851 89.3812 36.7426 89.8583 36.2932C90.3354 35.8438 90.9922 35.6225 91.8289 35.6225H99.6282C100.465 35.6225 101.122 35.8438 101.599 36.2932C102.076 36.7426 102.366 37.1851 102.477 37.6346L107.925 55.0794L113.042 37.6346C113.153 37.1851 113.45 36.7426 113.92 36.2932C114.397 35.8438 115.054 35.6225 115.891 35.6225H128.807C129.367 35.6225 129.844 35.8161 130.231 36.2102C130.618 36.6043 130.819 37.0745 130.819 37.6346C130.819 37.8558 130.791 38.084 130.736 38.3053L118.49 77.136C118.325 77.6408 118.027 78.1178 117.612 78.5604C117.191 79.0098 116.561 79.231 115.725 79.231H104.489C103.652 79.231 103.023 79.0098 102.601 78.5604C102.18 78.1109 101.889 77.6408 101.723 77.136L95.77 60.1959L89.7338 77.136C89.5679 77.6408 89.2706 78.1178 88.8557 78.5604C88.4339 79.0098 87.8048 79.231 86.9681 79.231H75.7324Z" fill="white"/>
<path d="M148.201 80.0677C145.014 80.0677 142.193 79.48 139.731 78.3046C137.27 77.1291 135.354 75.5388 133.985 73.5268C132.616 71.5147 131.932 69.2468 131.932 66.73C131.932 62.6506 133.591 59.4492 136.924 57.126C140.25 54.8097 144.71 53.171 150.303 52.2169L159.195 50.7925V50.7095C159.195 49.2575 159.071 48.1927 158.815 47.5221C158.566 46.8514 157.854 46.5126 156.678 46.5126C155.897 46.5126 155.268 46.6647 154.791 46.9758C154.313 47.287 153.795 47.7156 153.242 48.2757C152.626 48.8911 151.845 49.1953 150.891 49.1953H136.634C136.074 49.1953 135.61 49.0294 135.251 48.6906C134.884 48.3518 134.732 47.9093 134.787 47.3492C134.843 46.2844 135.292 45.0398 136.129 43.6155C136.966 42.1911 138.265 40.8083 140.029 39.4669C141.792 38.1255 144.053 37.0054 146.825 36.1134C149.591 35.2215 152.931 34.7721 156.851 34.7721C160.771 34.7721 163.966 35.18 166.787 35.989C169.608 36.798 171.945 37.9734 173.791 39.5084C175.637 41.0503 177.02 42.9448 177.94 45.2127C178.859 47.4806 179.323 50.0389 179.323 52.8876V76.9563C179.323 77.5716 179.101 78.104 178.652 78.5466C178.202 78.996 177.67 79.2172 177.062 79.2172H162.383C161.767 79.2172 161.235 78.996 160.792 78.5466C160.343 78.0971 160.122 77.5716 160.122 76.9563V74.6054C159.34 75.7255 158.345 76.6866 157.141 77.5025C155.938 78.3115 154.583 78.9407 153.076 79.3901C151.569 79.8395 149.944 80.0608 148.208 80.0608L148.201 80.0677ZM153.989 67.6565C155.109 67.6565 156.07 67.4353 156.879 66.9858C157.688 66.5364 158.317 65.8242 158.766 64.8493C159.216 63.8744 159.437 62.6575 159.437 61.1986V61.1156L154.486 62.208C153.034 62.5468 152.053 62.9894 151.548 63.5494C151.043 64.1095 150.794 64.6972 150.794 65.3126C150.794 65.7067 150.919 66.0801 151.174 66.4465C151.423 66.813 151.79 67.1034 152.267 67.3246C152.744 67.5459 153.318 67.6634 153.989 67.6634V67.6565Z" fill="white"/>
<path d="M188.705 79.231C188.09 79.231 187.558 79.0098 187.115 78.5604C186.666 78.1109 186.444 77.5854 186.444 76.9701V37.8835C186.444 37.2681 186.666 36.7357 187.115 36.2932C187.564 35.8507 188.09 35.6225 188.705 35.6225H203.384C204 35.6225 204.532 35.8438 204.975 36.2932C205.424 36.7426 205.645 37.275 205.645 37.8835V40.6492C207.042 39.0313 208.971 37.6415 211.433 36.5006C213.894 35.3528 216.605 34.779 219.571 34.779C222.537 34.779 225.075 35.4496 227.536 36.791C229.998 38.1324 231.996 40.1998 233.531 43.0001C235.066 45.7935 235.84 49.4027 235.84 53.821V76.9701C235.84 77.5854 235.619 78.1179 235.169 78.5604C234.72 79.0098 234.188 79.231 233.579 79.231H217.559C216.943 79.231 216.411 79.0098 215.968 78.5604C215.519 78.1109 215.298 77.5854 215.298 76.9701V54.4087C215.298 52.9014 214.931 51.7536 214.205 50.9723C213.479 50.191 212.442 49.7968 211.101 49.7968C209.759 49.7968 208.722 50.191 207.996 50.9723C207.27 51.7536 206.904 52.9014 206.904 54.4087V76.9701C206.904 77.5854 206.683 78.1179 206.233 78.5604C205.784 79.0098 205.251 79.231 204.643 79.231H188.705Z" fill="white"/>
<path d="M63.3281 23.315C63.0861 23.315 62.8787 23.2252 62.7059 23.0523C62.533 22.8794 62.4431 22.672 62.4431 22.43V1.21691C62.4431 0.974909 62.533 0.76748 62.7059 0.594622C62.8787 0.421765 63.0861 0.331879 63.3281 0.331879H73.2778C75.2692 0.331879 77.0047 0.62228 78.4843 1.20308C79.964 1.78388 81.1118 2.66892 81.9346 3.86509C82.7574 5.06127 83.1653 6.56167 83.1653 8.38013C83.1653 10.1986 82.7574 11.6783 81.9346 12.826C81.1118 13.9738 79.964 14.8174 78.4843 15.3567C77.0047 15.896 75.2692 16.1587 73.2778 16.1587H70.9823V22.43C70.9823 22.672 70.8924 22.8794 70.7195 23.0523C70.5467 23.2252 70.3393 23.315 70.0973 23.315H63.3351H63.3281ZM70.8163 10.0811H73.1119C73.4645 10.0811 73.8033 9.94277 74.1283 9.67311C74.4533 9.39654 74.6192 8.94711 74.6192 8.31099C74.6192 7.89613 74.5155 7.48127 74.3081 7.06642C74.1006 6.65156 73.6996 6.44413 73.1119 6.44413H70.8163V10.088V10.0811Z" fill="white"/>
<path d="M94.1315 23.64C92.1194 23.64 90.4185 23.3634 89.0426 22.8172C87.6666 22.271 86.6087 21.4482 85.8758 20.3557C85.1429 19.2632 84.7211 17.915 84.6105 16.3178C84.5898 15.813 84.5759 15.2944 84.5759 14.7551C84.5759 14.2158 84.5898 13.7111 84.6105 13.2271C84.7211 11.6091 85.1706 10.2539 85.9588 9.16836C86.747 8.08281 87.8326 7.26692 89.2085 6.72069C90.5845 6.17446 92.2301 5.89789 94.1315 5.89789C96.0329 5.89789 97.6785 6.17446 99.0545 6.72069C100.437 7.26692 101.516 8.08281 102.304 9.16836C103.092 10.2539 103.542 11.6022 103.653 13.2271C103.694 13.7111 103.722 14.2158 103.722 14.7551C103.722 15.2944 103.701 15.813 103.653 16.3178C103.542 17.915 103.12 19.2632 102.387 20.3557C101.654 21.4482 100.596 22.271 99.2204 22.8172C97.8445 23.3634 96.1436 23.64 94.1315 23.64ZM94.1315 18.3851C94.7676 18.3851 95.1617 18.2054 95.3139 17.8458C95.466 17.4863 95.5628 16.9193 95.6112 16.1518C95.6319 15.8268 95.6457 15.3636 95.6457 14.7689C95.6457 14.1743 95.6319 13.718 95.6112 13.393C95.5697 12.6739 95.466 12.1208 95.3139 11.7336C95.1617 11.3533 94.7676 11.1597 94.1315 11.1597C93.4954 11.1597 93.1289 11.3533 92.963 11.7336C92.797 12.1139 92.6933 12.667 92.6518 13.393C92.6311 13.718 92.6173 14.1812 92.6173 14.7689C92.6173 15.3567 92.6311 15.8199 92.6518 16.1518C92.6933 16.9193 92.797 17.4794 92.963 17.8458C93.1289 18.2054 93.5161 18.3851 94.1315 18.3851Z" fill="white"/>
<path d="M110.546 23.315C110.221 23.315 109.972 23.2252 109.806 23.0523C109.64 22.8794 109.53 22.6927 109.46 22.4922L104.669 7.28767C104.648 7.19778 104.634 7.11481 104.634 7.02493C104.634 6.80367 104.71 6.61698 104.862 6.46487C105.015 6.31275 105.201 6.23669 105.423 6.23669H110.477C110.802 6.23669 111.065 6.32658 111.251 6.49944C111.438 6.6723 111.549 6.85207 111.597 7.02493L113.602 13.8563L115.739 7.02493C115.78 6.85207 115.898 6.6723 116.084 6.49944C116.271 6.32658 116.527 6.23669 116.859 6.23669H119.915C120.24 6.23669 120.503 6.32658 120.689 6.49944C120.876 6.6723 120.994 6.85207 121.035 7.02493L123.172 13.8563L125.177 7.02493C125.218 6.85207 125.336 6.6723 125.522 6.49944C125.709 6.32658 125.965 6.23669 126.297 6.23669H131.351C131.572 6.23669 131.752 6.31275 131.911 6.46487C132.063 6.61698 132.139 6.80367 132.139 7.02493C132.139 7.11481 132.126 7.19778 132.105 7.28767L127.313 22.4922C127.251 22.6927 127.133 22.8725 126.967 23.0523C126.802 23.2252 126.56 23.315 126.228 23.315H121.83C121.505 23.315 121.256 23.2252 121.09 23.0523C120.924 22.8794 120.814 22.6927 120.745 22.4922L118.414 15.8614L116.05 22.4922C115.988 22.6927 115.87 22.8725 115.704 23.0523C115.538 23.2252 115.296 23.315 114.964 23.315H110.567H110.546Z" fill="white"/>
<path d="M142.4 23.64C139.531 23.64 137.249 22.9347 135.555 21.5242C133.861 20.1137 133.01 17.8735 133.01 14.8104V14.5823C133.052 12.7016 133.467 11.1113 134.241 9.8183C135.016 8.52532 136.101 7.5504 137.491 6.89354C138.881 6.23669 140.506 5.91171 142.366 5.91171C144.509 5.91171 146.272 6.31966 147.655 7.14246C149.038 7.96526 150.054 9.04389 150.725 10.3922C151.396 11.7405 151.728 13.2201 151.728 14.845V15.8268C151.728 16.0688 151.638 16.2763 151.465 16.4491C151.292 16.622 151.085 16.7119 150.843 16.7119H141.059V16.8778C141.059 17.3134 141.093 17.6799 141.176 17.9772C141.252 18.2745 141.391 18.4958 141.584 18.6479C141.778 18.8 142.034 18.876 142.338 18.876C142.469 18.876 142.587 18.8553 142.684 18.8138C142.78 18.7723 142.884 18.6963 142.981 18.5995C143.078 18.5027 143.181 18.399 143.292 18.2883C143.486 18.0878 143.652 17.9634 143.783 17.908C143.914 17.8527 144.108 17.8251 144.371 17.8251H150.58C150.801 17.8251 150.981 17.8873 151.119 18.0256C151.264 18.157 151.32 18.3298 151.299 18.5511C151.278 18.9659 151.085 19.4638 150.725 20.0446C150.365 20.6254 149.819 21.1923 149.1 21.7386C148.381 22.2848 147.454 22.7411 146.341 23.1007C145.228 23.4602 143.914 23.64 142.4 23.64ZM141.052 12.6048H143.679V12.5702C143.679 12.0862 143.631 11.6921 143.534 11.3878C143.437 11.0836 143.285 10.8554 143.092 10.7172C142.898 10.5789 142.656 10.5028 142.372 10.5028C142.089 10.5028 141.847 10.572 141.653 10.7172C141.46 10.8624 141.308 11.0836 141.211 11.3878C141.114 11.6921 141.066 12.0862 141.066 12.5702V12.6048H141.052Z" fill="white"/>
<path d="M154.908 23.315C154.666 23.315 154.459 23.2252 154.286 23.0523C154.113 22.8794 154.023 22.672 154.023 22.43V7.12864C154.023 6.88664 154.113 6.67921 154.286 6.50635C154.459 6.33349 154.666 6.24361 154.908 6.24361H160.654C160.896 6.24361 161.103 6.33349 161.276 6.50635C161.449 6.67921 161.539 6.88664 161.539 7.12864V8.27642C162.237 7.66104 163.019 7.17013 163.89 6.79675C164.761 6.42338 165.681 6.23669 166.663 6.23669H168.239C168.481 6.23669 168.688 6.32658 168.861 6.49944C169.034 6.6723 169.124 6.87972 169.124 7.12173V12.2452C169.124 12.4872 169.034 12.6947 168.861 12.8675C168.688 13.0404 168.481 13.1303 168.239 13.1303H164.001C163.344 13.1303 162.853 13.2962 162.521 13.6212C162.196 13.9531 162.03 14.444 162.03 15.1008V22.4231C162.03 22.6651 161.94 22.8725 161.767 23.0454C161.594 23.2182 161.387 23.3081 161.145 23.3081H154.908V23.315Z" fill="white"/>
<path d="M177.566 23.64C176.626 23.64 175.748 23.5017 174.925 23.2321C174.102 22.9624 173.383 22.5199 172.761 21.9184C172.139 21.3168 171.641 20.5355 171.267 19.5675C170.894 18.6064 170.673 17.431 170.611 16.055C170.59 15.5503 170.576 15.1147 170.576 14.7413C170.576 14.3679 170.583 13.9392 170.611 13.4622C170.652 12.1692 170.859 11.0491 171.233 10.0949C171.606 9.14072 172.104 8.3594 172.726 7.74403C173.349 7.12865 174.075 6.67231 174.911 6.36116C175.741 6.05693 176.626 5.90482 177.573 5.90482C178.52 5.90482 179.316 6.04311 180.055 6.31276C180.788 6.58934 181.418 6.96271 181.943 7.44671V0.885031C181.943 0.643031 182.033 0.435601 182.206 0.262744C182.379 0.089886 182.586 0 182.828 0H188.906C189.148 0 189.355 0.089886 189.528 0.262744C189.701 0.435601 189.791 0.643031 189.791 0.885031V22.4231C189.791 22.6651 189.701 22.8725 189.528 23.0454C189.355 23.2183 189.148 23.3081 188.906 23.3081H183.326C183.084 23.3081 182.876 23.2183 182.704 23.0454C182.531 22.8725 182.441 22.6651 182.441 22.4231V21.6694C181.915 22.2572 181.259 22.7342 180.47 23.1007C179.682 23.4672 178.721 23.64 177.58 23.64H177.566ZM180.291 17.7629C180.705 17.7629 181.03 17.6868 181.259 17.5347C181.487 17.3826 181.653 17.1613 181.749 16.8778C181.846 16.5943 181.908 16.2555 181.929 15.8614C181.971 15.3567 181.991 14.9487 181.991 14.6307C181.991 14.3126 181.971 13.9116 181.929 13.4345C181.908 13.0819 181.839 12.7915 181.715 12.5495C181.59 12.3075 181.418 12.1208 181.189 11.9894C180.961 11.858 180.657 11.7889 180.284 11.7889C179.889 11.7889 179.578 11.865 179.35 12.0171C179.122 12.1692 178.956 12.3904 178.859 12.6739C178.762 12.9574 178.686 13.2962 178.645 13.6903C178.583 14.4094 178.583 15.1354 178.645 15.8545C178.686 16.2486 178.762 16.5874 178.859 16.8709C178.956 17.1544 179.122 17.3757 179.35 17.5278C179.578 17.6799 179.889 17.7559 180.284 17.7559L180.291 17.7629Z" fill="white"/>
<path d="M211.059 23.64C209.918 23.64 208.957 23.4602 208.169 23.1007C207.381 22.7412 206.724 22.2641 206.199 21.6694V22.4231C206.199 22.6651 206.109 22.8725 205.936 23.0454C205.763 23.2183 205.556 23.3081 205.314 23.3081H199.734C199.492 23.3081 199.284 23.2183 199.111 23.0454C198.939 22.8725 198.849 22.6651 198.849 22.4231V0.885031C198.849 0.643031 198.939 0.435601 199.111 0.262744C199.284 0.089886 199.492 0 199.734 0H205.811C206.053 0 206.261 0.089886 206.434 0.262744C206.606 0.435601 206.696 0.643031 206.696 0.885031V7.45362C207.222 6.96962 207.851 6.59625 208.584 6.31968C209.317 6.04311 210.147 5.91173 211.059 5.91173C211.972 5.91173 212.912 6.06385 213.735 6.36808C214.558 6.67231 215.277 7.13557 215.899 7.75094C216.522 8.36631 217.019 9.14763 217.393 10.1018C217.766 11.056 217.974 12.1761 218.015 13.4691C218.036 13.9531 218.05 14.3748 218.05 14.7482C218.05 15.1216 218.036 15.5572 218.015 16.0619C217.946 17.4379 217.732 18.6133 217.358 19.5744C216.985 20.5355 216.487 21.3237 215.865 21.9253C215.242 22.5268 214.523 22.9624 213.714 23.239C212.905 23.5156 212.02 23.6469 211.052 23.6469L211.059 23.64ZM208.335 17.7629C208.75 17.7629 209.068 17.6868 209.289 17.5347C209.511 17.3826 209.67 17.1613 209.766 16.8778C209.863 16.5943 209.939 16.2555 209.981 15.8614C210.043 15.1423 210.043 14.4163 209.981 13.6972C209.939 13.3031 209.863 12.9643 209.766 12.6808C209.67 12.3974 209.511 12.1761 209.289 12.024C209.068 11.8719 208.75 11.7958 208.335 11.7958C207.962 11.7958 207.664 11.858 207.429 11.9963C207.201 12.1277 207.021 12.3144 206.904 12.5564C206.786 12.7984 206.71 13.0957 206.689 13.4414C206.669 13.9254 206.655 14.3195 206.655 14.6376C206.655 14.9556 206.669 15.3636 206.689 15.8683C206.71 16.2625 206.772 16.6013 206.869 16.8847C206.966 17.1682 207.139 17.3895 207.381 17.5416C207.623 17.6937 207.941 17.7698 208.335 17.7698V17.7629Z" fill="white"/>
<path d="M223.173 29.5517C222.973 29.5517 222.807 29.4826 222.661 29.3512C222.516 29.2199 222.447 29.0539 222.447 28.8603V28.7151C222.447 28.6598 222.461 28.5976 222.482 28.5353L225.109 22.2295L218.769 7.2531C218.748 7.19087 218.734 7.1079 218.734 7.02493C218.776 6.80367 218.872 6.61698 219.011 6.46487C219.156 6.31275 219.336 6.23669 219.55 6.23669H225.102C225.434 6.23669 225.669 6.32658 225.821 6.49944C225.973 6.6723 226.084 6.85207 226.146 7.02493L228.836 14.5131L231.629 7.02493C231.719 6.82441 231.844 6.64464 232.01 6.48561C232.176 6.31967 232.418 6.23669 232.749 6.23669H238.232C238.433 6.23669 238.606 6.30584 238.758 6.45104C238.91 6.59624 238.986 6.75527 238.986 6.92813C238.986 7.0595 238.972 7.17013 238.952 7.2531L229.693 28.7635C229.603 28.964 229.472 29.1438 229.299 29.3028C229.126 29.4688 228.871 29.5517 228.546 29.5517H223.159H223.173Z" fill="white"/>
</g>
</g>
<defs>
<clipPath id="clip0_627_81155">
<rect width="239" height="85" fill="white"/>
</clipPath>
<clipPath id="clip1_627_81155">
<rect width="239" height="84.6795" fill="white"/>
</clipPath>
</defs>
</svg>
