<svg width="198" height="199" viewBox="0 0 198 199" fill="none" xmlns="http://www.w3.org/2000/svg">
<g clip-path="url(#clip0_1272_13710)">
<g clip-path="url(#clip1_1272_13710)">
<path style="mix-blend-mode:screen" d="M92.2146 167.174C132.208 167.174 164.629 134.753 164.629 94.7591C164.629 54.7655 132.208 22.3442 92.2146 22.3442C52.221 22.3442 19.7998 54.7655 19.7998 94.7591C19.7998 134.753 52.221 167.174 92.2146 167.174Z" fill="url(#paint0_radial_1272_13710)"/>
<path style="mix-blend-mode:screen" d="M86.0379 154.255C119.514 154.255 146.652 127.117 146.652 93.6411C146.652 60.1649 119.514 33.0271 86.0379 33.0271C52.5617 33.0271 25.4238 60.1649 25.4238 93.6411C25.4238 127.117 52.5617 154.255 86.0379 154.255Z" fill="url(#paint1_radial_1272_13710)"/>
<path style="mix-blend-mode:screen" d="M92.2143 156.447C126.284 156.447 153.902 128.828 153.902 94.7588C153.902 60.6894 126.284 33.0708 92.2143 33.0708C58.145 33.0708 30.5264 60.6894 30.5264 94.7588C30.5264 128.828 58.145 156.447 92.2143 156.447Z" fill="url(#paint2_radial_1272_13710)"/>
<path fill-rule="evenodd" clip-rule="evenodd" d="M146.674 69.6987C146.674 69.6987 128.903 50.1709 105.239 42.6831C105.239 42.6831 62.8023 50.0677 52.7336 67.1257C42.6649 84.182 36.9513 114.462 52.7336 133.058C68.5159 151.654 86.171 157.632 107.956 153.977C129.741 150.32 135.334 142.475 135.334 142.475C135.334 142.475 136.513 132.215 145.821 130.375C145.821 130.375 158.744 93.0095 146.676 69.7003L146.674 69.6987Z" fill="url(#paint3_radial_1272_13710)"/>
<path fill-rule="evenodd" clip-rule="evenodd" d="M147.764 99.3766C147.764 104.173 147.088 108.822 145.816 113.211C143.283 122.037 138.375 129.861 131.823 135.951C127.14 140.319 121.612 143.797 115.524 146.106C110.007 148.199 104.042 149.337 97.7825 149.337C96.904 149.337 96.0036 149.326 95.1266 149.27H95.1157C93.8104 149.203 92.516 149.079 91.2326 148.921C81.586 147.66 72.8163 143.642 65.713 137.676C63.0446 135.446 60.6137 132.936 58.4752 130.2C56.8542 128.14 55.3801 125.956 54.0967 123.649C53.7934 123.097 53.4995 122.534 53.1962 121.982C53.1962 121.96 53.1962 121.948 53.1853 121.926C52.8695 121.329 52.5881 120.721 52.3193 120.114H52.3083C51.4407 118.201 50.6763 116.231 50.0682 114.204C49.6071 112.752 49.2131 111.254 48.8974 109.734C48.8864 109.724 48.8864 109.7 48.8864 109.689C48.6723 108.62 48.4816 107.551 48.3346 106.458C47.997 104.14 47.8281 101.775 47.8281 99.3766C47.8281 97.9915 47.8735 96.6065 47.997 95.2559C48.0642 94.3883 48.1658 93.5442 48.2783 92.6891C48.9193 87.7696 50.2933 83.0862 52.2739 78.7295C53.2416 76.591 54.3671 74.5307 55.6177 72.561C57.7108 69.2626 60.1776 66.2456 62.957 63.5443C71.9627 54.7856 84.245 49.394 97.7872 49.394C98.3172 49.394 98.8455 49.405 99.363 49.4159C99.9257 49.4378 100.478 49.4612 101.04 49.4941C101.603 49.5284 102.166 49.5722 102.718 49.641C105.003 49.8661 107.243 50.2382 109.427 50.7665C111.003 51.1495 112.557 51.5888 114.076 52.1172C115.112 52.4658 116.125 52.8487 117.126 53.2771C117.868 53.5928 118.6 53.918 119.333 54.2681C119.457 54.3244 119.58 54.3807 119.716 54.4479C120.718 54.9325 121.697 55.4609 122.655 56.0127C126.358 58.1293 129.747 60.718 132.786 63.6897C133.327 64.2181 133.856 64.7589 134.385 65.3217C134.734 65.7047 135.083 66.0877 135.422 66.4816C135.996 67.1351 136.558 67.8213 137.11 68.5076C139.103 71.04 140.848 73.7647 142.322 76.6473C144.034 80.002 145.384 83.5817 146.307 87.3304C147.263 91.1915 147.77 95.2106 147.77 99.375L147.764 99.3766Z" fill="url(#paint4_radial_1272_13710)"/>
<path fill-rule="evenodd" clip-rule="evenodd" d="M142.634 83.4942C137.638 75.3701 122.438 73.5036 117.55 78.1027C113.189 82.2061 117.159 94.6009 121.685 102.475C121.685 102.475 107.957 82.2343 117.017 74.1055C126.077 65.9783 144.606 76.3706 148.4 82.7658C152.194 89.1609 150.869 101.32 148.4 105.634C145.932 109.949 140.894 109.466 140.894 109.466C140.894 109.466 152.852 100.105 142.634 83.4942Z" fill="url(#paint5_radial_1272_13710)"/>
<path style="mix-blend-mode:multiply" opacity="0.71" fill-rule="evenodd" clip-rule="evenodd" d="M50.2354 83.9678C50.2354 83.9678 57.8045 74.7855 63.3852 76.0642C68.9659 77.3445 66.1881 87.2803 66.1881 87.2803L71.8016 71.126C71.8016 71.126 61.5297 66.9475 58.139 68.8749C58.139 68.8749 52.7287 76.3643 50.2354 83.9678Z" fill="url(#paint6_linear_1272_13710)"/>
<path fill-rule="evenodd" clip-rule="evenodd" d="M73.5699 138.689C73.5699 138.689 72.1614 140.702 73.5699 143.713C74.9783 146.724 81.1796 151.393 95.0986 152.382C110.184 153.453 118.044 144.241 118.15 142.528C118.256 140.815 113.488 139.286 113.488 139.286C113.488 139.286 118.835 139.473 120.091 142.548C121.348 145.625 111.154 156.317 94.1653 154.818C77.1762 153.319 68.7817 143.225 68.8817 140.527C68.9818 137.829 73.5699 138.687 73.5699 138.687V138.689Z" fill="url(#paint7_linear_1272_13710)"/>
<path fill-rule="evenodd" clip-rule="evenodd" d="M63.3857 69.7738C63.3857 69.7738 60.9877 68.1606 58.1395 68.875C54.3143 69.8332 49.5449 78.2684 49.0462 84.8152C48.6132 90.4787 50.6626 95.0246 51.8616 95.6921C53.0606 96.358 56.6545 95.6921 56.6545 95.6921C56.6545 95.6921 53.342 98.0901 48.6038 96.4252C43.8657 94.7604 46.1465 80.7696 48.6038 74.773C51.0612 68.7765 58.7226 64.9122 60.6547 65.3124C62.5869 65.7126 63.3857 69.7754 63.3857 69.7754V69.7738Z" fill="url(#paint8_linear_1272_13710)"/>
<path fill-rule="evenodd" clip-rule="evenodd" d="M112.42 112.48C111.221 110.88 104.358 109.209 104.358 109.209L100.858 113.08C98.2944 113.813 96.4967 121.874 98.6946 123.672C100.893 125.471 109.622 125.071 110.953 121.673C112.285 118.274 113.619 114.077 112.42 112.48ZM101.893 121.607C99.9608 119.675 100.938 114.526 103.159 114.279C106.157 113.946 107.925 114.745 108.555 117.477C109.187 120.208 103.825 123.539 101.893 121.607Z" fill="url(#paint9_linear_1272_13710)"/>
<path fill-rule="evenodd" clip-rule="evenodd" d="M59.6233 134.11C60.7879 134.768 64.9227 133.874 64.9227 133.874L65.4323 130.472C66.5171 129.292 64.7241 123.757 62.9718 123.255C61.2194 122.753 56.8158 125.467 57.2722 127.962C57.7303 130.457 58.4572 133.45 59.6218 134.11H59.6233ZM62.0088 125.446C63.6674 126.106 64.9023 129.594 63.8315 130.374C62.3855 131.427 61.1959 131.429 59.9422 129.903C58.6901 128.377 60.3502 124.787 62.0088 125.446Z" fill="url(#paint10_linear_1272_13710)"/>
<path style="mix-blend-mode:multiply" opacity="0.71" fill-rule="evenodd" clip-rule="evenodd" d="M145.483 89.3548C145.483 89.3548 136.937 81.4245 127.126 81.7309C117.314 82.0373 116.021 92.847 119.796 98.842C123.572 104.835 108.608 94.1757 108.608 94.1757V71.126C108.608 71.126 126.753 69.3408 136.396 73.6991C146.04 78.0558 145.485 89.3563 145.485 89.3563L145.483 89.3548Z" fill="url(#paint11_linear_1272_13710)"/>
<path style="mix-blend-mode:multiply" opacity="0.71" fill-rule="evenodd" clip-rule="evenodd" d="M115.749 55.192C114.375 57.1164 116.323 63.9836 116.323 63.9836L100.854 56.6333L102.712 49.6426C104.997 49.8677 107.237 50.2397 109.421 50.7681C110.997 51.1511 112.551 51.5904 114.07 52.1187C115.106 52.4673 116.119 52.8503 117.12 53.2786C117.862 53.5944 118.594 53.9196 119.327 54.2697C119.451 54.326 119.574 54.3823 119.71 54.4495C120.712 54.9341 121.691 55.4625 122.649 56.0143C120.195 55.0685 116.626 53.9649 115.749 55.192Z" fill="url(#paint12_linear_1272_13710)"/>
<path style="mix-blend-mode:multiply" opacity="0.71" fill-rule="evenodd" clip-rule="evenodd" d="M48.4366 107.218C48.4366 107.218 50.239 105.026 53.4327 105.944C56.6264 106.861 57.3377 110.058 57.3377 110.058L59.9373 100.765L49.273 98.4402L47.3252 100.286L48.4366 107.216V107.218Z" fill="url(#paint13_linear_1272_13710)"/>
<path style="mix-blend-mode:multiply" opacity="0.71" fill-rule="evenodd" clip-rule="evenodd" d="M100.048 119.364C100.048 119.364 100.771 116.975 105.238 116.968C109.708 116.96 109.049 119.92 109.049 119.92L112.088 114.207L103.223 108.903L95.0977 112.361L100.047 119.366L100.048 119.364Z" fill="url(#paint14_linear_1272_13710)"/>
<path style="mix-blend-mode:multiply" opacity="0.71" fill-rule="evenodd" clip-rule="evenodd" d="M72.7352 143.502C72.7352 143.502 75.6147 141.582 93.5308 140.516C111.447 139.45 118.575 145.484 118.575 145.484L120.618 136.989L84.8908 129.425L68.1346 134.354L67.1514 138.845L72.7336 143.502H72.7352Z" fill="url(#paint15_linear_1272_13710)"/>
<path fill-rule="evenodd" clip-rule="evenodd" d="M52.637 101.601C52.637 101.601 49.7544 99.3672 46.6624 102.02C43.7188 104.546 43.7313 111.681 45.8401 115.611C47.655 118.993 52.9653 117.132 52.9653 117.132C52.9653 117.132 48.7289 120.941 45.3977 118.609C42.0665 116.277 41.4005 103.352 44.3316 99.6877C47.2626 96.0235 52.637 101.601 52.637 101.601Z" fill="url(#paint16_linear_1272_13710)"/>
<path fill-rule="evenodd" clip-rule="evenodd" d="M153.288 85.5968C152.233 81.3135 150.693 77.221 148.72 73.3817C148.087 72.1264 147.401 70.9024 146.674 69.7003C142.317 71.8201 135.608 72.833 126.348 68.1605C113.921 61.8951 107.834 49.7223 105.239 42.6862C104.004 42.5284 102.76 42.4017 101.505 42.3173C100.861 42.2751 100.218 42.2438 99.5852 42.222C98.9943 42.211 98.3924 42.2001 97.7812 42.2001C82.2849 42.2001 68.2347 48.3607 57.9393 58.381C54.7534 61.4825 51.9271 64.9309 49.5432 68.6967C48.1082 70.954 46.8216 73.3067 45.7133 75.7531C43.4451 80.7429 41.874 86.1017 41.1346 91.723C41.008 92.7047 40.9033 93.6739 40.8282 94.6666C40.6813 96.2064 40.6172 97.7883 40.6172 99.3719C40.6172 102.125 40.8173 104.826 41.1971 107.483C41.366 108.728 41.588 109.952 41.8412 111.176C41.8412 111.187 41.8412 111.207 41.8521 111.229C42.2101 112.959 42.665 114.679 43.1918 116.345C43.8875 118.656 44.7629 120.913 45.7446 123.097H45.7664C46.0728 123.804 46.3996 124.49 46.7482 125.174C46.7685 125.195 46.7794 125.206 46.7794 125.239C47.1171 125.872 47.4547 126.514 47.8033 127.138C49.2806 129.786 50.9579 132.286 52.8135 134.638C55.2599 137.771 58.0346 140.65 61.0829 143.194C69.2258 150.019 79.2476 154.607 90.2918 156.053C91.7471 156.242 93.2353 156.38 94.7329 156.453H94.7438C95.7459 156.516 96.7698 156.537 97.7812 156.537C104.944 156.537 111.769 155.24 118.087 152.834C124.459 150.408 130.282 146.885 135.335 142.475C132.751 136.916 134.881 126.167 138.878 125.998C140.84 125.914 143.731 127.78 145.819 130.375C148.825 125.734 151.167 120.64 152.729 115.206C154.184 110.185 154.966 104.868 154.966 99.3719C154.966 94.615 154.386 90.0051 153.288 85.5952V85.5968ZM47.6751 118.983C40.6188 117.274 42.6744 99.5939 47.8127 99.3719C51.2096 99.225 57.3374 104.91 57.3374 110.058C57.3374 115.206 50.417 119.647 47.6751 118.983ZM102.124 122.759C97.864 121.712 99.6821 114.798 102.621 113.782C105.336 112.844 110.343 115.04 109.755 118.14C108.957 122.364 103.779 123.166 102.124 122.758V122.759ZM60.9375 132.19C58.3145 131.602 57.2452 126.264 59.0554 125.695C60.7281 125.17 64.0609 128.548 63.6998 130.286C63.2073 132.655 61.9583 132.418 60.9375 132.189V132.19ZM65.8508 88.2339C63.4981 94.3524 51.6207 98.3073 49.7746 96.2189C46.7997 92.8751 46.3245 83.7506 49.5213 76.5035C53.1918 68.159 58.1191 66.9147 59.9855 66.6833C61.852 66.4613 70.3654 76.5035 65.8508 88.2339ZM91.3782 153.857C75.9554 152.833 66.0196 140.502 71.716 139.109C92.4959 134.035 120.84 139.236 120.092 142.548C118.921 147.696 108.646 155.005 91.3782 153.857ZM138.341 110.502C122.022 115.681 108.688 81.1134 116.928 75.7547C125.45 70.1959 140.359 75.947 144.734 81.831C148.402 86.7645 154.661 105.312 138.342 110.502H138.341Z" fill="url(#paint17_radial_1272_13710)"/>
<path style="mix-blend-mode:screen" d="M93.1051 99.4163C106.09 90.3916 110.454 74.2096 102.853 63.2729C95.2517 52.3362 78.5634 50.7862 65.5786 59.8109C52.5937 68.8356 48.2294 85.0175 55.8306 95.9543C63.4319 106.891 80.1202 108.441 93.1051 99.4163Z" fill="url(#paint18_radial_1272_13710)"/>
<path fill-rule="evenodd" clip-rule="evenodd" d="M120.969 49.6489C120.969 49.6489 109.817 44.3761 108.155 45.0905C106.495 45.8049 112.116 60.6524 124.344 66.6787C137.433 73.1301 144.73 68.6749 144.73 68.6749L142.014 65.1139C142.014 65.1139 146.112 68.7531 146.671 69.7004C146.671 69.7004 139.616 78.37 122.844 68.1622C105.236 57.4463 105.236 42.6847 105.236 42.6847C105.236 42.6847 111.905 43.8822 120.967 49.6505L120.969 49.6489Z" fill="url(#paint19_radial_1272_13710)"/>
<g style="mix-blend-mode:multiply">
<path fill-rule="evenodd" clip-rule="evenodd" d="M68.5976 56.5397C68.3694 56.7289 67.8723 57.0837 68.2662 57.3604C68.3725 57.4354 68.4663 57.3963 68.5788 57.4276C68.6664 57.4526 68.6883 57.5214 68.7914 57.4823C69.1119 57.3604 68.9837 56.4506 68.6226 56.6335L68.5976 56.5397Z" fill="#D1DEFF"/>
<path fill-rule="evenodd" clip-rule="evenodd" d="M56.6415 99.8098C56.4133 99.9989 55.9162 100.354 56.3101 100.63C56.4164 100.705 56.5102 100.666 56.6228 100.698C56.7103 100.723 56.7322 100.791 56.8354 100.752C57.1558 100.63 57.0277 99.7207 56.6666 99.9035L56.6415 99.8098Z" fill="#D1DEFF"/>
<path fill-rule="evenodd" clip-rule="evenodd" d="M70.251 59.8459C70.3964 59.7646 70.5464 59.7224 70.6996 59.7193C70.734 59.9163 70.9153 60.3024 70.634 60.4556C70.3979 60.5838 70.4698 60.1617 70.3573 60.0648L70.251 59.8459Z" fill="#D1DEFF"/>
<path fill-rule="evenodd" clip-rule="evenodd" d="M73.4776 59.9381C73.7793 60.0569 74.0778 60.1819 74.3733 60.3117C74.4686 60.2273 74.614 60.2429 74.7266 60.1679C74.872 60.0725 75.0017 59.8693 75.058 59.7005C75.1424 59.4457 75.0126 59.2362 74.8954 59.0408C74.8172 58.911 74.7422 58.7188 74.6234 58.6312C74.4843 58.528 74.2123 58.5687 74.0669 58.6375C73.8871 58.7234 73.7558 58.9079 73.6354 59.072C73.5229 59.2268 73.3916 59.4832 73.3869 59.677C73.3806 59.8865 73.5479 60.1069 73.7011 60.2132L73.4791 59.9349L73.4776 59.9381Z" fill="#D1DEFF"/>
<path fill-rule="evenodd" clip-rule="evenodd" d="M76.1914 121.631C76.4931 121.75 76.7917 121.875 77.0872 122.004C77.1825 121.92 77.3279 121.936 77.4404 121.861C77.5858 121.765 77.7156 121.562 77.7718 121.393C77.8563 121.138 77.7265 120.929 77.6093 120.735C77.5311 120.605 77.4561 120.413 77.3373 120.325C77.1981 120.222 76.9261 120.263 76.7808 120.332C76.601 120.418 76.4697 120.602 76.3493 120.766C76.2368 120.921 76.1054 121.177 76.1008 121.371C76.0945 121.581 76.2618 121.801 76.415 121.907L76.193 121.629L76.1914 121.631Z" fill="#D1DEFF"/>
<path fill-rule="evenodd" clip-rule="evenodd" d="M138.769 119.545C139.071 119.664 139.369 119.789 139.665 119.919C139.76 119.835 139.906 119.85 140.018 119.775C140.164 119.678 140.293 119.477 140.35 119.308C140.434 119.053 140.304 118.844 140.187 118.648C140.109 118.518 140.034 118.326 139.915 118.239C139.776 118.135 139.504 118.176 139.358 118.245C139.179 118.331 139.047 118.515 138.927 118.679C138.814 118.834 138.683 119.091 138.677 119.284C138.671 119.494 138.838 119.714 138.991 119.821L138.769 119.544V119.545Z" fill="#D1DEFF"/>
<path fill-rule="evenodd" clip-rule="evenodd" d="M64.8685 62.8317C64.7388 62.9223 64.634 63.0349 64.5527 63.1709C64.6762 63.3256 64.7372 63.471 64.9467 63.532C65.0311 63.557 65.1202 63.5586 65.189 63.4913C65.2765 63.4054 65.2296 63.31 65.2531 63.2256C65.3109 63.0208 65.3672 62.9677 65.2515 62.7801C65.1812 62.6675 65.1327 62.6222 65.0108 62.6222C64.9248 62.6222 64.7388 62.6456 64.695 62.7426L64.8685 62.8317Z" fill="#D1DEFF"/>
<path fill-rule="evenodd" clip-rule="evenodd" d="M65.5537 67.6088C65.5318 67.6604 65.2988 68.2513 65.6006 68.0809C65.7522 67.9949 65.6975 67.7636 65.5959 67.6964C65.6006 67.6776 65.6068 67.6573 65.6115 67.6385L65.5537 67.6088Z" fill="#D1DEFF"/>
<path fill-rule="evenodd" clip-rule="evenodd" d="M60.9228 96.7614C60.9009 96.8146 60.668 97.4039 60.9697 97.2335C61.1213 97.1476 61.0666 96.9162 60.965 96.849C60.9697 96.8302 60.9759 96.8099 60.9806 96.7911L60.9228 96.7614Z" fill="#D1DEFF"/>
<path fill-rule="evenodd" clip-rule="evenodd" d="M76.1207 71.5325C75.919 71.7967 75.894 71.903 75.8018 72.1766C75.8877 72.2563 76.0566 72.3017 76.1676 72.297C76.3442 72.2891 76.352 72.2329 76.3583 72.064C76.363 71.928 76.4192 71.8202 76.3864 71.6889C76.352 71.5544 76.2191 71.4169 76.0628 71.5028L76.1207 71.5325Z" fill="#D1DEFF"/>
<path fill-rule="evenodd" clip-rule="evenodd" d="M67.9199 63.4085C68.0356 63.5148 68.1075 63.6461 68.1372 63.8024C67.9762 63.843 67.9574 63.6852 67.934 63.5601C67.8965 63.36 67.9887 63.4225 68.0825 63.2631C68.0997 63.2662 68.1185 63.2709 68.1356 63.274L67.9199 63.41V63.4085Z" fill="#D1DEFF"/>
<path fill-rule="evenodd" clip-rule="evenodd" d="M66.3416 57.1087C66.2134 57.1993 66.1086 57.3103 66.0273 57.4463C66.1039 57.5401 66.0664 57.7105 66.2446 57.698C66.3697 57.6886 66.4713 57.5558 66.5323 57.4526C66.6026 57.3322 66.6089 57.2369 66.6167 57.1055C66.6214 57.0399 66.6198 56.7569 66.4994 56.943L66.3416 57.1087Z" fill="#D1DEFF"/>
<path fill-rule="evenodd" clip-rule="evenodd" d="M86.7637 53.8416C86.8028 53.6962 86.8262 53.4945 86.9012 53.3632C86.9231 53.3257 86.9778 53.2929 87.0044 53.2538C87.0935 53.1256 87.0654 53.1037 87.2108 53.1006C87.3765 53.0959 87.4843 53.1131 87.6156 53.2178C88.0643 53.5758 86.9247 53.8525 86.8825 53.5055L86.7637 53.8416Z" fill="#D1DEFF"/>
<path fill-rule="evenodd" clip-rule="evenodd" d="M90.5897 55.2562C90.5318 55.5157 90.3661 55.8659 90.6053 56.0378C90.8117 56.1863 91.2447 55.9534 91.4088 55.8034C91.7011 55.5376 92.0544 55.0342 91.7762 54.6638C91.6136 54.4465 91.154 54.2808 90.8883 54.3058C90.3442 54.3574 90.1864 55.0061 90.1113 55.5251L90.5897 55.2562Z" fill="#D1DEFF"/>
<path fill-rule="evenodd" clip-rule="evenodd" d="M67.5155 70.1538C67.4576 70.4133 67.2919 70.7635 67.5311 70.9354C67.7374 71.0839 68.1705 70.851 68.3346 70.7025C68.6269 70.4367 68.9802 69.9334 68.7019 69.5629C68.5394 69.3456 68.0798 69.1799 67.814 69.2049C67.27 69.2565 67.1121 69.9053 67.0371 70.4242L67.5155 70.1554V70.1538Z" fill="#D1DEFF"/>
<path fill-rule="evenodd" clip-rule="evenodd" d="M131.32 116.139C131.262 116.399 131.097 116.749 131.336 116.921C131.542 117.069 131.975 116.836 132.139 116.688C132.432 116.422 132.785 115.919 132.507 115.548C132.344 115.331 131.884 115.165 131.619 115.19C131.075 115.242 130.917 115.891 130.842 116.41L131.32 116.141V116.139Z" fill="#D1DEFF"/>
<path fill-rule="evenodd" clip-rule="evenodd" d="M152.302 106.896C152.244 107.155 152.078 107.505 152.317 107.679C152.524 107.828 152.957 107.595 153.121 107.445C153.411 107.179 153.766 106.675 153.488 106.305C153.326 106.088 152.866 105.922 152.6 105.947C152.056 105.999 151.898 106.647 151.823 107.166L152.302 106.897V106.896Z" fill="#D1DEFF"/>
<path fill-rule="evenodd" clip-rule="evenodd" d="M92.2626 50.0007C92.2047 49.5567 92.1234 49.1174 92.5189 48.883C92.7347 48.7563 93.1286 48.711 93.3318 48.8626C93.4788 48.9721 93.6069 49.1753 93.6992 49.3269C93.8352 49.552 93.7992 49.552 93.7289 49.7584C93.5663 50.2305 93.4553 50.5415 92.9863 50.5415C92.3657 50.5415 92.2704 50.0601 92.2626 49.4614V50.0007Z" fill="#D1DEFF"/>
<path fill-rule="evenodd" clip-rule="evenodd" d="M98.001 57.8169C98.3402 57.7246 98.6325 57.5464 98.8764 57.2854C98.6325 57.1337 98.0979 56.8195 98.001 57.2776V57.8169Z" fill="#D1DEFF"/>
<path fill-rule="evenodd" clip-rule="evenodd" d="M78.2764 128.742C78.6156 128.65 78.9079 128.471 79.1518 128.21C78.9079 128.059 78.3733 127.745 78.2764 128.203V128.742Z" fill="#D1DEFF"/>
<path fill-rule="evenodd" clip-rule="evenodd" d="M114.872 136.417C115.211 136.325 115.504 136.147 115.747 135.886C115.504 135.734 114.969 135.42 114.872 135.878V136.417Z" fill="#D1DEFF"/>
<path fill-rule="evenodd" clip-rule="evenodd" d="M102.426 64.6888C102.763 64.2729 103.253 63.5148 103.865 63.9306C104.222 64.1713 104.323 64.8123 103.983 65.0655C103.667 65.3015 103.378 65.3688 103.021 65.4657C102.749 65.5407 102.344 65.361 102.426 64.9576V64.6888Z" fill="#D1DEFF"/>
<path fill-rule="evenodd" clip-rule="evenodd" d="M70.035 110.365C70.3727 109.949 70.862 109.191 71.4747 109.606C71.8312 109.849 71.9328 110.488 71.592 110.741C71.2762 110.977 70.987 111.043 70.6306 111.142C70.3586 111.217 69.9537 111.037 70.035 110.633V110.365Z" fill="#D1DEFF"/>
<path fill-rule="evenodd" clip-rule="evenodd" d="M124.19 131.593C124.528 131.177 125.017 130.419 125.63 130.835C125.986 131.077 126.088 131.717 125.747 131.97C125.431 132.206 125.142 132.273 124.786 132.37C124.514 132.445 124.109 132.265 124.19 131.862V131.593Z" fill="#D1DEFF"/>
<path fill-rule="evenodd" clip-rule="evenodd" d="M78.7254 74.5762C79.0631 74.1604 79.5524 73.4022 80.1652 73.818C80.5216 74.0603 80.6232 74.6997 80.2824 74.9529C79.9666 75.189 79.6774 75.2562 79.321 75.3531C79.049 75.4281 78.6441 75.2484 78.7254 74.8451V74.5762Z" fill="#D1DEFF"/>
<path fill-rule="evenodd" clip-rule="evenodd" d="M98.2811 56.5068C98.6188 56.091 99.108 55.3329 99.7208 55.7487C100.077 55.991 100.179 56.6303 99.8381 56.8836C99.5223 57.1196 99.2331 57.1853 98.8767 57.2838C98.6047 57.3588 98.1998 57.179 98.2811 56.7757V56.5068Z" fill="#D1DEFF"/>
<path fill-rule="evenodd" clip-rule="evenodd" d="M146.887 78.8219C147.224 78.4061 147.714 77.6479 148.326 78.0637C148.683 78.306 148.784 78.9454 148.444 79.1986C148.128 79.4347 147.839 79.5019 147.482 79.5988C147.21 79.6738 146.805 79.4941 146.887 79.0908V78.8219Z" fill="#D1DEFF"/>
<path fill-rule="evenodd" clip-rule="evenodd" d="M96.0096 93.4052C96.3473 92.9894 96.8366 92.2313 97.4493 92.6471C97.8058 92.8894 97.9074 93.5287 97.5666 93.782C97.2508 94.018 96.9616 94.0852 96.6052 94.1822C96.3332 94.2572 95.9283 94.0774 96.0096 93.6741V93.4052Z" fill="#D1DEFF"/>
<path fill-rule="evenodd" clip-rule="evenodd" d="M73.315 51.8797C72.1176 52.6395 70.101 53.5837 69.8978 55.2266C69.7743 56.2192 70.2323 56.8023 71.128 57.2322C71.8909 57.598 73.0352 57.6308 73.8011 57.2432C74.8985 56.6898 76.1663 55.7753 76.6587 54.6091C77.0151 53.7665 76.9557 53.1882 76.5602 52.3534C76.3476 51.9047 75.924 51.3686 75.4425 51.2013C73.9121 50.6698 72.9914 52.1721 71.8596 52.8505L73.315 51.8813V51.8797Z" fill="#D1DEFF"/>
<path fill-rule="evenodd" clip-rule="evenodd" d="M78.1359 58.1482C78.372 58.2326 78.5705 58.3639 78.7331 58.5421C78.4986 58.6219 78.2454 58.8079 78.0046 58.7219C77.692 58.6109 77.6341 58.3139 77.7045 58.0153C77.7436 57.8528 78.0359 57.5651 78.2032 57.637C78.2876 57.673 78.3048 57.7887 78.3313 57.8621C78.3892 58.0169 78.3939 57.9841 78.3095 58.1466H78.1344L78.1359 58.1482Z" fill="#D1DEFF"/>
<path fill-rule="evenodd" clip-rule="evenodd" d="M152.638 94.1618C152.874 94.2446 153.072 94.3775 153.235 94.5557C153.001 94.6354 152.747 94.8215 152.507 94.7355C152.194 94.6245 152.136 94.3275 152.206 94.0289C152.246 93.8663 152.538 93.5787 152.705 93.6506C152.79 93.6865 152.807 93.8022 152.833 93.8757C152.891 94.0305 152.896 93.9976 152.811 94.1602H152.636L152.638 94.1618Z" fill="#D1DEFF"/>
<path fill-rule="evenodd" clip-rule="evenodd" d="M64.3995 59.6255C63.7414 60.2023 63.1208 60.8932 62.7707 61.7202C62.5924 62.1407 62.9098 62.1626 63.2912 62.0875C64.0322 61.9422 64.7763 61.7374 65.5079 61.5514C65.9409 61.4404 66.563 61.2121 66.8632 60.8432C67.0945 60.5603 67.1899 60.0757 67.1383 59.7193C67.0664 59.2237 66.7147 59.0299 66.2645 58.9048C65.2343 58.6203 63.9118 59.2972 63.5288 60.2461L64.398 59.6255H64.3995Z" fill="#D1DEFF"/>
<path fill-rule="evenodd" clip-rule="evenodd" d="M67.0828 63.9791C67.4549 63.99 67.8004 64.0791 68.1193 64.248C68.027 64.3574 68.0567 64.5059 68.0083 64.6357C67.9364 64.8264 67.755 65.0186 67.5846 65.1281C67.3001 65.3078 66.8265 65.3751 66.5107 65.2547C65.5509 64.8905 67.0234 63.7524 67.347 64.1557L67.0844 63.9807L67.0828 63.9791Z" fill="#D1DEFF"/>
<path fill-rule="evenodd" clip-rule="evenodd" d="M85.2343 49.0346C85.5923 48.8626 85.9143 48.6438 86.302 48.5781C86.7475 48.5031 87.1602 48.4156 87.6136 48.4171C87.8418 48.4171 88.3514 48.3984 88.2029 48.7704C88.0419 49.1737 87.1743 49.5567 86.8304 49.7193C86.2395 49.9975 85.6845 50.2774 85.0217 50.3461C84.6872 50.3805 84.126 50.4055 83.9368 50.0694C83.7774 49.7881 83.854 49.5567 84.0088 49.2957C84.1713 49.0237 84.3433 48.9095 84.6419 48.7923C84.7794 48.7376 85.547 48.5328 85.586 48.772L85.2359 49.0346H85.2343Z" fill="#D1DEFF"/>
<path fill-rule="evenodd" clip-rule="evenodd" d="M79.2753 49.2097C79.1174 49.3238 77.9059 49.996 78.4827 50.2868C78.7923 50.4431 79.4019 50.3978 79.7161 50.2649C79.9959 50.1461 80.2789 49.9616 80.1038 49.6396C79.7489 48.9893 78.8579 49.3645 78.3983 49.6474L79.2753 49.2097Z" fill="#D1DEFF"/>
<path fill-rule="evenodd" clip-rule="evenodd" d="M101.691 43.8322C101.417 44.0307 99.3164 45.1969 100.315 45.7018C100.853 45.9738 101.91 45.8941 102.455 45.6627C102.942 45.4564 103.432 45.1375 103.128 44.5779C102.512 43.4492 100.966 44.1011 100.168 44.5919L101.689 43.8322H101.691Z" fill="#D1DEFF"/>
<path fill-rule="evenodd" clip-rule="evenodd" d="M62.5361 95.5265C62.6252 96.0252 62.7284 96.5692 63.1614 96.8991C63.6101 97.2414 64.1197 97.1023 64.5605 96.8428C64.8872 96.6505 65.1967 96.4442 65.5156 96.2472C65.7017 96.1331 65.8658 96.1034 65.8736 95.8376C65.883 95.5516 65.6188 95.167 65.4547 94.9513C65.2577 94.6918 64.8622 94.3823 64.5558 94.2682C63.8868 94.018 62.6096 94.2682 62.6237 95.1779L62.5361 95.5281V95.5265Z" fill="#D1DEFF"/>
<path fill-rule="evenodd" clip-rule="evenodd" d="M102.005 96.7942C102.179 97.7603 102.377 98.817 103.217 99.4548C104.087 100.118 105.072 99.8488 105.927 99.3438C106.56 98.9702 107.159 98.5716 107.778 98.1902C108.139 97.9682 108.457 97.9119 108.472 97.3961C108.489 96.8411 107.978 96.097 107.659 95.6765C107.279 95.1747 106.51 94.5729 105.916 94.3525C104.619 93.8679 102.143 94.3493 102.172 96.1142L102.002 96.7942H102.005Z" fill="#D1DEFF"/>
</g>
<path style="mix-blend-mode:screen" fill-rule="evenodd" clip-rule="evenodd" d="M118.155 77.2351C118.155 77.2351 168.933 60.099 177.027 68.8843C186.485 79.15 135.655 110.891 135.655 110.891C135.655 110.891 125.069 111.614 118.108 96.4284C116.051 91.9403 114.115 82.6063 118.156 77.2351H118.155Z" fill="url(#paint20_linear_1272_13710)"/>
<path style="mix-blend-mode:screen" fill-rule="evenodd" clip-rule="evenodd" d="M73.5703 138.689C73.5703 138.689 82.179 175.279 95.8369 176.223C109.493 177.167 118.15 142.528 118.15 142.528C118.15 142.528 111.525 137.064 95.8369 137.064C80.1484 137.064 73.5703 138.689 73.5703 138.689Z" fill="url(#paint21_linear_1272_13710)"/>
<path style="mix-blend-mode:screen" fill-rule="evenodd" clip-rule="evenodd" d="M59.9374 69.2017C59.9374 69.2017 45.7714 66.6786 41.4554 75.8485C36.3327 86.7332 52.9654 95.9578 52.9654 95.9578C52.9654 95.9578 61.6303 95.9938 65.8495 88.2339C70.0686 80.4725 65.1632 69.236 59.9374 69.2017Z" fill="url(#paint22_linear_1272_13710)"/>
<path style="mix-blend-mode:screen" fill-rule="evenodd" clip-rule="evenodd" d="M46.8557 101.624C46.8557 101.624 21.9707 110.269 21.9707 115.187C21.9707 121.359 52.9648 117.132 52.9648 117.132C52.9648 117.132 56.6555 114.476 57.3371 110.058C58.0171 105.64 52.6787 101.013 51.0686 100.877C49.4584 100.743 47.6592 101.13 46.8557 101.623V101.624Z" fill="url(#paint23_linear_1272_13710)"/>
<path style="mix-blend-mode:screen" fill-rule="evenodd" clip-rule="evenodd" d="M109.421 50.7681C109.421 50.7681 119.808 40.7041 132.606 43.8321C145.404 46.9601 137.577 70.3663 137.577 70.3663C137.577 70.3663 128.625 69.9614 119.982 63.9836C111.339 58.0059 109.419 50.7681 109.419 50.7681H109.421Z" fill="url(#paint24_linear_1272_13710)"/>
<path style="mix-blend-mode:screen" opacity="0.5" fill-rule="evenodd" clip-rule="evenodd" d="M134.443 133.324C134.443 133.324 154.19 153.903 156.347 150.569C158.48 147.272 140.377 126.244 140.377 126.244C140.377 126.244 137.068 123.894 134.443 133.325V133.324Z" fill="url(#paint25_linear_1272_13710)"/>
<path fill-rule="evenodd" clip-rule="evenodd" d="M126.841 50.3273C126.488 50.8229 126.449 50.8541 126.416 51.3466C126.399 51.6076 126.338 52.0406 126.437 52.2892C126.604 52.7128 127.218 53.0927 127.667 53.0395C128.04 52.9958 128.488 52.7253 128.836 52.5659C129.279 52.3642 129.501 52.0359 129.688 51.606C129.877 51.1746 129.763 50.8917 129.582 50.468C129.413 50.0725 129.147 49.627 128.838 49.3269C128.475 48.9751 127.998 48.7797 127.551 49.0752C127.153 49.3378 126.712 49.9803 126.698 50.468L126.84 50.3258L126.841 50.3273Z" fill="#FFC445"/>
<path fill-rule="evenodd" clip-rule="evenodd" d="M41.011 111.784C40.825 112.045 40.8047 112.061 40.7875 112.32C40.7781 112.458 40.7469 112.686 40.7984 112.817C40.886 113.041 41.2096 113.241 41.4472 113.213C41.6442 113.189 41.8802 113.047 42.0631 112.964C42.296 112.858 42.4133 112.684 42.5117 112.459C42.6118 112.233 42.5508 112.083 42.4555 111.861C42.3664 111.653 42.2272 111.417 42.0647 111.26C41.8739 111.074 41.6223 110.973 41.3878 111.127C41.1783 111.266 40.9454 111.604 40.9391 111.861L41.0142 111.785L41.011 111.784Z" fill="#FFC445"/>
<path fill-rule="evenodd" clip-rule="evenodd" d="M130.681 56.2988C131.039 56.4019 131.333 56.588 131.566 56.8568C131.327 56.9225 131.372 57.2195 131.116 57.3008C130.82 57.3946 130.651 57.0741 130.396 57.1523L130.681 56.2988Z" fill="#FF8800"/>
<path fill-rule="evenodd" clip-rule="evenodd" d="M106.369 158.609C106.727 158.712 107.021 158.898 107.254 159.167C107.015 159.232 107.06 159.529 106.804 159.611C106.509 159.705 106.34 159.384 106.085 159.462L106.369 158.609Z" fill="#FFC445"/>
<path fill-rule="evenodd" clip-rule="evenodd" d="M137.79 44.6388C137.701 44.9029 137.223 45.8409 137.364 46.1457C137.526 46.4974 137.958 46.3458 138.216 46.1754C138.388 46.0613 138.483 45.8956 138.642 45.7705C138.775 45.6642 138.957 45.622 139.077 45.5017C139.2 45.3782 139.235 45.2 139.346 45.064C139.469 44.9139 139.66 44.8342 139.769 44.695C140.088 44.2886 139.976 43.6852 139.465 43.5367C138.545 43.2694 138.184 44.0307 137.648 44.6419H137.79V44.6388Z" fill="#FFC445"/>
<path fill-rule="evenodd" clip-rule="evenodd" d="M141.743 135.359C141.653 135.625 141.175 136.561 141.316 136.866C141.48 137.217 141.91 137.066 142.169 136.895C142.341 136.781 142.437 136.616 142.596 136.491C142.729 136.384 142.91 136.342 143.031 136.222C143.151 136.101 143.19 135.918 143.299 135.784C143.423 135.634 143.614 135.554 143.723 135.415C144.042 135.009 143.929 134.405 143.418 134.255C142.499 133.988 142.138 134.749 141.602 135.36H141.744L141.743 135.359Z" fill="#FFC445"/>
<path fill-rule="evenodd" clip-rule="evenodd" d="M91.0247 141.968C90.9356 142.232 90.4573 143.17 90.598 143.475C90.7606 143.827 91.192 143.675 91.4515 143.505C91.6235 143.391 91.7188 143.225 91.8783 143.1C92.0111 142.994 92.1925 142.951 92.3128 142.831C92.4363 142.708 92.4723 142.529 92.5817 142.393C92.7052 142.243 92.8959 142.164 93.0053 142.025C93.3242 141.62 93.2117 141.015 92.7005 140.866C91.7813 140.599 91.4202 141.36 90.8841 141.971H91.0263L91.0247 141.968Z" fill="#FFC445"/>
<path fill-rule="evenodd" clip-rule="evenodd" d="M145.469 42.222C145.706 41.6967 145.789 41.4294 146.291 41.1887C146.543 41.0683 146.896 41.0355 146.885 41.4372C146.88 41.6217 146.582 42.0172 146.466 42.1532C146.252 42.4064 145.952 42.4283 145.636 42.3408C145.628 42.3017 145.62 42.2626 145.613 42.2235H145.47L145.469 42.222Z" fill="#FFC445"/>
<path fill-rule="evenodd" clip-rule="evenodd" d="M54.1016 83.0769C54.3392 82.5516 54.422 82.2843 54.9238 82.0436C55.1755 81.9232 55.5288 81.8904 55.5178 82.2921C55.5132 82.4766 55.2146 82.8721 55.0989 83.0081C54.8847 83.2613 54.5846 83.2832 54.2688 83.1957C54.261 83.1566 54.2532 83.1175 54.2438 83.0784H54.1016V83.0769Z" fill="#FFC445"/>
<path fill-rule="evenodd" clip-rule="evenodd" d="M92.0586 167.219C92.2477 166.803 92.3118 166.591 92.7105 166.4C92.909 166.304 93.1888 166.279 93.181 166.597C93.1779 166.744 92.9403 167.056 92.848 167.164C92.6776 167.364 92.4416 167.383 92.1899 167.313C92.1837 167.281 92.1774 167.25 92.1711 167.219H92.0586Z" fill="#FFC445"/>
<path fill-rule="evenodd" clip-rule="evenodd" d="M140.514 87.2617C140.436 86.9646 139.796 87.5383 140.018 87.307C140.209 87.1085 140.606 86.9131 140.844 86.8177C141.172 86.6864 141.406 86.6582 141.733 86.7583C142.197 86.9005 142.684 87.2069 142.932 87.6306C143.65 88.8577 142.677 89.927 141.513 90.3803C140.426 90.8039 138.91 90.5944 138.658 89.261C138.588 88.8874 138.777 88.1167 139.085 87.8604C139.412 87.5868 140.103 87.3336 140.514 87.2632V87.2617Z" fill="#FF8800"/>
<path fill-rule="evenodd" clip-rule="evenodd" d="M52.0752 110.743C52.0298 110.522 51.6562 110.949 51.786 110.777C51.897 110.63 52.1299 110.483 52.2675 110.413C52.4582 110.314 52.5957 110.294 52.7864 110.368C53.0569 110.472 53.3414 110.701 53.4868 111.016C53.9057 111.929 53.3383 112.725 52.6583 113.063C52.0236 113.377 51.1388 113.222 50.9919 112.229C50.9512 111.951 51.0606 111.377 51.2404 111.187C51.4311 110.984 51.8344 110.794 52.0752 110.743Z" fill="#FFC445"/>
<path fill-rule="evenodd" clip-rule="evenodd" d="M57.3878 90.7976C57.4863 90.6741 57.0892 90.6631 57.2409 90.6569C57.3706 90.6522 57.5519 90.7116 57.6536 90.7554C57.7911 90.8148 57.8646 90.8804 57.9099 91.0164C57.974 91.2103 57.9771 91.4651 57.8708 91.6839C57.5645 92.317 56.8813 92.3655 56.3952 92.1482C55.9418 91.9465 55.6323 91.3978 56.1028 90.8757C56.2342 90.7288 56.5937 90.5334 56.7766 90.5459C56.972 90.5584 57.2534 90.6913 57.3894 90.7991L57.3878 90.7976Z" fill="#FFC445"/>
<path fill-rule="evenodd" clip-rule="evenodd" d="M106.587 142.487C106.57 142.232 105.957 142.597 106.176 142.445C106.363 142.314 106.72 142.218 106.928 142.179C107.217 142.125 107.412 142.14 107.662 142.273C108.017 142.464 108.366 142.792 108.499 143.177C108.886 144.293 107.92 145.009 106.898 145.19C105.944 145.36 104.741 144.945 104.75 143.818C104.753 143.502 105.031 142.903 105.324 142.744C105.635 142.573 106.238 142.478 106.585 142.487H106.587Z" fill="#FF8800"/>
<path fill-rule="evenodd" clip-rule="evenodd" d="M48.6039 74.7714C48.5258 74.4744 48.4554 74.3368 48.6774 74.1055C48.8681 73.9069 49.2652 73.7115 49.5028 73.6162C49.8311 73.4849 50.0656 73.4567 50.3923 73.5568C50.8565 73.699 51.3427 74.0054 51.5913 74.4291C52.3088 75.6562 51.3365 76.7254 50.1719 77.1788C49.0854 77.6024 47.5691 77.3929 47.3174 76.0595C47.2471 75.6859 47.4362 74.9152 47.7442 74.6589C48.0709 74.3853 48.7618 74.1321 49.173 74.0617L48.6039 74.773V74.7714Z" fill="#FFC445"/>
<path fill-rule="evenodd" clip-rule="evenodd" d="M152.009 81.6106C151.997 82.4782 152.095 82.4141 152.86 82.5767C153.426 82.697 153.893 82.3609 154.395 82.1436C154.665 82.0264 154.947 81.8138 155.109 81.5762C155.33 81.2557 155.314 81.1369 155.03 80.9009C154.837 80.7414 154.595 80.5382 154.343 80.4866C154.192 80.4554 154.042 80.4757 153.888 80.4429C153.792 80.4225 153.718 80.3475 153.582 80.3256C153.23 80.2709 152.416 80.5367 152.141 80.7524C151.905 80.9368 151.662 81.4605 151.723 81.7544L152.008 81.6122L152.009 81.6106Z" fill="#FFC445"/>
<path fill-rule="evenodd" clip-rule="evenodd" d="M160.941 85.5467C160.901 85.4529 160.883 85.3576 160.891 85.2575C161.01 85.1793 161.024 85.0199 161.174 84.9496C161.282 84.898 161.418 84.8792 161.524 84.9355C161.732 85.0433 161.726 85.3075 161.624 85.4748C161.549 85.5983 161.479 85.8062 161.337 85.8828C161.155 85.9813 160.885 85.7671 160.827 85.6045L160.943 85.5467H160.941Z" fill="#FFC445"/>
<path fill-rule="evenodd" clip-rule="evenodd" d="M150.457 142.29C150.417 142.196 150.4 142.101 150.407 142.001C150.526 141.923 150.54 141.763 150.69 141.693C150.798 141.642 150.934 141.623 151.041 141.679C151.248 141.787 151.242 142.051 151.141 142.218C151.066 142.342 150.995 142.55 150.851 142.626C150.67 142.725 150.4 142.511 150.342 142.348L150.457 142.29Z" fill="#FFC445"/>
<path fill-rule="evenodd" clip-rule="evenodd" d="M103.276 145.767C103.235 145.673 103.218 145.578 103.226 145.478C103.345 145.4 103.359 145.24 103.509 145.17C103.617 145.118 103.753 145.099 103.859 145.156C104.067 145.264 104.061 145.528 103.959 145.695C103.884 145.818 103.814 146.026 103.67 146.103C103.488 146.201 103.218 145.987 103.16 145.825L103.276 145.767Z" fill="#FFC445"/>
<path fill-rule="evenodd" clip-rule="evenodd" d="M39.1479 73.8398C39.1073 73.746 39.0901 73.6506 39.0979 73.5506C39.2167 73.4724 39.2308 73.313 39.3808 73.2426C39.4887 73.191 39.6247 73.1723 39.731 73.2285C39.9389 73.3364 39.9326 73.6006 39.831 73.7679C39.756 73.8914 39.6857 74.0993 39.5418 74.1759C39.3605 74.2743 39.0901 74.0602 39.0322 73.8976L39.1479 73.8398Z" fill="#FFC445"/>
<path fill-rule="evenodd" clip-rule="evenodd" d="M136.084 101.659C136.317 101.257 136.368 101.079 136.795 100.98C137.006 100.93 137.328 100.882 137.512 101.013C137.803 101.22 137.895 102.032 137.761 102.339C137.566 102.783 136.956 102.711 136.621 102.551C136.099 102.303 135.951 102.07 135.941 101.518L136.084 101.66V101.659Z" fill="#FFC445"/>
<path fill-rule="evenodd" clip-rule="evenodd" d="M165.661 68.6702C165.583 68.7671 165.549 68.875 165.558 68.9922C165.815 69.1626 166.598 68.9828 166.546 68.5904C166.521 68.3966 166.285 68.3325 166.123 68.3122C165.788 68.27 165.618 68.5654 165.447 68.8124L165.66 68.6702H165.661Z" fill="#FFC445"/>
<path fill-rule="evenodd" clip-rule="evenodd" d="M120.283 81.4464C120.205 81.5433 120.171 81.6512 120.18 81.7684C120.437 81.9388 121.22 81.759 121.168 81.3667C121.143 81.1728 120.907 81.1087 120.745 81.0884C120.41 81.0462 120.24 81.3416 120.069 81.5886L120.282 81.4464H120.283Z" fill="#FFC445"/>
<path fill-rule="evenodd" clip-rule="evenodd" d="M33.3782 80.3037C33.2985 80.4006 33.2657 80.5085 33.2751 80.6257C33.5314 80.7961 34.3146 80.6164 34.263 80.224C34.238 80.0302 34.002 79.9661 33.8394 79.9457C33.5048 79.9035 33.3345 80.199 33.1641 80.446L33.3767 80.3037H33.3782Z" fill="#FFC445"/>
<path fill-rule="evenodd" clip-rule="evenodd" d="M31.0335 110.885C30.9538 110.982 30.9209 111.09 30.9303 111.207C31.1867 111.378 31.9699 111.198 31.9183 110.805C31.8933 110.612 31.6572 110.547 31.4946 110.527C31.1601 110.485 30.9897 110.779 30.8193 111.027L31.0319 110.885H31.0335Z" fill="#FFC445"/>
<path fill-rule="evenodd" clip-rule="evenodd" d="M90.8651 160.245C90.6838 160.963 90.529 161.369 91.0871 161.871C91.4576 162.204 92.1141 162.425 92.619 162.393C93.4319 162.343 94.7857 161.691 94.5012 160.661C94.3558 160.133 93.5288 159.498 93.0099 159.381C91.9453 159.14 90.887 159.994 90.8667 161.099V160.245H90.8651Z" fill="#FFC445"/>
<path style="mix-blend-mode:screen" fill-rule="evenodd" clip-rule="evenodd" d="M63.6854 143.184C57.8843 138.327 53.0742 132.311 49.6179 125.497C47.4466 121.213 45.8115 116.619 44.7985 111.8C44.7891 111.79 44.7891 111.77 44.7891 111.751C44.0106 108.013 43.5917 104.138 43.5917 100.166C43.5917 89.0875 46.8041 78.7593 52.3442 70.0568C54.7 66.3582 57.4653 62.9691 60.5902 59.9318C70.7043 50.0991 84.4997 44.0447 99.7146 44.0447C100.942 44.0447 102.149 44.0838 103.355 44.162C107.16 44.4058 110.859 45.0358 114.418 46.0003C110.032 44.5637 105.403 43.6555 100.609 43.3475C99.4019 43.2694 98.1951 43.2303 96.968 43.2303C81.7516 43.2303 67.9577 49.2862 57.8436 59.1173C54.7187 62.1547 51.9534 65.5422 49.5976 69.2423C44.0591 77.9448 40.8467 88.2746 40.8467 99.3516C40.8467 103.324 41.2656 107.197 42.0441 110.937C42.0441 110.955 42.0441 110.976 42.0535 110.985C43.0665 115.805 44.7016 120.399 46.8729 124.682C50.3292 131.496 55.1377 137.513 60.9404 142.37C67.0885 147.529 74.3497 151.38 82.3112 153.531C75.4236 151.285 69.1223 147.743 63.6885 143.184H63.6854Z" fill="url(#paint26_radial_1272_13710)"/>
</g>
<path style="mix-blend-mode:screen" opacity="0.45" fill-rule="evenodd" clip-rule="evenodd" d="M99 0.334961C44.3365 0.334961 0 44.6412 0 99.3351C0 154.029 44.3365 198.335 99 198.335C153.664 198.335 198 153.999 198 99.3351C198 44.6715 153.694 0.334961 99 0.334961ZM99 194.489C46.4564 194.489 3.84613 151.879 3.84613 99.3351C3.84613 46.7914 46.4564 4.1811 99 4.1811C151.544 4.1811 194.154 46.7914 194.154 99.3351C194.154 151.879 151.544 194.489 99 194.489Z" fill="url(#paint27_linear_1272_13710)"/>
</g>
<defs>
<radialGradient id="paint0_radial_1272_13710" cx="0" cy="0" r="1" gradientUnits="userSpaceOnUse" gradientTransform="translate(92.2146 94.7591) scale(72.4148)">
<stop stop-color="#009BFF"/>
<stop offset="1"/>
</radialGradient>
<radialGradient id="paint1_radial_1272_13710" cx="0" cy="0" r="1" gradientUnits="userSpaceOnUse" gradientTransform="translate(86.0379 93.6411) scale(60.614 60.614)">
<stop stop-color="#009BFF"/>
<stop offset="1"/>
</radialGradient>
<radialGradient id="paint2_radial_1272_13710" cx="0" cy="0" r="1" gradientUnits="userSpaceOnUse" gradientTransform="translate(92.2143 94.7588) scale(61.688 61.688)">
<stop stop-color="#0092FF"/>
<stop offset="0.13" stop-color="#008FFB"/>
<stop offset="0.26" stop-color="#0088EF"/>
<stop offset="0.38" stop-color="#007DDA"/>
<stop offset="0.51" stop-color="#006DBE"/>
<stop offset="0.63" stop-color="#00589A"/>
<stop offset="0.76" stop-color="#003F6E"/>
<stop offset="0.88" stop-color="#00213A"/>
<stop offset="1"/>
</radialGradient>
<radialGradient id="paint3_radial_1272_13710" cx="0" cy="0" r="1" gradientUnits="userSpaceOnUse" gradientTransform="translate(63.6496 72.5782) scale(97.6156 97.6156)">
<stop stop-color="#4F8CFF"/>
<stop offset="0.15" stop-color="#4A85F8"/>
<stop offset="0.36" stop-color="#3D71E6"/>
<stop offset="0.61" stop-color="#2852C8"/>
<stop offset="0.9" stop-color="#0B269F"/>
<stop offset="1" stop-color="#00158E"/>
</radialGradient>
<radialGradient id="paint4_radial_1272_13710" cx="0" cy="0" r="1" gradientUnits="userSpaceOnUse" gradientTransform="translate(66.8432 75.9954) scale(88.3269 88.3269)">
<stop stop-color="#FF7263"/>
<stop offset="0.21" stop-color="#FC6E62"/>
<stop offset="0.37" stop-color="#F36561"/>
<stop offset="0.51" stop-color="#E4545F"/>
<stop offset="0.64" stop-color="#D03D5D"/>
<stop offset="0.77" stop-color="#B51F5A"/>
<stop offset="0.88" stop-color="#9A0057"/>
<stop offset="0.99" stop-color="#9A00AE"/>
</radialGradient>
<radialGradient id="paint5_radial_1272_13710" cx="0" cy="0" r="1" gradientUnits="userSpaceOnUse" gradientTransform="translate(120.938 81.3338) scale(33.1747 33.1748)">
<stop stop-color="#0088E8"/>
<stop offset="0.19" stop-color="#1595EE"/>
<stop offset="0.53" stop-color="#34AAF7"/>
<stop offset="0.81" stop-color="#48B6FC"/>
<stop offset="1" stop-color="#4FBBFF"/>
</radialGradient>
<linearGradient id="paint6_linear_1272_13710" x1="50.2354" y1="77.8228" x2="71.8016" y2="77.8228" gradientUnits="userSpaceOnUse">
<stop stop-color="#A131A4"/>
<stop offset="1" stop-color="#FFC0B3"/>
</linearGradient>
<linearGradient id="paint7_linear_1272_13710" x1="94.5374" y1="154.962" x2="94.5374" y2="138.559" gradientUnits="userSpaceOnUse">
<stop stop-color="#4FBBFF"/>
<stop offset="0.19" stop-color="#48B6FC"/>
<stop offset="0.47" stop-color="#34AAF7"/>
<stop offset="0.81" stop-color="#1595EE"/>
<stop offset="1" stop-color="#0088E8"/>
</linearGradient>
<linearGradient id="paint8_linear_1272_13710" x1="54.6129" y1="97.0115" x2="54.6129" y2="65.2827" gradientUnits="userSpaceOnUse">
<stop stop-color="#4FBBFF"/>
<stop offset="0.19" stop-color="#48B6FC"/>
<stop offset="0.47" stop-color="#34AAF7"/>
<stop offset="0.81" stop-color="#1595EE"/>
<stop offset="1" stop-color="#0088E8"/>
</linearGradient>
<linearGradient id="paint9_linear_1272_13710" x1="97.7067" y1="116.968" x2="112.889" y2="116.968" gradientUnits="userSpaceOnUse">
<stop stop-color="#0088E8"/>
<stop offset="0.03" stop-color="#0B8DE9"/>
<stop offset="0.24" stop-color="#4EAFEF"/>
<stop offset="0.43" stop-color="#87CBF5"/>
<stop offset="0.61" stop-color="#B3E1F9"/>
<stop offset="0.77" stop-color="#D2F1FC"/>
<stop offset="0.91" stop-color="#E6FBFE"/>
<stop offset="1" stop-color="#EDFFFF"/>
</linearGradient>
<linearGradient id="paint10_linear_1272_13710" x1="66.4804" y1="126.794" x2="58.5657" y2="131.089" gradientUnits="userSpaceOnUse">
<stop stop-color="#0088E8"/>
<stop offset="0.03" stop-color="#0B8DE9"/>
<stop offset="0.24" stop-color="#4EAFEF"/>
<stop offset="0.43" stop-color="#87CBF5"/>
<stop offset="0.61" stop-color="#B3E1F9"/>
<stop offset="0.77" stop-color="#D2F1FC"/>
<stop offset="0.91" stop-color="#E6FBFE"/>
<stop offset="1" stop-color="#EDFFFF"/>
</linearGradient>
<linearGradient id="paint11_linear_1272_13710" x1="108.607" y1="85.7171" x2="145.49" y2="85.7171" gradientUnits="userSpaceOnUse">
<stop stop-color="#A131A4"/>
<stop offset="1" stop-color="#FFC0B3"/>
</linearGradient>
<linearGradient id="paint12_linear_1272_13710" x1="100.854" y1="56.8131" x2="122.649" y2="56.8131" gradientUnits="userSpaceOnUse">
<stop stop-color="#A131A4"/>
<stop offset="1" stop-color="#FFC0B3"/>
</linearGradient>
<linearGradient id="paint13_linear_1272_13710" x1="47.3252" y1="104.249" x2="59.9373" y2="104.249" gradientUnits="userSpaceOnUse">
<stop stop-color="#A131A4"/>
<stop offset="1" stop-color="#FFC0B3"/>
</linearGradient>
<linearGradient id="paint14_linear_1272_13710" x1="95.0992" y1="114.412" x2="112.088" y2="114.412" gradientUnits="userSpaceOnUse">
<stop stop-color="#A131A4"/>
<stop offset="1" stop-color="white"/>
</linearGradient>
<linearGradient id="paint15_linear_1272_13710" x1="67.1529" y1="137.454" x2="120.62" y2="137.454" gradientUnits="userSpaceOnUse">
<stop stop-color="#A131A4"/>
<stop offset="1" stop-color="#FFC0B3"/>
</linearGradient>
<linearGradient id="paint16_linear_1272_13710" x1="47.7191" y1="119.364" x2="47.7191" y2="98.4402" gradientUnits="userSpaceOnUse">
<stop stop-color="#4FBBFF"/>
<stop offset="0.19" stop-color="#48B6FC"/>
<stop offset="0.47" stop-color="#34AAF7"/>
<stop offset="0.81" stop-color="#1595EE"/>
<stop offset="1" stop-color="#0088E8"/>
</linearGradient>
<radialGradient id="paint17_radial_1272_13710" cx="0" cy="0" r="1" gradientUnits="userSpaceOnUse" gradientTransform="translate(61.6965 73.351) scale(104.367 95.9048)">
<stop stop-color="#B1FFFF"/>
<stop offset="0.29" stop-color="#B0FCFF"/>
<stop offset="0.44" stop-color="#AEF5FF"/>
<stop offset="0.55" stop-color="#ABE7FF"/>
<stop offset="0.62" stop-color="#A9DBFF"/>
<stop offset="0.65" stop-color="#A2D6FE"/>
<stop offset="0.7" stop-color="#8EC9FC"/>
<stop offset="0.76" stop-color="#6FB5F8"/>
<stop offset="0.82" stop-color="#4398F4"/>
<stop offset="0.89" stop-color="#0B74EE"/>
<stop offset="0.91" stop-color="#006DED"/>
</radialGradient>
<radialGradient id="paint18_radial_1272_13710" cx="0" cy="0" r="1" gradientUnits="userSpaceOnUse" gradientTransform="translate(78.8579 79.0438) rotate(-34.8) scale(28.6851 24.0474)">
<stop stop-color="#FF7700"/>
<stop offset="0.17" stop-color="#C45B00"/>
<stop offset="0.4" stop-color="#7F3B00"/>
<stop offset="0.6" stop-color="#482100"/>
<stop offset="0.78" stop-color="#210F00"/>
<stop offset="0.92" stop-color="#080400"/>
<stop offset="1"/>
</radialGradient>
<radialGradient id="paint19_radial_1272_13710" cx="0" cy="0" r="1" gradientUnits="userSpaceOnUse" gradientTransform="translate(113.124 50.7885) scale(32.6011 32.6011)">
<stop stop-color="#0088E8"/>
<stop offset="0.14" stop-color="#1B92EC"/>
<stop offset="0.4" stop-color="#4BA5F4"/>
<stop offset="0.64" stop-color="#6EB3FA"/>
<stop offset="0.83" stop-color="#83BBFD"/>
<stop offset="0.96" stop-color="#8BBFFF"/>
</radialGradient>
<linearGradient id="paint20_linear_1272_13710" x1="120.403" y1="101.14" x2="169.518" y2="59.9271" gradientUnits="userSpaceOnUse">
<stop stop-color="#FF3D00"/>
<stop offset="1"/>
</linearGradient>
<linearGradient id="paint21_linear_1272_13710" x1="95.8603" y1="176.24" x2="95.8603" y2="137.063" gradientUnits="userSpaceOnUse">
<stop/>
<stop offset="1" stop-color="#FF3D00"/>
</linearGradient>
<linearGradient id="paint22_linear_1272_13710" x1="40.7425" y1="83.5661" x2="67.4768" y2="81.2275" gradientUnits="userSpaceOnUse">
<stop/>
<stop offset="1" stop-color="#FF3D00"/>
</linearGradient>
<linearGradient id="paint23_linear_1272_13710" x1="21.6565" y1="111.682" x2="57.3559" y2="108.56" gradientUnits="userSpaceOnUse">
<stop/>
<stop offset="1" stop-color="#FF3D00"/>
</linearGradient>
<linearGradient id="paint24_linear_1272_13710" x1="119.66" y1="64.4073" x2="137.351" y2="46.7178" gradientUnits="userSpaceOnUse">
<stop stop-color="#FF3D00"/>
<stop offset="1"/>
</linearGradient>
<linearGradient id="paint25_linear_1272_13710" x1="153.851" y1="152.387" x2="136.468" y2="127.562" gradientUnits="userSpaceOnUse">
<stop/>
<stop offset="1" stop-color="#FF3D00"/>
</linearGradient>
<radialGradient id="paint26_radial_1272_13710" cx="0" cy="0" r="1" gradientUnits="userSpaceOnUse" gradientTransform="translate(55.9552 61.1527) scale(73.8702 73.8702)">
<stop stop-color="#FFFFD9"/>
<stop offset="1"/>
</radialGradient>
<linearGradient id="paint27_linear_1272_13710" x1="99" y1="5.33191" x2="99" y2="207.875" gradientUnits="userSpaceOnUse">
<stop stop-color="#27A2D9"/>
<stop offset="0.19" stop-color="#1D78A1"/>
<stop offset="0.39" stop-color="#124E68"/>
<stop offset="0.59" stop-color="#0A2C3B"/>
<stop offset="0.76" stop-color="#04141A"/>
<stop offset="0.9" stop-color="#010507"/>
<stop offset="1"/>
</linearGradient>
<clipPath id="clip0_1272_13710">
<rect width="198" height="198" fill="white" transform="translate(0 0.334961)"/>
</clipPath>
<clipPath id="clip1_1272_13710">
<rect width="158.4" height="153.896" fill="white" transform="translate(19.7998 22.344)"/>
</clipPath>
</defs>
</svg>
