<svg width="700" height="724" viewBox="0 0 700 724" fill="none" xmlns="http://www.w3.org/2000/svg">
<path fill-rule="evenodd" clip-rule="evenodd" d="M682.164 665.761C682.111 697.438 656.334 723.188 624.649 723.188H75.3495C43.6638 723.188 17.8874 697.438 17.8339 665.761L-0.000976562 57.5114C-0.000976562 25.799 25.8021 -0.00415039 57.5146 -0.00415039H642.484C674.205 -0.00415039 699.999 25.799 699.999 57.5114L682.164 665.761ZM683.055 57.5225V57.5136C683.053 46.5005 678.712 36.1827 670.835 28.4929C663.206 21.0416 653.134 16.9417 642.474 16.9417H57.5055C35.1428 16.9417 16.9336 35.142 16.9336 57.5136L34.7774 665.674C34.7774 688.046 52.9867 706.246 75.3493 706.246H624.648C647.02 706.246 665.22 688.046 665.22 665.674L683.055 57.5225Z" fill="#FCEA0D"/>
</svg>
