<svg width="460" height="772" viewBox="0 0 460 772" fill="none" xmlns="http://www.w3.org/2000/svg">
<g clip-path="url(#clip0_1536_1709)">
<path opacity="0.53" d="M288.955 326.138L290.048 71.1314L184.402 86.4811L178.96 323.092C167.922 325.702 156.819 329.189 145.998 333.622C35.1455 379.035 -17.802 505.651 27.5739 616.413C72.9497 727.174 199.603 780.212 310.364 734.836C421.125 689.461 474.164 562.807 428.788 452.046C402.747 388.481 349.983 343.935 288.736 326.122L288.955 326.138Z" fill="white"/>
<path d="M135.849 15.1473C135.849 15.1473 237.25 35.8388 333.066 8.16125C333.066 8.16125 222.828 -8.69742 135.849 15.1473Z" fill="url(#paint0_linear_1536_1709)"/>
<path d="M305.077 92.2677L333.066 8.16127L135.849 15.1473L149.773 98.65L169.403 97.8299L169.457 315.197C71.6975 341.759 -0.137718 431.085 -0.0765634 537.259C-0.0421939 664.365 102.901 767.366 230.044 767.423C357.15 767.388 460.152 664.446 460.117 537.339C460.093 431.256 388.215 341.866 290.561 315.286L290.574 92.8993L305.077 92.2677ZM269.461 328.071C360.732 346.329 429.398 426.84 429.38 523.488C429.327 633.532 340.136 722.746 230.129 722.784C120.085 722.732 30.8715 633.54 30.8332 523.534C30.8512 426.885 99.6025 346.363 190.789 328.123L190.776 102.561L269.417 98.8054L269.407 328.199L269.461 328.071Z" fill="url(#paint1_linear_1536_1709)"/>
<path d="M163.087 13.9716C163.087 13.9716 248.518 21.346 307.509 9.28571C307.509 9.28571 230.246 -1.22252 163.087 13.9716Z" fill="#948CA9"/>
<path opacity="0.52" d="M304.25 15.0809L284.498 93.3704C284.498 93.3704 255.716 95.1791 237.327 95.9159L243.525 22.6481C243.525 22.6481 292.646 17.6045 304.288 15.1719L304.25 15.0809Z" fill="url(#paint2_linear_1536_1709)"/>
<path opacity="0.52" d="M147.25 17.061L160.425 98.2158C160.425 98.2158 182.064 97.6345 192.445 97.3109L194.446 21.8334C194.446 21.8334 154.783 18.8599 147.378 17.1147L147.25 17.061Z" fill="url(#paint3_linear_1536_1709)"/>
<path d="M290.648 315.25L269.457 328.073L270.817 94.1965L290.661 92.8636L290.648 315.25Z" fill="url(#paint4_linear_1536_1709)"/>
<path d="M333.112 343.731C337.005 348.827 347.33 352.774 352.856 356.67C359.593 361.45 366.078 366.652 372.183 372.222C384.559 383.506 395.633 396.28 404.892 410.328C426.44 442.706 438.478 481.422 438.638 520.438C438.789 558.395 427.914 595.878 409.814 629.206C391.713 662.534 366.864 691.83 338.606 717.212C384.154 692.818 420.566 651.563 438.613 603.071C456.66 554.579 456.037 499.398 436.532 451.528C417.831 405.877 381.995 367.14 337.561 345.519C336.077 344.746 334.426 343.829 332.967 343.896L333.112 343.731Z" fill="url(#paint5_linear_1536_1709)"/>
<path opacity="0.52" d="M125.077 348.14C121.214 353.227 110.826 357.164 105.33 361.115C98.5807 365.898 92.1999 371.06 86.0963 376.641C73.7071 387.876 62.6086 400.706 53.3629 414.689C31.806 447.096 19.8274 485.775 19.6401 524.72C19.444 562.608 30.3773 600.183 48.3742 633.485C66.4083 666.877 91.3612 696.161 119.566 721.457C73.9767 697.017 37.5368 655.766 19.4869 607.3C1.43701 558.834 2.05445 503.57 21.5489 455.759C40.1844 409.999 76.0885 371.395 120.419 349.73C121.927 349.005 123.543 348.025 124.949 348.086L125.077 348.14Z" fill="url(#paint6_linear_1536_1709)"/>
<path d="M136.656 722.74C136.656 722.74 233.292 798.165 329.953 722.776C329.953 722.776 242.973 770.728 136.656 722.74Z" fill="url(#paint7_linear_1536_1709)"/>
<path d="M14.5663 476.036C14.5663 476.036 -15.1185 566.891 40.1983 648.516C40.1983 648.516 7.37076 572.014 14.5663 476.036Z" fill="white"/>
<path d="M174.738 118.371L174.715 313.256C174.715 313.256 194.117 230.224 174.738 118.371Z" fill="white"/>
<path d="M179.055 60.2105C180.266 76.3876 177.639 89.6767 173.207 90.0055C168.776 90.3343 164.271 77.5242 163.06 61.3471C161.849 45.17 164.476 31.881 168.907 31.5521C173.339 31.2233 177.844 44.0334 179.055 60.2105Z" fill="white"/>
<path d="M144.207 16.608C144.207 16.608 219.211 38.4496 297.607 16.2091C297.607 16.2091 222.08 30.1588 144.207 16.608Z" fill="white"/>
<path d="M174.77 320.666C174.77 320.666 232.069 355.284 280.114 321.689C280.114 321.689 233.383 337.753 174.77 320.666Z" fill="white"/>
<path opacity="0.39" d="M264.8 94.5369L264.859 330.062C264.859 330.062 406.125 395.699 403.829 525.671C401.533 655.644 264.904 719.794 264.904 719.794C264.904 719.794 351.821 563.332 330.068 499.604C308.351 435.966 252.392 334.108 252.392 334.108L252.36 95.279L264.837 94.6279L264.8 94.5369Z" fill="white"/>
<path opacity="0.39" d="M187.715 97.4428L187.724 331.289C187.724 331.289 46.4907 396.902 48.7756 526.909C51.1515 656.879 187.77 721.021 187.77 721.021C187.77 721.021 125.524 565.452 147.26 501.855C168.958 438.167 214.14 334.592 214.14 334.592L214.133 96.6028L187.769 97.3146L187.715 97.4428Z" fill="white"/>
<path d="M102.714 522.972C102.679 560.474 111.778 592.536 96.6138 592.589C81.4118 592.551 58.399 557.375 58.4341 519.872C58.4691 482.37 81.4144 456.721 96.6164 456.759C111.818 456.797 102.749 485.469 102.714 522.972Z" fill="white"/>
<path d="M127.311 424.644C121.467 437.339 111.569 445.323 105.176 442.42C98.7832 439.517 98.3676 426.837 104.211 414.142C110.055 401.446 119.953 393.462 126.346 396.365C132.739 399.269 133.155 411.948 127.311 424.644Z" fill="white"/>
<g style="mix-blend-mode:multiply">
<path d="M169.533 97.883C169.533 97.883 244.508 96.5847 290.667 92.8615L290.605 118.375C290.605 118.375 234.415 118.349 169.539 103.084L169.495 97.7921L169.533 97.883Z" fill="#948CA9"/>
</g>
</g>
<defs>
<linearGradient id="paint0_linear_1536_1709" x1="135.861" y1="12.4653" x2="332.995" y2="12.4737" gradientUnits="userSpaceOnUse">
<stop stop-color="#B5AAC3"/>
<stop offset="0.9" stop-color="#DDD6E5"/>
<stop offset="1" stop-color="#E2DCE9"/>
</linearGradient>
<linearGradient id="paint1_linear_1536_1709" x1="-37.6353" y1="490.944" x2="449.15" y2="291.521" gradientUnits="userSpaceOnUse">
<stop stop-color="#E6DFE7"/>
<stop offset="0.45" stop-color="#D7CFDF"/>
<stop offset="1" stop-color="#C1B8D3"/>
</linearGradient>
<linearGradient id="paint2_linear_1536_1709" x1="261.053" y1="99.5408" x2="275.208" y2="10.4084" gradientUnits="userSpaceOnUse">
<stop stop-color="#948CA9"/>
<stop offset="0.36" stop-color="#A39AB3"/>
<stop offset="1" stop-color="#C7BCCE"/>
</linearGradient>
<linearGradient id="paint3_linear_1536_1709" x1="163.174" y1="98.6522" x2="175.854" y2="18.8557" gradientUnits="userSpaceOnUse">
<stop stop-color="#FFFDF7"/>
<stop offset="0.82" stop-color="#FFFEFC"/>
<stop offset="1" stop-color="white"/>
</linearGradient>
<linearGradient id="paint4_linear_1536_1709" x1="217.122" y1="155.751" x2="337.894" y2="260.711" gradientUnits="userSpaceOnUse">
<stop stop-color="#948CA9"/>
<stop offset="0.36" stop-color="#A39AB3"/>
<stop offset="1" stop-color="#C7BCCE"/>
</linearGradient>
<linearGradient id="paint5_linear_1536_1709" x1="244.624" y1="445.36" x2="443.224" y2="618.033" gradientUnits="userSpaceOnUse">
<stop stop-color="#C7BCCE"/>
<stop offset="0.64" stop-color="#A39AB3"/>
<stop offset="1" stop-color="#948CA9"/>
</linearGradient>
<linearGradient id="paint6_linear_1536_1709" x1="6.31741" y1="534.677" x2="124.932" y2="534.682" gradientUnits="userSpaceOnUse">
<stop stop-color="#FFFDF7"/>
<stop offset="0.82" stop-color="#FFFEFC"/>
<stop offset="1" stop-color="white"/>
</linearGradient>
<linearGradient id="paint7_linear_1536_1709" x1="178.187" y1="674.822" x2="288.248" y2="770.446" gradientUnits="userSpaceOnUse">
<stop stop-color="#C7BCCE"/>
<stop offset="0.64" stop-color="#A39AB3"/>
<stop offset="1" stop-color="#948CA9"/>
</linearGradient>
<clipPath id="clip0_1536_1709">
<rect width="460" height="772" fill="white"/>
</clipPath>
</defs>
</svg>
